<svg width="100" height="100" viewBox="0 0 100 100" fill="none" xmlns="http://www.w3.org/2000/svg">
<g clip-path="url(#clip0_657_1606)">
<mask id="mask0_657_1606" style="mask-type:alpha" maskUnits="userSpaceOnUse" x="0" y="0" width="100" height="100">
<path d="M50 100C77.6142 100 100 77.6142 100 50C100 22.3858 77.6142 0 50 0C22.3858 0 0 22.3858 0 50C0 77.6142 22.3858 100 50 100Z" fill="#D9D9D9"/>
</mask>
<g mask="url(#mask0_657_1606)">
<path d="M99.5 50C99.5 22.6619 77.3381 0.5 50 0.5C22.6619 0.5 0.5 22.6619 0.5 50C0.5 77.3381 22.6619 99.5 50 99.5C77.3381 99.5 99.5 77.3381 99.5 50Z" fill="white" stroke="black"/>
<path d="M47.3899 79.3367C47.3711 79.3287 47.3543 79.3168 47.3405 79.3018L47.3227 79.2852C47.2436 79.2113 47.1684 79.1332 47.0975 79.0513C46.9079 78.8359 46.6536 78.5207 46.4299 78.2421C45.9865 77.6894 45.6201 77.2132 45.5511 77.1235L45.4382 76.9767L44.3326 76.6357L43.5254 76.2594L43.9567 75.7746L45.4382 76.4088L46.5438 76.6357L48.5883 78.1395L48.5867 78.1407C48.5826 78.1442 48.2894 78.3881 47.998 78.6532C47.868 78.7713 47.7042 78.9236 47.5885 79.0493C47.5408 79.1004 47.4965 79.1547 47.4561 79.2116C47.4318 79.252 47.4097 79.2937 47.3899 79.3367ZM39.7973 77.0565C38.7999 77.0474 37.8227 76.774 36.9654 76.2641L36.9644 76.2629C37.0687 76.089 37.2082 75.9387 37.374 75.8217C37.6503 75.6188 38.1487 75.3764 38.954 75.3733H38.9707C39.9244 75.3733 41.0916 75.6975 42.44 76.3371C41.6406 76.8121 40.7271 77.0608 39.7973 77.0565ZM35.6167 76.1298C35.4461 76.1331 35.2823 76.0642 35.1654 75.9401C35.0645 75.8228 34.995 75.6817 34.9633 75.5303C34.9177 75.3337 34.9008 75.1314 34.9133 74.93C34.9836 74.8996 35.0591 74.8825 35.1357 74.8796H35.1516C35.509 74.8796 35.7907 75.1897 35.9114 75.497C35.9772 75.6329 35.9912 75.7881 35.9504 75.9336C35.8898 76.0605 35.7579 76.1378 35.6174 76.1286L35.6167 76.1298ZM42.973 75.2772C40.502 74.9243 39.4547 74.031 39.0111 73.3438C38.7303 72.9267 38.5982 72.4273 38.6362 71.926V71.924H38.638C38.7622 71.8955 38.8891 71.8815 39.0164 71.8823C39.6737 71.8823 41.3551 72.213 42.9735 75.2761L42.9745 75.2781L42.9717 75.2766L42.973 75.2772ZM37.9084 74.7875C36.8528 74.7875 36.0491 74.6053 35.5196 74.2466C35.2944 74.1024 35.113 73.8993 34.9949 73.6595C34.9518 73.5685 34.9233 73.4713 34.9103 73.3715C35.2621 73.2289 35.6363 73.1495 36.0156 73.1366C36.0702 73.1341 36.1251 73.1325 36.1828 73.1324C36.9987 73.1324 38.2393 73.3986 39.5486 74.6668L39.5499 74.6681H39.5483C39.0044 74.7431 38.4561 74.783 37.9071 74.7877L37.9084 74.7875ZM32.7968 74.5911C31.6837 74.5911 30.1545 74.2512 29.2008 73.2976L29.1998 73.2965H29.2026C29.9276 73.1253 30.6678 73.0269 31.4122 73.003C31.4817 73.0013 31.5517 73.0004 31.6222 73.0003C32.6659 73.0003 33.4647 73.2027 33.9968 73.6017C34.1454 73.6909 34.2558 73.8321 34.3068 73.9978C34.3186 74.1201 34.2604 74.2385 34.1565 74.3039C33.9169 74.4848 33.4886 74.5813 32.8832 74.591L32.7978 74.5938L32.7968 74.5911ZM29.1898 72.7406C29.0533 72.7409 28.9238 72.6799 28.837 72.5745C28.7567 72.469 28.7026 72.3461 28.6792 72.2155C28.6429 72.0437 28.629 71.8679 28.6378 71.6926V71.69C28.6922 71.6649 28.7513 71.6516 28.8111 71.6509C28.9507 71.656 29.0828 71.7151 29.1796 71.8157C29.2873 71.9213 29.3695 72.05 29.4199 72.1922C29.4702 72.3108 29.4794 72.4429 29.4455 72.5673C29.4039 72.6722 29.3021 72.7406 29.1893 72.7395L29.1898 72.7406ZM37.5212 72.5527C37.3507 72.556 37.1868 72.4871 37.07 72.363C36.9691 72.2457 36.8995 72.1048 36.8676 71.9533C36.822 71.7568 36.8051 71.5545 36.8176 71.3531C36.8879 71.3226 36.9634 71.3055 37.0399 71.3027H37.0559C37.4133 71.3027 37.695 71.6127 37.8157 71.92C37.8815 72.056 37.8954 72.2111 37.8547 72.3566C37.7942 72.4837 37.6621 72.561 37.5216 72.5516L37.5212 72.5527ZM33.463 72.3848C31.2229 72.3059 30.061 71.6692 29.4796 71.1488C29.2311 70.931 29.0263 70.6678 28.8761 70.3735C28.8202 70.263 28.7769 70.1466 28.7469 70.0264L28.7498 70.0251C28.9292 69.9708 29.1155 69.943 29.3028 69.9427H29.3552C30.1107 69.9427 31.6494 70.2604 33.463 72.3848ZM35.8956 72.1585C34.0934 71.884 33.0724 71.1104 32.5332 70.5094C32.2004 70.1521 31.9475 69.7281 31.7912 69.2656C31.9734 69.2239 32.1594 69.2014 32.3463 69.1988C32.3704 69.1988 32.3954 69.1978 32.4209 69.1978C32.4464 69.1978 32.4728 69.1978 32.4996 69.1988C33.4061 69.2186 35.0524 69.6291 35.8952 72.1575H35.8966L35.8956 72.1585ZM26.6433 71.293C26.0697 71.2949 25.4979 71.2264 24.9409 71.0892C23.9973 70.8532 23.5924 70.4929 23.4191 70.2321C23.3443 70.1241 23.2944 70.0009 23.2723 69.8714C23.2645 69.8209 23.2629 69.7696 23.2679 69.7187L23.2723 69.7171C23.7597 69.5963 24.2596 69.5328 24.7618 69.5281C24.7958 69.5281 24.8301 69.5272 24.865 69.5272C25.2742 69.5265 25.6826 69.5661 26.084 69.6454C26.9946 69.8357 27.806 70.3483 28.3691 71.0887V71.09H28.3672C27.8027 71.2281 27.2232 71.296 26.642 71.2922L26.6433 71.293ZM30.8268 69.7728C30.657 69.7773 30.493 69.7101 30.3753 69.5877C30.2741 69.469 30.2045 69.3267 30.1731 69.1738C30.1274 68.9788 30.1106 68.7781 30.1232 68.5781C30.1935 68.5476 30.2689 68.5305 30.3455 68.5277H30.3615C30.7182 68.5277 31.0003 68.8379 31.1214 69.1452C31.1859 69.28 31.1982 69.4337 31.156 69.577C31.0982 69.7049 30.9667 69.7825 30.8268 69.7728ZM27.681 69.3415C27.082 69.1719 26.5091 68.9217 25.9776 68.5977C25.1884 68.1119 24.223 67.2526 24.1053 65.9174H24.1073C24.1672 65.9046 24.228 65.8973 24.2892 65.8955C24.3035 65.8955 24.3201 65.8946 24.3368 65.8946C24.5725 65.8946 25.055 65.9609 25.6388 66.4048C26.3818 66.9713 27.0679 67.9592 27.6814 69.3442L27.681 69.3415ZM29.735 69.266C29.2462 69.044 28.7923 68.7523 28.3872 68.4C27.3402 67.499 26.5243 66.3602 26.0077 65.0791C26.1367 65.0186 26.2762 64.984 26.4185 64.9769C26.4328 64.9759 26.447 64.9756 26.4621 64.9756C26.4834 64.9756 26.5055 64.9756 26.528 64.9769C26.8712 64.9866 27.3939 65.1292 27.9734 65.7545C28.639 66.473 29.2331 67.6534 29.7384 69.2635L29.7398 69.268L29.735 69.266ZM24.4128 69.1109C23.7265 69.1109 23.4917 68.7386 23.4225 68.5785C23.3536 68.4117 23.3265 68.2305 23.3436 68.0508V68.048C23.4554 68.0201 23.5701 68.0051 23.6853 68.0033H23.7087C24.1574 67.9923 24.5846 68.1952 24.8594 68.55C24.8957 68.604 25.0071 68.7912 24.915 68.9374C24.8409 69.0527 24.6733 69.1109 24.4128 69.1109ZM22.8925 67.1934C22.361 67.1946 21.8304 67.1492 21.3067 67.0578C20.6955 66.9467 20.349 66.427 20.1661 66.0108C20.0431 65.7262 19.957 65.427 19.9099 65.1205H19.9116C21.8022 65.1761 22.6951 65.7285 23.1112 66.182C23.369 66.4503 23.5297 66.7972 23.5675 67.1673H23.5663C23.5634 67.1673 23.2972 67.1929 22.8915 67.1929L22.8925 67.1934ZM24.8611 65.2262C24.8586 65.223 24.6427 64.9557 24.4294 64.6243C24.2055 64.2763 23.9984 63.9126 23.9984 63.616C23.9984 63.329 23.9309 62.724 23.8907 62.3891C23.8397 61.9642 23.7882 61.6005 23.7839 61.5696H23.7857C23.8337 61.5871 24.9683 62.0129 24.9683 63.0772C24.9683 64.1415 24.8633 65.2144 24.8623 65.225V65.2266L24.8611 65.2262ZM23.3907 65.1251C23.3788 65.1251 23.367 65.124 23.3552 65.1221C23.0198 65.0662 22.4299 64.8098 21.779 64.4363C21.0556 64.0215 20.4681 63.5771 20.1249 63.185C19.8118 62.8274 19.6267 62.2658 19.5727 61.5158C19.5487 61.1762 19.553 60.8351 19.585 60.4962C19.6455 60.4767 19.7087 60.467 19.7722 60.4678C20.0233 60.4719 20.2913 60.5849 20.6532 60.8342C20.983 61.0689 21.292 61.3315 21.577 61.619C21.9388 61.9784 22.2809 62.3572 22.6019 62.7537L22.6064 62.7593C22.6441 62.827 22.9676 63.41 23.2195 63.9775C23.3455 64.2387 23.4421 64.513 23.5076 64.7954C23.5324 64.8781 23.5324 64.9662 23.5076 65.0489C23.4971 65.0757 23.4777 65.0982 23.4528 65.1127C23.433 65.1213 23.4122 65.1253 23.3907 65.1251Z" fill="#4E5B31"/>
<path d="M43.6606 79.3367C43.6794 79.3287 43.6962 79.3168 43.71 79.3018L43.7278 79.2852C43.8069 79.2113 43.8821 79.1332 43.953 79.0513C44.1426 78.8359 44.397 78.5207 44.6206 78.2421C45.064 77.6894 45.4304 77.2132 45.4994 77.1235L45.6123 76.9767L46.7179 76.6357L47.5251 76.2594L47.0938 75.7746L45.6123 76.4088L44.5067 76.6357L42.4622 78.1395L42.4638 78.1407C42.4679 78.1442 42.7611 78.3881 43.0525 78.6532C43.1825 78.7713 43.3463 78.9236 43.462 79.0493C43.5097 79.1004 43.554 79.1547 43.5944 79.2116C43.6188 79.252 43.6408 79.2937 43.6606 79.3367ZM51.2532 77.0565C52.2506 77.0474 53.2278 76.774 54.0852 76.2641H54.0862V76.2629C53.9818 76.089 53.8423 75.9387 53.6765 75.8217C53.4002 75.6188 52.9019 75.3764 52.0965 75.3733H52.0798C51.1261 75.3733 49.9589 75.6975 48.6105 76.3371C49.4099 76.8121 50.3234 77.0608 51.2532 77.0565ZM55.4339 76.1298C55.6044 76.1331 55.7682 76.0642 55.8851 75.9401C55.986 75.8228 56.0555 75.6817 56.0872 75.5303C56.1328 75.3337 56.1497 75.1314 56.1372 74.93C56.0669 74.8996 55.9914 74.8825 55.9148 74.8796H55.8989C55.5415 74.8796 55.2598 75.1897 55.1391 75.497C55.0733 75.6329 55.0594 75.7881 55.1001 75.9336C55.1607 76.0605 55.2927 76.1378 55.4332 76.1286L55.4339 76.1298ZM48.0775 75.2772C50.5485 74.9243 51.5958 74.031 52.0394 73.3438C52.3202 72.9267 52.4523 72.4273 52.4143 71.926V71.924H52.4125C52.2884 71.8955 52.1614 71.8815 52.0341 71.8823C51.3768 71.8823 49.6954 72.213 48.077 75.2761L48.076 75.2781L48.0788 75.2766L48.0775 75.2772ZM53.1421 74.7875C54.1978 74.7875 55.0014 74.6053 55.5309 74.2466C55.7561 74.1024 55.9375 73.8993 56.0556 73.6595C56.0988 73.5685 56.1272 73.4713 56.1402 73.3715C55.7884 73.2289 55.4142 73.1495 55.0349 73.1366C54.9804 73.1341 54.9254 73.1325 54.8678 73.1324C54.0518 73.1324 52.8112 73.3986 51.5019 74.6668L51.5006 74.6681H51.5022C52.0461 74.7431 52.5944 74.783 53.1434 74.7877L53.1421 74.7875ZM58.2537 74.5911C59.3668 74.5911 60.896 74.2512 61.8497 73.2976L61.8507 73.2965H61.8479C61.1229 73.1253 60.3827 73.0269 59.6383 73.003C59.5688 73.0013 59.4988 73.0004 59.4283 73.0003C58.3847 73.0003 57.5858 73.2027 57.0537 73.6017C56.9051 73.6909 56.7947 73.8321 56.7437 73.9978C56.7319 74.1201 56.7901 74.2385 56.894 74.3039C57.1336 74.4848 57.5619 74.5813 58.1673 74.591L58.2527 74.5938L58.2537 74.5911ZM61.8607 72.7406C61.9972 72.7409 62.1267 72.6799 62.2136 72.5745C62.2938 72.469 62.3479 72.3461 62.3713 72.2155C62.4076 72.0437 62.4215 71.8679 62.4127 71.6926V71.69C62.3583 71.6649 62.2992 71.6516 62.2395 71.6509C62.0998 71.656 61.9677 71.7151 61.8709 71.8157C61.7632 71.9213 61.6811 72.05 61.6307 72.1922C61.5803 72.3108 61.5712 72.4429 61.605 72.5673C61.6466 72.6722 61.7484 72.7406 61.8613 72.7395L61.8607 72.7406ZM53.5293 72.5527C53.6998 72.556 53.8637 72.4871 53.9805 72.363C54.0815 72.2457 54.1511 72.1048 54.1829 71.9533C54.2285 71.7568 54.2454 71.5545 54.2329 71.3531C54.1626 71.3226 54.0871 71.3055 54.0106 71.3027H53.9946C53.6372 71.3027 53.3555 71.6127 53.2348 71.92C53.169 72.056 53.1551 72.2111 53.1958 72.3566C53.2563 72.4837 53.3884 72.561 53.5289 72.5516L53.5293 72.5527ZM57.5875 72.3848C59.8276 72.3059 60.9895 71.6692 61.5709 71.1488C61.8194 70.931 62.0242 70.6678 62.1744 70.3735C62.2304 70.263 62.2736 70.1466 62.3037 70.0264L62.3007 70.0251C62.1213 69.9708 61.935 69.943 61.7477 69.9427H61.6953C60.9399 69.9427 59.4011 70.2604 57.5875 72.3848ZM55.1549 72.1585C56.9571 71.884 57.9781 71.1104 58.5173 70.5094C58.8501 70.1521 59.1031 69.7281 59.2594 69.2656C59.0772 69.2239 58.8911 69.2014 58.7042 69.1988C58.6802 69.1988 58.6551 69.1978 58.6296 69.1978C58.6041 69.1978 58.5777 69.1978 58.5509 69.1988C57.6445 69.2186 55.9981 69.6291 55.1553 72.1575H55.1539L55.1549 72.1585ZM64.4072 71.293C64.9809 71.2949 65.5527 71.2264 66.1096 71.0892C67.0532 70.8532 67.4581 70.4929 67.6314 70.2321C67.7062 70.1241 67.7561 70.0009 67.7782 69.8714C67.786 69.8209 67.7876 69.7696 67.7826 69.7187L67.7782 69.7171C67.2908 69.5963 66.7909 69.5328 66.2887 69.5281C66.2547 69.5281 66.2204 69.5272 66.1855 69.5272C65.7763 69.5265 65.3679 69.5661 64.9665 69.6454C64.0559 69.8357 63.2446 70.3483 62.6814 71.0887V71.09H62.6833C63.2478 71.2281 63.8273 71.296 64.4085 71.2922L64.4072 71.293ZM60.2237 69.7728C60.3936 69.7773 60.5575 69.7101 60.6753 69.5877C60.7765 69.469 60.8461 69.3267 60.8774 69.1738C60.9231 68.9788 60.9399 68.7781 60.9273 68.5781C60.857 68.5476 60.7816 68.5305 60.705 68.5277H60.6891C60.3323 68.5277 60.0502 68.8379 59.9291 69.1452C59.8646 69.28 59.8524 69.4337 59.8945 69.577C59.9523 69.7049 60.0838 69.7825 60.2237 69.7728ZM63.3695 69.3415C63.9685 69.1719 64.5414 68.9217 65.073 68.5977C65.8621 68.1119 66.8275 67.2526 66.9452 65.9174H66.9432C66.8833 65.9046 66.8225 65.8973 66.7613 65.8955C66.7471 65.8955 66.7304 65.8946 66.7138 65.8946C66.478 65.8946 65.9955 65.9609 65.4117 66.4048C64.6687 66.9713 63.9826 67.9592 63.3691 69.3442L63.3695 69.3415ZM61.3155 69.266C61.8043 69.044 62.2583 68.7523 62.6634 68.4C63.7103 67.499 64.5262 66.3602 65.0428 65.0791C64.9138 65.0186 64.7743 64.984 64.632 64.9769C64.6177 64.9759 64.6035 64.9756 64.5884 64.9756C64.5671 64.9756 64.545 64.9756 64.5225 64.9769C64.1793 64.9866 63.6566 65.1292 63.0772 65.7545C62.4116 66.473 61.8174 67.6534 61.3121 69.2635L61.3107 69.268L61.3155 69.266ZM66.6377 69.1109C67.324 69.1109 67.5589 68.7386 67.628 68.5785C67.6969 68.4117 67.724 68.2305 67.7069 68.0508V68.048C67.5952 68.0201 67.4804 68.0051 67.3653 68.0033H67.3418C66.8931 67.9923 66.4659 68.1952 66.1911 68.55C66.1548 68.604 66.0435 68.7912 66.1356 68.9374C66.2096 69.0527 66.3772 69.1109 66.6377 69.1109ZM68.158 67.1934C68.6895 67.1946 69.2201 67.1492 69.7438 67.0578C70.3551 66.9467 70.7015 66.427 70.8844 66.0108C71.0074 65.7262 71.0935 65.427 71.1407 65.1205H71.1389C69.2483 65.1761 68.3554 65.7285 67.9393 66.182C67.6816 66.4503 67.5208 66.7972 67.483 67.1673H67.4843C67.4871 67.1673 67.7533 67.1929 68.159 67.1929L68.158 67.1934ZM66.1894 65.2262C66.1919 65.223 66.4079 64.9557 66.6211 64.6243C66.845 64.2763 67.0521 63.9126 67.0521 63.616C67.0521 63.329 67.1196 62.724 67.1599 62.3891C67.2108 61.9642 67.2624 61.6005 67.2666 61.5696H67.2648C67.2168 61.5871 66.0822 62.0129 66.0822 63.0772C66.0822 64.1415 66.1872 65.2144 66.1882 65.225V65.2266L66.1894 65.2262ZM67.6598 65.1251C67.6717 65.1251 67.6835 65.124 67.6954 65.1221C68.0307 65.0662 68.6206 64.8098 69.2715 64.4363C69.9949 64.0215 70.5824 63.5771 70.9256 63.185C71.2387 62.8274 71.4238 62.2658 71.4779 61.5158C71.5018 61.1762 71.4975 60.8351 71.4655 60.4962C71.405 60.4767 71.3418 60.467 71.2783 60.4678C71.0272 60.4719 70.7592 60.5849 70.3973 60.8342C70.0675 61.0689 69.7585 61.3315 69.4735 61.619C69.1117 61.9784 68.7696 62.3572 68.4486 62.7537L68.4441 62.7593C68.4064 62.827 68.083 63.41 67.831 63.9775C67.705 64.2387 67.6084 64.513 67.5429 64.7954C67.5181 64.8781 67.5181 64.9662 67.5429 65.0489C67.5534 65.0757 67.5728 65.0982 67.5977 65.1127C67.6175 65.1213 67.6384 65.1253 67.6598 65.1251Z" fill="#4E5B31"/>
<path d="M84.9732 22.0044L84.5066 22.1903L84.1004 22.168L83.7199 22.3506L83.0452 22.8116L83.0154 22.833L82.7639 22.8986L82.5303 22.7978L82.3977 22.8582L82.352 23.1315L82.2257 23.3278L82.0703 23.437L81.5318 23.492L81.0777 23.7262L80.487 23.5681L80.2125 23.6755L79.6289 24.2011L79.3307 24.3423L79.2265 24.3363L78.8311 24.3159L78.6641 24.3706L78.4147 24.6116L77.9429 24.6483L77.7958 24.7501L77.5655 25.2141L77.316 25.4715L77.1736 25.5017L77.0189 25.4447L76.9026 25.4652L76.85 25.7621L76.7371 25.8866L76.4212 25.9953L76.1688 26.2055L75.9474 26.3194L75.6507 26.312H75.5825L75.287 26.4751L74.7319 26.5238L74.5007 26.7443L74.4498 26.7914L74.3419 26.8566L74.1654 26.962L74.1226 26.9882L73.9091 26.9502L73.66 27.0488L73.5593 26.8938L73.3869 26.9973L73.1591 27.0071L72.6578 26.784L72.4994 26.807L72.4443 27.0831L72.4387 27.1124L72.2722 27.3341L71.9613 27.5224L71.5649 28.0341L70.8927 28.741L70.3243 29.0297L69.7352 29.2089L69.3224 29.5476L68.2406 30.0838L66.5332 30.9341L66.184 31.046L65.6829 31.1259L64.7893 31.455L64.0009 31.6929L63.957 31.7063L62.6887 32.0899L62.1713 32.0352L61.8649 32.1466L61.067 32.058L60.5119 32.069L60.1607 32.142L58.3865 32.9941L58.0184 33.3309L57.4452 33.6298L56.7741 33.8423L56.7756 33.5603L56.7716 33.5484L56.3707 33.675L55.8262 33.759H55.5233L55.3353 33.7044L55.3068 33.7142L54.1939 34.0799L52.9528 34.1997L52.3318 34.399L51.8678 34.3916L51.5777 34.4779L51.0083 34.5475L50.805 34.4932L50.7592 34.4807L49.0866 34.5533L48.322 34.4669L47.957 34.5499L47.3449 34.3441L46.4526 34.2406L46.244 34.1781L45.7743 34.0389L45.5621 34.1611L45.4032 34.1781L45.0236 34.0404L44.8869 34.037L44.5738 34.1509L44.3934 34.1046L44.2259 33.9711L43.8329 33.9126L43.5935 33.7113L42.2554 33.8887L41.8923 33.7819L40.6747 33.4272L40.481 33.437L40.239 33.618L39.8763 33.7502L39.5614 33.832L39.1327 33.8463L38.6345 33.7156L38.1212 33.4668L37.9314 33.4217L37.5081 33.4644L37.3786 33.476L36.6005 33.0587L35.5981 32.4324L34.918 32.105L34.6627 32.0636L34.6284 32.185L34.755 32.5835L34.7977 32.9784L34.7848 33.3432L34.7778 33.5691L34.8413 33.772L35.0868 34.0441L35.1892 34.3174L35.2641 35.0696L35.2632 35.8328L35.1438 37.05L35.1035 37.2351L34.9612 37.8656L34.8311 38.4448L34.3263 39.9869L34.1877 40.178L33.8473 40.4102L33.076 40.9351L32.508 41.2625L32.3282 41.337L31.8672 41.3719L31.5799 41.3576L31.2222 41.1639L30.8711 41.0735L30.411 40.7427L29.8986 40.6368L29.3376 40.3125L29.1915 40.137L28.8861 40.1086L28.4625 39.9814L28.3069 39.9342L28.1994 39.9029L27.6585 39.8886L27.1546 39.656L26.8893 39.592L26.5267 39.5736L25.9549 39.8395L25.7119 39.743L25.5361 39.754L25.3369 40.055L25.3124 40.101L25.1752 40.1736L25.0044 40.1712L24.8707 40.1676L24.7261 40.2308L24.5313 40.3152L24.3594 40.3903L24.2754 40.4266L24.274 40.4251L24.2223 40.4355L24.1305 40.4515L24.0166 40.4732L23.8159 40.356L23.7092 40.293L23.5302 40.2566L23.4339 40.3262L23.4149 40.6536L23.327 40.8497L23.0478 41.0966L22.7641 41.3464L22.5664 41.6378L22.0432 42.832L21.7158 43.3139L21.614 43.4262L21.2698 43.8048L20.2652 44.5837L19.602 44.8315L19.0308 44.9482L18.753 44.9494L18.2264 44.8794L17.7534 44.7342L17.2338 44.4093L16.6644 43.9514L15.8397 43.1366L15.723 43.0665L15.6986 43.0502L15.4388 42.8841L15.2461 42.8891L15.1707 43.0135L15.1294 43.1933L15.0945 43.3527L15 44.259L15.0567 44.6848L15.683 45.5602L15.8763 46.0252L15.908 46.0783L16.1356 46.4609L16.1454 46.4777L16.359 47.1166L16.2085 47.4773L16.2845 47.7193L16.0943 47.8669L16.0595 48.0754L16.6219 48.7804L16.7446 49.0914L16.6075 49.5226L16.3888 49.7605L16.3278 49.8255L16.3585 50.0077L16.6173 50.2404L17.057 50.6319L17.2915 51.2135L17.4698 51.3701L17.6771 51.326L17.7924 51.4139L17.9672 51.4109L18.1391 51.5829L18.2504 51.6368L18.4264 51.7245L18.5654 51.9056L18.5962 52.4623L18.8555 53.1541L18.8595 53.5292L18.8609 53.5824L19.0224 53.8597L19.073 54.0786L18.9876 54.6578L19.1933 54.8437L19.4164 54.7982L19.5604 54.8209L19.7919 55.0137L20.0721 55.4407L20.3463 55.4006L20.5202 55.4844L21.3601 56.2437L21.5507 56.3399L21.5612 56.3459L21.6983 56.4146L21.8691 56.5866L22.1333 56.4112L22.1626 56.4082L22.4499 56.3829L22.818 56.6318L23.1359 56.6277L23.8255 56.8391L24.1271 56.9164L24.7336 57.2933L24.9914 57.4527L25.144 57.5767L25.3467 57.742L25.7517 57.9162L26.099 57.9993L26.2872 58.044L26.4295 58.0987L26.4331 58.0899H26.435L26.4316 58.0988L27.1838 58.3868L27.5912 58.4819L27.9681 58.6207L28.2424 58.7203L28.4437 58.7236L28.7283 58.4841L29.0041 58.4682L29.2331 58.5251L29.4566 58.4877L29.8103 58.2698L29.8793 58.1674L30.1302 58.048L30.9762 57.943L31.2235 58.0232L31.8583 57.7471L32.2837 57.8654L32.6602 57.7319L33.4828 57.9146L33.7014 58.0685L33.9458 58.3482L33.9757 58.3495L34.2479 58.3548L34.134 58.5442L34.4931 58.921L34.8175 59.4114L34.8395 59.4761L35.0753 60.1685L35.2507 60.4138L35.3734 60.7561L35.3794 60.9793L35.1886 61.1248L35.1573 61.2078L35.1465 61.2385L35.1852 61.3317L35.2572 61.2924L35.3943 61.2166L35.5611 61.1907L35.8552 61.222L36.0494 61.2423L36.356 61.0902L36.5591 60.9891L36.8855 61.1296L37.2442 61.1256L37.3948 61.1927L37.8218 61.386L38.0395 61.4065L38.1199 61.3537L38.1712 61.2318L38.1448 61.0895L37.981 60.9017L37.6207 60.4835L37.4732 60.2686L37.3609 59.9574L37.3262 59.5594L37.3014 59.2911L37.3461 58.9385L37.4429 58.8127L37.5141 58.5325H37.5154L37.5337 58.4592L37.7339 58.1936L38.264 57.853L38.8333 57.3431L39.2834 57.0463L39.7475 56.8453L39.7599 56.7884L39.8115 56.8092L40.9918 56.4079L41.0113 56.4056L41.5369 56.3141L45.0841 56.5639L45.2156 56.5242L45.3338 56.1917L45.3974 56.1302L45.4401 56.0901L45.8301 55.9184L46.0124 55.8924L46.7259 56.0684L47.0578 55.8824L47.2933 55.8864L47.7796 55.6208L48.0801 55.6283L48.194 55.5826L48.7793 55.162L49.3432 55.0004L49.4898 54.9224L49.5414 54.8939L50.1194 54.5888L50.4865 54.3068L50.8033 54.1384L51.1503 54.0489L52.0585 53.9849L52.2411 53.6806L52.6317 53.6285L52.8676 53.3623L53.138 53.2526L53.4936 52.7403L53.7201 52.6092L54.446 52.5636L55.3065 52.6703L55.4204 52.6012L55.6148 51.9073L55.8184 51.7771L56.3665 50.9782L56.3684 50.6871V50.444L56.4585 50.0978L56.3973 49.4728L56.4699 48.8399L56.8107 48.0357L57.1109 47.7113L57.5948 47.3839L57.8409 47.2767L58.1895 47.2181L58.2408 47.2095L58.3296 47.1943L59.53 47.1778C59.5466 47.1654 59.9666 47.1718 59.9666 47.1718L60.3668 47.1664L61.3798 47.3463L61.4518 47.3588L61.7934 47.4697L62.1883 47.7768L62.6065 48.1851L62.6849 48.2613L62.9553 48.3752L63.0372 48.4109L63.2608 48.3752L63.5792 48.2093L63.8195 48.0062L64.1469 47.8273L64.1549 47.8159L64.3392 47.5386L64.3448 47.5329L64.3488 47.5339V47.5324L64.3448 47.5329L64.4184 47.422L65.0514 47.1754L65.7958 47.1327L65.8795 47.0874L65.9261 47.0625L66.1228 46.8315L66.3071 46.83L66.7534 46.9914L67.0665 46.9291L67.3156 47.0287L67.5092 47.0058L67.8743 46.9631L68.2663 47.2388L68.4948 47.2673L69.3002 47.7385L69.342 47.7453L69.3637 47.7493L69.4098 47.757L69.5053 47.7285L69.6476 47.6874L69.6664 47.6818L69.6844 47.7067L69.7759 47.8358L69.9014 47.8538L70.0501 47.6555L69.991 47.5655L69.9686 47.5328L69.681 47.4743L69.4226 47.033L69.6686 46.7681L69.2186 46.2162L69.1968 46.1829L69.0635 45.9804L68.3879 44.9505L67.5079 44.2481L67.1998 44.0015L67.1978 44.0001L67.0899 43.9147L66.6201 43.4367L66.2845 42.9912L65.9701 42.3059L65.6196 42.0355L65.3341 41.7236L65.3198 41.7052L64.7305 40.9044L64.6337 40.7702L64.4945 40.6897L64.2004 40.6878L64.172 40.6593L64.1555 40.6421L64.1654 40.6315L64.3065 40.4913L64.4638 40.4517L64.5315 40.2967L64.2315 39.4284L64.2295 39.3981L64.2071 39.1205L64.4517 37.8601L64.483 37.7065L64.8998 36.8584L65.158 36.6469L65.4398 36.0929L65.6818 35.7387L65.9131 35.5136L65.9535 35.4896L66.3712 35.2368L67.0563 35.1403L67.6399 35.3203L68.195 35.3094L68.3033 35.2979L68.5553 35.2694L68.9697 35.1389L69.1652 35.0182L69.2667 34.8626L69.4784 34.1527L69.5464 33.9268L69.677 33.6814L70.4322 32.812L71.0032 32.2839L72.287 31.3426L73.2363 30.7752L76.1011 29.5018L77.2334 28.3548L77.9197 27.8943L78.7226 27.5654L79.4136 27.0185L79.5645 26.8286L79.7546 26.2165L79.9131 26.1782L80.0554 25.8688L80.0961 25.7808L80.6599 25.3834L80.7237 25.3516L82.9141 24.2542L83.2324 24.2979L83.4032 24.0426L84.0405 23.9357L84.1577 23.9158L84.3143 23.8374L84.448 23.6096V23.5646L84.4663 22.9564L84.6024 22.792L84.6766 22.3912L84.7465 22.2986L84.8195 22.2024L85 22.0756L84.9687 22L84.9732 22.0044Z" fill="#D57800"/>
</g>
</g>
<defs>
<clipPath id="clip0_657_1606">
<rect width="100" height="100" fill="white"/>
</clipPath>
</defs>
</svg>
