<svg width="100" height="100" viewBox="0 0 100 100" fill="none" xmlns="http://www.w3.org/2000/svg">
<g clip-path="url(#clip0_657_1631)">
<mask id="mask0_657_1631" style="mask-type:alpha" maskUnits="userSpaceOnUse" x="0" y="0" width="100" height="100">
<path d="M50 100C77.6142 100 100 77.6142 100 50C100 22.3858 77.6142 0 50 0C22.3858 0 0 22.3858 0 50C0 77.6142 22.3858 100 50 100Z" fill="#D9D9D9"/>
</mask>
<g mask="url(#mask0_657_1631)">
<mask id="mask1_657_1631" style="mask-type:luminance" maskUnits="userSpaceOnUse" x="-29" y="0" width="158" height="100">
<path d="M128.143 0H-29V100H128.143V0Z" fill="white"/>
</mask>
<g mask="url(#mask1_657_1631)">
<path d="M-29 0H128.143V100H-29V0Z" fill="#0072CE"/>
<path d="M-29 33.3335H128.143V100H-29V33.3335Z" fill="black"/>
<path d="M-29 66.6665H128.143V99.9998H-29V66.6665Z" fill="white"/>
<path d="M99.5 50C99.5 22.6619 77.3381 0.5 50 0.5C22.6619 0.5 0.5 22.6619 0.5 50C0.5 77.3381 22.6619 99.5 50 99.5C77.3381 99.5 99.5 77.3381 99.5 50Z" stroke="black"/>
</g>
</g>
</g>
<defs>
<clipPath id="clip0_657_1631">
<rect width="100" height="100" fill="white"/>
</clipPath>
</defs>
</svg>
