<svg width="100" height="100" viewBox="0 0 100 100" fill="none" xmlns="http://www.w3.org/2000/svg">
<g clip-path="url(#clip0_657_6140)">
<mask id="mask0_657_6140" style="mask-type:luminance" maskUnits="userSpaceOnUse" x="0" y="0" width="100" height="100">
<path d="M100 50C100 22.3858 77.6142 0 50 0C22.3858 0 0 22.3858 0 50C0 77.6142 22.3858 100 50 100C77.6142 100 100 77.6142 100 50Z" fill="white"/>
</mask>
<g mask="url(#mask0_657_6140)">
<path d="M0 0H100V100H0V0Z" fill="#003399"/>
<path d="M50.0005 15.9009L48.5188 20.8392L50.988 21.333L50.0005 15.9009Z" fill="#FFCC00"/>
<path d="M50.0009 15.9009L51.4821 20.8392L49.0129 21.333L50.0009 15.9009Z" fill="#FFCC00"/>
<path d="M54.6958 19.313L49.5413 19.43L49.8346 21.9309L54.6958 19.313Z" fill="#FFCC00"/>
<path d="M54.6954 19.313L50.4566 22.248L49.2241 20.0523L54.6954 19.313Z" fill="#FFCC00"/>
<path d="M52.902 24.8342L51.1978 19.9683L48.9099 21.0201L52.902 24.8342Z" fill="#FFCC00"/>
<path d="M52.9025 24.8341L48.8013 21.7097L50.5088 19.8589L52.9025 24.8341Z" fill="#FFCC00"/>
<path d="M45.3042 19.313L50.4588 19.43L50.1654 21.9309L45.3042 19.313Z" fill="#FFCC00"/>
<path d="M45.3047 19.313L49.5434 22.248L50.7759 20.0523L45.3047 19.313Z" fill="#FFCC00"/>
<path d="M47.0979 24.8342L48.8021 19.9683L51.09 21.0201L47.0979 24.8342Z" fill="#FFCC00"/>
<path d="M47.0974 24.8341L51.1987 21.7097L49.4912 19.8589L47.0974 24.8341Z" fill="#FFCC00"/>
<path d="M50.0005 75.1606L48.5188 80.0986L50.988 80.5927L50.0005 75.1606Z" fill="#FFCC00"/>
<path d="M50.0009 75.1606L51.4821 80.0986L49.0129 80.5927L50.0009 75.1606Z" fill="#FFCC00"/>
<path d="M54.6958 78.5723L49.5413 78.6893L49.8346 81.1902L54.6958 78.5723Z" fill="#FFCC00"/>
<path d="M54.6954 78.5723L50.4566 81.5073L49.2241 79.3114L54.6954 78.5723Z" fill="#FFCC00"/>
<path d="M52.902 84.0934L51.1978 79.2275L48.9099 80.2792L52.902 84.0934Z" fill="#FFCC00"/>
<path d="M52.9025 84.0932L48.8013 80.969L50.5088 79.1182L52.9025 84.0932Z" fill="#FFCC00"/>
<path d="M45.3042 78.5723L50.4588 78.6893L50.1654 81.1902L45.3042 78.5723Z" fill="#FFCC00"/>
<path d="M45.3047 78.5723L49.5434 81.5073L50.7759 79.3114L45.3047 78.5723Z" fill="#FFCC00"/>
<path d="M47.0979 84.0934L48.8021 79.2275L51.09 80.2792L47.0979 84.0934Z" fill="#FFCC00"/>
<path d="M47.0974 84.0932L51.1987 80.969L49.4912 79.1182L47.0974 84.0932Z" fill="#FFCC00"/>
<path d="M20.3709 45.5303L18.8894 50.4686L21.3585 50.9624L20.3709 45.5303Z" fill="#FFCC00"/>
<path d="M20.3712 45.5303L21.8527 50.4686L19.3835 50.9624L20.3712 45.5303Z" fill="#FFCC00"/>
<path d="M25.0662 48.9424L19.9119 49.0595L20.2052 51.5603L25.0662 48.9424Z" fill="#FFCC00"/>
<path d="M25.0661 48.9429L20.8274 51.8779L19.5947 49.682L25.0661 48.9429Z" fill="#FFCC00"/>
<path d="M23.2725 54.464L21.5684 49.5981L19.2805 50.6498L23.2725 54.464Z" fill="#FFCC00"/>
<path d="M23.2728 54.4637L19.1716 51.3391L20.8789 49.4883L23.2728 54.4637Z" fill="#FFCC00"/>
<path d="M15.6748 48.9424L20.8292 49.0595L20.5358 51.5603L15.6748 48.9424Z" fill="#FFCC00"/>
<path d="M15.6748 48.9429L19.9136 51.8779L21.1463 49.682L15.6748 48.9429Z" fill="#FFCC00"/>
<path d="M17.4685 54.464L19.1726 49.5981L21.4604 50.6498L17.4685 54.464Z" fill="#FFCC00"/>
<path d="M17.468 54.4637L21.5692 51.3391L19.8619 49.4883L17.468 54.4637Z" fill="#FFCC00"/>
<path d="M32.6465 29.0275L36.7477 25.9031L35.0404 24.0522L32.6465 29.0275Z" fill="#FFCC00"/>
<path d="M32.647 29.0276L34.3511 24.1616L36.6389 25.2135L32.647 29.0276Z" fill="#FFCC00"/>
<path d="M30.8523 23.5063L35.0911 26.4413L36.3237 24.2456L30.8523 23.5063Z" fill="#FFCC00"/>
<path d="M30.8523 23.5063L36.0067 23.6234L35.7133 26.1243L30.8523 23.5063Z" fill="#FFCC00"/>
<path d="M35.5484 20.0942L34.0669 25.0325L36.536 25.5263L35.5484 20.0942Z" fill="#FFCC00"/>
<path d="M35.5485 20.0942L37.03 25.0325L34.5608 25.5263L35.5485 20.0942Z" fill="#FFCC00"/>
<path d="M38.4513 29.0275L34.3501 25.9031L36.0574 24.0522L38.4513 29.0275Z" fill="#FFCC00"/>
<path d="M38.4509 29.0276L36.7468 24.1616L34.459 25.2135L38.4509 29.0276Z" fill="#FFCC00"/>
<path d="M40.2456 23.5063L36.0068 26.4413L34.7742 24.2456L40.2456 23.5063Z" fill="#FFCC00"/>
<path d="M40.2457 23.5063L35.0913 23.6234L35.3847 26.1243L40.2457 23.5063Z" fill="#FFCC00"/>
<path d="M27.4666 40.0124L25.7624 35.1465L23.4746 36.1983L27.4666 40.0124Z" fill="#FFCC00"/>
<path d="M27.4671 40.0128L23.366 36.8884L25.0733 35.0376L27.4671 40.0128Z" fill="#FFCC00"/>
<path d="M21.6611 40.0128L25.7623 36.8884L24.055 35.0376L21.6611 40.0128Z" fill="#FFCC00"/>
<path d="M21.6616 40.0124L23.3657 35.1465L25.6536 36.1983L21.6616 40.0124Z" fill="#FFCC00"/>
<path d="M19.8669 34.4912L24.1057 37.4262L25.3384 35.2305L19.8669 34.4912Z" fill="#FFCC00"/>
<path d="M19.8669 34.4912L25.0213 34.6083L24.7279 37.1091L19.8669 34.4912Z" fill="#FFCC00"/>
<path d="M29.2602 34.4912L25.0215 37.4262L23.7888 35.2305L29.2602 34.4912Z" fill="#FFCC00"/>
<path d="M29.2603 34.4912L24.106 34.6083L24.3993 37.1091L29.2603 34.4912Z" fill="#FFCC00"/>
<path d="M24.5643 31.0791L26.0458 36.0174L23.5767 36.5112L24.5643 31.0791Z" fill="#FFCC00"/>
<path d="M24.564 31.0791L23.0825 36.0174L25.5517 36.5112L24.564 31.0791Z" fill="#FFCC00"/>
<path d="M29.2665 64.1919L24.1121 64.309L24.4054 66.8098L29.2665 64.1919Z" fill="#FFCC00"/>
<path d="M29.2664 64.1924L25.0276 67.1274L23.7949 64.9315L29.2664 64.1924Z" fill="#FFCC00"/>
<path d="M27.4726 69.713L25.7685 64.8472L23.4807 65.8992L27.4726 69.713Z" fill="#FFCC00"/>
<path d="M27.4733 69.7128L23.3721 66.5886L25.0794 64.7378L27.4733 69.7128Z" fill="#FFCC00"/>
<path d="M21.6672 69.7132L25.7684 66.589L24.0611 64.7378L21.6672 69.7132Z" fill="#FFCC00"/>
<path d="M21.6677 69.7135L23.3718 64.8477L25.6596 65.8993L21.6677 69.7135Z" fill="#FFCC00"/>
<path d="M24.5692 60.7798L26.0507 65.7181L23.5815 66.2119L24.5692 60.7798Z" fill="#FFCC00"/>
<path d="M24.5691 60.7798L23.0876 65.7181L25.5568 66.2119L24.5691 60.7798Z" fill="#FFCC00"/>
<path d="M19.873 64.1919L25.0274 64.309L24.7341 66.8098L19.873 64.1919Z" fill="#FFCC00"/>
<path d="M19.873 64.1924L24.1118 67.1274L25.3445 64.9315L19.873 64.1924Z" fill="#FFCC00"/>
<path d="M39.9842 74.1318L34.8298 74.2489L35.1232 76.7498L39.9842 74.1318Z" fill="#FFCC00"/>
<path d="M39.9841 74.1323L35.7454 77.0673L34.5127 74.8715L39.9841 74.1323Z" fill="#FFCC00"/>
<path d="M38.1904 79.6525L36.4863 74.7866L34.1985 75.8387L38.1904 79.6525Z" fill="#FFCC00"/>
<path d="M38.191 79.6527L34.0898 76.5286L35.7971 74.6777L38.191 79.6527Z" fill="#FFCC00"/>
<path d="M32.385 79.6531L36.4862 76.5286L34.7789 74.6777L32.385 79.6531Z" fill="#FFCC00"/>
<path d="M32.3855 79.6529L34.0896 74.7871L36.3775 75.8388L32.3855 79.6529Z" fill="#FFCC00"/>
<path d="M35.2872 70.7197L36.7687 75.6581L34.2996 76.1518L35.2872 70.7197Z" fill="#FFCC00"/>
<path d="M35.2869 70.7197L33.8054 75.6581L36.2745 76.1518L35.2869 70.7197Z" fill="#FFCC00"/>
<path d="M30.5908 74.1318L35.7452 74.2489L35.4518 76.7498L30.5908 74.1318Z" fill="#FFCC00"/>
<path d="M30.5908 74.1323L34.8296 77.0673L36.0622 74.8715L30.5908 74.1323Z" fill="#FFCC00"/>
<path d="M79.6291 45.5303L81.1108 50.4686L78.6416 50.9624L79.6291 45.5303Z" fill="#FFCC00"/>
<path d="M79.6287 45.5303L78.1475 50.4686L80.6166 50.9624L79.6287 45.5303Z" fill="#FFCC00"/>
<path d="M74.9338 48.9424L80.0884 49.0595L79.7951 51.5603L74.9338 48.9424Z" fill="#FFCC00"/>
<path d="M74.9338 48.9429L79.1726 51.8779L80.4055 49.682L74.9338 48.9429Z" fill="#FFCC00"/>
<path d="M76.7275 54.464L78.4317 49.5981L80.7196 50.6498L76.7275 54.464Z" fill="#FFCC00"/>
<path d="M76.7271 54.4637L80.8283 51.3391L79.1208 49.4883L76.7271 54.4637Z" fill="#FFCC00"/>
<path d="M84.3251 48.9424L79.1709 49.0595L79.4642 51.5603L84.3251 48.9424Z" fill="#FFCC00"/>
<path d="M84.325 48.9429L80.0863 51.8779L78.8538 49.682L84.325 48.9429Z" fill="#FFCC00"/>
<path d="M82.5316 54.464L80.8275 49.5981L78.5396 50.6498L82.5316 54.464Z" fill="#FFCC00"/>
<path d="M82.5322 54.4637L78.4309 51.3391L80.138 49.4883L82.5322 54.4637Z" fill="#FFCC00"/>
<path d="M67.3533 29.0275L63.2524 25.9031L64.9595 24.0522L67.3533 29.0275Z" fill="#FFCC00"/>
<path d="M67.353 29.0276L65.6492 24.1616L63.3613 25.2135L67.353 29.0276Z" fill="#FFCC00"/>
<path d="M69.1475 23.5063L64.9088 26.4413L63.6763 24.2456L69.1475 23.5063Z" fill="#FFCC00"/>
<path d="M69.148 23.5063L63.9934 23.6234L64.2867 26.1243L69.148 23.5063Z" fill="#FFCC00"/>
<path d="M64.4516 20.0942L65.9333 25.0325L63.4641 25.5263L64.4516 20.0942Z" fill="#FFCC00"/>
<path d="M64.4512 20.0942L62.97 25.0325L65.4391 25.5263L64.4512 20.0942Z" fill="#FFCC00"/>
<path d="M61.5488 29.0275L65.6501 25.9031L63.9426 24.0522L61.5488 29.0275Z" fill="#FFCC00"/>
<path d="M61.5491 29.0276L63.2532 24.1616L65.5407 25.2135L61.5491 29.0276Z" fill="#FFCC00"/>
<path d="M59.7546 23.5063L63.9934 26.4413L65.2259 24.2456L59.7546 23.5063Z" fill="#FFCC00"/>
<path d="M59.7546 23.5063L64.9088 23.6234L64.6155 26.1243L59.7546 23.5063Z" fill="#FFCC00"/>
<path d="M72.5334 40.0124L74.2376 35.1465L76.5255 36.1983L72.5334 40.0124Z" fill="#FFCC00"/>
<path d="M72.533 40.0128L76.6342 36.8884L74.9267 35.0376L72.533 40.0128Z" fill="#FFCC00"/>
<path d="M78.3388 40.0128L74.2375 36.8884L75.9451 35.0376L78.3388 40.0128Z" fill="#FFCC00"/>
<path d="M78.3383 40.0124L76.6342 35.1465L74.3467 36.1983L78.3383 40.0124Z" fill="#FFCC00"/>
<path d="M80.1329 34.4912L75.8941 37.4262L74.6616 35.2305L80.1329 34.4912Z" fill="#FFCC00"/>
<path d="M80.1329 34.4912L74.9788 34.6083L75.2721 37.1091L80.1329 34.4912Z" fill="#FFCC00"/>
<path d="M70.7395 34.4912L74.9787 37.4262L76.2112 35.2305L70.7395 34.4912Z" fill="#FFCC00"/>
<path d="M70.7395 34.4912L75.8941 34.6083L75.6007 37.1091L70.7395 34.4912Z" fill="#FFCC00"/>
<path d="M75.4358 31.0791L73.9541 36.0174L76.4233 36.5112L75.4358 31.0791Z" fill="#FFCC00"/>
<path d="M75.4357 31.0791L76.9174 36.0174L74.4482 36.5112L75.4357 31.0791Z" fill="#FFCC00"/>
<path d="M70.7336 64.1919L75.8878 64.309L75.5945 66.8098L70.7336 64.1919Z" fill="#FFCC00"/>
<path d="M70.7336 64.1924L74.9724 67.1274L76.2049 64.9315L70.7336 64.1924Z" fill="#FFCC00"/>
<path d="M72.5271 69.713L74.2313 64.8472L76.5192 65.8992L72.5271 69.713Z" fill="#FFCC00"/>
<path d="M72.5266 69.7128L76.6279 66.5886L74.9208 64.7378L72.5266 69.7128Z" fill="#FFCC00"/>
<path d="M78.3329 69.7132L74.2317 66.589L75.9388 64.7378L78.3329 69.7132Z" fill="#FFCC00"/>
<path d="M78.3324 69.7135L76.6283 64.8477L74.3403 65.8993L78.3324 69.7135Z" fill="#FFCC00"/>
<path d="M75.4309 60.7798L73.9492 65.7181L76.4184 66.2119L75.4309 60.7798Z" fill="#FFCC00"/>
<path d="M75.4309 60.7798L76.9125 65.7181L74.4434 66.2119L75.4309 60.7798Z" fill="#FFCC00"/>
<path d="M80.127 64.1919L74.9724 64.309L75.2657 66.8098L80.127 64.1919Z" fill="#FFCC00"/>
<path d="M80.1272 64.1924L75.8884 67.1274L74.6555 64.9315L80.1272 64.1924Z" fill="#FFCC00"/>
<path d="M60.0159 74.1318L65.17 74.2489L64.8767 76.7498L60.0159 74.1318Z" fill="#FFCC00"/>
<path d="M60.0159 74.1323L64.2546 77.0673L65.4875 74.8715L60.0159 74.1323Z" fill="#FFCC00"/>
<path d="M61.8096 79.6525L63.5137 74.7866L65.8012 75.8387L61.8096 79.6525Z" fill="#FFCC00"/>
<path d="M61.8091 79.6527L65.9103 76.5286L64.2028 74.6777L61.8091 79.6527Z" fill="#FFCC00"/>
<path d="M67.6149 79.6531L63.5137 76.5286L65.2212 74.6777L67.6149 79.6531Z" fill="#FFCC00"/>
<path d="M67.6146 79.6529L65.9105 74.7871L63.6226 75.8388L67.6146 79.6529Z" fill="#FFCC00"/>
<path d="M64.7129 70.7197L63.2312 75.6581L65.7004 76.1518L64.7129 70.7197Z" fill="#FFCC00"/>
<path d="M64.7133 70.7197L66.1945 75.6581L63.7253 76.1518L64.7133 70.7197Z" fill="#FFCC00"/>
<path d="M69.409 74.1318L64.2549 74.2489L64.5482 76.7498L69.409 74.1318Z" fill="#FFCC00"/>
<path d="M69.4092 74.1323L65.1704 77.0673L63.9375 74.8715L69.4092 74.1323Z" fill="#FFCC00"/>
</g>
<path d="M99.5 50C99.5 77.3381 77.3381 99.5 50 99.5C22.6619 99.5 0.5 77.3381 0.5 50C0.5 22.6619 22.6619 0.5 50 0.5C77.3381 0.5 99.5 22.6619 99.5 50Z" stroke="black"/>
</g>
<defs>
<clipPath id="clip0_657_6140">
<rect width="100" height="100" fill="white"/>
</clipPath>
</defs>
</svg>
