<svg width="100" height="100" viewBox="0 0 100 100" fill="none" xmlns="http://www.w3.org/2000/svg">
<g clip-path="url(#clip0_657_2749)">
<mask id="mask0_657_2749" style="mask-type:alpha" maskUnits="userSpaceOnUse" x="0" y="0" width="100" height="100">
<path d="M50 100C77.6142 100 100 77.6142 100 50C100 22.3858 77.6142 0 50 0C22.3858 0 0 22.3858 0 50C0 77.6142 22.3858 100 50 100Z" fill="#D9D9D9"/>
</mask>
<g mask="url(#mask0_657_2749)">
<mask id="mask1_657_2749" style="mask-type:luminance" maskUnits="userSpaceOnUse" x="-25" y="0" width="150" height="100">
<path d="M125 0H-25V100H125V0Z" fill="white"/>
</mask>
<g mask="url(#mask1_657_2749)">
<path d="M-25 0H125V100H-25V0Z" fill="white"/>
<path d="M-25 33.3335H125V100H-25V33.3335Z" fill="#0B4EA2"/>
<path d="M-25 66.6665H125V99.9998H-25V66.6665Z" fill="#EE1C25"/>
</g>
<path d="M52.7222 24C52.7222 24 53.5 31.7917 53.5 47.375C53.3889 63.2917 41.4861 71.3472 32.75 75.5833C24.0139 71.3472 12.1111 63.2917 12 47.375C12 31.7917 12.7778 24 12.7778 24H52.7222Z" fill="#EE1C25"/>
<path d="M30.9861 66.4168V46.9307C24.3888 46.9307 22.5138 47.514 20.5416 48.1112C20.7271 46.1202 20.7271 44.1162 20.5416 42.1251C22.5138 42.7223 24.3888 43.3057 30.9861 43.3057V37.889C28.9027 37.889 26.0277 37.9723 22.7222 39.0973C22.9086 37.1017 22.9086 35.093 22.7222 33.0973C26.0277 34.2084 28.9027 34.2918 30.9861 34.2918C30.9861 32.7223 30.5 29.3473 29.8888 26.5557C31.7925 26.7251 33.7074 26.7251 35.6111 26.5557C35 29.3473 34.5138 32.7223 34.5138 34.2918C36.5972 34.2918 39.4722 34.2084 42.7777 33.0973C42.5914 35.093 42.5914 37.1017 42.7777 39.0973C39.4722 37.9723 36.5972 37.889 34.5138 37.889V43.3057C41.1111 43.3057 42.9861 42.7223 44.9583 42.1251C44.7728 44.1162 44.7728 46.1202 44.9583 48.1112C42.9861 47.514 41.1111 46.9307 34.5138 46.9307V66.4168H30.9861Z" fill="white"/>
<mask id="mask2_657_2749" style="mask-type:luminance" maskUnits="userSpaceOnUse" x="12" y="24" width="42" height="52">
<path d="M52.7222 24C52.7222 24 53.5 31.7917 53.5 47.375C53.3889 63.2917 41.4861 71.3472 32.75 75.5833C24.0139 71.3472 12.1111 63.2917 12 47.375C12 31.7917 12.7778 24 12.7778 24H52.7222Z" fill="white"/>
</mask>
<g mask="url(#mask2_657_2749)">
<path d="M21.9583 81.7362C20.8316 81.7359 19.7214 81.2732 18.721 80.3872C17.7206 79.5011 16.8591 78.2174 16.2089 76.644C15.5586 75.0706 15.1387 73.2533 14.9843 71.3449C14.8299 69.4364 14.9455 67.4924 15.3215 65.6762C15.6975 63.86 16.3228 62.2246 17.145 60.9073C17.9671 59.59 18.9621 58.6292 20.0464 58.1058C21.1307 57.5824 22.2726 57.5115 23.3762 57.8991C24.4798 58.2867 25.513 59.1215 26.3888 60.3334C27.1482 58.5519 28.1149 57.1124 29.2165 56.1228C30.3181 55.1332 31.5261 54.6191 32.7499 54.6191C33.9738 54.6191 35.1818 55.1332 36.2834 56.1228C37.385 57.1124 38.3517 58.5519 39.1111 60.3334C39.9869 59.1215 41.02 58.2867 42.1237 57.8991C43.2273 57.5115 44.3692 57.5824 45.4535 58.1058C46.5377 58.6292 47.5327 59.59 48.3549 60.9073C49.1771 62.2246 49.8024 63.86 50.1784 65.6762C50.5544 67.4924 50.67 69.4364 50.5156 71.3449C50.3612 73.2533 49.9412 75.0706 49.291 76.644C48.6408 78.2174 47.7793 79.5011 46.7789 80.3872C45.7784 81.2732 44.6683 81.7359 43.5416 81.7362H21.9583Z" fill="#0B4EA2"/>
</g>
<path d="M52.7222 24C52.7222 24 53.5 31.7917 53.5 47.375C53.3889 63.2917 41.4861 71.3472 32.75 75.5833C24.0139 71.3472 12.1111 63.2917 12 47.375C12 31.7917 12.7778 24 12.7778 24H52.7222Z" stroke="white" stroke-width="3"/>
</g>
<path d="M99.5 50C99.5 77.3381 77.3381 99.5 50 99.5C22.6619 99.5 0.5 77.3381 0.5 50C0.5 22.6619 22.6619 0.5 50 0.5C77.3381 0.5 99.5 22.6619 99.5 50Z" stroke="black"/>
</g>
<defs>
<clipPath id="clip0_657_2749">
<rect width="100" height="100" fill="white"/>
</clipPath>
</defs>
</svg>
