<svg width="32" height="24" viewBox="0 0 32 24" fill="none" xmlns="http://www.w3.org/2000/svg">
<g id="_&#208;&#160;&#208;&#142;&#208;&#160;&#194;&#187;&#208;&#160;&#209;&#149;&#208;&#160;&#226;&#132;&#150;_1">
<g clip-path="url(#clip0_1104_4601)">
<g id="Group">
<path id="Vector" fill-rule="evenodd" clip-rule="evenodd" d="M0 0H32.0025V1.845H0V0ZM0 3.6975H32.0025V5.5425H0V3.6975ZM0 7.3875H32.0025V9.24H0V7.3875ZM0 11.085H32.0025V12.93H0V11.085ZM0 14.7825H32.0025V16.6275H0V14.7825ZM0 18.4725H32.0025V20.3175H0V18.4725ZM0 22.1625H32.0025V24.0075H0V22.1625Z" fill="#BD3D44"/>
<path id="Vector_2" fill-rule="evenodd" clip-rule="evenodd" d="M0 1.84497H32.0025V3.68997H0V1.84497ZM0 5.54247H32.0025V7.38747H0V5.54247ZM0 9.23247H32.0025V11.0775H0V9.23247ZM0 12.93H32.0025V14.775H0V12.93ZM0 16.62H32.0025V18.465H0V16.62ZM0 20.31H32.0025V22.155H0V20.31Z" fill="white"/>
</g>
<path id="Vector_3" fill-rule="evenodd" clip-rule="evenodd" d="M0 0H18.0375V12.9225H0V0Z" fill="#192F5D"/>
<path id="Vector_4" fill-rule="evenodd" clip-rule="evenodd" d="M1.50006 0.554932L1.66506 1.06493H2.19006L1.76256 1.37993L1.92756 1.89743L1.50006 1.58243L1.07256 1.89743L1.23756 1.38743L0.810059 1.07243H1.35006L1.50756 0.562432L1.50006 0.554932ZM4.50756 0.554932L4.67256 1.06493H5.20506L4.77756 1.37993L4.94256 1.89743L4.51506 1.58243L4.08756 1.89743L4.25256 1.38743L3.82506 1.07243H4.35006L4.51506 0.562432L4.50756 0.554932ZM7.51506 0.554932L7.68006 1.06493H8.20506L7.77756 1.37993L7.94256 1.89743L7.51506 1.58243L7.08756 1.89743L7.25256 1.38743L6.82506 1.07243H7.35756L7.52256 0.562432L7.51506 0.554932ZM10.5226 0.554932L10.6876 1.06493H11.2201L10.7926 1.37993L10.9576 1.89743L10.5301 1.58243L10.1026 1.89743L10.2676 1.38743L9.84006 1.07243H10.3651L10.5301 0.562432L10.5226 0.554932ZM13.5301 0.554932L13.6951 1.06493H14.2201L13.7926 1.37993L13.9576 1.89743L13.5301 1.58243L13.1026 1.89743L13.2676 1.38743L12.8401 1.07243H13.3651L13.5301 0.562432V0.554932ZM16.5376 0.554932L16.7026 1.06493H17.2351L16.8076 1.37993L16.9726 1.89743L16.5451 1.58243L16.1176 1.89743L16.2826 1.38743L15.8551 1.07243H16.3876L16.5526 0.562432L16.5376 0.554932ZM3.00756 1.84493L3.17256 2.35493H3.70506L3.27756 2.66993L3.43506 3.17993L3.01506 2.86493L2.58756 3.17993L2.73756 2.66993L2.31756 2.35493H2.84256L3.00756 1.84493ZM6.01506 1.84493L6.18006 2.35493H6.70506L6.27756 2.66993L6.44256 3.17993L6.01506 2.86493L5.58756 3.17993L5.75256 2.66993L5.32506 2.35493H5.85756L6.02256 1.84493H6.01506ZM9.02256 1.84493L9.18756 2.35493H9.72006L9.29256 2.66993L9.45756 3.17993L9.03006 2.86493L8.60256 3.17993L8.76756 2.66993L8.34006 2.35493H8.86506L9.03006 1.84493H9.02256ZM12.0301 1.84493L12.1951 2.35493H12.7201L12.2926 2.66993L12.4576 3.17993L12.0301 2.86493L11.6026 3.17993L11.7676 2.66993L11.3401 2.35493H11.8801L12.0376 1.84493H12.0301ZM15.0376 1.84493L15.2026 2.35493H15.7351L15.3076 2.66993L15.4726 3.17993L15.0451 2.86493L14.6176 3.17993L14.7826 2.66993L14.3551 2.35493H14.8801L15.0451 1.84493H15.0376ZM1.50006 3.13493L1.66506 3.65243H2.19006L1.76256 3.96743L1.92756 4.47743L1.50006 4.15493L1.07256 4.47743L1.23756 3.95993L0.810059 3.64493H1.35006L1.50756 3.12743L1.50006 3.13493ZM4.50756 3.13493L4.67256 3.65243H5.20506L4.77756 3.96743L4.94256 4.47743L4.51506 4.15493L4.08756 4.47743L4.25256 3.95993L3.82506 3.64493H4.35006L4.51506 3.13493H4.50756ZM7.51506 3.13493L7.68006 3.65243H8.20506L7.77756 3.96743L7.94256 4.47743L7.51506 4.15493L7.08756 4.47743L7.25256 3.95993L6.82506 3.64493H7.35756L7.52256 3.13493H7.51506ZM10.5226 3.13493L10.6876 3.65243H11.2201L10.7926 3.96743L10.9576 4.47743L10.5301 4.15493L10.1026 4.47743L10.2676 3.95993L9.84006 3.64493H10.3651L10.5301 3.13493H10.5226ZM13.5301 3.13493L13.6951 3.65243H14.2201L13.7926 3.96743L13.9576 4.47743L13.5301 4.15493L13.1026 4.47743L13.2676 3.95993L12.8401 3.64493H13.3651L13.5301 3.13493ZM16.5376 3.13493L16.7026 3.65243H17.2351L16.8076 3.96743L16.9726 4.47743L16.5451 4.15493L16.1176 4.47743L16.2826 3.95993L15.8551 3.64493H16.3876L16.5526 3.13493H16.5376ZM3.00756 4.42493L3.17256 4.93493H3.70506L3.27756 5.24993L3.44256 5.76743L3.01506 5.44493L2.58756 5.75993L2.75256 5.24993L2.32506 4.93493H2.85006L3.01506 4.42493H3.00756ZM6.01506 4.42493L6.18006 4.93493H6.70506L6.27756 5.24993L6.44256 5.76743L6.01506 5.44493L5.58756 5.75993L5.75256 5.24993L5.32506 4.93493H5.85756L6.02256 4.42493H6.01506ZM9.02256 4.42493L9.18756 4.93493H9.72006L9.29256 5.24993L9.45756 5.76743L9.03006 5.44493L8.60256 5.75993L8.76756 5.24993L8.34006 4.93493H8.86506L9.03006 4.42493H9.02256ZM12.0301 4.42493L12.1951 4.93493H12.7201L12.2926 5.24993L12.4576 5.76743L12.0301 5.44493L11.6026 5.75993L11.7676 5.24993L11.3401 4.93493H11.8801L12.0376 4.42493H12.0301ZM15.0376 4.42493L15.2026 4.93493H15.7351L15.3076 5.24993L15.4726 5.76743L15.0451 5.44493L14.6176 5.75993L14.7826 5.24993L14.3551 4.93493H14.8801L15.0451 4.42493H15.0376ZM1.50006 5.72243L1.66506 6.23243H2.19006L1.76256 6.54743L1.92756 7.06493L1.50006 6.74243L1.07256 7.05743L1.23756 6.54743L0.810059 6.23243H1.35006L1.50756 5.72243H1.50006ZM4.50756 5.72243L4.67256 6.23243H5.20506L4.77756 6.54743L4.94256 7.05743L4.51506 6.74243L4.08756 7.05743L4.25256 6.54743L3.82506 6.23243H4.35006L4.51506 5.72243H4.50756ZM7.51506 5.72243L7.68006 6.23243H8.20506L7.77756 6.54743L7.94256 7.06493L7.51506 6.74243L7.08756 7.05743L7.25256 6.54743L6.82506 6.23243H7.35756L7.52256 5.72243H7.51506ZM10.5226 5.72243L10.6876 6.23243H11.2201L10.7926 6.54743L10.9576 7.06493L10.5301 6.74243L10.1026 7.05743L10.2676 6.54743L9.84006 6.23243H10.3651L10.5301 5.72243H10.5226ZM13.5301 5.72243L13.6951 6.23243H14.2201L13.7926 6.54743L13.9576 7.06493L13.5301 6.74243L13.1026 7.05743L13.2676 6.54743L12.8401 6.23243H13.3651L13.5301 5.72243ZM16.5376 5.72243L16.7026 6.23243H17.2351L16.8076 6.54743L16.9726 7.06493L16.5451 6.74243L16.1176 7.05743L16.2826 6.54743L15.8551 6.23243H16.3876L16.5526 5.72243H16.5376ZM3.00756 7.01243L3.17256 7.52243H3.70506L3.27756 7.83743L3.44256 8.34743L3.01506 8.02493L2.58756 8.34743L2.75256 7.82993L2.32506 7.51493H2.85006L3.01506 7.01243H3.00756ZM6.01506 7.01243L6.18006 7.52243H6.70506L6.27756 7.83743L6.44256 8.34743L6.01506 8.02493L5.58756 8.34743L5.75256 7.82993L5.32506 7.51493H5.85756L6.02256 7.01243H6.01506ZM9.02256 7.01243L9.18756 7.52243H9.72006L9.29256 7.83743L9.45756 8.34743L9.03006 8.02493L8.60256 8.34743L8.76756 7.82993L8.34006 7.51493H8.86506L9.03006 7.01243H9.02256ZM12.0301 7.01243L12.1951 7.52243H12.7201L12.2926 7.83743L12.4576 8.34743L12.0301 8.02493L11.6026 8.34743L11.7676 7.82993L11.3401 7.51493H11.8801L12.0376 7.01243H12.0301ZM15.0376 7.01243L15.2026 7.52243H15.7351L15.3076 7.83743L15.4726 8.34743L15.0451 8.02493L14.6176 8.34743L14.7826 7.82993L14.3551 7.51493H14.8801L15.0451 7.01243H15.0376ZM1.50756 8.30243L1.67256 8.81993H2.19756L1.77006 9.13493L1.93506 9.64493L1.50756 9.32993L1.08006 9.64493L1.24506 9.13493L0.817559 8.81993H1.35756L1.51506 8.30993L1.50756 8.30243ZM4.51506 8.30243L4.68006 8.81993H5.21256L4.78506 9.13493L4.95006 9.64493L4.52256 9.32993L4.09506 9.64493L4.26006 9.13493L3.83256 8.81993H4.35756L4.52256 8.30993L4.51506 8.30243ZM7.52256 8.30243L7.68756 8.81993H8.21256L7.78506 9.13493L7.95006 9.64493L7.52256 9.32993L7.09506 9.64493L7.26006 9.13493L6.83256 8.81993H7.36506L7.53006 8.30993L7.52256 8.30243ZM10.5301 8.30243L10.6951 8.81993H11.2276L10.8001 9.13493L10.9651 9.64493L10.5376 9.32993L10.1101 9.64493L10.2751 9.13493L9.84756 8.81993H10.3726L10.5376 8.30993L10.5301 8.30243ZM13.5376 8.30243L13.7026 8.81993H14.2276L13.8001 9.13493L13.9651 9.64493L13.5376 9.32993L13.1101 9.64493L13.2751 9.13493L12.8476 8.81993H13.3726L13.5376 8.30993V8.30243ZM16.5451 8.30243L16.7101 8.81993H17.2426L16.8151 9.13493L16.9801 9.64493L16.5526 9.32993L16.1251 9.64493L16.2901 9.13493L15.8626 8.81993H16.3951L16.5601 8.30993L16.5451 8.30243ZM3.01506 9.59993L3.18006 10.1099H3.71256L3.28506 10.4249L3.45006 10.9424L3.02256 10.6199L2.59506 10.9349L2.76006 10.4249L2.33256 10.1099H2.85756L3.02256 9.59993H3.01506ZM6.02256 9.59993L6.18756 10.1099H6.71256L6.28506 10.4249L6.45006 10.9424L6.02256 10.6199L5.59506 10.9349L5.76006 10.4249L5.33256 10.1099H5.86506L6.03006 9.59993H6.02256ZM9.03006 9.59993L9.19506 10.1099H9.72756L9.30006 10.4249L9.46506 10.9424L9.03756 10.6199L8.61006 10.9349L8.77506 10.4249L8.34756 10.1099H8.87256L9.03756 9.59993H9.03006ZM12.0376 9.59993L12.2026 10.1099H12.7276L12.3001 10.4249L12.4651 10.9424L12.0376 10.6199L11.6101 10.9349L11.7751 10.4249L11.3476 10.1099H11.8876L12.0451 9.59993H12.0376ZM15.0451 9.59993L15.2101 10.1099H15.7426L15.3151 10.4249L15.4801 10.9424L15.0526 10.6199L14.6251 10.9349L14.7901 10.4249L14.3626 10.1099H14.8876L15.0526 9.59993H15.0451ZM1.51506 10.8899L1.68006 11.3999H2.20506L1.77756 11.7149L1.94256 12.2249L1.51506 11.9099L1.08756 12.2249L1.25256 11.7074L0.825059 11.3924H1.36506L1.52256 10.8824L1.51506 10.8899ZM4.52256 10.8899L4.68756 11.3999H5.22006L4.79256 11.7149L4.95756 12.2249L4.53006 11.9099L4.10256 12.2249L4.26756 11.7074L3.84006 11.3924H4.36506L4.53006 10.8824L4.52256 10.8899ZM7.53006 10.8899L7.69506 11.3999H8.22006L7.80006 11.7149L7.96506 12.2249L7.53756 11.9099L7.11006 12.2249L7.27506 11.7074L6.84756 11.3924H7.38006L7.53756 10.8824L7.53006 10.8899ZM10.5376 10.8899L10.7026 11.3999H11.2351L10.8076 11.7149L10.9726 12.2249L10.5451 11.9099L10.1176 12.2249L10.2826 11.7074L9.85506 11.3924H10.3801L10.5451 10.8824L10.5376 10.8899ZM13.5451 10.8899L13.7101 11.3999H14.2351L13.8076 11.7149L13.9726 12.2249L13.5451 11.9099L13.1176 12.2249L13.2826 11.7074L12.8551 11.3924H13.3801L13.5451 10.8824V10.8899ZM16.5526 10.8899L16.7176 11.3999H17.2501L16.8226 11.7149L16.9876 12.2249L16.5601 11.9099L16.1326 12.2249L16.2976 11.7074L15.8701 11.3924H16.4026L16.5676 10.8824L16.5526 10.8899Z" fill="white"/>
</g>
</g>
<defs>
<clipPath id="clip0_1104_4601">
<rect width="32.0025" height="24" rx="8" fill="white"/>
</clipPath>
</defs>
</svg>
