<svg width="43" height="32" viewBox="0 0 43 32" fill="none" xmlns="http://www.w3.org/2000/svg">
<g id="_&#208;&#160;&#208;&#142;&#208;&#160;&#194;&#187;&#208;&#160;&#209;&#149;&#208;&#160;&#226;&#132;&#150;_1">
<g clip-path="url(#clip0_1104_11360)">
<path id="Vector" d="M0 21.3301H42.67V32.0001H0V21.3301Z" fill="#1EB53A"/>
<path id="Vector_2" d="M0 0H42.67V10.67H0V0Z" fill="#0099B5"/>
<path id="Vector_3" d="M0 10.24H42.67V21.76H0V10.24Z" fill="#CE1126"/>
<path id="Vector_4" d="M0 10.8799H42.67V21.1199H0V10.8799Z" fill="white"/>
<path id="Vector_5" d="M8.96012 8.96003C11.0809 8.96003 12.8001 7.2408 12.8001 5.12003C12.8001 2.99926 11.0809 1.28003 8.96012 1.28003C6.83934 1.28003 5.12012 2.99926 5.12012 5.12003C5.12012 7.2408 6.83934 8.96003 8.96012 8.96003Z" fill="white"/>
<path id="Vector_6" d="M10.2404 8.96003C12.3612 8.96003 14.0804 7.2408 14.0804 5.12003C14.0804 2.99926 12.3612 1.28003 10.2404 1.28003C8.11962 1.28003 6.40039 2.99926 6.40039 5.12003C6.40039 7.2408 8.11962 8.96003 10.2404 8.96003Z" fill="#0099B5"/>
<g id="Group">
<g id="e">
<g id="d">
<g id="c">
<g id="b">
<path id="a" d="M17.4109 7.42993L17.1709 8.15993L17.5409 8.28993" fill="white"/>
<path id="a_2" d="M17.4112 7.42993L17.6512 8.15993L17.2812 8.28993" fill="white"/>
</g>
<g id="b_2">
<path id="a_3" d="M18.1411 7.95996H17.3711V8.34996" fill="white"/>
<path id="a_4" d="M18.1412 7.95996L17.5212 8.41996L17.2812 8.10996" fill="white"/>
</g>
</g>
<g id="b_3">
<path id="a_5" d="M16.6807 7.95996L17.3007 8.41996L17.5407 8.10996" fill="white"/>
<path id="a_6" d="M16.6807 7.95996H17.4507V8.34996" fill="white"/>
</g>
<g id="c_2">
<g id="b_4">
<path id="a_7" d="M17.86 8.81008L17.63 8.08008L17.25 8.19008" fill="white"/>
<path id="a_8" d="M17.8605 8.81004L17.2305 8.36004L17.4605 8.04004" fill="white"/>
</g>
<g id="b_5">
<path id="a_9" d="M16.9609 8.81004L17.5909 8.36004L17.3609 8.04004" fill="white"/>
<path id="a_10" d="M16.9609 8.81008L17.1909 8.08008L17.5709 8.19008" fill="white"/>
</g>
</g>
</g>
<g id="d_2">
<g id="c_3">
<g id="b_6">
<path id="a_11" d="M17.4109 4.3501L17.1709 5.0801L17.5409 5.2101" fill="white"/>
<path id="a_12" d="M17.4112 4.3501L17.6512 5.0801L17.2812 5.2101" fill="white"/>
</g>
<g id="b_7">
<path id="a_13" d="M18.1411 4.88013H17.3711V5.27013" fill="white"/>
<path id="a_14" d="M18.1412 4.88013L17.5212 5.34013L17.2812 5.03013" fill="white"/>
</g>
</g>
<g id="b_8">
<path id="a_15" d="M16.6807 4.88013L17.3007 5.34013L17.5407 5.03013" fill="white"/>
<path id="a_16" d="M16.6807 4.88013H17.4507V5.27013" fill="white"/>
</g>
<g id="c_4">
<g id="b_9">
<path id="a_17" d="M17.86 5.74025L17.63 5.01025L17.25 5.12025" fill="white"/>
<path id="a_18" d="M17.8605 5.74021L17.2305 5.29022L17.4605 4.97021" fill="white"/>
</g>
<g id="b_10">
<path id="a_19" d="M16.9609 5.74021L17.5909 5.29022L17.3609 4.97021" fill="white"/>
<path id="a_20" d="M16.9609 5.74025L17.1909 5.01025L17.5709 5.12025" fill="white"/>
</g>
</g>
</g>
<g id="d_3">
<g id="c_5">
<g id="b_11">
<path id="a_21" d="M17.4109 1.28003L17.1709 2.01003L17.5409 2.14003" fill="white"/>
<path id="a_22" d="M17.4112 1.28003L17.6512 2.01003L17.2812 2.14003" fill="white"/>
</g>
<g id="b_12">
<path id="a_23" d="M18.1411 1.81006H17.3711V2.20006" fill="white"/>
<path id="a_24" d="M18.1412 1.81006L17.5212 2.27006L17.2812 1.96006" fill="white"/>
</g>
</g>
<g id="b_13">
<path id="a_25" d="M16.6807 1.81006L17.3007 2.27006L17.5407 1.96006" fill="white"/>
<path id="a_26" d="M16.6807 1.81006H17.4507V2.20006" fill="white"/>
</g>
<g id="c_6">
<g id="b_14">
<path id="a_27" d="M17.86 2.67019L17.63 1.94019L17.25 2.05019" fill="white"/>
<path id="a_28" d="M17.8605 2.67015L17.2305 2.22015L17.4605 1.90015" fill="white"/>
</g>
<g id="b_15">
<path id="a_29" d="M16.9609 2.67015L17.5909 2.22015L17.3609 1.90015" fill="white"/>
<path id="a_30" d="M16.9609 2.67019L17.1909 1.94019L17.5709 2.05019" fill="white"/>
</g>
</g>
</g>
</g>
<g id="e_2">
<g id="d_4">
<g id="c_7">
<g id="b_16">
<path id="a_31" d="M20.4802 7.42993L20.2402 8.15993L20.6102 8.28993" fill="white"/>
<path id="a_32" d="M20.4806 7.42993L20.7206 8.15993L20.3506 8.28993" fill="white"/>
</g>
<g id="b_17">
<path id="a_33" d="M21.2104 7.95996H20.4404V8.34996" fill="white"/>
<path id="a_34" d="M21.2106 7.95996L20.5906 8.41996L20.3506 8.10996" fill="white"/>
</g>
</g>
<g id="b_18">
<path id="a_35" d="M19.75 7.95996L20.37 8.41996L20.61 8.10996" fill="white"/>
<path id="a_36" d="M19.75 7.95996H20.52V8.34996" fill="white"/>
</g>
<g id="c_8">
<g id="b_19">
<path id="a_37" d="M20.9293 8.81008L20.6993 8.08008L20.3193 8.19008" fill="white"/>
<path id="a_38" d="M20.9298 8.81004L20.2998 8.36004L20.5298 8.04004" fill="white"/>
</g>
<g id="b_20">
<path id="a_39" d="M20.0303 8.81004L20.6603 8.36004L20.4303 8.04004" fill="white"/>
<path id="a_40" d="M20.0303 8.81008L20.2603 8.08008L20.6403 8.19008" fill="white"/>
</g>
</g>
</g>
<g id="d_5">
<g id="c_9">
<g id="b_21">
<path id="a_41" d="M20.4802 4.3501L20.2402 5.0801L20.6102 5.2101" fill="white"/>
<path id="a_42" d="M20.4806 4.3501L20.7206 5.0801L20.3506 5.2101" fill="white"/>
</g>
<g id="b_22">
<path id="a_43" d="M21.2104 4.88013H20.4404V5.27013" fill="white"/>
<path id="a_44" d="M21.2106 4.88013L20.5906 5.34013L20.3506 5.03013" fill="white"/>
</g>
</g>
<g id="b_23">
<path id="a_45" d="M19.75 4.88013L20.37 5.34013L20.61 5.03013" fill="white"/>
<path id="a_46" d="M19.75 4.88013H20.52V5.27013" fill="white"/>
</g>
<g id="c_10">
<g id="b_24">
<path id="a_47" d="M20.9293 5.74025L20.6993 5.01025L20.3193 5.12025" fill="white"/>
<path id="a_48" d="M20.9298 5.74021L20.2998 5.29022L20.5298 4.97021" fill="white"/>
</g>
<g id="b_25">
<path id="a_49" d="M20.0303 5.74021L20.6603 5.29022L20.4303 4.97021" fill="white"/>
<path id="a_50" d="M20.0303 5.74025L20.2603 5.01025L20.6403 5.12025" fill="white"/>
</g>
</g>
</g>
<g id="d_6">
<g id="c_11">
<g id="b_26">
<path id="a_51" d="M20.4802 1.28003L20.2402 2.01003L20.6102 2.14003" fill="white"/>
<path id="a_52" d="M20.4806 1.28003L20.7206 2.01003L20.3506 2.14003" fill="white"/>
</g>
<g id="b_27">
<path id="a_53" d="M21.2104 1.81006H20.4404V2.20006" fill="white"/>
<path id="a_54" d="M21.2106 1.81006L20.5906 2.27006L20.3506 1.96006" fill="white"/>
</g>
</g>
<g id="b_28">
<path id="a_55" d="M19.75 1.81006L20.37 2.27006L20.61 1.96006" fill="white"/>
<path id="a_56" d="M19.75 1.81006H20.52V2.20006" fill="white"/>
</g>
<g id="c_12">
<g id="b_29">
<path id="a_57" d="M20.9293 2.67019L20.6993 1.94019L20.3193 2.05019" fill="white"/>
<path id="a_58" d="M20.9298 2.67015L20.2998 2.22015L20.5298 1.90015" fill="white"/>
</g>
<g id="b_30">
<path id="a_59" d="M20.0303 2.67015L20.6603 2.22015L20.4303 1.90015" fill="white"/>
<path id="a_60" d="M20.0303 2.67019L20.2603 1.94019L20.6403 2.05019" fill="white"/>
</g>
</g>
</g>
</g>
<g id="e_3">
<g id="d_7">
<g id="c_13">
<g id="b_31">
<path id="a_61" d="M23.5505 7.42993L23.3105 8.15993L23.6805 8.28993" fill="white"/>
<path id="a_62" d="M23.5509 7.42993L23.7909 8.15993L23.4209 8.28993" fill="white"/>
</g>
<g id="b_32">
<path id="a_63" d="M24.2807 7.95996H23.5107V8.34996" fill="white"/>
<path id="a_64" d="M24.2809 7.95996L23.6609 8.41996L23.4209 8.10996" fill="white"/>
</g>
</g>
<g id="b_33">
<path id="a_65" d="M22.8203 7.95996L23.4403 8.41996L23.6803 8.10996" fill="white"/>
<path id="a_66" d="M22.8203 7.95996H23.5903V8.34996" fill="white"/>
</g>
<g id="c_14">
<g id="b_34">
<path id="a_67" d="M23.9996 8.81008L23.7696 8.08008L23.3896 8.19008" fill="white"/>
<path id="a_68" d="M24.0001 8.81004L23.3701 8.36004L23.6001 8.04004" fill="white"/>
</g>
<g id="b_35">
<path id="a_69" d="M23.1006 8.81004L23.7306 8.36004L23.5006 8.04004" fill="white"/>
<path id="a_70" d="M23.1006 8.81008L23.3306 8.08008L23.7106 8.19008" fill="white"/>
</g>
</g>
</g>
<g id="d_8">
<g id="c_15">
<g id="b_36">
<path id="a_71" d="M23.5505 4.3501L23.3105 5.0801L23.6805 5.2101" fill="white"/>
<path id="a_72" d="M23.5509 4.3501L23.7909 5.0801L23.4209 5.2101" fill="white"/>
</g>
<g id="b_37">
<path id="a_73" d="M24.2807 4.88013H23.5107V5.27013" fill="white"/>
<path id="a_74" d="M24.2809 4.88013L23.6609 5.34013L23.4209 5.03013" fill="white"/>
</g>
</g>
<g id="b_38">
<path id="a_75" d="M22.8203 4.88013L23.4403 5.34013L23.6803 5.03013" fill="white"/>
<path id="a_76" d="M22.8203 4.88013H23.5903V5.27013" fill="white"/>
</g>
<g id="c_16">
<g id="b_39">
<path id="a_77" d="M23.9996 5.74025L23.7696 5.01025L23.3896 5.12025" fill="white"/>
<path id="a_78" d="M24.0001 5.74021L23.3701 5.29022L23.6001 4.97021" fill="white"/>
</g>
<g id="b_40">
<path id="a_79" d="M23.1006 5.74021L23.7306 5.29022L23.5006 4.97021" fill="white"/>
<path id="a_80" d="M23.1006 5.74025L23.3306 5.01025L23.7106 5.12025" fill="white"/>
</g>
</g>
</g>
<g id="d_9">
<g id="c_17">
<g id="b_41">
<path id="a_81" d="M23.5505 1.28003L23.3105 2.01003L23.6805 2.14003" fill="white"/>
<path id="a_82" d="M23.5509 1.28003L23.7909 2.01003L23.4209 2.14003" fill="white"/>
</g>
<g id="b_42">
<path id="a_83" d="M24.2807 1.81006H23.5107V2.20006" fill="white"/>
<path id="a_84" d="M24.2809 1.81006L23.6609 2.27006L23.4209 1.96006" fill="white"/>
</g>
</g>
<g id="b_43">
<path id="a_85" d="M22.8203 1.81006L23.4403 2.27006L23.6803 1.96006" fill="white"/>
<path id="a_86" d="M22.8203 1.81006H23.5903V2.20006" fill="white"/>
</g>
<g id="c_18">
<g id="b_44">
<path id="a_87" d="M23.9996 2.67019L23.7696 1.94019L23.3896 2.05019" fill="white"/>
<path id="a_88" d="M24.0001 2.67015L23.3701 2.22015L23.6001 1.90015" fill="white"/>
</g>
<g id="b_45">
<path id="a_89" d="M23.1006 2.67015L23.7306 2.22015L23.5006 1.90015" fill="white"/>
<path id="a_90" d="M23.1006 2.67019L23.3306 1.94019L23.7106 2.05019" fill="white"/>
</g>
</g>
</g>
</g>
<g id="d_10">
<g id="c_19">
<g id="b_46">
<path id="a_91" d="M11.2605 7.42993L11.0205 8.15993L11.3905 8.28993" fill="white"/>
<path id="a_92" d="M11.2609 7.42993L11.5009 8.15993L11.1309 8.28993" fill="white"/>
</g>
<g id="b_47">
<path id="a_93" d="M11.9907 7.95996H11.2207V8.34996" fill="white"/>
<path id="a_94" d="M11.9909 7.95996L11.3709 8.41996L11.1309 8.10996" fill="white"/>
</g>
</g>
<g id="b_48">
<path id="a_95" d="M10.5303 7.95996L11.1503 8.41996L11.3903 8.10996" fill="white"/>
<path id="a_96" d="M10.5303 7.95996H11.3003V8.34996" fill="white"/>
</g>
<g id="c_20">
<g id="b_49">
<path id="a_97" d="M11.7096 8.81008L11.4796 8.08008L11.0996 8.19008" fill="white"/>
<path id="a_98" d="M11.7101 8.81004L11.0801 8.36004L11.3101 8.04004" fill="white"/>
</g>
<g id="b_50">
<path id="a_99" d="M10.8105 8.81004L11.4405 8.36004L11.2105 8.04004" fill="white"/>
<path id="a_100" d="M10.8105 8.81008L11.0405 8.08008L11.4205 8.19008" fill="white"/>
</g>
</g>
</g>
<g id="d_11">
<g id="c_21">
<g id="b_51">
<path id="a_101" d="M14.3308 7.42993L14.0908 8.15993L14.4608 8.28993" fill="white"/>
<path id="a_102" d="M14.3312 7.42993L14.5712 8.15993L14.2012 8.28993" fill="white"/>
</g>
<g id="b_52">
<path id="a_103" d="M15.0708 7.95996H14.3008V8.34996" fill="white"/>
<path id="a_104" d="M15.0709 7.95996L14.4509 8.41996L14.2109 8.10996" fill="white"/>
</g>
</g>
<g id="b_53">
<path id="a_105" d="M13.6006 7.95996L14.2206 8.41996L14.4606 8.10996" fill="white"/>
<path id="a_106" d="M13.6006 7.95996H14.3706V8.34996" fill="white"/>
</g>
<g id="c_22">
<g id="b_54">
<path id="a_107" d="M14.7907 8.81008L14.5607 8.08008L14.1807 8.19008" fill="white"/>
<path id="a_108" d="M14.7911 8.81004L14.1611 8.36004L14.3911 8.04004" fill="white"/>
</g>
<g id="b_55">
<path id="a_109" d="M13.8809 8.81004L14.5109 8.36004L14.2809 8.04004" fill="white"/>
<path id="a_110" d="M13.8809 8.81008L14.1109 8.08008L14.4909 8.19008" fill="white"/>
</g>
</g>
</g>
<g id="d_12">
<g id="c_23">
<g id="b_56">
<path id="a_111" d="M14.3308 4.3501L14.0908 5.0801L14.4608 5.2101" fill="white"/>
<path id="a_112" d="M14.3312 4.3501L14.5712 5.0801L14.2012 5.2101" fill="white"/>
</g>
<g id="b_57">
<path id="a_113" d="M15.0708 4.88013H14.3008V5.27013" fill="white"/>
<path id="a_114" d="M15.0709 4.88013L14.4509 5.34013L14.2109 5.03013" fill="white"/>
</g>
</g>
<g id="b_58">
<path id="a_115" d="M13.6006 4.88013L14.2206 5.34013L14.4606 5.03013" fill="white"/>
<path id="a_116" d="M13.6006 4.88013H14.3706V5.27013" fill="white"/>
</g>
<g id="c_24">
<g id="b_59">
<path id="a_117" d="M14.7907 5.74025L14.5607 5.01025L14.1807 5.12025" fill="white"/>
<path id="a_118" d="M14.7911 5.74021L14.1611 5.29022L14.3911 4.97021" fill="white"/>
</g>
<g id="b_60">
<path id="a_119" d="M13.8809 5.74021L14.5109 5.29022L14.2809 4.97021" fill="white"/>
<path id="a_120" d="M13.8809 5.74025L14.1109 5.01025L14.4909 5.12025" fill="white"/>
</g>
</g>
</g>
</g>
</g>
</g>
<defs>
<clipPath id="clip0_1104_11360">
<rect width="42.67" height="32" rx="8" fill="white"/>
</clipPath>
</defs>
</svg>
