<svg width="44" height="32" viewBox="0 0 44 32" fill="none" xmlns="http://www.w3.org/2000/svg">
<g id="_&#195;&#144;&#194;&#161;&#195;&#144;&#194;&#187;&#195;&#144;&#194;&#190;&#195;&#144;&#194;&#185;_1">
<g clip-path="url(#clip0_1104_11591)">
<path id="Vector" fill-rule="evenodd" clip-rule="evenodd" d="M0.669922 0H43.3399V32H0.669922V0Z" fill="#6FDCFF"/>
<g id="Group">
<path id="Vector_2" fill-rule="evenodd" clip-rule="evenodd" d="M4.67973 31.1299C4.89973 31.3399 4.82973 31.6999 5.42973 31.6499C6.34973 31.6499 6.37973 31.0899 6.37973 30.6999C6.37973 30.3099 4.99973 29.7599 4.92973 29.1799C4.85973 28.5999 5.24973 28.4499 5.56973 28.4499C5.88973 28.4499 6.09973 28.6299 6.09973 28.7899C6.09973 28.9499 5.94973 28.9999 5.72973 28.9999C5.50973 28.9999 5.82973 28.8899 5.63973 28.7999C5.44973 28.7099 5.31973 28.9299 5.31973 29.0699C5.31973 29.2199 5.79973 29.2599 6.11973 29.1599C6.18973 29.4699 6.20973 29.4899 5.76973 30.0299C6.08973 29.8199 6.11973 29.7799 6.46973 29.8999C6.11973 29.5899 6.37973 28.9799 6.38973 28.8299C6.39973 28.6799 6.31973 28.4899 6.18973 28.3999C5.92973 28.1699 5.37973 28.1499 5.03973 28.3099C4.54973 28.5199 4.52973 29.1599 4.64973 29.3799L5.99973 30.7399C6.08973 30.8999 6.12973 31.3499 5.55973 31.3699C4.95973 31.4199 4.74973 30.5999 4.63973 30.3199C4.49973 30.6199 4.33973 31.4399 3.72973 31.3899C3.15973 31.3699 3.04973 30.9199 3.13973 30.7599L4.51973 29.3599C4.64973 29.1499 4.62973 28.5099 4.13973 28.2899C3.80973 28.1399 3.24973 28.1599 2.99973 28.3799C2.84973 28.4699 2.76973 28.6499 2.78973 28.8099C2.79973 28.9699 3.05973 29.5799 2.71973 29.8799C3.06973 29.7699 3.09973 29.8099 3.41973 30.0099C2.96973 29.4799 3.00973 29.4599 3.06973 29.1399C3.38973 29.2499 3.86973 29.2099 3.86973 29.0699C3.86973 28.9299 3.73973 28.6999 3.53973 28.7899C3.34973 28.8799 3.66973 28.9999 3.44973 28.9999C3.22973 28.9999 3.06973 28.9499 3.06973 28.7999C3.06973 28.6499 3.28973 28.4499 3.60973 28.4499C3.92973 28.4499 4.30973 28.6099 4.23973 29.1899C4.16973 29.7699 2.76973 30.3999 2.76973 30.7899C2.76973 31.1799 2.85973 31.6599 3.77973 31.6599C4.37973 31.7099 4.44973 31.3499 4.66973 31.1399L4.67973 31.1299Z" fill="#FFE400"/>
<path id="Vector_3" fill-rule="evenodd" clip-rule="evenodd" d="M4.61008 22.89C4.83008 22.68 5.01008 22.05 5.61008 22.09C6.53008 22.09 6.88008 22.6 6.88008 23C6.88008 23.4 5.01008 26.6 4.95008 27.18C4.89008 27.76 5.27008 27.92 5.58008 27.92C5.89008 27.92 6.12008 27.74 6.12008 27.57C6.12008 27.4 5.96008 27.37 5.74008 27.37C5.52008 27.37 5.83008 27.48 5.65008 27.57C5.47008 27.66 5.33008 27.44 5.33008 27.3C5.33008 27.16 5.81008 27.11 6.13008 27.22C6.19008 26.91 6.22008 26.89 5.78008 26.35C6.10008 26.55 6.13008 26.6 6.48008 26.48C6.13008 26.79 6.39008 27.39 6.40008 27.55C6.41008 27.71 6.33008 27.9 6.19008 27.99C5.94008 28.22 5.38008 28.23 5.04008 28.08C4.56008 27.86 4.53008 27.23 4.66008 27.01L6.47008 23.1C6.57008 22.94 6.32008 22.41 5.74008 22.39C5.14008 22.34 4.93008 22.98 4.83008 23.25L5.65008 23.18C5.65008 23.18 5.68008 23.31 5.65008 23.39C5.37008 23.41 5.10008 23.45 4.83008 23.5L4.80008 23.91H5.20008L5.17008 24.1C5.17008 24.1 4.83008 24.07 4.80008 24.1C4.77008 24.12 4.73008 24.51 4.73008 24.51C4.73008 24.51 4.66008 24.54 4.60008 24.54C4.54008 24.54 4.47008 24.51 4.47008 24.51C4.47008 24.51 4.44008 24.12 4.41008 24.1C4.38008 24.07 4.04008 24.1 4.04008 24.1L4.01008 23.91H4.42008L4.39008 23.5C4.39008 23.5 3.99008 23.42 3.57008 23.39C3.54008 23.31 3.57008 23.18 3.57008 23.18L4.39008 23.24C4.28008 22.97 4.08008 22.33 3.48008 22.37C2.91008 22.4 2.65008 22.93 2.75008 23.09L4.56008 27C4.69008 27.21 4.66008 27.85 4.18008 28.07C3.85008 28.22 3.29008 28.2 3.03008 27.98C2.89008 27.89 2.81008 27.7 2.82008 27.55C2.83008 27.4 3.09008 26.78 2.74008 26.48C3.09008 26.59 3.13008 26.55 3.44008 26.34C3.00008 26.87 3.03008 26.89 3.09008 27.21C3.40008 27.1 3.88008 27.14 3.88008 27.29C3.88008 27.42 3.75008 27.66 3.56008 27.56C3.37008 27.46 3.69008 27.36 3.47008 27.36C3.25008 27.36 3.09008 27.4 3.09008 27.56C3.09008 27.72 3.31008 27.91 3.62008 27.91C3.93008 27.91 4.32008 27.75 4.26008 27.18C4.19008 26.6 2.33008 23.38 2.33008 22.99C2.33008 22.6 2.68008 22.09 3.60008 22.09C4.20008 22.04 4.42008 22.67 4.63008 22.88L4.61008 22.89Z" fill="#FFE400"/>
<path id="Vector_4" fill-rule="evenodd" clip-rule="evenodd" d="M4.61008 21.29C4.83008 21.5 5.01008 22.13 5.61008 22.09C6.53008 22.09 6.88008 21.58 6.88008 21.18C6.88008 20.78 5.01008 17.58 4.95008 17C4.89008 16.42 5.27008 16.26 5.58008 16.26C5.89008 16.26 6.12008 16.44 6.12008 16.61C6.12008 16.78 5.96008 16.81 5.74008 16.81C5.52008 16.81 5.83008 16.7 5.65008 16.61C5.47008 16.52 5.33008 16.74 5.33008 16.88C5.33008 17.02 5.81008 17.07 6.13008 16.96C6.19008 17.27 6.22008 17.29 5.78008 17.83C6.10008 17.63 6.13008 17.58 6.48008 17.7C6.13008 17.39 6.39008 16.79 6.40008 16.63C6.41008 16.47 6.33008 16.28 6.19008 16.19C5.94008 15.96 5.38008 15.95 5.04008 16.1C4.56008 16.32 4.53008 16.95 4.66008 17.17L6.47008 21.07C6.57008 21.23 6.32008 21.76 5.74008 21.78C5.14008 21.83 4.93008 21.19 4.83008 20.92L5.65008 20.99C5.65008 20.99 5.68008 20.86 5.65008 20.78C5.37008 20.76 5.10008 20.72 4.83008 20.67L4.80008 20.26H5.20008L5.17008 20.07C5.17008 20.07 4.83008 20.1 4.80008 20.07C4.77008 20.05 4.73008 19.66 4.73008 19.66C4.73008 19.66 4.66008 19.63 4.60008 19.63C4.54008 19.63 4.47008 19.66 4.47008 19.66C4.47008 19.66 4.44008 20.05 4.41008 20.07C4.38008 20.1 4.04008 20.07 4.04008 20.07L4.01008 20.26H4.42008L4.39008 20.67C4.39008 20.67 3.99008 20.75 3.57008 20.78C3.54008 20.86 3.57008 20.99 3.57008 20.99L4.39008 20.93C4.28008 21.2 4.08008 21.84 3.48008 21.8C2.91008 21.77 2.65008 21.24 2.75008 21.08L4.56008 17.18C4.69008 16.97 4.66008 16.33 4.18008 16.11C3.85008 15.96 3.29008 15.98 3.03008 16.2C2.89008 16.29 2.81008 16.48 2.82008 16.63C2.83008 16.78 3.09008 17.4 2.74008 17.7C3.09008 17.59 3.13008 17.63 3.44008 17.84C3.00008 17.31 3.03008 17.29 3.09008 16.97C3.40008 17.08 3.88008 17.04 3.88008 16.89C3.88008 16.76 3.75008 16.52 3.56008 16.62C3.37008 16.72 3.69008 16.82 3.47008 16.82C3.25008 16.82 3.09008 16.78 3.09008 16.62C3.09008 16.46 3.31008 16.27 3.62008 16.27C3.93008 16.27 4.32008 16.43 4.26008 17C4.19008 17.58 2.33008 20.8 2.33008 21.19C2.33008 21.58 2.68008 22.09 3.60008 22.09C4.20008 22.14 4.42008 21.51 4.63008 21.3L4.61008 21.29Z" fill="#FFE400"/>
<path id="Vector_5" fill-rule="evenodd" clip-rule="evenodd" d="M4.61008 10.7098C4.83008 10.4998 5.01008 9.8698 5.61008 9.9098C6.53008 9.9098 6.88008 10.4198 6.88008 10.8198C6.88008 11.2198 5.01008 14.4198 4.95008 15.0098C4.88008 15.5798 5.27008 15.7398 5.58008 15.7398C5.89008 15.7398 6.12008 15.5598 6.12008 15.3998C6.12008 15.2398 5.96008 15.1898 5.74008 15.1898C5.52008 15.1898 5.83008 15.3098 5.65008 15.3998C5.47008 15.4898 5.33008 15.2598 5.33008 15.1198C5.33008 14.9798 5.81008 14.9298 6.13008 15.0398C6.19008 14.7298 6.22008 14.7098 5.78008 14.1698C6.10008 14.3798 6.13008 14.4198 6.48008 14.2998C6.13008 14.6098 6.39008 15.2198 6.40008 15.3698C6.41008 15.5198 6.33008 15.7198 6.19008 15.8098C5.94008 16.0398 5.38008 16.0498 5.04008 15.8998C4.56008 15.6798 4.53008 15.0498 4.66008 14.8298L6.47008 10.9298C6.57008 10.7698 6.32008 10.2398 5.74008 10.2198C5.14008 10.1698 4.93008 10.8098 4.83008 11.0798L5.65008 11.0098C5.65008 11.0098 5.68008 11.1398 5.65008 11.2198C5.22008 11.2498 4.83008 11.3298 4.83008 11.3298L4.80008 11.7398H5.20008L5.17008 11.9298C5.17008 11.9298 4.83008 11.9098 4.80008 11.9298C4.77008 11.9498 4.73008 12.3498 4.73008 12.3498C4.73008 12.3498 4.66008 12.3698 4.60008 12.3698C4.54008 12.3698 4.47008 12.3498 4.47008 12.3498C4.47008 12.3498 4.44008 11.9498 4.41008 11.9298C4.38008 11.9098 4.04008 11.9298 4.04008 11.9298L4.01008 11.7398H4.42008L4.39008 11.3298C4.39008 11.3298 3.99008 11.2498 3.57008 11.2198C3.54008 11.1398 3.57008 11.0098 3.57008 11.0098L4.39008 11.0698C4.28008 10.7998 4.08008 10.1598 3.48008 10.1998C2.91008 10.2298 2.65008 10.7598 2.75008 10.9198L4.56008 14.8198C4.69008 15.0298 4.66008 15.6698 4.18008 15.8898C3.85008 16.0398 3.29008 16.0198 3.03008 15.7998C2.89008 15.7098 2.81008 15.5198 2.82008 15.3698C2.83008 15.2198 3.09008 14.5998 2.74008 14.2998C3.09008 14.4098 3.13008 14.3698 3.44008 14.1598C3.00008 14.6898 3.03008 14.7098 3.09008 15.0298C3.40008 14.9198 3.88008 14.9698 3.88008 15.1098C3.88008 15.2498 3.75008 15.4798 3.56008 15.3798C3.37008 15.2898 3.69008 15.1798 3.47008 15.1798C3.25008 15.1798 3.09008 15.2198 3.09008 15.3798C3.09008 15.5398 3.31008 15.7298 3.62008 15.7298C3.93008 15.7298 4.32008 15.5698 4.26008 14.9998C4.19008 14.4198 2.33008 11.2098 2.33008 10.8098C2.33008 10.4098 2.68008 9.9098 3.60008 9.9098C4.20008 9.8598 4.42008 10.4898 4.63008 10.7098H4.61008Z" fill="#FFE400"/>
<path id="Vector_6" fill-rule="evenodd" clip-rule="evenodd" d="M4.61008 9.10982C4.83008 9.31982 5.01008 9.95982 5.61008 9.90982C6.53008 9.90982 6.88008 9.39982 6.88008 8.99982C6.88008 8.59982 5.01008 5.39982 4.95008 4.81982C4.88008 4.23982 5.27008 4.07982 5.58008 4.07982C5.89008 4.07982 6.12008 4.26982 6.12008 4.42982C6.12008 4.58982 5.96008 4.63982 5.74008 4.63982C5.52008 4.63982 5.83008 4.52982 5.65008 4.42982C5.47008 4.32982 5.33008 4.55982 5.33008 4.69982C5.33008 4.83982 5.81008 4.88982 6.13008 4.77982C6.19008 5.08982 6.22008 5.10982 5.78008 5.64982C6.10008 5.44982 6.13008 5.39982 6.48008 5.51982C6.13008 5.21982 6.39008 4.60982 6.40008 4.44982C6.41008 4.28982 6.33008 4.09982 6.19008 4.00982C5.94008 3.77982 5.38008 3.76982 5.04008 3.91982C4.56008 4.12982 4.53008 4.76982 4.66008 4.97982L6.47008 8.88982C6.57008 9.04982 6.32008 9.57982 5.74008 9.60982C5.14008 9.64982 4.93008 9.01982 4.83008 8.73982L5.65008 8.80982C5.65008 8.80982 5.68008 8.67982 5.65008 8.59982C5.38008 8.57982 5.10008 8.54982 4.83008 8.49982L4.80008 8.07982H5.20008L5.17008 7.88982C5.17008 7.88982 4.83008 7.91982 4.80008 7.88982C4.77008 7.86982 4.73008 7.47982 4.73008 7.47982C4.73008 7.47982 4.66008 7.44982 4.60008 7.44982C4.54008 7.44982 4.47008 7.47982 4.47008 7.47982C4.47008 7.47982 4.44008 7.86982 4.41008 7.88982C4.38008 7.91982 4.04008 7.88982 4.04008 7.88982L4.01008 8.07982H4.42008L4.39008 8.49982C4.39008 8.49982 3.99008 8.56982 3.57008 8.59982C3.54008 8.68982 3.57008 8.80982 3.57008 8.80982L4.39008 8.73982C4.28008 9.01982 4.08008 9.64982 3.48008 9.60982C2.91008 9.57982 2.65008 9.04982 2.75008 8.88982L4.56008 4.97982C4.69008 4.76982 4.66008 4.12982 4.18008 3.90982C3.85008 3.75982 3.29008 3.77982 3.03008 3.99982C2.89008 4.08982 2.81008 4.27982 2.82008 4.42982C2.83008 4.57982 3.09008 5.19982 2.74008 5.49982C3.09008 5.38982 3.13008 5.42982 3.44008 5.63982C3.00008 5.10982 3.03008 5.08982 3.09008 4.76982C3.41008 4.87982 3.88008 4.83982 3.88008 4.68982C3.88008 4.55982 3.75008 4.31982 3.56008 4.41982C3.37008 4.51982 3.69008 4.62982 3.47008 4.62982C3.25008 4.62982 3.09008 4.57982 3.09008 4.41982C3.09008 4.25982 3.31008 4.06982 3.62008 4.06982C3.93008 4.06982 4.33008 4.22982 4.26008 4.79982C4.19008 5.37982 2.33008 8.59982 2.33008 8.98982C2.33008 9.37982 2.68008 9.89982 3.60008 9.89982C4.20008 9.94982 4.42008 9.30982 4.63008 9.09982L4.61008 9.10982Z" fill="#FFE400"/>
<path id="Vector_7" fill-rule="evenodd" clip-rule="evenodd" d="M4.67973 0.869904C4.89973 0.659904 4.82973 0.299904 5.42973 0.349904C6.34973 0.349904 6.37973 0.909904 6.37973 1.2999C6.37973 1.6899 4.99973 2.2399 4.92973 2.8199C4.85973 3.3999 5.24973 3.5499 5.56973 3.5499C5.88973 3.5499 6.09973 3.3699 6.09973 3.2099C6.09973 3.0499 5.94973 2.9999 5.72973 2.9999C5.50973 2.9999 5.82973 3.1099 5.63973 3.1999C5.44973 3.2899 5.31973 3.0699 5.31973 2.9299C5.31973 2.7799 5.79973 2.7399 6.11973 2.8399C6.18973 2.5299 6.20973 2.5099 5.76973 1.9699C6.08973 2.1799 6.11973 2.2199 6.46973 2.0999C6.11973 2.4099 6.37973 3.0199 6.38973 3.1699C6.39973 3.3199 6.31973 3.5099 6.18973 3.5999C5.91973 3.8499 5.36973 3.8499 5.03973 3.6999C4.54973 3.4899 4.52973 2.8499 4.64973 2.6299L5.99973 1.2599C6.08973 1.0999 6.12973 0.649904 5.55973 0.629904C4.95973 0.579904 4.74973 1.3999 4.63973 1.6799C4.49973 1.3799 4.33973 0.549904 3.72973 0.599904C3.15973 0.619904 3.04973 1.0699 3.13973 1.2299L4.51973 2.6299C4.64973 2.8399 4.62973 3.4799 4.13973 3.6999C3.80973 3.8499 3.24973 3.8399 2.99973 3.6099C2.84973 3.5199 2.76973 3.3399 2.78973 3.1799C2.79973 3.0199 3.05973 2.4099 2.71973 2.1099C3.06973 2.2199 3.09973 2.1799 3.40973 1.9799C2.96973 2.5099 2.99973 2.5299 3.05973 2.8499C3.37973 2.7399 3.85973 2.7799 3.85973 2.9199C3.85973 3.0599 3.72973 3.2899 3.52973 3.1999C3.33973 3.1099 3.65973 2.9899 3.43973 2.9899C3.21973 2.9899 3.05973 3.0399 3.05973 3.1899C3.05973 3.3399 3.27973 3.5399 3.59973 3.5399C3.91973 3.5399 4.29973 3.3799 4.22973 2.7999C4.15973 2.2199 2.75973 1.5899 2.75973 1.1999C2.75973 0.809904 2.84973 0.329904 3.76973 0.329904C4.36973 0.279904 4.43973 0.639904 4.65973 0.849904L4.67973 0.869904Z" fill="#FFE400"/>
</g>
<g id="Group_2">
<path id="Vector_8" fill-rule="evenodd" clip-rule="evenodd" d="M24.0502 7.98999C27.3902 7.98999 30.1102 10.56 30.1102 13.73C30.1102 16.9 27.4002 19.47 24.0502 19.47C20.7102 19.47 17.9902 16.9 17.9902 13.73C17.9902 10.56 20.7002 7.98999 24.0502 7.98999Z" fill="#FFE400"/>
<path id="Vector_9" fill-rule="evenodd" clip-rule="evenodd" d="M23.7598 4.57005C23.6998 4.57005 23.4298 6.48005 23.3298 6.90005C23.2298 7.86005 24.6098 7.82005 24.3798 6.86005L23.7498 4.55005L23.7598 4.57005ZM24.2398 23.06C24.2398 23.06 24.6998 21.17 24.8398 20.75C24.9998 19.8 23.6198 19.75 23.7698 20.72L24.2398 23.05V23.06ZM14.5898 13.7C14.5898 13.7 16.5798 14.15 17.0198 14.28C18.0198 14.44 18.0898 13.14 17.0598 13.28L14.5898 13.71V13.7ZM33.9198 13.93C33.9198 13.93 31.9098 13.55 31.4698 13.44C30.4698 13.32 30.4598 14.62 31.4698 14.44L33.9198 13.93ZM16.6398 7.64005C16.6398 7.64005 17.9098 9.16005 18.1798 9.52005C18.8598 10.23 19.7698 9.24005 18.8598 8.75005L16.6398 7.65005V7.64005ZM31.6598 19.81C31.6598 19.81 30.2598 18.41 29.9598 18.07C29.2098 17.42 28.4098 18.48 29.3498 18.89L31.6598 19.81ZM19.6398 5.58005C19.6398 5.58005 20.2098 7.44005 20.3098 7.87005C20.6498 8.77005 21.8898 8.18005 21.2498 7.41005L19.6498 5.58005H19.6398ZM28.3998 22.12C28.3998 22.12 27.9698 20.23 27.9098 19.79C27.6298 18.87 26.3598 19.36 26.9398 20.19L28.4098 22.1101L28.3998 22.12ZM30.5598 6.86005C30.5598 6.86005 28.9398 8.04005 28.5498 8.28005C27.7898 8.92005 28.8198 9.79005 29.3498 8.94005L30.5598 6.86005ZM17.5398 20.64C17.5398 20.64 19.2498 19.57 19.6498 19.35C20.4498 18.77 19.4898 17.83 18.8998 18.64L17.5498 20.64H17.5398ZM15.0498 10.39C15.0498 10.39 16.7598 11.44 17.1298 11.7C18.0198 12.16 18.5398 10.95 17.5198 10.76L15.0398 10.39H15.0498ZM33.0998 17.39C33.0998 17.39 31.4598 16.23 31.1098 15.95C30.2598 15.42 29.6498 16.6 30.6498 16.85L33.0998 17.39ZM27.3698 5.09005C27.3698 5.09005 26.3298 6.75005 26.0698 7.12005C26.0698 7.43005 26.3198 7.67005 26.6298 7.67005C26.7998 7.67005 26.9598 7.59005 27.0698 7.45005L27.3798 5.09005H27.3698ZM20.6898 22.47C20.6898 22.47 21.8498 20.88 22.1298 20.53C22.6498 19.7 21.3898 19.18 21.1598 20.13L20.6898 22.47ZM15.1798 17.54C15.1798 17.54 17.1698 17.11 17.6298 17.04C18.5998 16.77 18.0598 15.57 17.1998 16.13L15.1698 17.54H15.1798ZM33.1198 10.23C33.1198 10.23 31.1098 10.52 30.6398 10.56C29.6398 10.77 30.1098 12 30.9998 11.5L33.1198 10.23Z" fill="#FFE400"/>
<path id="Vector_10" fill-rule="evenodd" clip-rule="evenodd" d="M25.7302 4.68994C25.7302 4.68994 25.0102 6.49994 24.8102 6.89994C24.5202 7.81994 25.8802 8.04994 25.8602 7.06994L25.7402 4.68994H25.7302ZM22.2802 22.8999C22.2802 22.8999 23.1302 21.1399 23.3602 20.7499C23.7202 19.8499 22.3802 19.5399 22.3302 20.5199L22.2702 22.8999H22.2802ZM21.5902 4.86994C21.5902 4.86994 21.7302 6.80994 21.7302 7.24994C21.8702 8.19994 23.2002 7.86994 22.7502 6.98994L21.5902 4.87994V4.86994ZM26.4302 22.7899C26.4302 22.7899 26.4302 20.8499 26.4702 20.4099C26.4102 19.4499 25.0502 19.6899 25.4302 20.5999L26.4302 22.7799V22.7899ZM18.1602 6.45994C18.1602 6.45994 19.0602 8.18994 19.2402 8.58994C19.7502 9.41994 20.8602 8.63994 20.0802 7.97994L18.1602 6.45994ZM29.8902 21.2499C29.8902 21.2499 29.1102 19.4599 28.9702 19.0399C28.5202 18.1799 27.3702 18.8899 28.0902 19.5899L29.9002 21.2399L29.8902 21.2499ZM15.6602 8.84994C15.6602 8.84994 17.1602 10.1599 17.4802 10.4899C18.2702 11.0899 19.0002 9.97994 18.0302 9.62994L15.6502 8.84994H15.6602ZM32.3202 18.7899C32.3202 18.7899 30.9202 17.3799 30.6202 17.0399C29.8802 16.3899 29.0702 17.4499 30.0102 17.8699L32.3202 18.7899ZM14.5602 11.8299C14.5602 11.8299 16.4302 12.5999 16.8402 12.7999C17.7902 13.1199 18.1002 11.8499 17.0602 11.8199H14.5602V11.8299ZM33.5902 15.9399C33.5902 15.9399 31.7802 15.0599 31.3802 14.8199C30.4602 14.4399 30.0502 15.6899 31.0802 15.7899L33.5802 15.9399H33.5902ZM14.5002 15.4899C14.5002 15.4899 16.5402 15.4999 17.0002 15.5399C18.0102 15.4899 17.7702 14.1999 16.8002 14.5499L14.4902 15.4899H14.5002ZM33.7302 12.2899C33.7302 12.2899 31.7002 12.1299 31.2402 12.0699C30.2202 12.0599 30.3702 13.3599 31.3602 13.0699L33.7302 12.2899ZM16.2502 19.2899C16.2502 19.2899 18.1002 18.4599 18.5302 18.2999C19.4102 17.8399 18.6002 16.7799 17.9002 17.4999L16.2602 19.2899H16.2502ZM32.0702 8.44994C32.0702 8.44994 30.1702 9.14994 29.7202 9.28994C28.8002 9.69994 29.5402 10.8099 30.2902 10.1399L32.0702 8.44994ZM19.2102 21.8099C19.2102 21.8099 20.5502 20.3499 20.8802 20.0399C21.5002 19.2799 20.3102 18.6199 19.9602 19.5399L19.2102 21.8099ZM29.1502 5.88994C29.1502 5.88994 27.7102 7.24994 27.3602 7.53994C26.6902 8.25994 27.8302 8.99994 28.2402 8.09994L29.1402 5.88994H29.1502Z" fill="#FFE400"/>
<g id="Group_3">
<path id="Vector_11" fill-rule="evenodd" clip-rule="evenodd" d="M14.79 17.54C14.9 17.91 14.91 19.96 17.1 21.94C19.27 23.91 23 24.35 23 24.35C23 24.35 23.02 24.63 22.75 24.64C22.49 24.67 21.21 24.42 20.58 24.23C19.96 24.05 19.4 23.73 19.34 23.75C19.26 23.78 19.14 23.98 18.95 23.96C18.76 23.94 17.86 23.05 17.46 22.82C16.65 22.16 15.94 21.41 15.33 20.57C14.9 19.91 14.79 19.47 14.65 19.47C14.51 19.47 14 19.79 14 19.79C14 19.79 13.53 19.13 13.13 18.07C12.71 17.01 12.76 16.4 12.85 16.35C12.96 16.31 12.96 17.13 13.27 17.88C13.58 18.64 14.02 18.88 14.02 18.88C14.02 18.88 13.74 18.48 13.52 17.5C13.3 16.52 13.21 15.56 13.36 15.27C13.51 14.98 13.66 14.89 13.67 14.9C13.7 14.93 13.41 15.36 13.61 16.49C13.81 17.62 14.36 18.57 14.48 18.53C14.6 18.49 14.4 18.25 14.32 17.59C14.24 16.93 14.4 16.52 14.57 16.46C14.65 16.4 14.77 17.19 14.79 17.55V17.54ZM13.27 19.42C12.85 19.05 12.2 17.78 12.06 17.83C11.9 17.9 13.12 19.74 13.15 19.88C13.18 20.06 13.45 20.56 13.24 20.48C13.03 20.4 11.59 18.97 11.76 19.25C11.93 19.53 13.02 20.79 12.96 20.86C12.9 20.93 12.06 20.16 12.03 20.26C12.01 20.35 12.85 21.11 12.84 21.2C12.83 21.29 12.3 20.72 12.3 20.83C12.3 20.94 12.84 21.52 12.84 21.61C12.84 21.7 12.37 21.2 12.53 21.46C12.67 21.75 13.07 22 13.06 22.09C13.05 22.18 12.72 21.97 12.72 22.02C12.72 22.07 13.33 22.27 13.47 22.43C13.63 22.59 14.62 23.68 15.36 24.22C16.1 24.76 18.25 25.72 18.4 25.72C18.54 25.72 18.76 25.43 18.71 25.31C18.66 25.19 16.57 24.52 15.99 24.02C15.4 23.52 13.97 22.32 13.85 22.26C13.74 22.19 13.42 22.22 13.42 22.14C13.42 22.06 13.84 22.18 13.81 22.14C13.79 22.1 13.24 21.86 13.25 21.82C13.28 21.78 13.64 21.91 13.64 21.86C13.64 21.81 12.99 21.48 13.02 21.4C13.04 21.33 13.5 21.61 13.5 21.55C13.5 21.52 12.88 21.11 12.89 21.04C12.9 20.97 13.37 21.36 13.36 21.27C13.35 21.18 12.99 20.68 12.99 20.62C12.99 20.55 13.55 21.12 13.61 21C13.64 20.9 13.41 19.94 13.42 19.93C13.43 19.92 13.84 20.14 13.9 20C13.98 19.85 13.62 19.66 13.28 19.4L13.27 19.42ZM20.43 26.64C20.13 26.68 20 26.58 20.17 26.35C20.4 26.35 21.02 26.16 21.24 26.07C21.46 25.98 21.69 25.86 21.88 25.7C22.07 25.51 22.19 25.8 22.08 25.96C22 26.06 21.65 26.25 21.38 26.36C20.99 26.48 20.65 26.65 20.43 26.64ZM22.37 25.89C22.17 25.68 22.34 25.54 22.63 25.38C23.06 25.16 22.94 24.85 23.5 24.6C23.75 24.45 27.23 23.13 28.36 22.43C29.49 21.73 32.68 19.45 33.53 17.88C34.37 16.32 33.96 16.21 34.09 16.15C34.2 16.08 34.32 16.37 34.31 16.72C34.28 17.06 34 18.09 34.09 18.19C34.18 18.29 35.36 17.38 35.86 16.28C36.36 15.18 36.73 14.03 36.96 14.03C37.21 14.03 36.56 15.91 36.14 16.64C35.74 17.37 35.25 17.74 35.36 17.9C35.48 18.05 36.7 17.09 37.11 16.39C37.51 15.67 37.9 15.04 37.98 15.17C37.86 16.03 37.5 16.84 36.94 17.53C36.29 18.23 35.51 18.75 35.64 18.85C35.75 18.97 36.63 19.08 37.55 18.5C38.48 17.9 38.57 17.03 38.68 17.08C38.8 17.12 38.57 18.31 37.69 19.05C36.8 19.78 35.64 19.86 35.67 20.02C35.73 20.17 38.2 19.34 38.15 19.54C38.1 19.72 34.95 20.89 34.92 21.01C34.92 21.1 35.46 21.13 36.32 20.94C37.16 20.76 37.97 20.13 38.07 20.28C38.1 20.49 37.46 20.98 36.5 21.22C35.52 21.45 35.04 21.76 35.01 21.84C34.99 21.91 36.75 21.63 36.75 21.72C36.75 21.81 34.45 22.23 34.44 22.35C34.41 22.45 36.61 21.92 36.58 22.06C36.52 22.16 33.58 22.98 33.61 23.03C33.63 23.09 36.06 22.53 36.02 22.62C35.96 22.72 31.92 23.79 31.89 23.87C31.86 23.93 35.46 23.11 35.43 23.18C35.4 23.25 33.57 23.68 33.57 23.72C33.57 23.76 35.05 23.5 35.01 23.57C34.99 23.63 31.28 24.52 31.21 24.66C31.13 24.81 33.14 24.29 33.1 24.56C33.06 24.83 28.8 26.17 28.78 25.93C28.75 25.68 31.37 25.05 31.36 24.98C31.33 24.91 29.85 25.13 29.82 24.99C29.8 24.84 30.8 24.55 30.72 24.49C30.64 24.42 29.9 24.7 29.96 24.53C30.04 24.37 31.45 23.75 31.42 23.71C31.4 23.67 30.91 23.86 30.95 23.71C31.01 23.55 34.01 22.73 33.96 22.62C33.91 22.53 32.58 22.83 32.45 22.85C32.4 22.76 34.31 22.09 34.28 21.97C34.22 21.87 33.26 22.37 33.19 22.23C33.16 22.08 34.88 21.45 34.77 21.35C34.66 21.25 33.88 21.61 33.78 21.51C33.68 21.41 35.41 20.28 35.15 20.25C34.89 20.24 34.56 20.6 34.53 20.37C34.56 20.08 35.88 19.59 35.59 19.36C35.12 19.23 33.56 19.46 32.9 19.83C32.24 20.2 30.07 22.24 29.55 22.56C29.02 22.87 27.22 23.59 26.88 23.73C26.35 23.91 26.26 24.17 25.72 24.43C24.74 24.68 24.76 24.96 24.29 25.12C24.12 25.16 22.36 25.96 22.35 25.9L22.37 25.89ZM19.92 26.92C19.62 27.07 19.36 27.42 19.53 27.57C19.62 27.75 19.92 27.17 20.15 27.2L21.39 27.26C22.06 27.3 22.38 27.13 22.76 27.16C23.14 27.19 23.96 26.97 24.34 26.97C24.72 26.97 24.81 27.01 24.84 26.85C24.89 26.7 23.63 26.81 23.07 26.79C22.51 26.76 21.81 26.89 21.39 26.89C21 26.88 20.33 26.76 19.91 26.92H19.92Z" fill="#FFE400"/>
<path id="Vector_12" fill-rule="evenodd" clip-rule="evenodd" d="M21.51 26.53C21.66 26.53 21.77 26.63 21.77 26.75C21.77 26.87 21.65 26.97 21.51 26.97C21.36 26.97 21.25 26.87 21.25 26.75C21.25 26.63 21.37 26.53 21.51 26.53Z" fill="#FFE400"/>
<path id="Vector_13" fill-rule="evenodd" clip-rule="evenodd" d="M27.9698 26.3199C28.2298 26.2799 28.9498 26.5099 29.4498 26.6099C30.3498 26.9499 32.0298 26.7899 32.0298 26.9499C32.0298 27.1099 31.9198 27.2999 31.5298 27.3299C31.1398 27.3599 30.1598 27.1799 30.1898 27.1799C30.2198 27.1799 30.9698 27.5199 30.7498 27.6099C30.5298 27.6999 29.8998 27.4199 29.7898 27.4899C29.6798 27.5599 30.3798 27.6999 30.2598 27.7399C30.1698 27.7799 29.6898 27.6799 29.5298 27.6999C29.3698 27.7299 29.6498 27.8899 29.4698 27.9499C29.2798 28.0199 28.9698 27.8599 28.8498 27.9099C28.7098 27.9499 29.1298 28.1999 28.9398 28.2299C28.7498 28.2599 28.3198 28.1099 28.0698 28.0799C27.8198 28.0799 28.2998 28.3099 28.1498 28.3399C27.9898 28.3499 27.5598 28.1499 27.4498 28.1499C27.3398 28.1499 27.4498 28.4399 27.2898 28.4399C27.1298 28.4399 26.9498 28.1899 26.8598 28.1899C26.7698 28.1899 26.8598 28.4799 26.6998 28.4799C26.5398 28.4799 26.4798 28.1699 26.3598 28.1899C26.1998 28.2199 26.3598 28.5899 26.1398 28.5599C25.9398 28.5499 25.9098 28.1799 25.7398 28.1899C25.5798 28.2199 25.7698 28.5599 25.6198 28.5599C25.4698 28.5599 25.4298 28.2199 25.2798 28.1899C25.1198 28.1799 25.1898 28.5099 25.0898 28.5099C24.9898 28.5099 24.8998 28.1899 24.8398 28.1899C24.7898 28.1899 24.8398 28.5099 24.6498 28.4799C24.4598 28.4499 24.4598 28.1299 24.4198 28.1399C24.3598 28.1699 24.3598 28.3999 24.2298 28.3999C24.0998 28.3999 24.0898 28.1699 24.0398 28.1899C23.9798 28.1999 23.7898 28.4999 23.6698 28.4499C23.5298 28.4099 23.6998 28.1699 23.6398 28.1699C23.5798 28.1699 23.4198 28.3299 23.3298 28.3199C23.2398 28.3099 23.3298 28.1099 23.2998 28.1099C23.2698 28.1099 23.0398 28.2299 22.9298 28.2299C22.8198 28.2299 22.5298 28.3799 22.4498 28.2399C22.3698 28.0899 22.6498 28.0899 22.7098 27.9599C22.7598 27.8299 22.5498 27.4299 22.7698 27.2999C22.9698 27.1499 23.6398 27.4899 24.6298 27.2599C26.4298 26.7999 27.8298 26.2799 27.9698 26.2899V26.3199Z" fill="#FFE400"/>
</g>
</g>
</g>
</g>
<defs>
<clipPath id="clip0_1104_11591">
<rect x="0.669922" width="42.67" height="32" rx="8" fill="white"/>
</clipPath>
</defs>
</svg>
