<svg width="100" height="100" viewBox="0 0 100 100" fill="none" xmlns="http://www.w3.org/2000/svg">
<g clip-path="url(#clip0_657_6127)">
<mask id="mask0_657_6127" style="mask-type:luminance" maskUnits="userSpaceOnUse" x="0" y="0" width="100" height="100">
<path d="M100 50C100 22.3858 77.6142 0 50 0C22.3858 0 0 22.3858 0 50C0 77.6142 22.3858 100 50 100C77.6142 100 100 77.6142 100 50Z" fill="white"/>
</mask>
<g mask="url(#mask0_657_6127)">
<path d="M0 66.6602H100V100H0V66.6602Z" fill="#1EB53A"/>
<path d="M0 0H100V33.3398H0V0Z" fill="#0099B5"/>
<path d="M0 31.9922H100V68.008H0V31.9922Z" fill="#CE1126"/>
<path d="M0 33.9844H100V66.0158H0V33.9844Z" fill="white"/>
<path d="M28.0078 27.9883C34.6309 27.9883 40 22.6192 40 15.9961C40 9.373 34.6309 4.00391 28.0078 4.00391C21.3847 4.00391 16.0156 9.373 16.0156 15.9961C16.0156 22.6192 21.3847 27.9883 28.0078 27.9883Z" fill="white"/>
<path d="M31.9924 27.9883C38.6155 27.9883 43.9846 22.6192 43.9846 15.9961C43.9846 9.373 38.6155 4.00391 31.9924 4.00391C25.3693 4.00391 20.0002 9.373 20.0002 15.9961C20.0002 22.6192 25.3693 27.9883 31.9924 27.9883Z" fill="#0099B5"/>
<path d="M54.3946 23.1855L53.6346 25.4655L54.7946 25.8655" fill="white"/>
<path d="M54.3946 23.1855L55.1546 25.4655L53.9946 25.8655" fill="white"/>
<path d="M56.6771 24.8439L54.2737 24.8257L54.2521 26.0525" fill="white"/>
<path d="M56.6775 24.8442L54.7437 26.2716L54.005 25.292" fill="white"/>
<path d="M52.1117 24.8442L54.0454 26.2716L54.7842 25.292" fill="white"/>
<path d="M52.1121 24.8439L54.5154 24.8257L54.5371 26.0525" fill="white"/>
<path d="M55.805 27.5271L55.0796 25.2358L53.9062 25.5941" fill="white"/>
<path d="M55.805 27.5273L53.85 26.1294L54.5533 25.124" fill="white"/>
<path d="M52.9833 27.5273L54.9383 26.1294L54.235 25.124" fill="white"/>
<path d="M52.9829 27.5271L53.7083 25.2358L54.8821 25.5941" fill="white"/>
<path d="M54.3946 13.5859L53.6346 15.8659L54.7946 16.2659" fill="white"/>
<path d="M54.3946 13.5859L55.1546 15.8659L53.9946 16.2659" fill="white"/>
<path d="M56.6771 15.2443L54.2737 15.2261L54.2521 16.4529" fill="white"/>
<path d="M56.6775 15.2441L54.7437 16.6715L54.005 15.6919" fill="white"/>
<path d="M52.1117 15.2441L54.0454 16.6715L54.7842 15.6919" fill="white"/>
<path d="M52.1121 15.2443L54.5154 15.2261L54.5371 16.4529" fill="white"/>
<path d="M55.805 17.9275L55.0796 15.6362L53.9062 15.9944" fill="white"/>
<path d="M55.805 17.9272L53.85 16.5294L54.5533 15.5239" fill="white"/>
<path d="M52.9833 17.9272L54.9383 16.5294L54.235 15.5239" fill="white"/>
<path d="M52.9829 17.9275L53.7083 15.6362L54.8821 15.9944" fill="white"/>
<path d="M54.3946 3.98584L53.6346 6.26582L54.7946 6.66582" fill="white"/>
<path d="M54.3946 3.98584L55.1546 6.26582L53.9946 6.66582" fill="white"/>
<path d="M56.6771 5.64423L54.2737 5.62598L54.2521 6.85281" fill="white"/>
<path d="M56.6775 5.64404L54.7437 7.07142L54.005 6.09179" fill="white"/>
<path d="M52.1117 5.64404L54.0454 7.07142L54.7842 6.09179" fill="white"/>
<path d="M52.1121 5.64423L54.5154 5.62598L54.5371 6.85281" fill="white"/>
<path d="M55.805 8.32742L55.0796 6.03613L53.9062 6.39438" fill="white"/>
<path d="M55.805 8.32712L53.85 6.92929L54.5533 5.92383" fill="white"/>
<path d="M52.9833 8.32712L54.9383 6.92929L54.235 5.92383" fill="white"/>
<path d="M52.9829 8.32742L53.7083 6.03613L54.8821 6.39438" fill="white"/>
<path d="M63.9954 23.1855L63.2354 25.4655L64.3954 25.8655" fill="white"/>
<path d="M63.9954 23.1855L64.7554 25.4655L63.5954 25.8655" fill="white"/>
<path d="M66.2779 24.8439L63.8746 24.8257L63.8529 26.0525" fill="white"/>
<path d="M66.2783 24.8442L64.3446 26.2716L63.6058 25.292" fill="white"/>
<path d="M61.7125 24.8442L63.6462 26.2716L64.385 25.292" fill="white"/>
<path d="M61.7129 24.8439L64.1158 24.8257L64.1379 26.0525" fill="white"/>
<path d="M65.4058 27.5271L64.6804 25.2358L63.5071 25.5941" fill="white"/>
<path d="M65.4058 27.5273L63.4508 26.1294L64.1542 25.124" fill="white"/>
<path d="M62.5842 27.5273L64.5392 26.1294L63.8358 25.124" fill="white"/>
<path d="M62.5837 27.5271L63.3092 25.2358L64.4829 25.5941" fill="white"/>
<path d="M63.9954 13.5859L63.2354 15.8659L64.3954 16.2659" fill="white"/>
<path d="M63.9954 13.5859L64.7554 15.8659L63.5954 16.2659" fill="white"/>
<path d="M66.2779 15.2443L63.8746 15.2261L63.8529 16.4529" fill="white"/>
<path d="M66.2783 15.2441L64.3446 16.6715L63.6058 15.6919" fill="white"/>
<path d="M61.7125 15.2441L63.6462 16.6715L64.385 15.6919" fill="white"/>
<path d="M61.7129 15.2443L64.1158 15.2261L64.1379 16.4529" fill="white"/>
<path d="M65.4058 17.9275L64.6804 15.6362L63.5071 15.9944" fill="white"/>
<path d="M65.4058 17.9272L63.4508 16.5294L64.1542 15.5239" fill="white"/>
<path d="M62.5842 17.9272L64.5392 16.5294L63.8358 15.5239" fill="white"/>
<path d="M62.5837 17.9275L63.3092 15.6362L64.4829 15.9944" fill="white"/>
<path d="M63.9954 3.98584L63.2354 6.26582L64.3954 6.66582" fill="white"/>
<path d="M63.9954 3.98584L64.7554 6.26582L63.5954 6.66582" fill="white"/>
<path d="M66.2779 5.64423L63.8746 5.62598L63.8529 6.85281" fill="white"/>
<path d="M66.2783 5.64404L64.3446 7.07142L63.6058 6.09179" fill="white"/>
<path d="M61.7125 5.64404L63.6462 7.07142L64.385 6.09179" fill="white"/>
<path d="M61.7129 5.64423L64.1158 5.62598L64.1379 6.85281" fill="white"/>
<path d="M65.4058 8.32742L64.6804 6.03613L63.5071 6.39438" fill="white"/>
<path d="M65.4058 8.32712L63.4508 6.92929L64.1542 5.92383" fill="white"/>
<path d="M62.5842 8.32712L64.5392 6.92929L63.8358 5.92383" fill="white"/>
<path d="M62.5837 8.32742L63.3092 6.03613L64.4829 6.39438" fill="white"/>
<path d="M73.5954 23.1855L72.8354 25.4655L73.9954 25.8655" fill="white"/>
<path d="M73.595 23.1855L74.355 25.4655L73.195 25.8655" fill="white"/>
<path d="M75.8779 24.8439L73.4746 24.8257L73.4525 26.0525" fill="white"/>
<path d="M75.8779 24.8442L73.9446 26.2716L73.2054 25.292" fill="white"/>
<path d="M71.3125 24.8442L73.2458 26.2716L73.9846 25.292" fill="white"/>
<path d="M71.3125 24.8439L73.7158 24.8257L73.7379 26.0525" fill="white"/>
<path d="M75.0058 27.5271L74.2804 25.2358L73.1067 25.5941" fill="white"/>
<path d="M75.0054 27.5273L73.0504 26.1294L73.7537 25.124" fill="white"/>
<path d="M72.1838 27.5273L74.1388 26.1294L73.4354 25.124" fill="white"/>
<path d="M72.1838 27.5271L72.9088 25.2358L74.0825 25.5941" fill="white"/>
<path d="M73.5954 13.5859L72.8354 15.8659L73.9954 16.2659" fill="white"/>
<path d="M73.595 13.5859L74.355 15.8659L73.195 16.2659" fill="white"/>
<path d="M75.8779 15.2443L73.4746 15.2261L73.4525 16.4529" fill="white"/>
<path d="M75.8779 15.2441L73.9446 16.6715L73.2054 15.6919" fill="white"/>
<path d="M71.3125 15.2441L73.2458 16.6715L73.9846 15.6919" fill="white"/>
<path d="M71.3125 15.2443L73.7158 15.2261L73.7379 16.4529" fill="white"/>
<path d="M75.0058 17.9275L74.2804 15.6362L73.1067 15.9944" fill="white"/>
<path d="M75.0054 17.9272L73.0504 16.5294L73.7537 15.5239" fill="white"/>
<path d="M72.1838 17.9272L74.1388 16.5294L73.4354 15.5239" fill="white"/>
<path d="M72.1838 17.9275L72.9088 15.6362L74.0825 15.9944" fill="white"/>
<path d="M73.5954 3.98584L72.8354 6.26582L73.9954 6.66582" fill="white"/>
<path d="M73.595 3.98584L74.355 6.26582L73.195 6.66582" fill="white"/>
<path d="M75.8779 5.64423L73.4746 5.62598L73.4525 6.85281" fill="white"/>
<path d="M75.8779 5.64404L73.9446 7.07142L73.2054 6.09179" fill="white"/>
<path d="M71.3125 5.64404L73.2458 7.07142L73.9846 6.09179" fill="white"/>
<path d="M71.3125 5.64423L73.7158 5.62598L73.7379 6.85281" fill="white"/>
<path d="M75.0058 8.32742L74.2804 6.03613L73.1067 6.39438" fill="white"/>
<path d="M75.0054 8.32712L73.0504 6.92929L73.7537 5.92383" fill="white"/>
<path d="M72.1838 8.32712L74.1388 6.92929L73.4354 5.92383" fill="white"/>
<path d="M72.1838 8.32742L72.9088 6.03613L74.0825 6.39438" fill="white"/>
<path d="M35.195 23.1855L34.435 25.4655L35.595 25.8655" fill="white"/>
<path d="M35.1948 23.1855L35.9548 25.4655L34.7948 25.8655" fill="white"/>
<path d="M37.4775 24.8439L35.0742 24.8257L35.0523 26.0525" fill="white"/>
<path d="M37.4778 24.8442L35.5442 26.2716L34.8053 25.292" fill="white"/>
<path d="M32.912 24.8442L34.8456 26.2716L35.5845 25.292" fill="white"/>
<path d="M32.9123 24.8439L35.3156 24.8257L35.3375 26.0525" fill="white"/>
<path d="M36.6054 27.5271L35.8801 25.2358L34.7065 25.5941" fill="white"/>
<path d="M36.6052 27.5273L34.6502 26.1294L35.3536 25.124" fill="white"/>
<path d="M33.7835 27.5273L35.7385 26.1294L35.0352 25.124" fill="white"/>
<path d="M33.7834 27.5271L34.5087 25.2358L35.6822 25.5941" fill="white"/>
<path d="M44.795 23.1855L44.035 25.4655L45.195 25.8655" fill="white"/>
<path d="M44.7946 23.1855L45.5546 25.4655L44.3946 25.8655" fill="white"/>
<path d="M47.0775 24.8439L44.6742 24.8257L44.6521 26.0525" fill="white"/>
<path d="M47.0775 24.8442L45.1442 26.2716L44.405 25.292" fill="white"/>
<path d="M42.5117 24.8442L44.4454 26.2716L45.1842 25.292" fill="white"/>
<path d="M42.5121 24.8439L44.9154 24.8257L44.9375 26.0525" fill="white"/>
<path d="M46.2054 27.5271L45.48 25.2358L44.3063 25.5941" fill="white"/>
<path d="M46.205 27.5273L44.25 26.1294L44.9533 25.124" fill="white"/>
<path d="M43.3833 27.5273L45.3383 26.1294L44.635 25.124" fill="white"/>
<path d="M43.3833 27.5271L44.1083 25.2358L45.2821 25.5941" fill="white"/>
<path d="M44.795 13.5859L44.035 15.8659L45.195 16.2659" fill="white"/>
<path d="M44.7946 13.5859L45.5546 15.8659L44.3946 16.2659" fill="white"/>
<path d="M47.0775 15.2443L44.6742 15.2261L44.6521 16.4529" fill="white"/>
<path d="M47.0775 15.2441L45.1442 16.6715L44.405 15.6919" fill="white"/>
<path d="M42.5117 15.2441L44.4454 16.6715L45.1842 15.6919" fill="white"/>
<path d="M42.5121 15.2443L44.9154 15.2261L44.9375 16.4529" fill="white"/>
<path d="M46.2054 17.9275L45.48 15.6362L44.3063 15.9944" fill="white"/>
<path d="M46.205 17.9272L44.25 16.5294L44.9533 15.5239" fill="white"/>
<path d="M43.3833 17.9272L45.3383 16.5294L44.635 15.5239" fill="white"/>
<path d="M43.3833 17.9275L44.1083 15.6362L45.2821 15.9944" fill="white"/>
</g>
<path d="M99.5 50C99.5 77.3381 77.3381 99.5 50 99.5C22.6619 99.5 0.5 77.3381 0.5 50C0.5 22.6619 22.6619 0.5 50 0.5C77.3381 0.5 99.5 22.6619 99.5 50Z" stroke="black"/>
</g>
<defs>
<clipPath id="clip0_657_6127">
<rect width="100" height="100" fill="white"/>
</clipPath>
</defs>
</svg>
