<svg width="137" height="91" viewBox="0 0 137 91" fill="none" xmlns="http://www.w3.org/2000/svg">
<path fill-rule="evenodd" clip-rule="evenodd" d="M130.33 63.2198C130.91 63.5498 131.48 63.6898 132.1 63.6898H132.12C132.74 63.6898 133.31 63.5498 133.89 63.2198C134.45 62.9198 134.91 62.4698 135.21 61.8998C135.52 61.3598 135.68 60.7498 135.68 60.1298C135.68 59.4898 135.54 58.8998 135.21 58.3198C134.9 57.7398 134.45 57.3098 133.87 56.9998C133.29 56.6898 132.72 56.5298 132.12 56.5298H132.1C131.49 56.5498 130.89 56.7098 130.35 56.9998C129.77 57.3098 129.34 57.7398 129.01 58.3198C128.69 58.8698 128.53 59.4998 128.54 60.1298C128.54 60.7298 128.68 61.3198 129.01 61.8998C129.31 62.4598 129.76 62.9198 130.33 63.2198ZM129.53 58.6298C129.79 58.1598 130.17 57.7798 130.64 57.5198C131.11 57.2698 131.61 57.1298 132.1 57.1298H132.12C132.61 57.1298 133.11 57.2698 133.58 57.5198C134.05 57.7798 134.43 58.1698 134.69 58.6298C134.96 59.0998 135.08 59.5998 135.08 60.1298C135.08 60.6498 134.95 61.1598 134.69 61.6098C134.44 62.0698 134.06 62.4498 133.6 62.6998C133.15 62.9598 132.64 63.0898 132.12 63.0898H132.1C131.58 63.0898 131.07 62.9598 130.62 62.6998C130.16 62.4498 129.78 62.0698 129.53 61.6098C129.26 61.1398 129.12 60.6398 129.12 60.1298C129.12 59.5998 129.26 59.0998 129.53 58.6298Z" fill="#1E71B8"/>
<path fill-rule="evenodd" clip-rule="evenodd" d="M131.16 60.46H131.53C131.76 60.46 131.92 60.5 132.02 60.6C132.06 60.62 132.08 60.64 132.1 60.66C132.26 60.8 132.45 61.09 132.68 61.48L133.03 62.1H133.77L133.32 61.34C133.09 60.99 132.89 60.72 132.74 60.58C132.64 60.49 132.53 60.42 132.41 60.37C132.74 60.35 133.01 60.23 133.21 60.02C133.41 59.81 133.52 59.57 133.52 59.28C133.52 59.07 133.46 58.89 133.33 58.72C133.21 58.54 133.04 58.41 132.84 58.35C132.68 58.29 132.43 58.25 132.1 58.25C132.04 58.25 131.96 58.23 131.87 58.23H130.53V62.1H131.15V60.45L131.16 60.46ZM131.16 58.77H132.11C132.3 58.79 132.42 58.81 132.5 58.83C132.61 58.86 132.71 58.94 132.77 59.04C132.83 59.12 132.85 59.23 132.85 59.35C132.85 59.51 132.79 59.66 132.66 59.76C132.56 59.86 132.37 59.9 132.1 59.93H131.15V58.78L131.16 58.77ZM38.77 59.2H44.32L38.77 49.94L34.08 42.14L14.15 54.11L17.19 59.19H38.77V59.2ZM90.45 59.2H117.59L100.7 31.06L82.02 0L74.33 4.63L62.11 11.97L74.33 32.32L90.46 59.21L90.45 59.2ZM80.97 68.48C79.06 67.25 76.81 66.53 74.39 66.53H74.33C67.62 66.57 62.17 72.04 62.17 78.75C62.17 85.46 67.62 90.93 74.33 90.97H74.39C76.82 90.97 79.06 90.25 80.97 89.02V90.3H86.59V59.22H80.97V68.5V68.48ZM80.97 80.02C80.37 83.11 77.64 85.47 74.39 85.47H74.33C70.65 85.43 67.67 82.43 67.67 78.74C67.67 75.05 70.65 72.05 74.33 72.03H74.39C77.64 72.03 80.38 74.38 80.97 77.46V80.01V80.02ZM107.34 68.48C105.38 67.2 103.09 66.52 100.76 66.53H100.7C93.99 66.57 88.54 72.04 88.54 78.75C88.54 85.46 93.99 90.93 100.7 90.97H100.76C103.19 90.97 105.45 90.25 107.34 89.02V90.3H112.96V67.16H107.34V68.5V68.48ZM107.34 80.02C106.74 83.11 104.01 85.47 100.76 85.47H100.7C97.02 85.43 94.04 82.43 94.04 78.74C94.04 75.05 97.02 72.05 100.7 72.03H100.76C104.01 72.03 106.75 74.38 107.34 77.46V80.01V80.02ZM132.93 77.22C132.72 77.12 132.44 77.01 132.11 76.89C130.86 76.46 128.82 75.92 125.98 75.31C123.49 74.75 122.24 74.03 122.24 73.13C122.24 72.49 122.47 71.98 122.9 71.61C123.48 71.12 124.5 70.87 125.99 70.87C127.48 70.87 128.58 71.2 129.22 71.84C129.61 72.23 129.9 72.93 130.08 73.92H136.05C136.05 71 134.86 68.9 132.51 67.63C132.39 67.55 132.26 67.48 132.12 67.42C130.49 66.66 128.33 66.27 125.64 66.27C122.37 66.27 119.9 67.13 118.26 68.88C116.94 70.28 116.31 71.99 116.31 74C116.31 76.51 117.54 78.32 120.05 79.49C121 79.94 123.3 80.58 126.96 81.36C129.41 81.89 130.64 82.66 130.64 83.62C130.64 84.2 130.39 84.69 129.86 85.14C129.18 85.72 128.15 86 126.77 86C124.94 86 123.64 85.69 122.88 85.1C122.12 84.52 121.73 83.68 121.73 82.61H115.48C115.48 85.45 116.67 87.57 119.08 88.97C120.99 90.06 123.5 90.62 126.61 90.62C128.69 90.62 130.54 90.27 132.12 89.59C132.45 89.45 132.74 89.3 133.05 89.14C135.5 87.78 136.73 85.62 136.73 82.66C136.73 80.23 135.47 78.42 132.94 77.23L132.93 77.22ZM18.8 68.48C16.83 67.2 14.54 66.53 12.2 66.53H12.14C5.44995 66.57 0 72.04 0 78.75C0 85.46 5.44995 90.93 12.14 90.97H12.2C14.63 90.97 16.89 90.25 18.8 89.02V90.3H24.42V67.16H18.8V68.5V68.48ZM18.8 80.02C18.2 83.11 15.47 85.47 12.2 85.47H12.14C8.47995 85.43 5.5 82.43 5.5 78.74C5.5 75.05 8.47995 72.05 12.14 72.03H12.2C15.47 72.03 18.21 74.38 18.8 77.46V80.01V80.02ZM53.85 64.69H59.96V59.32H53.85V64.69ZM53.85 90.28H59.96V66.52H53.85V90.28ZM45.44 68.47C43.47 67.19 41.18 66.52 38.84 66.52H38.78C32.07 66.56 26.62 72.03 26.62 78.74C26.62 85.45 32.07 90.92 38.78 90.96H38.84C41.18 90.96 43.48 90.28 45.44 89.01V90.29H51.06V59.21H45.44V68.49V68.47ZM45.44 80.01C44.84 83.1 42.11 85.46 38.84 85.46H38.78C35.1 85.42 32.11 82.42 32.11 78.73C32.11 75.04 35.09 72.04 38.78 72.02H38.84C42.11 72.02 44.85 74.37 45.44 77.45V80V80.01ZM80.95 59.19L74.33 48.12L58.06 21.05L38.78 32.65L38.12 33.04L38.78 34.13L53.84 59.19H80.95Z" fill="black"/>
</svg>
