<svg width="102" height="102" viewBox="0 0 102 102" fill="none" xmlns="http://www.w3.org/2000/svg">
<path d="M101 51C101 23.3858 78.6142 1 51 1C23.3858 1 1 23.3858 1 51C1 78.6142 23.3858 101 51 101C78.6142 101 101 78.6142 101 51Z" fill="white" stroke="#F5F5F5" stroke-width="0.5"/>
<mask id="mask0_657_6152" style="mask-type:luminance" maskUnits="userSpaceOnUse" x="0" y="0" width="102" height="102">
<path d="M101 51C101 23.3858 78.6142 1 51 1C23.3858 1 1 23.3858 1 51C1 78.6142 23.3858 101 51 101C78.6142 101 101 78.6142 101 51Z" fill="white" stroke="white" stroke-width="0.5"/>
</mask>
<g mask="url(#mask0_657_6152)">
<path d="M122.077 0.230957H81.4612V101.769H122.077V0.230957Z" fill="#FF3131"/>
<path fill-rule="evenodd" clip-rule="evenodd" d="M-20.0771 101.769H20.5382V0.230957H-20.0771V101.769Z" fill="#FF3131"/>
<path fill-rule="evenodd" clip-rule="evenodd" d="M60.1641 48.6028C59.4465 49.3203 58.2339 48.6714 58.433 47.6763L61.1533 34.0748L54.3841 37.4594L50.9995 27.3057L47.6149 37.4594L40.8456 34.0748L43.5659 47.6763C43.765 48.6714 42.5524 49.3203 41.8349 48.6028L38.1862 44.9538C37.7856 44.5535 37.1364 44.5535 36.7358 44.9538L34.0764 47.6132L27.3071 44.2286L30.6917 50.9978L28.0324 53.6572C27.6318 54.0579 27.6318 54.7074 28.0324 55.1077L37.461 64.5363H47.6149L49.3072 74.6902H52.6918L54.3841 64.5363H64.5379L73.9665 55.1077C74.3672 54.7074 74.3672 54.0579 73.9665 53.6572L71.3072 50.9978L74.6918 44.2286L67.9225 47.6132L65.2632 44.9538C64.8625 44.5535 64.2133 44.5535 63.8127 44.9538L60.1641 48.6028Z" fill="#FF3131"/>
</g>
<path d="M100.5 51C100.5 78.3381 78.3381 100.5 51 100.5C23.6619 100.5 1.5 78.3381 1.5 51C1.5 23.6619 23.6619 1.5 51 1.5C78.3381 1.5 100.5 23.6619 100.5 51Z" stroke="black"/>
</svg>
