<svg width="102" height="102" viewBox="0 0 102 102" fill="none" xmlns="http://www.w3.org/2000/svg">
<g clip-path="url(#clip0_1092_36)">
<path d="M1 1H101V101H1V1Z" fill="#DE2910"/>
<path d="M41 21.5L15.5 38L26 11L35 38L11 21.5H41Z" fill="#FFDE00"/>
<path d="M47.2064 7.45496L56.2925 11.9052L46.7818 13.5393L52.947 6.33734L52.3533 16.0208L47.2064 7.45496Z" fill="#FFDE00"/>
<path d="M58.7871 16.2751L65.4299 23.9153L56.0265 21.7183L64.514 17.4801L60.1961 26.1753L58.7871 16.2751Z" fill="#FFDE00"/>
<path d="M60.8777 30.7912L63.8233 40.4831L56.1326 34.6348L65.6159 34.2315L58.1199 40.4089L60.8777 30.7912Z" fill="#FFDE00"/>
<path d="M52.955 41.1625L51.9325 51.23L47.1 42.875L55.995 46.16L46.705 48.9625L52.955 41.1625Z" fill="#FFDE00"/>
</g>
<path d="M101 51C101 78.6142 78.6142 101 51 101C23.3858 101 1 78.6142 1 51C1 23.3858 23.3858 1 51 1C78.6142 1 101 23.3858 101 51Z" stroke="black"/>
<defs>
<clipPath id="clip0_1092_36">
<rect x="1" y="1" width="100" height="100" rx="50" fill="white"/>
</clipPath>
</defs>
</svg>
