<svg width="84" height="34" viewBox="0 0 84 34" fill="none" xmlns="http://www.w3.org/2000/svg">
<path d="M11.3683 7.8812C5.55101 7.8812 0.705017 10.3469 0.705017 17.792C0.705017 23.6894 3.96592 27.4039 11.5178 27.4039C20.4092 27.4039 20.9803 21.5492 20.9803 21.5492H16.6733C16.6733 21.5492 15.75 24.7034 11.2563 24.7034C7.59508 24.7034 4.96394 22.2324 4.96394 18.7687H21.4286V16.5965C21.4286 13.1702 19.2511 7.88653 11.3683 7.88653V7.8812ZM11.2189 10.6618C14.7039 10.6618 17.0736 12.7966 17.0736 15.9934H5.06C5.06 12.5991 8.1608 10.6618 11.2189 10.6618Z" fill="#E53238"/>
<path d="M21.4286 0.67627V23.668C21.4286 24.9756 21.3378 26.8062 21.3378 26.8062H25.4473C25.4473 26.8062 25.5968 25.4879 25.5968 24.2871C25.5968 24.2871 27.6248 27.4626 33.1486 27.4626C38.9606 27.4626 42.91 23.4279 42.91 17.6426C42.91 12.2629 39.2808 7.93991 33.1593 7.93991C27.422 7.93991 25.6394 11.0354 25.6394 11.0354V0.67627H21.4339H21.4286ZM32.0919 10.7845C36.0412 10.7845 38.5496 13.7145 38.5496 17.6479C38.5496 21.8641 35.6516 24.6233 32.1186 24.6233C27.9077 24.6233 25.6341 21.3358 25.6341 17.6853C25.6341 14.2856 27.6728 10.7845 32.0919 10.7845Z" fill="#0064D2"/>
<path d="M53.1143 7.8812C44.3669 7.8812 43.8012 12.6738 43.8012 13.437H48.1562C48.1562 13.437 48.3857 10.6404 52.81 10.6404C55.6867 10.6404 57.9175 11.9587 57.9175 14.4884V15.3903H52.81C46.0321 15.3903 42.4456 17.3757 42.4456 21.3998C42.4456 25.4239 45.7545 27.516 50.2323 27.516C56.3325 27.516 58.2965 24.1483 58.2965 24.1483C58.2965 25.4879 58.3979 26.8115 58.3979 26.8115H62.2672C62.2672 26.8115 62.1178 25.173 62.1178 24.127V15.0755C62.1178 9.14072 57.3305 7.89187 53.1089 7.89187L53.1143 7.8812ZM57.9175 18.0909V19.2917C57.9175 20.8608 56.9515 24.7568 51.257 24.7568C48.1402 24.7568 46.8059 23.2037 46.8059 21.3945C46.8059 18.1122 51.305 18.0909 57.9175 18.0909Z" fill="#F5AF02"/>
<path d="M59.7802 8.63367H64.6795L71.7083 22.718L78.7211 8.63367H83.1615L70.3847 33.7122H65.7309L69.4188 26.7207L59.7802 8.63367Z" fill="#86B817"/>
</svg>
