<svg width="268" height="240" viewBox="0 0 268 240" fill="none" xmlns="http://www.w3.org/2000/svg">
<path d="M37.6583 173.661H39.74C40.699 170.472 41.3227 167.19 41.6112 163.876C42.0634 157.732 39.0929 148.33 33.6431 145.18C28.1933 142.03 25.2384 145.928 27.0706 149.257C28.9028 152.587 35.0621 162.059 35.1478 170.215L37.6661 173.669L37.6583 173.661Z" fill="#009688"/>
<path d="M37.152 173.661H37.7367C38.3059 169.638 38.3059 165.552 37.7367 161.537C36.7933 153.569 34.1737 149.865 31.7412 147.293C31.6866 147.238 31.6164 147.207 31.5384 147.199C31.4605 147.199 31.3825 147.23 31.3279 147.277C31.2734 147.332 31.2422 147.402 31.2344 147.48C31.2344 147.558 31.2578 147.636 31.3123 147.69C33.6825 150.185 36.232 153.795 37.1364 161.599C37.7133 165.599 37.7211 169.661 37.152 173.661Z" fill="white"/>
<path d="M37.8217 173.661C36.7536 168.608 31.8807 162.597 27.2885 161.56C21.9634 160.399 19.3672 163.205 20.1312 165.638C20.8953 168.063 25.1055 169.201 29.1909 171.103C30.5709 171.743 31.8261 172.608 32.9099 173.661H37.8217Z" fill="#009688"/>
<path d="M35.8882 173.66H36.5119C34.2587 168 29.1363 163.954 24.9417 163.579C24.9028 163.579 24.8638 163.579 24.8326 163.587C24.7936 163.595 24.7624 163.618 24.7312 163.642C24.7001 163.665 24.6767 163.696 24.6611 163.727C24.6455 163.759 24.6299 163.798 24.6299 163.837C24.6299 163.876 24.6299 163.915 24.6377 163.954C24.6455 163.993 24.6689 164.024 24.6923 164.055C24.7156 164.086 24.7468 164.11 24.778 164.125C24.8092 164.141 24.8482 164.156 24.8872 164.156C28.8478 164.515 33.6817 168.312 35.8882 173.66Z" fill="white"/>
<path d="M225.774 120.394L230.132 122.686L230.499 119.957C228.339 113.868 230.117 106.961 232.448 104.084C234.779 101.207 234.335 99.0938 233.493 98.1504C232.651 97.207 229.446 96.4897 226.281 100.193C223.116 103.896 222.39 108.395 222.913 112.925C223.248 115.763 224.745 118.671 225.774 120.394Z" fill="#009688"/>
<path opacity="0.2" d="M225.774 120.394L230.132 122.686L230.499 119.957C228.339 113.868 230.117 106.961 232.448 104.084C234.779 101.207 234.335 99.0938 233.493 98.1504C232.651 97.207 229.446 96.4897 226.281 100.193C223.116 103.896 222.39 108.395 222.913 112.925C223.248 115.763 224.745 118.671 225.774 120.394Z" fill="black"/>
<path d="M227.575 121.338L228.44 121.79C228.44 121.79 228.425 121.759 228.409 121.743C227.177 120.277 225.579 113.089 226.249 108.879C227.076 103.678 229.742 100.287 232.027 98.8444C232.058 98.8288 232.081 98.8054 232.097 98.782C232.12 98.7508 232.128 98.7274 232.136 98.6962C232.136 98.665 232.136 98.6339 232.136 98.5949C232.136 98.5637 232.12 98.5325 232.097 98.5013C232.058 98.4467 232.003 98.4078 231.941 98.3922C231.878 98.3766 231.808 98.3922 231.754 98.4233C229.423 99.9203 226.608 103.429 225.75 108.801C225.134 112.714 226.366 118.921 227.583 121.33L227.575 121.338Z" fill="white"/>
<path d="M230.226 110.001C231.497 113.128 231.497 114.656 229.416 114.975C227.544 115.256 225.26 117.533 227.381 121.228L239.746 127.715C239.777 127.021 239.949 126.343 240.245 125.719C240.549 125.095 240.97 124.542 241.492 124.082C243.527 122.047 245.399 120.519 245.11 118.258C244.822 115.997 242.857 113.822 242.529 111.857C242.202 109.892 243.208 108.762 245.344 106.555C247.48 104.349 249.422 100.926 246.568 99.3667C243.714 97.8074 240.448 100.482 239.091 102.275C237.727 104.076 236.479 104.863 233.797 104.715C231.115 104.559 228.956 106.859 230.234 109.986L230.226 110.001Z" fill="#009688"/>
<path d="M233.727 124.565C233.664 114.968 240.541 103.733 244.369 101.464C244.423 101.425 244.462 101.371 244.478 101.308C244.494 101.246 244.478 101.176 244.455 101.113C244.423 101.059 244.361 101.012 244.299 100.996C244.236 100.981 244.166 100.996 244.112 101.02C240.237 103.351 233.298 114.594 233.228 124.308L233.727 124.558V124.565Z" fill="white"/>
<path d="M235.567 114.586C235.513 114.601 235.458 114.586 235.411 114.57C235.365 114.547 235.326 114.508 235.302 114.461C234.195 112.387 233.259 110.227 232.503 107.998C232.495 107.966 232.488 107.935 232.495 107.896C232.495 107.865 232.503 107.834 232.527 107.803C232.542 107.771 232.558 107.748 232.589 107.725C232.612 107.701 232.644 107.686 232.675 107.678C232.706 107.67 232.737 107.662 232.776 107.67C232.807 107.67 232.838 107.678 232.87 107.701C232.901 107.725 232.924 107.74 232.948 107.764C232.971 107.787 232.987 107.818 232.994 107.849C233.735 110.048 234.655 112.177 235.754 114.227C235.786 114.289 235.793 114.352 235.77 114.422C235.754 114.484 235.708 114.539 235.645 114.57L235.575 114.593L235.567 114.586Z" fill="white"/>
<path d="M233.906 120.472C233.859 120.472 233.813 120.472 233.766 120.456C233.719 120.441 233.68 120.41 233.649 120.371C233.61 120.316 233.594 120.246 233.61 120.176C233.618 120.113 233.657 120.051 233.711 120.012C236.222 118.258 239.263 117.431 242.311 117.681C242.373 117.689 242.436 117.728 242.475 117.774C242.514 117.829 242.537 117.899 242.529 117.962C242.521 118.024 242.483 118.086 242.436 118.125C242.381 118.164 242.311 118.188 242.249 118.172C239.325 117.954 236.417 118.733 234.008 120.394C233.976 120.425 233.945 120.441 233.906 120.456V120.472Z" fill="white"/>
<path d="M160.837 61.8576L146.647 53.6634L132.465 61.8576L146.647 70.0518L160.837 61.8576Z" fill="#F5F5F5"/>
<path d="M146.646 86.4401L160.836 78.2459V61.8574L146.646 70.0516V86.4401Z" fill="#EBEBEB"/>
<path d="M149.383 80.9983C149.305 80.9983 149.235 80.9827 149.164 80.9437C149.071 80.8814 149.001 80.7878 148.954 80.6865C148.907 80.5851 148.892 80.4759 148.899 80.359V78.4878H148.985L150.35 77.6926V79.6339C150.35 79.8834 150.287 80.1329 150.17 80.3512C150.053 80.5695 149.882 80.7644 149.679 80.9048C149.593 80.9671 149.484 80.9983 149.383 81.0061V80.9983ZM149.118 78.7451V80.3512C149.11 80.4292 149.118 80.4993 149.149 80.5695C149.18 80.6397 149.219 80.702 149.281 80.7488C149.328 80.7722 149.383 80.78 149.43 80.7722C149.476 80.7722 149.531 80.7488 149.57 80.7176C149.749 80.5929 149.89 80.437 149.991 80.2498C150.092 80.0627 150.147 79.8522 150.155 79.6417V79.5014H149.648L149.546 78.8231L149.125 78.7451H149.118ZM149.812 79.2831H150.123V78.0902L149.313 78.5658L149.71 78.6438L149.812 79.2909V79.2831Z" fill="white"/>
<path d="M149.633 82.386C149.633 82.386 149.578 82.3782 149.555 82.3548C149.532 82.3314 149.524 82.308 149.524 82.2768V80.8189C149.524 80.8189 149.524 80.7877 149.524 80.7721C149.524 80.7565 149.54 80.7487 149.547 80.7331C149.555 80.7253 149.571 80.7175 149.586 80.7097C149.602 80.7097 149.617 80.7097 149.633 80.7097C149.664 80.7097 149.688 80.7175 149.711 80.7409C149.734 80.7643 149.742 80.7877 149.742 80.8189V82.2534C149.742 82.2534 149.742 82.2846 149.742 82.3002C149.742 82.3158 149.734 82.3314 149.719 82.347C149.711 82.3548 149.695 82.3704 149.68 82.3782C149.664 82.3782 149.649 82.386 149.633 82.386Z" fill="white"/>
<path d="M148.993 82.7522C148.993 82.7522 148.954 82.7522 148.939 82.7366C148.923 82.7288 148.908 82.7132 148.9 82.6976C148.892 82.6821 148.884 82.6743 148.884 82.6587C148.884 82.6431 148.884 82.6275 148.884 82.6197C148.884 82.6041 148.892 82.5885 148.908 82.5807C148.915 82.5729 148.931 82.5573 148.939 82.5573L150.202 81.8244C150.202 81.8244 150.225 81.8166 150.241 81.8088C150.256 81.8088 150.272 81.8088 150.288 81.8088C150.303 81.8088 150.319 81.8166 150.327 81.8322C150.334 81.84 150.35 81.8478 150.358 81.8634C150.373 81.8868 150.373 81.918 150.366 81.9492C150.366 81.9804 150.342 81.996 150.319 82.0116L149.048 82.7444L148.993 82.76V82.7522Z" fill="white"/>
<path d="M153.516 80.234C153.516 80.234 153.43 80.2418 153.391 80.234C153.344 80.2028 153.313 80.1638 153.289 80.117C153.266 80.0703 153.258 80.0235 153.258 79.9689V79.6726C153.258 79.6726 153.258 79.6415 153.258 79.6337C153.258 79.6181 153.274 79.6025 153.282 79.5947C153.289 79.5869 153.305 79.5791 153.313 79.5713C153.328 79.5713 153.344 79.5635 153.352 79.5635C153.367 79.5635 153.383 79.5635 153.399 79.5635C153.414 79.5635 153.43 79.5791 153.438 79.5869C153.445 79.5947 153.461 79.6103 153.461 79.6259C153.461 79.6415 153.461 79.6571 153.461 79.6726V79.9845H153.531C153.594 79.9221 153.648 79.8442 153.687 79.7662C153.726 79.6804 153.742 79.5869 153.734 79.4933V77.5832C153.734 77.5832 153.734 77.552 153.742 77.5442C153.742 77.5286 153.757 77.5208 153.765 77.5052C153.773 77.4974 153.788 77.4896 153.804 77.4818C153.82 77.4818 153.835 77.474 153.843 77.4818C153.874 77.4818 153.898 77.4896 153.921 77.513C153.944 77.5364 153.952 77.5598 153.952 77.5909V79.5323C153.952 79.6571 153.929 79.7896 153.882 79.9065C153.827 80.0235 153.749 80.1248 153.648 80.2106C153.601 80.2262 153.555 80.234 153.5 80.2262L153.516 80.234Z" fill="white"/>
<path d="M152.362 78.5418V78.3547C152.385 77.8713 152.526 77.3957 152.775 76.9747C153.017 76.5537 153.352 76.195 153.757 75.9299C153.906 75.8052 154.085 75.735 154.272 75.7194C154.459 75.7039 154.654 75.7428 154.818 75.8442C154.981 75.9377 155.114 76.0781 155.2 76.2496C155.278 76.4211 155.301 76.6161 155.27 76.8032V76.8655L152.362 78.5418ZM154.412 75.9533C154.217 75.9533 154.03 76.0157 153.874 76.1249C153.531 76.351 153.235 76.655 153.017 77.0059C152.798 77.3567 152.65 77.7466 152.596 78.1598L155.052 76.7486C155.059 76.6083 155.036 76.4757 154.974 76.351C154.919 76.2262 154.826 76.1171 154.716 76.0391C154.623 75.9923 154.521 75.9611 154.42 75.9611L154.412 75.9533Z" fill="white"/>
<path d="M157.414 77.9964C157.414 77.9964 157.359 77.9886 157.336 77.9653C157.312 77.9497 157.305 77.9185 157.305 77.8951V74.1761C157.305 74.1761 157.312 74.1215 157.336 74.0981C157.359 74.0748 157.383 74.067 157.414 74.067C157.445 74.067 157.468 74.0748 157.492 74.0981C157.515 74.1215 157.523 74.1449 157.523 74.1761V77.8951C157.523 77.8951 157.507 77.9497 157.492 77.9653C157.468 77.9886 157.445 77.9964 157.414 77.9964Z" fill="white"/>
<path d="M157.11 75.0258H157.071C157.071 75.0258 157.047 75.0102 157.04 75.0024C157.032 74.9946 157.024 74.979 157.016 74.9635C157.016 74.9479 157.016 74.9323 157.016 74.9167C157.016 74.9011 157.016 74.8855 157.024 74.8777L157.414 73.9811L157.843 74.4801C157.843 74.4801 157.858 74.5035 157.866 74.519C157.866 74.5346 157.866 74.5502 157.866 74.558C157.866 74.5736 157.866 74.5892 157.858 74.597C157.858 74.6126 157.843 74.6204 157.835 74.6282C157.827 74.636 157.811 74.6438 157.796 74.6516C157.78 74.6516 157.765 74.6516 157.757 74.6516C157.741 74.6516 157.726 74.6516 157.718 74.6438C157.702 74.6438 157.694 74.6282 157.687 74.6126L157.476 74.3787L157.227 74.9635C157.227 74.9635 157.203 74.9946 157.18 75.0024C157.164 75.0102 157.141 75.018 157.125 75.018L157.11 75.0258Z" fill="white"/>
<path d="M158.443 77.4272C158.443 77.4272 158.389 77.4116 158.365 77.396C158.342 77.3726 158.334 77.3493 158.334 77.3181V73.5991C158.334 73.5991 158.334 73.5679 158.334 73.5523C158.334 73.5367 158.342 73.5211 158.357 73.5055C158.365 73.4977 158.381 73.4821 158.396 73.4743C158.412 73.4743 158.428 73.4666 158.443 73.4666C158.459 73.4666 158.474 73.4665 158.49 73.4743C158.506 73.4743 158.521 73.4899 158.529 73.5055C158.537 73.5211 158.544 73.5367 158.552 73.5523C158.552 73.5679 158.552 73.5835 158.552 73.5991V77.3181C158.552 77.3181 158.544 77.3726 158.521 77.396C158.498 77.4194 158.474 77.4272 158.443 77.4272Z" fill="white"/>
<path d="M158.123 74.4489H158.084C158.084 74.4489 158.06 74.4333 158.053 74.4255C158.045 74.4177 158.037 74.4021 158.029 74.3865C158.029 74.3709 158.029 74.3553 158.029 74.3475C158.029 74.3319 158.029 74.3163 158.037 74.3007L158.427 73.4041L158.856 73.9031C158.856 73.9031 158.887 73.9499 158.887 73.9811C158.887 74.0122 158.879 74.0356 158.856 74.059C158.832 74.0746 158.809 74.0902 158.778 74.0902C158.747 74.0902 158.723 74.0824 158.7 74.059L158.497 73.8173L158.248 74.4021C158.248 74.4021 158.216 74.4333 158.201 74.4411C158.185 74.4411 158.162 74.4489 158.138 74.4411L158.123 74.4489Z" fill="white"/>
<path d="M146.646 86.4401L132.457 78.2459V61.8574L146.646 70.0516V86.4401Z" fill="#E0E0E0"/>
<path d="M140.325 66.3951L154.499 58.2009L152.901 57.2731L138.719 65.4674L140.325 66.3951Z" fill="white"/>
<path d="M134.617 71.2524L139.7 74.1605C139.996 74.3554 140.238 74.6127 140.409 74.9168C140.589 75.2209 140.682 75.5561 140.706 75.9148V79.049C140.706 79.6961 140.254 79.9534 139.7 79.6337L134.617 76.7256C134.32 76.5307 134.079 76.2734 133.907 75.9693C133.736 75.6653 133.634 75.3222 133.611 74.9714V71.8371C133.611 71.19 134.063 70.9327 134.617 71.2524Z" fill="#009688"/>
<path d="M134.226 72.032L134.421 72.149V75.6263L134.226 75.5171V72.032Z" fill="#009688"/>
<path d="M135.014 72.4842L135.349 72.6792V76.1564L135.014 75.9615V72.4764V72.4842Z" fill="#009688"/>
<path d="M135.794 72.9444L135.989 73.0535V76.5386L135.794 76.4295V72.9444Z" fill="#009688"/>
<path d="M136.387 73.2792L136.777 73.5053V76.9904L136.387 76.7565V73.2792Z" fill="#009688"/>
<path d="M137.361 73.8484L137.556 73.9576V77.4427L137.361 77.3257V73.8484Z" fill="#009688"/>
<path d="M137.938 74.1682L138.343 74.4099V77.8871L137.93 77.6454V74.1682H137.938Z" fill="#009688"/>
<path d="M138.936 74.7608L139.131 74.87V78.3472L138.936 78.2381V74.7608Z" fill="#009688"/>
<path d="M139.388 75.0102L139.49 75.0648V78.542L139.388 78.4875V75.0024V75.0102Z" fill="#009688"/>
<path d="M138.578 74.5657L138.671 74.6202V78.0975L138.578 78.0429V74.5579V74.5657Z" fill="#009688"/>
<path d="M136.994 73.638L137.088 73.6926V77.1777L136.994 77.1153V73.638Z" fill="#009688"/>
<path d="M136.129 73.1391L136.23 73.2015V76.6866L136.129 76.6242V73.1391Z" fill="#009688"/>
<path d="M135.505 72.7959L135.607 72.8505V76.3356L135.505 76.281V72.7959Z" fill="#009688"/>
<path d="M134.664 72.2811L134.765 72.3357V75.8208L134.664 75.7662V72.2811Z" fill="#009688"/>
<path d="M139.723 75.205L139.918 75.3142V78.7992L139.723 78.6901V75.205Z" fill="#009688"/>
<path d="M141.922 59.1284L125.362 49.5698L108.81 59.1284L125.362 68.6871L141.922 59.1284Z" fill="#F5F5F5"/>
<path d="M118.267 64.5863L134.827 55.0276L133.221 54.0999L116.669 63.6585L118.267 64.5863Z" fill="white"/>
<path d="M125.362 98.7198L141.922 89.1612V59.1209L125.362 68.6795V98.7198Z" fill="#EBEBEB"/>
<path d="M128.099 93.3166C128.021 93.3166 127.95 93.301 127.88 93.262C127.787 93.1997 127.717 93.1061 127.67 93.0047C127.623 92.9034 127.6 92.7942 127.615 92.6773V90.7983H127.709L129.065 90.0031V91.9444C129.065 92.1939 129.003 92.4356 128.886 92.6617C128.769 92.88 128.605 93.0749 128.395 93.2152C128.309 93.2776 128.208 93.3088 128.099 93.3166ZM127.833 91.0634V92.6695C127.826 92.7475 127.833 92.8176 127.857 92.8878C127.888 92.958 127.927 93.0203 127.989 93.0671C128.036 93.0905 128.091 93.0983 128.138 93.0905C128.192 93.0905 128.239 93.0671 128.278 93.0359C128.449 92.9112 128.598 92.7552 128.699 92.5681C128.8 92.381 128.855 92.1705 128.863 91.96V91.8197H128.356L128.254 91.1414L127.826 91.0634H127.833ZM128.535 91.6013H128.878V90.4085L128.06 90.8841L128.465 90.9542L128.535 91.6013Z" fill="white"/>
<path d="M128.348 94.6734C128.348 94.6734 128.293 94.6656 128.27 94.6422C128.247 94.6188 128.239 94.5954 128.239 94.5643V93.1063C128.239 93.1063 128.239 93.0751 128.247 93.0595C128.247 93.0517 128.262 93.0361 128.27 93.0283C128.278 93.0205 128.293 93.0127 128.309 93.0049C128.325 93.0049 128.34 93.0049 128.348 93.0049C128.379 93.0049 128.403 93.0127 128.426 93.0361C128.449 93.0517 128.457 93.0829 128.457 93.1141V94.5721C128.457 94.5721 128.441 94.6266 128.426 94.65C128.403 94.6734 128.379 94.6812 128.348 94.6812V94.6734Z" fill="white"/>
<path d="M127.717 95.063C127.717 95.063 127.678 95.063 127.662 95.0474C127.647 95.0396 127.631 95.024 127.623 95.0084C127.608 94.9772 127.608 94.9538 127.615 94.9227C127.623 94.8915 127.639 94.8681 127.662 94.8525L128.925 94.1274C128.925 94.1274 128.949 94.1196 128.964 94.1118C128.98 94.1118 128.995 94.1118 129.011 94.1118C129.027 94.1118 129.034 94.1196 129.05 94.1352C129.058 94.1352 129.073 94.1508 129.081 94.1664C129.081 94.1742 129.089 94.1898 129.097 94.2054C129.097 94.221 129.097 94.2366 129.097 94.2522C129.097 94.2677 129.089 94.2755 129.081 94.2911C129.073 94.2989 129.058 94.3145 129.05 94.3223L127.779 95.0552C127.779 95.0552 127.748 95.0708 127.725 95.0708L127.717 95.063Z" fill="white"/>
<path d="M132.23 92.5294C132.191 92.5294 132.145 92.5217 132.106 92.4983C132.067 92.4671 132.028 92.4281 132.004 92.3813C131.981 92.3345 131.973 92.28 131.973 92.2332V91.9291C131.973 91.9291 131.973 91.8979 131.981 91.8901C131.981 91.8745 131.997 91.8667 132.004 91.8589C132.012 91.8511 132.028 91.8434 132.043 91.8356C132.059 91.8356 132.074 91.8356 132.082 91.8356C132.09 91.8356 132.113 91.8356 132.121 91.8434C132.137 91.8434 132.145 91.8589 132.152 91.8667C132.16 91.8745 132.168 91.8901 132.176 91.8979C132.176 91.9057 132.184 91.9213 132.184 91.9369V92.3111C132.184 92.3111 132.215 92.3111 132.254 92.3111C132.324 92.2488 132.379 92.1708 132.41 92.085C132.449 91.9993 132.464 91.9057 132.457 91.8122V89.8708C132.457 89.8708 132.464 89.8162 132.488 89.7928C132.511 89.7695 132.534 89.7617 132.566 89.7617C132.597 89.7617 132.62 89.7773 132.644 89.7928C132.667 89.8162 132.675 89.8396 132.675 89.8708V91.8122C132.675 91.9447 132.651 92.0695 132.597 92.1942C132.542 92.3189 132.457 92.4125 132.355 92.4983C132.308 92.5217 132.262 92.5372 132.207 92.5372L132.23 92.5294Z" fill="white"/>
<path d="M131.077 90.8372V90.6423C131.108 90.1589 131.249 89.6911 131.49 89.2701C131.732 88.8491 132.067 88.4904 132.473 88.2253C132.621 88.1006 132.8 88.0304 132.987 88.0148C133.174 87.9992 133.369 88.0382 133.533 88.1318C133.697 88.2253 133.829 88.3735 133.907 88.545C133.985 88.7165 134.016 88.9114 133.977 89.0985V89.1609L131.069 90.8372H131.077ZM133.128 88.2409C132.933 88.2487 132.746 88.3111 132.59 88.4124C132.247 88.6463 131.95 88.9426 131.732 89.2935C131.514 89.6443 131.366 90.0419 131.311 90.4551L133.767 89.044C133.775 88.9036 133.751 88.7633 133.689 88.6385C133.627 88.5138 133.541 88.4046 133.432 88.3267C133.338 88.2799 133.237 88.2487 133.135 88.2487L133.128 88.2409Z" fill="white"/>
<path d="M136.145 90.2916C136.145 90.2916 136.09 90.2838 136.067 90.2604C136.043 90.237 136.036 90.2136 136.036 90.1824V86.4635C136.036 86.4635 136.043 86.4089 136.067 86.3855C136.09 86.3621 136.114 86.3543 136.145 86.3543C136.176 86.3543 136.199 86.3621 136.223 86.3855C136.246 86.4089 136.254 86.4323 136.254 86.4635V90.1824C136.254 90.1824 136.246 90.237 136.223 90.2604C136.199 90.2838 136.176 90.2916 136.145 90.2916Z" fill="white"/>
<path d="M135.825 87.3134H135.786C135.786 87.3134 135.763 87.3056 135.747 87.29C135.739 87.2822 135.731 87.2666 135.724 87.2588C135.724 87.2432 135.716 87.2276 135.716 87.2198C135.716 87.2042 135.716 87.1886 135.724 87.1808L136.113 86.2842L136.542 86.7832C136.542 86.7832 136.573 86.83 136.566 86.8612C136.566 86.8924 136.55 86.9158 136.527 86.9314C136.503 86.947 136.48 86.9625 136.449 86.9547C136.418 86.9547 136.394 86.9392 136.371 86.9158L136.16 86.6741L135.911 87.2588C135.911 87.2588 135.887 87.29 135.872 87.2978C135.856 87.3056 135.833 87.3134 135.817 87.3056L135.825 87.3134Z" fill="white"/>
<path d="M137.158 89.7147C137.158 89.7147 137.103 89.7069 137.08 89.6835C137.057 89.6601 137.049 89.6367 137.049 89.6055V85.8943C137.049 85.8943 137.049 85.8631 137.049 85.8553C137.049 85.8397 137.064 85.832 137.072 85.8164C137.08 85.8086 137.096 85.8008 137.103 85.793C137.119 85.793 137.135 85.793 137.15 85.793C137.166 85.793 137.181 85.793 137.197 85.793C137.213 85.793 137.22 85.8008 137.236 85.8164C137.244 85.8242 137.252 85.8397 137.259 85.8553C137.259 85.8709 137.259 85.8865 137.259 85.9021V89.6133C137.259 89.6133 137.259 89.6445 137.252 89.6601C137.252 89.6679 137.236 89.6835 137.228 89.6913C137.22 89.6991 137.205 89.7069 137.189 89.7147C137.174 89.7147 137.158 89.7147 137.15 89.7147H137.158Z" fill="white"/>
<path d="M136.838 86.7365H136.791C136.791 86.7365 136.745 86.7053 136.737 86.6741C136.729 86.6507 136.729 86.6195 136.737 86.5883L137.127 85.6917L137.563 86.1907C137.563 86.1907 137.594 86.2375 137.594 86.2687C137.594 86.2998 137.587 86.3232 137.563 86.3466C137.555 86.3544 137.54 86.37 137.524 86.37C137.516 86.37 137.493 86.3778 137.485 86.3778C137.47 86.3778 137.454 86.3778 137.438 86.37C137.423 86.3622 137.415 86.3544 137.4 86.3466L137.197 86.1127L136.947 86.6975C136.947 86.6975 136.916 86.7287 136.901 86.7365C136.877 86.7442 136.862 86.7442 136.838 86.7365Z" fill="white"/>
<path d="M125.362 98.7198L108.81 89.1612V59.1209L125.362 68.6795V98.7198Z" fill="#E0E0E0"/>
<path d="M112.177 82.9238L117.253 85.832C117.549 86.0269 117.791 86.2842 117.97 86.5882C118.149 86.8923 118.251 87.2353 118.266 87.5862V90.7282C118.266 91.3675 117.814 91.6326 117.253 91.313L112.177 88.4048C111.881 88.2099 111.639 87.9526 111.468 87.6486C111.296 87.3445 111.195 87.0014 111.171 86.6506V83.5164C111.171 82.8381 111.624 82.612 112.177 82.9316V82.9238Z" fill="#F5F5F5"/>
<path d="M111.789 83.7032L111.983 83.8201V87.2974L111.789 87.1883V83.7032Z" fill="#E0E0E0"/>
<path d="M112.568 84.1553L112.904 84.3502V87.8353L112.568 87.6404V84.1553Z" fill="#E0E0E0"/>
<path d="M113.355 84.608L113.55 84.7171V88.2022L113.355 88.093V84.608Z" fill="#E0E0E0"/>
<path d="M113.947 84.9506L114.329 85.1767V88.6618L113.947 88.4279V84.9506Z" fill="#E0E0E0"/>
<path d="M114.922 85.5201L115.117 85.6293V89.1144L114.922 88.9974V85.5201Z" fill="#E0E0E0"/>
<path d="M115.492 85.84L115.905 86.0817V89.5589L115.492 89.3172V85.84Z" fill="#E0E0E0"/>
<path d="M116.498 86.4167L116.692 86.5337V90.011L116.498 89.9018V86.4167Z" fill="#E0E0E0"/>
<path d="M116.941 86.6743L117.043 86.7366V90.2217L116.941 90.1593V86.6743Z" fill="#E0E0E0"/>
<path d="M116.138 86.2294L116.232 86.2918V89.7691L116.138 89.7145V86.2294Z" fill="#E0E0E0"/>
<path d="M114.556 85.3096L114.65 85.3641V88.8492L114.556 88.7946V85.3174V85.3096Z" fill="#E0E0E0"/>
<path d="M113.69 84.8105L113.784 84.8651V88.3502L113.69 88.2956V84.8105Z" fill="#E0E0E0"/>
<path d="M113.067 84.4677L113.168 84.5301V88.0152L113.067 87.9528V84.4677Z" fill="#E0E0E0"/>
<path d="M112.225 83.9532L112.326 84.0156V87.5006L112.225 87.4383V83.9532Z" fill="#E0E0E0"/>
<path d="M117.285 86.877L117.48 86.9861V90.4712L117.285 90.362V86.877Z" fill="#E0E0E0"/>
<path d="M116.661 67.5413L118.259 68.4691V64.5942L116.661 63.6664V67.5413Z" fill="#F0F0F0"/>
<path d="M92.2497 90.5333L80.4223 83.7113L63.8701 93.2621L75.6975 100.092L92.2497 90.5333Z" fill="#F5F5F5"/>
<path d="M75.6978 127.396L92.2499 117.845V90.5335L75.6978 100.092V127.396Z" fill="#EBEBEB"/>
<path d="M78.4272 121.969C78.3492 121.969 78.279 121.953 78.2167 121.906C78.1231 121.844 78.0529 121.751 78.0062 121.649C77.9594 121.548 77.936 121.439 77.9516 121.322V119.451H78.0374L79.4018 118.655V120.597C79.4018 120.846 79.3394 121.088 79.2224 121.314C79.1055 121.532 78.9418 121.727 78.7312 121.867C78.6377 121.93 78.5363 121.961 78.4272 121.969ZM78.1699 119.716V121.322C78.1621 121.4 78.1699 121.478 78.1933 121.548C78.2245 121.618 78.2635 121.68 78.3258 121.727C78.3726 121.743 78.4272 121.751 78.474 121.743C78.5285 121.743 78.5753 121.719 78.6143 121.688C78.7858 121.571 78.934 121.407 79.0353 121.22C79.1367 121.033 79.1913 120.823 79.199 120.612V120.472H78.6923L78.5909 119.794L78.1621 119.716H78.1699ZM78.8716 120.246H79.1835V119.045L78.3648 119.521L78.7702 119.591L78.8716 120.246Z" fill="white"/>
<path d="M78.676 123.349C78.676 123.349 78.6215 123.334 78.5981 123.318C78.5747 123.302 78.5669 123.271 78.5669 123.24V121.782C78.5669 121.782 78.5669 121.751 78.5747 121.743C78.5747 121.728 78.5903 121.72 78.5981 121.712C78.6059 121.704 78.6215 121.696 78.6371 121.689C78.6527 121.689 78.6682 121.689 78.676 121.689C78.7072 121.689 78.7306 121.696 78.754 121.72C78.7774 121.735 78.7852 121.767 78.7852 121.79V123.248C78.7852 123.248 78.7774 123.302 78.754 123.326C78.7306 123.349 78.7072 123.357 78.676 123.365V123.349Z" fill="white"/>
<path d="M78.0447 123.715C78.0447 123.715 78.0057 123.715 77.9901 123.7C77.9745 123.692 77.9589 123.676 77.9511 123.661C77.9433 123.653 77.9355 123.638 77.9355 123.622C77.9355 123.606 77.9355 123.591 77.9355 123.575C77.9355 123.56 77.9433 123.544 77.9511 123.536C77.9589 123.528 77.9745 123.513 77.9823 123.505L79.2532 122.78C79.2532 122.78 79.2766 122.772 79.2922 122.764C79.3077 122.764 79.3233 122.764 79.3389 122.764C79.3545 122.764 79.3701 122.772 79.3779 122.788C79.3857 122.795 79.4013 122.811 79.4091 122.819C79.4091 122.834 79.4247 122.842 79.4247 122.858C79.4247 122.873 79.4247 122.889 79.4247 122.897C79.4247 122.912 79.4169 122.92 79.4091 122.936C79.4013 122.944 79.3857 122.959 79.3779 122.967L78.1071 123.7C78.1071 123.7 78.0759 123.715 78.0525 123.708L78.0447 123.715Z" fill="white"/>
<path d="M82.5659 121.205C82.5269 121.205 82.4801 121.197 82.4411 121.174C82.4022 121.143 82.3632 121.104 82.3398 121.057C82.3164 121.01 82.3086 120.956 82.3086 120.909V120.605C82.3086 120.605 82.3164 120.55 82.3398 120.527C82.3632 120.511 82.3866 120.496 82.4177 120.496C82.4333 120.496 82.4489 120.496 82.4567 120.496C82.4723 120.496 82.4801 120.504 82.4957 120.519C82.5035 120.527 82.5113 120.543 82.5191 120.558C82.5191 120.566 82.5269 120.589 82.5269 120.597V120.971C82.5269 120.971 82.5659 120.971 82.5971 120.971C82.6672 120.909 82.714 120.831 82.753 120.745C82.7842 120.66 82.8076 120.566 82.7998 120.472V118.531C82.7998 118.531 82.7998 118.5 82.7998 118.484C82.7998 118.469 82.8076 118.453 82.8232 118.437C82.831 118.422 82.8466 118.414 82.8622 118.406C82.8777 118.406 82.8933 118.398 82.9089 118.398C82.9245 118.398 82.9401 118.399 82.9557 118.406C82.9713 118.406 82.9869 118.422 82.9947 118.437C83.0025 118.445 83.0103 118.469 83.0181 118.484C83.0181 118.5 83.0181 118.515 83.0181 118.531V120.472C83.0181 120.605 82.9947 120.73 82.9401 120.847C82.8855 120.964 82.8076 121.073 82.7062 121.151C82.6594 121.174 82.6127 121.182 82.5581 121.182L82.5659 121.205Z" fill="white"/>
<path d="M81.4121 119.513V119.318C81.4433 118.835 81.5836 118.367 81.8253 117.946C82.067 117.525 82.4023 117.166 82.8155 116.901C82.9636 116.776 83.143 116.698 83.3301 116.683C83.5172 116.667 83.7121 116.706 83.8758 116.8C84.0396 116.893 84.1721 117.042 84.2501 117.213C84.328 117.385 84.3514 117.58 84.3202 117.767V117.829L81.4199 119.505L81.4121 119.513ZM83.4626 116.917C83.2677 116.925 83.0806 116.987 82.9246 117.088C82.5816 117.322 82.2853 117.619 82.067 117.969C81.8487 118.32 81.7006 118.718 81.646 119.123L84.1019 117.704C84.1097 117.564 84.0863 117.431 84.024 117.307C83.9616 117.182 83.8758 117.073 83.7667 116.995C83.6809 116.94 83.5796 116.917 83.4782 116.909L83.4626 116.917Z" fill="white"/>
<path d="M86.4802 118.968C86.4802 118.968 86.4257 118.96 86.4023 118.936C86.3789 118.913 86.3711 118.89 86.3711 118.858V115.147C86.3711 115.147 86.3789 115.093 86.4023 115.069C86.4257 115.046 86.4491 115.038 86.4802 115.038C86.5114 115.038 86.5348 115.054 86.5582 115.069C86.5816 115.093 86.5894 115.116 86.5894 115.147V118.858C86.5894 118.858 86.5816 118.913 86.5582 118.936C86.5348 118.96 86.5114 118.968 86.4802 118.968Z" fill="white"/>
<path d="M86.1614 116.02H86.1224C86.1224 116.02 86.099 116.005 86.0834 115.997C86.0756 115.989 86.0678 115.974 86.06 115.958C86.06 115.95 86.0522 115.927 86.0522 115.919C86.0522 115.903 86.0522 115.888 86.06 115.88L86.4499 114.983L86.8787 115.482C86.8787 115.482 86.9099 115.529 86.9021 115.56C86.9021 115.591 86.8865 115.615 86.8631 115.63C86.8553 115.638 86.8397 115.646 86.8241 115.654C86.8085 115.662 86.7929 115.654 86.7851 115.654C86.7539 115.654 86.7306 115.638 86.715 115.615L86.5044 115.373L86.255 115.958C86.255 115.958 86.2316 115.989 86.216 115.997C86.2004 116.005 86.177 116.012 86.1614 116.012V116.02Z" fill="white"/>
<path d="M87.4861 118.391C87.4861 118.391 87.4315 118.383 87.4081 118.359C87.3848 118.336 87.377 118.313 87.377 118.281V114.57C87.377 114.57 87.3848 114.516 87.4081 114.492C87.4315 114.469 87.4549 114.461 87.4861 114.461C87.5017 114.461 87.5173 114.461 87.5329 114.461C87.5485 114.461 87.5563 114.477 87.5719 114.484C87.5797 114.492 87.5875 114.508 87.5953 114.523C87.5953 114.539 87.5953 114.555 87.5953 114.57V118.281C87.5953 118.281 87.5953 118.313 87.5875 118.32C87.5875 118.336 87.5719 118.344 87.5641 118.352C87.5563 118.359 87.5407 118.367 87.5251 118.375C87.5095 118.375 87.4939 118.375 87.4861 118.375V118.391Z" fill="white"/>
<path d="M87.1663 115.436C87.1663 115.436 87.1351 115.436 87.1273 115.436C87.1117 115.436 87.1039 115.428 87.0883 115.412C87.0805 115.404 87.0727 115.389 87.0649 115.381C87.0649 115.365 87.0571 115.35 87.0571 115.342C87.0571 115.326 87.0571 115.311 87.0649 115.303L87.4548 114.406L87.8836 114.905C87.8836 114.905 87.9148 114.952 87.9148 114.983C87.9148 115.015 87.907 115.038 87.8836 115.061C87.8758 115.069 87.8602 115.077 87.8446 115.085C87.829 115.085 87.8134 115.092 87.8056 115.092C87.7978 115.092 87.7744 115.092 87.7666 115.085C87.751 115.085 87.7432 115.069 87.7276 115.061L87.5249 114.82L87.2754 115.404C87.2754 115.404 87.2442 115.436 87.2287 115.443C87.2053 115.443 87.1897 115.451 87.1663 115.443V115.436Z" fill="white"/>
<path d="M75.6975 127.395L63.8701 120.573V93.262L75.6975 100.092V127.395Z" fill="#E0E0E0"/>
<path d="M69.3662 100.311L70.9645 101.238V97.3634L69.3662 96.4356V100.311Z" fill="#F5F5F5"/>
<path d="M70.9645 97.3634L87.5245 87.8047L85.9184 86.877L69.3662 96.4356L70.9645 97.3634Z" fill="white"/>
<path d="M70.9644 113.744L49.6875 101.456L28.4028 113.744L49.6875 126.039L70.9644 113.744Z" fill="#F5F5F5"/>
<path d="M49.688 142.419L70.9649 130.132V113.744L49.688 126.039V142.419Z" fill="#EBEBEB"/>
<path d="M52.4164 136.985C52.3463 136.985 52.2683 136.962 52.2059 136.923C52.1124 136.861 52.0422 136.767 51.9954 136.666C51.9486 136.564 51.9253 136.455 51.9408 136.338V134.459H52.0266L53.391 133.656V135.598C53.391 135.847 53.3208 136.089 53.2117 136.307C53.0947 136.525 52.931 136.712 52.7283 136.861C52.6425 136.923 52.5334 136.962 52.4242 136.97L52.4164 136.985ZM52.1514 134.732V136.338C52.1436 136.416 52.1514 136.486 52.1747 136.557C52.2059 136.627 52.2449 136.689 52.3073 136.736C52.3541 136.759 52.4086 136.767 52.4632 136.759C52.5178 136.759 52.5646 136.736 52.6114 136.705C52.7829 136.58 52.931 136.424 53.0324 136.237C53.1337 136.05 53.1883 135.839 53.1961 135.629V135.481H52.6737L52.5724 134.802L52.1591 134.732H52.1514ZM52.853 135.27H53.1883V134.077L52.3775 134.553L52.7829 134.623L52.853 135.27Z" fill="white"/>
<path d="M52.658 138.365C52.658 138.365 52.6268 138.365 52.619 138.365C52.6034 138.365 52.5956 138.35 52.5878 138.342C52.58 138.334 52.5722 138.318 52.5644 138.311C52.5644 138.295 52.5566 138.279 52.5566 138.272V136.814C52.5566 136.814 52.5566 136.782 52.5566 136.767C52.5566 136.751 52.5644 136.736 52.58 136.72C52.5878 136.704 52.6034 136.697 52.619 136.689C52.6346 136.681 52.6502 136.681 52.6658 136.681C52.6814 136.681 52.697 136.681 52.7126 136.689C52.7282 136.689 52.7438 136.704 52.7516 136.72C52.7594 136.736 52.7671 136.751 52.7749 136.767C52.7749 136.782 52.7749 136.798 52.7749 136.814V138.272C52.7749 138.272 52.7749 138.303 52.7671 138.318C52.7671 138.326 52.7516 138.342 52.7438 138.35C52.736 138.357 52.7204 138.365 52.7048 138.373C52.6892 138.373 52.6736 138.373 52.6658 138.373L52.658 138.365Z" fill="white"/>
<path d="M52.0281 138.732C52.0281 138.732 51.9813 138.724 51.9657 138.708C51.9501 138.693 51.9346 138.669 51.9268 138.646C51.9268 138.622 51.9268 138.599 51.9268 138.576C51.9346 138.552 51.9501 138.537 51.9735 138.521L53.2444 137.796C53.2444 137.796 53.2678 137.78 53.2834 137.78C53.299 137.78 53.3146 137.78 53.3223 137.78C53.3379 137.78 53.3457 137.788 53.3613 137.796C53.3691 137.804 53.3847 137.819 53.3847 137.827C53.3925 137.843 53.4003 137.858 53.4003 137.866C53.4003 137.882 53.4003 137.897 53.4003 137.913C53.4003 137.929 53.3925 137.944 53.3847 137.952C53.3769 137.96 53.3613 137.975 53.3535 137.983L52.0827 138.732H52.0281Z" fill="white"/>
<path d="M56.5415 136.229C56.5415 136.229 56.4635 136.229 56.4245 136.229C56.3778 136.198 56.3466 136.159 56.3232 136.112C56.2998 136.065 56.292 136.011 56.292 135.956V135.66C56.292 135.66 56.2998 135.605 56.3232 135.582C56.3466 135.558 56.37 135.551 56.4011 135.551C56.4323 135.551 56.4557 135.558 56.4791 135.582C56.5025 135.605 56.5103 135.629 56.5103 135.66V135.956C56.5103 135.956 56.5025 136.011 56.5103 136.034H56.5883C56.6506 135.972 56.7052 135.894 56.7364 135.808C56.7676 135.722 56.7832 135.629 56.7832 135.535V133.594C56.7832 133.594 56.7988 133.539 56.8144 133.516C56.8378 133.492 56.8611 133.484 56.8923 133.484C56.9235 133.484 56.9469 133.492 56.9703 133.516C56.9937 133.539 57.0015 133.562 57.0015 133.594V135.535C57.0015 135.668 56.9781 135.792 56.9235 135.917C56.8689 136.034 56.791 136.135 56.6896 136.221C56.635 136.237 56.5883 136.237 56.5337 136.221L56.5415 136.229Z" fill="white"/>
<path d="M55.395 134.529V134.334C55.4184 133.851 55.5587 133.375 55.8004 132.962C56.0421 132.541 56.3852 132.183 56.7906 131.917C56.9387 131.793 57.1181 131.723 57.3052 131.699C57.4923 131.684 57.6872 131.723 57.8509 131.824C58.0147 131.917 58.1472 132.066 58.2252 132.237C58.3031 132.409 58.3265 132.604 58.2954 132.791V132.853L55.395 134.529ZM57.4455 131.941C57.2506 131.949 57.0635 132.011 56.8998 132.112C56.5567 132.346 56.2604 132.643 56.0421 132.993C55.8238 133.344 55.6835 133.742 55.6211 134.147L58.0693 132.728C58.077 132.588 58.0537 132.455 57.9913 132.331C57.9367 132.206 57.8431 132.097 57.734 132.019C57.6404 131.972 57.5391 131.941 57.4377 131.941H57.4455Z" fill="white"/>
<path d="M60.4715 133.992C60.4715 133.992 60.4403 133.992 60.4247 133.992C60.4091 133.992 60.4013 133.976 60.3857 133.968C60.3779 133.96 60.3701 133.945 60.3623 133.929C60.3623 133.914 60.3623 133.898 60.3623 133.882V130.171C60.3623 130.171 60.3623 130.14 60.3623 130.124C60.3623 130.109 60.3701 130.093 60.3857 130.078C60.3935 130.062 60.4091 130.054 60.4247 130.046C60.4403 130.039 60.4559 130.039 60.4715 130.039C60.487 130.039 60.5026 130.039 60.5182 130.046C60.5338 130.046 60.5494 130.062 60.5572 130.078C60.565 130.093 60.5728 130.109 60.5806 130.124C60.5806 130.14 60.5806 130.156 60.5806 130.171V133.882C60.5806 133.882 60.5806 133.914 60.5806 133.929C60.5806 133.945 60.565 133.953 60.5572 133.968C60.5494 133.976 60.5338 133.984 60.526 133.992C60.5104 133.992 60.4948 133.999 60.4871 133.999L60.4715 133.992Z" fill="white"/>
<path d="M60.1741 131.013H60.1273C60.1273 131.013 60.1039 130.998 60.0883 130.99C60.0805 130.982 60.0727 130.966 60.0649 130.951C60.0649 130.935 60.0649 130.92 60.0649 130.904C60.0649 130.888 60.0649 130.873 60.0805 130.865L60.4626 129.968L60.8992 130.467C60.8992 130.467 60.9304 130.514 60.9226 130.545C60.9226 130.577 60.907 130.6 60.8836 130.623C60.8602 130.639 60.829 130.654 60.8056 130.647C60.7744 130.647 60.751 130.631 60.7277 130.608L60.5249 130.374L60.2754 130.959C60.2754 130.959 60.2521 130.99 60.2365 130.998C60.2209 131.005 60.1975 131.005 60.1819 131.005L60.1741 131.013Z" fill="white"/>
<path d="M61.4768 133.415C61.4768 133.415 61.4223 133.407 61.3989 133.383C61.3755 133.36 61.3677 133.337 61.3677 133.305V129.586C61.3677 129.586 61.3755 129.532 61.3989 129.508C61.4223 129.485 61.4456 129.477 61.4768 129.477C61.508 129.477 61.5314 129.485 61.5548 129.508C61.5782 129.532 61.586 129.555 61.586 129.586V133.305C61.586 133.305 61.5782 133.36 61.5548 133.383C61.5314 133.407 61.508 133.415 61.4768 133.415Z" fill="white"/>
<path d="M61.157 130.436H61.118C61.118 130.436 61.0946 130.429 61.079 130.413C61.0712 130.405 61.0634 130.39 61.0556 130.382C61.0556 130.366 61.0479 130.351 61.0479 130.343C61.0479 130.327 61.0479 130.312 61.0556 130.304L61.4455 129.399L61.8743 129.898C61.8743 129.898 61.8899 129.922 61.8977 129.937C61.8977 129.953 61.9055 129.969 61.9055 129.976C61.9055 129.992 61.9055 130.008 61.8977 130.023C61.8977 130.039 61.8821 130.047 61.8743 130.062C61.8665 130.07 61.8509 130.078 61.8431 130.086C61.8275 130.086 61.8197 130.093 61.8041 130.093C61.7885 130.093 61.7729 130.093 61.7651 130.086C61.7495 130.086 61.7417 130.07 61.734 130.062L61.5234 129.82L61.274 130.405C61.274 130.405 61.2428 130.436 61.2272 130.444C61.2038 130.444 61.1882 130.452 61.1648 130.444L61.157 130.436Z" fill="white"/>
<path d="M49.6875 142.419L28.4028 130.132V113.744L49.6875 126.039V142.419Z" fill="#E0E0E0"/>
<path d="M38.2344 123.303L39.8327 124.23V120.355L38.2344 119.428V123.303Z" fill="#F5F5F5"/>
<path d="M39.8415 120.356L61.1262 108.068L59.5279 107.14L38.2432 119.428L39.8415 120.356Z" fill="white"/>
<path d="M31.7714 123.887L36.847 126.795C37.1432 126.99 37.3849 127.247 37.5643 127.552C37.7436 127.856 37.8449 128.199 37.8605 128.549V131.691C37.8605 132.331 37.4083 132.596 36.847 132.276L31.7714 129.368C31.4751 129.173 31.2334 128.916 31.0619 128.612C30.8904 128.308 30.789 127.973 30.7656 127.614V124.48C30.7656 123.825 31.2178 123.599 31.7714 123.895V123.887Z" fill="#F5F5F5"/>
<path d="M31.3818 124.667L31.5768 124.776V128.261L31.3818 128.152V124.667Z" fill="#E0E0E0"/>
<path d="M32.1616 125.119L32.4969 125.314V128.791L32.1616 128.596V125.111V125.119Z" fill="#E0E0E0"/>
<path d="M32.9492 125.579L33.1441 125.688V129.173L32.9492 129.064V125.579Z" fill="#E0E0E0"/>
<path d="M33.5415 125.914L33.9313 126.14V129.625L33.5415 129.392V125.914Z" fill="#E0E0E0"/>
<path d="M34.5161 126.484L34.711 126.593V130.078L34.5161 129.961V126.484Z" fill="#E0E0E0"/>
<path d="M35.0854 126.803L35.4987 127.045V130.522L35.0854 130.273V126.795V126.803Z" fill="#E0E0E0"/>
<path d="M36.0908 127.396L36.2857 127.505V130.982L36.0908 130.873V127.396Z" fill="#E0E0E0"/>
<path d="M36.5347 127.645L36.636 127.7V131.177L36.5347 131.122V127.637V127.645Z" fill="#E0E0E0"/>
<path d="M35.7324 127.201L35.826 127.255V130.74L35.7324 130.686V127.201Z" fill="#E0E0E0"/>
<path d="M34.1504 126.273L34.2439 126.327V129.812L34.1504 129.75V126.273Z" fill="#E0E0E0"/>
<path d="M33.2847 125.774L33.386 125.828V129.306L33.2847 129.251V125.766V125.774Z" fill="#E0E0E0"/>
<path d="M32.6611 125.431L32.7625 125.494V128.979L32.6611 128.916V125.431Z" fill="#E0E0E0"/>
<path d="M31.8193 124.916L31.9207 124.979V128.456L31.8193 128.401V124.916Z" fill="#E0E0E0"/>
<path d="M36.8779 127.84L37.0728 127.957V131.434L36.8779 131.325V127.84Z" fill="#E0E0E0"/>
<path d="M66.2401 80.9747L49.6879 71.4161L33.1279 80.9747L49.6879 90.5333L66.2401 80.9747Z" fill="#F5F5F5"/>
<path d="M49.688 123.302L66.2402 113.744V80.9747L49.688 90.5334V123.31V123.302Z" fill="#EBEBEB"/>
<path d="M52.4164 117.868C52.3463 117.868 52.2683 117.853 52.2059 117.814C52.1124 117.751 52.0422 117.658 51.9954 117.556C51.9486 117.455 51.9253 117.346 51.9408 117.229V115.35H52.0266L53.391 114.555V116.496C53.391 116.745 53.3286 116.987 53.2117 117.213C53.0947 117.432 52.931 117.626 52.7283 117.767C52.6347 117.821 52.5334 117.86 52.4242 117.868H52.4164ZM52.1514 115.615V117.229C52.1436 117.307 52.1514 117.377 52.1825 117.447C52.2137 117.517 52.2527 117.58 52.3151 117.626C52.3619 117.65 52.4164 117.658 52.471 117.65C52.5256 117.65 52.5724 117.626 52.6191 117.595C52.7907 117.471 52.9388 117.307 53.0402 117.12C53.1415 116.933 53.1961 116.722 53.2039 116.512V116.371H52.6815L52.5802 115.693L52.1669 115.615H52.1514ZM52.853 116.153H53.1883V114.96L52.3775 115.436L52.7829 115.506L52.853 116.153Z" fill="white"/>
<path d="M52.659 119.256C52.659 119.256 52.6278 119.256 52.62 119.248C52.6044 119.248 52.5966 119.232 52.5888 119.225C52.581 119.217 52.5732 119.201 52.5654 119.193C52.5654 119.178 52.5654 119.162 52.5654 119.147V117.689C52.5654 117.689 52.5654 117.657 52.5654 117.65C52.5654 117.634 52.581 117.619 52.5888 117.611C52.5966 117.603 52.6122 117.595 52.62 117.587C52.6356 117.587 52.6512 117.58 52.659 117.58C52.6668 117.58 52.6902 117.58 52.7058 117.58C52.7214 117.58 52.7292 117.595 52.7448 117.603C52.7525 117.611 52.7603 117.626 52.7681 117.642C52.7681 117.657 52.7681 117.673 52.7681 117.689V119.147C52.7681 119.147 52.7681 119.178 52.7681 119.193C52.7681 119.209 52.7525 119.225 52.7448 119.232C52.737 119.24 52.7214 119.256 52.7058 119.256C52.6902 119.256 52.6746 119.256 52.659 119.256Z" fill="white"/>
<path d="M52.0281 119.622C52.0281 119.622 51.9813 119.615 51.9657 119.599C51.9501 119.583 51.9346 119.56 51.9268 119.537C51.9268 119.513 51.9268 119.49 51.9268 119.466C51.9346 119.443 51.9501 119.427 51.9735 119.412L53.2444 118.679C53.2444 118.679 53.299 118.656 53.3301 118.671C53.3613 118.671 53.3847 118.695 53.4003 118.718C53.4159 118.749 53.4159 118.772 53.4081 118.804C53.4081 118.835 53.3847 118.858 53.3535 118.874L52.0827 119.599C52.0827 119.599 52.0437 119.615 52.0281 119.615V119.622Z" fill="white"/>
<path d="M56.5415 117.112C56.5025 117.112 56.4557 117.104 56.4245 117.081C56.3778 117.049 56.3466 117.018 56.3232 116.971C56.2998 116.925 56.292 116.87 56.292 116.823V116.527C56.292 116.527 56.2998 116.465 56.3232 116.449C56.3466 116.426 56.37 116.418 56.4011 116.418C56.4323 116.418 56.4557 116.426 56.4791 116.449C56.5025 116.472 56.5103 116.496 56.5103 116.527V116.823C56.5103 116.823 56.5025 116.87 56.5103 116.901C56.5337 116.901 56.5649 116.901 56.5883 116.901C56.6584 116.839 56.7052 116.761 56.7442 116.675C56.7754 116.589 56.791 116.496 56.791 116.41V114.469C56.791 114.469 56.7988 114.414 56.8222 114.391C56.8456 114.367 56.8689 114.36 56.9001 114.36C56.9157 114.36 56.9313 114.36 56.9469 114.36C56.9625 114.36 56.9703 114.367 56.9859 114.383C56.9937 114.391 57.0015 114.406 57.0093 114.422C57.0093 114.438 57.0093 114.453 57.0093 114.469V116.41C57.0093 116.535 56.9859 116.667 56.9313 116.784C56.8767 116.901 56.7988 117.003 56.6974 117.088C56.6506 117.112 56.5961 117.12 56.5415 117.12V117.112Z" fill="white"/>
<path d="M55.395 115.435V115.248C55.4184 114.765 55.5587 114.289 55.8004 113.868C56.0421 113.447 56.3852 113.089 56.7906 112.824C56.9387 112.699 57.1181 112.629 57.3052 112.613C57.4923 112.597 57.6794 112.644 57.8431 112.738C58.0069 112.831 58.1394 112.972 58.2174 113.151C58.2953 113.322 58.3187 113.51 58.2875 113.697V113.759L55.3872 115.435H55.395ZM57.4455 112.847C57.2506 112.855 57.0635 112.917 56.8997 113.018C56.5567 113.252 56.2604 113.549 56.0421 113.899C55.8238 114.25 55.6835 114.64 55.6211 115.053L58.0692 113.634C58.077 113.494 58.0536 113.361 57.9991 113.237C57.9445 113.112 57.8509 113.003 57.7418 112.925C57.656 112.862 57.5547 112.824 57.4455 112.824V112.855V112.847Z" fill="white"/>
<path d="M60.4715 114.859C60.4715 114.859 60.4169 114.851 60.3935 114.828C60.3701 114.804 60.3623 114.781 60.3623 114.75V111.038C60.3623 111.038 60.3623 111.007 60.3623 110.992C60.3623 110.976 60.3701 110.96 60.3857 110.945C60.3935 110.929 60.4091 110.921 60.4247 110.914C60.4403 110.914 60.4559 110.906 60.4715 110.906C60.487 110.906 60.5026 110.906 60.5182 110.914C60.5338 110.921 60.5494 110.929 60.5572 110.945C60.565 110.96 60.5728 110.976 60.5806 110.992C60.5806 111.007 60.5806 111.023 60.5806 111.038V114.75C60.5806 114.75 60.5728 114.804 60.5494 114.828C60.526 114.851 60.5026 114.859 60.4715 114.859Z" fill="white"/>
<path d="M60.1741 111.896H60.1273C60.1273 111.896 60.1039 111.881 60.0883 111.873C60.0805 111.865 60.0727 111.849 60.0649 111.834C60.0649 111.818 60.0649 111.803 60.0649 111.787C60.0649 111.771 60.0649 111.756 60.0805 111.748L60.4626 110.851L60.8992 111.35C60.8992 111.35 60.9304 111.397 60.9304 111.428C60.9304 111.46 60.9226 111.483 60.8992 111.506C60.8758 111.53 60.8524 111.538 60.8212 111.538C60.79 111.538 60.7666 111.53 60.7432 111.506L60.5405 111.265L60.291 111.849C60.291 111.849 60.2599 111.881 60.2443 111.888C60.2209 111.896 60.2053 111.896 60.1819 111.888L60.1741 111.896Z" fill="white"/>
<path d="M61.4768 114.274C61.4768 114.274 61.4223 114.266 61.3989 114.243C61.3755 114.219 61.3677 114.196 61.3677 114.165V110.453C61.3677 110.453 61.3755 110.399 61.3989 110.375C61.4223 110.352 61.4456 110.344 61.4768 110.344C61.508 110.344 61.5314 110.352 61.5548 110.375C61.5782 110.399 61.586 110.422 61.586 110.453V114.165C61.586 114.165 61.5704 114.219 61.5548 114.243C61.5314 114.266 61.508 114.274 61.4768 114.274Z" fill="white"/>
<path d="M61.1576 111.327H61.1186C61.1186 111.327 61.0952 111.311 61.0796 111.303C61.0718 111.295 61.064 111.28 61.0562 111.264C61.0562 111.249 61.0484 111.233 61.0562 111.225C61.0562 111.21 61.0562 111.194 61.064 111.178L61.4538 110.282L61.8826 110.781C61.8826 110.781 61.8982 110.804 61.906 110.82C61.906 110.835 61.9138 110.851 61.9138 110.867C61.9138 110.882 61.9138 110.898 61.906 110.906C61.906 110.921 61.8904 110.937 61.8826 110.945C61.8592 110.96 61.8359 110.976 61.8047 110.976C61.7735 110.976 61.7501 110.968 61.7267 110.945L61.5162 110.711L61.2667 111.295C61.2667 111.295 61.2355 111.327 61.2199 111.334C61.1965 111.334 61.1809 111.342 61.1576 111.334V111.327Z" fill="white"/>
<path d="M49.6879 123.302L33.1279 113.744V80.9747L49.6879 90.5334V123.31V123.302Z" fill="#E0E0E0"/>
<path d="M40.9805 89.3871L42.5866 90.3149V86.44L40.9805 85.5044V89.3793V89.3871Z" fill="#F5F5F5"/>
<path d="M42.5866 86.4402L59.1387 76.8815L57.5404 75.9537L40.9805 85.5046L42.5866 86.4402Z" fill="white"/>
<path d="M36.4965 107.498L41.5721 110.407C41.8683 110.601 42.11 110.859 42.2893 111.163C42.4609 111.467 42.5622 111.802 42.5856 112.161V115.295C42.5856 115.934 42.1412 116.199 41.5799 115.88L36.5043 112.972C36.208 112.785 35.9663 112.527 35.787 112.223C35.6077 111.919 35.5063 111.576 35.4907 111.225V108.091C35.4907 107.452 35.9429 107.187 36.5043 107.506L36.4965 107.498Z" fill="#F5F5F5"/>
<path d="M36.0981 108.286L36.2931 108.395V111.88L36.0981 111.763V108.286Z" fill="#E0E0E0"/>
<path d="M36.8857 108.738L37.221 108.933V112.418L36.8857 112.223V108.746V108.738Z" fill="#E0E0E0"/>
<path d="M37.6738 109.183L37.8687 109.3V112.777L37.6738 112.668V109.183Z" fill="#E0E0E0"/>
<path d="M38.2666 109.526L38.6486 109.76V113.237L38.2666 113.011V109.526Z" fill="#E0E0E0"/>
<path d="M39.2485 110.095L39.4434 110.204V113.689L39.2485 113.58V110.095Z" fill="#E0E0E0"/>
<path d="M39.8101 110.415L40.2233 110.664V114.149L39.8101 113.908V110.423V110.415Z" fill="#E0E0E0"/>
<path d="M40.8164 110.999L41.0113 111.108V114.593L40.8164 114.476V110.999Z" fill="#E0E0E0"/>
<path d="M41.2681 111.257L41.3616 111.311V114.796L41.2681 114.734V111.257Z" fill="#E0E0E0"/>
<path d="M40.457 110.812L40.5584 110.875V114.36L40.457 114.297V110.812Z" fill="#E0E0E0"/>
<path d="M38.875 109.884L38.9764 109.947V113.424L38.875 113.369V109.884Z" fill="#E0E0E0"/>
<path d="M38.0088 109.393L38.1101 109.448V112.933L38.0088 112.879V109.401V109.393Z" fill="#E0E0E0"/>
<path d="M37.3853 109.042L37.4788 109.097V112.582L37.3853 112.527V109.05V109.042Z" fill="#E0E0E0"/>
<path d="M36.5435 108.535L36.637 108.59V112.075L36.5435 112.012V108.535Z" fill="#E0E0E0"/>
<path d="M41.5952 111.459L41.7901 111.568V115.046L41.5952 114.936V111.459Z" fill="#E0E0E0"/>
<path d="M33.2845 171.189L96.8267 207.872C97.6064 208.27 98.4718 208.472 99.345 208.472C100.218 208.472 101.084 208.27 101.863 207.872L241.095 127.52C242.483 126.717 242.483 125.415 241.095 124.612L177.553 87.9292C176.773 87.5316 175.908 87.321 175.034 87.321C174.161 87.321 173.296 87.5316 172.516 87.9292L33.2845 168.273C31.8967 169.076 31.8967 170.386 33.2845 171.181V171.189Z" fill="#455A64"/>
<path d="M67.6279 188.217C68.7116 188.763 69.9045 189.051 71.1208 189.051C72.337 189.051 73.5299 188.763 74.6136 188.217C76.555 187.102 76.555 185.309 74.6136 184.171C73.5299 183.625 72.337 183.336 71.1208 183.336C69.9045 183.336 68.7116 183.625 67.6279 184.171C65.6865 185.309 65.6865 187.11 67.6279 188.217Z" fill="#263238"/>
<path d="M98.019 207.872L34.4768 171.189C33.2293 170.464 33.1046 169.349 34.087 168.546C33.4632 169.037 32.9565 169.653 32.59 170.355C32.2236 171.056 32.0053 171.828 31.9585 172.616V174.986C32.0053 175.859 32.2626 176.709 32.6992 177.465C33.1358 178.221 33.7439 178.868 34.4846 179.352L98.0268 216.027C98.8065 216.432 99.6719 216.635 100.545 216.612V208.464C99.6641 208.48 98.7987 208.269 98.0268 207.856L98.019 207.872Z" fill="#37474F"/>
<path d="M241.095 135.684C241.827 135.208 242.443 134.561 242.88 133.805C243.317 133.048 243.574 132.199 243.621 131.318V128.947C243.574 128.152 243.356 127.38 242.989 126.679C242.623 125.977 242.108 125.361 241.484 124.87C242.475 125.673 242.35 126.796 241.102 127.505L101.871 207.865C101.091 208.27 100.226 208.473 99.3525 208.449V216.643C100.226 216.667 101.099 216.464 101.871 216.059L241.095 135.684Z" fill="#263238"/>
<path d="M107.297 200.27L46.4758 165.139C45.6337 164.656 45.6337 163.868 46.4758 163.392L164.041 95.4998C164.508 95.2659 165.031 95.1411 165.553 95.1411C166.075 95.1411 166.598 95.2659 167.066 95.4998L227.91 130.623C228.744 131.107 228.744 131.886 227.91 132.37L110.299 200.27C109.831 200.504 109.316 200.629 108.794 200.629C108.272 200.629 107.757 200.504 107.289 200.27H107.297Z" fill="white"/>
<path d="M82.7925 180.654L89.8874 176.553L87.5251 175.189L80.4302 179.282L82.7925 180.646V180.654Z" fill="#009688"/>
<path d="M167.931 131.496L175.026 127.395L172.655 126.031L165.568 130.132L167.931 131.496Z" fill="#009688"/>
<path d="M182.128 123.303L189.223 119.202L186.861 117.837L179.766 121.93L182.128 123.295V123.303Z" fill="#009688"/>
<path d="M204.903 108.949C205.176 109.089 205.488 109.159 205.792 109.159C206.096 109.159 206.4 109.089 206.681 108.949C206.79 108.91 206.883 108.847 206.946 108.754C207.008 108.66 207.047 108.551 207.047 108.442C207.047 108.333 207.008 108.216 206.946 108.13C206.883 108.037 206.79 107.966 206.681 107.935C206.408 107.795 206.104 107.725 205.792 107.725C205.48 107.725 205.176 107.795 204.903 107.935C204.802 107.974 204.708 108.037 204.638 108.13C204.576 108.224 204.537 108.333 204.537 108.442C204.537 108.551 204.568 108.668 204.638 108.754C204.708 108.84 204.794 108.91 204.903 108.949Z" fill="#263238"/>
<path d="M207.741 116.995C208.286 117.276 208.895 117.416 209.518 117.416C210.142 117.416 210.742 117.268 211.288 116.995C212.263 116.41 212.263 115.514 211.288 114.944C210.742 114.664 210.134 114.523 209.518 114.523C208.902 114.523 208.294 114.672 207.741 114.944C206.766 115.514 206.766 116.426 207.741 116.995Z" fill="#263238"/>
<path d="M205.231 113.432C205.886 113.05 205.847 112.426 205.153 112.021L193.505 105.284C193.131 105.082 192.717 104.973 192.289 104.965C191.86 104.965 191.446 105.05 191.057 105.238C190.402 105.62 190.441 106.243 191.135 106.649L202.814 113.385C203.18 113.58 203.594 113.689 204.015 113.689C204.436 113.697 204.849 113.603 205.223 113.424L205.231 113.432Z" fill="#263238"/>
<path d="M185.357 86.1123L185.755 85.8784C185.482 86.8686 185.349 87.8977 185.357 88.9269V90.3458C185.357 95.4448 191.477 108.473 193.731 113.088C193.965 113.572 190.869 116.862 190.869 116.862L194.542 114.741C194.542 114.741 203.726 107.171 203.726 100.957V99.538C203.726 93.293 199.617 85.855 194.542 82.9313C191.984 81.4577 189.669 81.4032 188.008 82.5259L184.515 84.5296L185.357 86.1201V86.1123ZM189.949 90.876C189.949 87.9679 192 86.7594 194.542 88.2252C194.331 90.1042 197.769 95.9672 199.134 96.1777C199.134 99.0858 197.075 100.294 194.542 98.8285C193.208 97.9553 192.101 96.778 191.306 95.398C190.511 94.018 190.051 92.4665 189.973 90.876H189.949Z" fill="#009688"/>
<path d="M181.576 92.6227C181.677 98.8678 191.158 116.862 191.158 116.862C191.158 116.862 200.217 109.167 200.116 102.922V101.503C200.015 95.2658 195.773 87.8902 190.651 85.0522C185.528 82.2143 181.466 84.9587 181.568 91.2037V92.6227H181.576ZM186.176 93.0749C186.129 90.1668 188.164 88.9271 190.721 90.3461C192.07 91.1959 193.2 92.3498 194.027 93.722C194.845 95.0864 195.337 96.6302 195.446 98.2285C195.5 101.137 193.458 102.376 190.9 100.957C189.551 100.107 188.421 98.9536 187.602 97.5814C186.784 96.2169 186.293 94.6732 186.183 93.0749H186.176Z" fill="#009688"/>
<path opacity="0.1" d="M181.576 92.6227C181.677 98.8678 191.158 116.862 191.158 116.862C191.158 116.862 200.217 109.167 200.116 102.922V101.503C200.015 95.2658 195.773 87.8902 190.651 85.0522C185.528 82.2143 181.466 84.9587 181.568 91.2037V92.6227H181.576ZM186.176 93.0749C186.129 90.1668 188.164 88.9271 190.721 90.3461C192.07 91.1959 193.2 92.3498 194.027 93.722C194.845 95.0864 195.337 96.6302 195.446 98.2285C195.5 101.137 193.458 102.376 190.9 100.957C189.551 100.107 188.421 98.9536 187.602 97.5814C186.784 96.2169 186.293 94.6732 186.183 93.0749H186.176Z" fill="black"/>
<path d="M92.78 175.867C98.6664 179.258 112.466 176.795 123.6 170.355L154.194 152.695C165.335 146.263 169.584 138.311 163.682 134.927C157.78 131.543 143.972 134.015 132.823 140.447L102.284 158.083C91.1505 164.515 86.8936 172.499 92.7722 175.867H92.78Z" fill="#F0F0F0"/>
<path d="M181.864 27.8253H181.895L186.932 24.9171H186.971C190.144 23.311 194.385 23.7554 198.946 26.7182C208.123 32.6202 215.124 46.2486 214.594 57.1404C214.329 62.5747 212.263 66.3014 209.082 67.9387H209.051L204.006 70.8469H203.967C200.794 72.4607 196.553 72.0085 191.976 69.0458C182.807 63.136 175.798 49.5154 176.336 38.6235C176.617 33.1893 178.706 29.4625 181.856 27.8175L181.864 27.8253Z" fill="#37474F"/>
<path d="M204.271 70.699L209.073 67.9078H209.104C212.262 66.2627 214.344 62.536 214.617 57.1095C214.85 52.2523 213.587 46.857 211.303 41.8438L206.259 44.7519C208.551 49.7651 209.814 55.1604 209.572 60.0255C209.323 65.3271 207.319 69.0071 204.271 70.699Z" fill="#263238"/>
<path d="M192.015 69.0457C182.846 63.1359 175.837 49.5153 176.367 38.6234C176.897 27.7316 184.772 23.6852 193.925 29.5872C203.078 35.4892 210.103 49.1176 209.573 60.0095C209.043 70.9013 201.176 74.9477 192.007 69.0457H192.015Z" fill="#455A64"/>
<path d="M199.694 68.2817C205.105 68.5468 205.986 62.4576 206.095 59.838C206.563 50.2326 200.123 37.7113 192.038 32.5031C190.315 31.2947 188.311 30.554 186.214 30.3513C180.811 30.0862 179.93 36.1753 179.813 38.795C179.345 48.4004 185.777 60.9217 193.87 66.161C195.593 67.3695 197.597 68.1102 199.694 68.3129V68.2817Z" fill="#FAFAFA"/>
<path d="M191.914 51.1215C191.976 51.1215 192.038 51.1137 192.101 51.0903C192.226 51.0513 192.327 50.9733 192.397 50.8642C192.467 50.7628 192.506 50.6303 192.498 50.5055V36.6354C192.498 36.4795 192.436 36.3313 192.327 36.2222C192.218 36.113 192.07 36.0507 191.914 36.0507C191.758 36.0507 191.61 36.113 191.5 36.2222C191.391 36.3313 191.329 36.4795 191.329 36.6354V48.8215L184.85 40.4947C184.756 40.37 184.616 40.292 184.46 40.2686C184.304 40.253 184.148 40.292 184.024 40.3934C183.899 40.4869 183.821 40.6273 183.797 40.7832C183.774 40.9391 183.821 41.0951 183.914 41.2198L191.454 50.9032C191.508 50.9733 191.578 51.0279 191.649 51.0669C191.727 51.1059 191.812 51.1293 191.898 51.1293L191.914 51.1215Z" fill="#37474F"/>
<path d="M195.25 61.3817C195.25 61.3817 195.304 61.3817 195.335 61.3817C195.398 61.3661 195.452 61.3193 195.484 61.2647C195.515 61.2101 195.523 61.14 195.507 61.0776L192.24 50.0766C192.225 50.0142 192.178 49.9596 192.123 49.9285C192.069 49.8973 191.999 49.8895 191.936 49.9051C191.874 49.9207 191.819 49.9674 191.788 50.022C191.757 50.0766 191.749 50.1468 191.765 50.2091L195.024 61.2101C195.039 61.2569 195.07 61.2959 195.109 61.3271C195.148 61.3583 195.195 61.3739 195.25 61.3739V61.3817Z" fill="#009688"/>
<path d="M192.101 47.7455C191.017 47.0516 190.089 47.5272 190.035 48.8136C190.035 49.5153 190.206 50.2014 190.526 50.8251C190.846 51.4489 191.306 51.9868 191.875 52.3923C192.951 53.0939 193.878 52.6106 193.941 51.3319C193.941 50.638 193.769 49.9441 193.45 49.3204C193.13 48.6967 192.67 48.1587 192.101 47.7533V47.7455Z" fill="#009688"/>
<path d="M96.9825 172.46L104.077 168.359L101.715 166.994L94.6201 171.087L96.9825 172.452V172.46Z" fill="#009688"/>
<path d="M111.172 164.273L118.267 160.172L115.897 158.808L108.802 162.901L111.165 164.265L111.172 164.273Z" fill="#009688"/>
<path d="M108.256 162.597C108.256 166.02 105.855 170.168 102.892 171.914C101.317 172.826 99.8903 172.857 98.9157 172.171C98.5181 171.86 98.1984 171.47 97.9645 171.025C97.7306 170.581 97.5981 170.09 97.5669 169.591C97.7696 169.497 97.9567 169.396 98.1516 169.287C101.114 167.579 103.516 163.416 103.516 159.97C103.516 159.712 103.5 159.463 103.469 159.206C103.913 158.972 104.405 158.831 104.903 158.792C105.402 158.761 105.909 158.824 106.385 158.995C107.547 159.486 108.256 160.749 108.256 162.597Z" fill="#263238"/>
<path d="M108.74 155.565L108.638 155.502C107.149 154.715 105.146 154.855 102.892 156.149C98.3235 158.785 94.6123 165.201 94.6123 170.487C94.6123 173.138 95.5479 175.001 97.0604 175.859C98.573 176.724 100.616 176.576 102.884 175.274C107.453 172.639 111.157 166.215 111.157 160.936C111.157 158.278 110.244 156.422 108.732 155.565H108.74ZM102.916 171.898C101.333 172.811 99.914 172.842 98.9316 172.148C98.0662 171.563 97.5438 170.401 97.5438 168.803C97.5438 165.388 99.9452 161.233 102.916 159.486C104.264 158.707 105.496 158.574 106.409 158.972C107.539 159.455 108.249 160.718 108.249 162.581C108.249 166.028 105.855 170.191 102.892 171.906H102.916V171.898Z" fill="#37474F"/>
<path d="M106.681 159.135L106.619 159.104C105.652 158.582 104.342 158.683 102.892 159.517C99.9292 161.233 97.52 165.396 97.52 168.834C97.52 170.581 98.1048 171.743 99.1105 172.327C100.116 172.912 101.442 172.795 102.892 171.945C105.855 170.238 108.256 166.074 108.256 162.628C108.256 160.905 107.656 159.697 106.681 159.143V159.135ZM102.892 170.69C101.621 171.423 100.483 171.446 99.6875 170.885C99.0014 170.402 98.5726 169.474 98.5726 168.195C98.6505 166.698 99.0871 165.24 99.8356 163.946C100.584 162.644 101.629 161.545 102.884 160.726C103.289 160.437 103.757 160.25 104.256 160.18C104.747 160.11 105.254 160.149 105.722 160.305C106.634 160.695 107.203 161.708 107.203 163.213C107.125 164.71 106.689 166.168 105.94 167.462C105.192 168.756 104.147 169.864 102.892 170.674V170.69Z" fill="#009688"/>
<path d="M125.362 156.072L132.457 151.978L130.094 150.614L123 154.715L125.362 156.079V156.072Z" fill="#009688"/>
<path d="M139.56 147.877L146.647 143.784L144.285 142.42L137.19 146.521L139.56 147.885V147.877Z" fill="#009688"/>
<path d="M153.75 139.691L160.844 135.598L158.482 134.233L151.387 138.334L153.757 139.699L153.75 139.691Z" fill="#009688"/>
<path d="M118.431 101.597C118.509 101.495 118.61 101.425 118.727 101.386C118.844 101.347 118.969 101.355 119.086 101.386C119.203 101.425 119.304 101.503 119.374 101.605C119.444 101.706 119.483 101.831 119.476 101.955C119.522 102.283 119.483 102.626 119.374 102.938C119.265 103.257 119.078 103.538 118.836 103.772C118.368 104.177 117.901 104.014 117.791 103.406C117.745 103.078 117.784 102.735 117.893 102.423C118.002 102.104 118.189 101.823 118.431 101.589V101.597Z" fill="#009688"/>
<path d="M123.896 104.169L119.148 101.425L118.103 103.935L122.867 106.688L123.888 104.169H123.896Z" fill="#009688"/>
<path d="M123.171 104.325C123.639 103.928 124.099 104.091 124.216 104.699C124.255 105.027 124.216 105.362 124.114 105.682C124.005 105.994 123.818 106.282 123.576 106.508C123.108 106.906 122.641 106.75 122.531 106.142C122.492 105.814 122.531 105.471 122.633 105.159C122.742 104.848 122.929 104.559 123.171 104.325Z" fill="#009688"/>
<path d="M159.644 127.287V128.331C158.701 127.934 157.469 128.066 156.12 128.846C153.157 130.561 150.748 134.725 150.748 138.163C150.748 139.761 151.27 140.907 152.136 141.508C151.894 141.679 151.645 141.843 151.387 141.983L151.115 142.124L150.288 145.219L145.54 142.568C144.035 141.703 143.115 139.847 143.115 137.204C143.115 131.926 146.819 125.509 151.387 122.866C153.648 121.564 155.691 121.424 157.211 122.281L161.866 124.893L161.967 124.955L159.644 127.287Z" fill="#455A64"/>
<path d="M161.959 124.901L161.858 124.838C160.368 124.051 158.365 124.191 156.112 125.485C151.543 128.121 147.832 134.537 147.832 139.823C147.832 142.474 148.767 144.338 150.28 145.195C151.792 146.061 153.835 145.913 156.104 144.611C160.673 141.975 164.376 135.551 164.376 130.273C164.392 127.614 163.456 125.758 161.951 124.901H161.959ZM156.135 141.235C154.552 142.147 153.133 142.178 152.151 141.484C151.285 140.899 150.763 139.738 150.763 138.139C150.763 134.724 153.172 130.569 156.127 128.822C157.476 128.043 158.708 127.91 159.651 128.308C160.782 128.791 161.491 130.054 161.491 131.918C161.483 135.364 159.066 139.527 156.104 141.235H156.127H156.135Z" fill="#37474F"/>
<path d="M161.484 131.949C161.484 135.372 159.082 139.519 156.12 141.266C154.545 142.178 153.118 142.209 152.143 141.523C151.746 141.211 151.426 140.822 151.192 140.377C150.958 139.933 150.826 139.442 150.794 138.943C150.997 138.849 151.192 138.748 151.379 138.631C154.342 136.923 156.743 132.76 156.743 129.314C156.743 129.064 156.735 128.807 156.696 128.55C157.141 128.316 157.632 128.175 158.131 128.136C158.63 128.097 159.137 128.168 159.612 128.339C160.766 128.83 161.484 130.078 161.484 131.941V131.949Z" fill="#263238"/>
<path d="M159.901 128.471L159.838 128.432C158.872 127.918 157.554 128.011 156.112 128.853C153.149 130.569 150.748 134.724 150.748 138.17C150.748 139.917 151.332 141.079 152.338 141.663C153.344 142.248 154.669 142.123 156.119 141.273C159.082 139.566 161.483 135.403 161.483 131.957C161.491 130.241 160.914 129.033 159.909 128.471H159.901ZM156.112 140.026C154.841 140.767 153.695 140.79 152.907 140.229C152.213 139.745 151.792 138.818 151.792 137.539C151.878 136.042 152.307 134.584 153.055 133.29C153.804 131.996 154.849 130.888 156.104 130.07C157.188 129.438 158.178 129.329 158.934 129.657C159.838 130.046 160.415 131.06 160.415 132.565C160.33 134.062 159.901 135.512 159.152 136.814C158.404 138.108 157.359 139.207 156.104 140.026H156.112Z" fill="#009688"/>
<path d="M151.38 133.687L164.767 125.953C166.319 125.049 161.274 119.778 157.516 119.427C155.45 119.178 153.353 119.381 151.365 120.012C151.365 120.012 154.226 123.676 153.735 125.75C153.244 127.824 151.373 133.687 151.373 133.687H151.38Z" fill="#009688"/>
<path d="M132.457 111.834C132.457 111.834 151.87 121.626 152.705 122.211C153.539 122.796 152.705 129.626 151.371 133.68C150.038 137.734 147.988 143.963 147.169 145.71C146.35 147.456 145.274 148.111 143.31 149.242L129.338 157.319L110.424 159.627L102.916 155.549L104.872 143.254C104.872 143.254 124.98 132.557 127.732 130.967C130.484 129.376 138.632 121.915 132.465 111.826L132.457 111.834Z" fill="#009688"/>
<path opacity="0.2" d="M132.457 111.834C132.457 111.834 151.87 121.626 152.705 122.211C153.539 122.796 152.705 129.626 151.371 133.68C150.038 137.734 147.988 143.963 147.169 145.71C146.35 147.456 145.274 148.111 143.31 149.242L129.338 157.319L110.424 159.627L102.916 155.549L104.872 143.254C104.872 143.254 124.98 132.557 127.732 130.967C130.484 129.376 138.632 121.915 132.465 111.826L132.457 111.834Z" fill="black"/>
<path d="M153.086 131.349C154.833 126.655 156.135 122.764 155.916 120.145C155.651 117.026 154.482 114.484 149.352 113.206C144.214 111.927 137.041 111.951 137.041 111.951L134.858 113.214C134.858 113.214 149.625 121.774 151.301 122.702C152.322 123.287 153.422 125.852 151.41 133.695L151.753 133.89C151.925 133.992 152.533 132.861 153.094 131.349H153.086Z" fill="#009688"/>
<path opacity="0.3" d="M153.086 131.349C154.833 126.655 156.135 122.764 155.916 120.145C155.651 117.026 154.482 114.484 149.352 113.206C144.214 111.927 137.041 111.951 137.041 111.951L134.858 113.214C134.858 113.214 149.625 121.774 151.301 122.702C152.322 123.287 153.422 125.852 151.41 133.695L151.753 133.89C151.925 133.992 152.533 132.861 153.094 131.349H153.086Z" fill="white"/>
<path d="M141.898 117.299L144.284 115.935C144.284 115.935 144.144 107.662 140.659 105.651C137.174 103.639 125.362 105.012 125.362 105.012L123 106.376L141.898 117.299Z" fill="#009688"/>
<path d="M134.157 107.546C133.019 108.201 133.019 109.261 134.157 109.916C134.796 110.243 135.498 110.407 136.215 110.407C136.933 110.407 137.634 110.235 138.274 109.916C139.404 109.261 139.404 108.201 138.274 107.546C137.634 107.226 136.933 107.054 136.215 107.054C135.498 107.054 134.796 107.226 134.157 107.546Z" fill="#F0F0F0"/>
<path d="M137.789 111.498C136.994 111.966 136.994 112.715 137.789 113.175C138.242 113.409 138.741 113.525 139.247 113.525C139.754 113.525 140.253 113.401 140.705 113.175C141.508 112.715 141.508 111.966 140.705 111.498C140.253 111.272 139.754 111.155 139.247 111.155C138.741 111.155 138.242 111.28 137.789 111.498Z" fill="#F0F0F0"/>
<path d="M128.644 106.493C127.841 106.953 127.841 107.701 128.644 108.169C129.096 108.395 129.595 108.512 130.102 108.512C130.609 108.512 131.108 108.395 131.56 108.169C132.363 107.701 132.363 106.953 131.56 106.493C131.108 106.259 130.609 106.142 130.102 106.142C129.595 106.142 129.096 106.259 128.644 106.493Z" fill="#F0F0F0"/>
<path d="M142.273 114.898C142.74 114.5 143.208 114.656 143.325 115.264C143.372 115.591 143.325 115.934 143.224 116.246C143.115 116.566 142.927 116.847 142.686 117.081C142.608 117.182 142.506 117.252 142.39 117.291C142.273 117.322 142.14 117.322 142.031 117.283C141.914 117.244 141.813 117.166 141.742 117.065C141.672 116.964 141.641 116.839 141.641 116.714C141.594 116.387 141.633 116.044 141.742 115.732C141.852 115.42 142.039 115.131 142.28 114.905L142.273 114.898Z" fill="#009688"/>
<path d="M147.707 117.47L142.959 114.726L141.922 117.237L146.678 119.981L147.707 117.47Z" fill="#009688"/>
<path d="M146.966 117.627C147.036 117.525 147.145 117.455 147.262 117.416C147.379 117.377 147.504 117.385 147.621 117.416C147.738 117.455 147.839 117.533 147.909 117.634C147.979 117.736 148.011 117.861 148.011 117.978C148.057 118.313 148.018 118.648 147.909 118.96C147.8 119.28 147.613 119.56 147.371 119.794C146.904 120.192 146.436 120.028 146.319 119.428C146.272 119.1 146.311 118.757 146.42 118.445C146.529 118.133 146.716 117.845 146.958 117.611L146.966 117.627Z" fill="#009688"/>
<path d="M146.966 117.627C147.036 117.525 147.145 117.455 147.262 117.416C147.379 117.377 147.504 117.385 147.621 117.416C147.738 117.455 147.839 117.533 147.909 117.634C147.979 117.736 148.011 117.861 148.011 117.978C148.057 118.313 148.018 118.648 147.909 118.96C147.8 119.28 147.613 119.56 147.371 119.794C146.904 120.192 146.436 120.028 146.319 119.428C146.272 119.1 146.311 118.757 146.42 118.445C146.529 118.133 146.716 117.845 146.958 117.611L146.966 117.627Z" fill="black"/>
<path d="M106.423 157.942V158.987C105.48 158.59 104.248 158.722 102.931 159.502C99.9678 161.217 97.5587 165.38 97.5587 168.819C97.5587 170.409 98.081 171.563 98.9465 172.163C98.7048 172.335 98.4553 172.491 98.198 172.639L97.9251 172.779L97.1065 175.875L92.3583 173.224C90.8536 172.358 89.9336 170.503 89.9336 167.86C89.9336 162.581 93.637 156.165 98.2058 153.522C100.467 152.22 102.509 152.087 104.03 152.937L108.684 155.549L108.786 155.611L106.431 157.942H106.423Z" fill="#455A64"/>
<path d="M92.2496 148.704L88.7021 160.999L95.797 165.1L99.4692 152.883L92.2418 148.711L92.2496 148.704Z" fill="#009688"/>
<path opacity="0.2" d="M92.2496 148.704L88.7021 160.999L95.797 165.1L99.4692 152.883L92.2418 148.711L92.2496 148.704Z" fill="black"/>
<path d="M92.2505 148.703C92.2505 148.703 96.2735 152.118 99.4779 152.875C103.68 153.896 110.362 154.005 112.732 154.169C116.358 154.418 119.086 154.411 120.373 153.951C122.033 153.366 126.493 150.777 127.725 150.068C130.087 148.703 131.093 143.347 124.583 141.874C120.178 140.961 115.687 140.501 111.188 140.509L92.2505 148.703Z" fill="#009688"/>
<path d="M132.371 147.129C132.169 147.636 132.028 148.166 131.966 148.704C131.779 149.265 131.732 149.865 131.841 150.45C132.286 151.183 132.987 151.729 133.806 151.978C134.398 152.111 135.007 152.119 135.599 152.002C136.192 151.885 136.753 151.651 137.26 151.308C138.461 150.583 139.373 149.709 141.088 149.218C142.312 148.961 143.466 148.439 144.464 147.69C145.415 146.926 146.686 144.821 144.862 144.33C143.045 143.839 139.1 145.569 135.498 145.725L132.379 147.121L132.371 147.129Z" fill="#37474F"/>
<path d="M132.371 144.883V147.573C132.48 147.877 132.675 148.142 132.925 148.345C133.174 148.548 133.478 148.672 133.798 148.711C134.094 148.75 134.39 148.719 134.663 148.618C135.1 148.454 135.474 148.158 135.747 147.784C136.02 147.401 136.176 146.957 136.199 146.489L136.301 144.891H132.363L132.371 144.883Z" fill="#FFA8A7"/>
<path d="M137.494 128.245C137.494 131.59 136.55 146.068 136.55 146.068C136.55 146.068 135.186 147.815 132.207 146.068L131.209 129.89L137.494 128.245Z" fill="#37474F"/>
<path d="M121.892 142.513L131.209 137.141C131.591 136.939 131.91 136.642 132.136 136.268C132.363 135.902 132.479 135.481 132.479 135.044C132.479 134.607 132.363 134.186 132.136 133.82C131.91 133.453 131.591 133.149 131.209 132.947L124.27 128.939C123.88 128.744 123.443 128.635 123.007 128.635C122.57 128.635 122.133 128.736 121.744 128.939L112.427 134.311C112.045 134.514 111.725 134.81 111.507 135.184C111.288 135.551 111.171 135.972 111.171 136.408C111.171 136.845 111.288 137.258 111.507 137.625C111.725 137.991 112.045 138.295 112.427 138.498L119.366 142.505C119.755 142.7 120.184 142.809 120.629 142.809C121.073 142.809 121.502 142.708 121.892 142.505V142.513Z" fill="#009688"/>
<path d="M121.892 142.513L131.209 137.141C131.591 136.939 131.91 136.642 132.136 136.268C132.363 135.902 132.479 135.481 132.479 135.044C132.479 134.607 132.363 134.186 132.136 133.82C131.91 133.453 131.591 133.149 131.209 132.947L124.27 128.939C123.88 128.744 123.443 128.635 123.007 128.635C122.57 128.635 122.133 128.736 121.744 128.939L112.427 134.311C112.045 134.514 111.725 134.81 111.507 135.184C111.288 135.551 111.171 135.972 111.171 136.408C111.171 136.845 111.288 137.258 111.507 137.625C111.725 137.991 112.045 138.295 112.427 138.498L119.366 142.505C119.755 142.7 120.184 142.809 120.629 142.809C121.073 142.809 121.502 142.708 121.892 142.505V142.513Z" fill="white"/>
<path d="M112.435 135.777L119.374 139.784C119.764 139.979 120.193 140.088 120.637 140.088C121.081 140.088 121.51 139.987 121.9 139.784L131.217 134.412C131.373 134.366 131.498 134.264 131.591 134.132C131.685 133.999 131.732 133.843 131.732 133.68C131.732 133.516 131.685 133.36 131.591 133.235C131.498 133.103 131.365 133.009 131.217 132.955L124.278 128.947C123.888 128.752 123.452 128.643 123.015 128.643C122.578 128.643 122.142 128.744 121.752 128.947L112.435 134.319C112.279 134.366 112.154 134.467 112.061 134.6C111.967 134.732 111.92 134.888 111.92 135.052C111.92 135.216 111.967 135.371 112.061 135.496C112.154 135.629 112.287 135.722 112.435 135.777Z" fill="#009688"/>
<path d="M118.11 100.147L116.925 105.019L111.85 105.331L112.941 98.5717L118.102 100.147H118.11Z" fill="#FFA8A7"/>
<path d="M123.054 96.4742C123.054 96.4742 123.639 98.5325 123.397 98.6494C123.031 98.704 122.656 98.704 122.29 98.6494L123.054 96.4742Z" fill="#F28F8F"/>
<path d="M122.087 89.8939C122.906 90.8529 123.646 92.4278 123.07 96.2949C122.438 100.521 121.658 101.012 121.035 101.417C120.216 101.955 116.934 101.667 116.006 100.988C114.891 100.178 113.176 97.6125 112.77 95.0787C112.295 92.1004 113.285 88.8024 115.476 88.2411C118.555 87.4458 121.393 89.0753 122.087 89.8861V89.8939Z" fill="#FFA8A7"/>
<path d="M112.435 99.9358C113.223 100.754 114.837 100.973 115.85 101.16C116.864 101.347 119.974 101.55 120.894 99.3277C121.814 97.1057 121.183 95.5152 122.313 94.9772C123.444 94.4392 124.574 94.0962 124.871 93.8155C125.167 93.5348 125.175 89.886 122.142 87.9915C119.109 86.0969 114.462 85.6603 111.406 89.4962C109.09 92.4589 110.042 97.4253 112.435 99.928V99.9358Z" fill="#455A64"/>
<path d="M115.491 101.191C116.279 101.261 118.766 100.872 119.514 99.8424C120.263 98.8133 120.567 96.9811 120.676 96.0221C120.684 95.6478 120.824 95.2814 121.066 94.9929C121.307 94.7045 121.643 94.5095 122.017 94.4316C122.765 94.1977 124.426 93.379 124.426 93.379V92.9268C124.964 92.8956 125.494 92.8956 126.032 92.9268C126.383 92.9892 126.188 93.5116 125.307 93.956C124.418 94.4082 121.994 95.2736 121.619 95.5699C121.245 95.8661 121.074 97.1214 120.777 98.4546C120.481 99.7878 119.561 101.776 115.483 101.191H115.491Z" fill="#37474F"/>
<path d="M122.477 106.704L125.385 105.035C125.666 104.193 125.213 103.764 124.426 103.819C123.631 103.873 123.88 103.102 123.397 102.891C122.765 102.603 122.399 102.759 122.118 102.626C121.83 102.493 121.713 102.15 121.339 102.111C119.67 101.955 118.54 104.333 118.54 104.333L122.485 106.711L122.477 106.704Z" fill="#F28F8F"/>
<path d="M102.712 128.089C102.712 128.089 115.577 121.712 117.814 120.683C120.052 119.654 123.576 118.157 125.439 118.157C126.172 118.219 126.851 118.539 127.365 119.061C127.88 119.583 128.184 120.277 128.231 121.002C128.254 122.125 128.192 123.248 128.036 124.363C124.504 125.524 120.894 126.429 117.23 127.084C111.881 128.019 102.712 128.089 102.712 128.089Z" fill="#37474F"/>
<path d="M104.108 124.402C104.108 127.045 103.859 129.797 104.958 131.73C106.057 133.664 112.022 138.131 117.635 137.196C121.3 136.58 132.192 131.567 132.192 131.567C132.192 131.567 137.47 129.625 137.493 128.245C137.524 126.21 137.392 123.349 132.784 123.474C128.59 123.583 116.201 126.171 116.201 126.171L104.108 124.409V124.402Z" fill="#455A64"/>
<path d="M107.703 103.46C109.691 101.378 111.04 101.207 111.991 101.464C114.182 102.088 116.31 102.945 118.33 103.998C118.33 103.998 117.558 111.444 121.199 113.58V125.173C121.199 125.173 121.09 126.429 119.507 127.684C118.111 128.783 114.946 129.898 111.172 129.579C106.689 129.204 104.101 124.394 104.101 124.394C104.101 124.394 103.984 114.905 104.615 111.14C105.364 106.742 107.001 104.169 107.687 103.452L107.703 103.46Z" fill="#455A64"/>
<path d="M121.207 114.149C121.207 114.149 119.008 112.403 118.337 110.134C118.337 110.134 118.602 113.697 121.207 115.506V114.157V114.149Z" fill="#37474F"/>
<path d="M141.579 119.622C142.624 119.669 143.653 119.349 144.487 118.718C144.487 118.718 145.501 116.753 146.748 116.917C146.748 116.917 146.966 116.075 146.46 115.802C145.945 115.529 145.727 115.607 145.516 115.311C145.306 115.022 145.282 114.477 144.355 114.477C143.973 114.477 144.019 114.204 143.092 114.094C142.156 113.985 141.244 116.129 140.558 116.129L141.579 119.614V119.622Z" fill="#FFA8A7"/>
<path d="M118.338 103.998C121.534 104.489 122.696 105.44 123.858 106.516C125.019 107.592 132.146 114.742 132.146 114.742L140.776 115.981C141.229 116.348 141.564 116.847 141.735 117.4C142.086 118.414 141.767 119.521 141.439 119.786C141.439 119.786 132.878 120.301 131.202 119.981C129.526 119.661 121.191 114.134 121.191 114.134C120.396 113.533 119.726 112.777 119.227 111.912C118.728 111.046 118.408 110.095 118.283 109.105C117.745 105.596 118.353 103.998 118.353 103.998H118.338Z" fill="#455A64"/>
<path d="M110.665 134.756L97.4423 150.895C97.2942 150.91 97.146 150.926 96.9979 150.926C96.4755 150.934 95.9532 150.809 95.4932 150.567L84.3285 144.119L83.5722 143.683C83.159 143.449 82.8159 142.467 82.8159 141.5V138.779C82.8159 135.988 83.5488 133.243 84.9444 130.826C86.34 128.409 88.3515 126.398 90.7684 125.002L104.101 117.307L118.29 125.501L110.665 134.764V134.756Z" fill="#009688"/>
<g opacity="0.1">
<path d="M110.665 134.756L97.4423 150.895C97.2942 150.91 97.146 150.926 96.9979 150.926C96.4755 150.934 95.9532 150.809 95.4932 150.567L84.3285 144.119L83.5722 143.683C83.159 143.449 82.8159 142.466 82.8159 141.5V138.779C82.8159 135.988 83.5488 133.243 84.9444 130.826C86.34 128.409 88.3515 126.398 90.7684 125.002L104.101 117.307L118.29 125.501L110.665 134.763V134.756Z" fill="black"/>
</g>
<path d="M106.104 140.315L118.267 125.493L104.077 117.299L90.7526 124.994C89.0295 125.992 87.5092 127.302 86.2695 128.869L106.104 140.322V140.315Z" fill="#009688"/>
<path d="M118.267 137.399C118.267 138.366 117.931 139.34 117.51 139.582L116.754 140.018L98.4945 150.567C98.1592 150.747 97.8006 150.856 97.4263 150.895C97.2782 150.91 97.1301 150.926 96.9819 150.926V146.973C96.9819 144.182 97.7148 141.437 99.1104 139.013C100.506 136.596 102.518 134.584 104.934 133.189L106.439 132.323L118.259 125.493V137.399H118.267Z" fill="#009688"/>
<g opacity="0.2">
<path d="M118.267 137.399C118.267 138.366 117.931 139.34 117.51 139.582L116.754 140.018L98.4945 150.567C98.1592 150.747 97.8006 150.856 97.4263 150.895C97.2782 150.91 97.1301 150.926 96.9819 150.926V146.973C96.9819 144.182 97.7148 141.437 99.1104 139.013C100.506 136.596 102.518 134.584 104.934 133.189L106.439 132.323L118.259 125.493V137.399H118.267Z" fill="black"/>
</g>
<path d="M122.181 157.365L129.323 157.342L139.544 151.44L129.526 158.675L121.986 158.777L122.173 157.365H122.181Z" fill="#E0E0E0"/>
<path d="M104.842 167.532C104.842 167.532 117.722 162.675 118.813 162.106C120.099 161.319 121.316 160.43 122.454 159.447C122.688 159.143 122.797 158.753 122.758 158.371C122.719 157.989 122.548 157.631 122.259 157.373C122.259 157.373 117.02 157.132 115.671 157.545C114.923 157.771 102.799 161.662 102.799 161.662L104.834 167.532H104.842Z" fill="#E0E0E0"/>
<path d="M104.264 162.106C103.196 161.194 102.128 161.568 101.863 162.948C101.761 163.704 101.839 164.476 102.097 165.201C102.354 165.926 102.775 166.573 103.321 167.104C104.389 168.016 105.457 167.641 105.722 166.261C105.823 165.505 105.738 164.733 105.488 164.008C105.231 163.291 104.818 162.636 104.264 162.106Z" fill="#455A64"/>
</svg>
