<svg width="100" height="100" viewBox="0 0 100 100" fill="none" xmlns="http://www.w3.org/2000/svg">
<mask id="mask0_659_6609" style="mask-type:alpha" maskUnits="userSpaceOnUse" x="0" y="0" width="100" height="100">
<path d="M50 100C77.6142 100 100 77.6142 100 50C100 22.3858 77.6142 0 50 0C22.3858 0 0 22.3858 0 50C0 77.6142 22.3858 100 50 100Z" fill="#D9D9D9"/>
</mask>
<g mask="url(#mask0_659_6609)">
<g clip-path="url(#clip0_659_6609)">
<path d="M125 0H-25V100H125V0Z" fill="#CE1126"/>
<path d="M71 0H-25V100H71V0Z" fill="white"/>
<path d="M29 0H-25V100H29V0Z" fill="#002654"/>
</g>
<path d="M99.5 50C99.5 77.3381 77.3381 99.5 50 99.5C22.6619 99.5 0.5 77.3381 0.5 50C0.5 22.6619 22.6619 0.5 50 0.5C77.3381 0.5 99.5 22.6619 99.5 50Z" stroke="black"/>
</g>
<defs>
<clipPath id="clip0_659_6609">
<rect width="150" height="100" fill="white" transform="translate(-25)"/>
</clipPath>
</defs>
</svg>
