<svg width="100" height="100" viewBox="0 0 100 100" fill="none" xmlns="http://www.w3.org/2000/svg">
<g clip-path="url(#clip0_657_6108)">
<mask id="mask0_657_6108" style="mask-type:alpha" maskUnits="userSpaceOnUse" x="0" y="0" width="100" height="100">
<path d="M50 100C77.6142 100 100 77.6142 100 50C100 22.3858 77.6142 0 50 0C22.3858 0 0 22.3858 0 50C0 77.6142 22.3858 100 50 100Z" fill="#D9D9D9"/>
</mask>
<g mask="url(#mask0_657_6108)">
<path d="M156 0H0V104H156V0Z" fill="#0D5EAF"/>
<path d="M28.8889 0V63.5556M0 28.8889H57.7778M57.7778 17.3333H156M57.7778 40.4444H156M0 63.5556H156M0 86.6667H156" stroke="white" stroke-width="10"/>
</g>
<path d="M99.5 50C99.5 77.3381 77.3381 99.5 50 99.5C22.6619 99.5 0.5 77.3381 0.5 50C0.5 22.6619 22.6619 0.5 50 0.5C77.3381 0.5 99.5 22.6619 99.5 50Z" stroke="black"/>
</g>
<defs>
<clipPath id="clip0_657_6108">
<rect width="100" height="100" fill="white"/>
</clipPath>
</defs>
</svg>
