<svg width="64" height="43" viewBox="0 0 64 43" fill="none" xmlns="http://www.w3.org/2000/svg">
<path d="M24.9057 19.1386C25.4159 18.7423 26.0494 18.6307 26.6157 18.4018C27.1315 18.1172 27.2998 17.5478 27.1316 16.9785C27.0755 16.7496 26.9578 16.5822 26.7335 16.5208C25.8757 16.2919 25.1356 16.7496 24.2777 16.6324C24.1039 16.5766 23.9357 16.4594 23.9357 16.2919C24.0478 15.6668 24.2216 15.0416 24.4515 14.4165C25.7635 11.2349 27.3054 8.22074 28.6735 5.10055C28.9594 4.30794 29.5313 3.50975 29.2454 2.65575C29.0155 1.85756 27.9334 2.08641 27.3054 2.31526C26.5597 2.65575 25.9317 3.10787 25.2477 3.50417C24.8496 3.73302 24.3338 3.6158 23.9357 3.84466C22.7358 4.69866 22.2816 6.00479 21.7097 7.19928C21.0257 8.50541 20.566 9.81153 19.9941 11.1177C19.0241 13.395 17.8859 15.5496 16.8542 17.8213L11.3034 19.0661C11.3034 19.0661 15.2507 9.86177 16.9047 5.1452C16.9607 4.91635 16.9046 4.57586 16.7308 4.40841C16.1029 3.89489 15.245 4.17956 14.561 4.40841C13.305 7.30533 12.094 10.1688 10.7932 13.1048C9.93535 15.036 9.43634 15.957 8.69624 17.9497C8.5841 18.2344 8.05143 19.8698 8.05143 19.8698C4.84992 21.042 3.21832 21.4718 0.68402 22.2532C0.515814 22.99 0.112137 23.6152 0 24.3575C0.627968 24.4134 1.36806 24.3575 1.88389 24.5864C2.28198 24.7594 2.05775 25.4404 2.3437 25.7809C2.97166 26.2944 3.77342 26.4619 4.28364 27.1428C4.56959 27.4833 4.62565 27.9354 4.62565 28.3931C4.56959 29.6434 3.94166 30.7765 3.54357 32.0268C3.02774 33.6455 2.47262 35.2587 1.88951 36.855C1.71569 37.3127 2.00166 37.8207 2.11941 38.2784C2.29322 38.5631 2.63525 38.7305 2.97727 38.5072C3.26322 38.2784 3.43703 37.9379 3.60524 37.6532C4.17714 36.5146 4.57518 35.3815 5.03494 34.2428C6.00493 31.6305 6.80672 29.0127 7.7767 26.4005C9.71667 26.0042 11.6006 25.4348 13.6022 25.4348C13.7144 25.4348 13.6583 25.7195 13.6583 25.8925C12.6883 29.8723 11.3203 33.3386 10.4064 37.2569C10.2942 37.5974 10.1764 38.0495 10.3502 38.2226C11.4324 39.2998 12.3463 40.3827 13.2042 41.6888C13.2602 41.7446 13.378 41.8005 13.4901 41.8005C13.8882 41.8563 14.348 41.8563 14.69 41.8563C15.1498 41.8005 15.2058 41.1139 15.374 40.7176C16.9159 37.1397 17.8298 33.5004 18.968 29.8053C19.366 28.6108 19.7642 27.4777 20.1118 26.2274C20.3977 25.0887 20.6837 24.0115 21.1379 22.9342C21.3117 22.5937 21.5976 22.3649 21.878 22.136C22.8423 21.0476 23.7002 19.9703 24.9001 19.1163L24.9057 19.1386ZM62.6341 0.780283C61.9501 -0.241175 60.4643 -0.0123239 59.6065 0.607249C57.3245 2.31526 56.8647 5.03915 55.7826 7.42813C55.4966 7.99747 55.1546 8.50541 54.9247 9.01893C52.239 14.5895 50.1309 20.1601 47.5013 25.7251C46.9125 26.8972 46.5033 28.142 46.0155 29.5318C45.9594 29.5876 45.9033 29.5876 45.8416 29.6434C45.6678 29.303 45.1576 29.0741 45.2137 28.6778C45.4996 23.8496 46.1837 19.1889 46.8116 14.2992C46.9854 13.1606 47.1536 12.1391 47.3835 11.006C47.6134 9.64408 47.9554 8.50541 48.2414 7.14346C48.4713 6.17782 48.5273 5.268 48.5834 4.30236C48.5834 3.33672 48.6395 2.25386 48.2414 1.34404C47.9554 0.663066 47.3835 -0.19094 46.4696 0.0379117C46.1276 0.149546 45.8417 0.434215 45.4996 0.551431C44.5296 0.780283 43.2176 0.495614 42.7579 1.51707C39.2199 9.92875 36.4894 18.4242 33.9663 27.2042C33.6243 28.3987 33.1701 29.476 32.9963 30.7263C32.8225 31.865 32.5366 32.8864 32.3123 34.0251C32.0824 35.3312 31.5722 36.5257 31.4544 37.8318C31.3423 38.5128 31.3423 39.138 31.3928 39.8189C31.6058 40.4441 32.8337 39.7352 33.2206 39.1938C33.3944 37.9435 33.6803 36.749 33.9663 35.4429C34.4821 32.7692 35.2783 30.33 36.0745 27.7736C37.2743 23.9612 38.6481 20.2103 40.1843 16.5208C40.2965 16.1803 40.3582 15.7226 40.7563 15.4435C40.7563 17.9441 40.2965 20.3889 40.2404 22.8895C40.1843 26.6963 40.0105 30.4472 40.0105 34.254C40.0105 34.6503 40.4086 34.8791 40.6945 35.1638C41.8383 36.0736 42.9373 36.8885 43.5877 38.1947C43.711 38.4458 44.1203 38.0049 44.3502 37.7816C44.9221 37.1565 45.3763 36.4197 45.6623 35.6773C46.2902 34.1981 46.8621 32.7804 47.4901 31.3012C49.5983 26.4172 51.712 21.5834 54.1678 16.8668C54.2239 16.9227 54.28 16.9785 54.28 17.0399C53.5399 24.4301 52.1101 31.5357 51.712 38.8645C51.712 39.2608 52.1718 39.5454 52.34 39.8859C52.7381 40.8516 53.1978 41.8172 54.1118 42.3307C54.7958 42.6712 55.7097 42.3865 55.9396 41.7056C56.0517 41.1921 56.0517 40.6283 56.1134 40.059C56.2255 39.4896 56.3994 38.9203 56.4554 38.3509C56.6853 36.8718 56.9712 35.5098 57.2516 33.9749C57.6497 31.5915 58.0477 29.4258 58.5075 27.0424C59.9933 19.2 61.4792 12.1559 62.9033 4.31352C63.1276 3.12461 63.3575 1.81849 62.6174 0.791446L62.6341 0.780283ZM29.5818 28.8285C28.7968 28.5662 28.0511 29.5374 27.5858 30.0509C27.2998 29.5374 27.0699 28.7448 27.4736 28.3429C28.2754 27.5447 28.5893 26.9251 28.2193 25.7306C27.8773 24.5362 26.3354 24.2515 25.2477 24.6534C24.4683 24.9213 24.1599 25.9818 24.2328 26.9419C24.2608 27.3326 24.3506 27.7122 24.502 28.008C24.6141 28.2368 24.7319 28.6331 24.9001 28.862C24.1656 29.0629 22.9825 30.4751 22.2593 31.9487C21.8892 32.7078 21.6424 33.4781 21.6424 34.1144C21.6424 35.3089 23.3245 36.1015 24.3281 35.7889C25.001 35.5768 25.472 35.108 26.0999 34.7675C26.6718 35.2196 27.0699 35.8447 27.7539 36.3025C27.8156 36.3025 27.9278 36.3025 27.9278 36.2466C28.1577 35.108 27.6418 33.9749 28.1576 33.0036C28.5557 32.3227 29.1837 31.865 29.6434 31.184C30.12 30.4695 30.3892 29.0629 29.5818 28.8285ZM25.7018 32.719C25.6457 33.1767 25.242 33.3441 24.7879 33.4558C24.558 33.5116 24.3281 33.3999 24.1599 33.1711C24.0254 32.9534 23.9917 32.6911 24.059 32.4455C24.1151 32.2389 24.2104 32.038 24.3281 31.8594C24.502 31.5747 24.9057 31.3849 25.2421 31.5189C25.814 31.7478 25.8139 32.2613 25.7018 32.7134V32.719ZM26.498 27.4331C26.2177 27.3605 26.0382 27.0703 25.9373 26.7688C25.8812 26.5958 25.8364 26.4228 25.8196 26.2442C25.7859 25.9539 26.0494 25.7083 26.3354 25.7306C26.6662 25.7586 27.1316 25.9595 27.0755 26.4116C27.0195 26.8079 26.9634 27.4889 26.5036 27.4331H26.498Z" fill="#CF4037"/>
</svg>
