<svg width="268" height="240" viewBox="0 0 268 240" fill="none" xmlns="http://www.w3.org/2000/svg">
<g clip-path="url(#clip0_163_14206)">
<path opacity="0.83" d="M222.065 64.9274L187.595 31.7576C186.425 30.6309 184.85 30 183.185 30H172.79C169.73 30 167.075 32.2083 166.535 35.2278C166.535 35.4081 166.49 35.5433 166.445 35.7236C149.795 42.0781 118.475 42.0781 101.825 35.7236C101.825 35.5433 101.78 35.4081 101.735 35.2278C101.15 32.2083 98.5399 30 95.4349 30H85.0399C83.4199 30 81.8449 30.6309 80.6299 31.7576L46.2049 64.9274C43.8199 67.2258 43.5949 70.9664 45.6649 73.5353L56.8249 87.326C58.9849 89.985 62.8099 90.4807 65.5549 88.4527L78.9199 78.5378V154.522H189.35V78.5378L202.715 88.4527C205.46 90.4807 209.285 89.985 211.445 87.326L222.605 73.5353C224.675 70.9664 224.45 67.2258 222.065 64.9274Z" fill="#009688"/>
<path d="M166.445 35.7236C163.43 50.8213 150.11 62.2234 134.135 62.2234C118.16 62.2234 104.84 50.8213 101.825 35.7236C118.475 42.0782 149.795 42.0782 166.445 35.7236Z" fill="#009688"/>
<path opacity="0.42" d="M91.2949 88.1372V154.522H78.9199V88.1372C78.9199 80.1152 91.2949 79.7997 91.2949 88.1372ZM98.6299 30.8563C100.61 31.983 99.7549 35.0476 97.4599 35.0476C95.7949 35.0476 94.2199 35.6785 93.0499 36.8052L58.5799 69.975C56.1949 72.2734 55.9699 76.014 58.0399 78.5829L61.9549 83.4051C64.5649 86.65 59.7949 91.0215 56.8249 87.3711L45.6649 73.5353C43.5949 70.9664 43.8199 67.2258 46.2049 64.9274L80.6299 31.7576C81.8449 30.6309 83.4199 30 85.0399 30H95.4349C96.6049 30 97.6849 30.3155 98.6299 30.8563Z" fill="white"/>
<path d="M134.315 120.406C145.549 120.406 154.655 111.285 154.655 100.035C154.655 88.7848 145.549 79.6646 134.315 79.6646C123.082 79.6646 113.975 88.7848 113.975 100.035C113.975 111.285 123.082 120.406 134.315 120.406Z" fill="#F2F2F2"/>
<path d="M222.29 147.401L212.21 135.683C210.455 133.61 207.89 132.438 205.19 132.438H62.63C59.93 132.438 57.365 133.61 55.565 135.683L45.485 147.401C42.02 151.412 44.9 157.676 50.165 157.676H54.485V203.826C54.485 207.251 57.275 210.045 60.695 210.045H207.08C210.5 210.045 213.29 207.251 213.29 203.826V157.676H217.565C222.875 157.676 225.71 151.457 222.245 147.401H222.29Z" fill="#C79A83"/>
<path d="M72.9801 210H60.6951C57.2751 210 54.4851 207.206 54.4851 203.781V157.631H72.9801C76.2651 157.631 78.9201 160.29 78.9201 163.58V203.916C78.9651 207.251 76.3551 210 72.9801 210Z" fill="#E0B7A3"/>
<path d="M213.29 157.631V203.781C213.29 207.206 210.5 210 207.08 210H148.625C152.045 210 154.835 207.206 154.835 203.781V132.394L172.025 153.125C174.365 155.964 177.875 157.586 181.565 157.586H213.29V157.631ZM114.155 177.822H84.7251C83.0151 177.822 81.6201 176.425 81.6201 174.712C81.6201 172.999 83.0151 171.602 84.7251 171.602H114.155C115.865 171.602 117.26 172.999 117.26 174.712C117.26 176.425 115.865 177.822 114.155 177.822Z" fill="#A07765"/>
<path d="M162.17 133.295L142.415 157.09C138.86 161.372 133.64 163.806 128.105 163.806H57.5901C55.8801 163.806 54.4851 162.408 54.4851 160.696V157.586H128.105C131.795 157.586 135.305 155.964 137.645 153.079C155.285 131.808 154.79 132.303 154.835 132.348C154.835 132.348 154.52 132.348 161.72 132.348L162.17 133.25V133.295Z" fill="#A07765"/>
<path d="M154.835 132.439C154.835 132.439 155.06 132.168 137.645 153.17C135.305 156.009 131.795 157.631 128.105 157.631H50.2099C44.8999 157.631 42.0649 151.412 45.5299 147.356L55.6099 135.638C57.3649 133.565 59.9299 132.394 62.6749 132.394H154.88L154.835 132.439Z" fill="#E0B7A3"/>
<path d="M134.945 140.19H74.285C71.585 140.19 69.02 141.362 67.22 143.435C53.27 159.659 58.22 153.891 57.05 155.243C55.745 156.775 53.81 157.676 51.785 157.676H50.165C44.855 157.676 42.02 151.457 45.485 147.401L55.565 135.683C57.32 133.61 59.885 132.438 62.63 132.438H134.945C140.165 132.438 139.895 140.19 134.945 140.19Z" fill="#EBCBB7"/>
<path d="M222.29 147.401C225.755 151.412 222.92 157.677 217.61 157.677H181.565C177.875 157.677 174.41 156.054 172.025 153.215L154.835 132.484C154.835 132.484 152.765 132.484 205.145 132.484C207.845 132.484 210.41 133.656 212.165 135.729L222.245 147.446L222.29 147.401Z" fill="#C79A83"/>
<path d="M185.48 153.936C186.695 155.423 185.66 157.677 183.725 157.677H181.565C177.875 157.677 174.41 156.054 172.025 153.215C154.16 131.673 154.835 132.529 154.835 132.484H205.145C207.845 132.484 210.41 133.656 212.165 135.729C213.425 137.216 212.39 139.469 210.455 139.469H192.23C184.76 139.469 180.665 148.212 185.435 153.981L185.48 153.936Z" fill="#E0B7A3"/>
</g>
<defs>
<clipPath id="clip0_163_14206">
<rect width="180" height="180" fill="white" transform="translate(44 30)"/>
</clipPath>
</defs>
</svg>
