<svg width="531" height="106" viewBox="0 0 531 106" fill="none" xmlns="http://www.w3.org/2000/svg">
<path d="M102.4 97.3002C101.2 98.7002 99.3001 99.4002 97.4001 99.1002C95.4001 98.8002 94.0001 97.5002 93.7001 95.8002C91.3001 82.4002 83.5001 71.8002 71.4001 63.4002C59.2001 54.9002 45.2001 50.7002 29.4001 51.0002C23.5001 51.1002 17.7001 51.8002 12.3001 53.8002C10.0001 54.6002 7.40006 53.7002 6.40006 51.7002C5.40006 49.8002 6.20006 47.6002 8.60006 46.5002C15.3001 43.5002 22.1001 40.6002 28.8001 37.6002C31.1001 36.6002 33.5001 35.6002 35.7001 34.5002C37.8001 33.5002 39.7001 33.7002 41.7001 34.8002C55.8001 42.1002 69.9001 49.4002 84.0001 56.7002C89.2001 59.4002 94.4001 62.1002 99.6001 64.7002C101.6 65.7002 102.4 67.0002 102.4 69.0002C102.6 77.6002 102.8 86.2002 103 94.7002C102.9 95.6002 102.6 96.4002 102.4 97.3002Z" fill="#009688"/>
<path d="M74.5999 44.3996C67.3999 40.6996 60.2999 37.0996 53.0999 33.3996C52.2999 32.9996 51.5999 32.5996 50.9999 31.9996C49.0999 29.9996 49.8999 27.2996 52.6999 25.9996C59.3999 22.7996 66.1999 19.5996 72.8999 16.3996C80.9999 12.5996 88.9999 8.7996 96.9999 4.9996C101.1 3.0996 104.7 4.8996 104.6 8.8996C104.5 18.2996 104.3 27.6996 104.1 37.1996C104 40.8996 100.3 42.6996 96.5999 40.7996C91.7999 38.3996 86.9999 35.9996 82.2999 33.4996C79.9999 32.2996 79.3999 29.9996 80.7999 28.0996C82.0999 26.2996 84.6999 25.6996 86.8999 26.6996C87.8999 27.0996 88.7999 27.6996 89.7999 27.9996C91.9999 28.7996 94.3999 27.7996 94.5999 25.7996C94.7999 23.7996 94.8999 21.7996 94.6999 19.7996C94.3999 17.5996 91.9999 16.5996 89.6999 17.6996C84.8999 19.8996 80.1999 22.1996 75.4999 24.4996C71.1999 26.6996 70.5999 31.7996 74.2999 34.6996C75.0999 35.2996 75.9999 35.8996 76.8999 36.2996C84.8999 40.3996 92.9999 44.4996 101 48.6996C103.3 49.8996 104.3 51.6996 103.6 53.4996C102.6 56.1996 99.4999 57.1996 96.5999 55.7996C93.9999 54.4996 91.4999 53.1996 88.8999 51.8996C84.1999 49.3996 79.3999 46.8996 74.5999 44.3996Z" fill="url(#paint0_linear_2419_257)"/>
<path d="M185.3 69.5996L167.4 23.8996C167.1 23.0996 166.4 22.5996 165.5 22.5996H158.2C157.4 22.5996 156.6 23.0996 156.3 23.8996L138.2 69.5996C137.7 70.8996 138.6 72.2996 140.1 72.2996H147.2C148 72.2996 148.8 71.7996 149.1 70.9996L151.9 63.2996H171.4L174.2 70.9996C174.5 71.7996 175.2 72.2996 176.1 72.2996H183.4C184.8 72.2996 185.8 70.8996 185.3 69.5996ZM155.2 54.2996L161.7 36.5996L168.1 54.2996H155.2Z" fill="#009688"/>
<path d="M193.3 72.3002C192.2 72.3002 191.3 71.4002 191.3 70.3002V23.2002C191.3 22.1002 192.2 21.2002 193.3 21.2002H200.1C201.2 21.2002 202.1 22.1002 202.1 23.2002V70.3002C202.1 71.4002 201.2 72.3002 200.1 72.3002H193.3Z" fill="#009688"/>
<path d="M241.9 38.1H235.3C234.2 38.1 233.3 39 233.3 40.1V41C232.4 40.1 231.3 39.4 230.1 38.8C228.3 37.9 226.2 37.5 223.9 37.5C220.8 37.5 217.9 38.3 215.5 39.8C213.1 41.3 211.1 43.5 209.7 46.1C208.3 48.8 207.6 51.8 207.6 55.2C207.6 58.6 208.3 61.7 209.7 64.4C211.2 67.1 213.1 69.2 215.5 70.7C218 72.3 220.8 73 223.9 73C226.2 73 228.3 72.5 230.2 71.7C231.4 71.1 232.5 70.4 233.4 69.5V70.3C233.4 71.4 234.3 72.3 235.4 72.3H242C243.1 72.3 244 71.4 244 70.3V40.1C243.9 39 243 38.1 241.9 38.1ZM231.7 61.1C230.3 62.6 228.4 63.3 226.1 63.3C224.6 63.3 223.3 62.9 222.2 62.2C221 61.5 220.1 60.5 219.4 59.3C218.7 58.1 218.4 56.7 218.4 55.1C218.4 53.5 218.7 52.1 219.4 50.9C220.1 49.7 221 48.7 222.2 48.1C223.4 47.4 224.7 47.1 226.2 47.1C227.7 47.1 229 47.4 230.1 48.1C231.3 48.8 232.2 49.7 232.8 50.9C233.5 52.1 233.8 53.5 233.8 55.1C233.8 57.6 233.1 59.5 231.7 61.1Z" fill="#009688"/>
<path d="M283.8 40.8996L270.3 72.4996L264.8 85.5996C264.5 86.2996 263.8 86.7996 263 86.7996H256.4C254.9 86.7996 254 85.2996 254.6 83.9996L261 69.9996L249.1 40.8996C248.6 39.5996 249.5 38.0996 251 38.0996H258.2C259.1 38.0996 259.8 38.6996 260.1 39.4996L266.5 58.8996L273 39.4996C273.3 38.6996 274 38.0996 274.9 38.0996H282.1C283.4 38.0996 284.4 39.5996 283.8 40.8996Z" fill="#009688"/>
<path d="M329.8 70.2996V70.9996C329.8 72.0996 328.9 72.9996 327.8 72.9996H299.9C298.8 72.9996 297.9 72.0996 297.9 70.9996V26.5996C297.9 25.4996 298.8 24.5996 299.9 24.5996H327.4C328.5 24.5996 329.4 25.4996 329.4 26.5996V27.2996C329.4 28.3996 328.5 29.2996 327.4 29.2996H303V45.8996C303.1 45.8996 303.2 45.8996 303.2 45.8996H325.5C326.6 45.8996 327.5 46.7996 327.5 47.8996V48.4996C327.5 49.5996 326.6 50.4996 325.5 50.4996H303.2C303.1 50.4996 303 50.4996 303 50.4996V68.2996H327.8C328.9 68.2996 329.8 69.1996 329.8 70.2996Z" fill="#37474F"/>
<path d="M362.8 73.0004H361.8C361.2 73.0004 360.6 72.7004 360.2 72.2004L350.8 59.4004C350.7 59.5004 350.7 59.6004 350.6 59.7004L341.2 72.2004C340.8 72.7004 340.2 73.0004 339.6 73.0004H338.8C337.1 73.0004 336.2 71.1004 337.2 69.8004L347.1 56.9004C347.3 56.6004 347.7 56.4004 348 56.2004L337.8 43.1004C336.8 41.8004 337.7 39.9004 339.4 39.9004H340.5C341.1 39.9004 341.7 40.2004 342.1 40.7004L351.1 52.5004C351.1 52.4004 351.2 52.3004 351.3 52.2004L359.9 40.7004C360.3 40.2004 360.9 39.9004 361.5 39.9004H362.3C364 39.9004 364.9 41.8004 363.9 43.1004L354.6 55.0004C354.4 55.3004 354 55.5004 353.7 55.7004L364.3 69.9004C365.3 71.1004 364.4 73.0004 362.8 73.0004Z" fill="#37474F"/>
<path d="M404.4 47.7002C403 45.1002 401.1 43.0002 398.6 41.5002C396.2 40.0002 393.4 39.2002 390.4 39.2002C388 39.2002 385.7 39.7002 383.6 40.7002C381.6 41.7002 379.9 43.1002 378.6 44.9002C378.4 45.1002 378.3 45.3002 378.2 45.5002V41.9002C378.2 40.8002 377.3 39.9002 376.2 39.9002H375.3C374.2 39.9002 373.3 40.8002 373.3 41.9002V84.9002C373.3 86.0002 374.2 86.9002 375.3 86.9002H376.2C377.3 86.9002 378.2 86.0002 378.2 84.9002V67.4002C378.3 67.6002 378.4 67.8002 378.6 67.9002C379.9 69.7002 381.6 71.1002 383.6 72.1002C385.6 73.1002 387.9 73.6002 390.4 73.6002C393.5 73.6002 396.2 72.8002 398.6 71.4002C401.1 69.9002 403 67.8002 404.4 65.2002C405.8 62.6002 406.5 59.7002 406.5 56.5002C406.6 53.3002 405.9 50.3002 404.4 47.7002ZM399.9 63.0002C398.9 64.9002 397.5 66.4002 395.7 67.4002C393.9 68.4002 391.9 68.9002 389.5 68.9002C387.2 68.9002 385.2 68.4002 383.4 67.4002C381.7 66.3002 380.3 64.8002 379.3 63.0002C378.3 61.1002 377.8 58.9002 377.8 56.4002C377.8 53.9002 378.3 51.7002 379.3 49.9002C380.3 48.0002 381.7 46.6002 383.4 45.5002C385.2 44.4002 387.2 43.9002 389.5 43.9002C391.8 43.9002 393.8 44.4002 395.6 45.5002C397.4 46.6002 398.8 48.1002 399.8 49.9002C400.8 51.8002 401.3 54.0002 401.3 56.4002C401.5 58.9002 401 61.1002 399.9 63.0002Z" fill="#37474F"/>
<path d="M435.9 44.1996L435.4 44.6996C434.6 45.5996 433.2 45.4996 432.2 44.8996C431.9 44.6996 431.5 44.4996 431.2 44.3996C430.3 43.9996 429.2 43.7996 428 43.7996C425.5 43.7996 423.4 44.5996 421.8 46.2996C420.5 47.6996 419.7 49.5996 419.5 52.0996C419.5 52.1996 419.5 52.2996 419.4 52.3996V70.9996C419.4 72.0996 418.5 72.9996 417.4 72.9996H416.5C415.4 72.9996 414.5 72.0996 414.5 70.9996V41.8996C414.5 40.7996 415.4 39.8996 416.5 39.8996H417.4C418.5 39.8996 419.4 40.7996 419.4 41.8996V44.1996C419.7 43.6996 420 43.2996 420.4 42.7996C422.5 40.3996 425.3 39.0996 428.8 39.0996C430.4 39.0996 432 39.3996 433.3 39.9996C434.2 40.2996 435 40.7996 435.7 41.4996C436.6 42.2996 436.6 43.4996 435.9 44.1996Z" fill="#37474F"/>
<path d="M471.6 55.3004C471.6 55.7004 471.6 56.1004 471.5 56.6004V56.7004C471.4 57.6004 470.6 58.3004 469.6 58.3004H444.6C444.4 58.3004 444.3 58.3004 444.1 58.2004C444 57.6004 444 56.9004 444 56.2004C444 55.5004 444 54.8004 444.1 54.1004C444.3 54.1004 444.4 54.0004 444.6 54.0004H466.8C466.7 52.2004 466.3 50.6004 465.6 49.3004C464.7 47.5004 463.5 46.2004 461.9 45.2004C460.3 44.2004 458.4 43.7004 456.1 43.7004C453.7 43.7004 451.6 44.2004 449.8 45.2004C448 46.2004 446.6 47.7004 445.6 49.6004C444.9 50.9004 444.4 52.4004 444.2 54.0004C443.3 54.2004 442.7 55.0004 442.7 55.9004V56.1004C442.7 57.1004 443.3 57.8004 444.2 58.0004C444.4 59.7004 444.9 61.3004 445.6 62.7004C446.7 64.6004 448.2 66.1004 450 67.2004C451.9 68.3004 454.1 68.8004 456.6 68.8004C458.6 68.8004 460.5 68.4004 462.2 67.7004C463.2 67.3004 464.1 66.7004 464.9 66.0004C465.8 65.2004 467.2 65.1004 468.1 66.0004L468.4 66.3004C469.1 67.0004 469.2 68.2004 468.4 68.9004C467.1 70.1004 465.6 71.1004 463.9 71.9004C461.6 72.9004 459.2 73.4004 456.6 73.4004C453.3 73.4004 450.3 72.6004 447.6 71.2004C444.9 69.8004 442.9 67.6004 441.3 65.0004C439.8 62.4004 439 59.4004 439 56.1004C439 52.9004 439.8 49.9004 441.3 47.4004C442.8 44.8004 444.8 42.7004 447.4 41.2004C450 39.7004 452.9 38.9004 456.1 38.9004C459.1 38.9004 461.8 39.6004 464.1 40.9004C466.4 42.3004 468.3 44.2004 469.6 46.6004C470.9 49.4004 471.6 52.1004 471.6 55.3004Z" fill="#37474F"/>
<path d="M444 56.2998C444 56.9998 444 57.5998 444.1 58.2998C443.2 58.0998 442.6 57.2998 442.6 56.3998V56.1998C442.6 55.1998 443.3 54.4998 444.1 54.2998C444 54.7998 444 55.4998 444 56.2998Z" fill="#37474F"/>
<path d="M489.3 73.6996C487.5 73.6996 485.8 73.4996 484.2 72.9996C482.6 72.4996 481.1 71.7996 479.7 70.8996C478.9 70.2996 478.1 69.6996 477.4 68.9996C476.7 68.2996 476.7 67.0996 477.5 66.3996L477.9 65.9996C478.7 65.0996 480.1 65.1996 481 65.9996C481.9 66.7996 482.9 67.4996 483.9 67.9996C485.6 68.7996 487.5 69.0996 489.5 69.0996C491.7 69.0996 493.4 68.6996 494.6 67.7996C495.9 66.9996 496.5 65.7996 496.5 64.2996C496.5 62.8996 496.1 61.7996 495.2 60.9996C494.3 60.1996 493.2 59.5996 491.7 59.0996C490.3 58.5996 488.9 58.1996 487.3 57.7996C485.8 57.2996 484.3 56.7996 482.9 56.0996C481.5 55.3996 480.3 54.3996 479.5 53.1996C478.7 51.9996 478.2 50.3996 478.2 48.3996C478.2 46.4996 478.6 44.8996 479.5 43.4996C480.4 42.0996 481.8 40.9996 483.4 40.2996C485.1 39.4996 487.2 39.0996 489.5 39.0996C492 39.0996 494.2 39.4996 496.3 40.3996C497.8 41.0996 499 41.8996 500.1 42.9996C500.8 43.6996 500.7 44.7996 500 45.4996L499.6 45.8996C498.7 46.7996 497.4 46.5996 496.4 45.8996C495.8 45.3996 495 44.9996 494.3 44.5996C492.8 43.8996 491.2 43.4996 489.4 43.4996C487.3 43.4996 485.7 43.8996 484.5 44.7996C483.4 45.5996 482.9 46.6996 482.9 47.9996C482.9 49.2996 483.3 50.2996 484.2 50.9996C485.1 51.6996 486.2 52.2996 487.6 52.7996C489 53.1996 490.5 53.6996 492 54.0996C493.5 54.4996 495 55.0996 496.4 55.8996C497.8 56.5996 498.9 57.5996 499.8 58.8996C500.7 60.0996 501.1 61.7996 501.1 63.8996C501.1 66.8996 500 69.1996 497.9 70.9996C495.8 72.8996 492.9 73.6996 489.3 73.6996Z" fill="#37474F"/>
<path d="M519.1 73.6996C517.3 73.6996 515.6 73.4996 514 72.9996C512.4 72.4996 510.9 71.7996 509.5 70.8996C508.7 70.2996 507.9 69.6996 507.2 68.9996C506.5 68.2996 506.5 67.0996 507.3 66.3996L507.7 65.9996C508.5 65.0996 509.9 65.1996 510.8 65.9996C511.7 66.7996 512.7 67.4996 513.7 67.9996C515.4 68.7996 517.3 69.0996 519.3 69.0996C521.5 69.0996 523.2 68.6996 524.4 67.7996C525.7 66.9996 526.3 65.7996 526.3 64.2996C526.3 62.8996 525.9 61.7996 525 60.9996C524.1 60.1996 523 59.5996 521.5 59.0996C520.1 58.5996 518.7 58.1996 517.1 57.7996C515.6 57.2996 514.1 56.7996 512.7 56.0996C511.3 55.3996 510.1 54.3996 509.3 53.1996C508.5 51.9996 508 50.3996 508 48.3996C508 46.4996 508.4 44.8996 509.3 43.4996C510.2 42.0996 511.6 40.9996 513.2 40.2996C514.9 39.4996 517 39.0996 519.3 39.0996C521.8 39.0996 524 39.4996 526.1 40.3996C527.6 41.0996 528.8 41.8996 529.9 42.9996C530.6 43.6996 530.5 44.7996 529.8 45.4996L529.4 45.8996C528.5 46.7996 527.2 46.5996 526.2 45.8996C525.6 45.3996 524.8 44.9996 524.1 44.5996C522.6 43.8996 521 43.4996 519.2 43.4996C517.1 43.4996 515.5 43.8996 514.3 44.7996C513.2 45.5996 512.7 46.6996 512.7 47.9996C512.7 49.2996 513.1 50.2996 514 50.9996C514.9 51.6996 516 52.2996 517.4 52.7996C518.8 53.1996 520.3 53.6996 521.8 54.0996C523.3 54.4996 524.8 55.0996 526.2 55.8996C527.6 56.5996 528.7 57.5996 529.6 58.8996C530.5 60.0996 530.9 61.7996 530.9 63.8996C530.9 66.8996 529.8 69.1996 527.7 70.9996C525.6 72.8996 522.8 73.6996 519.1 73.6996Z" fill="#37474F"/>
<defs>
<linearGradient id="paint0_linear_2419_257" x1="112.067" y1="10.1597" x2="70.7645" y2="46.4775" gradientUnits="userSpaceOnUse">
<stop stop-color="#26A69A"/>
<stop offset="1" stop-color="#81C784"/>
</linearGradient>
</defs>
</svg>
