<svg xmlns="http://www.w3.org/2000/svg" xmlns:xlink="http://www.w3.org/1999/xlink" version="1.1" id="Слой_1" x="0px" y="0px" viewBox="0 0 191 201" style="enable-background:new 0 0 191 201;" xml:space="preserve">
<style type="text/css">
	.st0{fill:#009688;}
	.st1{fill:url(#SVGID_1_);}
	.st2{fill:#37474F;}
</style>
<path class="st0" d="M177.3,187.2c-1.9,2.3-5.2,3.5-8.3,3c-3.2-0.5-5.7-2.7-6.2-5.5c-4-22.1-16.9-39.7-36.9-53.6  c-20.2-14-43.4-20.9-69.3-20.5c-9.7,0.2-19.3,1.3-28.3,4.6c-3.9,1.4-8.1-0.2-9.8-3.4c-1.7-3.2-0.3-6.8,3.6-8.6  c11.1-5,22.2-9.8,33.4-14.7c3.8-1.7,7.7-3.3,11.5-5.1c3.5-1.6,6.6-1.3,9.9,0.4c23.3,12.1,46.6,24.1,69.9,36.1  c8.6,4.4,17.1,8.9,25.8,13.3c3.2,1.6,4.6,3.8,4.7,7c0.3,14.2,0.7,28.4,1,42.6C178.1,184.4,177.6,185.8,177.3,187.2L177.3,187.2z"/>
<linearGradient id="SVGID_1_" gradientUnits="userSpaceOnUse" x1="193.2908" y1="158.8106" x2="125.0218" y2="98.7812" gradientTransform="matrix(1 0 0 -1 0 202)">
	<stop offset="0" style="stop-color:#26A69A"/>
	<stop offset="1" style="stop-color:#81C784"/>
</linearGradient>
<path class="st1" d="M131.3,99.8c-11.8-6-23.7-12.1-35.5-18.1c-1.2-0.6-2.5-1.4-3.4-2.3c-3.1-3.2-1.9-7.7,2.8-9.9  c11.1-5.3,22.3-10.6,33.5-15.9c13.2-6.3,26.5-12.6,39.7-18.8c6.8-3.2,12.7-0.2,12.6,6.4c-0.2,15.6-0.5,31.1-0.8,46.7  c-0.1,6.2-6.2,9.1-12.4,6c-7.9-4-15.8-8-23.6-12.1c-3.7-2-4.7-5.9-2.5-9c2.1-2.9,6.5-4,10.1-2.4c1.6,0.7,3.1,1.6,4.7,2.2  c3.6,1.4,7.6-0.3,8-3.6c0.4-3.3,0.5-6.6,0.2-9.9c-0.4-3.6-4.5-5.3-8.2-3.5c-7.9,3.7-15.8,7.4-23.5,11.3c-7.2,3.6-8.1,12.1-1.9,16.9  c1.3,1,2.8,1.9,4.3,2.7c13.3,6.8,26.6,13.6,39.9,20.4c3.8,1.9,5.4,5,4.4,7.9c-1.6,4.4-6.8,6.2-11.6,3.8c-4.3-2.1-8.5-4.3-12.7-6.4  C147.2,108,139.2,103.9,131.3,99.8L131.3,99.8L131.3,99.8z"/>
<path class="st0" d="M26.5,81.2L12.8,68.5c-0.6-0.6-1.5-0.7-2.2-0.3l-1.4,0.7C8.4,69.2,8,70,8,70.8l1.4,18.7  c0.1,1.4,1.6,2.3,2.9,1.7l0.5-0.3c0.8-0.4,1.2-1.2,1.1-2l-0.3-2.8c0.1,0,0.2-0.1,0.4-0.1l7-3.4c0.1,0,0.1-0.1,0.2-0.1l2,1.9  c0.6,0.6,1.5,0.7,2.3,0.4l0.6-0.3C27.3,83.8,27.5,82.1,26.5,81.2z M13.2,82l-0.8-8.1l5.8,5.7L13.2,82z"/>
<path class="st0" d="M32.4,81.4c-1,0.5-2.2,0.1-2.7-0.9l-7.8-16.2c-0.5-1-0.1-2.2,0.9-2.7l0.6-0.3c1-0.5,2.2-0.1,2.7,0.9l7.8,16.2  c0.5,1,0.1,2.2-0.9,2.7L32.4,81.4z"/>
<path class="st0" d="M50.1,70.6l-4.7-9.7c-0.5-1-1.7-1.4-2.7-0.9l-0.5,0.2c-0.8,0.4-1.2,1.2-1.1,2C40.6,62,40,62,39.3,62  c-0.9,0-1.8,0.2-2.7,0.6c-1.2,0.6-2.2,1.4-2.8,2.5c-0.7,1.1-1,2.2-1.1,3.5c0,1.3,0.2,2.6,0.9,3.9c0.6,1.3,1.5,2.4,2.5,3.2  c1.1,0.8,2.2,1.2,3.5,1.4c1.3,0.1,2.5-0.1,3.7-0.7c0.9-0.4,1.6-1,2.2-1.7c0.4-0.5,0.7-1,0.9-1.6c0.6,0.6,1.5,0.8,2.3,0.4l0.5-0.2  C50.2,72.8,50.6,71.6,50.1,70.6z M44.1,70.3c-0.3,0.8-0.8,1.5-1.7,1.9c-0.6,0.3-1.1,0.4-1.7,0.3c-0.6,0-1.1-0.3-1.6-0.6  c-0.5-0.4-0.9-0.8-1.2-1.4c-0.3-0.6-0.4-1.2-0.4-1.8c0-0.6,0.2-1.1,0.5-1.6c0.3-0.5,0.8-0.9,1.4-1.2c0.6-0.3,1.2-0.4,1.7-0.3  c0.6,0,1.1,0.2,1.6,0.6c0.5,0.3,0.9,0.8,1.2,1.5C44.3,68.6,44.4,69.5,44.1,70.3z"/>
<path class="st0" d="M61.5,72.8c0,0.8-0.4,1.5-1.1,1.9l-0.3,0.1c-1.3,0.6-2.8-0.3-2.9-1.8l-0.1-4.3c0-0.2,0-0.3,0-0.5  c-0.1,0-0.1-0.1-0.2-0.1l-8.7-7.8c-1.1-0.9-0.8-2.7,0.5-3.3l0.5-0.2c0.8-0.4,1.7-0.2,2.3,0.4l5.5,5.7l-1-7.9  c-0.1-0.9,0.3-1.7,1.1-2.1l0.5-0.2c1.3-0.6,2.8,0.3,2.9,1.7l0.6,13L61.5,72.8z"/>
<path class="st2" d="M83.5,57L73,62c-0.1,0-0.1,0.1-0.2,0.1c-0.1,0-0.1,0-0.2,0c-0.4,0-0.9-0.2-1.1-0.6l-8.1-16.8  c-0.3-0.5,0-1.2,0.5-1.5c0,0,0.1,0,0.1-0.1c0,0,0,0,0.1,0l10.1-4.9c0.5-0.2,1.1,0,1.4,0.5c0.2,0.5,0,1.1-0.5,1.4l-9.3,4.5l3.1,6.5  C69,51,69.1,51,69.1,51l8.4-4.1c0.5-0.2,1.1,0,1.3,0.5s0,1.1-0.5,1.3L70,52.7c-0.1,0-0.1,0.1-0.2,0.1l3.3,6.9l9.5-4.6  c0.5-0.2,1.1,0,1.3,0.5C84.2,56.1,84,56.8,83.5,57z"/>
<path class="st2" d="M96.8,50.5c-0.3,0.1-0.7,0.1-0.9,0l-6-3.2c0,0.1,0,0.2,0,0.2L88.7,54c-0.1,0.3-0.3,0.6-0.5,0.7  c-0.7,0.4-1.6-0.3-1.4-1.1l1.3-6.4c0.1-0.2,0.2-0.4,0.3-0.5l-6.1-3.1c-0.8-0.4-0.8-1.5,0-1.9c0.3-0.2,0.6-0.1,0.9,0l5.6,2.9  c0-0.1,0-0.1,0-0.2l1.2-5.9c0.1-0.3,0.3-0.6,0.5-0.7c0.8-0.4,1.6,0.3,1.4,1.1l-1.2,5.9c0,0.2-0.2,0.4-0.3,0.5l6.5,3.4  C97.6,49.1,97.6,50.2,96.8,50.5z"/>
<path class="st2" d="M111.1,35.8c-0.6-1.3-1.5-2.3-2.5-3c-1-0.8-2.2-1.2-3.4-1.3c-1.2-0.1-2.5,0.1-3.6,0.6c-1,0.5-1.7,1.1-2.3,1.8  c-0.6,0.8-1,1.6-1.2,2.6c0,0.1,0,0.2,0,0.3l-0.6-1.2c-0.2-0.5-0.9-0.8-1.4-0.5c-0.5,0.3-0.7,0.9-0.5,1.4l7.9,16.3  c0.2,0.5,0.9,0.8,1.4,0.5c0.5-0.3,0.8-0.9,0.5-1.4l-3.2-6.6c0.1,0.1,0.2,0.1,0.3,0.2c0.8,0.4,1.8,0.7,2.7,0.7c1,0,2-0.2,2.9-0.7  c1.2-0.6,2.1-1.4,2.8-2.4c0.7-1.1,1-2.2,1.1-3.5C112,38.3,111.7,37,111.1,35.8z M108.9,42c-0.5,0.7-1.2,1.3-2.1,1.8  c-0.9,0.4-1.8,0.6-2.6,0.5c-0.9-0.1-1.7-0.4-2.4-1c-0.7-0.6-1.3-1.3-1.8-2.3c-0.5-1-0.7-1.9-0.7-2.8c0-0.9,0.3-1.7,0.8-2.5  c0.5-0.8,1.2-1.4,2.1-1.8s1.8-0.6,2.7-0.5c0.9,0.1,1.7,0.4,2.4,0.9c0.8,0.5,1.4,1.3,1.8,2.2c0.5,0.9,0.7,1.9,0.6,2.8  C109.7,40.5,109.4,41.3,108.9,42z"/>
<path class="st2" d="M120.1,25.7c-0.2,0.6-0.8,0.8-1.4,0.8c-0.1,0-0.2,0-0.3,0c-0.4,0-0.9,0.2-1.4,0.4c-1,0.5-1.6,1.2-1.9,2.2  c-0.3,0.8-0.2,1.7,0.2,2.7c0,0,0,0.1,0,0.1l3.4,7c0.3,0.5,0,1.2-0.5,1.4c-0.5,0.3-1.2,0-1.4-0.5l-5.3-10.9c-0.3-0.5,0-1.2,0.5-1.4  c0.5-0.3,1.2,0,1.4,0.5l0.3,0.7c0-0.2,0.1-0.5,0.1-0.7c0.4-1.3,1.2-2.3,2.6-3c0.6-0.3,1.3-0.5,1.9-0.5c0.3,0,0.7,0,1.1,0.1  C120,24.6,120.2,25.2,120.1,25.7z"/>
<path class="st2" d="M136.8,28.1c-0.5-0.2-1.1,0.1-1.4,0.7c-0.2,0.4-0.4,0.7-0.7,1.1c-0.5,0.6-1.2,1.1-2,1.5c-1,0.5-1.9,0.7-2.9,0.6  s-1.8-0.4-2.6-0.9c-0.6-0.4-1-0.9-1.5-1.6c0.1,0,0.2,0,0.2-0.1l9.6-4.7c0.4-0.2,0.6-0.6,0.5-1c-0.1-0.2-0.2-0.4-0.2-0.5  c-0.6-1.2-1.4-2.2-2.4-2.8c-1-0.7-2-1.1-3.2-1.2c-1.1-0.1-2.3,0.1-3.5,0.7c-1.2,0.6-2.2,1.4-2.9,2.5c-0.7,1.1-1.1,2.2-1.2,3.6  c-0.1,1.3,0.2,2.5,0.8,3.8c0.6,1.3,1.5,2.3,2.5,3c1.1,0.7,2.3,1.1,3.6,1.2c1.3,0.1,2.6-0.2,3.9-0.8c1-0.5,1.9-1.1,2.6-1.9  c0.5-0.6,0.9-1.2,1.2-1.9C137.5,28.8,137.3,28.3,136.8,28.1z M125.7,23.4c0.5-0.7,1.2-1.3,2.1-1.8c0.9-0.4,1.7-0.6,2.5-0.5  c0.8,0,1.6,0.3,2.2,0.9c0.5,0.4,1,0.9,1.3,1.6l-8.5,4.1c-0.1,0-0.1,0.1-0.2,0.1c-0.2-0.7-0.3-1.3-0.3-2  C124.9,24.9,125.2,24.1,125.7,23.4z"/>
<path class="st2" d="M146.3,26.9c-0.7,0.3-1.4,0.6-2.1,0.7c-0.7,0.1-1.4,0.1-2.1,0c-0.4-0.1-0.8-0.1-1.1-0.3  c-0.5-0.2-0.7-0.7-0.5-1.1c0.2-0.5,0.8-0.8,1.4-0.7c0.5,0.1,0.9,0.2,1.4,0.2c0.8,0,1.6-0.2,2.4-0.6c0.9-0.4,1.4-0.9,1.8-1.5  c0.3-0.6,0.4-1.1,0.1-1.7c-0.3-0.5-0.6-0.9-1.1-1c-0.5-0.1-1.1-0.2-1.7-0.1c-0.6,0.1-1.3,0.2-1.9,0.3c-0.7,0.1-1.4,0.2-2,0.2  c-0.7,0-1.3-0.2-1.9-0.5c-0.6-0.3-1-0.9-1.4-1.6c-0.4-0.7-0.5-1.4-0.4-2.1c0.1-0.7,0.4-1.4,0.9-2c0.5-0.6,1.2-1.2,2.2-1.6  c1-0.5,1.9-0.7,2.9-0.7c0.7,0,1.3,0.1,1.9,0.3c0.4,0.2,0.6,0.7,0.5,1.1c-0.2,0.6-0.8,0.8-1.4,0.7c-0.3-0.1-0.6-0.1-0.9-0.1  c-0.7,0-1.4,0.2-2.1,0.5c-0.8,0.4-1.4,0.9-1.6,1.4c-0.3,0.5-0.3,1,0,1.5c0.2,0.5,0.6,0.8,1.1,0.9c0.5,0.1,1,0.1,1.6,0  c0.6-0.1,1.3-0.2,2-0.3c0.7-0.1,1.4-0.2,2-0.1c0.7,0,1.3,0.2,1.9,0.5c0.6,0.3,1.1,0.9,1.5,1.7c0.6,1.1,0.6,2.3,0.1,3.4  C148.7,25.4,147.8,26.3,146.3,26.9z"/>
<path class="st2" d="M157.9,21.4c-0.7,0.3-1.4,0.6-2.1,0.7c-0.7,0.1-1.4,0.1-2.1,0c-0.4-0.1-0.8-0.1-1.1-0.3  c-0.5-0.2-0.7-0.7-0.5-1.1c0.2-0.5,0.8-0.8,1.4-0.7c0.5,0.1,0.9,0.2,1.4,0.2c0.8,0,1.6-0.2,2.4-0.6c0.9-0.4,1.4-0.9,1.8-1.5  c0.3-0.6,0.4-1.1,0.1-1.7c-0.3-0.5-0.6-0.9-1.1-1c-0.5-0.1-1.1-0.2-1.7-0.1c-0.6,0.1-1.3,0.2-1.9,0.3c-0.7,0.1-1.4,0.2-2,0.2  c-0.7,0-1.3-0.2-1.9-0.5c-0.6-0.3-1-0.9-1.4-1.6c-0.4-0.7-0.5-1.4-0.4-2.1c0.1-0.7,0.4-1.4,0.9-2c0.5-0.6,1.2-1.2,2.2-1.6  c1-0.5,1.9-0.7,2.9-0.7c0.7,0,1.3,0.1,1.9,0.3c0.4,0.2,0.6,0.7,0.5,1.1c-0.2,0.6-0.8,0.8-1.4,0.7c-0.3-0.1-0.6-0.1-0.9-0.1  c-0.7,0-1.4,0.2-2.1,0.5c-0.8,0.4-1.4,0.9-1.6,1.4c-0.3,0.5-0.3,1,0,1.5c0.2,0.5,0.6,0.8,1.1,0.9c0.5,0.1,1,0.1,1.6,0  c0.6-0.1,1.3-0.2,2-0.3c0.7-0.1,1.4-0.2,2-0.1c0.7,0,1.3,0.2,1.9,0.5c0.6,0.3,1.1,0.9,1.5,1.7c0.6,1.1,0.6,2.3,0.1,3.4  C160.3,19.8,159.3,20.7,157.9,21.4z"/>
</svg>