<svg xmlns="http://www.w3.org/2000/svg" width="1880" height="375" viewBox="0 0 1880 375" fill="none">
<path d="M362.546 344.222C358.298 349.175 351.571 351.651 344.844 350.59C337.763 349.528 332.806 344.929 331.744 338.915C323.247 291.509 295.631 254.009 252.791 224.292C209.597 194.222 160.03 179.363 104.09 180.425C83.2016 180.778 62.6667 183.255 43.5481 190.33C35.405 193.16 26.1997 189.976 22.6592 182.901C19.1187 176.179 21.9511 168.396 30.4483 164.505C54.1696 153.892 78.2449 143.632 101.966 133.019C110.109 129.481 118.606 125.943 126.396 122.052C133.831 118.514 140.558 119.222 147.639 123.113C197.559 148.939 247.48 174.764 297.401 200.59C315.812 210.142 334.222 219.693 352.633 228.892C359.714 232.429 362.546 237.028 362.546 244.104C363.254 274.528 363.962 304.953 364.671 335.024C364.316 338.208 363.254 341.038 362.546 344.222Z" fill="#009688"/>
<path d="M264.12 157.076C238.629 143.986 213.491 131.25 188 118.161C185.167 116.745 182.689 115.33 180.565 113.208C173.838 106.132 176.67 96.5804 186.584 91.9813C210.305 80.6606 234.38 69.3398 258.102 58.0191C286.78 44.5757 315.103 31.1323 343.427 17.6889C357.943 10.9672 370.689 17.3351 370.335 31.486C369.981 64.7408 369.273 97.9955 368.565 131.604C368.211 144.694 355.111 151.062 342.011 144.34C325.017 135.849 308.022 127.359 291.382 118.514C283.239 114.269 281.115 106.132 286.071 99.4106C290.674 93.0426 299.879 90.92 307.668 94.4577C311.209 95.8728 314.395 97.9955 317.936 99.0568C325.725 101.887 334.222 98.3492 334.93 91.2738C335.638 84.1983 335.992 77.1228 335.284 70.0474C334.222 62.2643 325.725 58.7266 317.582 62.6181C300.587 70.4011 283.947 78.5379 267.307 86.6747C252.083 94.4577 249.958 112.5 263.058 122.76C265.891 124.882 269.077 127.005 272.264 128.42C300.587 142.925 329.265 157.429 357.589 172.288C365.732 176.533 369.273 182.901 366.795 189.269C363.254 198.821 352.279 202.359 342.011 197.406C332.806 192.807 323.955 188.208 314.749 183.609C298.109 174.764 281.115 165.92 264.12 157.076Z" fill="url(#paint0_linear_339_4849)"/>
<path d="M656.053 246.226L592.678 84.5517C591.616 81.7215 589.138 79.9526 585.951 79.9526H560.106C557.273 79.9526 554.441 81.7215 553.379 84.5517L489.296 246.226C487.526 250.825 490.712 255.778 496.023 255.778H521.16C523.993 255.778 526.825 254.009 527.887 251.179L537.801 223.938H606.84L616.754 251.179C617.816 254.009 620.294 255.778 623.48 255.778H649.326C654.283 255.778 657.823 250.825 656.053 246.226ZM549.484 192.099L572.497 129.481L595.157 192.099H549.484Z" fill="#009688"/>
<path d="M684.377 255.778C680.482 255.778 677.296 252.594 677.296 248.703V82.0755C677.296 78.184 680.482 75 684.377 75H708.452C712.347 75 715.533 78.184 715.533 82.0755V248.703C715.533 252.594 712.347 255.778 708.452 255.778H684.377Z" fill="#009688"/>
<path d="M856.445 134.788H833.077C829.183 134.788 825.996 137.972 825.996 141.863V145.047C822.81 141.863 818.915 139.387 814.667 137.264C808.294 134.08 800.859 132.665 792.716 132.665C781.74 132.665 771.473 135.495 762.976 140.802C754.479 146.108 747.398 153.891 742.441 163.09C737.484 172.641 735.006 183.255 735.006 195.283C735.006 207.311 737.484 218.278 742.441 227.83C747.752 237.382 754.479 244.811 762.976 250.118C771.827 255.778 781.74 258.255 792.716 258.255C800.859 258.255 808.294 256.486 815.021 253.656C819.269 251.533 823.164 249.057 826.35 245.873V248.703C826.35 252.594 829.537 255.778 833.431 255.778H856.799C860.693 255.778 863.88 252.594 863.88 248.703V141.863C863.526 137.972 860.339 134.788 856.445 134.788ZM820.332 216.156C815.375 221.462 808.648 223.939 800.505 223.939C795.194 223.939 790.592 222.524 786.697 220.047C782.448 217.571 779.262 214.033 776.784 209.788C774.305 205.542 773.243 200.59 773.243 194.929C773.243 189.269 774.305 184.316 776.784 180.071C779.262 175.825 782.448 172.288 786.697 170.165C790.946 167.689 795.548 166.627 800.859 166.627C806.17 166.627 810.772 167.689 814.667 170.165C818.915 172.641 822.102 175.825 824.226 180.071C826.705 184.316 827.767 189.269 827.767 194.929C827.767 203.774 825.288 210.495 820.332 216.156Z" fill="#009688"/>
<path d="M1004.79 144.693L956.994 256.486L937.522 302.83C936.459 305.306 933.981 307.075 931.149 307.075H907.782C902.471 307.075 899.284 301.769 901.409 297.17L924.068 247.641L881.936 144.693C880.166 140.094 883.352 134.788 888.663 134.788H914.154C917.341 134.788 919.819 136.91 920.881 139.74L943.541 208.373L966.554 139.74C967.616 136.91 970.094 134.788 973.281 134.788H998.772C1003.37 134.788 1006.92 140.094 1004.79 144.693Z" fill="#009688"/>
<path d="M1167.65 248.703V251.179C1167.65 255.071 1164.47 258.255 1160.57 258.255H1061.79C1057.9 258.255 1054.71 255.071 1054.71 251.179V94.1038C1054.71 90.2123 1057.9 87.0283 1061.79 87.0283H1159.16C1163.05 87.0283 1166.24 90.2123 1166.24 94.1038V96.5802C1166.24 100.472 1163.05 103.656 1159.16 103.656H1072.77V162.382C1073.12 162.382 1073.48 162.382 1073.48 162.382H1152.43C1156.32 162.382 1159.51 165.566 1159.51 169.458V171.58C1159.51 175.472 1156.32 178.656 1152.43 178.656H1073.48C1073.12 178.656 1072.77 178.656 1072.77 178.656V241.627H1160.57C1164.47 241.627 1167.65 244.811 1167.65 248.703Z" fill="white"/>
<path d="M1284.49 258.255H1280.95C1278.82 258.255 1276.7 257.193 1275.28 255.425L1242 210.142C1241.65 210.495 1241.65 210.849 1241.3 211.203L1208.02 255.425C1206.6 257.193 1204.47 258.255 1202.35 258.255H1199.52C1193.5 258.255 1190.31 251.533 1193.85 246.934L1228.9 201.297C1229.61 200.236 1231.03 199.528 1232.09 198.821L1195.98 152.477C1192.44 147.877 1195.62 141.156 1201.64 141.156H1205.54C1207.66 141.156 1209.79 142.217 1211.2 143.986L1243.07 185.731C1243.07 185.377 1243.42 185.024 1243.77 184.67L1274.22 143.986C1275.64 142.217 1277.76 141.156 1279.89 141.156H1282.72C1288.74 141.156 1291.92 147.877 1288.38 152.477L1255.46 194.576C1254.75 195.637 1253.33 196.344 1252.27 197.052L1289.8 247.288C1293.34 251.533 1290.15 258.255 1284.49 258.255Z" fill="white"/>
<path d="M1431.77 168.75C1426.82 159.552 1420.09 152.123 1411.24 146.816C1402.74 141.509 1392.83 138.679 1382.21 138.679C1373.71 138.679 1365.57 140.448 1358.13 143.986C1351.05 147.524 1345.03 152.476 1340.43 158.844C1339.72 159.552 1339.37 160.259 1339.01 160.967V148.231C1339.01 144.34 1335.83 141.156 1331.93 141.156H1328.75C1324.85 141.156 1321.66 144.34 1321.66 148.231V300.354C1321.66 304.245 1324.85 307.429 1328.75 307.429H1331.93C1335.83 307.429 1339.01 304.245 1339.01 300.354V238.443C1339.37 239.151 1339.72 239.858 1340.43 240.212C1345.03 246.58 1351.05 251.533 1358.13 255.071C1365.21 258.608 1373.36 260.377 1382.21 260.377C1393.18 260.377 1402.74 257.547 1411.24 252.594C1420.09 247.288 1426.82 239.858 1431.77 230.66C1436.73 221.462 1439.21 211.203 1439.21 199.882C1439.56 188.561 1437.08 177.948 1431.77 168.75ZM1415.84 222.877C1412.3 229.599 1407.34 234.906 1400.97 238.443C1394.6 241.981 1387.52 243.75 1379.02 243.75C1370.88 243.75 1363.8 241.981 1357.42 238.443C1351.4 234.552 1346.45 229.245 1342.91 222.877C1339.37 216.156 1337.6 208.373 1337.6 199.528C1337.6 190.684 1339.37 182.901 1342.91 176.533C1346.45 169.811 1351.4 164.858 1357.42 160.967C1363.8 157.075 1370.88 155.307 1379.02 155.307C1387.16 155.307 1394.24 157.075 1400.62 160.967C1406.99 164.858 1411.95 170.165 1415.49 176.533C1419.03 183.255 1420.8 191.038 1420.8 199.528C1421.51 208.373 1419.74 216.156 1415.84 222.877Z" fill="white"/>
<path d="M1543.3 156.368L1541.53 158.137C1538.7 161.321 1533.74 160.967 1530.2 158.845C1529.14 158.137 1527.72 157.429 1526.66 157.076C1523.47 155.661 1519.58 154.953 1515.33 154.953C1506.48 154.953 1499.04 157.783 1493.38 163.797C1488.78 168.75 1485.94 175.472 1485.24 184.316C1485.24 184.67 1485.24 185.024 1484.88 185.378V251.179C1484.88 255.071 1481.7 258.255 1477.8 258.255H1474.61C1470.72 258.255 1467.53 255.071 1467.53 251.179V148.231C1467.53 144.34 1470.72 141.156 1474.61 141.156H1477.8C1481.7 141.156 1484.88 144.34 1484.88 148.231V156.368C1485.94 154.599 1487.01 153.184 1488.42 151.415C1495.86 142.925 1505.77 138.326 1518.16 138.326C1523.83 138.326 1529.49 139.387 1534.09 141.51C1537.28 142.571 1540.11 144.34 1542.59 146.816C1545.78 149.646 1545.78 153.892 1543.3 156.368Z" fill="white"/>
<path d="M1669.69 195.637C1669.69 197.052 1669.69 198.467 1669.34 200.236V200.59C1668.99 203.774 1666.15 206.25 1662.61 206.25H1574.1C1573.39 206.25 1573.04 206.25 1572.33 205.896C1571.98 203.774 1571.98 201.297 1571.98 198.821C1571.98 196.345 1571.98 193.868 1572.33 191.392C1573.04 191.392 1573.39 191.038 1574.1 191.038H1652.7C1652.35 184.67 1650.93 179.01 1648.45 174.411C1645.27 168.043 1641.02 163.444 1635.35 159.906C1629.69 156.368 1622.96 154.599 1614.82 154.599C1606.32 154.599 1598.89 156.368 1592.51 159.906C1586.14 163.444 1581.18 168.75 1577.64 175.472C1575.16 180.071 1573.39 185.378 1572.69 191.038C1569.5 191.746 1567.37 194.576 1567.37 197.76V198.467C1567.37 202.005 1569.5 204.481 1572.69 205.189C1573.39 211.203 1575.16 216.863 1577.64 221.816C1581.54 228.538 1586.85 233.845 1593.22 237.736C1599.95 241.628 1607.74 243.396 1616.59 243.396C1623.67 243.396 1630.4 241.981 1636.41 239.505C1639.95 238.09 1643.14 235.967 1645.97 233.491C1649.16 230.661 1654.12 230.307 1657.3 233.491L1658.37 234.552C1660.84 237.029 1661.2 241.274 1658.37 243.75C1653.76 247.996 1648.45 251.533 1642.43 254.363C1634.29 257.901 1625.79 259.67 1616.59 259.67C1604.9 259.67 1594.28 256.84 1584.72 251.887C1575.16 246.934 1568.08 239.151 1562.42 229.953C1557.11 220.755 1554.27 210.142 1554.27 198.467C1554.27 187.146 1557.11 176.533 1562.42 167.689C1567.73 158.491 1574.81 151.062 1584.01 145.755C1593.22 140.448 1603.49 137.618 1614.82 137.618C1625.44 137.618 1635 140.095 1643.14 144.694C1651.28 149.646 1658.01 156.368 1662.61 164.859C1667.22 174.764 1669.69 184.316 1669.69 195.637Z" fill="white"/>
<path d="M1571.98 199.175C1571.98 201.651 1571.98 203.774 1572.33 206.25C1569.14 205.543 1567.02 202.712 1567.02 199.528V198.821C1567.02 195.283 1569.5 192.807 1572.33 192.099C1571.98 193.868 1571.98 196.344 1571.98 199.175Z" fill="#37474F"/>
<path d="M1732.36 260.731C1725.99 260.731 1719.97 260.024 1714.31 258.255C1708.64 256.486 1703.33 254.01 1698.37 250.826C1695.54 248.703 1692.71 246.58 1690.23 244.104C1687.75 241.628 1687.75 237.382 1690.58 234.906L1692 233.491C1694.83 230.307 1699.79 230.661 1702.98 233.491C1706.16 236.321 1709.7 238.797 1713.24 240.566C1719.26 243.396 1725.99 244.458 1733.07 244.458C1740.86 244.458 1746.88 243.043 1751.13 239.859C1755.73 237.029 1757.85 232.783 1757.85 227.477C1757.85 222.524 1756.44 218.632 1753.25 215.802C1750.06 212.972 1746.17 210.849 1740.86 209.08C1735.9 207.312 1730.95 205.896 1725.28 204.481C1719.97 202.712 1714.66 200.944 1709.7 198.467C1704.75 195.991 1700.5 192.453 1697.66 188.208C1694.83 183.962 1693.06 178.302 1693.06 171.227C1693.06 164.505 1694.48 158.845 1697.66 153.892C1700.85 148.939 1705.81 145.047 1711.47 142.571C1717.49 139.741 1724.93 138.326 1733.07 138.326C1741.92 138.326 1749.71 139.741 1757.15 142.925C1762.46 145.401 1766.7 148.231 1770.6 152.123C1773.08 154.599 1772.72 158.491 1770.24 160.967L1768.83 162.382C1765.64 165.566 1761.04 164.859 1757.5 162.382C1755.37 160.613 1752.54 159.198 1750.06 157.783C1744.75 155.307 1739.09 153.892 1732.72 153.892C1725.28 153.892 1719.62 155.307 1715.37 158.491C1711.47 161.321 1709.7 165.212 1709.7 169.812C1709.7 174.411 1711.12 177.948 1714.31 180.425C1717.49 182.901 1721.39 185.024 1726.34 186.793C1731.3 188.208 1736.61 189.977 1741.92 191.392C1747.23 192.807 1752.54 194.929 1757.5 197.76C1762.46 200.236 1766.35 203.774 1769.54 208.373C1772.72 212.618 1774.14 218.632 1774.14 226.062C1774.14 236.675 1770.24 244.812 1762.81 251.179C1755.37 257.901 1745.11 260.731 1732.36 260.731Z" fill="white"/>
<path d="M1837.87 260.731C1831.5 260.731 1825.48 260.024 1819.81 258.255C1814.15 256.486 1808.84 254.01 1803.88 250.826C1801.05 248.703 1798.22 246.58 1795.74 244.104C1793.26 241.628 1793.26 237.382 1796.09 234.906L1797.51 233.491C1800.34 230.307 1805.3 230.661 1808.48 233.491C1811.67 236.321 1815.21 238.797 1818.75 240.566C1824.77 243.396 1831.5 244.458 1838.58 244.458C1846.37 244.458 1852.38 243.043 1856.63 239.859C1861.24 237.029 1863.36 232.783 1863.36 227.477C1863.36 222.524 1861.94 218.632 1858.76 215.802C1855.57 212.972 1851.68 210.849 1846.37 209.08C1841.41 207.312 1836.45 205.896 1830.79 204.481C1825.48 202.712 1820.17 200.944 1815.21 198.467C1810.25 195.991 1806 192.453 1803.17 188.208C1800.34 183.962 1798.57 178.302 1798.57 171.227C1798.57 164.505 1799.99 158.845 1803.17 153.892C1806.36 148.939 1811.31 145.047 1816.98 142.571C1823 139.741 1830.43 138.326 1838.58 138.326C1847.43 138.326 1855.22 139.741 1862.65 142.925C1867.96 145.401 1872.21 148.231 1876.11 152.123C1878.58 154.599 1878.23 158.491 1875.75 160.967L1874.34 162.382C1871.15 165.566 1866.55 164.859 1863.01 162.382C1860.88 160.613 1858.05 159.198 1855.57 157.783C1850.26 155.307 1844.6 153.892 1838.22 153.892C1830.79 153.892 1825.12 155.307 1820.87 158.491C1816.98 161.321 1815.21 165.212 1815.21 169.812C1815.21 174.411 1816.63 177.948 1819.81 180.425C1823 182.901 1826.89 185.024 1831.85 186.793C1836.81 188.208 1842.12 189.977 1847.43 191.392C1852.74 192.807 1858.05 194.929 1863.01 197.76C1867.96 200.236 1871.86 203.774 1875.04 208.373C1878.23 212.618 1879.65 218.632 1879.65 226.062C1879.65 236.675 1875.75 244.812 1868.32 251.179C1860.88 257.901 1850.97 260.731 1837.87 260.731Z" fill="white"/>
<defs>
<linearGradient id="paint0_linear_339_4849" x1="396.773" y1="35.9439" x2="250.64" y2="164.539" gradientUnits="userSpaceOnUse">
<stop stop-color="#26A69A"/>
<stop offset="1" stop-color="#81C784"/>
</linearGradient>
</defs>
</svg>