<svg width="100" height="100" viewBox="0 0 100 100" fill="none" xmlns="http://www.w3.org/2000/svg">
<g clip-path="url(#clip0_657_2474)">
<mask id="mask0_657_2474" style="mask-type:alpha" maskUnits="userSpaceOnUse" x="0" y="0" width="100" height="100">
<path d="M50 100C77.6142 100 100 77.6142 100 50C100 22.3858 77.6142 0 50 0C22.3858 0 0 22.3858 0 50C0 77.6142 22.3858 100 50 100Z" fill="#D9D9D9"/>
</mask>
<g mask="url(#mask0_657_2474)">
<path d="M0 0H133.121V100H0V0Z" fill="white"/>
<path d="M64 0H133V100H64V0Z" fill="#CF142B"/>
<path d="M27.5 18H37.5V27.499C37.8795 27.4721 38.2713 27.5345 38.6448 27.6814C39.0184 27.8282 39.3638 28.0557 39.6541 28.3459C39.9443 28.6362 40.1718 28.9816 40.3186 29.3552C40.4655 29.7287 40.5279 30.1205 40.501 30.5H50V40.5H40.501C40.5279 40.8795 40.4655 41.2713 40.3186 41.6448C40.1718 42.0184 39.9443 42.3638 39.6541 42.6541C39.3638 42.9443 39.0184 43.1718 38.6448 43.3186C38.2713 43.4655 37.8795 43.5279 37.5 43.501V53H27.5V43.501C27.1205 43.5279 26.7287 43.4655 26.3552 43.3186C25.9816 43.1718 25.6362 42.9443 25.3459 42.6541C25.0557 42.3638 24.8282 42.0184 24.6814 41.6448C24.5345 41.2713 24.4721 40.8795 24.499 40.5H15V30.5H24.499C24.4721 30.1205 24.5345 29.7287 24.6814 29.3552C24.8282 28.9816 25.0557 28.6362 25.3459 28.3459C25.6362 28.0557 25.9816 27.8282 26.3552 27.6814C26.7287 27.5345 27.1205 27.4721 27.5 27.499V18Z" stroke="#CF142B" stroke-width="5.55556"/>
<path d="M37.4414 27.5041C37.8289 27.4671 38.2313 27.524 38.6159 27.6704C39.0004 27.8167 39.3562 28.0483 39.6541 28.3461C39.9519 28.644 40.1835 28.9998 40.3298 29.3843C40.4762 29.7689 40.5332 30.1713 40.4961 30.5588V40.4416C40.5332 40.8291 40.4762 41.2315 40.3298 41.6161C40.1835 42.0006 39.9519 42.3564 39.6541 42.6543C39.3562 42.9521 39.0004 43.1837 38.6159 43.33C38.2313 43.4764 37.8289 43.5334 37.4414 43.4963H27.5586C27.1711 43.5334 26.7687 43.4764 26.3841 43.33C25.9996 43.1837 25.6438 42.9521 25.3459 42.6543C25.0481 42.3564 24.8165 42.0006 24.6702 41.6161C24.5238 41.2315 24.4669 40.8291 24.5039 40.4416V30.5588C24.4669 30.1713 24.5238 29.7689 24.6702 29.3843C24.8165 28.9998 25.0481 28.644 25.3459 28.3461C25.6438 28.0483 25.9996 27.8167 26.3841 27.6704C26.7687 27.524 27.1711 27.4671 27.5586 27.5041H37.4414Z" fill="white"/>
<path d="M27.5586 18.0586H37.4414V52.9414H27.5586V18.0586ZM15.0586 30.5586H49.9414V40.4414H15.0586V30.5586Z" fill="white" stroke="black" stroke-width="0.520833"/>
<path d="M28.125 18.625H36.875V52.375H28.125V18.625ZM15.625 31.125H49.375V39.875H15.625V31.125Z" fill="white" stroke="black" stroke-width="1.04167"/>
<path d="M32.5 43.3125C36.8147 43.3125 40.3125 39.8147 40.3125 35.5C40.3125 31.1853 36.8147 27.6875 32.5 27.6875C28.1853 27.6875 24.6875 31.1853 24.6875 35.5C24.6875 39.8147 28.1853 43.3125 32.5 43.3125Z" fill="white" stroke="black" stroke-width="1.04167"/>
<path d="M32.5 41.2812C35.6929 41.2812 38.2812 38.6929 38.2812 35.5C38.2812 32.3071 35.6929 29.7188 32.5 29.7188C29.3071 29.7188 26.7188 32.3071 26.7188 35.5C26.7188 38.6929 29.3071 41.2812 32.5 41.2812Z" fill="white" stroke="black" stroke-width="1.04167"/>
<path d="M40.0293 29.2378C39.7583 29.4453 39.2431 29.9751 38.9306 30.3633L38.6401 30.1826C39.0381 29.8384 39.5898 29.3281 39.895 28.9644L40.0293 29.2378ZM39.7827 28.7861C39.292 28.9302 38.3545 29.2061 37.9541 29.46L37.8662 29.333C38.0346 29.0913 38.2251 28.0977 38.2178 27.8145L38.5229 27.8828C38.4228 28.127 38.3252 28.6494 38.2983 28.9888C38.6133 28.9326 39.3603 28.6885 39.5727 28.5347L39.7827 28.7861Z" fill="white" stroke="black" stroke-width="0.520833" stroke-linejoin="round"/>
<path d="M40.4122 29.9042H40.025C40.0596 29.6998 40.0041 29.4437 39.8673 29.1775C39.7306 28.9112 39.5207 28.6505 39.2717 28.4374C39.0227 28.2244 38.7491 28.0716 38.4952 28.0037C38.2414 27.9358 38.0222 27.9569 37.8732 28.0635C37.7242 28.17 37.654 28.3559 37.6741 28.5909C37.6943 28.826 37.8035 29.0964 37.984 29.3584C38.1646 29.6204 38.406 29.8587 38.669 30.0345C38.9321 30.2104 39.2015 30.3135 39.4334 30.3273L39.7071 30.0009L40.0443 30.3381L39.6671 30.715C39.3153 30.6627 38.9691 30.5363 38.652 30.3444C38.3348 30.1526 38.054 29.8996 37.8285 29.6027C37.6031 29.3057 37.4383 28.9717 37.3452 28.6233C37.2521 28.2748 37.2329 27.9199 37.2889 27.5827C37.6216 27.5274 37.9714 27.5453 38.3155 27.6352C38.6595 27.7251 38.9899 27.885 39.2849 28.1043C39.5799 28.3236 39.8329 28.5973 40.0272 28.9076C40.2215 29.2178 40.3527 29.5575 40.4122 29.9042Z" fill="white" stroke="black" stroke-width="0.520833" stroke-linejoin="round"/>
<path d="M38.7622 43.0293C38.5547 42.7583 38.0249 42.2432 37.6367 41.9307L37.8174 41.6401C38.1616 42.0381 38.6719 42.5898 39.0356 42.895L38.7622 43.0293ZM39.2139 42.7827C39.0698 42.292 38.7939 41.3545 38.54 40.9541L38.667 40.8662C38.9087 41.0347 39.9023 41.2251 40.1855 41.2178L40.1172 41.5229C39.873 41.4229 39.3506 41.3252 39.0112 41.2983C39.0674 41.6133 39.3115 42.3604 39.4653 42.5728L39.2139 42.7827Z" fill="white" stroke="black" stroke-width="0.520833" stroke-linejoin="round"/>
<path d="M38.0955 43.412V43.0248C38.2999 43.0594 38.556 43.0039 38.8222 42.8672C39.0884 42.7304 39.3492 42.5206 39.5622 42.2715C39.7753 42.0225 39.9281 41.7489 39.996 41.4951C40.0639 41.2412 40.0428 41.022 39.9362 40.873C39.8296 40.724 39.6438 40.6539 39.4087 40.674C39.1737 40.6941 38.9033 40.8033 38.6413 40.9838C38.3793 41.1644 38.141 41.4058 37.9652 41.6689C37.7893 41.9319 37.6861 42.2013 37.6724 42.4333L37.9988 42.7069L37.6616 43.0441L37.2847 42.6669C37.337 42.3151 37.4633 41.969 37.6552 41.6518C37.8471 41.3346 38.1001 41.0538 38.397 40.8284C38.6939 40.6029 39.0279 40.4381 39.3764 40.345C39.7249 40.2519 40.0797 40.2327 40.417 40.2887C40.4723 40.6214 40.4544 40.9713 40.3645 41.3153C40.2746 41.6593 40.1147 41.9897 39.8954 42.2847C39.6761 42.5798 39.4023 42.8327 39.0921 43.027C38.7819 43.2213 38.4422 43.3525 38.0955 43.412Z" fill="white" stroke="black" stroke-width="0.520833" stroke-linejoin="round"/>
<path d="M24.9707 41.7622C25.2417 41.5547 25.7569 41.0249 26.0694 40.6367L26.3599 40.8174C25.9619 41.1616 25.4102 41.6719 25.105 42.0356L24.9707 41.7622ZM25.2173 42.2139C25.708 42.0698 26.6455 41.7939 27.0459 41.54L27.1338 41.667C26.9654 41.9087 26.7749 42.9023 26.7822 43.1855L26.4771 43.1172C26.5772 42.873 26.6748 42.3506 26.7017 42.0112C26.3867 42.0674 25.6397 42.3115 25.4273 42.4653L25.2173 42.2139Z" fill="white" stroke="black" stroke-width="0.520833" stroke-linejoin="round"/>
<path d="M24.5879 41.0955H24.9751C24.9405 41.2999 24.996 41.556 25.1328 41.8222C25.2695 42.0885 25.4794 42.3492 25.7284 42.5623C25.9774 42.7753 26.251 42.9281 26.5049 42.996C26.7587 43.0639 26.9779 43.0428 27.1269 42.9362C27.2759 42.8297 27.3461 42.6438 27.326 42.4088C27.3058 42.1737 27.1966 41.9033 27.0161 41.6413C26.8355 41.3793 26.5941 41.141 26.3311 40.9652C26.068 40.7893 25.7986 40.6862 25.5667 40.6724L25.293 40.9988L24.9558 40.6616L25.333 40.2847C25.6848 40.337 26.031 40.4634 26.3481 40.6553C26.6653 40.8471 26.9461 41.1001 27.1716 41.397C27.397 41.694 27.5618 42.028 27.6549 42.3764C27.748 42.7249 27.7672 43.0798 27.7112 43.417C27.3785 43.4723 27.0287 43.4544 26.6846 43.3645C26.3406 43.2746 26.0102 43.1147 25.7152 42.8954C25.4202 42.6761 25.1672 42.4024 24.9729 42.0921C24.7786 41.7819 24.6474 41.4422 24.5879 41.0955Z" fill="white" stroke="black" stroke-width="0.520833" stroke-linejoin="round"/>
<path d="M26.2378 27.9707C26.4453 28.2417 26.9751 28.7568 27.3633 29.0693L27.1826 29.3599C26.8384 28.9619 26.3281 28.4102 25.9644 28.105L26.2378 27.9707ZM25.7861 28.2173C25.9302 28.708 26.2061 29.6455 26.46 30.0459L26.333 30.1338C26.0913 29.9653 25.0977 29.7749 24.8145 29.7822L24.8828 29.4771C25.127 29.5771 25.6494 29.6748 25.9888 29.7017C25.9326 29.3867 25.6885 28.6396 25.5347 28.4272L25.7861 28.2173Z" fill="white" stroke="black" stroke-width="0.520833" stroke-linejoin="round"/>
<path d="M26.9044 27.5879V27.9751C26.7 27.9405 26.4439 27.996 26.1777 28.1327C25.9115 28.2695 25.6507 28.4793 25.4377 28.7284C25.2246 28.9774 25.0718 29.251 25.0039 29.5048C24.936 29.7587 24.9571 29.9779 25.0637 30.1269C25.1703 30.2759 25.3561 30.346 25.5912 30.3259C25.8262 30.3058 26.0966 30.1966 26.3586 30.0161C26.6206 29.8355 26.8589 29.5941 27.0347 29.331C27.2106 29.068 27.3138 28.7986 27.3275 28.5666L27.0011 28.293L27.3383 27.9558L27.7152 28.333C27.6629 28.6848 27.5366 29.0309 27.3447 29.3481C27.1528 29.6653 26.8998 29.9461 26.6029 30.1715C26.306 30.397 25.972 30.5618 25.6235 30.6549C25.275 30.748 24.9202 30.7672 24.5829 30.7112C24.5276 30.3785 24.5455 30.0286 24.6354 29.6846C24.7253 29.3406 24.8852 29.0102 25.1045 28.7152C25.3238 28.4201 25.5976 28.1672 25.9078 27.9729C26.218 27.7786 26.5577 27.6474 26.9044 27.5879Z" fill="white" stroke="black" stroke-width="0.520833" stroke-linejoin="round"/>
<path d="M26.2964 39.8701C26.1206 39.5625 25.8887 39.1694 25.7617 39.0669C25.8398 39.0132 25.9448 38.9351 25.9985 38.9204C25.9961 39.1157 26.2915 39.521 26.2915 39.521L26.7261 39.2354C26.604 39.0474 26.4966 38.9033 26.4087 38.8472C26.5161 38.769 26.6309 38.7031 26.6626 38.6958C26.665 38.791 26.7212 38.9497 26.8872 39.145C26.8872 39.145 27.2925 38.9302 27.4243 38.7642L27.5952 39.0425C27.4048 39.0791 26.5503 39.6113 26.2964 39.8701ZM25.6934 36.1665C25.2368 36.2495 25.0049 36.6377 25.083 37.0747C25.1611 37.5166 25.5566 37.8193 25.9912 37.7461C26.4258 37.6704 26.6724 37.27 26.5894 36.8062C26.5063 36.3423 26.1499 36.0835 25.6934 36.1665ZM25.7593 36.4302C26.1255 36.3643 26.4331 36.5425 26.4844 36.8257C26.5356 37.1089 26.3086 37.3896 25.9399 37.4556C25.5713 37.5215 25.2783 37.2871 25.2368 37.0503C25.1929 36.8086 25.3906 36.4961 25.7593 36.4302ZM26.6528 33.7446C26.5015 33.9839 26.167 34.2036 25.8716 34.4062C25.8301 34.1963 25.6738 34.062 25.4932 34.0498C25.3003 34.04 25.1025 34.1938 25.0684 34.2964C25.0195 34.438 24.9585 35.0459 24.9585 35.0459C25.3394 35.0166 26.1719 35.0825 26.4575 35.1875L26.4917 34.8652C26.3037 34.9141 25.8789 34.8262 25.8789 34.8262L25.8887 34.6846L26.3281 34.3379C26.3843 34.2939 26.7139 33.9863 26.7236 33.7666C26.7261 33.6982 26.6675 33.7153 26.6528 33.7446ZM25.7715 34.8213C25.5981 34.8262 25.2368 34.8066 25.1367 34.7627C25.1758 34.4136 25.2832 34.2891 25.4688 34.3062C25.6396 34.3232 25.8203 34.4209 25.7715 34.8213ZM27.4365 30.4951C27.1045 30.522 26.6895 30.8345 26.6992 31.103C26.7017 31.2446 26.7505 31.4399 26.9385 31.5815C27.124 31.7231 27.3169 31.7646 27.4707 31.7354C27.6196 31.7085 27.8662 31.501 27.8638 31.3862C27.8638 31.2739 27.6001 30.9614 27.4341 30.9614L27.71 30.666C27.7808 30.8369 28.064 31.0859 28.1689 31.1177C28.0493 31.4033 27.9004 31.7012 27.5879 31.8452C27.2754 31.9917 26.9507 31.9844 26.6553 31.7061C26.377 31.4424 26.4844 30.9346 26.6602 30.7368C26.853 30.5195 27.2119 30.4268 27.2192 30.2583L27.4365 30.4951ZM28.9941 28.8521L29.0527 29.9604C29.0527 29.9604 29.0747 30.3535 28.9844 30.5977L29.3286 30.356C29.1943 30.2485 29.2212 29.9189 29.2212 29.9189L29.7778 29.6211C29.7778 29.6211 30.0415 29.7896 30.0146 29.9946L30.4883 29.8018C30.2124 29.6968 29.8706 29.4551 29.8706 29.4551L28.9941 28.8521ZM29.1724 29.1963L29.6802 29.5332L29.1846 29.7993L29.1724 29.1963ZM31.6577 28.0391C31.5942 28.3101 31.6626 28.8447 31.7627 29.2891C32.1069 29.2573 32.3706 29.2231 32.4878 29.0767L32.5195 29.4429C32.1802 29.4429 31.8066 29.4819 31.4648 29.5356C31.4697 29.0352 31.4185 28.3784 31.2769 28.0952L31.6577 28.0391ZM34.2432 28.2026C34.0845 28.4321 33.9526 28.9546 33.8843 29.4038C34.2163 29.5015 34.4751 29.5649 34.6387 29.4697L34.5337 29.8237C34.2188 29.7017 33.855 29.5991 33.5181 29.5234C33.7036 29.062 33.8965 28.4297 33.8696 28.1172L34.2432 28.2026ZM36.8579 29.3867L35.8911 29.936C35.8911 29.936 35.5493 30.1338 35.2905 30.1631L35.6592 30.3584C35.6958 30.1924 36.0034 30.0679 36.0034 30.0679L36.521 30.4316C36.521 30.4316 36.4868 30.7466 36.2915 30.8125L36.6748 31.1494C36.648 30.8564 36.709 30.439 36.709 30.439L36.8579 29.3867ZM36.6284 29.6992L36.5527 30.3071L36.0913 29.9824L36.6284 29.6992ZM37.3706 31.9746L37.2192 31.689C37.4683 31.6694 38.2178 31.23 38.562 31.0054L38.6157 31.103L38.2935 32.5752C38.5815 32.4604 39.0381 32.2212 39.1626 32.0894L39.3335 32.4141C39.0137 32.3677 38.4204 32.6606 37.9712 32.9341L37.9272 32.856L38.2031 31.4229C38.2031 31.4229 37.4585 31.7598 37.3706 31.9746ZM39.6411 34.1035C39.6118 33.8862 39.6069 33.7373 39.502 33.6885L39.4897 33.5981L39.7559 33.5542C39.8657 33.8398 39.9902 34.6357 39.9731 34.8408L39.6997 34.8848L39.6875 34.8091C39.7778 34.7065 39.6875 34.3306 39.6875 34.3306C39.2822 34.3721 38.5767 34.4868 38.4766 34.626L38.4131 34.25C38.5571 34.2988 39.2676 34.2231 39.6411 34.1035ZM38.3301 37.3359C38.4814 37.0967 38.8208 36.8794 39.1162 36.6792C39.1577 36.8892 39.3115 37.0259 39.4946 37.0356C39.6875 37.0479 39.8853 36.8989 39.9194 36.7939C39.9707 36.6523 40.0342 36.0469 40.0342 36.0469C39.6533 36.0713 38.8232 36.0005 38.5376 35.8931L38.501 36.2153C38.689 36.1689 39.1138 36.2568 39.1138 36.2568L39.104 36.3984L38.6621 36.7427C38.6035 36.7866 38.2715 37.0918 38.2593 37.3115C38.2568 37.3799 38.3154 37.3604 38.3301 37.3359ZM39.2212 36.2642C39.3945 36.2617 39.7559 36.2837 39.856 36.3276C39.8145 36.6768 39.7046 36.8013 39.519 36.7817C39.3481 36.7622 39.1699 36.6646 39.2212 36.2642ZM37.8394 38.3052L37.6123 38.6958C37.7881 38.6689 38.0322 38.8081 38.23 38.9375C38.2959 39.1133 38.5547 39.5625 38.5352 40.002L38.8281 39.499C38.6987 39.4404 38.5474 39.377 38.4497 38.9058C38.8355 38.7617 39.1235 38.7153 39.2456 38.7837L39.5044 38.3442C39.2041 38.5249 38.4985 38.7104 38.3813 38.6714C38.2593 38.6006 37.9126 38.4932 37.8394 38.3052Z" fill="black"/>
<path d="M36.1011 41.5693C36.2696 41.5693 36.4062 41.4327 36.4062 41.2642C36.4062 41.0956 36.2696 40.959 36.1011 40.959C35.9325 40.959 35.7959 41.0956 35.7959 41.2642C35.7959 41.4327 35.9325 41.5693 36.1011 41.5693Z" fill="black"/>
<path d="M28.8991 41.5693C29.0677 41.5693 29.2043 41.4327 29.2043 41.2642C29.2043 41.0956 29.0677 40.959 28.8991 40.959C28.7306 40.959 28.594 41.0956 28.594 41.2642C28.594 41.4327 28.7306 41.5693 28.8991 41.5693Z" fill="black"/>
<path d="M32.9761 42.9512C32.9444 42.9731 32.8589 42.9292 32.8394 42.8608C32.8394 42.8828 32.8345 42.9512 32.793 42.9902C32.6929 43.0854 32.5855 43.0391 32.5 43.0391C32.4146 43.0391 32.3072 43.0854 32.2071 42.9902C32.1656 42.9512 32.1607 42.8828 32.1607 42.8608C32.1412 42.9292 32.0557 42.9731 32.024 42.9512C31.9947 42.9292 32.0093 42.834 32.0679 42.7949C32.0484 42.7998 31.98 42.8169 31.9312 42.79C31.8091 42.7241 31.8213 42.6069 31.7945 42.5264C31.7676 42.4458 31.6895 42.3579 31.7505 42.2334C31.775 42.1821 31.8384 42.1553 31.858 42.1479C31.7872 42.1504 31.7212 42.082 31.731 42.0479C31.7432 42.0112 31.8384 41.9966 31.8946 42.0405C31.8799 42.0234 31.8458 41.9648 31.8555 41.9087C31.8799 41.772 31.9947 41.7476 32.063 41.6963C32.1338 41.645 32.1924 41.5449 32.3291 41.5645C32.3853 41.5718 32.4292 41.623 32.4439 41.6401C32.4195 41.5742 32.4634 41.4888 32.5 41.4888C32.5367 41.4888 32.5806 41.5742 32.5562 41.6401C32.5708 41.623 32.6148 41.5718 32.6709 41.5645C32.8077 41.5449 32.8663 41.645 32.9371 41.6963C33.0054 41.7476 33.1202 41.772 33.1446 41.9087C33.1543 41.9648 33.1202 42.0234 33.1055 42.0405C33.1617 41.9966 33.2569 42.0112 33.2691 42.0479C33.2789 42.082 33.2129 42.1504 33.1421 42.1479C33.1617 42.1553 33.2251 42.1821 33.2496 42.2334C33.3106 42.3579 33.2325 42.4458 33.2056 42.5264C33.1788 42.6069 33.191 42.7241 33.0689 42.79C33.0201 42.8169 32.9517 42.7998 32.9322 42.7949C32.9908 42.834 33.0054 42.9292 32.9761 42.9512ZM32.273 42.6094C32.3121 42.6387 32.2071 42.7266 32.2486 42.8364C32.295 42.9658 32.4244 42.9268 32.5 42.9268C32.5757 42.9268 32.7051 42.9658 32.7515 42.8364C32.793 42.7266 32.688 42.6387 32.7271 42.6094C32.7662 42.5801 32.8199 42.707 32.9346 42.7046C33.0738 42.6973 33.0762 42.5654 33.0982 42.4922C33.1226 42.4189 33.2007 42.3091 33.0909 42.2236C33.0005 42.1504 32.8809 42.2236 32.8663 42.1772C32.8516 42.1309 32.9883 42.1211 33.0225 42.0088C33.0591 41.8745 32.9322 41.833 32.8711 41.7866C32.8077 41.7427 32.7271 41.6353 32.6124 41.7109C32.5171 41.7769 32.5489 41.9111 32.5 41.9111C32.4512 41.9111 32.483 41.7769 32.3877 41.7109C32.273 41.6353 32.1924 41.7427 32.129 41.7866C32.0679 41.833 31.941 41.8745 31.9776 42.0088C32.0118 42.1211 32.1485 42.1309 32.1338 42.1772C32.1192 42.2236 31.9996 42.1504 31.9092 42.2236C31.7994 42.3091 31.8775 42.4189 31.9019 42.4922C31.9239 42.5654 31.9263 42.6973 32.0655 42.7046C32.1802 42.707 32.2339 42.5801 32.273 42.6094Z" fill="black"/>
<path d="M32.5 42.7827C32.4781 42.7827 32.4512 42.7314 32.4659 42.6899C32.4585 42.7021 32.4317 42.7314 32.3975 42.7363C32.3145 42.7485 32.2803 42.6875 32.2388 42.6582C32.1973 42.6265 32.129 42.6118 32.1143 42.5313C32.107 42.4971 32.129 42.4604 32.1363 42.4507C32.1021 42.4775 32.0459 42.4678 32.0386 42.4458C32.0313 42.4263 32.0728 42.3848 32.1143 42.3848C32.1021 42.3823 32.0655 42.3652 32.0508 42.3359C32.0142 42.2603 32.0606 42.209 32.0777 42.1602C32.0923 42.1113 32.085 42.0405 32.1583 42.0015C32.1875 41.9844 32.2291 41.9941 32.2413 41.999C32.2046 41.9746 32.1973 41.9185 32.2144 41.9038C32.2339 41.8916 32.2852 41.9185 32.2974 41.9575C32.2974 41.9453 32.2999 41.9038 32.3243 41.8818C32.3853 41.8232 32.4488 41.8525 32.5 41.8525C32.5513 41.8525 32.6148 41.8232 32.6758 41.8818C32.7002 41.9038 32.7027 41.9453 32.7027 41.9575C32.7149 41.9185 32.7662 41.8916 32.7857 41.9038C32.8028 41.9185 32.7955 41.9746 32.7588 41.999C32.771 41.9941 32.8125 41.9844 32.8418 42.0015C32.9151 42.0405 32.9078 42.1113 32.9224 42.1602C32.9395 42.209 32.9859 42.2603 32.9493 42.3359C32.9346 42.3652 32.898 42.3823 32.8858 42.3848C32.9273 42.3848 32.9688 42.4263 32.9615 42.4458C32.9541 42.4678 32.898 42.4775 32.8638 42.4507C32.8711 42.4604 32.8931 42.4971 32.8858 42.5313C32.8711 42.6118 32.8028 42.6265 32.7613 42.6582C32.7198 42.6875 32.6856 42.7485 32.6026 42.7363C32.5684 42.7314 32.5416 42.7021 32.5342 42.6899C32.5489 42.7314 32.522 42.7827 32.5 42.7827ZM32.5 42.5044C32.5269 42.5044 32.5098 42.5776 32.5611 42.6118C32.6221 42.6533 32.6661 42.5972 32.7002 42.5728C32.7344 42.5483 32.8028 42.5239 32.7808 42.4531C32.7637 42.3921 32.6905 42.3872 32.6978 42.3604C32.7051 42.3359 32.7686 42.375 32.8199 42.3359C32.8785 42.2896 32.837 42.231 32.8248 42.1919C32.8101 42.1528 32.8101 42.0796 32.7344 42.0771C32.6709 42.0747 32.6441 42.1431 32.6221 42.1284C32.6001 42.1138 32.6587 42.0649 32.6368 42.0063C32.6099 41.9355 32.5416 41.9575 32.5 41.9575C32.4585 41.9575 32.3902 41.9355 32.3633 42.0063C32.3414 42.0649 32.4 42.1138 32.378 42.1284C32.356 42.1431 32.3291 42.0747 32.2657 42.0771C32.19 42.0796 32.19 42.1528 32.1753 42.1919C32.1631 42.231 32.1216 42.2896 32.1802 42.3359C32.2315 42.375 32.295 42.3359 32.3023 42.3604C32.3096 42.3872 32.2364 42.3921 32.2193 42.4531C32.1973 42.5239 32.2657 42.5483 32.2999 42.5728C32.334 42.5972 32.378 42.6533 32.439 42.6118C32.4903 42.5776 32.4732 42.5044 32.5 42.5044Z" fill="black"/>
<path d="M32.5 42.4141C32.5647 42.4141 32.6172 42.3616 32.6172 42.2969C32.6172 42.2322 32.5647 42.1797 32.5 42.1797C32.4353 42.1797 32.3828 42.2322 32.3828 42.2969C32.3828 42.3616 32.4353 42.4141 32.5 42.4141Z" fill="black"/>
<path d="M28.5205 39.6944C31.1724 39.5862 33.8276 39.5862 36.4795 39.6944" stroke="black" stroke-width="0.520833" stroke-linecap="round" stroke-linejoin="round"/>
<path d="M32.2021 32.6338C32.3828 32.834 32.4024 32.8853 32.4024 32.8853M32.7369 36.0664C32.7247 36.2739 32.7345 36.4888 32.7687 36.5986M32.2364 36.1006C32.3146 36.186 32.4195 36.4814 32.4049 36.5913" stroke="black" stroke-width="0.260417" stroke-linecap="round" stroke-linejoin="round"/>
<path d="M33.8843 39.6626C33.7891 39.6919 33.6231 39.7871 33.6255 39.8726C33.628 39.9556 33.8233 39.9678 33.8819 39.9849C33.7769 40.0288 33.4424 40.0923 33.2935 40.0166C33.1861 40.0801 32.4195 39.9043 32.2632 39.8994C32.1656 39.897 32.0264 39.814 32.0435 39.626C32.0459 39.5845 32.0728 39.4893 32.1656 39.4575C32.1119 39.3647 32.3487 39.2085 32.583 39.0669C32.2315 39.1133 31.7896 38.9766 31.6773 38.8423C31.4087 38.7495 31.2915 38.8398 31.1792 39.0742C31.189 39.4771 30.9644 39.6675 30.6958 39.6357C30.5127 39.6138 30.4737 39.6992 30.4248 39.7188L30.9717 39.8872C31.3282 40.2314 31.1182 40.4829 31.0401 40.5464C30.9644 40.6074 30.7618 40.5781 30.6421 40.5781C30.5225 40.5781 30.5201 40.6147 30.4688 40.6416C30.3833 40.6855 30.2979 40.71 30.2613 40.6709C30.2832 40.6147 30.3174 40.395 30.4639 40.3608C30.5518 40.3535 30.7105 40.312 30.7154 40.229C30.7178 40.1484 30.4224 40.1606 30.1905 40.0728C29.9952 39.9995 29.9292 39.8994 30 39.5942C30.0562 39.2549 30.4541 39.2158 30.647 39.2134C30.6202 39.0693 30.6372 38.8203 30.8179 38.6567C31.0816 38.415 31.4893 38.5029 31.836 38.5249C32.0337 38.415 32.3999 38.2515 32.7588 38.2368C33.0811 38.2246 34.5093 37.856 35.1587 37.9268C35.0122 37.7095 35.0464 37.1968 35.3125 37.0454C35.6519 36.855 36.0181 37.3701 36.106 37.2798C36.1939 37.187 35.9961 37.0527 35.7471 36.7939C35.6861 36.6792 35.6983 36.6938 35.6958 36.6572C35.691 36.5742 35.7105 36.4741 35.7422 36.4521C35.7715 36.4326 35.9742 36.5083 36.023 36.5815C36.0889 36.6816 36.1719 36.728 36.2378 36.6743C36.3233 36.6084 36.2134 36.6328 36.1646 36.4888C36.1402 36.418 36.084 36.3618 36.0865 36.291C36.1353 36.2349 36.3257 36.0786 36.4746 36.0298C36.5357 36.0884 36.5747 36.1665 36.6236 36.2446C36.7432 36.4253 36.8531 36.3765 36.9336 36.4985C36.9629 36.5474 36.9629 36.6768 37.0215 36.7866C37.1265 36.9893 37.334 37.2188 37.6075 37.3823C37.649 37.4092 37.7076 37.4604 37.7124 37.502C37.7198 37.5654 37.6685 37.6289 37.6441 37.6582C37.6099 37.7021 37.4878 37.7046 37.3706 37.6484C37.1924 37.563 37.1289 37.519 37.024 37.5337C36.7945 37.5679 36.6431 37.9341 36.3184 37.939C36.0108 37.895 35.8033 37.4531 35.6226 37.5825C35.4444 37.7119 36.0425 38.0903 35.9693 38.249C36.0205 38.2881 36.1036 38.4199 36.084 38.5298C36.3892 38.4639 36.6333 38.2563 36.7237 38.0879C36.8799 37.8706 37.0044 37.7485 37.0972 37.7095C37.1875 37.6704 37.3047 37.7266 37.3047 37.7974C37.3389 37.79 37.3902 37.8315 37.4537 37.8413C37.5464 37.8853 37.5098 37.9756 37.4829 38.0073C37.4805 37.9927 37.4317 37.9756 37.3853 37.9536C37.3365 37.9341 37.2608 37.9951 37.19 38.0537C37.1192 38.1099 37.0679 38.2466 36.9971 38.3345C36.9263 38.4199 36.7432 38.5957 36.6651 38.6909C36.709 38.7568 36.6871 38.8789 36.6944 38.9375C36.7115 38.9375 36.7701 38.9521 36.8042 38.9766C36.836 39.001 36.8311 39.0278 36.8164 39.0938C36.7945 39.1743 36.4917 39.5356 36.4038 39.5332C36.2696 39.5332 36.1841 39.3745 36.1963 39.3086C36.0498 39.377 35.9839 39.2158 35.979 39.1572C35.9229 39.2329 35.7007 39.355 35.6202 39.3843C35.542 39.4136 35.5103 39.4233 35.4859 39.3184C35.4615 39.3892 35.2637 39.4624 35.2173 39.4722C34.961 39.5234 34.6997 39.6357 34.4458 39.6333L33.8233 39.6211L33.8843 39.6626Z" fill="white" stroke="black" stroke-width="0.390625" stroke-linecap="round" stroke-linejoin="round"/>
<path d="M34.7632 37.2967C34.7656 37.3944 34.624 37.6458 34.8316 37.8241C34.9585 37.9315 35.1807 38.0218 35.2539 38.161C35.315 38.2782 35.2295 38.3832 35.2027 38.3758C35.0659 38.3465 34.8853 38.5833 34.8193 38.7445C34.7437 38.5174 34.5947 38.5736 34.4043 38.6053C34.4556 38.3685 34.2652 38.2196 33.9722 38.1805C34.021 38.1317 33.9404 38.056 33.8696 37.9925C33.7964 37.9291 33.5669 37.9803 33.5449 37.9291C33.523 37.8778 33.6548 37.7801 33.5889 37.6751C33.5254 37.5677 33.2495 37.6312 33.1616 37.5946C33.1812 37.4627 33.1958 37.3895 33.1299 37.2723C33.0615 37.1527 32.7515 37.1893 32.6001 37.1551C32.7246 37.0672 32.7808 36.9378 32.7124 36.7962C32.6416 36.6498 32.3145 36.8231 32.3169 36.6278C32.3267 36.5594 32.7002 36.5033 32.8516 36.4935C32.9907 36.4862 33.479 36.5985 33.9331 36.7083C34.0405 36.7987 34.7534 37.0184 34.7632 37.2967Z" fill="white" stroke="black" stroke-width="0.238715" stroke-linecap="round" stroke-linejoin="round"/>
<path d="M35.979 39.1572C36.2061 39.0449 36.4282 38.8984 36.665 38.6909M32.4072 38.5176C32.6123 38.5273 33.0542 38.5933 33.1812 38.7617C33.3081 38.9326 33.3887 39.2036 32.5073 39.4331C32.771 39.4355 33.1665 39.3696 33.3057 39.4038C33.4302 39.3818 33.7134 39.2891 33.833 39.3281C33.7866 39.3501 33.6377 39.3916 33.6328 39.4795C33.6279 39.5674 33.6963 39.582 33.8232 39.6211M34.6729 39.0303C34.978 39.0889 35.4224 38.9985 35.4858 39.3184" stroke="black" stroke-width="0.390625" stroke-linecap="round" stroke-linejoin="round"/>
<path d="M35.708 36.5376C35.8032 36.6304 36.0327 36.7915 36.1572 36.8794C36.3208 36.9941 36.3965 36.8501 36.2695 36.6426" stroke="black" stroke-width="0.260417" stroke-linecap="round" stroke-linejoin="round"/>
<path d="M33.5449 37.929C33.855 37.8655 34.2969 37.8021 34.5581 37.8143M33.1616 37.5946C33.6475 37.4627 34.1797 37.5189 34.5142 37.5238M34.4263 38.5858C34.5166 38.471 34.7192 38.3074 34.873 38.1683M33.9746 38.178C34.1235 38.117 34.4043 38.012 34.6387 37.9705M33.9331 36.7083C34.1943 36.452 34.502 36.4886 34.7949 36.3323C34.9707 36.242 35.1221 35.9905 35.3003 35.8172C35.3809 35.7489 35.4395 35.6951 35.6421 35.7122C35.8545 35.7293 35.8813 35.7952 35.6079 35.827C35.4126 35.8514 35.4053 35.9466 35.3271 36.0955C35.2612 36.2225 35.3247 36.3714 35.3638 36.4739C35.3149 36.5765 35.2539 36.723 35.2368 36.8353C35.2271 36.8914 35.2515 36.9354 35.3198 37.0184M32.6001 37.1551C33.2861 37.0062 34.27 37.2625 34.4556 37.2747" stroke="black" stroke-width="0.238715" stroke-linecap="round" stroke-linejoin="round"/>
<path d="M36.7847 38.2417C37.0068 38.1221 37.0093 37.895 37.3047 37.7974M36.1963 39.3086C36.4795 39.1743 36.5405 39.0596 36.6943 38.9375M36.897 37.1772C36.7627 37.1968 36.7407 37.0869 36.6089 37.0649C36.4673 37.0381 36.3721 37.1309 36.3721 37.2163C36.3721 37.3042 36.46 37.3799 36.5479 37.3848C36.6357 37.3896 36.709 37.3262 36.8921 37.3457M36.2524 36.1592C36.3599 36.1689 36.4697 36.1885 36.5503 36.1152M36.8335 36.6621C36.8115 36.6841 36.7407 36.6548 36.7065 36.6133C36.6748 36.5693 36.6577 36.5107 36.6846 36.4839C36.709 36.4595 36.748 36.4644 36.8066 36.5132C36.8652 36.562 36.8555 36.6377 36.8335 36.6621Z" stroke="black" stroke-width="0.173611" stroke-linecap="round" stroke-linejoin="round"/>
<path d="M32.6488 33.8595C32.6419 33.8632 32.6333 33.8611 32.625 33.8534C32.6167 33.8458 32.6092 33.8333 32.6044 33.8187C32.5995 33.8042 32.5976 33.7887 32.5991 33.7757C32.6006 33.7628 32.6053 33.7534 32.6122 33.7496C32.6047 33.7523 32.5959 33.7488 32.5877 33.74C32.5794 33.7311 32.5724 33.7176 32.5682 33.7024C32.564 33.6872 32.5629 33.6715 32.5652 33.6588C32.5675 33.6462 32.573 33.6376 32.5805 33.6349C32.5768 33.6364 32.5728 33.6364 32.5686 33.635C32.5644 33.6335 32.5602 33.6306 32.5561 33.6263C32.5521 33.6221 32.5483 33.6166 32.545 33.6102C32.5416 33.6039 32.5389 33.5967 32.5368 33.5892C32.5347 33.5816 32.5333 33.5739 32.5328 33.5663C32.5323 33.5588 32.5326 33.5516 32.5337 33.5452C32.5348 33.5388 32.5367 33.5333 32.5393 33.529C32.5419 33.5247 32.5451 33.5217 32.5487 33.5201C32.545 33.5217 32.5409 33.5217 32.5367 33.5203C32.5326 33.5188 32.5284 33.5158 32.5244 33.5115C32.5204 33.5071 32.5167 33.5016 32.5135 33.4951C32.5103 33.4886 32.5076 33.4813 32.5057 33.4736C32.5038 33.4659 32.5026 33.4579 32.5022 33.4502C32.5019 33.4425 32.5024 33.4352 32.5036 33.4286C32.5062 33.4154 32.5119 33.4061 32.5194 33.4029C32.5117 33.4058 32.5029 33.4023 32.4949 33.3931C32.4869 33.384 32.4804 33.3699 32.4768 33.354C32.4733 33.3382 32.4729 33.3218 32.4759 33.3085C32.4788 33.2953 32.4848 33.2862 32.4926 33.2833C32.4848 33.2858 32.4761 33.2818 32.4686 33.2724C32.461 33.2629 32.4551 33.2486 32.4522 33.2328C32.4493 33.2169 32.4496 33.2007 32.453 33.1878C32.4565 33.1748 32.4628 33.1661 32.4706 33.1637C32.4666 33.1648 32.4625 33.1642 32.4583 33.1622C32.4542 33.1601 32.4502 33.1565 32.4464 33.1516C32.4427 33.1467 32.4395 33.1406 32.4368 33.1336C32.4341 33.1266 32.432 33.1189 32.4307 33.1109C32.4294 33.1029 32.429 33.0947 32.4293 33.0869C32.4296 33.0791 32.4307 33.0717 32.4326 33.0653C32.4365 33.0523 32.4431 33.0438 32.4511 33.0416C32.4429 33.044 32.4342 33.0397 32.4268 33.0297C32.4195 33.0196 32.4141 33.0047 32.4118 32.9882C32.4095 32.9717 32.4106 32.9549 32.4148 32.9416C32.4189 32.9283 32.4258 32.9194 32.434 32.9171C32.4259 32.9191 32.4176 32.9145 32.4108 32.9044C32.4039 32.8944 32.3992 32.8796 32.3976 32.8635C32.396 32.8473 32.3976 32.831 32.4021 32.8181C32.4067 32.8053 32.4137 32.797 32.4218 32.795C32.4135 32.7965 32.4052 32.7914 32.3987 32.7808C32.3922 32.7702 32.388 32.755 32.387 32.7385C32.3861 32.7219 32.3884 32.7055 32.3936 32.6928C32.3987 32.68 32.4062 32.672 32.4144 32.6705C32.4062 32.6722 32.398 32.6673 32.3917 32.6569C32.3853 32.6464 32.3814 32.6313 32.3808 32.6148C32.3801 32.5983 32.3828 32.5817 32.3882 32.5688C32.3936 32.5559 32.4013 32.5477 32.4096 32.546C32.4011 32.5471 32.393 32.5415 32.3872 32.5304C32.3815 32.5193 32.3784 32.5035 32.3787 32.4867C32.379 32.4699 32.3827 32.4533 32.389 32.4406C32.3952 32.4279 32.4035 32.4202 32.412 32.419C32.4036 32.4197 32.396 32.4138 32.3907 32.4025C32.3855 32.3913 32.3831 32.3757 32.3841 32.3592C32.3851 32.3427 32.3893 32.3266 32.3959 32.3145C32.4025 32.3024 32.411 32.2952 32.4193 32.2945C32.4108 32.2952 32.4033 32.2892 32.3985 32.278C32.3936 32.2668 32.3918 32.2512 32.3934 32.2347C32.3951 32.2182 32.4 32.2021 32.4071 32.19C32.4143 32.1779 32.423 32.1707 32.4315 32.17C32.4228 32.1701 32.4155 32.1636 32.4111 32.1518C32.4068 32.1399 32.4058 32.1238 32.4084 32.107C32.411 32.0902 32.417 32.074 32.425 32.062C32.433 32.05 32.4423 32.0432 32.4511 32.0431C32.4425 32.0425 32.4357 32.0354 32.4321 32.0233C32.4286 32.0112 32.4286 31.9952 32.4321 31.9787C32.4357 31.9621 32.4425 31.9465 32.4511 31.9353C32.4597 31.924 32.4693 31.918 32.4779 31.9186C32.4737 31.9181 32.4699 31.9161 32.4668 31.9127C32.4638 31.9092 32.4615 31.9043 32.4601 31.8984C32.4572 31.8863 32.4581 31.8704 32.4627 31.8542C32.4649 31.8462 32.468 31.8384 32.4717 31.8311C32.4754 31.8239 32.4796 31.8174 32.4842 31.812C32.4935 31.8012 32.5035 31.7956 32.5121 31.7965C32.5077 31.796 32.5039 31.7939 32.5009 31.7904C32.4979 31.7868 32.4958 31.7819 32.4946 31.7759C32.4935 31.7699 32.4933 31.7629 32.4941 31.7553C32.495 31.7477 32.4968 31.7396 32.4996 31.7316C32.5023 31.7236 32.5058 31.7158 32.51 31.7086C32.5142 31.7013 32.519 31.6949 32.524 31.6896C32.529 31.6843 32.5342 31.6802 32.5393 31.6776C32.5444 31.675 32.5492 31.6739 32.5536 31.6744C32.5446 31.6727 32.5387 31.6647 32.5372 31.6521C32.5357 31.6394 32.5386 31.6233 32.5454 31.6071C32.5522 31.5909 32.5623 31.576 32.5734 31.5658C32.5846 31.5555 32.5959 31.5507 32.6049 31.5523C32.596 31.5499 32.5907 31.5412 32.5901 31.5283C32.5896 31.5153 32.5938 31.4991 32.6019 31.4832C32.61 31.4674 32.6213 31.4531 32.6333 31.4437C32.6453 31.4342 32.657 31.4303 32.6659 31.4327C32.6574 31.4293 32.653 31.42 32.6536 31.4068C32.6542 31.3936 32.6599 31.3777 32.6693 31.3624C32.6786 31.3472 32.691 31.334 32.7037 31.3257C32.7163 31.3173 32.7282 31.3145 32.7367 31.318C32.7324 31.3161 32.7291 31.3128 32.7271 31.3083C32.7251 31.3038 32.7244 31.2981 32.7251 31.2915C32.7264 31.2784 32.7332 31.2626 32.7439 31.2477C32.7546 31.2328 32.7683 31.22 32.7821 31.2121C32.7958 31.2042 32.8085 31.2019 32.8173 31.2057C32.8091 31.2007 32.8061 31.1905 32.8091 31.1771C32.812 31.1638 32.8205 31.1485 32.8328 31.1346C32.8451 31.1206 32.8602 31.1092 32.8747 31.1029C32.8891 31.0965 32.9019 31.0957 32.91 31.1007C32.9017 31.0952 32.8992 31.0846 32.9029 31.0711C32.9066 31.0576 32.9164 31.0424 32.93 31.0288C32.9436 31.0152 32.9599 31.0043 32.9754 30.9986C32.9909 30.9928 33.0043 30.9927 33.0126 30.9981" fill="white"/>
<path d="M32.6488 33.8595C32.6419 33.8632 32.6333 33.8611 32.625 33.8534C32.6167 33.8458 32.6092 33.8333 32.6044 33.8187C32.5995 33.8042 32.5976 33.7887 32.5991 33.7757C32.6006 33.7628 32.6053 33.7534 32.6122 33.7496C32.6047 33.7523 32.5959 33.7488 32.5877 33.74C32.5794 33.7311 32.5724 33.7176 32.5682 33.7024C32.564 33.6872 32.5629 33.6715 32.5652 33.6588C32.5675 33.6462 32.573 33.6376 32.5805 33.6349C32.5768 33.6364 32.5728 33.6364 32.5686 33.635C32.5644 33.6335 32.5602 33.6306 32.5561 33.6263C32.5521 33.6221 32.5483 33.6166 32.545 33.6102C32.5416 33.6039 32.5389 33.5967 32.5368 33.5892C32.5347 33.5816 32.5333 33.5739 32.5328 33.5663C32.5323 33.5588 32.5326 33.5516 32.5337 33.5452C32.5348 33.5388 32.5367 33.5333 32.5393 33.529C32.5419 33.5247 32.5451 33.5217 32.5487 33.5201C32.545 33.5217 32.5409 33.5217 32.5367 33.5203C32.5326 33.5188 32.5284 33.5158 32.5244 33.5115C32.5204 33.5071 32.5167 33.5016 32.5135 33.4951C32.5103 33.4886 32.5076 33.4813 32.5057 33.4736C32.5038 33.4659 32.5026 33.4579 32.5022 33.4502C32.5019 33.4425 32.5024 33.4352 32.5036 33.4286C32.5062 33.4154 32.5119 33.4061 32.5194 33.4029C32.5117 33.4058 32.5029 33.4023 32.4949 33.3931C32.4869 33.384 32.4804 33.3699 32.4768 33.354C32.4733 33.3382 32.4729 33.3218 32.4759 33.3085C32.4788 33.2953 32.4848 33.2862 32.4926 33.2833C32.4848 33.2858 32.4761 33.2818 32.4686 33.2724C32.461 33.2629 32.4551 33.2486 32.4522 33.2328C32.4493 33.2169 32.4496 33.2007 32.453 33.1878C32.4565 33.1748 32.4628 33.1661 32.4706 33.1637C32.4666 33.1648 32.4625 33.1642 32.4583 33.1622C32.4542 33.1601 32.4502 33.1565 32.4464 33.1516C32.4427 33.1467 32.4395 33.1406 32.4368 33.1336C32.4341 33.1266 32.432 33.1189 32.4307 33.1109C32.4294 33.1029 32.429 33.0947 32.4293 33.0869C32.4296 33.0791 32.4307 33.0717 32.4326 33.0653C32.4365 33.0523 32.4431 33.0438 32.4511 33.0416C32.4429 33.044 32.4342 33.0397 32.4268 33.0297C32.4195 33.0196 32.4141 33.0047 32.4118 32.9882C32.4095 32.9717 32.4106 32.9549 32.4148 32.9416C32.4189 32.9283 32.4258 32.9194 32.434 32.9171C32.4259 32.9191 32.4176 32.9145 32.4108 32.9044C32.4039 32.8944 32.3992 32.8796 32.3976 32.8635C32.396 32.8473 32.3976 32.831 32.4021 32.8181C32.4067 32.8053 32.4137 32.797 32.4218 32.795C32.4135 32.7965 32.4052 32.7914 32.3987 32.7808C32.3922 32.7702 32.388 32.755 32.387 32.7385C32.3861 32.7219 32.3884 32.7055 32.3936 32.6928C32.3987 32.68 32.4062 32.672 32.4144 32.6705C32.4062 32.6722 32.398 32.6673 32.3917 32.6569C32.3853 32.6464 32.3814 32.6313 32.3808 32.6148C32.3801 32.5983 32.3828 32.5817 32.3882 32.5688C32.3936 32.5559 32.4013 32.5477 32.4096 32.546C32.4011 32.5471 32.393 32.5415 32.3872 32.5304C32.3815 32.5193 32.3784 32.5035 32.3787 32.4867C32.379 32.4699 32.3827 32.4533 32.389 32.4406C32.3952 32.4279 32.4035 32.4202 32.412 32.419C32.4036 32.4197 32.396 32.4138 32.3907 32.4025C32.3855 32.3913 32.3831 32.3757 32.3841 32.3592C32.3851 32.3427 32.3893 32.3266 32.3959 32.3145C32.4025 32.3024 32.411 32.2952 32.4193 32.2945C32.4108 32.2952 32.4033 32.2892 32.3985 32.278C32.3936 32.2668 32.3918 32.2512 32.3934 32.2347C32.3951 32.2182 32.4 32.2021 32.4071 32.19C32.4143 32.1779 32.423 32.1707 32.4315 32.17C32.4228 32.1701 32.4155 32.1636 32.4111 32.1518C32.4068 32.1399 32.4058 32.1238 32.4084 32.107C32.411 32.0902 32.417 32.074 32.425 32.062C32.433 32.05 32.4423 32.0432 32.4511 32.0431C32.4425 32.0425 32.4357 32.0354 32.4321 32.0233C32.4286 32.0112 32.4286 31.9952 32.4321 31.9787C32.4357 31.9621 32.4425 31.9465 32.4511 31.9353C32.4597 31.924 32.4693 31.918 32.4779 31.9186C32.4737 31.9181 32.4699 31.9161 32.4668 31.9127C32.4638 31.9092 32.4615 31.9043 32.4601 31.8984C32.4572 31.8863 32.4581 31.8704 32.4627 31.8542C32.4649 31.8462 32.468 31.8384 32.4717 31.8311C32.4754 31.8239 32.4796 31.8174 32.4842 31.812C32.4935 31.8012 32.5035 31.7956 32.5121 31.7965C32.5077 31.796 32.5039 31.7939 32.5009 31.7904C32.4979 31.7868 32.4958 31.7819 32.4946 31.7759C32.4935 31.7699 32.4933 31.7629 32.4941 31.7553C32.495 31.7477 32.4968 31.7396 32.4996 31.7316C32.5023 31.7236 32.5058 31.7158 32.51 31.7086C32.5142 31.7013 32.519 31.6949 32.524 31.6896C32.529 31.6843 32.5342 31.6802 32.5393 31.6776C32.5444 31.675 32.5492 31.6739 32.5536 31.6744C32.5446 31.6727 32.5387 31.6647 32.5372 31.6521C32.5357 31.6394 32.5386 31.6233 32.5454 31.6071C32.5522 31.5909 32.5623 31.576 32.5734 31.5658C32.5846 31.5555 32.5959 31.5507 32.6049 31.5523C32.596 31.5499 32.5907 31.5412 32.5901 31.5283C32.5896 31.5153 32.5938 31.4991 32.6019 31.4832C32.61 31.4674 32.6213 31.4531 32.6333 31.4437C32.6453 31.4342 32.657 31.4303 32.6659 31.4327C32.6574 31.4293 32.653 31.42 32.6536 31.4068C32.6542 31.3936 32.6599 31.3777 32.6693 31.3624C32.6786 31.3472 32.691 31.334 32.7037 31.3257C32.7163 31.3173 32.7282 31.3145 32.7367 31.318C32.7324 31.3161 32.7291 31.3128 32.7271 31.3083C32.7251 31.3038 32.7244 31.2981 32.7251 31.2915C32.7264 31.2784 32.7332 31.2626 32.7439 31.2477C32.7546 31.2328 32.7683 31.22 32.7821 31.2121C32.7958 31.2042 32.8085 31.2019 32.8173 31.2057C32.8091 31.2007 32.8061 31.1905 32.8091 31.1771C32.812 31.1638 32.8205 31.1485 32.8328 31.1346C32.8451 31.1206 32.8602 31.1092 32.8747 31.1029C32.8891 31.0965 32.9019 31.0957 32.91 31.1007C32.9017 31.0952 32.8992 31.0846 32.9029 31.0711C32.9066 31.0576 32.9164 31.0424 32.93 31.0288C32.9436 31.0152 32.9599 31.0043 32.9754 30.9986C32.9909 30.9928 33.0043 30.9927 33.0126 30.9981" stroke="black" stroke-width="0.108507" stroke-linecap="round" stroke-linejoin="round"/>
<path d="M32.7881 33.8179L32.6489 33.8594M32.7637 33.708L32.6123 33.7495M32.7417 33.5957L32.5806 33.6348M32.7197 33.481L32.5488 33.52M32.7026 33.3662L32.5195 33.4028M32.6855 33.249L32.4927 33.2832M32.6733 33.1318L32.4707 33.1636M32.6636 33.0146L32.4512 33.0415M32.6587 32.8975L32.4341 32.917M32.6563 32.7827L32.4219 32.7949M32.6587 32.6655L32.4146 32.6704M32.6636 32.5508L32.4097 32.5459M32.6733 32.436L32.4121 32.4189M32.6904 32.3237L32.4194 32.2944M32.71 32.2139L32.4316 32.1699M32.7368 32.1064L32.4512 32.043M32.7686 31.999L32.478 31.9185M32.8076 31.8965L32.5122 31.7964M32.8516 31.7988L32.5537 31.6743M32.9004 31.7012L32.605 31.5522M32.959 31.6108L32.666 31.4326M33.0225 31.5229L32.7368 31.3179M33.0957 31.4375L32.8174 31.2056M33.1738 31.3594L32.9102 31.1006M33.2617 31.2861L33.0127 30.998" stroke="black" stroke-width="0.108507" stroke-linecap="round" stroke-linejoin="round"/>
<path d="M34.3384 32.209C34.1943 32.2407 34.1211 32.2456 33.9355 32.2529C33.8989 32.3384 33.8965 32.5703 33.8989 32.6533C34.292 33.0269 34.6728 33.5078 34.6972 33.9619C34.8193 34.0596 34.8974 34.1597 34.9658 34.3403C35.2466 34.2012 35.5298 33.9619 35.769 33.9009C35.9253 33.8618 36.2011 33.8496 36.3379 33.9302C36.4136 33.9741 37.0825 34.3818 37.2778 34.5015C37.4707 34.6235 37.605 34.7822 37.7002 34.9214C37.7954 35.0605 37.8052 35.312 37.7734 35.3755L37.2119 35.2144C37.1728 35.1216 37.2046 35.0142 37.2485 34.9214C37.29 34.8335 37.29 34.8286 37.2095 34.7651C37.1557 34.7212 37.0801 34.7334 37.0263 34.7456C36.9726 34.7554 36.8872 34.7334 36.8384 34.6553C36.7846 34.5747 36.1963 34.3159 36.0962 34.3013C35.9985 34.2866 35.8496 34.2842 35.7275 34.3989C35.6689 34.4941 35.4712 34.8018 35.3149 34.9409C35.2734 34.9824 35.2661 35.0288 35.2905 35.0776C35.2905 35.0776 35.664 35.063 35.8911 35.0947C36.1206 35.1289 36.4062 35.3657 36.5307 35.5146C37.102 36.0396 37.3193 36.3252 37.5049 36.5059C37.5879 36.5864 37.6782 36.6768 37.6587 36.8013L37.102 36.7915C37.1094 36.5913 37.0703 36.4473 37.0361 36.3374C36.9702 36.2471 36.853 36.291 36.8066 36.2935C36.7602 36.2983 36.6894 36.1982 36.6333 36.1079C36.5625 35.9492 36.2597 35.7368 36.1255 35.6538C35.9912 35.5708 35.9448 35.6074 35.8032 35.5952C35.7178 35.5684 35.5224 35.5342 35.3808 35.5903C35.2392 35.6465 34.8242 35.7783 34.4409 35.8223C34.2993 35.8857 33.8818 35.9639 33.4399 36.0591C33.1079 36.1299 32.3633 36.2495 32.2046 36.252C32.1557 36.6108 31.7798 37.1138 31.6723 37.1699C31.5625 37.3164 31.5674 37.4458 31.643 37.5117C31.7212 37.5801 32.29 37.5801 32.4316 37.585C32.5757 37.5874 32.8589 37.5972 32.9004 37.6045C32.998 37.6191 33.1201 37.7363 33.2666 37.8169C33.3716 37.873 33.3935 37.9316 33.4595 38.0366C33.501 38.105 33.5644 38.1709 33.5864 38.2295L32.915 38.2148C32.9223 38.0732 32.8393 37.9536 32.7441 37.9536C32.6513 38.0195 32.5366 38.0977 32.4096 38.0464C31.8896 38.0146 31.5576 38.0366 31.0742 38.0049C30.9375 37.9976 30.8154 37.7998 30.8667 37.6191C30.9179 37.436 30.896 37.3115 30.8618 37.1797C30.813 37.2334 30.6225 37.4214 30.5151 37.5459C30.3491 37.7339 30.4443 37.9365 30.5053 38.0391C30.6054 38.1245 31.1572 38.6567 31.2304 38.8179C31.2866 38.9033 31.5063 39.0767 31.7261 39.2598C31.7969 39.4233 31.9287 39.5039 32.0337 39.6113L31.1816 39.6138C31.2085 39.5601 31.2207 39.5088 31.2329 39.3892C31.2378 39.3452 31.1816 39.2476 31.0718 39.2598C30.9595 39.2744 30.8618 39.145 30.8276 39.04C30.7934 38.9326 30.4175 38.4517 30.3052 38.3442C30.1928 38.2393 29.8535 37.8926 29.7949 37.8706C29.7339 37.8486 29.7192 37.7241 29.79 37.6509C29.8633 37.5776 30.0732 37.2432 30.1391 37.0259C30.1831 36.877 30.1294 36.8647 30.0952 36.8184C29.7241 36.5425 29.3994 36.1763 29.2065 35.8271C29.1357 35.8711 28.7304 35.8687 28.5278 35.7686C28.374 35.6953 28.1689 35.6733 28.0591 35.8467C27.9956 35.9492 27.998 36.1421 28.1103 36.2275C28.2715 36.3496 28.4643 36.5498 28.6499 36.7793C28.8354 37.0088 28.6743 37.1602 28.4399 37.3604C28.4741 37.4482 28.435 37.4336 28.479 37.5801C28.5571 37.6924 28.5571 37.9756 28.457 38.0342C28.3594 38.0977 28.2324 38.1611 28.1152 38.2979C27.998 38.4395 27.9468 38.3027 27.998 38.0684C28.0273 37.9219 27.9077 37.7998 27.8052 37.6875C27.7051 37.5752 27.7563 37.248 27.8222 37.1504C27.8857 37.0576 27.9516 36.8672 27.81 36.7256C27.6684 36.584 27.3877 36.2861 27.4316 35.8906C27.4853 35.3682 27.9907 35.2021 28.291 35.3389C28.7793 35.5586 29.0698 35.5098 29.2163 35.478C29.3628 35.2412 29.5459 35.0166 29.8462 34.8457C30.1269 34.6846 30.6811 34.4624 31.2256 34.377L32.5781 33.8936C32.7612 33.8398 32.7539 33.6787 32.7368 33.5859C32.561 32.6729 32.6147 31.7085 33.3569 31.2178C33.435 31.147 33.4106 30.9468 33.5278 30.7905C33.5498 30.8589 33.7011 31.0444 33.7353 31.1641C34.0552 31.269 34.6338 31.4717 34.8608 31.5864C34.9707 31.6401 35.0854 31.6475 35.1538 31.6743C35.2148 31.6987 35.271 31.7598 35.31 31.8354C35.3711 31.9453 35.3027 32.0527 35.2441 32.0845C35.2002 32.1064 34.9316 32.0161 34.8657 32.0771C34.8779 32.1382 34.9463 32.2041 35.0903 32.2627C35.1562 32.292 35.0561 32.4141 34.978 32.4214C34.9341 32.4263 34.873 32.4067 34.834 32.3774C34.6753 32.3311 34.5044 32.2651 34.3384 32.209Z" fill="white" stroke="black" stroke-width="0.390625" stroke-linecap="round" stroke-linejoin="round"/>
<path d="M33.4106 31.6133C33.4033 32.1748 33.5938 32.458 33.8989 32.6533M34.9658 34.3403C35.0195 34.5771 35.0122 34.8115 34.9683 35.0166M30.8618 37.1797C31.2866 36.9795 31.6553 36.4985 31.6431 36.2104M31.6431 36.2104C31.6357 36.042 31.5039 35.7832 31.1255 35.771M31.6431 36.2104C31.7603 36.2568 32.019 36.2275 32.2046 36.252M34.3018 34.8848C34.6313 34.8994 35.0732 35.0874 35.2905 35.0776M34.1479 35.5415C34.4263 35.6025 34.4312 35.7368 35.0098 35.7075M34.0088 33.6787C34.3335 33.6885 34.519 33.8472 34.6973 33.9619" stroke="black" stroke-width="0.390625" stroke-linecap="round" stroke-linejoin="round"/>
<path d="M31.582 36.4741C31.8091 36.4717 31.98 36.4424 32.0728 36.2422M33.4106 31.6133C33.3984 32.0723 33.584 32.187 33.9355 32.2529" stroke="black" stroke-width="0.238715" stroke-linecap="round" stroke-linejoin="round"/>
<path d="M35.1807 31.6914C35.1587 31.8086 35.1562 31.9014 35.3467 31.8843M34.3335 31.3716C34.187 31.7476 34.9268 31.7964 34.9561 32.0332M30.8081 34.4746C31.1694 34.6333 31.1279 35.3511 31.1255 35.771" stroke="black" stroke-width="0.173611" stroke-linecap="round" stroke-linejoin="round"/>
<path d="M34.7827 32.033C34.6655 32.2625 34.4092 32.6189 34.1455 32.8094C33.7549 33.0877 33.3325 33.2952 32.8027 33.4197C32.7319 33.4368 32.6416 33.4588 32.5391 33.4368C32.439 33.4173 32.3291 33.3514 32.2583 33.2073C32.2192 33.1316 32.2388 32.7703 32.3731 32.719C32.5147 32.6678 32.6441 32.6507 32.7783 32.658C32.8516 32.6629 32.9541 32.6849 32.9468 32.785C32.9419 32.8704 32.8613 32.9217 32.7759 32.8973C32.6734 32.868 32.5171 32.8094 32.4292 32.868C32.3682 32.907 32.3316 33.0706 32.3731 33.1438C32.4365 33.261 32.5 33.2977 32.5659 33.3099C32.6318 33.3245 32.7026 33.3099 32.7734 33.2928C33.2813 33.1731 33.6841 32.9754 34.0674 32.702C34.3189 32.5213 34.5801 32.1453 34.668 31.972L34.7827 32.033ZM32.793 32.7483C32.6416 32.7166 32.3975 32.7532 32.3755 32.8167C32.4878 32.7459 32.627 32.7679 32.7857 32.8167C32.8345 32.8313 32.8638 32.7605 32.793 32.7483ZM33.7817 31.5105L33.8403 31.3982C33.8525 31.3738 33.7964 31.1053 34.0747 31.2493C34.353 31.3934 34.1284 31.5179 34.1162 31.5447C34.104 31.5691 34.0576 31.6546 34.0576 31.6546" fill="white"/>
<path d="M33.7817 31.5105L33.8403 31.3982C33.8525 31.3738 33.7964 31.1053 34.0747 31.2493C34.353 31.3934 34.1284 31.5179 34.1162 31.5447C34.104 31.5691 34.0576 31.6546 34.0576 31.6546M34.7827 32.033C34.6655 32.2625 34.4092 32.6189 34.1455 32.8094C33.7549 33.0877 33.3325 33.2952 32.8027 33.4197C32.7319 33.4368 32.6416 33.4588 32.5391 33.4368C32.439 33.4173 32.3291 33.3514 32.2583 33.2073C32.2192 33.1316 32.2388 32.7703 32.3731 32.719C32.5147 32.6678 32.6441 32.6507 32.7783 32.658C32.8516 32.6629 32.9541 32.6849 32.9468 32.785C32.9419 32.8704 32.8613 32.9217 32.7759 32.8973C32.6734 32.868 32.5171 32.8094 32.4292 32.868C32.3682 32.907 32.3316 33.0706 32.3731 33.1438C32.4365 33.261 32.5 33.2977 32.5659 33.3099C32.6318 33.3245 32.7026 33.3099 32.7734 33.2928C33.2813 33.1731 33.6841 32.9754 34.0674 32.702C34.3189 32.5213 34.5801 32.1453 34.668 31.972L34.7827 32.033ZM32.793 32.7483C32.6416 32.7166 32.3975 32.7532 32.3755 32.8167C32.4878 32.7459 32.627 32.7679 32.7857 32.8167C32.8345 32.8313 32.8638 32.7605 32.793 32.7483Z" stroke="black" stroke-width="0.15191" stroke-linecap="round" stroke-linejoin="round"/>
<path d="M33.313 31.2642L34.8852 32.0869" stroke="black" stroke-width="0.260417" stroke-linecap="round" stroke-linejoin="round"/>
<path d="M31.3184 31.3251C31.0401 31.3519 30.5274 31.2958 30.2491 31.2469C30.1148 31.2225 29.7364 31.7718 29.5362 31.8109C29.336 31.85 29.1455 31.4081 28.8501 31.513C28.7134 31.618 28.8574 32.16 28.7744 32.2284C28.689 32.2967 28.4278 31.9549 28.2666 32.0697C28.1055 32.1844 28.4033 32.9046 28.3252 32.9877C28.252 33.0658 27.8858 32.6727 27.7759 32.746C27.666 32.8192 27.8955 33.9398 27.7881 33.9984C27.6783 34.057 27.1704 33.703 27.1045 33.8543C27.0386 34.0057 27.8199 34.3622 28.0396 34.3719L28.2593 34.2889C28.3325 34.328 28.9575 34.3793 29.0186 34.3841L29.3775 34.0204C29.9268 33.305 30.5298 32.6336 31.3184 32.6752V31.3251Z" fill="white" stroke="black" stroke-width="0.238715" stroke-linecap="round" stroke-linejoin="round"/>
<path d="M28.9038 31.501L29.9512 31.4619M28.2764 32.0625L28.7891 31.8867M27.7905 32.7314L28.2568 32.5264M27.1094 33.8423L27.7612 33.2515M28.2642 34.2744C28.54 33.7886 29.104 33.2515 29.5654 32.9683M27.793 33.9961C28.186 33.5225 29.3115 32.729 29.6704 32.6851M28.772 32.2285C29.2383 32.0137 29.9048 31.9893 30.4346 31.9453M29.5239 31.8135C29.5898 31.8062 30.3906 31.7061 30.7324 31.7231M28.3179 32.9976C28.9404 32.6338 29.5483 32.3384 30.2344 32.1235" stroke="black" stroke-width="0.238715" stroke-linecap="round" stroke-linejoin="round"/>
<path d="M33.562 40.5953C33.6108 40.61 33.6621 40.715 33.6621 40.715C33.6621 40.715 33.5571 40.7662 33.5132 40.7565L28.6304 39.2965C28.4863 39.2526 28.5473 39.0304 28.6987 39.0768L33.562 40.5953ZM28.8965 33.7716C28.8672 33.6715 28.7793 33.5812 28.7134 33.569C28.6719 33.5641 28.5644 33.6739 28.5693 33.7081C28.5815 33.7789 28.7231 33.8693 28.7793 33.8888L28.8965 33.7716ZM29.3579 33.9523L28.9477 34.3624C28.8965 34.4161 28.9917 34.5016 29.0405 34.4528L29.4507 34.0426C29.5019 33.9913 29.4043 33.9059 29.3579 33.9523ZM29.1553 34.338L30.4272 35.6564L30.6909 35.6954L30.6518 35.4318L29.3335 34.1598L29.1553 34.338Z" fill="white" stroke="black" stroke-width="0.303819" stroke-linecap="round" stroke-linejoin="round"/>
<path d="M30.5053 35.5098L29.2456 34.2476" stroke="black" stroke-width="0.0868056" stroke-linecap="round" stroke-linejoin="round"/>
<path d="M32.1923 31.8478C32.1825 31.7794 32.2191 31.7379 32.2704 31.7013C32.3583 31.6403 32.3339 31.6695 32.3827 31.694C32.4291 31.7184 32.4779 31.7574 32.5048 31.7794C32.539 31.8038 32.5585 31.7916 32.5707 31.7721C32.5927 31.7379 32.6 31.6695 32.622 31.6476C32.6391 31.65 32.6659 31.6378 32.6635 31.6061C32.6903 31.6012 32.6977 31.5841 32.6952 31.5572C32.6903 31.5377 32.7074 31.484 32.7392 31.4938C32.7733 31.5035 32.8441 31.5353 32.8466 31.4889C32.8515 31.4547 32.8734 31.3278 32.8856 31.2301C32.9857 31.2472 32.9516 31.1324 32.9882 31.1178C33.0956 31.1569 33.1347 30.986 33.0736 30.9249C33.0834 30.7882 33.1835 30.7638 33.3495 30.7662C33.3373 30.6735 33.2104 30.6466 33.1225 30.5294C33.0419 30.4098 32.7758 30.256 32.4901 30.2609C32.2045 30.2682 31.9701 30.5343 31.8651 30.6515C31.7602 30.7687 31.5429 30.8199 31.477 30.8077C31.4135 30.7931 31.3842 30.7467 31.3109 30.7394C31.3109 30.7394 31.1254 30.7443 31.0277 30.7467C30.9301 30.7467 30.8935 30.8151 30.7836 30.8004C30.7177 30.7955 30.4491 30.798 30.371 30.8248C30.2929 30.8517 30.3686 31.0275 30.4516 31.0348C30.4906 31.0397 30.6957 31.0519 30.7714 31.0958C30.8568 31.1422 31.1083 31.1544 31.2206 31.1129C31.4306 31.0372 31.5697 31.1788 31.8017 31.235L31.8749 31.2618C31.87 31.3839 31.8773 31.4474 31.8163 31.4474C31.7602 31.4474 31.6674 31.4425 31.6161 31.4376C31.5868 31.4376 31.4672 31.357 31.3988 31.3424C31.2939 31.3204 31.2304 31.3644 31.1889 31.3815C30.9179 31.4938 29.9145 32.275 29.8168 32.4532C29.7069 32.651 29.5434 32.7682 29.3871 33.0636C29.2992 33.2272 29.1332 33.4274 29.0331 33.7032C28.8647 33.7789 28.6913 33.9376 28.6645 33.9742C28.6352 34.0133 28.6913 34.0768 28.723 34.0743C28.7108 34.0987 28.7694 34.1647 28.8158 34.1598C28.789 34.1891 28.8622 34.2428 28.8964 34.233C28.8769 34.2623 28.9281 34.3429 28.9696 34.3404L29.3749 33.9352C29.3749 33.7618 29.4774 33.569 29.5312 33.4737C29.7484 33.2101 30.0316 32.7731 30.1098 32.6559C30.1513 32.59 30.6273 32.402 30.7519 32.2799C30.7201 32.6217 30.7299 32.8561 30.7738 33.0587C30.8422 33.3907 30.9521 33.6031 31.018 33.8839C31.0863 34.1622 31.018 34.3331 31.0302 34.465C31.0351 34.5675 31.0717 34.5773 31.1693 34.6334C31.2694 34.6944 31.6552 34.6432 31.7772 34.6798C32.0043 34.7506 32.2118 34.7555 32.2948 34.7701C32.578 34.7311 32.7904 34.8092 32.8808 34.88C32.9735 34.9532 33.1542 35.3732 33.2226 35.5294C33.2885 35.6832 33.6547 35.8981 33.7304 35.986C33.8085 36.0714 33.8647 36.3204 33.85 36.4303C33.8378 36.5377 33.8524 36.5865 33.9647 36.5743C34.0526 36.5621 34.3773 36.6232 34.4384 36.6549C34.497 36.6842 34.6386 36.7965 34.6874 36.8014C34.7362 36.8063 34.9682 36.8307 35.0756 36.8209C35.183 36.8111 35.1781 36.6354 35.1317 36.628C35.0878 36.6232 34.9022 36.5841 34.7924 36.5572C34.685 36.5328 34.4433 36.318 34.3481 36.2008C34.2504 36.0812 34.2016 35.9152 34.1405 35.7955C34.0771 35.6759 33.7133 35.1656 33.6181 35.0509C33.5888 34.9947 33.3959 34.5333 33.352 34.4186C33.3105 34.3038 33.2152 34.2916 33.142 34.2696C32.8393 34.1818 32.7221 34.1427 32.412 34.0841C32.1874 34.0426 32.1361 34.0304 32.1166 33.8644C32.102 33.7399 32.0067 33.503 32.0556 33.3395C32.0727 33.2858 32.1044 33.1124 32.119 33.0343C32.1361 32.9562 32.185 32.8268 32.1972 32.7486C32.2118 32.6437 32.2314 32.3238 32.2314 32.2408C32.2314 32.0895 32.2094 31.9723 32.1923 31.8478ZM32.4267 33.2223C32.3974 33.2296 32.2558 33.2491 32.1825 33.2198C32.1581 33.2076 32.163 33.1588 32.1874 33.1588C32.1728 33.149 32.1483 33.0978 32.1825 33.0904C32.163 33.0856 32.1386 33.0123 32.1728 33.0099C32.1386 32.9879 32.1386 32.9464 32.1728 32.9318C32.1972 32.9122 32.3485 32.9073 32.412 32.9171C32.4511 32.9952 32.4413 33.1393 32.4267 33.2223Z" fill="white" stroke="black" stroke-width="0.390625" stroke-linecap="round" stroke-linejoin="round"/>
<path d="M31.8774 31.2764C31.9482 31.3203 31.9385 31.2715 32.0654 31.2349C32.1899 31.1982 32.2729 31.3081 32.2339 31.4106C32.1973 31.5132 32.1924 31.5986 32.3267 31.606C32.4609 31.6133 32.4927 31.4985 32.522 31.4424C32.5537 31.3887 32.6123 31.3911 32.6465 31.3252C32.6733 31.1885 32.8125 31.2202 32.8979 31.2349M33.0713 30.9297C33.0029 30.9663 32.8564 30.8491 32.832 30.7368C32.7905 30.605 32.6953 30.5098 32.5269 30.5073C32.3584 30.5073 32.0386 30.6025 31.9702 30.8003C31.9482 30.9492 31.936 31.0469 31.9336 31.0737C31.8726 31.0957 31.814 31.0762 31.8091 31.103C31.814 31.1616 31.8262 31.2129 31.792 31.2373M30.752 32.2798L31.0913 32.1333" stroke="black" stroke-width="0.390625" stroke-linecap="round" stroke-linejoin="round"/>
<path d="M31.0911 32.1333C31.1863 32.3481 31.2522 32.5679 31.3841 32.6436M31.5696 32.7266C31.7112 32.7974 31.8064 32.7729 31.9749 32.7461M31.1277 34.3232C31.4793 34.3403 31.6233 34.499 31.9138 34.5894C32.2019 34.6772 32.6121 34.6284 32.9856 34.8042M31.0227 33.1978C31.1106 33.2637 31.2376 33.3076 31.3426 33.3076M31.4964 33.3149C31.6819 33.3442 31.8528 33.4175 31.8797 33.5249M31.4207 33.7202C31.5891 33.8838 31.8968 34.0083 32.1165 34.0205" stroke="black" stroke-width="0.195312" stroke-linecap="round" stroke-linejoin="round"/>
<path d="M31.6795 31.4399C31.8382 31.9526 31.8601 32.1626 32.2312 32.2407M32.2312 32.2407C31.8772 32.1992 31.7039 31.9233 31.5452 31.4082M32.2312 32.2407C31.7991 32.2188 31.5574 31.8574 31.3987 31.3423" stroke="black" stroke-width="0.173611" stroke-linecap="round" stroke-linejoin="round"/>
<path d="M34.1504 36.3494C34.0723 36.2908 34.0528 36.2542 33.9966 36.1419L33.8648 35.8807L33.7818 35.9246C33.7452 35.9417 33.7061 35.8758 33.7476 35.8563L33.8184 35.8221L33.7232 35.6316C33.6695 35.6219 33.7207 35.5901 33.7574 35.5731C33.7964 35.5535 33.8526 35.5291 33.8282 35.5779L33.9234 35.7684L33.9917 35.7342C34.0332 35.7122 34.065 35.783 34.0259 35.8001L33.9429 35.8416L34.0747 36.1028C34.1309 36.2151 34.1504 36.2518 34.1504 36.3494Z" stroke="black" stroke-width="0.173611" stroke-linecap="round" stroke-linejoin="round"/>
<path d="M34.1406 35.7954L33.7402 35.998M33.3716 35.7026L33.8989 35.4365M33.2886 35.6196L33.8379 35.3413" stroke="black" stroke-width="0.130208" stroke-linecap="round" stroke-linejoin="round"/>
<path d="M28.8965 34.2329L29.0747 34.0718M28.8159 34.1597L28.9868 34.0059M28.7231 34.0742L28.9087 33.918M32.1875 33.1587L32.3608 33.1514M32.1729 33.0098L32.3364 33.0049M32.1826 33.0903L32.3438 33.0757M32.5537 31.562C32.5903 31.584 32.6245 31.6011 32.6587 31.606" stroke="black" stroke-width="0.0868056" stroke-linecap="round" stroke-linejoin="round"/>
</g>
<path d="M50 99.5C77.3381 99.5 99.5 77.3381 99.5 50C99.5 22.6619 77.3381 0.5 50 0.5C22.6619 0.5 0.5 22.6619 0.5 50C0.5 77.3381 22.6619 99.5 50 99.5Z" stroke="black"/>
</g>
<defs>
<clipPath id="clip0_657_2474">
<rect width="100" height="100" fill="white"/>
</clipPath>
</defs>
</svg>
