<svg width="101" height="50" viewBox="0 0 101 50" fill="none" xmlns="http://www.w3.org/2000/svg">
<g id="_&#208;&#160;&#208;&#142;&#208;&#160;&#194;&#187;&#208;&#160;&#209;&#149;&#208;&#160;&#226;&#132;&#150;_1" clip-path="url(#clip0_1104_4610)">
<path id="Vector" d="M62.4685 47.4133C61.6767 48.1278 61.478 48.9991 62.0952 49.3489L63.2211 50.0001L78.0509 45.3028L71.2532 39.8276L62.4685 47.4133Z" fill="#EBEBEB"/>
<path id="Vector_2" d="M67.7759 46.6534C66.6258 46.4785 65.0754 46.2645 63.9645 46.1137L71.244 39.8306L78.0417 45.3057L63.2119 50.003C63.2119 50.003 69.7869 46.9489 67.7759 46.6564V46.6534Z" fill="#E0E0E0"/>
<path id="Vector_3" d="M63.2 50.0001L62.0741 49.3489C61.4569 48.9931 61.6225 48.1278 62.4474 47.4133L71.2321 39.8276L63.2 47.2776C62.5106 47.9137 61.1799 48.9449 63.2 50.0001Z" fill="#FAFAFA"/>
<path id="Vector_4" d="M6.44543 39.125L28.6661 21.0835H28.7143C29.3796 20.7036 32.2155 21.7197 35.0514 23.3538L39.218 25.7326C42.0449 27.3667 43.806 29.0008 43.1407 29.3897H43.0865L8.95921 42.7098L6.58391 41.3621C6.37619 41.2656 6.19555 41.1149 6.0661 40.9249C5.93665 40.735 5.86139 40.5119 5.84633 40.2828C5.83128 40.0536 5.88246 39.8245 5.98783 39.6195C6.0932 39.4144 6.25275 39.2426 6.45145 39.125H6.44543Z" fill="#EBEBEB"/>
<path id="Vector_5" d="M31.1287 29.6039L23.5542 25.2231L28.6571 21.0806H28.7052C29.3706 20.7007 32.2065 21.7167 35.0424 23.3509L39.209 25.7297C42.0358 27.3638 43.797 28.9979 43.1317 29.3868H43.0775L8.9502 42.7069L31.0775 31.4882C32.0529 30.9877 32.077 30.1466 31.1317 29.6009L31.1287 29.6039Z" fill="#E0E0E0"/>
<path id="Vector_6" d="M7.12597 41.6545L6.61117 41.3621C6.40044 41.2716 6.21679 41.1239 6.08433 40.934C5.95187 40.747 5.87058 40.5239 5.85252 40.2948C5.83446 40.0656 5.87962 39.8335 5.98197 39.6285C6.08433 39.4235 6.24389 39.2486 6.43656 39.125L28.6572 21.0835C28.6572 21.0835 8.94734 37.5753 7.94182 38.6305C6.93631 39.6858 5.28654 40.5902 7.12597 41.6545Z" fill="#FAFAFA"/>
<path id="Vector_7" d="M26.9263 30.6109C28.838 31.3706 30.6895 32.2661 32.4717 33.2911C32.4717 33.2911 32.568 33.6258 32.1074 33.8851C31.7883 34.0509 31.4301 34.1263 31.0688 34.0992C29.5093 33.2067 28.0282 32.1847 26.6403 31.045C26.6132 31.0269 26.5861 31.0028 26.5681 30.9727C26.55 30.9455 26.535 30.9123 26.5289 30.8792C26.5229 30.846 26.5229 30.8098 26.5289 30.7767C26.535 30.7435 26.547 30.7103 26.5681 30.6832C26.5861 30.6531 26.6102 30.6289 26.6403 30.6109C26.6674 30.5928 26.7005 30.5777 26.7336 30.5717C26.7668 30.5656 26.8029 30.5656 26.836 30.5717C26.8691 30.5777 26.9022 30.5898 26.9293 30.6109H26.9263Z" fill="#009688"/>
<path id="Vector_8" d="M26.9263 30.6109C28.838 31.3706 30.6895 32.2661 32.4717 33.2911C32.4717 33.2911 32.568 33.6258 32.1074 33.8851C31.7883 34.0509 31.4301 34.1263 31.0688 34.0992C29.5093 33.2067 28.0282 32.1847 26.6403 31.045C26.6132 31.0269 26.5861 31.0028 26.5681 30.9727C26.55 30.9455 26.535 30.9123 26.5289 30.8792C26.5229 30.846 26.5229 30.8098 26.5289 30.7767C26.535 30.7435 26.547 30.7103 26.5681 30.6832C26.5861 30.6531 26.6102 30.6289 26.6403 30.6109C26.6674 30.5928 26.7005 30.5777 26.7336 30.5717C26.7668 30.5656 26.8029 30.5656 26.836 30.5717C26.8691 30.5777 26.9022 30.5898 26.9293 30.6109H26.9263Z" fill="#009688"/>
<path id="Vector_9" d="M26.9263 30.6109C28.838 31.3706 30.6895 32.2661 32.4717 33.2911C32.4717 33.2911 32.568 33.6258 32.1074 33.8851C31.7883 34.0509 31.4301 34.1263 31.0688 34.0992C29.5093 33.2067 28.0282 32.1847 26.6403 31.045C26.6132 31.0269 26.5861 31.0028 26.5681 30.9727C26.55 30.9455 26.535 30.9123 26.5289 30.8792C26.5229 30.846 26.5229 30.8098 26.5289 30.7767C26.535 30.7435 26.547 30.7103 26.5681 30.6832C26.5861 30.6531 26.6102 30.6289 26.6403 30.6109C26.6674 30.5928 26.7005 30.5777 26.7336 30.5717C26.7668 30.5656 26.8029 30.5656 26.836 30.5717C26.8691 30.5777 26.9022 30.5898 26.9293 30.6109H26.9263Z" fill="#009688"/>
<path id="Vector_10" d="M26.9263 30.6109C28.838 31.3706 30.6895 32.2661 32.4717 33.2911C32.4717 33.2911 32.568 33.6258 32.1074 33.8851C31.7883 34.0509 31.4301 34.1263 31.0688 34.0992C29.5093 33.2067 28.0282 32.1847 26.6403 31.045C26.6132 31.0269 26.5861 31.0028 26.5681 30.9727C26.55 30.9455 26.535 30.9123 26.5289 30.8792C26.5229 30.846 26.5229 30.8098 26.5289 30.7767C26.535 30.7435 26.547 30.7103 26.5681 30.6832C26.5861 30.6531 26.6102 30.6289 26.6403 30.6109C26.6674 30.5928 26.7005 30.5777 26.7336 30.5717C26.7668 30.5656 26.8029 30.5656 26.836 30.5717C26.8691 30.5777 26.9022 30.5898 26.9293 30.6109H26.9263Z" fill="#009688"/>
<path id="Vector_11" d="M26.9263 30.6109C28.838 31.3706 30.6895 32.2661 32.4717 33.2911C32.4717 33.2911 32.568 33.6258 32.1074 33.8851C31.7883 34.0509 31.4301 34.1263 31.0688 34.0992C29.5093 33.2067 28.0282 32.1847 26.6403 31.045C26.6132 31.0269 26.5861 31.0028 26.5681 30.9727C26.55 30.9455 26.535 30.9123 26.5289 30.8792C26.5229 30.846 26.5229 30.8098 26.5289 30.7767C26.535 30.7435 26.547 30.7103 26.5681 30.6832C26.5861 30.6531 26.6102 30.6289 26.6403 30.6109C26.6674 30.5928 26.7005 30.5777 26.7336 30.5717C26.7668 30.5656 26.8029 30.5656 26.836 30.5717C26.8691 30.5777 26.9022 30.5898 26.9293 30.6109H26.9263Z" fill="#009688"/>
<path id="Vector_12" opacity="0.15" d="M26.9263 30.6109C28.838 31.3706 30.6895 32.2661 32.4717 33.2911C32.4717 33.2911 32.568 33.6258 32.1074 33.8851C31.7883 34.0509 31.4301 34.1263 31.0688 34.0992C29.5093 33.2067 28.0282 32.1847 26.6403 31.045C26.6132 31.0269 26.5861 31.0028 26.5681 30.9727C26.55 30.9455 26.535 30.9123 26.5289 30.8792C26.5229 30.846 26.5229 30.8098 26.5289 30.7767C26.535 30.7435 26.547 30.7103 26.5681 30.6832C26.5861 30.6531 26.6102 30.6289 26.6403 30.6109C26.6674 30.5928 26.7005 30.5777 26.7336 30.5717C26.7668 30.5656 26.8029 30.5656 26.836 30.5717C26.8691 30.5777 26.9022 30.5898 26.9293 30.6109H26.9263Z" fill="black"/>
<path id="Vector_13" opacity="0.15" d="M31.526 33.2458C31.1918 32.8479 26.956 30.6198 26.6309 30.7072C26.661 30.656 26.7121 30.6198 26.7663 30.6017C26.8235 30.5836 26.8837 30.5866 26.9379 30.6108C28.8496 31.3705 30.7011 32.266 32.4833 33.2911C32.4833 33.2911 32.5797 33.6257 32.119 33.885C31.7999 34.0508 31.4417 34.1262 31.0804 34.0991C31.4838 33.9815 31.8662 33.6378 31.523 33.2428L31.526 33.2458Z" fill="black"/>
<path id="Vector_14" d="M20.3662 34.268C21.8715 34.8619 23.3286 35.5644 24.7315 36.3694C24.7315 36.3694 24.7947 36.6317 24.4394 36.8367C24.1956 36.9603 23.9216 37.0176 23.6477 37.0026C22.4284 36.3091 21.2694 35.5132 20.1856 34.6238C20.1495 34.5936 20.1254 34.5514 20.1163 34.5062C20.1073 34.4609 20.1163 34.4127 20.1344 34.3735C20.1555 34.3313 20.1886 34.2981 20.2307 34.2801C20.2729 34.262 20.3211 34.2559 20.3662 34.268Z" fill="#009688"/>
<path id="Vector_15" opacity="0.15" d="M20.3662 34.268C21.8715 34.8619 23.3286 35.5644 24.7315 36.3694C24.7315 36.3694 24.7947 36.6317 24.4394 36.8367C24.1956 36.9603 23.9216 37.0176 23.6477 37.0026C22.4284 36.3091 21.2694 35.5132 20.1856 34.6238C20.1495 34.5936 20.1254 34.5514 20.1163 34.5062C20.1073 34.4609 20.1163 34.4127 20.1344 34.3735C20.1555 34.3313 20.1886 34.2981 20.2307 34.2801C20.2729 34.262 20.3211 34.2559 20.3662 34.268Z" fill="black"/>
<path id="Vector_16" opacity="0.15" d="M23.9546 36.3301C23.2532 35.8327 22.5066 35.4076 21.7208 35.0609C20.5557 34.4488 20.1373 34.2679 20.0801 34.4729C20.0801 34.4368 20.0831 34.4036 20.0981 34.3704C20.1132 34.3373 20.1343 34.3101 20.1644 34.289C20.1945 34.2679 20.2276 34.2559 20.2607 34.2498C20.2968 34.2468 20.33 34.2498 20.3631 34.2649C21.8683 34.8589 23.3254 35.5613 24.7283 36.3663C24.7283 36.3663 24.7915 36.6286 24.4363 36.8336C24.1925 36.9573 23.9185 37.0145 23.6445 36.9995C23.6445 36.9995 24.2316 36.6015 23.9546 36.3241V36.3301Z" fill="black"/>
<path id="Vector_17" d="M13.6287 38.1964C13.5926 38.1753 13.5685 38.1421 13.5595 38.106C13.5505 38.0668 13.5535 38.0246 13.5745 37.9914C13.5956 37.9582 13.6287 37.9311 13.6649 37.922C13.704 37.913 13.7461 37.916 13.7793 37.9371C14.8721 38.3652 15.9288 38.8718 16.9493 39.4536C16.9493 39.4536 16.9975 39.6436 16.7356 39.7943C16.5519 39.8878 16.3472 39.933 16.1425 39.921C15.2574 39.4205 14.4175 38.8446 13.6317 38.1994L13.6287 38.1964Z" fill="#009688"/>
<path id="Vector_18" opacity="0.15" d="M13.6287 38.1964C13.5926 38.1753 13.5685 38.1421 13.5595 38.106C13.5505 38.0668 13.5535 38.0246 13.5745 37.9914C13.5956 37.9582 13.6287 37.9311 13.6649 37.922C13.704 37.913 13.7461 37.916 13.7793 37.9371C14.8721 38.3652 15.9288 38.8718 16.9493 39.4536C16.9493 39.4536 16.9975 39.6436 16.7356 39.7943C16.5519 39.8878 16.3472 39.933 16.1425 39.921C15.2574 39.4205 14.4175 38.8446 13.6317 38.1994L13.6287 38.1964Z" fill="black"/>
<path id="Vector_19" opacity="0.15" d="M16.4192 39.4265C15.79 39.0044 15.1216 38.6396 14.4232 38.3381C13.6314 37.9974 13.6314 37.9733 13.5742 38.0607C13.5742 38.0366 13.5802 38.0125 13.5923 37.9884C13.6043 37.9673 13.6194 37.9462 13.6405 37.9341C13.6615 37.919 13.6856 37.91 13.7097 37.907C13.7338 37.907 13.7579 37.907 13.7819 37.916C14.8748 38.3411 15.9345 38.8476 16.952 39.4325C16.952 39.4325 17.0002 39.6225 16.7383 39.7732C16.5546 39.8667 16.3499 39.9119 16.1452 39.8999C16.3499 39.8215 16.5968 39.6225 16.4222 39.4235L16.4192 39.4265Z" fill="black"/>
<path id="Vector_20" d="M67.3574 35.7393L79.6524 21.0142C80.3568 20.2213 81.4677 19.8173 82.1481 20.2213L83.3764 20.9268L78.5686 42.2274L67.3604 35.7362L67.3574 35.7393Z" fill="#F5F5F5"/>
<path id="Vector_21" d="M67.3574 35.7453L69.814 32.8027C70.8918 33.4781 74.9409 35.8719 77.2771 35.0006C79.9866 33.9936 82.7592 23.6704 82.7592 23.6704L78.5686 42.2275L67.3604 35.7453H67.3574Z" fill="#E0E0E0"/>
<path id="Vector_22" d="M77.4908 41.5672L67.3574 35.7122C71.1356 36.5051 73.7969 35.7755 76.0307 33.6258C78.8516 30.9214 83.3734 20.9329 83.3734 20.9329L78.6198 41.8868L77.4878 41.5702L77.4908 41.5672Z" fill="#009688"/>
<path id="Vector_23" opacity="0.1" d="M67.3877 35.7211C70.2627 36.3482 72.4815 36.0467 74.3661 34.9281C75.3084 35.2507 76.3229 35.2779 77.2803 35.0065C79.8061 34.0689 82.3831 25.0331 82.7233 23.821L78.6681 41.8475L77.5121 41.5701L67.3877 35.7241V35.7211Z" fill="black"/>
<path id="Vector_24" d="M79.8752 21.8041C80.6037 21.0112 81.6815 20.4624 82.2505 20.6132L83.3433 20.8906L82.115 20.2001C81.4346 19.8112 80.3177 20.2001 79.6193 20.9931L67.3574 35.7091L79.8752 21.8011V21.8041Z" fill="white"/>
<path id="Vector_25" d="M29.7949 32.4983C31.252 32.4983 32.4322 31.3164 32.4322 29.8572C32.4322 28.3979 31.252 27.2161 29.7949 27.2161C28.3378 27.2161 27.1577 28.3979 27.1577 29.8572C27.1577 31.3164 28.3378 32.4983 29.7949 32.4983Z" fill="#E0E0E0"/>
<path id="Vector_26" opacity="0.1" d="M29.7949 32.4983C31.252 32.4983 32.4322 31.3164 32.4322 29.8572C32.4322 28.3979 31.252 27.2161 29.7949 27.2161C28.3378 27.2161 27.1577 28.3979 27.1577 29.8572C27.1577 31.3164 28.3378 32.4983 29.7949 32.4983Z" fill="black"/>
<path id="Vector_27" opacity="0.1" d="M27.1729 29.857C27.1729 29.1575 27.4528 28.4882 27.9496 27.9938C28.4433 27.4993 29.1146 27.2219 29.8131 27.2219C30.3339 27.2219 30.8457 27.3727 31.2792 27.6651C31.4358 28.3736 31.4177 29.1063 31.228 29.8057C31.0384 30.5052 30.6831 31.1474 30.1924 31.681C30.0027 31.865 31.2702 31.8559 32.2847 30.7675C32.068 31.3464 31.6585 31.8318 31.1196 32.1393C30.5838 32.4468 29.9576 32.5554 29.3495 32.4468C28.7413 32.3383 28.1904 32.0187 27.793 31.5454C27.3956 31.072 27.1759 30.4751 27.1729 29.857Z" fill="black"/>
<path id="Vector_28" d="M23.741 21.97C26.2909 21.97 30.6411 26.2633 30.8699 26.5648C31.1469 26.9326 31.2854 27.3878 31.2583 27.8491C31.2161 28.6813 30.9783 29.4923 30.5659 30.2159C30.1534 30.9395 29.5754 31.5545 28.883 32.0158C28.4826 32.2811 27.9949 32.3866 27.5192 32.3083C27.1399 32.254 21.2754 30.5867 20.002 28.3406L23.741 21.97Z" fill="#E0E0E0"/>
<path id="Vector_29" opacity="0.1" d="M19.978 28.3979L23.5666 22.2805C24.2469 22.3529 24.8009 22.5036 24.9695 22.781C25.2525 23.384 25.4 24.0413 25.4 24.7045C25.4 25.3678 25.2525 26.0281 24.9695 26.6281C24.3764 27.9064 24.4155 28.3496 27.0046 29.1817C29.5936 30.0139 30.268 29.8963 31.1561 28.7386C30.849 30.0953 30.0241 31.2802 28.8591 32.0399C28.4587 32.3052 27.971 32.4108 27.4953 32.3324C27.116 32.2841 21.2515 30.6108 19.978 28.3979Z" fill="black"/>
<path id="Vector_30" d="M23.753 21.97C26.3029 21.97 30.6531 26.2633 30.8819 26.5648C31.1077 26.8602 31.2341 27.216 31.2462 27.5868C31.0866 26.9688 30.3912 26.3718 29.479 25.597C28.2417 24.599 26.9441 23.6734 25.5984 22.8292C25.0987 22.5911 25.5984 23.8453 25.0595 25.208L23.5874 22.2896L23.753 21.973V21.97Z" fill="#FAFAFA"/>
<path id="Vector_31" d="M22.4615 22.3559C23.9818 21.4755 25.2252 22.1901 25.2252 23.9418C25.1649 24.8945 24.885 25.8231 24.4033 26.6492C23.9246 27.4753 23.2563 28.1778 22.4585 28.7024C20.9291 29.5827 19.6948 28.8682 19.6948 27.1165C19.752 26.1608 20.032 25.2322 20.5107 24.4061C20.9924 23.58 21.6577 22.8775 22.4585 22.3559H22.4615Z" fill="#455A64"/>
<path id="Vector_32" opacity="0.5" d="M22.8227 25.6693L21.2392 24.0835L22.5548 25.5276L22.8227 25.6693ZM22.9492 25.5518L21.8473 23.6403L22.7505 25.3769L22.9492 25.5518ZM23.1087 25.4643L22.5307 23.3297L22.9582 25.2503L23.1087 25.4643ZM23.2924 25.4251V23.2122L23.2051 25.1478L23.2924 25.4251ZM22.4615 25.7749L22.7234 25.8291L20.8298 24.7257L22.4615 25.7719V25.7749ZM23.0636 26.7427L21.9557 28.6873L23.0184 27.005L23.0666 26.7427H23.0636ZM22.4133 26.0221H22.6812L20.5498 25.4523L22.4103 26.0221H22.4133ZM22.9191 26.6492L21.3355 28.2351L22.7866 26.9025L22.9221 26.6492H22.9191ZM23.473 25.4342L24.0269 23.2936L23.4489 25.1508L23.473 25.4372V25.4342ZM22.6812 26.1789H20.4775L22.4253 26.2663L22.6782 26.1789H22.6812ZM22.7987 26.5135L20.89 27.617L22.609 26.7366L22.7987 26.5135ZM22.7204 26.3537L20.5889 26.9236L22.4976 26.5045L22.7204 26.3537ZM23.8764 26.2995L24.2106 26.4985L24.1383 26.3869L23.8764 26.2995ZM23.5423 26.5678L23.747 27.219V26.9417L23.5423 26.5678ZM23.8433 26.4653L24.0902 26.7125L23.9938 26.5768L23.8433 26.4653ZM23.7078 26.5377L23.9366 26.9356V26.7517L23.7078 26.5377ZM23.2472 26.8L22.898 28.1567L23.2623 27.0623L23.2472 26.8ZM23.4309 26.616V27.608L23.5182 27.0291L23.4309 26.616ZM23.9306 25.7206L24.7856 25.19L24.0962 25.5156L23.9306 25.7206ZM24.1775 26.1819H23.8764L24.319 26.2784L24.1775 26.1819ZM23.6536 25.4915L24.7404 23.5649L23.6868 25.1508L23.6536 25.4915ZM23.8042 25.5879L24.9211 24.4302L23.9216 25.3498L23.8042 25.5879ZM24.0089 25.8804L24.602 25.6905H24.1895L24.1112 25.7387L24.0089 25.8804ZM24.048 26.0553H24.4514L24.1504 25.9437H24.048V26.0553Z" fill="white"/>
<path id="Vector_33" d="M22.9251 26.6282L20.7786 28.7778C20.7606 28.7869 20.7395 28.7929 20.7184 28.7929C20.6973 28.7929 20.6763 28.7869 20.6582 28.7778L20.595 28.7386L20.6432 28.6753L22.8228 26.4865L20.1374 28.0723C20.1374 28.0723 20.1253 28.0844 20.1163 28.0874C20.1073 28.0904 20.0983 28.0934 20.0892 28.0934C20.0802 28.0934 20.0712 28.0934 20.0621 28.0874C20.0531 28.0844 20.0471 28.0784 20.041 28.0723C20.029 28.0542 20.023 28.0331 20.023 28.012C20.023 27.9909 20.029 27.9698 20.041 27.9517L22.7024 26.4111C22.7284 26.4111 22.7284 26.4111 22.7024 26.4111L19.9537 27.1498C19.9537 27.1498 19.9357 27.1528 19.9267 27.1498C19.9176 27.1498 19.9086 27.1437 19.9026 27.1377C19.8965 27.1317 19.8905 27.1226 19.8875 27.1136C19.8845 27.1045 19.8845 27.0955 19.8875 27.0864C19.8905 27.0653 19.9026 27.0442 19.9176 27.0261C19.9327 27.008 19.9537 26.996 19.9748 26.99L22.6692 26.2603C22.7013 26.2603 22.7013 26.2603 22.6692 26.2603H20.0862C20.0862 26.2603 20.0651 26.2603 20.0561 26.2543C20.0471 26.2513 20.038 26.2422 20.035 26.2362C20.029 26.2272 20.026 26.2181 20.026 26.2091C20.026 26.2 20.026 26.188 20.032 26.1819C20.035 26.1608 20.0471 26.1397 20.0651 26.1247C20.0832 26.1096 20.1043 26.1036 20.1284 26.1036H22.6722C22.7044 26.1036 22.7044 26.1036 22.6722 26.1036L20.3511 25.4855C20.3301 25.4795 20.315 25.4674 20.303 25.4493C20.2909 25.4312 20.2909 25.4101 20.2939 25.389C20.2939 25.377 20.3 25.3679 20.309 25.3589C20.315 25.3498 20.324 25.3438 20.3331 25.3378C20.3421 25.3317 20.3541 25.3287 20.3632 25.3287C20.3752 25.3287 20.3842 25.3287 20.3963 25.3317L22.7084 25.9498C22.7405 25.9498 22.7405 25.9498 22.7084 25.9498L20.6793 24.777C20.6642 24.7679 20.6492 24.7559 20.6432 24.7408C20.6341 24.7257 20.6311 24.7076 20.6341 24.6895H20.7214L22.7505 25.8624C22.7987 25.8624 22.7897 25.8624 22.7505 25.8624L21.0556 24.1649C21.0436 24.1499 21.0345 24.1288 21.0345 24.1107C21.0345 24.0926 21.0405 24.0715 21.0556 24.0564C21.0706 24.0413 21.0917 24.0323 21.1098 24.0323C21.1278 24.0323 21.1489 24.0413 21.164 24.0564L22.8679 25.7629L21.5915 23.5499C21.5794 23.5318 21.5704 23.5077 21.5704 23.4866C21.5704 23.4655 21.5764 23.4414 21.5915 23.4233C21.5975 23.4142 21.6035 23.4082 21.6125 23.4022C21.6216 23.3961 21.6306 23.3961 21.6396 23.3961C21.6487 23.3961 21.6577 23.3961 21.6667 23.4022C21.6758 23.4082 21.6818 23.4142 21.6878 23.4233L22.9793 25.6694L22.4164 22.766C22.4133 22.7449 22.4164 22.7208 22.4224 22.6997C22.4314 22.6786 22.4465 22.6605 22.4645 22.6484C22.4675 22.6424 22.4736 22.6364 22.4826 22.6333C22.4886 22.6303 22.4976 22.6273 22.5037 22.6273C22.5097 22.6273 22.5187 22.6273 22.5247 22.6333C22.5308 22.6364 22.5368 22.6424 22.5428 22.6484L23.2864 25.4252C23.2864 25.4513 23.2864 25.4513 23.2864 25.4252V22.3138C23.2864 22.2927 23.2924 22.2716 23.3045 22.2535C23.3165 22.2354 23.3346 22.2233 23.3556 22.2173C23.3647 22.2173 23.3737 22.2173 23.3857 22.2173C23.3948 22.2173 23.4038 22.2233 23.4128 22.2293C23.4219 22.2354 23.4279 22.2444 23.4309 22.2535C23.4339 22.2625 23.4369 22.2716 23.4369 22.2836V25.4584C23.4369 25.4905 23.4369 25.4905 23.4369 25.4584L24.2287 22.4344V22.362L24.2829 22.4012C24.2979 22.4163 24.31 22.4344 24.316 22.4555C24.322 22.4766 24.325 22.4977 24.322 22.5188L23.5302 25.4855L24.7886 23.2966C24.7886 23.2574 24.8368 23.2966 24.8428 23.2966C24.8458 23.3208 24.8458 23.3449 24.8428 23.369C24.8639 23.4172 24.8639 23.4715 24.8428 23.5197L23.6717 25.5579L24.8278 24.4061H24.8759C24.879 24.4333 24.879 24.4604 24.8759 24.4845C24.8759 24.5358 24.8519 24.584 24.8127 24.6202L23.7922 25.6423L24.6622 25.1418V25.2051C24.6441 25.2533 24.611 25.2956 24.5659 25.3227L23.8463 25.7418C23.8203 25.7418 23.8203 25.7418 23.8463 25.7418L24.4485 25.582C24.4876 25.582 24.5117 25.582 24.4966 25.6362C24.4755 25.6785 24.4394 25.7146 24.3943 25.7327L23.9035 25.8593C23.8644 25.8593 23.8554 25.8593 23.9035 25.8593H24.316C24.3642 25.8593 24.3792 25.8594 24.3642 25.9317C24.3521 25.9528 24.3341 25.9709 24.313 25.983C24.2919 25.995 24.2678 26.0041 24.2437 26.0041H23.9969C23.9577 26.0041 23.9487 26.0041 23.9969 26.0041L24.2738 26.0825C24.2738 26.0825 24.2919 26.0855 24.3009 26.0915C24.31 26.0975 24.316 26.1036 24.319 26.1126C24.322 26.1217 24.325 26.1307 24.325 26.1397C24.325 26.1488 24.322 26.1578 24.316 26.1669C24.3039 26.185 24.2889 26.2 24.2678 26.2091C24.2467 26.2181 24.2257 26.2211 24.2046 26.2151L23.9577 26.1518C23.9256 26.1518 23.9256 26.1518 23.9577 26.1518L24.1715 26.2784C24.2106 26.2784 24.2347 26.3267 24.2257 26.3417V26.3809H24.1293L23.9156 26.2543C23.8765 26.2543 23.8674 26.2543 23.9156 26.2543L24.0992 26.4382C24.1143 26.4533 24.1233 26.4744 24.1233 26.4985C24.1233 26.5226 24.1143 26.5407 24.0992 26.5588C24.0932 26.5648 24.0872 26.5709 24.0782 26.5739C24.0691 26.5769 24.0601 26.5799 24.0511 26.5799C24.042 26.5799 24.033 26.5799 24.024 26.5739C24.0149 26.5709 24.0089 26.5648 24.0029 26.5588L23.7982 26.3538L23.9638 26.6402C23.9758 26.6613 23.9818 26.6854 23.9818 26.7066C23.9818 26.7277 23.9758 26.7548 23.9638 26.7729H23.8855L23.6808 26.4171L23.8162 26.9025C23.8253 26.9236 23.8313 26.9508 23.8313 26.9749C23.8313 26.999 23.8253 27.0231 23.8162 27.0472H23.744L23.5844 26.4533V27.2462C23.5844 27.2975 23.5634 27.3457 23.5302 27.3819L23.4821 27.4362H23.4279V26.7699L23.0636 28.1507C23.0425 28.1959 23.0154 28.2381 22.9763 28.2683L22.9041 28.3165C22.9041 28.3165 22.8499 28.3165 22.8559 28.3165L23.2743 26.7307L22.1183 28.7386C22.0912 28.7808 22.0521 28.814 22.0069 28.8351H21.9347C21.8865 28.8351 21.8714 28.8351 21.9347 28.7869L23.178 26.6282C23.178 26.6282 22.9552 26.604 22.9251 26.6282Z" fill="#37474F"/>
<path id="Vector_34" d="M21.6695 25.1447C21.6876 25.1115 21.7117 25.0844 21.7418 25.0603C21.7719 25.0392 21.808 25.0241 21.8441 25.0151C22.5275 24.8522 23.244 24.8794 23.9123 25.0934C23.9966 25.1537 24.0629 25.2321 24.105 25.3256C24.1472 25.4191 24.1622 25.5216 24.1502 25.6241C24.1381 25.9075 24.0629 26.1849 23.9244 26.4321C23.7859 26.6793 23.5932 26.8934 23.3584 27.0502C23.2771 27.1104 23.1778 27.1496 23.0784 27.1587C22.9761 27.1677 22.8737 27.1496 22.7804 27.1074C22.1241 26.7276 21.6785 25.3618 21.6785 25.3618C21.6605 25.3286 21.6514 25.2894 21.6484 25.2502C21.6484 25.211 21.6545 25.1748 21.6695 25.1387V25.1447Z" fill="#EBEBEB"/>
<path id="Vector_35" opacity="0.1" d="M22.8135 26.2634C23.3434 26.6041 23.7558 26.191 23.8822 25.7719C23.9394 25.6242 23.9394 25.4614 23.8822 25.3137C23.822 25.1659 23.7106 25.0483 23.5691 24.979C23.6866 25.0061 23.801 25.0483 23.9093 25.1056C23.9936 25.1659 24.0599 25.2443 24.102 25.3378C24.1442 25.4312 24.1592 25.5338 24.1472 25.6363C24.1351 25.9197 24.0599 26.197 23.9214 26.4443C23.7829 26.6915 23.5902 26.9056 23.3554 27.0623C23.2741 27.1226 23.1748 27.1618 23.0724 27.1709C22.9701 27.1799 22.8677 27.1618 22.7744 27.1166C22.1181 26.7367 21.6725 25.3709 21.6725 25.3709C21.6575 25.3378 21.6484 25.3016 21.6484 25.2624C21.6484 25.2232 21.6575 25.1901 21.6725 25.1539C21.6183 25.3287 22.2746 25.9317 22.8135 26.2573V26.2634Z" fill="black"/>
<path id="Vector_36" d="M21.6307 25.3347C21.6187 25.2986 21.6156 25.2624 21.6217 25.2262C21.6247 25.19 21.6367 25.1539 21.6578 25.1207C21.6759 25.0875 21.6999 25.0604 21.73 25.0393C21.7601 25.0182 21.7933 25.0031 21.8294 24.9941C22.5128 24.8313 23.2293 24.8584 23.8976 25.0724C23.997 25.1358 24.0662 25.2353 24.0963 25.3498C24.009 25.175 23.7411 25.0242 23.0577 25.0001C22.6422 24.9699 22.2268 25.0001 21.8204 25.0966C21.8444 25.1177 21.8625 25.1448 21.8715 25.178C21.8776 25.2111 21.8745 25.2443 21.8595 25.2714C21.8204 25.389 21.6849 25.4222 21.6307 25.3438V25.3347Z" fill="#FAFAFA"/>
<path id="Vector_37" d="M4.53193 1.68542C5.05275 1.0764 5.71807 0.606066 6.46769 0.319646C7.2143 0.0302102 8.02112 -0.0632534 8.8159 0.04227C11.7391 0.295526 14.5028 1.47739 19.3046 4.25416L49.7319 21.8525C54.5397 24.6292 67.6114 32.1666 72.1603 35.7454C76.7062 39.3241 83.4016 44.9802 83.4016 44.9802C83.7358 45.2003 84.0157 45.4957 84.2144 45.8424C84.4131 46.1892 84.5275 46.5781 84.5486 46.9791C84.5486 47.5037 84.2867 47.772 83.9074 47.772H83.8441C78.7624 47.4162 73.7047 46.7499 68.7042 45.7731C59.197 43.9973 55.491 41.8054 49.7319 38.5131L8.09639 14.4417C4.25195 12.2197 0.618249 8.26104 0.0853862 5.18277C-0.444466 2.1045 2.01212 1.6613 4.53193 1.68542Z" fill="#F5F5F5"/>
<path id="Vector_38" d="M13.3066 3.62093C15.3116 5.75551 16.1034 7.95945 19.3036 9.81063C22.4014 11.5864 59.9757 32.2871 66.7103 35.7453C73.4448 39.2034 75.0675 39.4989 74.2125 37.3311C78.4754 40.8134 83.4006 44.9801 83.4006 44.9801C83.7348 45.2002 84.0148 45.4956 84.2135 45.8423C84.4122 46.1891 84.5266 46.578 84.5476 46.979C84.5476 47.5036 84.2857 47.7719 83.9064 47.7719H83.8432C78.7614 47.4162 73.7037 46.7499 68.7032 45.773C59.196 43.9972 55.4901 41.8053 49.7309 38.513L8.09541 14.4416C4.25097 12.2196 0.617272 8.26094 0.0844097 5.18267C-0.445442 2.10441 2.01114 1.66121 4.53095 1.68533C6.3463 1.34464 11.3137 1.48031 13.3096 3.62093H13.3066Z" fill="#009688"/>
<path id="Vector_39" opacity="0.5" d="M1.70407 2.76474C1.10798 2.98483 0.620278 3.42803 0.34632 4.00087C0.0723627 4.57371 0.0302154 5.23097 0.23192 5.83698C0.168699 5.61387 0.11451 5.39981 0.0723627 5.18575C-0.451468 2.10447 1.99609 1.66127 4.51589 1.68539C6.33124 1.3055 11.2896 1.48037 13.2946 3.62099C8.57107 1.93864 3.39899 1.97784 1.70407 2.76474Z" fill="#FAFAFA"/>
<path id="Vector_40" opacity="0.1" d="M9.75411 8.59575C15.7511 11.7072 28.5759 18.9642 40.4765 25.6604L38.893 21.0746L52.9792 28.8562L54.6259 33.5686C57.8653 35.3685 60.6319 36.876 62.6339 37.9162C66.8788 40.0779 71.247 41.9773 75.7207 43.6114L74.2937 39.5171L81.4226 44.2295L81.8411 45.7671C82.681 46.0354 83.2199 46.1862 83.3764 46.2284C83.7798 46.3158 83.8822 45.8937 83.7106 45.2696C84.1893 45.7279 84.4723 46.352 84.5024 47.0153C84.5024 47.5399 84.2405 47.8082 83.8611 47.8082H83.7979C78.7372 47.4374 73.7066 46.756 68.7302 45.7701C59.223 43.9943 55.5171 41.8024 49.7579 38.5101L8.12241 14.4417C5.98193 13.1905 4.07627 11.5806 2.48069 9.68113C0.707492 6.5305 0.493745 3.81704 9.75411 8.59273V8.59575Z" fill="black"/>
<path id="Vector_41" d="M45.0162 20.7641C45.0162 20.4506 44.98 20.14 44.9048 19.8355C44.9048 19.7239 44.9048 19.6848 45.0222 19.739L45.4015 19.9621C45.5039 20.0315 45.5822 20.131 45.6243 20.2485C45.7026 20.5531 45.7387 20.8636 45.7357 21.1772C45.7357 21.2887 45.6574 21.3279 45.5611 21.2736L45.1818 21.0596C45.1336 21.0264 45.0944 20.9842 45.0643 20.9329C45.0342 20.8817 45.0192 20.8244 45.0162 20.7671V20.7641Z" fill="#455A64"/>
<path id="Vector_42" d="M43.6556 19.9802C43.6616 19.6666 43.6255 19.3561 43.5532 19.0516C43.5532 18.9491 43.5532 18.9099 43.6646 18.9641L44.0439 19.1782C44.1523 19.2475 44.2336 19.35 44.2727 19.4706C44.351 19.7751 44.3871 20.0857 44.3841 20.3992C44.3841 20.4203 44.3841 20.4445 44.3721 20.4626C44.3631 20.4806 44.345 20.4987 44.3269 20.5078C44.3089 20.5168 44.2848 20.5229 44.2637 20.5198C44.2426 20.5198 44.2216 20.5078 44.2035 20.4927L43.8302 20.2696C43.779 20.2395 43.7369 20.1942 43.7068 20.146C43.6767 20.0947 43.6586 20.0374 43.6556 19.9772V19.9802Z" fill="#455A64"/>
<path id="Vector_43" d="M42.3011 19.2021C42.3011 18.8886 42.268 18.578 42.1987 18.2735C42.1987 18.171 42.1987 18.1318 42.3101 18.177L42.6894 18.4002C42.7948 18.4665 42.8731 18.566 42.9122 18.6866C42.9875 18.982 43.0206 19.2865 43.0086 19.5911C43.0086 19.7026 42.9303 19.7509 42.834 19.6936L42.4546 19.4705C42.4125 19.4403 42.3764 19.3981 42.3493 19.3529C42.3222 19.3077 42.3071 19.2534 42.3041 19.2021H42.3011Z" fill="#455A64"/>
<path id="Vector_44" d="M40.9642 18.4152C40.9702 18.1017 40.9341 17.7911 40.8618 17.4866C40.8618 17.3841 40.8618 17.3449 40.9792 17.3992L41.3525 17.6223C41.4609 17.6886 41.5422 17.7881 41.5813 17.9087C41.6596 18.2132 41.6957 18.5238 41.6927 18.8373C41.6987 18.8584 41.6927 18.8825 41.6867 18.9036C41.6777 18.9248 41.6626 18.9398 41.6415 18.9519C41.6205 18.9639 41.5994 18.967 41.5753 18.9639C41.5542 18.9609 41.5332 18.9489 41.5181 18.9338L41.1388 18.7197C41.0876 18.6866 41.0455 18.6413 41.0154 18.5901C40.9853 18.5388 40.9672 18.4785 40.9642 18.4182V18.4152Z" fill="#455A64"/>
<path id="Vector_45" d="M39.6126 17.6406C39.6186 17.327 39.5855 17.0165 39.5103 16.712C39.5103 16.6095 39.5103 16.5703 39.6216 16.6245L40.001 16.8386C40.1063 16.9049 40.1876 17.0074 40.2298 17.125C40.305 17.4295 40.3381 17.7401 40.3321 18.0536C40.3321 18.1652 40.2539 18.2134 40.1575 18.1561L39.7782 17.933C39.73 17.8999 39.6879 17.8576 39.6578 17.8064C39.6277 17.7551 39.6126 17.6978 39.6096 17.6406H39.6126Z" fill="#455A64"/>
<path id="Vector_46" d="M38.2515 16.8627C38.2515 16.5492 38.2154 16.2386 38.1401 15.9341C38.1401 15.8226 38.1401 15.7834 38.2575 15.8377L38.6369 16.0608C38.7422 16.1271 38.8205 16.2266 38.8597 16.3472C38.9379 16.6517 38.974 16.9622 38.971 17.2758C38.971 17.3873 38.8928 17.4265 38.7964 17.3723L38.4171 17.1582C38.3689 17.125 38.3298 17.0828 38.2997 17.0316C38.2696 16.9803 38.2545 16.923 38.2515 16.8658V16.8627Z" fill="#455A64"/>
<path id="Vector_47" d="M36.9149 16.0756C36.9209 15.7621 36.8848 15.4515 36.8125 15.147C36.8125 15.0445 36.8125 15.0053 36.9239 15.0596L37.3032 15.2736C37.4116 15.343 37.4929 15.4455 37.532 15.5661C37.6103 15.8706 37.6464 16.1811 37.6434 16.4947C37.6434 16.5158 37.6434 16.5399 37.6314 16.558C37.6193 16.5761 37.6043 16.5942 37.5862 16.6032C37.5681 16.6123 37.5441 16.6183 37.523 16.6153C37.5019 16.6153 37.4808 16.6032 37.4628 16.5882L37.0895 16.3741C37.0383 16.3409 36.9961 16.2957 36.966 16.2445C36.9359 16.1932 36.9179 16.1329 36.9149 16.0726V16.0756Z" fill="#455A64"/>
<path id="Vector_48" d="M35.5604 15.2978C35.5604 14.9843 35.5272 14.6737 35.458 14.3692C35.458 14.2667 35.458 14.2275 35.5694 14.2727L35.9487 14.4959C36.0541 14.5622 36.1324 14.6617 36.1715 14.7823C36.2528 15.0838 36.2919 15.3973 36.2829 15.7109C36.2829 15.8224 36.2046 15.8707 36.1083 15.8134L35.729 15.6234C35.6748 15.5873 35.6326 15.539 35.6025 15.4817C35.5724 15.4245 35.5604 15.3611 35.5634 15.2978H35.5604Z" fill="#455A64"/>
<path id="Vector_49" d="M34.1937 14.5141C34.1997 14.2036 34.1666 13.896 34.0913 13.5945C34.0913 13.483 34.0913 13.4438 34.2087 13.4981L34.582 13.7212C34.6874 13.7875 34.7687 13.89 34.8108 14.0076C34.8891 14.3121 34.9252 14.6226 34.9222 14.9362C34.9282 14.9573 34.9222 14.9814 34.9162 15.0025C34.9072 15.0236 34.8921 15.0387 34.871 15.0508C34.85 15.0628 34.8289 15.0658 34.8048 15.0628C34.7837 15.0598 34.7627 15.0477 34.7476 15.0327L34.3683 14.8337C34.3171 14.7975 34.2719 14.7523 34.2418 14.698C34.2117 14.6437 34.1937 14.5804 34.1937 14.5171V14.5141Z" fill="#455A64"/>
<path id="Vector_50" d="M32.8387 13.736C32.8447 13.4225 32.8116 13.1119 32.7363 12.8074C32.7363 12.7049 32.7363 12.6657 32.8477 12.72L33.227 12.934C33.3505 13.0004 33.4438 13.1119 33.489 13.2446C33.5702 13.5461 33.6034 13.8596 33.5913 14.1732C33.5913 14.2757 33.513 14.3239 33.4167 14.2697L33.0374 14.0466C32.9802 14.0164 32.932 13.9712 32.8989 13.9169C32.8628 13.8627 32.8447 13.7993 32.8417 13.736H32.8387Z" fill="#455A64"/>
<path id="Vector_51" d="M31.5113 12.9582C31.5113 12.6446 31.4752 12.3341 31.3999 12.0296C31.3999 11.918 31.3999 11.8788 31.5173 11.9331L31.8966 12.1562C32.002 12.2225 32.0803 12.322 32.1194 12.4426C32.1977 12.7471 32.2338 13.0577 32.2308 13.3712C32.2308 13.4828 32.1525 13.522 32.0562 13.4738L31.6769 13.2506C31.6287 13.2175 31.5896 13.1753 31.5595 13.124C31.5294 13.0728 31.5143 13.0155 31.5113 12.9582Z" fill="#455A64"/>
<path id="Vector_52" d="M30.1502 12.1745C30.1562 11.8609 30.1201 11.5504 30.0479 11.2459C30.0479 11.1434 30.0479 11.1042 30.1592 11.1585L30.5386 11.3816C30.6469 11.4479 30.7252 11.5474 30.7674 11.668C30.8456 11.9725 30.8818 12.283 30.8788 12.5966C30.8788 12.7081 30.7915 12.7473 30.6951 12.6931L30.3308 12.4549C30.2827 12.4247 30.2405 12.3855 30.2074 12.3373C30.1773 12.2891 30.1562 12.2348 30.1472 12.1775L30.1502 12.1745Z" fill="#455A64"/>
<path id="Vector_53" d="M28.7957 11.3964C28.7957 11.0829 28.7626 10.7723 28.6934 10.4678C28.6934 10.3653 28.6934 10.3261 28.8047 10.3804L29.1841 10.5944C29.2894 10.6608 29.3677 10.7603 29.4069 10.8809C29.4881 11.1824 29.5273 11.4959 29.5182 11.8095C29.5182 11.921 29.44 11.9693 29.3436 11.912L28.9643 11.6889C28.9161 11.6557 28.874 11.6135 28.8439 11.5622C28.8138 11.511 28.7987 11.4537 28.7957 11.3964Z" fill="#455A64"/>
<path id="Vector_54" d="M27.4588 10.6186C27.4648 10.305 27.4317 9.9945 27.3564 9.68999C27.3564 9.57844 27.3564 9.53924 27.4739 9.59351L27.8472 9.81662C27.9555 9.88295 28.0368 9.98244 28.076 10.103C28.1542 10.4076 28.1904 10.7181 28.1873 11.0316C28.1934 11.0528 28.1873 11.0769 28.1813 11.098C28.1723 11.1191 28.1572 11.1342 28.1362 11.1462C28.1151 11.1583 28.094 11.1613 28.0699 11.1583C28.0489 11.1553 28.0278 11.1432 28.0127 11.1281L27.6334 10.9141C27.5852 10.8809 27.5431 10.8387 27.513 10.7874C27.4829 10.7362 27.4648 10.6789 27.4588 10.6216V10.6186Z" fill="#455A64"/>
<path id="Vector_55" d="M26.1072 9.83173C26.1133 9.51817 26.0771 9.20763 26.0049 8.90312C26.0049 8.80061 26.0049 8.76142 26.1163 8.81569L26.4956 9.02975C26.604 9.09909 26.6853 9.2016 26.7244 9.3222C26.8057 9.6237 26.8388 9.93725 26.8268 10.2508C26.8268 10.3533 26.7485 10.4016 26.6521 10.3473L26.2728 10.1332C26.2247 10.097 26.1855 10.0518 26.1554 10.0006C26.1253 9.94931 26.1103 9.89203 26.1072 9.83173Z" fill="#455A64"/>
<path id="Vector_56" d="M24.7979 9.05394C24.7979 8.74038 24.7618 8.42984 24.6865 8.12533C24.6865 8.02282 24.6865 7.98363 24.8039 8.02885L25.1833 8.25196C25.2886 8.31829 25.3669 8.41778 25.406 8.53838C25.4843 8.84289 25.5204 9.15343 25.5174 9.46698C25.5174 9.57854 25.4392 9.62678 25.3428 9.56949L24.9635 9.34639C24.9153 9.31322 24.8732 9.27101 24.8431 9.21976C24.813 9.1685 24.7979 9.11122 24.7949 9.05394H24.7979Z" fill="#455A64"/>
<path id="Vector_57" d="M23.41 8.26996C23.416 7.95641 23.3799 7.64586 23.3076 7.34135C23.3076 7.23885 23.3076 7.19965 23.425 7.25392L23.7983 7.47703C23.9067 7.54336 23.988 7.64285 24.0271 7.76345C24.1054 8.06796 24.1415 8.3785 24.1385 8.69205C24.1385 8.80361 24.0512 8.8428 23.9549 8.78853L23.5816 8.57447C23.5304 8.54131 23.4882 8.49608 23.4581 8.44483C23.428 8.39357 23.41 8.33327 23.407 8.27298L23.41 8.26996Z" fill="#455A64"/>
<path id="Vector_58" d="M66.6077 33.665C66.6137 33.3514 66.5776 33.0409 66.5054 32.7364C66.5054 32.6339 66.5054 32.5947 66.6168 32.6489L66.9961 32.872C67.1045 32.9354 67.1857 33.0379 67.2249 33.1585C67.3001 33.463 67.3363 33.7735 67.3272 34.0871C67.3272 34.1986 67.249 34.2378 67.1526 34.1836L66.7733 33.9695C66.7251 33.9363 66.683 33.8911 66.6529 33.8398C66.6228 33.7886 66.6077 33.7283 66.6047 33.668L66.6077 33.665Z" fill="#455A64"/>
<path id="Vector_59" d="M65.2501 32.863C65.2501 32.5494 65.2139 32.2389 65.1387 31.9344C65.1387 31.8228 65.1387 31.7836 65.2561 31.8379L65.6354 32.061C65.7378 32.1303 65.816 32.2298 65.8582 32.3474C65.9365 32.6519 65.9726 32.9625 65.9696 33.276C65.9696 33.3876 65.8913 33.4268 65.795 33.3785L65.4156 33.1554C65.3675 33.1223 65.3283 33.0801 65.2982 33.0288C65.2681 32.9776 65.2531 32.9203 65.2501 32.863Z" fill="#455A64"/>
<path id="Vector_60" d="M63.9254 32.0219C63.9284 31.7084 63.8922 31.3978 63.814 31.0933C63.814 30.9818 63.814 30.9426 63.9314 30.9968L64.3107 31.2199C64.4161 31.2863 64.4943 31.3858 64.5335 31.5064C64.6118 31.8109 64.6479 32.1214 64.6449 32.435C64.6449 32.5465 64.5666 32.5857 64.4703 32.5314L64.0909 32.3174C64.0428 32.2842 64.0036 32.242 63.9735 32.1908C63.9434 32.1395 63.9284 32.0822 63.9254 32.0249V32.0219Z" fill="#455A64"/>
<path id="Vector_61" d="M62.5736 31.1987C62.5796 30.8851 62.5434 30.5746 62.4712 30.2701C62.4712 30.1676 62.4712 30.1284 62.5886 30.1826L62.9619 30.3967C63.0703 30.466 63.1516 30.5685 63.1907 30.6891C63.269 30.9937 63.3051 31.3042 63.3021 31.6178C63.3021 31.7203 63.2148 31.7685 63.1185 31.7142L62.7452 31.5002C62.694 31.467 62.6518 31.4218 62.6217 31.3705C62.5916 31.3193 62.5735 31.259 62.5705 31.1987H62.5736Z" fill="#455A64"/>
<path id="Vector_62" d="M61.2398 30.3818C61.2398 30.0682 61.2067 29.7577 61.1284 29.4532C61.1284 29.3507 61.1284 29.3115 61.2458 29.3657L61.6252 29.5798C61.7335 29.6461 61.8118 29.7517 61.8479 29.8722C61.9262 30.1768 61.9623 30.4873 61.9593 30.8009C61.9593 30.9034 61.881 30.9516 61.7847 30.8973L61.4054 30.6742C61.3542 30.6441 61.3151 30.5989 61.285 30.5476C61.2549 30.4963 61.2398 30.4391 61.2398 30.3788V30.3818Z" fill="#455A64"/>
<path id="Vector_63" d="M59.8943 29.5646C59.9004 29.2511 59.8642 28.9405 59.792 28.636C59.792 28.5335 59.792 28.4943 59.9034 28.5486L60.2827 28.7717C60.3911 28.838 60.4724 28.9375 60.5115 29.0581C60.5868 29.3626 60.6229 29.6732 60.6139 29.9867C60.6139 30.0983 60.5356 30.1375 60.4393 30.0832L60.0599 29.8691C60.0118 29.836 59.9696 29.7908 59.9395 29.7395C59.9094 29.6883 59.8944 29.628 59.8913 29.5677L59.8943 29.5646Z" fill="#455A64"/>
<path id="Vector_64" d="M58.5516 28.7536C58.5576 28.44 58.5245 28.1295 58.4492 27.825C58.4492 27.7225 58.4492 27.6833 58.5606 27.7376L58.9399 27.9516C59.0453 28.018 59.1266 28.1205 59.1687 28.238C59.244 28.5426 59.2801 28.8531 59.2711 29.1667C59.2711 29.2782 59.1928 29.3264 59.0965 29.2692L58.7172 29.0461C58.669 29.0129 58.6268 28.9707 58.5967 28.9194C58.5666 28.8682 58.5516 28.8109 58.5486 28.7536H58.5516Z" fill="#455A64"/>
<path id="Vector_65" d="M57.1971 27.9455C57.2031 27.632 57.17 27.3214 57.0947 27.0169C57.0947 26.9144 57.0947 26.8752 57.2061 26.9205L57.5854 27.1436C57.6908 27.2099 57.7691 27.3094 57.8082 27.43C57.8895 27.7315 57.9286 28.045 57.9196 28.3586C57.9196 28.4701 57.8413 28.5184 57.745 28.4611L57.3657 28.238C57.3175 28.2048 57.2754 28.1626 57.2453 28.1114C57.2151 28.0601 57.2001 28.0028 57.1971 27.9455Z" fill="#455A64"/>
<path id="Vector_66" d="M55.8511 27.1347C55.8511 26.8212 55.815 26.5106 55.7397 26.2061C55.7397 26.1036 55.7397 26.0644 55.8572 26.1187L56.2365 26.3327C56.3388 26.4021 56.4171 26.5016 56.4593 26.6192C56.5375 26.9237 56.5737 27.2342 56.5707 27.5478C56.5707 27.6593 56.4924 27.7075 56.396 27.6503L56.0167 27.4272C55.9685 27.394 55.9264 27.3518 55.8963 27.3005C55.8662 27.2493 55.8511 27.192 55.8481 27.1347H55.8511Z" fill="#455A64"/>
<path id="Vector_67" d="M54.5023 26.3266C54.5083 26.0161 54.4752 25.7085 54.3999 25.407C54.3999 25.2955 54.3999 25.2563 54.5113 25.3106L54.8906 25.5337C54.996 25.6 55.0773 25.7025 55.1194 25.8201C55.2007 26.1216 55.2338 26.4351 55.2218 26.7487C55.2218 26.8602 55.1435 26.8994 55.0472 26.8452L54.6678 26.6311C54.6197 26.5949 54.5805 26.5497 54.5504 26.4984C54.5203 26.4472 54.5053 26.3899 54.5023 26.3296V26.3266Z" fill="#455A64"/>
<path id="Vector_68" d="M53.1385 25.5246C53.1445 25.211 53.1084 24.9005 53.0361 24.596C53.0361 24.4935 53.0361 24.4543 53.1535 24.5086L53.5268 24.7226C53.6352 24.792 53.7165 24.8945 53.7556 25.0151C53.8339 25.3196 53.87 25.6301 53.867 25.9437C53.8731 25.9648 53.867 25.9889 53.861 26.01C53.852 26.0311 53.8369 26.0462 53.8159 26.0582C53.7948 26.0703 53.7737 26.0733 53.7496 26.0703C53.7286 26.0673 53.7075 26.0552 53.6924 26.0402L53.3131 25.8261C53.2619 25.7929 53.2198 25.7477 53.1897 25.6965C53.1596 25.6452 53.1415 25.5849 53.1385 25.5246Z" fill="#455A64"/>
<path id="Vector_69" d="M51.79 24.7226C51.8021 24.4121 51.778 24.0985 51.7178 23.794C51.7178 23.6915 51.7178 23.6523 51.8352 23.7066L52.2145 23.9297C52.3199 23.996 52.3982 24.0985 52.4373 24.2161C52.5035 24.5206 52.5276 24.8342 52.5095 25.1447C52.5095 25.2562 52.4313 25.2954 52.3349 25.2412L51.9556 25.0271C51.9074 24.9939 51.8653 24.9487 51.8352 24.8975C51.8051 24.8462 51.79 24.7859 51.787 24.7256L51.79 24.7226Z" fill="#455A64"/>
<path id="Vector_70" d="M50.4415 23.9297C50.4415 23.6161 50.4053 23.3056 50.3301 23.0011C50.3301 22.8986 50.3301 22.8594 50.4475 22.9046L50.8268 23.1277C50.9292 23.197 51.0075 23.2965 51.0496 23.4141C51.1279 23.7186 51.164 24.0292 51.161 24.3427C51.161 24.4543 51.0827 24.5025 50.9864 24.4452L50.6071 24.2221C50.5589 24.189 50.5167 24.1467 50.4866 24.0955C50.4565 24.0442 50.4415 23.987 50.4385 23.9297H50.4415Z" fill="#455A64"/>
<path id="Vector_71" d="M49.0955 23.1367C49.1015 22.8231 49.0684 22.5126 48.9932 22.2081C48.9932 22.0965 48.9932 22.0573 49.1106 22.1116L49.4839 22.3347C49.5892 22.401 49.6705 22.5035 49.7127 22.6211C49.791 22.9256 49.8271 23.2362 49.8241 23.5497C49.8241 23.6613 49.7368 23.7005 49.6404 23.6462L49.2671 23.4321C49.2189 23.399 49.1768 23.3568 49.1467 23.3055C49.1166 23.2542 49.0985 23.197 49.0925 23.1397L49.0955 23.1367Z" fill="#455A64"/>
<path id="Vector_72" d="M47.7469 22.3439C47.7529 22.0304 47.7198 21.7198 47.6445 21.4153C47.6445 21.3038 47.6445 21.2646 47.7559 21.3189L48.1352 21.542C48.2406 21.6083 48.3219 21.7108 48.364 21.8284C48.4393 22.1329 48.4754 22.4434 48.4664 22.757C48.4664 22.8685 48.3881 22.9077 48.2918 22.8535L47.9125 22.6394C47.8643 22.6062 47.8252 22.564 47.7951 22.5128C47.765 22.4615 47.7499 22.4042 47.7469 22.347V22.3439Z" fill="#455A64"/>
<path id="Vector_73" d="M46.3441 21.5659C46.3501 21.2523 46.314 20.9418 46.2417 20.6373C46.2417 20.5347 46.2417 20.4956 46.3531 20.5498L46.7324 20.7639C46.8408 20.8332 46.9221 20.9357 46.9612 21.0563C47.0365 21.3608 47.0726 21.6714 47.0636 21.9849C47.0636 22.0874 46.9853 22.1357 46.889 22.0814L46.5096 21.8674C46.4615 21.8342 46.4193 21.789 46.3892 21.7377C46.3591 21.6865 46.3441 21.6262 46.341 21.5659H46.3441Z" fill="#455A64"/>
<path id="Vector_74" d="M74.2032 39.5201L95.0842 39.0437C96.2312 39.0346 97.3662 39.2879 98.4048 39.7824L99.7595 40.5753L81.8078 44.8053C81.5519 44.8656 81.287 44.8686 81.0311 44.8113C80.7752 44.754 80.5373 44.6364 80.3326 44.4736L74.2002 39.5231L74.2032 39.5201Z" fill="#F0F0F0"/>
<path id="Vector_75" d="M80.3146 44.4706L74.4531 39.71C75.7296 40.6928 79.1586 42.7973 81.0612 43.1289C83.1204 43.4937 99.7566 40.5511 99.7566 40.5511L81.8048 44.8022C81.5489 44.8655 81.278 44.8685 81.0221 44.8113C80.7632 44.754 80.5223 44.6364 80.3176 44.4676L80.3146 44.4706Z" fill="#E0E0E0"/>
<path id="Vector_76" d="M74.2031 39.5201L95.0841 39.0437C96.2311 39.0346 97.3661 39.2879 98.4047 39.7824L99.7594 40.5753C98.4137 40.0055 96.7158 39.505 91.8388 39.7341C86.9587 39.9633 74.9106 40.0838 74.9106 40.0838L74.2061 39.5201H74.2031Z" fill="#FAFAFA"/>
<path id="Vector_77" d="M38.9291 20.6946C39.0224 20.6434 39.1248 20.6162 39.2301 20.6162L96.4602 16.7993C97.0592 16.7902 97.6553 16.9139 98.2032 17.1611C98.7512 17.4083 99.2389 17.7731 99.6272 18.2284L100.988 19.9982L53.1719 29.1154C52.2837 29.2902 49.6465 28.3224 47.0153 26.7908L42.8488 24.412C40.0219 22.7237 38.2457 21.0805 38.9261 20.6976L38.9291 20.6946Z" fill="#F0F0F0"/>
<path id="Vector_78" d="M47.0275 26.7305L42.861 24.3517C41.8344 23.7729 40.859 23.1066 39.9468 22.3619C42.3221 24.3065 52.3832 26.2421 57.754 25.7326C63.1248 25.2261 101 19.9951 101 19.9951L53.184 29.1123C52.2959 29.2631 49.6587 28.3194 47.0275 26.7335V26.7305Z" fill="#E0E0E0"/>
<path id="Vector_79" d="M38.9232 20.6946C39.0165 20.6434 39.1189 20.6162 39.2243 20.6162L96.4543 16.7993C97.0534 16.7902 97.6495 16.9139 98.1974 17.1611C98.7453 17.4083 99.233 17.7731 99.6244 18.2284L100.606 19.5067C100.079 18.8555 99.3986 18.346 98.6249 18.0264C97.8512 17.7068 97.0082 17.5892 96.1773 17.6827C93.9285 17.7792 63.3897 19.9288 57.739 20.2062C52.0912 20.4836 41.5454 21.183 40.8891 21.2765C40.0973 21.3639 39.161 21.6413 39.7812 22.2353C38.9262 21.4906 38.5619 20.9026 38.9262 20.6946H38.9232Z" fill="#FAFAFA"/>
<path id="Vector_80" d="M60.3309 23.993C62.2426 24.7528 64.0941 25.6482 65.8763 26.6733C65.8763 26.6733 65.9726 27.008 65.512 27.2672C65.1929 27.4331 64.8347 27.5084 64.4734 27.4813C62.9139 26.5919 61.4328 25.5698 60.0449 24.4271C59.9877 24.388 59.9456 24.3307 59.9335 24.2613C59.9185 24.195 59.9335 24.1226 59.9697 24.0654C60.0088 24.0081 60.066 23.9659 60.1352 23.9538C60.2015 23.9387 60.2737 23.9538 60.3309 23.99V23.993Z" fill="#009688"/>
<path id="Vector_81" opacity="0.1" d="M60.3309 23.993C62.2426 24.7528 64.0941 25.6482 65.8763 26.6733C65.8763 26.6733 65.9726 27.008 65.512 27.2672C65.1929 27.4331 64.8347 27.5084 64.4734 27.4813C62.9139 26.5919 61.4328 25.5698 60.0449 24.4271C59.9877 24.388 59.9456 24.3307 59.9335 24.2613C59.9185 24.195 59.9335 24.1226 59.9697 24.0654C60.0088 24.0081 60.066 23.9659 60.1352 23.9538C60.2015 23.9387 60.2737 23.9538 60.3309 23.99V23.993Z" fill="black"/>
<path id="Vector_82" opacity="0.15" d="M65.5359 27.2704C65.2168 27.4362 64.8585 27.5116 64.4973 27.4844C62.9378 26.595 61.4566 25.573 60.0688 24.4303C60.0176 24.3911 59.9845 24.3338 59.9754 24.2705C59.9664 24.2072 59.9845 24.1409 60.0206 24.0896C60.0206 24.3429 60.2584 24.4785 61.6914 25.4132C63.1245 26.3508 64.3527 27.1347 64.9639 27.1347C65.1445 27.1347 65.3221 27.0895 65.4817 27.0081C65.6443 26.9297 65.7858 26.8151 65.8971 26.6734C65.8971 26.6734 65.9844 27.0081 65.5329 27.2674L65.5359 27.2704Z" fill="black"/>
<path id="Vector_83" d="M72.1594 22.5579C73.6616 23.1488 75.1157 23.8513 76.5156 24.6533C76.5156 24.6533 76.5878 24.9156 76.2236 25.1206C75.9797 25.2503 75.7058 25.3106 75.4318 25.2955C74.2095 24.599 73.0505 23.8031 71.9607 22.9167C71.9215 22.8865 71.8944 22.8443 71.8824 22.7961C71.8734 22.7479 71.8824 22.6966 71.9035 22.6544C71.9275 22.6122 71.9667 22.579 72.0118 22.5609C72.057 22.5428 72.1082 22.5428 72.1563 22.5609L72.1594 22.5579Z" fill="#009688"/>
<path id="Vector_84" opacity="0.1" d="M72.1594 22.5579C73.6616 23.1488 75.1157 23.8513 76.5156 24.6533C76.5156 24.6533 76.5878 24.9156 76.2236 25.1206C75.9797 25.2503 75.7058 25.3106 75.4318 25.2955C74.2095 24.599 73.0505 23.8031 71.9607 22.9167C71.9215 22.8865 71.8944 22.8443 71.8824 22.7961C71.8734 22.7479 71.8824 22.6966 71.9035 22.6544C71.9275 22.6122 71.9667 22.579 72.0118 22.5609C72.057 22.5428 72.1082 22.5428 72.1563 22.5609L72.1594 22.5579Z" fill="black"/>
<path id="Vector_85" opacity="0.15" d="M76.2176 25.1447C75.9737 25.2743 75.6997 25.3346 75.4258 25.3195C74.2065 24.6231 73.0445 23.8271 71.9547 22.9407C71.9246 22.9136 71.9005 22.8804 71.8884 22.8412C71.8764 22.8021 71.8764 22.7598 71.8884 22.7206C71.9005 22.6815 71.9246 22.6483 71.9547 22.6212C71.9878 22.594 72.0239 22.5789 72.0661 22.5759C71.9155 22.6724 72.066 22.8141 73.0234 23.4714C73.8001 24.0924 74.6581 24.602 75.5733 24.9879C75.9135 24.9939 76.2477 24.8854 76.5246 24.6864C76.5246 24.6864 76.5788 24.9155 76.2145 25.1477L76.2176 25.1447Z" fill="black"/>
<path id="Vector_86" d="M83.8251 21.376C83.801 21.3519 83.786 21.3188 83.783 21.2826C83.78 21.2494 83.786 21.2132 83.804 21.1831C83.8221 21.1529 83.8492 21.1318 83.8823 21.1168C83.9154 21.1047 83.9516 21.1017 83.9847 21.1107C85.0745 21.5389 86.1342 22.0454 87.1548 22.6273C87.1548 22.6273 87.212 22.8172 86.941 22.977C86.7604 23.0704 86.5587 23.1096 86.354 23.0946C85.4628 22.5941 84.6169 22.0182 83.8281 21.373L83.8251 21.376Z" fill="#009688"/>
<path id="Vector_87" opacity="0.1" d="M83.8251 21.376C83.801 21.3519 83.786 21.3188 83.783 21.2826C83.78 21.2494 83.786 21.2132 83.804 21.1831C83.8221 21.1529 83.8492 21.1318 83.8823 21.1168C83.9154 21.1047 83.9516 21.1017 83.9847 21.1107C85.0745 21.5389 86.1342 22.0454 87.1548 22.6273C87.1548 22.6273 87.212 22.8172 86.941 22.977C86.7604 23.0704 86.5587 23.1096 86.354 23.0946C85.4628 22.5941 84.6169 22.0182 83.8281 21.373L83.8251 21.376Z" fill="black"/>
<path id="Vector_88" opacity="0.15" d="M86.9229 22.98C86.7423 23.0734 86.5406 23.1126 86.3358 23.0975C85.4538 22.5971 84.6168 22.0212 83.8341 21.376C83.813 21.3579 83.798 21.3338 83.7889 21.3067C83.7799 21.2795 83.7799 21.2524 83.7859 21.2252C83.792 21.1981 83.804 21.174 83.8221 21.1529C83.8401 21.1318 83.8642 21.1167 83.8913 21.1077C83.8191 21.1861 83.9605 21.376 84.7794 21.9006C85.5953 22.4252 86.3238 23.0101 87.1547 22.6302C87.1397 22.6302 87.1938 22.8202 86.9259 22.98H86.9229Z" fill="black"/>
<path id="Vector_89" d="M12.373 2.08926C12.6259 2.26715 12.8396 2.49327 13.0022 2.75858C13.1648 3.02088 13.2701 3.31635 13.3153 3.62086C10.5486 2.39377 7.5622 1.7335 4.53662 1.68526C4.86176 1.28427 5.25915 0.952626 5.70771 0.702384C8.01678 0.467218 10.3439 0.952626 12.37 2.09228L12.373 2.08926Z" fill="#455A64"/>
<path id="Vector_90" d="M51.7087 27.6352C53.3103 27.6352 54.6078 26.3357 54.6078 24.7318C54.6078 23.1278 53.3103 21.8284 51.7087 21.8284C50.1071 21.8284 48.8096 23.1278 48.8096 24.7318C48.8096 26.3357 50.1071 27.6352 51.7087 27.6352Z" fill="#E0E0E0"/>
<path id="Vector_91" opacity="0.1" d="M48.8097 24.7316C48.8157 24.207 48.9632 23.6944 49.2342 23.2482C49.5081 22.802 49.8965 22.4372 50.3571 22.193C50.8207 21.9488 51.3415 21.8342 51.8624 21.8643C52.3832 21.8915 52.8889 22.0603 53.3225 22.3528C53.488 23.1246 53.467 23.9266 53.2592 24.6894C53.0515 25.4521 52.6631 26.1516 52.1273 26.7335C51.9226 26.9385 53.3164 26.9325 54.4333 25.7325C54.2015 26.3747 53.7469 26.9144 53.1569 27.2551C52.5668 27.5958 51.8744 27.7194 51.2 27.5988C50.5287 27.4782 49.9206 27.1254 49.481 26.6008C49.0445 26.0762 48.8037 25.4129 48.8067 24.7316H48.8097Z" fill="black"/>
<path id="Vector_92" d="M45.0556 16.0698C47.8614 16.0698 52.6451 20.8304 52.907 21.1319C53.2111 21.539 53.3616 22.0364 53.3345 22.5429C53.2833 23.4625 53.0184 24.3549 52.5578 25.1539C52.0972 25.9498 51.4559 26.6282 50.6883 27.1287C50.2457 27.4241 49.7068 27.5387 49.183 27.4543C48.7645 27.4 42.316 25.5579 40.9131 23.1308L45.0556 16.0698Z" fill="#EBEBEB"/>
<path id="Vector_93" opacity="0.1" d="M40.9102 23.1307L44.872 16.4043C45.6246 16.4827 46.2358 16.6425 46.4555 16.953C46.7656 17.6133 46.9282 18.3369 46.9282 19.0665C46.9282 19.7961 46.7656 20.5197 46.4555 21.18C45.7992 22.585 45.8384 23.0673 48.6893 23.9899C51.5403 24.9095 52.2779 24.7829 53.2593 23.5045C52.9131 24.9939 52.0069 26.2903 50.7335 27.1315C50.2909 27.427 49.7521 27.5415 49.2282 27.4571C48.7616 27.4028 42.3131 25.5607 40.9102 23.1337V23.1307Z" fill="black"/>
<path id="Vector_94" d="M45.0375 16.0697C47.8433 16.0697 52.627 20.8303 52.8889 21.1318C53.1358 21.4604 53.2743 21.8554 53.2923 22.2654C53.1087 21.575 52.35 20.9237 51.3445 20.0675C49.9777 18.958 48.5447 17.9359 47.0515 17.0043C46.5036 16.736 47.0515 18.1138 46.4645 19.6213L44.8418 16.4164L45.0405 16.0667L45.0375 16.0697Z" fill="#FAFAFA"/>
<path id="Vector_95" d="M43.6373 16.4796C45.3081 15.5118 46.6719 16.2957 46.6719 18.2404C46.6147 19.2956 46.3106 20.3207 45.7838 21.2372C45.257 22.1538 44.5224 22.9316 43.6373 23.5075C41.9574 24.4843 40.5967 23.6974 40.5967 21.7528C40.6539 20.6945 40.961 19.6664 41.4878 18.7499C42.0176 17.8333 42.7522 17.0555 43.6373 16.4766V16.4796Z" fill="#455A64"/>
<path id="Vector_96" opacity="0.5" d="M44.0407 20.1217L42.3307 18.4092L43.7818 19.9951L44.0437 20.1217H44.0407ZM44.1822 19.9951L43.0021 17.8846L43.9925 19.7961L44.1822 19.9951ZM44.3568 19.8986L43.7156 17.5198L44.2003 19.6303L44.3598 19.8986H44.3568ZM44.5555 19.8504V17.4143L44.4772 19.579L44.5555 19.8474V19.8504ZM43.6433 20.2393L43.9353 20.2936L41.837 19.0786L43.6433 20.2363V20.2393ZM44.2996 21.3036L43.0864 23.4291L44.2514 21.59L44.2996 21.3036ZM43.5801 20.5107H43.8721L41.4968 19.8836L43.5801 20.5107ZM44.134 21.2011L42.415 22.9377L43.9986 21.4694L44.134 21.2011ZM44.7512 19.8685L45.3623 17.4897L44.7271 19.561L44.7512 19.8715V19.8685ZM43.8631 20.6614H41.4155L43.562 20.7639L43.8631 20.6614ZM43.9986 21.0353L41.9002 22.2503L43.7938 21.2734L43.9986 21.0353ZM43.9112 20.8604L41.5359 21.4875L43.6343 21.0262L43.9112 20.8604ZM45.1787 20.7971L45.552 21.0111L45.4737 20.8936L45.1817 20.7971H45.1787ZM44.8234 21.0986L45.0462 21.8131V21.5026L44.8234 21.0986ZM45.1486 20.981L45.4165 21.2493L45.3533 21.0986L45.1486 20.981ZM44.998 21.0594L45.2509 21.4966V21.2915L44.998 21.0624V21.0594ZM44.4923 21.3458L44.113 22.8382L44.5164 21.6413L44.4923 21.3488V21.3458ZM44.697 21.1468V22.2412L44.7933 21.5991L44.697 21.1468ZM45.2449 20.1549L46.1721 19.5911L45.4195 19.9469L45.2449 20.1519V20.1549ZM45.5128 20.6614H45.1877L45.6724 20.7639L45.5128 20.6614ZM44.9439 19.8685L46.1721 17.7671L44.992 19.5911L44.9439 19.8685ZM45.1094 19.971L46.3377 18.6926L45.2359 19.7087L45.1094 19.971ZM45.3322 20.2966L45.9825 20.0825H45.5309L45.4526 20.1308L45.3352 20.2966H45.3322ZM45.3804 20.4865H45.8229L45.5068 20.4323H45.3954L45.3804 20.4865Z" fill="white"/>
<path id="Vector_97" d="M44.1612 21.1769L41.7859 23.5557C41.7649 23.5678 41.7438 23.5738 41.7197 23.5738C41.6956 23.5738 41.6715 23.5678 41.6535 23.5557H41.5812L41.6294 23.4834L44.0047 21.1046L41.0664 22.7628C41.0664 22.7628 41.0514 22.7749 41.0423 22.7779C41.0333 22.7809 41.0243 22.7839 41.0152 22.7839C41.0062 22.7839 40.9972 22.7839 40.9881 22.7779C40.9791 22.7749 40.9701 22.7688 40.9641 22.7628C40.958 22.7387 40.958 22.7146 40.9641 22.6904C40.9731 22.6663 40.9882 22.6482 41.0092 22.6362L43.9415 20.9448L40.9069 21.7377C40.9069 21.7377 40.8888 21.7407 40.8798 21.7377C40.8707 21.7377 40.8617 21.7317 40.8557 21.7256C40.8497 21.7196 40.8436 21.7106 40.8406 21.7015C40.8376 21.6925 40.8376 21.6834 40.8406 21.6744C40.8406 21.6503 40.8527 21.6262 40.8677 21.6051C40.8828 21.5839 40.9039 21.5719 40.9279 21.5628L43.8993 20.7699C43.9314 20.7699 43.9314 20.7699 43.8993 20.7699H41.0544C41.0544 20.7699 41.0363 20.7699 41.0273 20.7639C41.0183 20.7609 41.0092 20.7548 41.0032 20.7458C40.9972 20.7367 40.9942 20.7277 40.9912 20.7187C40.9912 20.7096 40.9912 20.7006 40.9912 20.6885C40.9972 20.6644 41.0092 20.6433 41.0273 20.6282C41.0454 20.6131 41.0694 20.6041 41.0935 20.6011H43.8993C43.9314 20.6011 43.9314 20.6011 43.8993 20.6011L41.3404 19.9197C41.3404 19.9197 41.3193 19.9106 41.3103 19.9046C41.3012 19.8986 41.2952 19.8895 41.2892 19.8805C41.2832 19.8715 41.2802 19.8594 41.2802 19.8503C41.2802 19.8383 41.2802 19.8292 41.2832 19.8172C41.2922 19.7961 41.3073 19.778 41.3283 19.7659C41.3494 19.7539 41.3705 19.7509 41.3946 19.7539L43.9445 20.4352C43.9927 20.4352 43.9836 20.4352 43.9445 20.4352L41.7107 19.1418C41.6625 19.1418 41.6384 19.0785 41.6565 19.0454H41.7528L43.9957 20.3388L42.2225 18.2524C42.2074 18.2343 42.1984 18.2132 42.1984 18.1891C42.1984 18.165 42.2074 18.1439 42.2225 18.1258C42.2285 18.1167 42.2405 18.1107 42.2496 18.1047C42.2586 18.0987 42.2706 18.0987 42.2827 18.0987C42.2947 18.0987 42.3037 18.0987 42.3158 18.1047C42.3248 18.1107 42.3339 18.1167 42.3429 18.1258L44.2215 20.0071L42.8185 17.571C42.8035 17.5499 42.7975 17.5288 42.7975 17.5047C42.7975 17.4806 42.8035 17.4565 42.8185 17.4384C42.8246 17.4293 42.8336 17.4233 42.8396 17.4203C42.8487 17.4143 42.8577 17.4143 42.8697 17.4143C42.8818 17.4143 42.8908 17.4143 42.8998 17.4203C42.9089 17.4263 42.9179 17.4324 42.9209 17.4384L44.3479 19.9046L43.5561 16.9228C43.5501 16.8987 43.5501 16.8716 43.5561 16.8475C43.5652 16.8233 43.5802 16.8022 43.6013 16.7872C43.6073 16.7781 43.6133 16.7721 43.6224 16.766C43.6314 16.76 43.6404 16.76 43.6495 16.76C43.6585 16.76 43.6675 16.76 43.6765 16.766C43.6856 16.7721 43.6916 16.7781 43.6976 16.7872L44.4894 19.8323C44.4894 19.8644 44.4894 19.8644 44.4894 19.8323V16.4133C44.4894 16.3892 44.4954 16.3651 44.5105 16.347C44.5255 16.3289 44.5466 16.3138 44.5677 16.3108C44.5797 16.3108 44.5917 16.3108 44.6008 16.3108C44.6098 16.3108 44.6219 16.3198 44.6309 16.3259C44.6399 16.3349 44.6459 16.344 44.6489 16.353C44.652 16.3651 44.655 16.3771 44.652 16.3862V19.8292C44.652 19.8614 44.652 19.8614 44.652 19.8292L45.5461 16.5128V16.4344L45.6093 16.4826C45.6244 16.4977 45.6364 16.5188 45.6454 16.5399C45.6514 16.561 45.6545 16.5852 45.6484 16.6093L44.7784 19.8715C44.7784 19.9036 44.7784 19.9036 44.7784 19.8715L46.1632 17.4927H46.2265V17.571C46.2415 17.6253 46.2415 17.6826 46.2265 17.7369L44.9349 19.974L46.2024 18.7047H46.2566C46.2536 18.7378 46.2536 18.768 46.2566 18.8011C46.2445 18.8554 46.2204 18.9067 46.1843 18.9519L45.0584 20.0704L46.1753 19.585C46.2144 19.585 46.2385 19.585 46.2234 19.585V19.6634C46.2024 19.7147 46.1662 19.7539 46.1211 19.781L45.3293 20.2483C45.2902 20.2483 45.2812 20.2483 45.3293 20.2483L45.9856 20.0735C46.0338 20.0735 46.0579 20.0735 46.0398 20.1277C46.0278 20.1518 46.0127 20.1729 45.9916 20.191C45.9706 20.2091 45.9465 20.2212 45.9224 20.2302L45.3745 20.3719C45.3484 20.3719 45.3484 20.3719 45.3745 20.3719H45.8261C45.8261 20.3719 45.8471 20.3719 45.8562 20.3719C45.8652 20.3749 45.8742 20.384 45.8802 20.393C45.8863 20.4021 45.8893 20.4141 45.8863 20.4232C45.8863 20.4352 45.8802 20.4443 45.8712 20.4503C45.8592 20.4744 45.8411 20.4925 45.817 20.5076C45.796 20.5227 45.7689 20.5287 45.7418 20.5317H45.3775C45.3454 20.5317 45.3454 20.5317 45.3775 20.5317L45.6876 20.6101C45.6876 20.6101 45.7087 20.6161 45.7177 20.6252C45.7267 20.6312 45.7327 20.6403 45.7388 20.6523C45.7448 20.6614 45.7448 20.6734 45.7448 20.6855C45.7448 20.6976 45.7418 20.7066 45.7357 20.7156C45.7237 20.7367 45.7056 20.7548 45.6816 20.7669C45.6575 20.7759 45.6334 20.779 45.6093 20.7729L45.3414 20.7006C45.3093 20.7006 45.3093 20.7006 45.3414 20.7006L45.5792 20.8362C45.5792 20.8362 45.6424 20.8905 45.6334 20.9086V20.9568H45.522L45.2932 20.8212C45.2541 20.8212 45.245 20.8212 45.2932 20.8212L45.4919 21.0202C45.5069 21.0413 45.513 21.0624 45.513 21.0865C45.513 21.1106 45.5069 21.1347 45.4919 21.1528C45.4859 21.1619 45.4768 21.1679 45.4678 21.1709C45.4588 21.1739 45.4467 21.1769 45.4377 21.1769C45.4287 21.1769 45.4166 21.1769 45.4076 21.1709C45.3986 21.1649 45.3895 21.1588 45.3835 21.1528L45.1547 20.9297C45.1547 20.8905 45.1156 20.9297 45.1547 20.9297L45.3384 21.2463C45.3504 21.2704 45.3564 21.2945 45.3564 21.3216C45.3564 21.3488 45.3504 21.3729 45.3384 21.397C45.3353 21.4061 45.3293 21.4121 45.3203 21.4181C45.3113 21.4242 45.3022 21.4272 45.2932 21.4272C45.2842 21.4272 45.2751 21.4272 45.2661 21.4181C45.2571 21.4121 45.2511 21.4061 45.248 21.397L45.0192 20.999L45.1607 21.5387C45.1788 21.587 45.1788 21.6412 45.1607 21.6895H45.0825L44.8988 21.0322C44.8988 21.0001 44.8988 21.0001 44.8988 21.0322V21.9518C44.8958 22.006 44.8717 22.0543 44.8356 22.0935C44.8205 22.1146 44.8025 22.1357 44.7814 22.1477H44.7272V21.3216C44.7272 21.2895 44.7272 21.2895 44.7272 21.3216L44.3238 22.8382C44.3057 22.8924 44.2726 22.9377 44.2275 22.9738L44.1492 23.0281C44.1101 23.0281 44.086 23.0281 44.101 23.0281L44.5616 21.3156L43.2852 23.5286C43.2551 23.5738 43.2099 23.61 43.1587 23.6311H43.0805C43.0413 23.6311 43.0172 23.6311 43.0413 23.5768L44.4111 21.198C44.4111 21.198 44.1974 21.1649 44.1643 21.1649L44.1612 21.1769Z" fill="#37474F"/>
<path id="Vector_98" d="M42.7674 19.5187C42.8095 19.4494 42.8788 19.3981 42.957 19.377C43.7097 19.1961 44.4954 19.2263 45.23 19.4645C45.3233 19.5278 45.3986 19.6182 45.4437 19.7207C45.4919 19.8232 45.51 19.9378 45.4979 20.0524C45.4829 20.3689 45.3926 20.6795 45.233 20.9569C45.0734 21.2342 44.8537 21.4664 44.5857 21.6413C44.4924 21.7076 44.387 21.7498 44.2726 21.7588C44.1613 21.7709 44.0469 21.7498 43.9445 21.7046C43.225 21.2855 42.7313 19.778 42.7313 19.778C42.7132 19.7358 42.7072 19.6906 42.7132 19.6454C42.7192 19.6001 42.7373 19.5579 42.7644 19.5217L42.7674 19.5187Z" fill="#EBEBEB"/>
<path id="Vector_99" opacity="0.1" d="M44.0351 20.773C44.6221 21.1529 45.0737 20.7007 45.2062 20.2333C45.2453 20.1519 45.2664 20.0645 45.2694 19.9741C45.2724 19.8836 45.2574 19.7932 45.2272 19.7087C45.1941 19.6243 45.146 19.5459 45.0858 19.4826C45.0225 19.4163 44.9503 19.365 44.866 19.3289C44.9954 19.356 45.1219 19.4012 45.2393 19.4645C45.3326 19.5278 45.4079 19.6183 45.453 19.7208C45.5012 19.8233 45.5193 19.9379 45.5072 20.0524C45.4922 20.369 45.4019 20.6796 45.2423 20.9569C45.0827 21.2343 44.863 21.4665 44.595 21.6413C44.5017 21.7077 44.3963 21.7499 44.2819 21.7589C44.1706 21.771 44.0562 21.7499 43.9538 21.7046C43.2343 21.2856 42.7406 19.7781 42.7406 19.7781C42.7225 19.7419 42.7104 19.6997 42.7104 19.6605C42.7104 19.6213 42.7195 19.5791 42.7406 19.5429C42.7496 19.766 43.445 20.3931 44.0321 20.7821L44.0351 20.773Z" fill="black"/>
<path id="Vector_100" d="M42.7465 19.7571C42.7284 19.7209 42.7164 19.6787 42.7164 19.6395C42.7164 19.6003 42.7254 19.5581 42.7465 19.5219C42.7886 19.4526 42.8579 19.4013 42.9362 19.3802C43.6888 19.1993 44.4745 19.2295 45.2091 19.4676C45.3175 19.54 45.3958 19.6515 45.4319 19.7782C45.3295 19.5882 45.0345 19.4134 44.2819 19.3983C43.8273 19.3681 43.3727 19.4043 42.9271 19.5008C42.9542 19.5219 42.9753 19.5521 42.9843 19.5882C42.9934 19.6214 42.9903 19.6606 42.9753 19.6907C42.9271 19.8174 42.7766 19.8566 42.7134 19.7631H42.7465V19.7571Z" fill="#FAFAFA"/>
</g>
<defs>
<clipPath id="clip0_1104_4610">
<rect width="101" height="50" fill="white"/>
</clipPath>
</defs>
</svg>
