<svg width="100" height="100" viewBox="0 0 100 100" fill="none" xmlns="http://www.w3.org/2000/svg">
<g clip-path="url(#clip0_657_6330)">
<mask id="mask0_657_6330" style="mask-type:alpha" maskUnits="userSpaceOnUse" x="0" y="0" width="100" height="100">
<path d="M50 100C77.6142 100 100 77.6142 100 50C100 22.3858 77.6142 0 50 0C22.3858 0 0 22.3858 0 50C0 77.6142 22.3858 100 50 100Z" fill="#D9D9D9"/>
</mask>
<g mask="url(#mask0_657_6330)">
<mask id="mask1_657_6330" style="mask-type:luminance" maskUnits="userSpaceOnUse" x="-25" y="0" width="150" height="100">
<path d="M125 0H-25V100H125V0Z" fill="white"/>
</mask>
<g mask="url(#mask1_657_6330)">
<path d="M125 0H-25V100H125V0Z" fill="#FF0000"/>
<path d="M35 0H-25V100H35V0Z" fill="#006600"/>
<path fill-rule="evenodd" clip-rule="evenodd" d="M55.2625 66.0965C47.4362 65.8608 11.5481 43.4595 11.302 39.8922L13.2837 36.5874C16.8435 41.7598 53.5319 63.5455 57.1354 62.7735L55.2624 66.0955" fill="#FFFF00"/>
<path d="M55.2625 66.0965C47.4362 65.8608 11.5481 43.4595 11.302 39.8922L13.2837 36.5874C16.8435 41.7598 53.5319 63.5455 57.1354 62.7735L55.2624 66.0955" stroke="black" stroke-width="0.573" stroke-linecap="round" stroke-linejoin="round"/>
<path fill-rule="evenodd" clip-rule="evenodd" d="M12.8666 36.1385C12.1646 38.0281 22.2315 44.2519 34.3438 51.6186C46.4556 58.9849 56.8992 63.5371 57.6733 62.8843C57.7206 62.8 58.0541 62.226 58.0235 62.2306C57.8785 62.4493 57.5252 62.5183 56.9742 62.3595C53.7019 61.4156 45.1673 57.4981 34.5978 51.0886C24.0285 44.6786 14.8328 38.7717 13.4035 36.2619C13.3041 36.088 13.2333 35.7707 13.2477 35.5239L13.213 35.5234L12.9087 36.0553L12.8666 36.1385ZM55.4464 66.2003C55.3136 66.4411 55.0662 66.4491 54.5962 66.3975C51.6688 66.0735 42.7858 61.7538 32.2748 55.4616C20.0444 48.1405 9.94347 41.4696 11.0393 39.7261L11.3375 39.199L11.3962 39.2173C10.4108 42.1719 31.3306 54.1337 32.5622 54.8963C44.6667 62.3955 54.8715 66.7747 55.7746 65.6366L55.446 66.2016L55.4464 66.2003Z" fill="#FFFF00" stroke="black" stroke-width="0.573" stroke-linecap="round" stroke-linejoin="round"/>
<path fill-rule="evenodd" clip-rule="evenodd" d="M35.0372 42.0526C42.8706 41.9907 52.537 40.9822 58.0999 38.7651L56.9013 36.8178C53.6133 38.6376 43.8937 39.8343 34.9711 40.0133C24.4178 39.9162 16.9687 38.9335 13.2364 36.4292L12.105 38.5029C18.966 41.4062 25.9967 42.0226 35.0372 42.0526Z" fill="#FFFF00" stroke="black" stroke-width="0.573" stroke-linecap="round" stroke-linejoin="round"/>
<path fill-rule="evenodd" clip-rule="evenodd" d="M58.4231 38.8089C58.2317 39.115 54.6037 40.3662 49.2593 41.2895C45.6355 41.8419 40.9086 42.3142 35.0097 42.3199C29.4054 42.3252 24.8272 41.9263 21.3612 41.4565C15.7509 40.5769 12.8554 39.3529 11.7849 38.9204C11.8873 38.7168 11.9531 38.574 12.0518 38.3839C15.1333 39.6108 18.0424 40.3507 21.4503 40.875C24.8936 41.3413 29.4166 41.746 34.9932 41.7407C40.8646 41.7348 45.5394 41.2266 49.1422 40.6906C54.6227 39.8067 57.6164 38.6691 58.0369 38.1408L58.4231 38.8089ZM57.3712 36.8341C56.7772 37.3112 53.8174 38.3608 48.61 39.1925C45.1346 39.6906 40.7158 40.1363 35.07 40.1418C29.7063 40.1471 25.3243 39.7856 21.9912 39.3001C16.7026 38.6094 13.8879 37.3635 12.8732 37.0002C12.9741 36.8257 13.077 36.6525 13.1825 36.4786C13.9721 36.8762 16.6884 37.9788 22.0492 38.7383C25.3445 39.2055 29.7333 39.5537 35.0703 39.5482C40.6894 39.5425 45.058 39.0881 48.5113 38.5927C53.7457 37.8726 56.5622 36.5339 56.9899 36.1987L57.3712 36.8341Z" fill="#FFFF00" stroke="black" stroke-width="0.573" stroke-linecap="round" stroke-linejoin="round"/>
<path fill-rule="evenodd" clip-rule="evenodd" d="M9.31518 51.4903C14.1332 54.0817 24.8344 55.3876 34.9609 55.4775C44.1812 55.4921 56.1933 54.0523 60.6852 51.6719L60.5616 49.0781C59.1562 51.2743 46.2838 53.3809 34.8609 53.2946C23.438 53.2085 12.8306 51.4442 9.29468 49.1602L9.31518 51.4903Z" fill="#FFFF00"/>
<path d="M9.31518 51.4903C14.1332 54.0817 24.8344 55.3876 34.9609 55.4775C44.1812 55.4921 56.1933 54.0523 60.6852 51.6719L60.5616 49.0781C59.1562 51.2743 46.2838 53.3809 34.8609 53.2946C23.438 53.2085 12.8306 51.4442 9.29468 49.1602L9.31518 51.4903Z" stroke="black" stroke-width="0.573" stroke-linecap="round" stroke-linejoin="round"/>
<path fill-rule="evenodd" clip-rule="evenodd" d="M60.9308 51.1174L60.931 51.7359C60.2559 52.5431 56.0228 53.7632 50.7143 54.6224C46.6742 55.2418 41.4069 55.709 34.8436 55.709C28.6081 55.709 23.6357 55.2644 19.7795 54.6724C13.684 53.7848 9.78507 52.2304 9.00244 51.7665L9.00586 51.045C11.3568 52.608 17.7262 53.7514 19.8651 54.1014C23.6961 54.6895 28.639 55.1307 34.8433 55.1307C41.3759 55.1307 46.6136 54.6667 50.6284 54.0514C54.4369 53.5012 59.8627 52.0701 60.9308 51.1174ZM60.9334 48.9174L60.9336 49.5359C60.2585 50.3427 56.0254 51.5627 50.7169 52.4219C46.6768 53.0413 41.4095 53.5085 34.8461 53.5085C28.6107 53.5085 23.6383 53.0643 19.7821 52.4719C13.6866 51.5847 9.78767 50.0303 9.00504 49.5662L9.00846 48.8447C11.3594 50.4075 17.7288 51.5511 19.8676 51.9006C23.6987 52.4892 28.6416 52.9306 34.8459 52.9306C41.3785 52.9306 46.6162 52.4663 50.631 51.8505C54.4394 51.3004 59.8653 49.8701 60.9334 48.9174Z" fill="#FFFF00" stroke="black" stroke-width="0.573" stroke-linecap="round" stroke-linejoin="round"/>
<path fill-rule="evenodd" clip-rule="evenodd" d="M34.9389 65.6506C23.8582 65.5846 14.3638 62.6302 12.3589 62.1418L13.8209 64.4305C17.3623 65.9202 26.6248 68.1403 35.0452 67.8945C43.4658 67.6488 50.8248 66.9965 56.0107 64.472L57.5097 62.1001C53.9755 63.7646 41.9484 65.6335 34.9389 65.6506Z" fill="#FFFF00" stroke="black" stroke-width="0.573" stroke-linecap="round" stroke-linejoin="round"/>
<path fill-rule="evenodd" clip-rule="evenodd" d="M56.5736 63.9407C56.3533 64.2772 56.1287 64.6096 55.901 64.9327C53.455 65.7952 49.6008 66.7007 47.9744 66.9648C44.6522 67.6493 39.5121 68.155 34.9502 68.1573C25.1343 68.0136 17.0995 66.092 13.3195 64.4529L13.0145 63.9285L13.0643 63.8497L13.5815 64.0503C20.3037 66.4553 27.8536 67.4148 35.0056 67.5871C39.549 67.603 44.0974 67.0663 47.7753 66.4086C53.4154 65.2785 55.6959 64.4267 56.3957 64.0406L56.5736 63.9407ZM57.8734 61.7968C57.8791 61.8035 57.8848 61.8099 57.8903 61.8169C57.7256 62.095 57.5558 62.3779 57.3819 62.6621C56.0774 63.1284 52.5369 64.1643 47.3668 64.8873C43.9604 65.3513 41.843 65.8007 35.0667 65.9323C22.3687 65.6092 14.1473 63.1264 12.1942 62.514L11.9048 61.9588C19.2637 63.8798 26.7807 65.2209 35.0671 65.3579C41.2668 65.2259 43.9043 64.7694 47.2825 64.3088C53.3112 63.3713 56.3487 62.3788 57.2603 62.0923C57.2489 62.0758 57.2354 62.0585 57.2204 62.0406L57.8734 61.7968Z" fill="#FFFF00" stroke="black" stroke-width="0.55" stroke-linecap="round" stroke-linejoin="round"/>
<path fill-rule="evenodd" clip-rule="evenodd" d="M58.0059 49.4436C58.0419 56.7329 54.3117 63.274 51.3071 66.1597C47.0563 70.2423 41.4204 72.8684 34.8386 72.9894C27.489 73.1244 20.5591 68.333 18.7003 66.2281C15.0661 62.1129 12.1074 56.887 12.0125 49.8441C12.4627 41.8885 15.5858 36.3469 20.1129 32.5467C24.6401 28.7465 30.668 26.8958 35.6881 27.0281C41.4803 27.181 48.2462 30.0224 52.9213 35.6632C55.9842 39.359 57.3106 43.3699 58.0059 49.4436ZM34.9011 24.4849C49.0162 24.4849 60.6251 35.9713 60.6251 50.0553C60.6251 64.139 49.0162 75.6259 34.9011 75.6259C20.786 75.6259 9.27344 64.1393 9.27344 50.0553C9.27344 35.9713 20.786 24.4849 34.9011 24.4849Z" fill="#FFFF00" stroke="black" stroke-width="0.573" stroke-linecap="round" stroke-linejoin="round"/>
<path fill-rule="evenodd" clip-rule="evenodd" d="M34.97 24.3975C49.0978 24.3975 60.6201 35.9214 60.6201 50.0505C60.6201 64.1793 49.0975 75.703 34.97 75.703C20.8422 75.703 9.31982 64.1795 9.31982 50.0505C9.31982 35.9214 20.8425 24.3975 34.97 24.3975ZM9.88432 50.0506C9.88432 63.8483 21.2147 75.1388 34.97 75.1388C48.7255 75.1388 60.0559 63.8483 60.0559 50.0506C60.0559 36.2523 48.7252 24.9618 34.97 24.9618C21.2147 24.9618 9.88432 36.2528 9.88432 50.0506Z" fill="#FFFF00" stroke="black" stroke-width="0.573" stroke-linecap="round" stroke-linejoin="round"/>
<path fill-rule="evenodd" clip-rule="evenodd" d="M34.9909 26.5293C47.8744 26.5293 58.4861 37.1045 58.4861 50.0274C58.4861 62.9505 47.8741 73.5253 34.9909 73.5253C22.1076 73.5253 11.4956 62.9505 11.4956 50.0274C11.4956 37.1045 22.1079 26.5293 34.9909 26.5293ZM12.0598 50.0273C12.0598 62.6398 22.417 72.9606 34.9909 72.9606C47.5648 72.9606 57.9219 62.6398 57.9219 50.0273C57.9219 37.4145 47.565 27.0936 34.9909 27.0936C22.417 27.0936 12.0598 37.4145 12.0598 50.0273Z" fill="#FFFF00" stroke="black" stroke-width="0.573" stroke-linecap="round" stroke-linejoin="round"/>
<path fill-rule="evenodd" clip-rule="evenodd" d="M36.0247 24.2935H33.8264L33.829 75.8368H36.0348L36.0247 24.2935Z" fill="#FFFF00" stroke="black" stroke-width="0.573" stroke-linecap="round" stroke-linejoin="round"/>
<path fill-rule="evenodd" clip-rule="evenodd" d="M35.8044 24H36.364L36.3688 76.1366H35.8088L35.8044 24ZM33.6228 24.0005H34.1867L34.1874 76.137H33.6231L33.6228 24.0005Z" fill="#FFFF00" stroke="black" stroke-width="0.573" stroke-linecap="round" stroke-linejoin="round"/>
<path fill-rule="evenodd" clip-rule="evenodd" d="M60.6381 51.0434V49.1379L59.0863 47.6923L50.2781 45.3607L37.584 44.0654L22.2992 44.8426L11.4185 47.4332L9.22168 49.0601V50.9661L14.7864 48.4695L27.9986 46.397H40.6927L50.019 47.4333L56.4956 48.9876L60.6381 51.0434Z" fill="#FFFF00" stroke="black" stroke-width="0.573" stroke-linecap="round" stroke-linejoin="round"/>
<path fill-rule="evenodd" clip-rule="evenodd" d="M34.9805 46.0786C41.0381 46.0674 46.9155 46.6525 51.5774 47.5603C56.3879 48.5219 59.7734 49.7249 60.9309 51.076L60.9296 51.745C59.5336 50.0636 54.9781 48.8311 51.4691 48.1264C46.8427 47.2264 41.0047 46.6454 34.9805 46.6566C28.6236 46.6685 22.7042 47.2705 18.1455 48.16C14.4875 48.8859 9.60906 50.3278 9 51.7501V51.0535C9.33448 50.0689 12.967 48.5978 18.0631 47.5776C22.656 46.682 28.5863 46.0902 34.9805 46.0786ZM34.9831 43.8786C41.0407 43.8676 46.9181 44.453 51.58 45.3603C56.3905 46.3224 59.776 47.5249 60.9335 48.876L60.9322 49.545C59.5362 47.8641 54.9807 46.6313 51.4717 45.9269C46.8453 45.0265 41.0073 44.4455 34.9831 44.4571C28.6261 44.4685 22.7356 45.071 18.1763 45.96C14.6463 46.6292 9.56865 48.1283 9.00233 49.5506V48.8536C9.33681 47.8798 13.0429 46.3558 18.0657 45.3777C22.6586 44.4821 28.5888 43.8907 34.9831 43.8786Z" fill="#FFFF00" stroke="black" stroke-width="0.573" stroke-linecap="round" stroke-linejoin="round"/>
<path fill-rule="evenodd" clip-rule="evenodd" d="M34.8586 32.656C44.4048 32.6083 52.7314 33.9908 56.5409 35.9423L57.9305 38.3461C54.6194 36.5617 45.6364 34.7063 34.8725 34.9837C26.1022 35.0376 16.7311 35.9493 12.0293 38.4578L13.6882 35.6834C17.547 33.6824 26.6468 32.6667 34.8586 32.656Z" fill="#FFFF00"/>
<path d="M34.8586 32.656C44.4048 32.6083 52.7314 33.9908 56.5409 35.9423L57.9305 38.3461C54.6194 36.5617 45.6364 34.7063 34.8725 34.9837C26.1022 35.0376 16.7311 35.9493 12.0293 38.4578L13.6882 35.6834C17.547 33.6824 26.6468 32.6667 34.8586 32.656Z" stroke="black" stroke-width="0.573" stroke-linecap="round" stroke-linejoin="round"/>
<path fill-rule="evenodd" clip-rule="evenodd" d="M34.9855 34.6408C40.4302 34.6264 45.6913 34.9335 49.8754 35.6884C53.772 36.4136 57.488 37.5021 58.0193 38.0874L58.4313 38.8154C57.139 37.9716 53.9233 37.0321 49.7944 36.2491C45.6478 35.4697 40.3903 35.2116 34.9759 35.2257C28.8304 35.2047 24.0559 35.5291 19.9583 36.2436C15.6246 37.0545 12.6179 38.2129 11.8762 38.7633L12.2799 37.9938C13.7211 37.2585 16.0079 36.3722 19.8506 35.6804C24.0881 34.9063 28.9131 34.6742 34.9855 34.6408ZM34.9831 32.4428C40.1937 32.4291 45.3384 32.7195 49.3487 33.4404C52.5116 34.0561 55.6396 35.0174 56.7849 35.8728L57.3874 36.8301C56.3631 35.6916 52.5077 34.6127 49.1041 34.0084C45.1246 33.3221 40.1936 33.0504 34.983 33.007C29.5147 33.0223 24.4612 33.3572 20.5397 34.0712C16.7986 34.7832 14.3844 35.626 13.3629 36.2843L13.8927 35.4846C15.3024 34.7425 17.5797 34.061 20.4478 33.5037C24.3982 32.7844 29.4827 32.4582 34.9831 32.4428Z" fill="#FFFF00" stroke="black" stroke-width="0.573" stroke-linecap="round" stroke-linejoin="round"/>
<path fill-rule="evenodd" clip-rule="evenodd" d="M47.7264 60.7127C43.0068 59.8317 38.2787 59.7038 34.9762 59.7426C19.0678 59.9291 13.9287 63.0092 13.3015 63.9418L12.1125 62.0036C16.1628 59.0679 24.8256 57.4215 35.0622 57.5899C40.3777 57.677 44.9647 58.03 48.8234 58.7774L47.7264 60.7127Z" fill="#FFFF00"/>
<path d="M47.7264 60.7127C43.0068 59.8317 38.2787 59.7038 34.9762 59.7426C19.0678 59.9291 13.9287 63.0092 13.3015 63.9418L12.1125 62.0036C16.1628 59.0679 24.8256 57.4215 35.0622 57.5899C40.3777 57.677 44.9647 58.03 48.8234 58.7774L47.7264 60.7127Z" stroke="black" stroke-width="0.573" stroke-linecap="round" stroke-linejoin="round"/>
<path fill-rule="evenodd" clip-rule="evenodd" d="M34.8846 59.4696C39.3099 59.5357 43.6536 59.7185 47.8463 60.5003L47.5427 61.0363C43.6487 60.3175 39.4975 60.0424 34.8996 60.0648C29.0285 60.0189 23.0902 60.5672 17.9203 62.051C16.289 62.505 13.5885 63.5537 13.3131 64.4204L13.0111 63.9223C13.0981 63.41 14.7303 62.3469 17.7815 61.4896C23.7032 59.7939 29.2422 59.5084 34.8846 59.4696ZM35.0854 57.2427C39.6703 57.3283 44.4052 57.5404 49.0075 58.452L48.6913 59.0099C44.5354 58.1849 40.5647 57.9098 35.1125 57.826C29.2226 57.8367 22.9751 58.2567 17.2946 59.9081C15.4606 60.4423 12.2954 61.5973 12.19 62.5117L11.8879 61.9766C11.9567 61.1461 14.6967 60.0626 17.162 59.3456C22.8862 57.6813 29.15 57.2534 35.0854 57.2427Z" fill="#FFFF00" stroke="black" stroke-width="0.55" stroke-linecap="round" stroke-linejoin="round"/>
<path fill-rule="evenodd" clip-rule="evenodd" d="M57.6822 62.2986L55.7706 65.2646L50.2782 60.3867L36.0297 50.8013L19.9677 41.9932L11.6284 39.1409L13.4056 35.8456L14.0092 35.5166L19.1905 36.8119L36.2887 45.62L46.1331 51.8376L54.4232 57.796L57.791 61.682L57.6822 62.2986Z" fill="#FFFF00" stroke="black" stroke-width="0.573" stroke-linecap="round" stroke-linejoin="round"/>
<path fill-rule="evenodd" clip-rule="evenodd" d="M11.3279 39.2184C12.7906 38.2264 23.5399 43.015 34.7874 49.797C46.0052 56.5985 56.7242 64.2841 55.7566 65.7225L55.4383 66.223L55.2923 66.3382C55.3236 66.3158 55.4849 66.1186 55.2765 65.5854C54.7986 64.0127 47.195 57.9453 34.5789 50.3278C22.2799 42.994 12.0297 38.5738 11.0049 39.8373L11.3279 39.2184ZM58.0734 62.2562C58.9982 60.4293 49.0279 52.9185 36.6664 45.6056C24.0207 38.4384 14.9066 34.2195 13.2419 35.4775L12.872 36.1509C12.8688 36.1879 12.8855 36.105 12.9636 36.0446C13.2663 35.7805 13.7681 35.7983 13.9945 35.7942C16.861 35.8372 25.0479 39.6048 36.5346 46.1899C41.5677 49.1212 57.7962 59.5294 57.7343 62.4563C57.7386 62.7078 57.7551 62.7597 57.6605 62.8842L58.0734 62.2562Z" fill="#FFFF00"/>
<path d="M58.0734 62.2562C58.9982 60.4293 49.0279 52.9185 36.6664 45.6056C24.0207 38.4384 14.9066 34.2195 13.2419 35.4775L12.872 36.1509C12.8688 36.1879 12.8855 36.105 12.9636 36.0446C13.2663 35.7805 13.7681 35.7983 13.9945 35.7942C16.861 35.8372 25.0479 39.6048 36.5346 46.1899C41.5677 49.1212 57.7962 59.5294 57.7343 62.4563C57.7386 62.7078 57.7551 62.7597 57.6605 62.8842L58.0734 62.2562ZM11.3279 39.2184C12.7906 38.2264 23.5399 43.015 34.7874 49.797C46.0052 56.5985 56.7242 64.2841 55.7566 65.7225L55.4383 66.223L55.2923 66.3382C55.3236 66.3158 55.4849 66.1186 55.2765 65.5854C54.7986 64.0127 47.195 57.9453 34.5789 50.3278C22.2799 42.994 12.0297 38.5738 11.0049 39.8373L11.3279 39.2184Z" stroke="black" stroke-width="0.573" stroke-linecap="round" stroke-linejoin="round"/>
<path d="M19.6049 52.876C19.6049 57.0912 21.331 60.9036 24.1274 63.6899C26.9292 66.482 30.7367 68.2439 34.9586 68.2439C39.2023 68.2439 43.0536 66.5205 45.8434 63.7391C48.6333 60.958 50.3623 57.1195 50.3631 52.8895L50.3625 32.3745L19.6013 32.3379L19.6049 52.876Z" fill="white" stroke="black" stroke-width="0.67037"/>
<path d="M20.1801 52.9048V52.9164C20.1801 56.9467 21.8489 60.6168 24.5259 63.2813C27.2083 65.951 30.9025 67.6108 34.9439 67.6108C39.0063 67.6108 42.693 65.963 45.364 63.3036C48.0344 60.6443 49.6896 56.9739 49.6901 52.9296L49.6896 33.0268L20.1977 33.022L20.1801 52.9048ZM43.7602 38.9807L43.7612 51.6466L43.7505 52.9864C43.7505 53.339 43.7295 53.7409 43.6884 54.0831C43.4487 56.0855 42.5277 57.831 41.1638 59.1887C39.567 60.7783 37.363 61.7642 34.934 61.7642C32.5178 61.7642 30.3644 60.744 28.7608 59.1476C27.1158 57.5104 26.1624 55.2653 26.1624 52.9438L26.159 38.9484L43.7602 38.9807Z" fill="#FF0000"/>
<path d="M20.1801 52.9048V52.9164C20.1801 56.9467 21.8489 60.6168 24.5259 63.2813C27.2083 65.951 30.9025 67.6108 34.9439 67.6108C39.0063 67.6108 42.693 65.963 45.364 63.3036C48.0344 60.6443 49.6896 56.9739 49.6901 52.9296L49.6896 33.0268L20.1977 33.022L20.1801 52.9048ZM43.7602 38.9807L43.7612 51.6466L43.7505 52.9864C43.7505 53.339 43.7295 53.7409 43.6884 54.0831C43.4487 56.0855 42.5277 57.831 41.1638 59.1887C39.567 60.7783 37.363 61.7642 34.934 61.7642C32.5178 61.7642 30.3644 60.744 28.7608 59.1476C27.1158 57.5104 26.1624 55.2653 26.1624 52.9438L26.159 38.9484L43.7602 38.9807Z" stroke="black" stroke-width="0.50734"/>
<path d="M22.0894 38.2183C22.1243 36.788 23.1392 36.4494 23.1465 36.4444C23.1538 36.4396 24.2427 36.809 24.239 38.2316L22.0894 38.2183Z" fill="#FFFF00"/>
<path d="M21.2137 36.4726L21.0371 38.1163L22.1098 38.1186C22.1201 36.7587 23.1393 36.5325 23.164 36.5375C23.187 36.5362 24.1973 36.8382 24.2243 38.1186H25.2997L25.1055 36.4624L21.2137 36.4726Z" fill="#FFFF00" stroke="black" stroke-width="0.5"/>
<path d="M20.965 38.1226H25.3551C25.4477 38.1226 25.5233 38.214 25.5233 38.3257C25.5233 38.4372 25.4477 38.5282 25.3551 38.5282H20.965C20.8725 38.5282 20.7969 38.4372 20.7969 38.3257C20.7969 38.214 20.8725 38.1226 20.965 38.1226Z" fill="#FFFF00" stroke="black" stroke-width="0.5"/>
<path d="M22.5608 38.1147C22.5656 37.2566 23.1468 37.0137 23.1498 37.0142C23.1498 37.0142 23.7566 37.2646 23.7614 38.1147H22.5608Z" fill="#FFFF00" stroke="black" stroke-width="0.5"/>
<path d="M21.0583 35.7881H25.2668C25.3554 35.7881 25.4281 35.8706 25.4281 35.9707C25.4281 36.071 25.3554 36.1532 25.2668 36.1532H21.0583C20.9696 36.1532 20.897 36.0714 20.897 35.9707C20.897 35.8706 20.9696 35.7881 21.0583 35.7881Z" fill="#FFFF00" stroke="black" stroke-width="0.5"/>
<path d="M21.1464 36.1567H25.1717C25.2565 36.1567 25.3259 36.2387 25.3259 36.339C25.3259 36.4396 25.2565 36.5216 25.1717 36.5216H21.1464C21.0616 36.5216 20.9922 36.4396 20.9922 36.339C20.9922 36.2387 21.0616 36.1567 21.1464 36.1567Z" fill="#FFFF00" stroke="black" stroke-width="0.5"/>
<path d="M22.4469 33.4127L22.7647 33.4132V33.639H22.9966V33.4082L23.3222 33.4092V33.6391H23.5548V33.4083H23.8806L23.88 33.9295C23.88 34.0113 23.8143 34.0643 23.7379 34.0643H22.5951C22.5184 34.0643 22.4475 34.0028 22.4473 33.9279L22.4469 33.4127Z" fill="#FFFF00" stroke="black" stroke-width="0.5"/>
<path d="M23.644 34.1094L23.7158 35.7807L22.6011 35.7766L22.6749 34.105L23.644 34.1094Z" fill="#FFFF00" stroke="black" stroke-width="0.5"/>
<path d="M22.2838 34.8843L22.3178 35.7852L21.249 35.7857L21.2792 34.8844L22.2838 34.8843Z" fill="#FFFF00" stroke="black" stroke-width="0.5"/>
<path d="M25.0321 34.8843L25.0661 35.7852L23.9973 35.7857L24.0275 34.8844L25.0321 34.8843Z" fill="#FFFF00" stroke="black" stroke-width="0.5"/>
<path d="M21.0817 34.2314L21.3924 34.2323V34.4583H21.6197V34.2271L21.9382 34.2281V34.4584H22.166V34.2271L22.4847 34.2276L22.4842 34.7489C22.4842 34.8302 22.4197 34.8832 22.3453 34.8832H21.2269C21.152 34.8832 21.0823 34.8222 21.0821 34.747L21.0817 34.2314Z" fill="#FFFF00" stroke="black" stroke-width="0.5"/>
<path d="M23.83 34.2314L24.1407 34.2323V34.4583H24.368V34.2271L24.6865 34.2281V34.4584H24.9143V34.2271L25.233 34.2276L25.2325 34.7489C25.2325 34.8302 25.1681 34.8832 25.0936 34.8832H23.9752C23.9003 34.8832 23.8306 34.8222 23.8304 34.747L23.83 34.2314Z" fill="#FFFF00" stroke="black" stroke-width="0.5"/>
<path d="M23.0507 34.6381C23.0438 34.4757 23.2778 34.4739 23.275 34.6381V35.0362H23.0507V34.6381Z" fill="black"/>
<path d="M21.6697 35.2161C21.6689 35.0591 21.8865 35.0559 21.8838 35.2161V35.5236H21.6698L21.6697 35.2161Z" fill="black"/>
<path d="M24.4265 35.2161C24.4257 35.0591 24.6433 35.0559 24.6406 35.2161V35.5236H24.4266L24.4265 35.2161Z" fill="black"/>
<path d="M22.0894 50.2183C22.1243 48.788 23.1392 48.4494 23.1465 48.4444C23.1538 48.4396 24.2427 48.809 24.239 50.2316L22.0894 50.2183Z" fill="#FFFF00"/>
<path d="M21.2137 48.4721L21.0371 50.1158L22.1098 50.1181C22.1201 48.7582 23.1393 48.532 23.164 48.537C23.187 48.5357 24.1973 48.8377 24.2243 50.1181H25.2997L25.1055 48.4619L21.2137 48.4721Z" fill="#FFFF00" stroke="black" stroke-width="0.5"/>
<path d="M20.965 50.1221H25.3551C25.4477 50.1221 25.5233 50.2135 25.5233 50.3252C25.5233 50.4367 25.4477 50.5277 25.3551 50.5277H20.965C20.8725 50.5277 20.7969 50.4367 20.7969 50.3252C20.7969 50.2135 20.8725 50.1221 20.965 50.1221Z" fill="#FFFF00" stroke="black" stroke-width="0.5"/>
<path d="M22.5608 50.1147C22.5656 49.2566 23.1468 49.0137 23.1498 49.0142C23.1498 49.0142 23.7566 49.2646 23.7614 50.1147H22.5608Z" fill="#FFFF00" stroke="black" stroke-width="0.5"/>
<path d="M21.0583 47.7881H25.2668C25.3554 47.7881 25.4281 47.8706 25.4281 47.9707C25.4281 48.071 25.3554 48.1532 25.2668 48.1532H21.0583C20.9696 48.1532 20.897 48.0714 20.897 47.9707C20.897 47.8706 20.9696 47.7881 21.0583 47.7881Z" fill="#FFFF00" stroke="black" stroke-width="0.5"/>
<path d="M21.1464 48.1558H25.1717C25.2565 48.1558 25.3259 48.2378 25.3259 48.3381C25.3259 48.4387 25.2565 48.5207 25.1717 48.5207H21.1464C21.0616 48.5207 20.9922 48.4387 20.9922 48.3381C20.9922 48.2378 21.0616 48.1558 21.1464 48.1558Z" fill="#FFFF00" stroke="black" stroke-width="0.5"/>
<path d="M22.4469 45.4127L22.7647 45.4132V45.639H22.9966V45.4082L23.3222 45.4092V45.6391H23.5548V45.4083H23.8806L23.88 45.9295C23.88 46.0113 23.8143 46.0643 23.7379 46.0643H22.5951C22.5184 46.0643 22.4475 46.0028 22.4473 45.9279L22.4469 45.4127Z" fill="#FFFF00" stroke="black" stroke-width="0.5"/>
<path d="M23.644 46.1094L23.7158 47.7807L22.6011 47.7766L22.6749 46.105L23.644 46.1094Z" fill="#FFFF00" stroke="black" stroke-width="0.5"/>
<path d="M22.2838 46.8838L22.3178 47.7847L21.249 47.7852L21.2792 46.8839L22.2838 46.8838Z" fill="#FFFF00" stroke="black" stroke-width="0.5"/>
<path d="M25.0321 46.8838L25.0661 47.7847L23.9973 47.7852L24.0275 46.8839L25.0321 46.8838Z" fill="#FFFF00" stroke="black" stroke-width="0.5"/>
<path d="M21.0817 46.2311L21.3924 46.2319V46.4578H21.6197V46.2266L21.9382 46.2276V46.458H22.166V46.2267L22.4847 46.2272L22.4842 46.7484C22.4842 46.8297 22.4197 46.8828 22.3453 46.8828H21.2269C21.152 46.8828 21.0823 46.8217 21.0821 46.7466L21.0817 46.2311Z" fill="#FFFF00" stroke="black" stroke-width="0.5"/>
<path d="M23.83 46.2311L24.1407 46.2319V46.4578H24.368V46.2266L24.6865 46.2276V46.458H24.9143V46.2267L25.233 46.2272L25.2325 46.7484C25.2325 46.8297 25.1681 46.8828 25.0936 46.8828H23.9752C23.9003 46.8828 23.8306 46.8217 23.8304 46.7466L23.83 46.2311Z" fill="#FFFF00" stroke="black" stroke-width="0.5"/>
<path d="M23.0507 46.6381C23.0438 46.4757 23.2778 46.4739 23.275 46.6381V47.0362H23.0507V46.6381Z" fill="black"/>
<path d="M21.6697 47.2156C21.6689 47.0586 21.8865 47.0554 21.8838 47.2156V47.5231H21.6698L21.6697 47.2156Z" fill="black"/>
<path d="M24.4265 47.2156C24.4257 47.0586 24.6433 47.0554 24.6406 47.2156V47.5231H24.4266L24.4265 47.2156Z" fill="black"/>
<path d="M26.7682 62.7085C25.7779 61.6759 26.2527 60.7172 26.2543 60.7084C26.2561 60.6999 27.2855 60.1875 28.2923 61.1924L26.7682 62.7085Z" fill="#FFFF00"/>
<path d="M24.9123 62.0999L25.9543 63.3833L26.7117 62.6238C25.754 61.6583 26.3116 60.7757 26.3326 60.7617C26.3479 60.7444 27.274 60.2403 28.2016 61.1234L28.9593 60.3603L27.6472 59.3311L24.9123 62.0999Z" fill="#FFFF00" stroke="black" stroke-width="0.5"/>
<path d="M25.9082 63.439L29.0015 60.3238C29.0667 60.2581 29.1848 60.2689 29.2641 60.3476C29.3432 60.4262 29.3544 60.5439 29.2892 60.6095L26.1959 63.7247C26.1307 63.7904 26.0129 63.78 25.9338 63.7014C25.8545 63.6227 25.843 63.5046 25.9082 63.439Z" fill="#FFFF00" stroke="black" stroke-width="0.5"/>
<path d="M27.0269 62.3011C26.4214 61.693 26.6586 61.1094 26.661 61.1076C26.661 61.1076 27.2662 60.8535 27.8729 61.4491L27.0269 62.3011Z" fill="#FFFF00" stroke="black" stroke-width="0.5"/>
<path d="M24.3176 61.7279L27.283 58.7415C27.3454 58.6786 27.4551 58.6852 27.5261 58.7557C27.5973 58.8264 27.6045 58.9359 27.542 58.9988L24.5767 61.9851C24.5142 62.048 24.405 62.042 24.3335 61.971C24.2625 61.9004 24.2552 61.7908 24.3176 61.7279Z" fill="#FFFF00" stroke="black" stroke-width="0.5"/>
<path d="M24.6407 61.9247L27.477 59.0684C27.5368 59.0082 27.6439 59.0168 27.7151 59.0874C27.7864 59.1583 27.7957 59.2653 27.7359 59.3255L24.8997 62.1818C24.8399 62.242 24.7328 62.2335 24.6615 62.1626C24.5903 62.092 24.581 61.9849 24.6407 61.9247Z" fill="#FFFF00" stroke="black" stroke-width="0.5"/>
<path d="M23.6103 59.0692L23.8346 58.844L23.9947 59.0031L24.1581 58.8385L23.9944 58.6759L24.2245 58.4456L24.3876 58.6076L24.5515 58.4425L24.3877 58.2799L24.6173 58.0488L24.9868 58.4163C25.0448 58.474 25.0361 58.558 24.9823 58.6122L24.1771 59.4231C24.123 59.4776 24.0294 59.4845 23.9761 59.4319L23.6103 59.0692Z" fill="#FFFF00" stroke="black" stroke-width="0.5"/>
<path d="M24.9482 58.7104L26.1847 59.8372L25.3963 60.6253L24.2622 59.3951L24.9482 58.7104Z" fill="#FFFF00" stroke="black" stroke-width="0.5"/>
<path d="M24.5393 60.2212L25.2026 60.8318L24.4498 61.5906L23.8315 60.9341L24.5393 60.2212Z" fill="#FFFF00" stroke="black" stroke-width="0.5"/>
<path d="M26.4759 58.2715L27.1392 58.8821L26.3865 59.6409L25.7681 58.9844L26.4759 58.2715Z" fill="#FFFF00" stroke="black" stroke-width="0.5"/>
<path d="M23.229 60.6145L23.4485 60.3945L23.6089 60.5537L23.769 60.3924L23.605 60.2295L23.8301 60.0042L23.9935 60.1665L24.154 60.0049L23.99 59.842L24.2149 59.6162L24.5843 59.9838C24.6421 60.0411 24.6343 60.1241 24.5818 60.177L23.7938 60.9706C23.741 61.0237 23.6486 61.0302 23.5951 60.9774L23.229 60.6145Z" fill="#FFFF00" stroke="black" stroke-width="0.5"/>
<path d="M25.1656 58.6643L25.3851 58.4443L25.5454 58.6035L25.7056 58.4422L25.5415 58.2793L25.7667 58.054L25.9301 58.2163L26.0906 58.0547L25.9265 57.8918L26.1514 57.666L26.5209 58.0336C26.5786 58.0909 26.5708 58.1739 26.5183 58.2268L25.7303 59.0204C25.6775 59.0735 25.5852 59.08 25.5317 59.0272L25.1656 58.6643Z" fill="#FFFF00" stroke="black" stroke-width="0.5"/>
<path d="M24.9049 59.5041C24.7848 59.3945 24.9484 59.2272 25.063 59.3449L25.3455 59.6253L25.1874 59.7845L24.9049 59.5041Z" fill="black"/>
<path d="M24.3421 60.8908C24.2302 60.7808 24.3812 60.6241 24.4929 60.7389L24.7111 60.9556L24.5604 61.1075L24.3421 60.8908Z" fill="black"/>
<path d="M26.2842 58.9347C26.1723 58.8247 26.3234 58.668 26.4351 58.7828L26.6533 58.9995L26.5025 59.1514L26.2842 58.9347Z" fill="black"/>
<path d="M33.9324 38.2183C33.9673 36.788 34.9822 36.4494 34.9895 36.4444C34.9968 36.4396 36.0857 36.809 36.082 38.2316L33.9324 38.2183Z" fill="#FFFF00"/>
<path d="M33.0565 36.4726L32.8799 38.1163L33.9526 38.1186C33.9628 36.7587 34.9821 36.5325 35.0067 36.5375C35.0298 36.5362 36.0401 36.8382 36.067 38.1186H37.1424L36.9482 36.4624L33.0565 36.4726Z" fill="#FFFF00" stroke="black" stroke-width="0.5"/>
<path d="M32.8078 38.1226H37.1979C37.2904 38.1226 37.3661 38.214 37.3661 38.3257C37.3661 38.4372 37.2904 38.5282 37.1979 38.5282H32.8078C32.7153 38.5282 32.6396 38.4372 32.6396 38.3257C32.6396 38.214 32.7153 38.1226 32.8078 38.1226Z" fill="#FFFF00" stroke="black" stroke-width="0.5"/>
<path d="M34.4038 38.1147C34.4086 37.2566 34.9898 37.0137 34.9928 37.0142C34.9928 37.0142 35.5996 37.2646 35.6044 38.1147H34.4038Z" fill="#FFFF00" stroke="black" stroke-width="0.5"/>
<path d="M32.9013 35.7881H37.1098C37.1984 35.7881 37.2711 35.8706 37.2711 35.9707C37.2711 36.071 37.1984 36.1532 37.1098 36.1532H32.9013C32.8126 36.1532 32.74 36.0714 32.74 35.9707C32.74 35.8706 32.8126 35.7881 32.9013 35.7881Z" fill="#FFFF00" stroke="black" stroke-width="0.5"/>
<path d="M32.9892 36.1567H37.0145C37.0993 36.1567 37.1687 36.2387 37.1687 36.339C37.1687 36.4396 37.0993 36.5216 37.0145 36.5216H32.9892C32.9044 36.5216 32.835 36.4396 32.835 36.339C32.835 36.2387 32.9044 36.1567 32.9892 36.1567Z" fill="#FFFF00" stroke="black" stroke-width="0.5"/>
<path d="M34.2897 33.4127L34.6075 33.4132V33.639H34.8394V33.4082L35.1649 33.4092V33.6391H35.3975V33.4083H35.7233L35.7228 33.9295C35.7228 34.0113 35.657 34.0643 35.5807 34.0643H34.4379C34.3611 34.0643 34.2903 34.0028 34.2901 33.9279L34.2897 33.4127Z" fill="#FFFF00" stroke="black" stroke-width="0.5"/>
<path d="M35.4866 34.1094L35.5583 35.7807L34.4436 35.7766L34.5174 34.105L35.4866 34.1094Z" fill="#FFFF00" stroke="black" stroke-width="0.5"/>
<path d="M34.1265 34.8843L34.1606 35.7852L33.0918 35.7857L33.122 34.8844L34.1265 34.8843Z" fill="#FFFF00" stroke="black" stroke-width="0.5"/>
<path d="M36.8748 34.8843L36.9089 35.7852L35.8401 35.7857L35.8702 34.8844L36.8748 34.8843Z" fill="#FFFF00" stroke="black" stroke-width="0.5"/>
<path d="M32.9245 34.2314L33.2352 34.2323V34.4583H33.4625V34.2271L33.781 34.2281V34.4584H34.0088V34.2271L34.3275 34.2276L34.327 34.7489C34.327 34.8302 34.2625 34.8832 34.1881 34.8832H33.0697C32.9948 34.8832 32.9251 34.8222 32.9249 34.747L32.9245 34.2314Z" fill="#FFFF00" stroke="black" stroke-width="0.5"/>
<path d="M35.673 34.2314L35.9837 34.2323V34.4583H36.211V34.2271L36.5295 34.2281V34.4584H36.7573V34.2271L37.076 34.2276L37.0755 34.7489C37.0755 34.8302 37.011 34.8832 36.9366 34.8832H35.8182C35.7433 34.8832 35.6736 34.8222 35.6734 34.747L35.673 34.2314Z" fill="#FFFF00" stroke="black" stroke-width="0.5"/>
<path d="M34.8932 34.6381C34.8864 34.4757 35.1203 34.4739 35.1176 34.6381V35.0362H34.8932V34.6381Z" fill="black"/>
<path d="M33.5127 35.2161C33.5119 35.0591 33.7295 35.0559 33.7267 35.2161V35.5236H33.5128L33.5127 35.2161Z" fill="black"/>
<path d="M36.2693 35.2161C36.2685 35.0591 36.4861 35.0559 36.4833 35.2161V35.5236H36.2694L36.2693 35.2161Z" fill="black"/>
<path d="M47.8433 38.2183C47.8083 36.788 46.7935 36.4494 46.7861 36.4444C46.7788 36.4396 45.6899 36.809 45.6936 38.2316L47.8433 38.2183Z" fill="#FFFF00"/>
<path d="M48.7192 36.4726L48.8959 38.1163L47.8232 38.1186C47.8129 36.7587 46.7937 36.5325 46.769 36.5375C46.7459 36.5362 45.7356 36.8382 45.7087 38.1186H44.6333L44.8275 36.4624L48.7192 36.4726Z" fill="#FFFF00" stroke="black" stroke-width="0.5"/>
<path d="M48.9679 38.1226H44.5778C44.4853 38.1226 44.4097 38.214 44.4097 38.3257C44.4097 38.4372 44.4853 38.5282 44.5778 38.5282H48.9679C49.0605 38.5282 49.1361 38.4372 49.1361 38.3257C49.1361 38.214 49.0605 38.1226 48.9679 38.1226Z" fill="#FFFF00" stroke="black" stroke-width="0.5"/>
<path d="M47.372 38.1147C47.3673 37.2566 46.786 37.0137 46.783 37.0142C46.783 37.0142 46.1762 37.2646 46.1714 38.1147H47.372Z" fill="#FFFF00" stroke="black" stroke-width="0.5"/>
<path d="M48.8744 35.7881H44.6659C44.5772 35.7881 44.5046 35.8706 44.5046 35.9707C44.5046 36.071 44.5772 36.1532 44.6659 36.1532H48.8744C48.963 36.1532 49.0357 36.0714 49.0357 35.9707C49.0357 35.8706 48.963 35.7881 48.8744 35.7881Z" fill="#FFFF00" stroke="black" stroke-width="0.5"/>
<path d="M48.7865 36.1567H44.7611C44.6764 36.1567 44.6069 36.2387 44.6069 36.339C44.6069 36.4396 44.6764 36.5216 44.7611 36.5216H48.7865C48.8712 36.5216 48.9407 36.4396 48.9407 36.339C48.9407 36.2387 48.8712 36.1567 48.7865 36.1567Z" fill="#FFFF00" stroke="black" stroke-width="0.5"/>
<path d="M47.4862 33.4127L47.1684 33.4132V33.639H46.9365V33.4082L46.6109 33.4092V33.6391H46.3783V33.4083H46.0525L46.053 33.9295C46.053 34.0113 46.1188 34.0643 46.1951 34.0643H47.3379C47.4147 34.0643 47.4855 34.0028 47.4858 33.9279L47.4862 33.4127Z" fill="#FFFF00" stroke="black" stroke-width="0.5"/>
<path d="M46.2891 34.1094L46.2173 35.7807L47.332 35.7766L47.2582 34.105L46.2891 34.1094Z" fill="#FFFF00" stroke="black" stroke-width="0.5"/>
<path d="M47.6492 34.8843L47.6152 35.7852L48.684 35.7857L48.6538 34.8844L47.6492 34.8843Z" fill="#FFFF00" stroke="black" stroke-width="0.5"/>
<path d="M44.9007 34.8843L44.8667 35.7852L45.9354 35.7857L45.9053 34.8844L44.9007 34.8843Z" fill="#FFFF00" stroke="black" stroke-width="0.5"/>
<path d="M48.8512 34.2314L48.5405 34.2323V34.4583H48.3131V34.2271L47.9946 34.2281V34.4584H47.7669V34.2271L47.4482 34.2276L47.4487 34.7489C47.4487 34.8302 47.5131 34.8832 47.5876 34.8832H48.7059C48.7809 34.8832 48.8506 34.8222 48.8508 34.747L48.8512 34.2314Z" fill="#FFFF00" stroke="black" stroke-width="0.5"/>
<path d="M46.103 34.2314L45.7922 34.2323V34.4583H45.5648V34.2271L45.2463 34.2281V34.4584H45.0187V34.2271L44.7 34.2276L44.7005 34.7489C44.7005 34.8302 44.7648 34.8832 44.8393 34.8832H45.9576C46.0326 34.8832 46.1024 34.8222 46.1026 34.747L46.103 34.2314Z" fill="#FFFF00" stroke="black" stroke-width="0.5"/>
<path d="M46.8823 34.6381C46.8892 34.4757 46.6552 34.4739 46.658 34.6381V35.0362H46.8823V34.6381Z" fill="black"/>
<path d="M48.2632 35.2161C48.2639 35.0591 48.0463 35.0559 48.0491 35.2161V35.5236H48.2631L48.2632 35.2161Z" fill="black"/>
<path d="M45.5066 35.2161C45.5073 35.0591 45.2898 35.0559 45.2925 35.2161V35.5236H45.5065L45.5066 35.2161Z" fill="black"/>
<path d="M47.8433 50.2183C47.8083 48.788 46.7935 48.4494 46.7861 48.4444C46.7788 48.4396 45.6899 48.809 45.6936 50.2316L47.8433 50.2183Z" fill="#FFFF00"/>
<path d="M48.7192 48.4721L48.8959 50.1158L47.8232 50.1181C47.8129 48.7582 46.7937 48.532 46.769 48.537C46.7459 48.5357 45.7356 48.8377 45.7087 50.1181H44.6333L44.8275 48.4619L48.7192 48.4721Z" fill="#FFFF00" stroke="black" stroke-width="0.5"/>
<path d="M48.9679 50.1221H44.5778C44.4853 50.1221 44.4097 50.2135 44.4097 50.3252C44.4097 50.4367 44.4853 50.5277 44.5778 50.5277H48.9679C49.0605 50.5277 49.1361 50.4367 49.1361 50.3252C49.1361 50.2135 49.0605 50.1221 48.9679 50.1221Z" fill="#FFFF00" stroke="black" stroke-width="0.5"/>
<path d="M47.372 50.1147C47.3673 49.2566 46.786 49.0137 46.783 49.0142C46.783 49.0142 46.1762 49.2646 46.1714 50.1147H47.372Z" fill="#FFFF00" stroke="black" stroke-width="0.5"/>
<path d="M48.8744 47.7881H44.6659C44.5772 47.7881 44.5046 47.8706 44.5046 47.9707C44.5046 48.071 44.5772 48.1532 44.6659 48.1532H48.8744C48.963 48.1532 49.0357 48.0714 49.0357 47.9707C49.0357 47.8706 48.963 47.7881 48.8744 47.7881Z" fill="#FFFF00" stroke="black" stroke-width="0.5"/>
<path d="M48.7865 48.1558H44.7611C44.6764 48.1558 44.6069 48.2378 44.6069 48.3381C44.6069 48.4387 44.6764 48.5207 44.7611 48.5207H48.7865C48.8712 48.5207 48.9407 48.4387 48.9407 48.3381C48.9407 48.2378 48.8712 48.1558 48.7865 48.1558Z" fill="#FFFF00" stroke="black" stroke-width="0.5"/>
<path d="M47.4862 45.4127L47.1684 45.4132V45.639H46.9365V45.4082L46.6109 45.4092V45.6391H46.3783V45.4083H46.0525L46.053 45.9295C46.053 46.0113 46.1188 46.0643 46.1951 46.0643H47.3379C47.4147 46.0643 47.4855 46.0028 47.4858 45.9279L47.4862 45.4127Z" fill="#FFFF00" stroke="black" stroke-width="0.5"/>
<path d="M46.2891 46.1094L46.2173 47.7807L47.332 47.7766L47.2582 46.105L46.2891 46.1094Z" fill="#FFFF00" stroke="black" stroke-width="0.5"/>
<path d="M47.6492 46.8838L47.6152 47.7847L48.684 47.7852L48.6538 46.8839L47.6492 46.8838Z" fill="#FFFF00" stroke="black" stroke-width="0.5"/>
<path d="M44.9007 46.8838L44.8667 47.7847L45.9354 47.7852L45.9053 46.8839L44.9007 46.8838Z" fill="#FFFF00" stroke="black" stroke-width="0.5"/>
<path d="M48.8512 46.2311L48.5405 46.2319V46.4578H48.3131V46.2266L47.9946 46.2276V46.458H47.7669V46.2267L47.4482 46.2272L47.4487 46.7484C47.4487 46.8297 47.5131 46.8828 47.5876 46.8828H48.7059C48.7809 46.8828 48.8506 46.8217 48.8508 46.7466L48.8512 46.2311Z" fill="#FFFF00" stroke="black" stroke-width="0.5"/>
<path d="M46.103 46.2311L45.7922 46.2319V46.4578H45.5648V46.2266L45.2463 46.2276V46.458H45.0187V46.2267L44.7 46.2272L44.7005 46.7484C44.7005 46.8297 44.7648 46.8828 44.8393 46.8828H45.9576C46.0326 46.8828 46.1024 46.8217 46.1026 46.7466L46.103 46.2311Z" fill="#FFFF00" stroke="black" stroke-width="0.5"/>
<path d="M46.8823 46.6381C46.8892 46.4757 46.6552 46.4739 46.658 46.6381V47.0362H46.8823V46.6381Z" fill="black"/>
<path d="M48.2632 47.2156C48.2639 47.0586 48.0463 47.0554 48.0491 47.2156V47.5231H48.2631L48.2632 47.2156Z" fill="black"/>
<path d="M45.5066 47.2156C45.5073 47.0586 45.2898 47.0554 45.2925 47.2156V47.5231H45.5065L45.5066 47.2156Z" fill="black"/>
<path d="M43.1645 62.7085C44.1548 61.6759 43.68 60.7172 43.6784 60.7084C43.6767 60.6999 42.6473 60.1875 41.6404 61.1924L43.1645 62.7085Z" fill="#FFFF00"/>
<path d="M45.0204 62.0999L43.9785 63.3833L43.221 62.6238C44.1788 61.6583 43.6211 60.7757 43.6002 60.7617C43.5849 60.7444 42.6587 60.2403 41.7312 61.1234L40.9734 60.3603L42.2855 59.3311L45.0204 62.0999Z" fill="#FFFF00" stroke="black" stroke-width="0.5"/>
<path d="M44.0247 63.439L40.9314 60.3238C40.8662 60.2581 40.7481 60.2689 40.6688 60.3476C40.5897 60.4262 40.5785 60.5439 40.6437 60.6095L43.7369 63.7247C43.8021 63.7904 43.92 63.78 43.9991 63.7014C44.0784 63.6227 44.0899 63.5046 44.0247 63.439Z" fill="#FFFF00" stroke="black" stroke-width="0.5"/>
<path d="M42.9058 62.3011C43.5114 61.693 43.2742 61.1094 43.2717 61.1076C43.2717 61.1076 42.6665 60.8535 42.0598 61.4491L42.9058 62.3011Z" fill="#FFFF00" stroke="black" stroke-width="0.5"/>
<path d="M45.6156 61.7279L42.6502 58.7415C42.5878 58.6786 42.478 58.6852 42.407 58.7557C42.3359 58.8264 42.3287 58.9359 42.3912 58.9988L45.3565 61.9851C45.419 62.048 45.5282 62.042 45.5997 61.971C45.6707 61.9004 45.678 61.7908 45.6156 61.7279Z" fill="#FFFF00" stroke="black" stroke-width="0.5"/>
<path d="M45.2922 61.9247L42.4559 59.0684C42.3962 59.0082 42.2891 59.0168 42.2179 59.0874C42.1466 59.1583 42.1373 59.2653 42.197 59.3255L45.0333 62.1818C45.093 62.242 45.2002 62.2335 45.2715 62.1626C45.3427 62.092 45.3519 61.9849 45.2922 61.9247Z" fill="#FFFF00" stroke="black" stroke-width="0.5"/>
<path d="M46.3226 59.0692L46.0983 58.844L45.9381 59.0031L45.7747 58.8385L45.9385 58.6759L45.7083 58.4456L45.5452 58.6076L45.3813 58.4425L45.5451 58.2799L45.3155 58.0488L44.9461 58.4163C44.888 58.474 44.8968 58.558 44.9506 58.6122L45.7558 59.4231C45.8099 59.4776 45.9034 59.4845 45.9567 59.4319L46.3226 59.0692Z" fill="#FFFF00" stroke="black" stroke-width="0.5"/>
<path d="M44.9848 58.7104L43.7483 59.8372L44.5367 60.6253L45.6708 59.3951L44.9848 58.7104Z" fill="#FFFF00" stroke="black" stroke-width="0.5"/>
<path d="M45.3935 60.2212L44.7302 60.8318L45.4829 61.5906L46.1013 60.9341L45.3935 60.2212Z" fill="#FFFF00" stroke="black" stroke-width="0.5"/>
<path d="M43.4569 58.2715L42.7937 58.8821L43.5464 59.6409L44.1647 58.9844L43.4569 58.2715Z" fill="#FFFF00" stroke="black" stroke-width="0.5"/>
<path d="M46.7038 60.6145L46.4843 60.3945L46.324 60.5537L46.1638 60.3924L46.3279 60.2295L46.1027 60.0042L45.9393 60.1665L45.7788 60.0049L45.9429 59.842L45.7179 59.6162L45.3485 59.9838C45.2908 60.0411 45.2986 60.1241 45.351 60.177L46.139 60.9706C46.1918 61.0237 46.2842 61.0302 46.3377 60.9774L46.7038 60.6145Z" fill="#FFFF00" stroke="black" stroke-width="0.5"/>
<path d="M44.7673 58.6643L44.5478 58.4443L44.3875 58.6035L44.2273 58.4422L44.3914 58.2793L44.1662 58.054L44.0028 58.2163L43.8423 58.0547L44.0064 57.8918L43.7814 57.666L43.412 58.0336C43.3543 58.0909 43.3621 58.1739 43.4145 58.2268L44.2025 59.0204C44.2553 59.0735 44.3477 59.08 44.4012 59.0272L44.7673 58.6643Z" fill="#FFFF00" stroke="black" stroke-width="0.5"/>
<path d="M45.0279 59.5041C45.148 59.3945 44.9845 59.2272 44.8698 59.3449L44.5874 59.6253L44.7455 59.7845L45.0279 59.5041Z" fill="black"/>
<path d="M45.5908 60.8908C45.7027 60.7808 45.5517 60.6241 45.44 60.7389L45.2217 60.9556L45.3725 61.1075L45.5908 60.8908Z" fill="black"/>
<path d="M43.6484 58.9347C43.7603 58.8247 43.6093 58.668 43.4976 58.7828L43.2793 58.9995L43.4301 59.1514L43.6484 58.9347Z" fill="black"/>
<path d="M33.0857 50.6476V50.6489C33.0857 51.2219 33.3057 51.744 33.6587 52.1228C34.0124 52.5028 34.4995 52.7388 35.0323 52.7388C35.5678 52.7388 36.054 52.5044 36.406 52.126C36.7579 51.7481 36.9765 51.2265 36.9765 50.6511V47.8615L33.0926 47.8584L33.0857 50.6476Z" fill="#003399"/>
<path d="M33.9763 49.3041C34.1889 49.3041 34.3612 49.1318 34.3612 48.9192C34.3612 48.7065 34.1889 48.5342 33.9763 48.5342C33.7637 48.5342 33.5913 48.7065 33.5913 48.9192C33.5913 49.1318 33.7637 49.3041 33.9763 49.3041Z" fill="white"/>
<path d="M36.1311 49.306C36.3437 49.306 36.5161 49.1337 36.5161 48.9211C36.5161 48.7084 36.3437 48.5361 36.1311 48.5361C35.9185 48.5361 35.7461 48.7084 35.7461 48.9211C35.7461 49.1337 35.9185 49.306 36.1311 49.306Z" fill="white"/>
<path d="M35.0518 50.3407C35.2644 50.3407 35.4367 50.1683 35.4367 49.9557C35.4367 49.7431 35.2644 49.5708 35.0518 49.5708C34.8392 49.5708 34.6667 49.7431 34.6667 49.9557C34.6667 50.1683 34.8392 50.3407 35.0518 50.3407Z" fill="white"/>
<path d="M33.9763 51.4237C34.1889 51.4237 34.3612 51.2514 34.3612 51.0388C34.3612 50.8262 34.1889 50.6538 33.9763 50.6538C33.7637 50.6538 33.5913 50.8262 33.5913 51.0388C33.5913 51.2514 33.7637 51.4237 33.9763 51.4237Z" fill="white"/>
<path d="M36.1289 51.4203C36.3415 51.4203 36.5138 51.248 36.5138 51.0354C36.5138 50.8227 36.3415 50.6504 36.1289 50.6504C35.9163 50.6504 35.7439 50.8227 35.7439 51.0354C35.7439 51.248 35.9163 51.4203 36.1289 51.4203Z" fill="white"/>
<path d="M33.0857 43.9074V43.9087C33.0857 44.4817 33.3057 45.0038 33.6587 45.3826C34.0124 45.7626 34.4995 45.9986 35.0323 45.9986C35.5678 45.9986 36.054 45.7642 36.406 45.3858C36.7579 45.0079 36.9765 44.4863 36.9765 43.9109V41.1214L33.0926 41.1182L33.0857 43.9074Z" fill="#003399"/>
<path d="M33.9763 42.5643C34.1889 42.5643 34.3612 42.392 34.3612 42.1794C34.3612 41.9667 34.1889 41.7944 33.9763 41.7944C33.7637 41.7944 33.5913 41.9667 33.5913 42.1794C33.5913 42.392 33.7637 42.5643 33.9763 42.5643Z" fill="white"/>
<path d="M36.1311 42.5659C36.3437 42.5659 36.5161 42.3935 36.5161 42.1809C36.5161 41.9683 36.3437 41.7959 36.1311 41.7959C35.9185 41.7959 35.7461 41.9683 35.7461 42.1809C35.7461 42.3935 35.9185 42.5659 36.1311 42.5659Z" fill="white"/>
<path d="M35.0518 43.6005C35.2644 43.6005 35.4367 43.4281 35.4367 43.2155C35.4367 43.0029 35.2644 42.8306 35.0518 42.8306C34.8392 42.8306 34.6667 43.0029 34.6667 43.2155C34.6667 43.4281 34.8392 43.6005 35.0518 43.6005Z" fill="white"/>
<path d="M33.9763 44.6836C34.1889 44.6836 34.3612 44.5112 34.3612 44.2986C34.3612 44.086 34.1889 43.9136 33.9763 43.9136C33.7637 43.9136 33.5913 44.086 33.5913 44.2986C33.5913 44.5112 33.7637 44.6836 33.9763 44.6836Z" fill="white"/>
<path d="M36.1289 44.681C36.3415 44.681 36.5138 44.5087 36.5138 44.2961C36.5138 44.0834 36.3415 43.9111 36.1289 43.9111C35.9163 43.9111 35.7439 44.0834 35.7439 44.2961C35.7439 44.5087 35.9163 44.681 36.1289 44.681Z" fill="white"/>
<path d="M27.6973 50.6476V50.6489C27.6973 51.2219 27.9173 51.744 28.2703 52.1228C28.6239 52.5028 29.111 52.7388 29.6438 52.7388C30.1794 52.7388 30.6655 52.5044 31.0176 52.126C31.3694 51.7481 31.5881 51.2265 31.5881 50.6511V47.8615L27.7042 47.8584L27.6973 50.6476Z" fill="#003399"/>
<path d="M28.5881 49.3041C28.8007 49.3041 28.9731 49.1318 28.9731 48.9192C28.9731 48.7065 28.8007 48.5342 28.5881 48.5342C28.3755 48.5342 28.2031 48.7065 28.2031 48.9192C28.2031 49.1318 28.3755 49.3041 28.5881 49.3041Z" fill="white"/>
<path d="M30.7429 49.306C30.9555 49.306 31.1279 49.1337 31.1279 48.9211C31.1279 48.7084 30.9555 48.5361 30.7429 48.5361C30.5303 48.5361 30.3579 48.7084 30.3579 48.9211C30.3579 49.1337 30.5303 49.306 30.7429 49.306Z" fill="white"/>
<path d="M29.6633 50.3407C29.8759 50.3407 30.0483 50.1683 30.0483 49.9557C30.0483 49.7431 29.8759 49.5708 29.6633 49.5708C29.4507 49.5708 29.2783 49.7431 29.2783 49.9557C29.2783 50.1683 29.4507 50.3407 29.6633 50.3407Z" fill="white"/>
<path d="M28.5881 51.4237C28.8007 51.4237 28.9731 51.2514 28.9731 51.0388C28.9731 50.8262 28.8007 50.6538 28.5881 50.6538C28.3755 50.6538 28.2031 50.8262 28.2031 51.0388C28.2031 51.2514 28.3755 51.4237 28.5881 51.4237Z" fill="white"/>
<path d="M30.7407 51.4203C30.9533 51.4203 31.1256 51.248 31.1256 51.0354C31.1256 50.8227 30.9533 50.6504 30.7407 50.6504C30.528 50.6504 30.3557 50.8227 30.3557 51.0354C30.3557 51.248 30.528 51.4203 30.7407 51.4203Z" fill="white"/>
<path d="M38.4597 50.6476V50.6489C38.4597 51.2219 38.6798 51.744 39.0327 52.1228C39.3864 52.5028 39.8735 52.7388 40.4063 52.7388C40.9418 52.7388 41.428 52.5044 41.7801 52.126C42.1319 51.7481 42.3506 51.2265 42.3506 50.6511V47.8615L38.4667 47.8584L38.4597 50.6476Z" fill="#003399"/>
<path d="M39.3505 49.3041C39.5631 49.3041 39.7355 49.1318 39.7355 48.9192C39.7355 48.7065 39.5631 48.5342 39.3505 48.5342C39.1379 48.5342 38.9656 48.7065 38.9656 48.9192C38.9656 49.1318 39.1379 49.3041 39.3505 49.3041Z" fill="white"/>
<path d="M41.5056 49.306C41.7182 49.306 41.8905 49.1337 41.8905 48.9211C41.8905 48.7084 41.7182 48.5361 41.5056 48.5361C41.293 48.5361 41.1206 48.7084 41.1206 48.9211C41.1206 49.1337 41.293 49.306 41.5056 49.306Z" fill="white"/>
<path d="M40.426 50.3407C40.6386 50.3407 40.811 50.1683 40.811 49.9557C40.811 49.7431 40.6386 49.5708 40.426 49.5708C40.2134 49.5708 40.041 49.7431 40.041 49.9557C40.041 50.1683 40.2134 50.3407 40.426 50.3407Z" fill="white"/>
<path d="M39.3505 51.4237C39.5631 51.4237 39.7355 51.2514 39.7355 51.0388C39.7355 50.8262 39.5631 50.6538 39.3505 50.6538C39.1379 50.6538 38.9656 50.8262 38.9656 51.0388C38.9656 51.2514 39.1379 51.4237 39.3505 51.4237Z" fill="white"/>
<path d="M41.5031 51.4203C41.7157 51.4203 41.8881 51.248 41.8881 51.0354C41.8881 50.8227 41.7157 50.6504 41.5031 50.6504C41.2905 50.6504 41.1182 50.8227 41.1182 51.0354C41.1182 51.248 41.2905 51.4203 41.5031 51.4203Z" fill="white"/>
<path d="M33.0857 57.3269V57.3282C33.0857 57.9012 33.3057 58.4233 33.6587 58.8021C34.0124 59.1821 34.4995 59.4181 35.0323 59.4181C35.5678 59.4181 36.054 59.1836 36.406 58.8053C36.7579 58.4274 36.9765 57.9058 36.9765 57.3304V54.5408L33.0926 54.5376L33.0857 57.3269Z" fill="#003399"/>
<path d="M33.9763 55.9838C34.1889 55.9838 34.3612 55.8115 34.3612 55.5988C34.3612 55.3862 34.1889 55.2139 33.9763 55.2139C33.7637 55.2139 33.5913 55.3862 33.5913 55.5988C33.5913 55.8115 33.7637 55.9838 33.9763 55.9838Z" fill="white"/>
<path d="M36.1311 55.9857C36.3437 55.9857 36.5161 55.8134 36.5161 55.6007C36.5161 55.3881 36.3437 55.2158 36.1311 55.2158C35.9185 55.2158 35.7461 55.3881 35.7461 55.6007C35.7461 55.8134 35.9185 55.9857 36.1311 55.9857Z" fill="white"/>
<path d="M35.0518 57.0199C35.2644 57.0199 35.4367 56.8476 35.4367 56.635C35.4367 56.4224 35.2644 56.25 35.0518 56.25C34.8392 56.25 34.6667 56.4224 34.6667 56.635C34.6667 56.8476 34.8392 57.0199 35.0518 57.0199Z" fill="white"/>
<path d="M33.9763 58.1034C34.1889 58.1034 34.3612 57.9311 34.3612 57.7185C34.3612 57.5059 34.1889 57.3335 33.9763 57.3335C33.7637 57.3335 33.5913 57.5059 33.5913 57.7185C33.5913 57.9311 33.7637 58.1034 33.9763 58.1034Z" fill="white"/>
<path d="M36.1289 58.1C36.3415 58.1 36.5138 57.9277 36.5138 57.715C36.5138 57.5024 36.3415 57.3301 36.1289 57.3301C35.9163 57.3301 35.7439 57.5024 35.7439 57.715C35.7439 57.9277 35.9163 58.1 36.1289 58.1Z" fill="white"/>
</g>
</g>
<path d="M99.5 50C99.5 77.3381 77.3381 99.5 50 99.5C22.6619 99.5 0.5 77.3381 0.5 50C0.5 22.6619 22.6619 0.5 50 0.5C77.3381 0.5 99.5 22.6619 99.5 50Z" stroke="black"/>
</g>
<defs>
<clipPath id="clip0_657_6330">
<rect width="100" height="100" fill="white"/>
</clipPath>
</defs>
</svg>
