<svg width="107" height="93" viewBox="0 0 107 93" fill="none" xmlns="http://www.w3.org/2000/svg">
<path d="M99.9741 92.1722H6.9389C3.10716 92.1722 0 89.065 0 85.2333V26.4687C0 22.6369 3.10716 19.5298 6.9389 19.5298H99.9741C103.806 19.5298 106.913 22.6369 106.913 26.4687V85.2333C106.913 89.065 103.806 92.1722 99.9741 92.1722Z" fill="url(#paint0_linear_43_6341)"/>
<path d="M106.913 62.011V70.4889C101.891 69.5283 97.0194 69.1023 92.1644 69.591C83.4214 70.4701 75.2922 74.5649 66.5826 82.4769C65.1898 83.7423 63.774 85.0683 62.4042 86.3483C60.3244 88.2945 58.2216 90.2615 56.0416 92.1722H42.5084C47.5157 88.8353 52.0073 84.634 56.6994 80.2468C58.0901 78.9459 59.5288 77.6011 60.9676 76.2939C71.0679 67.1186 80.7151 62.3493 91.3271 61.2801C96.5788 60.7518 101.874 61.1611 106.913 62.011ZM55.7702 19.5298C55.0581 40.9667 37.3966 58.1855 15.7885 58.1855C10.1839 58.1855 4.84658 57.0266 0 54.9364V45.6065C4.6503 48.294 10.0419 49.8329 15.7885 49.8329C32.7901 49.8329 46.7034 36.3602 47.4113 19.5298H55.7702Z" fill="url(#paint1_linear_43_6341)"/>
<path d="M106.913 82.1094V85.2332C106.913 89.065 103.806 92.1721 99.9741 92.1721H6.9389C3.10716 92.1721 0 89.065 0 85.2332V82.1094H106.913Z" fill="url(#paint2_linear_43_6341)"/>
<path d="M99.0845 92.1722H99.9719C103.804 92.1722 106.911 89.065 106.911 85.2333V26.4687C106.911 22.6369 103.804 19.5298 99.9719 19.5298H99.0845V92.1722Z" fill="url(#paint3_linear_43_6341)"/>
<path d="M106.913 29.5906V26.4667C106.913 22.635 103.806 19.5278 99.9741 19.5278H6.9389C3.10716 19.5299 0 22.6371 0 26.4688V29.5927H106.913V29.5906Z" fill="url(#paint4_linear_43_6341)"/>
<path d="M7.82845 19.5298H6.94099C3.10716 19.5298 0 22.6369 0 26.4687V85.2333C0 89.065 3.10716 92.1722 6.9389 92.1722H7.82636V19.5298H7.82845Z" fill="url(#paint5_linear_43_6341)"/>
<path d="M22.3744 54.8925H12.1321C10.566 54.8925 9.29639 53.6229 9.29639 52.0568V45.2473C9.29639 43.6812 10.566 42.4116 12.1321 42.4116H22.3744C23.9405 42.4116 25.2101 43.6812 25.2101 45.2473V52.0568C25.2101 53.6229 23.9405 54.8925 22.3744 54.8925Z" fill="url(#paint6_linear_43_6341)"/>
<path d="M22.387 54.7212H12.1196C10.6517 54.7212 9.46143 53.5309 9.46143 52.063V45.2368C9.46143 43.7689 10.6517 42.5786 12.1196 42.5786H22.3891C23.8571 42.5786 25.0473 43.7689 25.0473 45.2368V52.063C25.0452 53.5309 23.855 54.7212 22.387 54.7212Z" fill="url(#paint7_linear_43_6341)"/>
<path d="M25.0452 48.8599V48.4422H19.5994V46.6005L21.0047 45.1952H25.0432C25.0432 45.0532 25.0285 44.9133 25.0035 44.7775H20.917C20.8627 44.7775 20.8084 44.8005 20.7708 44.8402L19.3049 46.304H17.4632V42.5808H17.0456V46.304H15.2268L13.763 44.8402C13.7233 44.8005 13.669 44.7775 13.6147 44.7775H9.50319C9.47813 44.9133 9.46351 45.0532 9.46351 45.1952H13.527L14.9073 46.5754V48.4422H9.46143V48.8599H14.9073V50.7267L13.527 52.1069H9.46351C9.46351 52.2489 9.47813 52.3888 9.50319 52.5246H13.6147C13.669 52.5246 13.7233 52.5016 13.763 52.4619L15.2268 50.9981H17.0456V54.7213H17.4632V50.9981H19.3049L20.7708 52.4619C20.8084 52.5016 20.8627 52.5246 20.917 52.5246H25.0035C25.0285 52.3888 25.0432 52.2489 25.0432 52.1069H21.0047L19.5994 50.7016V48.8599H25.0452ZM19.1817 50.5805H15.3249V46.7216H19.1817V50.5805Z" fill="url(#paint8_linear_43_6341)"/>
<path d="M22.3599 42.5808H22.3891C23.8571 42.5808 25.0473 43.7711 25.0473 45.239V52.0652C25.0473 53.5331 23.8571 54.7234 22.3891 54.7234H22.3599V42.5808Z" fill="url(#paint9_linear_43_6341)"/>
<path d="M25.0391 52.1904C24.9722 53.5999 23.8133 54.7213 22.3871 54.7213H12.1197C10.6956 54.7213 9.53459 53.5999 9.46777 52.1904H25.0391Z" fill="url(#paint10_linear_43_6341)"/>
<path d="M12.1469 42.5808H12.1177C10.6497 42.5808 9.45947 43.7711 9.45947 45.239V52.0652C9.45947 53.5331 10.6497 54.7234 12.1177 54.7234H12.1469V42.5808Z" fill="url(#paint11_linear_43_6341)"/>
<path d="M25.0391 45.1116C24.9722 43.7021 23.8133 42.5808 22.3871 42.5808H12.1197C10.6956 42.5808 9.53459 43.7021 9.46777 45.1116H25.0391Z" fill="url(#paint12_linear_43_6341)"/>
<path d="M95.7144 54.5877C95.6074 54.5878 95.5021 54.5606 95.4087 54.5084C95.3152 54.4563 95.2366 54.3811 95.1805 54.29C95.1244 54.1989 95.0926 54.095 95.088 53.988C95.0835 53.8811 95.1065 53.7749 95.1548 53.6793C96.7626 50.4845 96.7626 46.8219 95.1548 43.6249C95.0803 43.4764 95.0678 43.3045 95.1198 43.1468C95.1719 42.9891 95.2843 42.8584 95.4325 42.7834C95.7415 42.6289 96.1174 42.7521 96.274 43.0611C98.0615 46.6152 98.0615 50.6891 96.274 54.2411C96.2223 54.3452 96.1425 54.4329 96.0436 54.4941C95.9447 54.5554 95.8307 54.5878 95.7144 54.5877ZM93.5636 53.3912C95.2571 50.378 95.2571 46.9242 93.5636 43.911C93.482 43.7661 93.3462 43.6595 93.1862 43.6145C93.0261 43.5695 92.8547 43.5898 92.7095 43.6709C92.6378 43.7112 92.5747 43.7654 92.5238 43.8302C92.473 43.895 92.4355 43.9692 92.4134 44.0485C92.3913 44.1278 92.385 44.2108 92.395 44.2925C92.405 44.3743 92.431 44.4532 92.4715 44.5249C93.9457 47.1455 93.9457 50.1546 92.4715 52.7773C92.3024 53.078 92.4088 53.4601 92.7116 53.6313C92.8077 53.6856 92.9142 53.7128 93.0186 53.7128C93.2378 53.7107 93.4487 53.5958 93.5636 53.3912ZM90.897 52.5517C92.5383 50.1462 92.5383 47.156 90.897 44.7504C90.7028 44.4644 90.3124 44.3913 90.0263 44.5855C89.7402 44.7797 89.6671 45.1702 89.8613 45.4562C91.2061 47.4274 91.2061 49.8747 89.8613 51.846C89.6671 52.132 89.7402 52.5225 90.0263 52.7167C90.1349 52.7898 90.2581 52.8253 90.3792 52.8253C90.5796 52.8253 90.7759 52.7292 90.897 52.5517ZM88.078 51.7395C88.9885 50.8958 89.4917 49.7996 89.4917 48.6511C89.4917 47.5026 88.9906 46.4063 88.078 45.5627C87.8233 45.3289 87.4286 45.3435 87.1927 45.5982C86.9567 45.853 86.9734 46.2476 87.2282 46.4836C87.8797 47.0871 88.2388 47.8576 88.2388 48.6532C88.2388 49.4488 87.8797 50.2193 87.2282 50.8228C87.1061 50.9355 87.0338 51.0921 87.0272 51.2581C87.0205 51.4241 87.08 51.586 87.1927 51.7081C87.3159 51.8418 87.485 51.9086 87.6521 51.9086C87.8045 51.9065 87.959 51.8522 88.078 51.7395Z" fill="url(#paint13_linear_43_6341)"/>
<path d="M52.8301 81.6416H10.0879C9.74124 81.6416 9.46143 81.3617 9.46143 81.0151C9.46143 80.6685 9.74124 80.3887 10.0879 80.3887H52.8301C53.1767 80.3887 53.4565 80.6685 53.4565 81.0151C53.4565 81.3617 53.1767 81.6416 52.8301 81.6416Z" fill="url(#paint14_linear_43_6341)"/>
<path d="M96.9901 81.6416H88.9257C88.5791 81.6416 88.2993 81.3617 88.2993 81.0151C88.2993 80.6685 88.5791 80.3887 88.9257 80.3887H96.9901C97.3368 80.3887 97.6166 80.6685 97.6166 81.0151C97.6166 81.3617 97.3368 81.6416 96.9901 81.6416ZM85.5199 81.0151C85.5199 80.6685 85.2401 80.3887 84.8935 80.3887H76.8291C76.4824 80.3887 76.2026 80.6685 76.2026 81.0151C76.2026 81.3617 76.4824 81.6416 76.8291 81.6416H84.8935C85.238 81.6416 85.5199 81.3617 85.5199 81.0151Z" fill="url(#paint15_linear_43_6341)"/>
<path d="M10.0879 33.7649C9.74124 33.7649 9.46143 33.4851 9.46143 33.1385V30.687C9.46143 30.3404 9.74124 30.0605 10.0879 30.0605C10.4345 30.0605 10.7143 30.3404 10.7143 30.687V33.1385C10.7143 33.4851 10.4345 33.7649 10.0879 33.7649ZM14.1263 33.1385V30.687C14.1263 30.3404 13.8465 30.0605 13.4999 30.0605C13.1533 30.0605 12.8735 30.3404 12.8735 30.687V33.1385C12.8735 33.4851 13.1533 33.7649 13.4999 33.7649C13.8465 33.7649 14.1263 33.4851 14.1263 33.1385ZM17.5384 33.1385V30.687C17.5384 30.3404 17.2586 30.0605 16.9119 30.0605C16.5653 30.0605 16.2855 30.3404 16.2855 30.687V33.1385C16.2855 33.4851 16.5653 33.7649 16.9119 33.7649C17.2586 33.7649 17.5384 33.4851 17.5384 33.1385ZM20.9504 33.1385V30.687C20.9504 30.3404 20.6706 30.0605 20.324 30.0605C19.9773 30.0605 19.6975 30.3404 19.6975 30.687V33.1385C19.6975 33.4851 19.9773 33.7649 20.324 33.7649C20.6706 33.7649 20.9504 33.4851 20.9504 33.1385Z" fill="url(#paint16_linear_43_6341)"/>
<path d="M11.4723 71.0213H11.3595C10.3134 71.0213 9.46143 70.1693 9.46143 69.1232V66.1601C9.46143 65.1139 10.3134 64.262 11.3595 64.262H11.4702C12.5164 64.262 13.3683 65.1139 13.3683 66.1601V69.1232C13.3704 70.1693 12.5185 71.0213 11.4723 71.0213ZM11.3595 65.5128C11.0025 65.5128 10.7143 65.803 10.7143 66.158V69.1211C10.7143 69.4781 11.0046 69.7663 11.3595 69.7663H11.4702C11.8273 69.7663 12.1155 69.4761 12.1155 69.1211V66.158C12.1155 65.8009 11.8252 65.5128 11.4702 65.5128H11.3595Z" fill="url(#paint17_linear_43_6341)"/>
<path d="M16.5444 71.0213H16.4338C15.3876 71.0213 14.5356 70.1693 14.5356 69.1232V66.1601C14.5356 65.1139 15.3876 64.262 16.4338 64.262H16.5444C17.5906 64.262 18.4426 65.1139 18.4426 66.1601V69.1232C18.4447 70.1693 17.5927 71.0213 16.5444 71.0213ZM16.4338 65.5128C16.0767 65.5128 15.7885 65.803 15.7885 66.158V69.1211C15.7885 69.4781 16.0788 69.7663 16.4338 69.7663H16.5444C16.9015 69.7663 17.1897 69.4761 17.1897 69.1211V66.158C17.1897 65.8009 16.8994 65.5128 16.5444 65.5128H16.4338Z" fill="url(#paint18_linear_43_6341)"/>
<path d="M21.6187 71.0213H21.508C20.4618 71.0213 19.6099 70.1693 19.6099 69.1232V66.1601C19.6099 65.1139 20.4618 64.262 21.508 64.262H21.6187C22.6648 64.262 23.5168 65.1139 23.5168 66.1601V69.1232C23.5168 70.1693 22.6648 71.0213 21.6187 71.0213ZM21.5059 65.5128C21.1488 65.5128 20.8607 65.803 20.8607 66.158V69.1211C20.8607 69.4781 21.1509 69.7663 21.5059 69.7663H21.6166C21.9736 69.7663 22.2618 69.4761 22.2618 69.1211V66.158C22.2618 65.8009 21.9716 65.5128 21.6166 65.5128H21.5059Z" fill="url(#paint19_linear_43_6341)"/>
<path d="M26.6904 71.0213H26.5798C25.5336 71.0213 24.6816 70.1693 24.6816 69.1232V66.1601C24.6816 65.1139 25.5336 64.262 26.5798 64.262H26.6904C27.7366 64.262 28.5886 65.1139 28.5886 66.1601V69.1232C28.5906 70.1693 27.7387 71.0213 26.6904 71.0213ZM26.5798 65.5128C26.2227 65.5128 25.9345 65.803 25.9345 66.158V69.1211C25.9345 69.4781 26.2248 69.7663 26.5798 69.7663H26.6904C27.0475 69.7663 27.3357 69.4761 27.3357 69.1211V66.158C27.3357 65.8009 27.0454 65.5128 26.6904 65.5128H26.5798Z" fill="url(#paint20_linear_43_6341)"/>
<path d="M34.4815 71.0213H34.3708C33.3246 71.0213 32.4727 70.1693 32.4727 69.1232V66.1601C32.4727 65.1139 33.3246 64.262 34.3708 64.262H34.4815C35.5276 64.262 36.3796 65.1139 36.3796 66.1601V69.1232C36.3796 70.1693 35.5276 71.0213 34.4815 71.0213ZM34.3687 65.5128C34.0116 65.5128 33.7235 65.803 33.7235 66.158V69.1211C33.7235 69.4781 34.0137 69.7663 34.3687 69.7663H34.4794C34.8364 69.7663 35.1246 69.4761 35.1246 69.1211V66.158C35.1246 65.8009 34.8343 65.5128 34.4794 65.5128H34.3687Z" fill="url(#paint21_linear_43_6341)"/>
<path d="M39.5537 71.0213H39.443C38.3969 71.0213 37.5449 70.1693 37.5449 69.1232V66.1601C37.5449 65.1139 38.3969 64.262 39.443 64.262H39.5537C40.5999 64.262 41.4518 65.1139 41.4518 66.1601V69.1232C41.4518 70.1693 40.5999 71.0213 39.5537 71.0213ZM39.443 65.5128C39.086 65.5128 38.7978 65.803 38.7978 66.158V69.1211C38.7978 69.4781 39.0881 69.7663 39.443 69.7663H39.5537C39.9108 69.7663 40.199 69.4761 40.199 69.1211V66.158C40.199 65.8009 39.9087 65.5128 39.5537 65.5128H39.443Z" fill="url(#paint22_linear_43_6341)"/>
<path d="M44.6255 71.0213H44.5148C43.4687 71.0213 42.6167 70.1693 42.6167 69.1232V66.1601C42.6167 65.1139 43.4687 64.262 44.5148 64.262H44.6255C45.6717 64.262 46.5236 65.1139 46.5236 66.1601V69.1232C46.5257 70.1693 45.6737 71.0213 44.6255 71.0213ZM44.5148 65.5128C44.1577 65.5128 43.8696 65.803 43.8696 66.158V69.1211C43.8696 69.4781 44.1598 69.7663 44.5148 69.7663H44.6255C44.9826 69.7663 45.2707 69.4761 45.2707 69.1211V66.158C45.2707 65.8009 44.9805 65.5128 44.6255 65.5128H44.5148Z" fill="url(#paint23_linear_43_6341)"/>
<path d="M49.6997 71.0213H49.589C48.5429 71.0213 47.6909 70.1693 47.6909 69.1232V66.1601C47.6909 65.1139 48.5429 64.262 49.589 64.262H49.6997C50.7459 64.262 51.5978 65.1139 51.5978 66.1601V69.1232C51.5978 70.1693 50.7459 71.0213 49.6997 71.0213ZM49.587 65.5128C49.2299 65.5128 48.9417 65.803 48.9417 66.158V69.1211C48.9417 69.4781 49.232 69.7663 49.587 69.7663H49.6976C50.0547 69.7663 50.3429 69.4761 50.3429 69.1211V66.158C50.3429 65.8009 50.0526 65.5128 49.6976 65.5128H49.587Z" fill="url(#paint24_linear_43_6341)"/>
<path d="M57.4888 71.0213H57.3781C56.3319 71.0213 55.48 70.1693 55.48 69.1232V66.1601C55.48 65.1139 56.3319 64.262 57.3781 64.262H57.4888C58.5349 64.262 59.3869 65.1139 59.3869 66.1601V69.1232C59.389 70.1693 58.537 71.0213 57.4888 71.0213ZM57.3781 65.5128C57.021 65.5128 56.7329 65.803 56.7329 66.158V69.1211C56.7329 69.4781 57.0231 69.7663 57.3781 69.7663H57.4888C57.8458 69.7663 58.134 69.4761 58.134 69.1211V66.158C58.134 65.8009 57.8438 65.5128 57.4888 65.5128H57.3781Z" fill="url(#paint25_linear_43_6341)"/>
<path d="M62.563 71.0213H62.4523C61.4062 71.0213 60.5542 70.1693 60.5542 69.1232V66.1601C60.5542 65.1139 61.4062 64.262 62.4523 64.262H62.563C63.6092 64.262 64.4611 65.1139 64.4611 66.1601V69.1232C64.4611 70.1693 63.6092 71.0213 62.563 71.0213ZM62.4502 65.5128C62.0932 65.5128 61.805 65.803 61.805 66.158V69.1211C61.805 69.4781 62.0953 69.7663 62.4502 69.7663H62.5609C62.918 69.7663 63.2061 69.4761 63.2061 69.1211V66.158C63.2061 65.8009 62.9159 65.5128 62.5609 65.5128H62.4502Z" fill="url(#paint26_linear_43_6341)"/>
<path d="M67.6348 71.0213H67.5241C66.4779 71.0213 65.626 70.1693 65.626 69.1232V66.1601C65.626 65.1139 66.4779 64.262 67.5241 64.262H67.6348C68.6809 64.262 69.5329 65.1139 69.5329 66.1601V69.1232C69.535 70.1693 68.683 71.0213 67.6348 71.0213ZM67.5241 65.5128C67.167 65.5128 66.8789 65.803 66.8789 66.158V69.1211C66.8789 69.4781 67.1691 69.7663 67.5241 69.7663H67.6348C67.9918 69.7663 68.28 69.4761 68.28 69.1211V66.158C68.28 65.8009 67.9898 65.5128 67.6348 65.5128H67.5241Z" fill="url(#paint27_linear_43_6341)"/>
<path d="M72.709 71.0213H72.5983C71.5522 71.0213 70.7002 70.1693 70.7002 69.1232V66.1601C70.7002 65.1139 71.5522 64.262 72.5983 64.262H72.709C73.7552 64.262 74.6071 65.1139 74.6071 66.1601V69.1232C74.6071 70.1693 73.7552 71.0213 72.709 71.0213ZM72.5962 65.5128C72.2392 65.5128 71.951 65.803 71.951 66.158V69.1211C71.951 69.4781 72.2412 69.7663 72.5962 69.7663H72.7069C73.064 69.7663 73.3521 69.4761 73.3521 69.1211V66.158C73.3521 65.8009 73.0619 65.5128 72.7069 65.5128H72.5962Z" fill="url(#paint28_linear_43_6341)"/>
<path d="M80.4981 71.0213H80.3874C79.3412 71.0213 78.4893 70.1693 78.4893 69.1232V66.1601C78.4893 65.1139 79.3412 64.262 80.3874 64.262H80.4981C81.5442 64.262 82.3962 65.1139 82.3962 66.1601V69.1232C82.3983 70.1693 81.5463 71.0213 80.4981 71.0213ZM80.3874 65.5128C80.0303 65.5128 79.7421 65.803 79.7421 66.158V69.1211C79.7421 69.4781 80.0324 69.7663 80.3874 69.7663H80.4981C80.8551 69.7663 81.1433 69.4761 81.1433 69.1211V66.158C81.1433 65.8009 80.853 65.5128 80.4981 65.5128H80.3874Z" fill="url(#paint29_linear_43_6341)"/>
<path d="M85.5718 71.0213H85.4611C84.415 71.0213 83.563 70.1693 83.563 69.1232V66.1601C83.563 65.1139 84.415 64.262 85.4611 64.262H85.5718C86.6179 64.262 87.4699 65.1139 87.4699 66.1601V69.1232C87.4699 70.1693 86.6179 71.0213 85.5718 71.0213ZM85.459 65.5128C85.102 65.5128 84.8138 65.803 84.8138 66.158V69.1211C84.8138 69.4781 85.104 69.7663 85.459 69.7663H85.5697C85.9268 69.7663 86.2149 69.4761 86.2149 69.1211V66.158C86.2149 65.8009 85.9247 65.5128 85.5697 65.5128H85.459Z" fill="url(#paint30_linear_43_6341)"/>
<path d="M90.644 71.0213H90.5334C89.4872 71.0213 88.6353 70.1693 88.6353 69.1232V66.1601C88.6353 65.1139 89.4872 64.262 90.5334 64.262H90.644C91.6902 64.262 92.5422 65.1139 92.5422 66.1601V69.1232C92.5443 70.1693 91.6923 71.0213 90.644 71.0213ZM90.5334 65.5128C90.1763 65.5128 89.8881 65.803 89.8881 66.158V69.1211C89.8881 69.4781 90.1784 69.7663 90.5334 69.7663H90.644C91.0011 69.7663 91.2893 69.4761 91.2893 69.1211V66.158C91.2893 65.8009 90.999 65.5128 90.644 65.5128H90.5334Z" fill="url(#paint31_linear_43_6341)"/>
<path d="M95.7188 71.0213H95.6081C94.5619 71.0213 93.71 70.1693 93.71 69.1232V66.1601C93.71 65.1139 94.5619 64.262 95.6081 64.262H95.7188C96.7649 64.262 97.6169 65.1139 97.6169 66.1601V69.1232C97.6169 70.1693 96.7649 71.0213 95.7188 71.0213ZM95.606 65.5128C95.2489 65.5128 94.9608 65.803 94.9608 66.158V69.1211C94.9608 69.4781 95.251 69.7663 95.606 69.7663H95.7167C96.0737 69.7663 96.3619 69.4761 96.3619 69.1211V66.158C96.3619 65.8009 96.0717 65.5128 95.7167 65.5128H95.606Z" fill="url(#paint32_linear_43_6341)"/>
<path d="M68.4035 19.5298H38.5117V20.2565C38.5117 25.6418 41.6126 30.006 44.9912 33.1612C45.3901 33.5893 92.8912 81.0925 103.198 91.3766C105.408 90.2177 106.913 87.8998 106.913 85.2312V58.0393L68.4035 19.5298Z" fill="url(#paint33_linear_43_6341)"/>
<path d="M52.9201 0.383544C51.2997 1.89327 46.1294 6.2742 39.1258 7.86119C38.9514 7.90016 38.7955 7.99723 38.6836 8.13648C38.5716 8.27573 38.5103 8.44888 38.5098 8.62754V20.2585C38.5098 31.002 50.8507 37.6778 53.1038 38.8075C53.3252 38.9182 53.5841 38.9182 53.8054 38.8075C56.0585 37.6778 68.4016 31.002 68.4016 20.2585V8.62754C68.4016 8.26002 68.1447 7.94263 67.7856 7.86119C60.7798 6.2742 55.6096 1.89327 53.9892 0.383544C53.6906 0.101644 53.2228 0.101644 52.9201 0.383544Z" fill="url(#paint34_linear_43_6341)"/>
<path d="M52.9201 0.383544C51.2997 1.89327 46.1294 6.2742 39.1258 7.86119C38.9514 7.90016 38.7955 7.99723 38.6836 8.13648C38.5716 8.27573 38.5103 8.44888 38.5098 8.62754V20.2585C38.5098 31.002 50.8507 37.6778 53.1038 38.8075C53.3252 38.9182 53.5841 38.9182 53.8054 38.8075C56.0585 37.6778 68.4016 31.002 68.4016 20.2585V8.62754C68.4016 8.26002 68.1447 7.94263 67.7856 7.86119C60.7798 6.2742 55.6096 1.89327 53.9892 0.383544C53.6906 0.101644 53.2228 0.101644 52.9201 0.383544Z" fill="url(#paint35_radial_43_6341)"/>
<path d="M52.9201 0.383544C51.2997 1.89327 46.1294 6.2742 39.1258 7.86119C38.9514 7.90016 38.7955 7.99723 38.6836 8.13648C38.5716 8.27573 38.5103 8.44888 38.5098 8.62754V20.2585C38.5098 31.002 50.8507 37.6778 53.1038 38.8075C53.3252 38.9182 53.5841 38.9182 53.8054 38.8075C56.0585 37.6778 68.4016 31.002 68.4016 20.2585V8.62754C68.4016 8.26002 68.1447 7.94263 67.7856 7.86119C60.7798 6.2742 55.6096 1.89327 53.9892 0.383544C53.6906 0.101644 53.2228 0.101644 52.9201 0.383544Z" fill="url(#paint36_radial_43_6341)"/>
<path d="M52.9201 0.383544C51.2997 1.89327 46.1294 6.2742 39.1258 7.86119C38.9514 7.90016 38.7955 7.99723 38.6836 8.13648C38.5716 8.27573 38.5103 8.44888 38.5098 8.62754V20.2585C38.5098 31.002 50.8507 37.6778 53.1038 38.8075C53.3252 38.9182 53.5841 38.9182 53.8054 38.8075C56.0585 37.6778 68.4016 31.002 68.4016 20.2585V8.62754C68.4016 8.26002 68.1447 7.94263 67.7856 7.86119C60.7798 6.2742 55.6096 1.89327 53.9892 0.383544C53.6906 0.101644 53.2228 0.101644 52.9201 0.383544Z" fill="url(#paint37_radial_43_6341)"/>
<path d="M52.9201 0.383544C51.2997 1.89327 46.1294 6.2742 39.1258 7.86119C38.9514 7.90016 38.7955 7.99723 38.6836 8.13648C38.5716 8.27573 38.5103 8.44888 38.5098 8.62754V20.2585C38.5098 31.002 50.8507 37.6778 53.1038 38.8075C53.3252 38.9182 53.5841 38.9182 53.8054 38.8075C56.0585 37.6778 68.4016 31.002 68.4016 20.2585V8.62754C68.4016 8.26002 68.1447 7.94263 67.7856 7.86119C60.7798 6.2742 55.6096 1.89327 53.9892 0.383544C53.6906 0.101644 53.2228 0.101644 52.9201 0.383544Z" fill="url(#paint38_radial_43_6341)"/>
<path d="M51.5981 25.0384C51.3705 25.0384 51.1429 24.9507 50.9696 24.7774L46.9875 20.7953C46.643 20.4507 46.6096 19.8869 46.9416 19.5319C47.0231 19.4452 47.1213 19.3758 47.2302 19.3278C47.3391 19.2798 47.4565 19.2541 47.5755 19.2524C47.6945 19.2506 47.8127 19.2728 47.9229 19.3176C48.0332 19.3624 48.1334 19.4289 48.2174 19.5131L51.3622 22.6579C51.4916 22.7873 51.7046 22.7873 51.8341 22.6579L58.9985 15.4935C59.0827 15.4094 59.1829 15.3431 59.2931 15.2985C59.4034 15.2538 59.5215 15.2317 59.6404 15.2335C59.7594 15.2352 59.8767 15.2608 59.9856 15.3087C60.0945 15.3566 60.1927 15.4258 60.2744 15.5123C60.6085 15.8672 60.573 16.431 60.2284 16.7756L52.2267 24.7774C52.0533 24.9528 51.8257 25.0384 51.5981 25.0384Z" fill="#4C9060"/>
<path d="M51.4458 24.4327C51.2182 24.4327 50.9906 24.345 50.8173 24.1716L46.8352 20.1895C46.4906 19.845 46.4572 19.2812 46.7892 18.9262C46.8708 18.8395 46.9689 18.7701 47.0778 18.7221C47.1867 18.674 47.3042 18.6484 47.4232 18.6466C47.5422 18.6449 47.6603 18.6671 47.7706 18.7119C47.8809 18.7567 47.981 18.8232 48.0651 18.9074L51.2098 22.0522C51.3393 22.1816 51.5523 22.1816 51.6818 22.0522L58.8462 14.8877C58.9304 14.8037 59.0306 14.7374 59.1408 14.6928C59.2511 14.6481 59.3691 14.626 59.4881 14.6278C59.607 14.6295 59.7244 14.6551 59.8333 14.703C59.9422 14.7509 60.0403 14.8201 60.122 14.9065C60.4561 15.2615 60.4206 15.8253 60.0761 16.1699L52.0743 24.1716C51.901 24.345 51.6734 24.4327 51.4458 24.4327Z" fill="url(#paint39_linear_43_6341)"/>
<defs>
<linearGradient id="paint0_linear_43_6341" x1="-0.38756" y1="21.7639" x2="105.388" y2="88.7265" gradientUnits="userSpaceOnUse">
<stop stop-color="#7B7DA1"/>
<stop offset="0.31" stop-color="#6D6F93"/>
<stop offset="0.899" stop-color="#494C6D"/>
<stop offset="1" stop-color="#424566"/>
</linearGradient>
<linearGradient id="paint1_linear_43_6341" x1="0.311342" y1="24.6961" x2="102.835" y2="90.1124" gradientUnits="userSpaceOnUse">
<stop stop-color="#8587AE"/>
<stop offset="0.31" stop-color="#7779A0"/>
<stop offset="0.899" stop-color="#51557A"/>
<stop offset="1" stop-color="#4A4E73"/>
</linearGradient>
<linearGradient id="paint2_linear_43_6341" x1="0" y1="82.1094" x2="106.913" y2="82.1094" gradientUnits="userSpaceOnUse">
<stop stop-color="#32365C"/>
<stop offset="1" stop-color="#32365C" stop-opacity="0"/>
</linearGradient>
<linearGradient id="paint3_linear_43_6341" x1="99.0845" y1="19.5298" x2="106.911" y2="19.5298" gradientUnits="userSpaceOnUse">
<stop stop-color="#32365C"/>
<stop offset="1" stop-color="#32365C" stop-opacity="0"/>
</linearGradient>
<linearGradient id="paint4_linear_43_6341" x1="0" y1="19.5278" x2="106.913" y2="19.5278" gradientUnits="userSpaceOnUse">
<stop stop-color="#A1A4C7"/>
<stop offset="1" stop-color="#A1A4C7" stop-opacity="0"/>
</linearGradient>
<linearGradient id="paint5_linear_43_6341" x1="0" y1="19.5298" x2="7.82845" y2="19.5298" gradientUnits="userSpaceOnUse">
<stop stop-color="#A1A4C7"/>
<stop offset="1" stop-color="#A1A4C7" stop-opacity="0"/>
</linearGradient>
<linearGradient id="paint6_linear_43_6341" x1="4.45523" y1="35.8532" x2="26.9888" y2="58.3868" gradientUnits="userSpaceOnUse">
<stop stop-color="#7B7DA1"/>
<stop offset="0.496" stop-color="#616386"/>
<stop offset="1" stop-color="#424566"/>
</linearGradient>
<linearGradient id="paint7_linear_43_6341" x1="10.3184" y1="43.3658" x2="24.2156" y2="53.9575" gradientUnits="userSpaceOnUse">
<stop stop-color="#FFED81"/>
<stop offset="0.235" stop-color="#FFD968"/>
<stop offset="0.73" stop-color="#FFA629"/>
<stop offset="1" stop-color="#FF8804"/>
</linearGradient>
<linearGradient id="paint8_linear_43_6341" x1="10.3541" y1="43.6128" x2="24.2762" y2="53.7806" gradientUnits="userSpaceOnUse">
<stop stop-color="#EFA33D"/>
<stop offset="1" stop-color="#A05223"/>
</linearGradient>
<linearGradient id="paint9_linear_43_6341" x1="22.3599" y1="42.5808" x2="25.0473" y2="42.5808" gradientUnits="userSpaceOnUse">
<stop stop-color="#FF8804"/>
<stop offset="1" stop-color="#FF8804" stop-opacity="0"/>
</linearGradient>
<linearGradient id="paint10_linear_43_6341" x1="9.46777" y1="52.1904" x2="25.0391" y2="52.1904" gradientUnits="userSpaceOnUse">
<stop stop-color="#FF8804"/>
<stop offset="1" stop-color="#FF8804" stop-opacity="0"/>
</linearGradient>
<linearGradient id="paint11_linear_43_6341" x1="9.45947" y1="42.5808" x2="12.1469" y2="42.5808" gradientUnits="userSpaceOnUse">
<stop stop-color="#FFF0A9"/>
<stop offset="1" stop-color="#FFF0A9" stop-opacity="0"/>
</linearGradient>
<linearGradient id="paint12_linear_43_6341" x1="9.46777" y1="42.5808" x2="25.0391" y2="42.5808" gradientUnits="userSpaceOnUse">
<stop stop-color="#FFF0A9"/>
<stop offset="1" stop-color="#FFF0A9" stop-opacity="0"/>
</linearGradient>
<linearGradient id="paint13_linear_43_6341" x1="87.0259" y1="42.7168" x2="97.6146" y2="42.7168" gradientUnits="userSpaceOnUse">
<stop stop-color="#E9EDFF"/>
<stop offset="1" stop-color="#C4CBFF"/>
</linearGradient>
<linearGradient id="paint14_linear_43_6341" x1="9.46143" y1="80.3887" x2="53.4565" y2="80.3887" gradientUnits="userSpaceOnUse">
<stop stop-color="#C4CBFF"/>
<stop offset="0.525" stop-color="#E9EDFF"/>
<stop offset="1" stop-color="#C4CBFF"/>
</linearGradient>
<linearGradient id="paint15_linear_43_6341" x1="76.2026" y1="80.3887" x2="97.6166" y2="80.3887" gradientUnits="userSpaceOnUse">
<stop stop-color="#C4CBFF"/>
<stop offset="0.525" stop-color="#E9EDFF"/>
<stop offset="1" stop-color="#C4CBFF"/>
</linearGradient>
<linearGradient id="paint16_linear_43_6341" x1="9.46143" y1="30.0605" x2="20.9504" y2="30.0605" gradientUnits="userSpaceOnUse">
<stop stop-color="#E9EDFF"/>
<stop offset="1" stop-color="#C4CBFF"/>
</linearGradient>
<linearGradient id="paint17_linear_43_6341" x1="9.46143" y1="64.262" x2="13.3683" y2="64.262" gradientUnits="userSpaceOnUse">
<stop stop-color="#C4CBFF"/>
<stop offset="0.525" stop-color="#E9EDFF"/>
<stop offset="1" stop-color="#C4CBFF"/>
</linearGradient>
<linearGradient id="paint18_linear_43_6341" x1="14.5356" y1="64.262" x2="18.4426" y2="64.262" gradientUnits="userSpaceOnUse">
<stop stop-color="#C4CBFF"/>
<stop offset="0.525" stop-color="#E9EDFF"/>
<stop offset="1" stop-color="#C4CBFF"/>
</linearGradient>
<linearGradient id="paint19_linear_43_6341" x1="19.6099" y1="64.262" x2="23.5168" y2="64.262" gradientUnits="userSpaceOnUse">
<stop stop-color="#C4CBFF"/>
<stop offset="0.525" stop-color="#E9EDFF"/>
<stop offset="1" stop-color="#C4CBFF"/>
</linearGradient>
<linearGradient id="paint20_linear_43_6341" x1="24.6816" y1="64.262" x2="28.5886" y2="64.262" gradientUnits="userSpaceOnUse">
<stop stop-color="#C4CBFF"/>
<stop offset="0.525" stop-color="#E9EDFF"/>
<stop offset="1" stop-color="#C4CBFF"/>
</linearGradient>
<linearGradient id="paint21_linear_43_6341" x1="32.4727" y1="64.262" x2="36.3796" y2="64.262" gradientUnits="userSpaceOnUse">
<stop stop-color="#C4CBFF"/>
<stop offset="0.525" stop-color="#E9EDFF"/>
<stop offset="1" stop-color="#C4CBFF"/>
</linearGradient>
<linearGradient id="paint22_linear_43_6341" x1="37.5449" y1="64.262" x2="41.4518" y2="64.262" gradientUnits="userSpaceOnUse">
<stop stop-color="#C4CBFF"/>
<stop offset="0.525" stop-color="#E9EDFF"/>
<stop offset="1" stop-color="#C4CBFF"/>
</linearGradient>
<linearGradient id="paint23_linear_43_6341" x1="42.6167" y1="64.262" x2="46.5236" y2="64.262" gradientUnits="userSpaceOnUse">
<stop stop-color="#C4CBFF"/>
<stop offset="0.525" stop-color="#E9EDFF"/>
<stop offset="1" stop-color="#C4CBFF"/>
</linearGradient>
<linearGradient id="paint24_linear_43_6341" x1="47.6909" y1="64.262" x2="51.5978" y2="64.262" gradientUnits="userSpaceOnUse">
<stop stop-color="#C4CBFF"/>
<stop offset="0.525" stop-color="#E9EDFF"/>
<stop offset="1" stop-color="#C4CBFF"/>
</linearGradient>
<linearGradient id="paint25_linear_43_6341" x1="55.48" y1="64.262" x2="59.3869" y2="64.262" gradientUnits="userSpaceOnUse">
<stop stop-color="#C4CBFF"/>
<stop offset="0.525" stop-color="#E9EDFF"/>
<stop offset="1" stop-color="#C4CBFF"/>
</linearGradient>
<linearGradient id="paint26_linear_43_6341" x1="60.5542" y1="64.262" x2="64.4611" y2="64.262" gradientUnits="userSpaceOnUse">
<stop stop-color="#C4CBFF"/>
<stop offset="0.525" stop-color="#E9EDFF"/>
<stop offset="1" stop-color="#C4CBFF"/>
</linearGradient>
<linearGradient id="paint27_linear_43_6341" x1="65.626" y1="64.262" x2="69.5329" y2="64.262" gradientUnits="userSpaceOnUse">
<stop stop-color="#C4CBFF"/>
<stop offset="0.525" stop-color="#E9EDFF"/>
<stop offset="1" stop-color="#C4CBFF"/>
</linearGradient>
<linearGradient id="paint28_linear_43_6341" x1="70.7002" y1="64.262" x2="74.6071" y2="64.262" gradientUnits="userSpaceOnUse">
<stop stop-color="#C4CBFF"/>
<stop offset="0.525" stop-color="#E9EDFF"/>
<stop offset="1" stop-color="#C4CBFF"/>
</linearGradient>
<linearGradient id="paint29_linear_43_6341" x1="78.4893" y1="64.262" x2="82.3962" y2="64.262" gradientUnits="userSpaceOnUse">
<stop stop-color="#C4CBFF"/>
<stop offset="0.525" stop-color="#E9EDFF"/>
<stop offset="1" stop-color="#C4CBFF"/>
</linearGradient>
<linearGradient id="paint30_linear_43_6341" x1="83.563" y1="64.262" x2="87.4699" y2="64.262" gradientUnits="userSpaceOnUse">
<stop stop-color="#C4CBFF"/>
<stop offset="0.525" stop-color="#E9EDFF"/>
<stop offset="1" stop-color="#C4CBFF"/>
</linearGradient>
<linearGradient id="paint31_linear_43_6341" x1="88.6353" y1="64.262" x2="92.5422" y2="64.262" gradientUnits="userSpaceOnUse">
<stop stop-color="#C4CBFF"/>
<stop offset="0.525" stop-color="#E9EDFF"/>
<stop offset="1" stop-color="#C4CBFF"/>
</linearGradient>
<linearGradient id="paint32_linear_43_6341" x1="93.71" y1="64.262" x2="97.6169" y2="64.262" gradientUnits="userSpaceOnUse">
<stop stop-color="#C4CBFF"/>
<stop offset="0.525" stop-color="#E9EDFF"/>
<stop offset="1" stop-color="#C4CBFF"/>
</linearGradient>
<linearGradient id="paint33_linear_43_6341" x1="46.7171" y1="16.3784" x2="77.4765" y2="47.1378" gradientUnits="userSpaceOnUse">
<stop stop-color="#32365C"/>
<stop offset="0.428" stop-color="#3B3E62" stop-opacity="0.572"/>
<stop offset="1" stop-color="#424566" stop-opacity="0"/>
</linearGradient>
<linearGradient id="paint34_linear_43_6341" x1="41.4342" y1="5.48217" x2="66.1326" y2="30.1803" gradientUnits="userSpaceOnUse">
<stop stop-color="#CFE958"/>
<stop offset="0.585" stop-color="#80B35D"/>
<stop offset="1" stop-color="#4C9060"/>
</linearGradient>
<radialGradient id="paint35_radial_43_6341" cx="0" cy="0" r="1" gradientUnits="userSpaceOnUse" gradientTransform="translate(56.1778 19.5443) scale(18.378 20.2341)">
<stop offset="0.678" stop-color="#CFE958" stop-opacity="0"/>
<stop offset="0.781" stop-color="#D6EE61" stop-opacity="0.321"/>
<stop offset="0.952" stop-color="#E7FB7B" stop-opacity="0.852"/>
<stop offset="1" stop-color="#EDFF83"/>
</radialGradient>
<radialGradient id="paint36_radial_43_6341" cx="0" cy="0" r="1" gradientUnits="userSpaceOnUse" gradientTransform="translate(48.1963 18.512) scale(21.7265 21.4658)">
<stop offset="0.738" stop-color="#4C9060" stop-opacity="0"/>
<stop offset="0.837" stop-color="#448857" stop-opacity="0.377"/>
<stop offset="0.995" stop-color="#2E7340" stop-opacity="0.981"/>
<stop offset="1" stop-color="#2D723F"/>
</radialGradient>
<radialGradient id="paint37_radial_43_6341" cx="0" cy="0" r="1" gradientUnits="userSpaceOnUse" gradientTransform="translate(68.8952 -7.21933) scale(20.8119 20.5622)">
<stop offset="0.64" stop-color="#2D723F"/>
<stop offset="0.745" stop-color="#3C804F" stop-opacity="0.708"/>
<stop offset="0.877" stop-color="#488C5C" stop-opacity="0.342"/>
<stop offset="1" stop-color="#4C9060" stop-opacity="0"/>
</radialGradient>
<radialGradient id="paint38_radial_43_6341" cx="0" cy="0" r="1" gradientUnits="userSpaceOnUse" gradientTransform="translate(36.8451 -5.8447) scale(20.8119 20.5622)">
<stop offset="0.682" stop-color="#EDFF83"/>
<stop offset="0.722" stop-color="#E7FB7B" stop-opacity="0.852"/>
<stop offset="0.867" stop-color="#D6EE61" stop-opacity="0.321"/>
<stop offset="0.955" stop-color="#CFE958" stop-opacity="0"/>
</radialGradient>
<linearGradient id="paint39_linear_43_6341" x1="51.2171" y1="15.2866" x2="56.5413" y2="20.6107" gradientUnits="userSpaceOnUse">
<stop stop-color="white"/>
<stop offset="0.012" stop-color="#FEFEFF"/>
<stop offset="0.996" stop-color="#C4CBFF"/>
</linearGradient>
</defs>
</svg>
