<svg width="100" height="100" viewBox="0 0 100 100" fill="none" xmlns="http://www.w3.org/2000/svg">
<g clip-path="url(#clip0_657_2769)">
<mask id="mask0_657_2769" style="mask-type:alpha" maskUnits="userSpaceOnUse" x="0" y="0" width="100" height="100">
<path d="M50 100C77.6142 100 100 77.6142 100 50C100 22.3858 77.6142 0 50 0C22.3858 0 0 22.3858 0 50C0 77.6142 22.3858 100 50 100Z" fill="#D9D9D9"/>
</mask>
<g mask="url(#mask0_657_2769)">
<mask id="mask1_657_2769" style="mask-type:luminance" maskUnits="userSpaceOnUse" x="-50" y="0" width="200" height="100">
<path d="M150 0H-50V100H150V0Z" fill="white"/>
</mask>
<g mask="url(#mask1_657_2769)">
<path d="M-50 0H150V100H-50V0Z" fill="#FF0000"/>
<path d="M-50 0H150V66.6667H-50V0Z" fill="#0000FF"/>
<path d="M-50 0H150V33.3333H-50V0Z" fill="white"/>
<path d="M16.0947 20.0331C20.6339 18.0329 25.5398 17 30.5001 17C35.4605 17 40.3664 18.0329 44.9056 20.0331C46.4103 41.3115 41.6085 53.3716 30.5001 56.2132C19.3918 53.3716 14.59 41.3115 16.0947 20.0331Z" fill="#0000FF"/>
<path d="M30.4999 23.8569L30.9358 24.8456L32.01 24.7288L31.3718 25.6007L32.01 26.4726L30.9358 26.3557L30.4999 27.3444L30.0639 26.3557L28.9897 26.4726L29.628 25.6007L28.9897 24.7288L30.0639 24.8456" fill="#FFFF00"/>
<path d="M26.4313 18.4321L26.8672 19.4208L27.9414 19.304L27.3031 20.1759L27.9414 21.0478L26.8672 20.9309L26.4313 21.9196L25.9953 20.9309L24.9211 21.0478L25.5594 20.1759L24.9211 19.304L25.9953 19.4208" fill="#FFFF00"/>
<path d="M34.5687 18.4321L35.0047 19.4208L36.0789 19.304L35.4406 20.1759L36.0789 21.0478L35.0047 20.9309L34.5687 21.9196L34.1328 20.9309L33.0586 21.0478L33.6969 20.1759L33.0586 19.304L34.1328 19.4208" fill="#FFFF00"/>
<path d="M30.5 29.4756L33.9875 36.4506L36.3125 33.3506L42.125 41.1006C42.125 41.4606 42.0748 41.8189 41.9759 42.1651C41.179 44.9543 39.7191 47.5093 37.7208 49.612C35.7224 51.7146 33.245 53.3026 30.5 54.2404C27.755 53.3026 25.2776 51.7146 23.2792 49.612C21.2809 47.5093 19.821 44.9543 19.0241 42.1651C18.9252 41.8189 18.875 41.4606 18.875 41.1006L24.6875 33.3506L27.0125 36.4506L30.5 29.4756Z" fill="white"/>
<path d="M19.0241 42.1655C19.1859 42.7318 19.4747 43.2538 19.8685 43.6918C20.2623 44.1297 20.7507 44.4722 21.2967 44.6931C21.8427 44.914 22.4318 45.0075 23.0194 44.9666C23.6069 44.9256 24.1774 44.7513 24.6875 44.4568C25.2766 44.1167 25.9448 43.9376 26.625 43.9376C27.3052 43.9376 27.9734 44.1167 28.5625 44.4568C29.1516 44.7969 29.8198 44.9759 30.5 44.9759C31.1802 44.9759 31.8484 44.7969 32.4375 44.4568C33.0266 44.1167 33.6948 43.9376 34.375 43.9376C35.0552 43.9376 35.7234 44.1167 36.3125 44.4568C36.8226 44.7513 37.3931 44.9256 37.9806 44.9666C38.5682 45.0075 39.1573 44.914 39.7033 44.6931C40.2493 44.4722 40.7377 44.1297 41.1315 43.6918C41.5253 43.2538 41.8141 42.7318 41.9759 42.1655L42.125 42.2196V45.0563C41.4448 45.0563 40.7766 45.2353 40.1875 45.5754C39.5984 45.9155 38.9302 46.0946 38.25 46.0946C37.5698 46.0946 36.9016 45.9155 36.3125 45.5754C35.7234 45.2353 35.0552 45.0563 34.375 45.0563C33.6948 45.0563 33.0266 45.2353 32.4375 45.5754C31.8484 45.9155 31.1802 46.0946 30.5 46.0946C29.8198 46.0946 29.1516 45.9155 28.5625 45.5754C27.9734 45.2353 27.3052 45.0563 26.625 45.0563C25.9448 45.0563 25.2766 45.2353 24.6875 45.5754C24.0984 45.9155 23.4302 46.0946 22.75 46.0946C22.0698 46.0946 21.4016 45.9155 20.8125 45.5754C20.2234 45.2353 19.5552 45.0563 18.875 45.0563V42.2196" fill="#0000FF"/>
<path d="M19.0241 44.4023C19.1859 44.9687 19.4747 45.4906 19.8685 45.9286C20.2623 46.3666 20.7507 46.709 21.2967 46.9299C21.8427 47.1508 22.4318 47.2444 23.0194 47.2034C23.6069 47.1625 24.1774 46.9881 24.6875 46.6936C25.2766 46.3535 25.9448 46.1745 26.625 46.1745C27.3052 46.1745 27.9734 46.3535 28.5625 46.6936C29.1516 47.0337 29.8198 47.2128 30.5 47.2128C31.1802 47.2128 31.8484 47.0337 32.4375 46.6936C33.0266 46.3535 33.6948 46.1745 34.375 46.1745C35.0552 46.1745 35.7234 46.3535 36.3125 46.6936C36.8226 46.9881 37.3931 47.1625 37.9806 47.2034C38.5682 47.2444 39.1573 47.1508 39.7033 46.9299C40.2493 46.709 40.7377 46.3666 41.1315 45.9286C41.5253 45.4906 41.8141 44.9687 41.9759 44.4023L42.125 44.4564V47.2931C41.4448 47.2931 40.7766 47.4722 40.1875 47.8123C39.5984 48.1524 38.9302 48.3314 38.25 48.3314C37.5698 48.3314 36.9016 48.1524 36.3125 47.8123C35.7234 47.4722 35.0552 47.2931 34.375 47.2931C33.6948 47.2931 33.0266 47.4722 32.4375 47.8123C31.8484 48.1524 31.1802 48.3314 30.5 48.3314C29.8198 48.3314 29.1516 48.1524 28.5625 47.8123C27.9734 47.4722 27.3052 47.2931 26.625 47.2931C25.9448 47.2931 25.2766 47.4722 24.6875 47.8123C24.0984 48.1524 23.4302 48.3314 22.75 48.3314C22.0698 48.3314 21.4016 48.1524 20.8125 47.8123C20.2234 47.4722 19.5552 47.2931 18.875 47.2931V44.4564" fill="#0000FF"/>
<path d="M15 20.5377C15.362 20.3634 15.7269 20.1952 16.0946 20.0332L17.2457 38.4196C17.486 42.2589 18.8799 45.9363 21.2448 48.9703C23.6097 52.0044 26.8355 54.2539 30.5 55.4243C34.1645 54.2539 37.3903 52.0044 39.7552 48.9703C42.1201 45.9363 43.5139 42.2589 43.7543 38.4196L44.9054 20.0332C45.2731 20.1952 45.638 20.3634 46 20.5377L44.8761 38.4898C44.6177 42.6159 43.1013 46.5639 40.531 49.802C37.9607 53.0401 34.4599 55.4129 30.5 56.6008C26.5401 55.4129 23.0393 53.0401 20.469 49.802C17.8987 46.5639 16.3823 42.6159 16.1239 38.4898L15 20.5377Z" fill="#FF0000"/>
</g>
</g>
<path d="M99.5 50C99.5 77.3381 77.3381 99.5 50 99.5C22.6619 99.5 0.5 77.3381 0.5 50C0.5 22.6619 22.6619 0.5 50 0.5C77.3381 0.5 99.5 22.6619 99.5 50Z" stroke="black"/>
</g>
<defs>
<clipPath id="clip0_657_2769">
<rect width="100" height="100" fill="white"/>
</clipPath>
</defs>
</svg>
