<svg width="100" height="100" viewBox="0 0 100 100" fill="none" xmlns="http://www.w3.org/2000/svg">
<path d="M0 50.0004C0 56.1164 1.1002 61.9749 3.10995 67.3916L50 71.7394L96.89 67.3916C98.8998 61.9749 100 56.1164 100 50.0004C100 43.8844 98.8998 38.0256 96.89 32.6091L50 28.2611L3.10995 32.6091C1.1002 38.0256 0 43.8844 0 50.0004Z" fill="#FFDA44"/>
<path d="M96.8104 32.6087C89.7457 13.5689 71.4187 0 49.9204 0C28.4222 0 10.0949 13.5689 3.03027 32.6087H96.8104Z" fill="#D80027"/>
<path d="M3.03027 67.3917C10.0949 86.4317 28.4222 100.001 49.9204 100.001C71.4187 100.001 89.7457 86.4317 96.8104 67.3917H3.03027Z" fill="#D80027"/>
<circle cx="50" cy="50" r="49.5" stroke="black"/>
</svg>
