<svg width="100" height="100" viewBox="0 0 100 100" fill="none" xmlns="http://www.w3.org/2000/svg">
<g clip-path="url(#clip0_657_6134)">
<mask id="mask0_657_6134" style="mask-type:luminance" maskUnits="userSpaceOnUse" x="0" y="0" width="100" height="100">
<path d="M100 50C100 22.3858 77.6142 0 50 0C22.3858 0 0 22.3858 0 50C0 77.6142 22.3858 100 50 100C77.6142 100 100 77.6142 100 50Z" fill="white"/>
</mask>
<g mask="url(#mask0_657_6134)">
<path fill-rule="evenodd" clip-rule="evenodd" d="M0 66.6599H100V99.9999H0V66.6599Z" fill="#006600"/>
<path fill-rule="evenodd" clip-rule="evenodd" d="M0 0H100V33.3398H0V0Z" fill="#CC0000"/>
<path fill-rule="evenodd" clip-rule="evenodd" d="M0 33.3398H100V66.6603H0V33.3398Z" fill="white"/>
</g>
<path d="M48.1854 38.8185H51.8146L48.8783 40.9517L50 37.5L51.1217 40.9517L48.1854 38.8185Z" fill="#F8C300"/>
<path d="M42.8425 40.2501H46.4721L43.5359 42.3834L44.6575 38.9316L45.7788 42.3834L42.8425 40.2501Z" fill="#F8C300"/>
<path d="M38.9313 44.1613H42.5608L39.6244 46.2946L40.7459 42.8425L41.8675 46.2946L38.9313 44.1613Z" fill="#F8C300"/>
<path d="M37.5 49.5036H41.1294L38.1932 51.637L39.3147 48.1853L40.4363 51.637L37.5 49.5036Z" fill="#F8C300"/>
<path d="M57.1575 40.2501H53.5279L56.4641 42.3834L55.3425 38.9316L54.2212 42.3834L57.1575 40.2501Z" fill="#F8C300"/>
<path d="M61.0687 44.1613H57.4391L60.3754 46.2946L59.2541 42.8425L58.1325 46.2946L61.0687 44.1613Z" fill="#F8C300"/>
<path d="M62.5 49.5036H58.8704L61.8067 51.637L60.6854 48.1853L59.5638 51.637L62.5 49.5036Z" fill="#F8C300"/>
<path d="M47.8179 48.3526C47.9242 48.1697 48.0875 48.0264 48.2825 47.9443C48.4779 47.8622 48.6942 47.8459 48.8996 47.8976C49.1046 47.9497 49.2875 48.0672 49.42 48.2322C49.5525 48.3972 49.6279 48.6009 49.6342 48.8126V52.7101H50.3671V48.8126C50.3737 48.6009 50.4487 48.3972 50.5812 48.2322C50.7137 48.0672 50.8967 47.9497 51.1017 47.8976C51.3071 47.8459 51.5237 47.8622 51.7187 47.9443C51.9137 48.0264 52.0771 48.1697 52.1833 48.3526C52.2979 48.0068 52.3292 47.6393 52.2737 47.2793C52.2183 46.9193 52.0783 46.5776 51.8654 46.2826C51.6521 45.9872 51.3721 45.7468 51.0479 45.5809C50.7237 45.4155 50.3646 45.3289 50.0008 45.3289C49.6367 45.3289 49.2775 45.4155 48.9533 45.5809C48.6292 45.7468 48.3492 45.9872 48.1362 46.2826C47.9229 46.5776 47.7829 46.9193 47.7275 47.2793C47.6725 47.6393 47.7033 48.0068 47.8179 48.3526Z" fill="#F8C300"/>
<path d="M48.3387 47.3351C48.6587 47.2701 48.9908 47.3068 49.2887 47.4401C49.5867 47.5739 49.8354 47.7976 49.9992 48.0797C50.1633 47.7976 50.4117 47.5739 50.7096 47.4401C51.0075 47.3068 51.34 47.2701 51.6596 47.3351C51.6046 46.9343 51.4062 46.5664 51.1008 46.3001C50.7954 46.0339 50.4042 45.8872 49.9992 45.8872C49.5942 45.8872 49.2029 46.0339 48.8979 46.3001C48.5925 46.5664 48.3937 46.9343 48.3387 47.3351Z" fill="white"/>
<path d="M49.6342 51.1528C49.5842 51.7062 49.3804 52.2341 49.045 52.6766C48.7096 53.1191 48.2567 53.4587 47.7379 53.6562C47.2192 53.8541 46.655 53.9016 46.1104 53.7941C45.5654 53.687 45.0621 53.4282 44.6571 53.0487C44.4838 53.4828 44.2142 53.872 43.8683 54.187C43.5225 54.5016 43.1096 54.7332 42.6604 54.8645C42.2117 54.9957 41.7392 55.0228 41.2781 54.9441C40.8172 54.8653 40.3802 54.6828 40.0004 54.4103C40.2849 57.2499 44.5413 56.6699 44.8588 53.9091C46.1958 56.2566 49.1363 55.5841 49.9967 52.7087L49.6342 51.1528Z" fill="#F8C300"/>
<path d="M50.3659 51.1528C50.4159 51.7062 50.6196 52.2341 50.955 52.6766C51.2904 53.1191 51.7434 53.4587 52.2621 53.6562C52.7809 53.8541 53.345 53.9016 53.8896 53.7941C54.4346 53.687 54.9379 53.4282 55.3429 53.0487C55.5163 53.4828 55.7859 53.872 56.1317 54.187C56.4775 54.5016 56.8904 54.7332 57.3396 54.8645C57.7884 54.9957 58.2609 55.0228 58.7221 54.9441C59.1829 54.8653 59.6196 54.6828 59.9996 54.4103C59.715 57.2499 55.4588 56.6699 55.1413 53.9091C53.8042 56.2566 50.8638 55.5841 50.0034 52.7087L50.3659 51.1528Z" fill="#F8C300"/>
<path d="M46.7908 56.1958C46.1971 57.4778 45.01 57.6978 43.9717 56.6628C43.9717 56.6628 44.3892 56.3678 44.8358 56.2866C44.7521 55.9303 44.9242 55.437 45.1663 55.1699C45.42 55.3437 45.7746 55.6916 45.8646 56.0958C46.4904 56.0149 46.7908 56.1958 46.7908 56.1958Z" fill="#F8C300"/>
<path d="M51.4375 56.0504C50.6429 57.2188 49.4359 57.2429 48.58 56.0525C48.58 56.0525 49.04 55.8296 49.4938 55.8221C49.4692 55.4567 49.7192 54.9979 50.0017 54.7742C50.2238 54.9867 50.5167 55.3875 50.54 55.8013C51.1708 55.8229 51.4375 56.0504 51.4375 56.0504Z" fill="#F8C300"/>
<path d="M56.045 56.6633C55.0708 57.6867 53.8758 57.5142 53.2254 56.2004C53.2254 56.2004 53.715 56.055 54.1646 56.1217C54.1996 55.7571 54.5208 55.3454 54.8358 55.1704C55.0204 55.4162 55.2446 55.8596 55.2 56.2712C55.8187 56.3958 56.045 56.6633 56.045 56.6633Z" fill="#F8C300"/>
<path d="M57.7921 40.0551H57.9438L57.8213 40.1442L57.8679 40L57.915 40.1442L57.7921 40.0551Z" fill="#F8C300"/>
<path d="M57.5675 40.1149H57.7192L57.5963 40.2041L57.6433 40.0598L57.69 40.2041L57.5675 40.1149Z" fill="#F8C300"/>
<path d="M57.4054 40.2783H57.5571L57.4346 40.3674L57.4812 40.2231L57.5283 40.3674L57.4054 40.2783Z" fill="#F8C300"/>
<path d="M57.3446 40.5019H57.4963L57.3734 40.5911L57.4204 40.4468L57.4671 40.5911L57.3446 40.5019Z" fill="#F8C300"/>
<path d="M58.1675 40.1149H58.0158L58.1387 40.2041L58.0916 40.0598L58.045 40.2041L58.1675 40.1149Z" fill="#F8C300"/>
<path d="M58.3292 40.2783H58.1775L58.3004 40.3674L58.2533 40.2231L58.2067 40.3674L58.3292 40.2783Z" fill="#F8C300"/>
<path d="M58.3892 40.5019H58.2375L58.3604 40.5911L58.3133 40.4468L58.2667 40.5911L58.3892 40.5019Z" fill="#F8C300"/>
<path d="M40.625 60.7409C46.7425 58.9197 53.2575 58.9197 59.375 60.7409" stroke="#F8C300" stroke-width="0.5"/>
<path d="M99.5 50C99.5 77.3381 77.3381 99.5 50 99.5C22.6619 99.5 0.5 77.3381 0.5 50C0.5 22.6619 22.6619 0.5 50 0.5C77.3381 0.5 99.5 22.6619 99.5 50Z" stroke="black"/>
</g>
<defs>
<clipPath id="clip0_657_6134">
<rect width="100" height="100" fill="white"/>
</clipPath>
</defs>
</svg>
