<svg width="100" height="100" viewBox="0 0 100 100" fill="none" xmlns="http://www.w3.org/2000/svg">
<g clip-path="url(#clip0_657_2819)">
<mask id="mask0_657_2819" style="mask-type:luminance" maskUnits="userSpaceOnUse" x="0" y="0" width="100" height="100">
<path d="M100 0H0V100H100V0Z" fill="white"/>
</mask>
<g mask="url(#mask0_657_2819)">
<path d="M50 100C77.6142 100 100 77.6142 100 50C100 22.3858 77.6142 0 50 0C22.3858 0 0 22.3858 0 50C0 77.6142 22.3858 100 50 100Z" fill="url(#paint0_linear_657_2819)"/>
<path d="M47.9524 40.8564L52.0549 46.5098L58.6988 44.3555L54.5897 50.0037L58.6915 55.657L52.05 53.4946L47.9412 59.1431L47.9455 52.1583L41.3036 49.9958L47.9479 47.8416L47.9524 40.8564Z" fill="#F0F0F0"/>
<path d="M36.757 64.1302C28.9529 64.1302 22.6263 57.8035 22.6263 49.9999C22.6263 42.196 28.9529 35.8693 36.757 35.8693C39.19 35.8693 41.4794 36.4848 43.4782 37.5678C40.3428 34.5008 36.0543 32.6084 31.3218 32.6084C21.717 32.6084 13.9308 40.3948 13.9308 49.9996C13.9308 59.6045 21.7172 67.3908 31.3218 67.3908C36.0543 67.3908 40.3428 65.4981 43.4782 62.4314C41.4794 63.5148 39.19 64.1302 36.757 64.1302Z" fill="#F0F0F0"/>
</g>
<path d="M99.5 50C99.5 77.3381 77.3381 99.5 50 99.5C22.6619 99.5 0.5 77.3381 0.5 50C0.5 22.6619 22.6619 0.5 50 0.5C77.3381 0.5 99.5 22.6619 99.5 50Z" stroke="black"/>
</g>
<defs>
<linearGradient id="paint0_linear_657_2819" x1="0" y1="50" x2="100" y2="50" gradientUnits="userSpaceOnUse">
<stop offset="0.0211321" stop-color="#D80027"/>
<stop offset="1" stop-color="#FF4B6C"/>
</linearGradient>
<clipPath id="clip0_657_2819">
<rect width="100" height="100" fill="white"/>
</clipPath>
</defs>
</svg>
