<svg width="100" height="100" viewBox="0 0 100 100" fill="none" xmlns="http://www.w3.org/2000/svg">
<g clip-path="url(#clip0_657_6119)">
<path d="M50 100C77.6142 100 100 77.6142 100 50C100 22.3858 77.6142 0 50 0C22.3858 0 0 22.3858 0 50C0 77.6142 22.3858 100 50 100Z" fill="#F0F0F0"/>
<path d="M28.2604 67.3916L32.6082 96.8907C38.0245 98.9007 43.8833 100 49.9994 100C71.4973 100 89.8248 86.4316 96.8894 67.3916H28.2604Z" fill="#2F444A"/>
<path d="M28.2604 32.6088L32.6082 3.10958C38.0245 1.09961 43.8833 0 49.9994 0C71.4973 0 89.8248 13.5688 96.8894 32.6088H28.2604Z" fill="#01BB4D"/>
<path d="M0 50.0001C0 71.4986 13.5689 89.8259 32.6088 96.8901V3.11035C13.5689 10.175 0 28.502 0 50.0001Z" fill="#FF2E2E"/>
<path d="M99.5 50C99.5 77.3381 77.3381 99.5 50 99.5C22.6619 99.5 0.5 77.3381 0.5 50C0.5 22.6619 22.6619 0.5 50 0.5C77.3381 0.5 99.5 22.6619 99.5 50Z" stroke="black"/>
</g>
<defs>
<clipPath id="clip0_657_6119">
<rect width="100" height="100" fill="white"/>
</clipPath>
</defs>
</svg>
