<svg width="125" height="25" viewBox="0 0 125 25" fill="none" xmlns="http://www.w3.org/2000/svg">
<g clip-path="url(#clip0_221_14098)">
<path fill-rule="evenodd" clip-rule="evenodd" d="M54.867 6.30138C53.9587 5.81175 52.6096 5.57185 50.7409 5.57185C48.1849 5.57431 45.8119 6.09593 44.915 6.42441C44.7117 6.48838 44.4958 6.66062 44.4907 6.95342V7.01985L44.7448 8.26978L44.7498 8.29439C44.8286 8.54659 45.0446 8.66346 45.2389 8.66346H45.2427C45.3063 8.65854 45.3545 8.64624 45.4003 8.63516L45.8258 8.53674C46.9399 8.26609 48.6232 7.85027 50.5008 7.85027C51.6416 7.85027 52.4063 7.94869 52.9208 8.16029C53.7542 8.47154 53.7593 9.00178 53.7681 9.87894V11.1916C53.6729 11.1892 53.5115 11.1879 53.2638 11.1879C52.3428 11.1879 50.5325 11.231 48.754 11.5103C46.038 11.9212 43.7907 12.5597 43.8059 16.2406C43.8059 20.913 48.2141 20.9204 50.3305 20.9253C51.7661 20.9229 53.0936 20.7137 53.9612 20.539C55.9367 20.0875 56.4423 19.4712 56.4156 17.5409V9.76945C56.4156 8.58349 56.4207 7.10966 54.8657 6.30015L54.867 6.30138ZM53.7808 18.3C52.729 18.6358 51.578 18.8044 50.3585 18.8044C48.4097 18.7896 46.5093 18.5706 46.5055 16.1286C46.5182 14.1848 47.5726 13.9548 48.9065 13.662L48.9992 13.641C50.1857 13.3913 53.1685 13.3458 53.7821 13.3384L53.7808 18.3ZM78.4386 9.76822V17.536C78.464 19.4675 77.9597 20.0826 75.983 20.5341C75.1192 20.71 73.7916 20.9192 72.3536 20.9204C70.2371 20.9155 65.8303 20.9081 65.829 16.2369C65.8125 12.5584 68.0597 11.9187 70.7758 11.5078C72.5543 11.2273 74.3658 11.1842 75.2856 11.1842C75.5346 11.1842 75.6946 11.1867 75.7937 11.1879V9.87648C75.7836 8.99932 75.7772 8.47031 74.9451 8.15906C74.4319 7.945 73.6646 7.84904 72.5238 7.84904C70.6437 7.84904 68.9617 8.2624 67.8489 8.53551L67.4246 8.63393C67.3788 8.64624 67.3293 8.65854 67.2658 8.65854C67.0701 8.65854 66.8554 8.54536 66.7754 8.28946L66.7691 8.26732L66.515 7.01739V6.95219C66.5201 6.65939 66.736 6.48469 66.938 6.42318C67.8374 6.0947 70.2079 5.57185 72.7652 5.57062C74.6326 5.57062 75.983 5.81052 76.89 6.30138C78.4437 7.10966 78.4412 8.58349 78.4386 9.76822ZM75.809 13.3384C75.1916 13.3446 72.2138 13.3913 71.0248 13.641L70.9295 13.662C69.5956 13.9548 68.5412 14.1848 68.5285 16.1286C68.531 18.5706 70.4341 18.7909 72.3828 18.8044C73.6023 18.8044 74.7533 18.6358 75.8051 18.3V13.3384H75.809ZM118.337 5.57062C112.201 5.58046 111.68 9.54432 111.674 13.2597C111.68 16.9627 112.2 20.9118 118.337 20.9204C124.469 20.9106 124.991 16.9713 125 13.2584C124.994 9.37085 124.474 5.58046 118.337 5.57062ZM118.337 18.7527C114.615 18.7355 114.428 16.8581 114.403 13.2609C114.428 9.64643 114.615 7.758 118.336 7.742C122.058 7.758 122.246 9.64643 122.271 13.2597C122.246 16.8569 122.058 18.7343 118.337 18.7527ZM107.323 20.3742L107.164 20.4136C106.307 20.6276 105.132 20.9204 103.071 20.9204H103.066C97.3848 20.9106 96.272 18.0945 96.2656 13.2314C96.2707 7.65589 98.0695 5.57923 102.897 5.57185C104.602 5.57185 105.777 5.7896 106.619 5.99013L106.614 1.49727C106.608 1.30043 106.697 1.04208 107.17 0.953501L108.68 0.574585H108.762C109.109 0.583197 109.232 0.885837 109.232 1.14419V18.0232C109.255 19.091 109.127 20.0039 107.323 20.3766V20.3742ZM106.615 8.15045C106.112 8.02496 104.706 7.71248 103.122 7.71248C100.215 7.74077 98.9931 8.51706 98.9651 13.2609C98.9995 18.471 100.576 18.7539 103.148 18.7786C104.749 18.7786 106.124 18.4501 106.614 18.3197L106.615 8.15045ZM93.0618 20.5673H91.7152C91.3506 20.5673 91.08 20.2991 91.08 19.9436V9.92938C91.0546 8.23656 90.5376 7.76415 88.6828 7.73954C86.5842 7.73954 84.4589 8.25871 83.7589 8.44571V19.9448C83.7589 20.3053 83.5048 20.5686 83.1529 20.5686H81.7746C81.4125 20.5686 81.1394 20.3004 81.1394 19.9461V8.7139C81.1203 7.67557 81.2182 6.95711 82.7236 6.47731C84.1629 5.9889 86.9158 5.57431 88.7387 5.57308C92.2068 5.578 93.6868 6.80948 93.6931 9.68949V19.9473C93.6931 20.3016 93.42 20.5698 93.058 20.5698L93.0618 20.5673ZM62.5057 20.838C63.2832 20.822 63.8548 20.6731 64.081 20.4246C64.1597 20.3385 64.1953 20.2352 64.1864 20.1355C64.1813 20.0519 64.1813 20.0519 63.9704 19.0726L63.9641 19.048C63.9184 18.7933 63.7354 18.6764 63.5804 18.6764H63.5576C63.5576 18.6764 63.3632 18.6728 63.1701 18.6728C62.6162 18.6555 62.1576 18.5743 62.1487 17.7821V1.14173C62.1487 0.866154 61.9785 0.581966 61.6533 0.575815H61.5555L60.0437 0.957192C59.7871 0.981797 59.5178 1.16264 59.5305 1.49604V17.8337C59.5343 19.7677 60.5913 20.8343 62.5057 20.838ZM41.1661 20.5673H30.3401C29.978 20.5673 29.7049 20.2991 29.7049 19.9436V18.6445C29.6986 18.3246 29.8015 18.1856 30.0022 17.9408L38.6191 8.09263H30.1749C29.8129 8.09263 29.5398 7.82197 29.5398 7.46766V6.54743C29.5398 6.19066 29.8142 5.9237 30.1749 5.9237H41.1128C41.4723 5.9237 41.7442 6.19189 41.7454 6.54743V7.87364C41.7518 8.11354 41.6692 8.31653 41.4723 8.53059L32.8338 18.3996H41.1674C41.5282 18.3996 41.8 18.6678 41.8026 19.0234V19.9461C41.8 20.2991 41.5269 20.5673 41.1661 20.5673Z" fill="#1D1D1B"/>
<path fill-rule="evenodd" clip-rule="evenodd" d="M5.0154 24.6948C4.09692 24.6948 3.58624 24.4832 3.31311 24.3294C2.93581 24.1154 2.24092 23.5704 1.61717 21.9588C0.617397 19.374 0.0254073 16.2172 0 12.5092V12.4969C0.0254073 8.78158 0.617397 5.62599 1.61717 3.04001C2.23965 1.42962 2.93454 0.883392 3.31565 0.670559C3.58497 0.514318 4.09438 0.305176 5.01159 0.305176C5.36221 0.305176 5.7738 0.335932 6.25146 0.410977C9.02848 0.853866 12.104 1.92787 15.3854 3.76094L15.3955 3.76586C18.6502 5.64322 21.135 7.72357 22.9123 9.86789C24.0213 11.2064 24.1534 12.07 24.1534 12.4982C24.1534 12.9263 24.0213 13.7924 22.9123 15.1284C21.1338 17.2727 18.6502 19.3543 15.3955 21.2304L15.3828 21.2378C12.1053 23.0709 9.02848 24.1449 6.25146 24.5866C5.77253 24.6641 5.36221 24.6936 5.01413 24.6936" fill="#FF6900"/>
</g>
<defs>
<clipPath id="clip0_221_14098">
<rect width="125" height="25" fill="white"/>
</clipPath>
</defs>
</svg>
