<svg width="89" height="30" viewBox="0 0 89 30" fill="none" xmlns="http://www.w3.org/2000/svg">
<path d="M87.2636 9.71611C84.5146 6.17655 79.4235 5.53353 75.8839 8.28259C75.3471 8.70144 74.8634 9.17928 74.4504 9.71611C73.4357 11.1673 72.8989 12.9017 72.9284 14.6715C72.9048 16.4413 73.4357 18.1757 74.4504 19.6269C77.1995 23.1665 82.2906 23.8095 85.8301 21.0604C86.367 20.6416 86.8507 20.1638 87.2636 19.6269C88.2783 18.1757 88.8152 16.4413 88.7857 14.6715C88.8093 12.9017 88.2783 11.1673 87.2636 9.71611ZM84.727 16.5298C84.1429 18.2701 82.7625 19.6269 80.8511 19.6682C78.9398 19.7095 77.5593 18.2701 76.9812 16.5298C76.5683 15.3263 76.5683 14.0167 76.9812 12.8132C77.5652 11.0729 78.9457 9.71613 80.8511 9.67483C82.7566 9.63354 84.1429 11.0729 84.727 12.8132C85.1399 14.0167 85.1399 15.3204 84.727 16.5239V16.5298ZM26.3595 22.3524C26.3595 22.6061 26.153 22.8125 25.8993 22.8125H23.2388C22.9851 22.8125 22.7786 22.6061 22.7786 22.3524V0.460143C22.7786 0.206474 22.9851 0 23.2388 0H25.8993C26.153 0 26.3595 0.206474 26.3595 0.460143V22.3524ZM20.1062 22.3524C20.1062 22.6061 19.8998 22.8125 19.6461 22.8125H16.9855C16.7318 22.8125 16.5254 22.6061 16.5254 22.3524V0.460143C16.5254 0.212373 16.7259 0.00589928 16.9796 0H19.6402C19.8939 0 20.1003 0.206474 20.1003 0.460143V22.3524H20.1062ZM72.3208 7.49209V9.35036C72.3562 9.61583 72.1733 9.85771 71.9078 9.8931C71.837 9.9049 71.7721 9.89311 71.7013 9.87541C68.6927 9.25598 66.8403 10.5951 66.8403 13.3737V22.3524C66.8403 22.6061 66.6339 22.8125 66.3802 22.8125H63.7196C63.466 22.8125 63.2595 22.6061 63.2595 22.3524V13.179C63.23 11.4269 63.9379 9.73972 65.2239 8.54216C66.5277 7.26792 68.2798 6.56001 70.0967 6.57181C70.7221 6.57181 71.3415 6.6308 71.955 6.74289C72.2736 6.84908 72.3208 7.03195 72.3208 7.50979V7.48619V7.49209ZM60.9175 14.6715C60.9529 12.9017 60.416 11.1614 59.3954 9.71611C56.6464 6.17655 51.5553 5.53353 48.0157 8.28259C47.4789 8.70144 46.9952 9.17928 46.5822 9.71611C44.5234 12.6953 44.5234 16.6419 46.5822 19.6269C48.0983 21.6386 50.4757 22.8007 52.9888 22.7653C54.6111 22.7653 56.2039 22.2934 57.5549 21.3908V23.3494C57.5549 26.004 55.2306 26.4878 53.7439 26.5822C52.7234 26.6176 51.6969 26.5586 50.6822 26.417C50.2752 26.358 49.9861 26.417 49.9861 26.8594V29.2132C49.9979 29.4374 50.1867 29.6085 50.4049 29.5967C53.856 29.8917 56.1744 29.8327 57.9206 28.8357C59.1418 28.1101 60.0503 26.9538 60.4632 25.597C60.77 24.5469 60.9175 23.4555 60.9057 22.3642V14.6774H60.9116L60.9175 14.6715ZM52.9829 19.6623C51.0716 19.6623 49.6911 18.2642 49.1071 16.5239C48.6942 15.3204 48.6942 14.0108 49.1071 12.8074C49.6911 11.0671 51.0716 9.66893 52.9829 9.66893C57.2599 9.66893 57.4015 14.0344 57.4015 14.6656C57.4015 15.2968 57.2599 19.6623 52.9829 19.6623ZM14.0831 13.0669C14.0831 10.955 13.6111 9.35036 12.5965 8.24129C11.5818 7.13223 9.53473 6.5836 7.64106 6.5836C5.74149 6.5777 3.87142 7.07325 2.22552 8.02893C2.11934 8.09382 2.05445 8.20591 2.06035 8.32389L2.20192 10.6541C2.24322 10.8783 2.45559 11.0317 2.67976 10.9904C2.75645 10.9786 2.82134 10.9432 2.88034 10.896C5.20465 9.46835 7.98911 9.19699 9.40494 9.91671C10.2013 10.3769 10.6792 11.2322 10.6438 12.1525V12.4947H6.77387C5.11027 12.4947 0.00738907 13.1141 0.00738907 17.804V17.8512C-0.0752009 19.2966 0.538317 20.6947 1.65918 21.615C2.86263 22.4645 4.32566 22.8833 5.79458 22.7948H13.6288C13.8825 22.7948 14.089 22.5884 14.089 22.3347V13.0433V13.061L14.0831 13.0669ZM10.6438 19.9337H6.01876C5.42293 19.916 4.8507 19.7154 4.37876 19.3556C3.88322 19.0075 3.59416 18.4353 3.60595 17.8335C3.60595 16.9958 4.17227 15.3263 6.98623 15.3263H10.6438V19.9337ZM36.1582 6.5836C31.4211 6.5836 29.3445 9.76331 28.6838 12.4475C28.5009 13.1731 28.4124 13.9164 28.4124 14.6656C28.3888 16.4354 28.9198 18.1698 29.9344 19.621C31.4742 21.5973 33.8398 22.7594 36.3411 22.7594C38.9013 22.8538 40.6062 22.4173 41.9159 21.674C42.1755 21.5029 42.2993 21.1902 42.2226 20.8894V18.8246C42.2226 18.4058 41.969 18.2052 41.6032 18.4589C40.0753 19.4381 38.2583 19.8747 36.4531 19.6977C34.3235 19.6682 32.5478 18.0577 32.3177 15.9399H42.848C43.0839 15.9399 43.2786 15.7511 43.2786 15.5151C43.4615 12.6363 42.6297 6.5836 36.1582 6.5836ZM32.3767 13.0905C32.4652 11.1142 34.1406 9.58634 36.111 9.67483C36.1287 9.67483 36.1464 9.67483 36.1641 9.67483C37.9162 9.56865 39.4264 10.9019 39.5385 12.6599C39.5444 12.8015 39.5444 12.9489 39.5385 13.0905H32.3826H32.3767Z" fill="#FF5A00"/>
</svg>
