<svg width="151" height="51" viewBox="0 0 151 51" fill="none" xmlns="http://www.w3.org/2000/svg">
<path d="M147.923 16.47C143.262 10.47 134.633 9.38001 128.633 14.04C127.723 14.75 126.903 15.56 126.203 16.47C124.483 18.93 123.573 21.87 123.623 24.87C123.583 27.87 124.483 30.81 126.203 33.27C130.863 39.27 139.493 40.36 145.493 35.7C146.403 34.99 147.223 34.18 147.923 33.27C149.643 30.81 150.553 27.87 150.503 24.87C150.543 21.87 149.643 18.93 147.923 16.47ZM143.623 28.02C142.633 30.97 140.293 33.27 137.053 33.34C133.813 33.41 131.473 30.97 130.493 28.02C129.793 25.98 129.793 23.76 130.493 21.72C131.483 18.77 133.823 16.47 137.053 16.4C140.283 16.33 142.633 18.77 143.623 21.72C144.323 23.76 144.323 25.97 143.623 28.01V28.02ZM44.6825 37.89C44.6825 38.32 44.3325 38.67 43.9025 38.67H39.3925C38.9625 38.67 38.6125 38.32 38.6125 37.89V0.779999C38.6125 0.349999 38.9625 0 39.3925 0H43.9025C44.3325 0 44.6825 0.349999 44.6825 0.779999V37.89ZM34.0825 37.89C34.0825 38.32 33.7325 38.67 33.3025 38.67H28.7925C28.3625 38.67 28.0125 38.32 28.0125 37.89V0.779999C28.0125 0.359999 28.3525 0.01 28.7825 0H33.2925C33.7225 0 34.0725 0.349999 34.0725 0.779999V37.89H34.0825ZM122.593 12.7V15.85C122.653 16.3 122.343 16.71 121.893 16.77C121.773 16.79 121.663 16.77 121.543 16.74C116.443 15.69 113.303 17.96 113.303 22.67V37.89C113.303 38.32 112.953 38.67 112.523 38.67H108.013C107.583 38.67 107.233 38.32 107.233 37.89V22.34C107.183 19.37 108.383 16.51 110.563 14.48C112.773 12.32 115.743 11.12 118.823 11.14C119.883 11.14 120.933 11.24 121.973 11.43C122.513 11.61 122.593 11.92 122.593 12.73V12.69V12.7ZM103.263 24.87C103.323 21.87 102.413 18.92 100.683 16.47C96.0225 10.47 87.3925 9.38001 81.3925 14.04C80.4825 14.75 79.6625 15.56 78.9625 16.47C75.4725 21.52 75.4725 28.21 78.9625 33.27C81.5325 36.68 85.5625 38.65 89.8225 38.59C92.5725 38.59 95.2725 37.79 97.5625 36.26V39.58C97.5625 44.08 93.6225 44.9 91.1025 45.06C89.3725 45.12 87.6325 45.02 85.9125 44.78C85.2225 44.68 84.7325 44.78 84.7325 45.53V49.52C84.7525 49.9 85.0725 50.19 85.4425 50.17C91.2925 50.67 95.2225 50.57 98.1825 48.88C100.253 47.65 101.793 45.69 102.493 43.39C103.013 41.61 103.263 39.76 103.243 37.91V24.88H103.253L103.263 24.87ZM89.8125 33.33C86.5725 33.33 84.2325 30.96 83.2425 28.01C82.5425 25.97 82.5425 23.75 83.2425 21.71C84.2325 18.76 86.5725 16.39 89.8125 16.39C97.0625 16.39 97.3025 23.79 97.3025 24.86C97.3025 25.93 97.0625 33.33 89.8125 33.33ZM23.8725 22.15C23.8725 18.57 23.0725 15.85 21.3525 13.97C19.6325 12.09 16.1625 11.16 12.9525 11.16C9.73253 11.15 6.56254 11.99 3.77254 13.61C3.59254 13.72 3.48254 13.91 3.49254 14.11L3.73253 18.06C3.80253 18.44 4.16252 18.7 4.54252 18.63C4.67252 18.61 4.78252 18.55 4.88252 18.47C8.82252 16.05 13.5425 15.59 15.9425 16.81C17.2925 17.59 18.1025 19.04 18.0425 20.6V21.18H11.4825C8.66253 21.18 0.0125254 22.23 0.0125254 30.18V30.26C-0.127475 32.71 0.912513 35.08 2.81251 36.64C4.85251 38.08 7.33252 38.79 9.82252 38.64H23.1025C23.5325 38.64 23.8825 38.29 23.8825 37.86V22.11V22.14L23.8725 22.15ZM18.0425 33.79H10.2025C9.19253 33.76 8.22253 33.42 7.42253 32.81C6.58253 32.22 6.09253 31.25 6.11253 30.23C6.11253 28.81 7.07251 25.98 11.8425 25.98H18.0425V33.79ZM61.2925 11.16C53.2625 11.16 49.7425 16.55 48.6225 21.1C48.3125 22.33 48.1625 23.59 48.1625 24.86C48.1225 27.86 49.0225 30.8 50.7425 33.26C53.3525 36.61 57.3625 38.58 61.6025 38.58C65.9425 38.74 68.8325 38 71.0525 36.74C71.4925 36.45 71.7025 35.92 71.5725 35.41V31.91C71.5725 31.2 71.1425 30.86 70.5225 31.29C67.9325 32.95 64.8525 33.69 61.7925 33.39C58.1825 33.34 55.1725 30.61 54.7825 27.02H72.6325C73.0325 27.02 73.3625 26.7 73.3625 26.3C73.6725 21.42 72.2625 11.16 61.2925 11.16ZM54.8825 22.19C55.0325 18.84 57.8725 16.25 61.2125 16.4C61.2425 16.4 61.2725 16.4 61.3025 16.4C64.2725 16.22 66.8325 18.48 67.0225 21.46C67.0325 21.7 67.0325 21.95 67.0225 22.19H54.8925H54.8825Z" fill="#FF5A00"/>
</svg>
