<svg width="164" height="56" viewBox="0 0 164 56" fill="none" xmlns="http://www.w3.org/2000/svg">
<path d="M38.0861 29.7529C38.0162 22.6641 43.8782 19.2633 44.1345 19.1003C40.8346 14.2864 35.718 13.6187 33.8934 13.5488C29.5376 13.1062 25.3914 16.1188 23.1708 16.1188C20.9502 16.1188 17.5416 13.6109 13.9312 13.6885C9.17947 13.7584 4.79268 16.4526 2.33915 20.7075C-2.59119 29.256 1.0813 41.9584 5.89518 48.9075C8.25553 52.3083 11.0507 56.1361 14.7388 55.9963C18.2948 55.8566 19.6303 53.6981 23.9085 53.6981C28.1866 53.6981 29.3978 55.9963 33.1479 55.9265C36.968 55.8488 39.3827 52.4558 41.7198 49.0473C44.4062 45.0952 45.5243 41.2829 45.5864 41.0733C45.501 41.0423 38.1482 38.2238 38.0706 29.7607" fill="black"/>
<path d="M31.036 8.94449C32.9926 6.57637 34.3126 3.28431 33.9554 0C31.137 0.116465 27.7284 1.87897 25.7097 4.24708C23.9006 6.34345 22.309 9.68987 22.7438 12.9043C25.8728 13.145 29.0872 11.3048 31.036 8.93672M62.7843 36.7097L59.5388 46.5393H55.3694L65.9832 15.3035H70.8437L81.4963 46.5393H77.1872L73.8485 36.7097H62.7766H62.7843ZM73.0255 33.5574L69.9741 24.5663C69.2753 22.5243 68.8172 20.6764 68.3514 18.8673H68.266C67.8001 20.7152 67.2954 22.6175 66.6898 24.5197L63.6384 33.5496H73.0255V33.5574ZM84.6642 31.43C84.6642 28.5572 84.5788 26.2356 84.4779 24.1082H88.1426L88.329 27.9593H88.4144C90.0837 25.2263 92.7236 23.6035 96.3883 23.6035C101.816 23.6035 105.884 28.1922 105.884 35.0015C105.884 43.0687 100.977 47.044 95.6895 47.044C92.7236 47.044 90.1303 45.7474 88.787 43.5268H88.7016V55.709H84.672V31.43H84.6642ZM88.6861 37.4085C88.6861 38.0141 88.7715 38.5654 88.8724 39.0778C89.6178 41.904 92.0636 43.8529 94.9907 43.8529C99.2999 43.8529 101.808 40.3356 101.808 35.1879C101.808 30.6923 99.4475 26.849 95.1305 26.849C92.3509 26.849 89.7576 28.8444 88.9656 31.9036C88.8258 32.4083 88.6861 33.0216 88.6861 33.5729V37.4085ZM110.092 31.43C110.092 28.5572 110.007 26.2356 109.906 24.1082H113.571L113.757 27.9593H113.843C115.512 25.2263 118.152 23.6035 121.816 23.6035C127.244 23.6035 131.312 28.1922 131.312 35.0015C131.312 43.0687 126.405 47.044 121.118 47.044C118.152 47.044 115.558 45.7474 114.215 43.5268H114.13V55.709H110.1V31.43H110.092ZM114.122 37.4085C114.122 38.0141 114.207 38.5654 114.308 39.0778C115.054 41.904 117.499 43.8529 120.427 43.8529C124.736 43.8529 127.244 40.3356 127.244 35.1879C127.244 30.6923 124.883 26.849 120.566 26.849C117.787 26.849 115.193 28.8444 114.402 31.9036C114.262 32.4083 114.122 33.0216 114.122 33.5729V37.4085ZM135.528 13.6419H139.605V46.5393H135.528V13.6419ZM147.811 36.0653C147.897 41.5779 151.422 43.8529 155.498 43.8529C158.417 43.8529 160.18 43.3482 161.702 42.696L162.401 45.6154C160.972 46.2676 158.511 47.0052 154.947 47.0052C148.044 47.0052 143.914 42.4631 143.914 35.7003C143.914 28.9376 147.897 23.6035 154.434 23.6035C161.756 23.6035 163.705 30.0401 163.705 34.1708C163.705 35.0093 163.62 35.6537 163.565 36.0653H147.819H147.811ZM159.768 33.1459C159.815 30.5526 158.705 26.5229 154.116 26.5229C149.985 26.5229 148.184 30.3274 147.858 33.1459H159.768Z" fill="black"/>
</svg>
