<svg width="268" height="240" viewBox="0 0 268 240" fill="none" xmlns="http://www.w3.org/2000/svg">
<path opacity="0.83" d="M184.98 30H82.035C53.3231 30 39.0073 54.0696 39.0073 78.0986V103.183C39.0073 127.253 53.3633 151.282 82.035 151.282H184.98C213.692 151.282 228.007 127.212 228.007 103.183V78.0986C228.007 54.0696 213.611 30 184.98 30Z" fill="#009688"/>
<path opacity="0.33" d="M187.191 30.0406C195.073 30.4059 194.751 42.2986 186.87 42.2986C171.428 42.3392 145.973 42.3798 102.383 42.2986C73.6708 42.258 59.3148 66.3682 59.355 90.3972C59.355 97.0133 59.355 101.925 59.355 105.659C59.355 111.626 51.7548 114.101 48.3367 109.231C28.7531 81.6705 39.9725 30 82.035 30C82.035 30 186.468 30 187.191 30.0406Z" fill="white"/>
<path d="M228.007 103.183C228.007 127.253 213.692 151.282 184.98 151.282H82.035C53.4035 151.282 39.0073 127.253 39.0073 103.183V78.0986C39.0073 102.168 53.4035 126.197 82.035 126.197H184.98C213.692 126.197 228.007 102.168 228.007 78.1392V103.183Z" fill="#009688"/>
<path opacity="0.33" d="M56.339 134.193C57.6258 137.603 53.2024 140.282 50.8299 137.522C42.9482 128.389 39.0073 115.766 39.0073 103.183V78.0986C39.0073 91.2902 43.3503 104.441 51.9558 113.696C52.5188 114.264 52.8003 115.035 52.8003 115.847C53.0014 122.138 54.1675 128.43 56.339 134.234V134.193Z" fill="white"/>
<path d="M108.617 67.2204C108.617 59.3867 102.303 53.0547 94.5823 53.0547H81.3925C79.5829 53.0547 78.1353 54.5159 78.1353 56.3424V99.9356C78.1353 101.762 79.5829 103.223 81.3925 103.223H94.5823C102.343 103.223 108.617 96.8508 108.617 89.0576C108.617 84.6739 106.646 80.7773 103.55 78.1796C106.646 75.5819 108.617 71.6447 108.617 67.3016V67.2204ZM102.102 89.017C102.102 93.1977 98.7242 96.6073 94.5823 96.6073H84.6497V81.3862H94.5823C98.7242 81.3862 102.102 84.7957 102.102 88.9764V89.017ZM84.6497 74.8513V59.6302H94.5823C98.7242 59.6302 102.102 63.0397 102.102 67.2204C102.102 71.4012 98.7242 74.8107 94.5823 74.8107H84.6497V74.8513ZM145.532 53.0547C143.722 53.0547 142.275 54.5159 142.275 56.3424V87.7993C142.275 92.6701 138.374 96.6073 133.548 96.6073C128.723 96.6073 124.822 92.6701 124.822 87.7993V56.3424C124.822 54.5159 123.375 53.0547 121.565 53.0547C119.755 53.0547 118.308 54.5159 118.308 56.3424V87.7993C118.308 96.2825 125.144 103.183 133.548 103.183C141.953 103.183 148.789 96.2825 148.789 87.7993V56.3424C148.789 54.5159 147.341 53.0547 145.532 53.0547ZM187.514 53.3794C185.905 52.6082 183.935 53.2576 183.171 54.9218L173.882 74.283L164.593 54.9218C163.829 53.2982 161.858 52.6082 160.25 53.3794C158.641 54.1506 157.958 56.1395 158.722 57.7631L170.625 82.5633V99.895C170.625 101.722 172.072 103.183 173.882 103.183C175.691 103.183 177.139 101.722 177.139 99.895V82.5633L189.042 57.7631C189.846 56.1395 189.163 54.1506 187.514 53.3794Z" fill="#FCEE21"/>
<path d="M219.241 188.543C221.614 191.303 221.011 195.524 217.995 197.513L202.071 208.147C199.055 210.136 194.993 209.04 193.425 205.753L178.988 175.473C178.546 174.499 177.3 174.255 176.455 174.945L164.793 184.89C161.054 188.096 155.303 185.58 155.022 180.628L151.805 122.666C151.563 118.039 156.349 114.832 160.41 116.902L211.641 142.839C216.024 145.071 216.024 151.403 211.641 153.636L198.009 160.536C197.044 161.023 196.803 162.281 197.486 163.093L219.241 188.543Z" fill="#29ABE2"/>
<path opacity="0.21" d="M203.076 204.454C203.719 205.753 203.277 207.336 202.071 208.147C199.055 210.136 194.993 209.04 193.425 205.753L184.538 187.122C181.884 181.521 190.208 177.502 192.862 183.063L203.036 204.454H203.076ZM161.134 117.308C164.351 118.932 163.909 124.898 163.989 126.806L166.965 179.816C167.086 181.764 166.281 183.631 164.793 184.89C161.054 188.096 155.303 185.58 155.022 180.628L151.805 122.666C151.563 118.039 156.349 114.832 160.41 116.902L161.134 117.267V117.308Z" fill="#EEF7FF"/>
</svg>
