<svg width="268" height="240" viewBox="0 0 268 240" fill="none" xmlns="http://www.w3.org/2000/svg">
<g clip-path="url(#clip0_160_9104)">
<path opacity="0.26" d="M209.706 193.734H104.538C84.239 193.734 72.0956 171.195 83.298 154.257C84.239 152.823 86.1658 152.42 87.5997 153.361C89.0336 154.302 89.4369 156.229 88.4959 157.663C80.0269 170.478 89.2128 187.551 104.583 187.551H209.706C211.409 187.551 212.798 188.94 212.798 190.642C212.798 192.345 211.409 193.734 209.706 193.734Z" fill="#009688"/>
<path opacity="0.26" d="M213.963 148.476H212.35L222.028 69.8805C222.476 66.2061 219.609 62.935 215.889 62.935H89.5265L86.5243 40.4406C86.121 37.3488 83.4772 35.0635 80.3854 35.0635H50.1837C46.7782 35.0635 44 37.8417 44 41.2472V47.4309C44 50.8364 46.7782 53.6146 50.1837 53.6146H69.5414L82.5362 150.941C83.7909 160.172 91.6326 167.072 100.953 167.072H213.918C219.026 167.072 223.193 162.905 223.193 157.797C223.193 152.689 219.026 148.521 213.918 148.521L213.963 148.476Z" fill="#009688"/>
<path d="M101.401 165.146C102.387 165.594 102.073 167.073 100.998 167.073C91.6774 167.073 83.8358 160.172 82.5811 150.941L69.5415 53.6147H74.5602C76.1285 53.6147 77.428 54.7798 77.652 56.3033L90.2883 150.941C91.1845 157.573 95.5759 162.547 101.401 165.146ZM220.057 150.762C222.252 152.689 220.819 156.273 217.906 156.229H112.962C110.139 156.229 108.167 155.288 106.778 153.988C104.627 151.972 106.106 148.477 109.019 148.477H213.918C216.158 148.477 218.309 149.283 220.012 150.762H220.057Z" fill="#EEF7FF"/>
<path d="M86.5243 40.3958L88.2718 53.6146H50.1837C46.7782 53.6146 44 50.8364 44 47.4309V41.2472C44 37.8417 46.7782 35.0635 50.1837 35.0635H80.3854C83.4772 35.0635 86.121 37.3488 86.5243 40.4406V40.3958Z" fill="#FF6D7A"/>
<path d="M84.463 42.7707H60.6243C57.2188 42.7707 54.4406 45.5489 54.4406 48.9544V49.3577C54.4406 51.6878 52.5138 53.6146 50.1837 53.6146C46.7782 53.6146 44 50.8364 44 47.4309V41.2472C44 37.8417 46.7782 35.0635 50.1837 35.0635H80.3854C83.4772 35.0635 86.121 37.3488 86.5243 40.4406C86.6587 41.6057 85.8521 42.6363 84.7319 42.7707C84.6423 42.7707 84.5527 42.7707 84.463 42.7707Z" fill="#FF8C95"/>
<path d="M205.046 42.3674H169.422C166.016 42.3674 163.238 45.1456 163.238 48.5512V36.1837C163.238 32.7782 160.46 30 157.055 30H112.155C108.75 30 105.972 32.7782 105.972 36.1837V76.0642H211.274V48.596C211.274 45.1904 208.496 42.4122 205.09 42.4122L205.046 42.3674Z" fill="#C79A83"/>
<path d="M157.054 37.7521H123.716C120.311 37.7521 117.532 40.5302 117.532 43.9358V76.0642H105.927V36.1837C105.927 32.7782 108.705 30 112.11 30H157.01C162.387 30 162.028 37.7521 157.01 37.7521H157.054Z" fill="#E0B7A3"/>
<path d="M211.229 48.5958V76.0641H163.238V48.5958C163.238 45.1903 166.016 42.4121 169.422 42.4121H205.046C208.451 42.4121 211.229 45.1903 211.229 48.5958Z" fill="#BEFA91"/>
<path d="M163.238 76.0641V48.5958C163.238 45.1903 166.016 42.4121 169.422 42.4121H203.881C209.258 42.4121 208.899 50.1642 203.881 50.1642H181.028C177.622 50.1642 174.844 52.9424 174.844 56.3479V76.1089H163.238V76.0641Z" fill="#DAFFBF"/>
<path opacity="0.83" d="M215.845 62.8901H89.5266L99.8776 140.366C100.505 144.981 104.448 148.432 109.108 148.432H212.305L221.984 69.8356C222.432 66.1612 219.564 62.8901 215.845 62.8901Z" fill="#009688"/>
<path opacity="0.33" d="M221.984 69.8357L221.536 73.5549C221.177 76.3779 218.757 78.3944 215.89 78.3944H96.4273C93.6939 78.3944 91.3638 76.3779 90.9605 73.6445L89.5266 62.9351H215.845C219.564 62.9351 222.432 66.2062 221.984 69.8805V69.8357Z" fill="white"/>
<g opacity="0.33">
<path d="M199.624 96.1839V114.78C199.624 119.485 195.815 123.294 191.11 123.294C186.405 123.294 182.596 119.485 182.596 114.78V96.1839C182.596 91.4789 186.405 87.6701 191.11 87.6701C195.815 87.6701 199.624 91.4789 199.624 96.1839ZM164.403 88.8351V122.129C164.403 126.834 160.594 130.642 155.889 130.642C151.184 130.642 147.376 126.834 147.376 122.129V88.8351C147.376 84.1301 151.184 80.3213 155.889 80.3213C160.594 80.3213 164.403 84.1301 164.403 88.8351ZM129.183 96.1839V114.78C129.183 119.485 125.374 123.294 120.669 123.294C115.964 123.294 112.155 119.485 112.155 114.78V96.1839C112.155 91.4789 115.964 87.6701 120.669 87.6701C125.374 87.6701 129.183 91.4789 129.183 96.1839Z" fill="white"/>
</g>
<path d="M125.285 210C138.648 210 149.482 199.166 149.482 185.803C149.482 172.439 138.648 161.605 125.285 161.605C111.921 161.605 101.087 172.439 101.087 185.803C101.087 199.166 111.921 210 125.285 210Z" fill="#42434D"/>
<path d="M110.094 197.454C111.035 200.277 107.226 202.203 105.524 199.784C102.745 195.885 101.132 191.091 101.087 185.937C100.998 172.943 111.394 161.964 124.613 161.606C127.615 161.516 128.332 165.728 125.464 166.669C112.559 170.971 105.837 184.817 110.139 197.409L110.094 197.454Z" fill="#585966"/>
<path d="M125.285 194.899C130.407 194.899 134.56 190.746 134.56 185.624C134.56 180.501 130.407 176.348 125.285 176.348C120.162 176.348 116.009 180.501 116.009 185.624C116.009 190.746 120.162 194.899 125.285 194.899Z" fill="#585966"/>
<path d="M126.539 181.501C124.164 183.204 122.641 186.071 122.596 189.029C122.551 191.852 118.877 192.883 117.398 190.508C113.768 184.638 117.712 176.975 124.523 176.393C127.794 176.124 128.824 179.888 126.584 181.501H126.539Z" fill="#6E6F80"/>
<path d="M198.055 210C211.419 210 222.252 199.166 222.252 185.803C222.252 172.439 211.419 161.605 198.055 161.605C184.692 161.605 173.858 172.439 173.858 185.803C173.858 199.166 184.692 210 198.055 210Z" fill="#42434D"/>
<path d="M182.91 197.454C183.851 200.277 180.042 202.203 178.339 199.784C175.561 195.885 173.948 191.091 173.903 185.937C173.813 172.943 184.209 161.964 197.428 161.606C200.43 161.516 201.147 165.728 198.279 166.669C185.374 170.971 178.653 184.817 182.954 197.409L182.91 197.454Z" fill="#585966"/>
<path d="M198.055 194.899C203.178 194.899 207.331 190.746 207.331 185.624C207.331 180.501 203.178 176.348 198.055 176.348C192.932 176.348 188.78 180.501 188.78 185.624C188.78 190.746 192.932 194.899 198.055 194.899Z" fill="#585966"/>
<path d="M199.31 181.501C196.935 183.204 195.411 186.071 195.367 189.029C195.322 191.852 191.647 192.883 190.169 190.508C186.539 184.638 190.482 176.975 197.293 176.393C200.565 176.124 201.595 179.888 199.355 181.501H199.31Z" fill="#6E6F80"/>
</g>
<defs>
<clipPath id="clip0_160_9104">
<rect width="179.238" height="180" fill="white" transform="translate(44 30)"/>
</clipPath>
</defs>
</svg>
