<svg width="100" height="100" viewBox="0 0 100 100" fill="none" xmlns="http://www.w3.org/2000/svg">
<g clip-path="url(#clip0_659_6583)">
<mask id="mask0_659_6583" style="mask-type:luminance" maskUnits="userSpaceOnUse" x="0" y="0" width="100" height="100">
<path d="M100 50C100 22.3858 77.6142 0 50 0C22.3858 0 0 22.3858 0 50C0 77.6142 22.3858 100 50 100C77.6142 100 100 77.6142 100 50Z" fill="white"/>
</mask>
<g mask="url(#mask0_659_6583)">
<path d="M0 0H100V50H0V0Z" fill="white"/>
<path d="M0 50H100V100H0V50Z" fill="#D7141A"/>
<path d="M58.5937 50L0 10.9375V89.0625L58.5937 50Z" fill="#11457E"/>
</g>
<path d="M99.5 50C99.5 77.3381 77.3381 99.5 50 99.5C22.6619 99.5 0.5 77.3381 0.5 50C0.5 22.6619 22.6619 0.5 50 0.5C77.3381 0.5 99.5 22.6619 99.5 50Z" stroke="black"/>
</g>
<defs>
<clipPath id="clip0_659_6583">
<rect width="100" height="100" fill="white"/>
</clipPath>
</defs>
</svg>
