<svg width="268" height="240" viewBox="0 0 268 240" fill="none" xmlns="http://www.w3.org/2000/svg">
<path d="M161.492 156.573L135.266 171.716L168.11 190.722L194.337 175.532L161.492 156.573Z" fill="#E0E0E0"/>
<path d="M61.2843 207.411C65.9244 210.126 65.9244 214.519 61.2843 217.225C56.6441 219.935 49.1093 219.935 44.474 217.225C39.8436 214.514 39.8339 210.121 44.474 207.411C49.1142 204.696 56.6393 204.7 61.2843 207.411Z" fill="#E0E0E0"/>
<path d="M141.772 36.8066V159.075L67.9028 201.719V79.4602L141.772 36.8066Z" fill="#009688"/>
<path opacity="0.25" d="M141.772 36.8066V159.075L67.9028 201.719V79.4602L141.772 36.8066Z" fill="black"/>
<path opacity="0.15" d="M141.772 36.8066L123.406 47.3185L123.401 148.461L141.772 159.075V36.8066Z" fill="black"/>
<path d="M123.4 148.461L144.259 160.501L67.9028 204.589V116.436L123.4 148.461Z" fill="#009688"/>
<path opacity="0.8" d="M123.4 148.461L144.259 160.501L67.9028 204.589V116.436L123.4 148.461Z" fill="white"/>
<path opacity="0.1" d="M73.2803 184.157L96.258 197.423L137.612 173.548L114.639 160.282L73.2803 184.157Z" fill="black"/>
<path d="M74.2744 181.995L96.5394 194.848L136.618 171.716L114.353 158.857L74.2744 181.995Z" fill="#009688"/>
<path opacity="0.1" d="M74.2744 181.995L96.5394 194.848L136.618 171.716L114.353 158.857L74.2744 181.995Z" fill="black"/>
<path d="M74.2744 181.994V183.158L96.5394 196.017V194.848L74.2744 181.994Z" fill="#009688"/>
<path opacity="0.35" d="M74.2744 181.994V183.158L96.5394 196.017V194.848L74.2744 181.994Z" fill="black"/>
<path d="M96.5388 194.849L136.618 171.716V172.879L96.5388 196.017V194.849Z" fill="#009688"/>
<path opacity="0.2" d="M96.5388 194.849L136.618 171.716V172.879L96.5388 196.017V194.849Z" fill="black"/>
<path d="M91.8646 184.564L89.9494 182.94C89.8912 182.892 89.8718 182.848 89.8864 182.809C89.9009 182.766 89.9349 182.727 89.9785 182.707L90.8949 182.179C90.9434 182.155 90.9919 182.145 91.0452 182.145C91.0985 182.145 91.1519 182.16 91.2004 182.184C91.2198 182.193 91.2343 182.203 91.2489 182.218L94.7593 185.287C94.7884 185.306 94.8078 185.331 94.8223 185.36C94.8369 185.389 94.8369 185.423 94.832 185.457C94.8223 185.495 94.8029 185.534 94.7738 185.568C94.7447 185.602 94.7108 185.626 94.6769 185.641L94.095 185.975C93.998 186.029 93.8914 186.058 93.7847 186.058C93.6829 186.058 93.5811 186.048 93.4841 186.024L91.3798 185.413L92.4368 186.625C92.4756 186.674 92.495 186.737 92.495 186.8C92.495 186.868 92.4416 186.926 92.3495 186.979L91.7677 187.314C91.6707 187.367 91.5592 187.401 91.4477 187.401C91.3458 187.411 91.2489 187.396 91.1567 187.357L85.8426 185.331L85.7796 185.301C85.7796 185.301 85.7456 185.282 85.7359 185.268C85.7263 185.253 85.7166 185.234 85.7166 185.214C85.7166 185.195 85.7214 185.175 85.7359 185.161C85.7505 185.146 85.765 185.132 85.7796 185.127L86.696 184.598C86.7493 184.569 86.8123 184.55 86.8705 184.545C86.9481 184.54 87.0257 184.555 87.0984 184.584L89.9058 185.689L89.0524 184.715C89.0282 184.681 89.0039 184.647 88.9942 184.608C88.9942 184.56 88.9942 184.511 89.0912 184.463L89.7458 184.084C89.8234 184.036 89.9106 184.017 89.9979 184.031C90.0609 184.036 90.124 184.046 90.187 184.065L91.8646 184.56V184.564Z" fill="#FAFAFA"/>
<path d="M99.0072 181.849C99.0654 181.815 99.1332 181.801 99.1963 181.806C99.2593 181.806 99.3223 181.82 99.3805 181.849L100.122 182.276C100.122 182.276 100.166 182.3 100.176 182.32C100.19 182.339 100.195 182.363 100.195 182.388C100.195 182.412 100.185 182.436 100.176 182.455C100.161 182.475 100.142 182.489 100.122 182.499L96.8156 184.414C96.7574 184.443 96.6895 184.458 96.6265 184.458C96.5586 184.458 96.4956 184.443 96.4374 184.409L91.9282 181.811C91.9282 181.811 91.8845 181.786 91.8748 181.767C91.8603 181.747 91.8554 181.723 91.8506 181.699C91.8506 181.675 91.8603 181.655 91.87 181.636C91.8845 181.617 91.8991 181.602 91.9233 181.592L95.1816 179.711C95.2398 179.677 95.3077 179.663 95.3707 179.667C95.4337 179.667 95.4968 179.682 95.5549 179.711L96.2968 180.138C96.2968 180.138 96.3404 180.157 96.355 180.177C96.3695 180.196 96.3792 180.22 96.3792 180.244C96.3792 180.269 96.3695 180.293 96.355 180.312C96.3404 180.332 96.321 180.346 96.2968 180.351L94.1488 181.592L94.9052 182.029L96.9029 180.875C96.9611 180.846 97.0241 180.831 97.0871 180.831C97.155 180.831 97.218 180.846 97.2762 180.875L98.0181 181.301C98.0181 181.301 98.0569 181.326 98.0714 181.345C98.0859 181.364 98.0956 181.389 98.0956 181.408C98.0956 181.452 98.0714 181.486 98.0181 181.52L96.0204 182.669L96.8059 183.12L99.012 181.844L99.0072 181.849Z" fill="#FAFAFA"/>
<path d="M103.439 179.303C103.497 179.274 103.565 179.26 103.628 179.26C103.691 179.26 103.759 179.274 103.817 179.303L104.559 179.73C104.559 179.73 104.598 179.754 104.612 179.774C104.627 179.793 104.636 179.813 104.636 179.837C104.636 179.861 104.627 179.885 104.612 179.905C104.598 179.924 104.578 179.939 104.559 179.948L101.325 181.815C101.267 181.844 101.199 181.859 101.136 181.859C101.073 181.859 101.005 181.844 100.947 181.815L96.4374 179.211C96.4374 179.211 96.3986 179.187 96.3841 179.168C96.3696 179.148 96.3599 179.124 96.3599 179.105C96.3599 179.061 96.3841 179.027 96.4374 178.993L97.3538 178.469C97.412 178.44 97.475 178.421 97.5381 178.426C97.606 178.426 97.669 178.44 97.7272 178.469L101.31 180.54L103.439 179.308V179.303Z" fill="#FAFAFA"/>
<path d="M103.351 177.136L103.594 177.286L103.918 177.475L104.253 177.669L104.52 177.81C104.641 177.868 104.762 177.912 104.888 177.95C105.024 177.989 105.165 178.009 105.3 178.009C105.451 178.009 105.596 177.994 105.742 177.96C105.902 177.916 106.057 177.853 106.202 177.771C106.328 177.703 106.445 177.616 106.537 177.509C106.59 177.446 106.634 177.373 106.653 177.291C106.663 177.228 106.653 177.16 106.624 177.102C106.6 177.049 106.566 176.995 106.522 176.952C106.483 176.913 106.454 176.869 106.445 176.816C106.445 176.782 106.479 176.743 106.556 176.695L107.473 176.171C107.521 176.147 107.574 176.132 107.628 176.132C107.681 176.132 107.734 176.147 107.778 176.171C107.982 176.287 108.151 176.452 108.263 176.656C108.36 176.83 108.389 177.039 108.345 177.238C108.292 177.466 108.18 177.674 108.025 177.849C107.822 178.081 107.579 178.275 107.308 178.426C106.978 178.615 106.624 178.76 106.256 178.857C105.902 178.949 105.538 178.998 105.174 179.007C104.825 179.017 104.481 178.983 104.141 178.906C103.826 178.838 103.526 178.731 103.24 178.586C103.041 178.484 102.832 178.367 102.609 178.241C102.386 178.115 102.187 177.994 101.989 177.873C101.766 177.742 101.577 177.562 101.426 177.354C101.305 177.179 101.242 176.971 101.252 176.758C101.276 176.525 101.368 176.307 101.518 176.127C101.727 175.88 101.984 175.676 102.27 175.521C102.575 175.342 102.905 175.201 103.244 175.104C103.589 175.007 103.943 174.944 104.297 174.92C104.631 174.896 104.971 174.915 105.305 174.968C105.601 175.017 105.887 175.114 106.149 175.255C106.168 175.259 106.183 175.274 106.192 175.288C106.202 175.303 106.212 175.322 106.212 175.342C106.212 175.361 106.207 175.381 106.192 175.395C106.183 175.41 106.163 175.424 106.149 175.434L105.232 175.958C105.169 175.996 105.102 176.021 105.029 176.025C104.951 176.016 104.869 176.001 104.796 175.977L104.534 175.919C104.428 175.904 104.316 175.904 104.209 175.919C104.078 175.929 103.948 175.948 103.821 175.987C103.666 176.03 103.516 176.093 103.375 176.176C103.249 176.244 103.138 176.336 103.046 176.442C102.988 176.515 102.958 176.607 102.958 176.699C102.963 176.787 103.002 176.874 103.065 176.937C103.148 177.015 103.24 177.082 103.337 177.136H103.351Z" fill="#FAFAFA"/>
<path d="M111.236 173.951L110.969 173.786L110.663 173.597L110.348 173.422L110.067 173.277C109.941 173.219 109.81 173.17 109.674 173.136C109.534 173.102 109.393 173.083 109.253 173.083C109.102 173.083 108.952 173.102 108.811 173.141C108.656 173.18 108.511 173.243 108.375 173.321C108.254 173.384 108.147 173.471 108.06 173.573C108.002 173.645 107.968 173.737 107.968 173.83C107.968 173.917 107.997 174.004 108.05 174.072C108.118 174.159 108.205 174.237 108.297 174.295C108.37 174.348 108.452 174.402 108.549 174.46L108.855 174.644L109.17 174.824L109.466 174.974C109.723 175.095 110.004 175.163 110.29 175.168C110.6 175.168 110.901 175.09 111.168 174.93C111.454 174.761 111.59 174.596 111.575 174.445C111.56 174.344 111.527 174.242 111.468 174.159C111.41 174.072 111.333 173.999 111.245 173.951H111.236ZM106.94 175.027C106.717 174.891 106.528 174.712 106.372 174.504C106.246 174.334 106.183 174.121 106.198 173.907C106.222 173.679 106.314 173.466 106.46 173.287C106.673 173.034 106.935 172.826 107.226 172.671C107.555 172.477 107.909 172.331 108.283 172.234C108.637 172.142 109 172.089 109.364 172.079C109.708 172.07 110.053 172.103 110.387 172.181C110.702 172.249 111.008 172.36 111.299 172.506C111.507 172.617 111.72 172.734 111.944 172.86C112.167 172.986 112.36 173.107 112.545 173.219C112.768 173.354 112.957 173.534 113.112 173.742C113.238 173.912 113.301 174.125 113.291 174.339C113.267 174.567 113.175 174.785 113.025 174.964C112.807 175.211 112.55 175.42 112.259 175.575C111.929 175.769 111.57 175.919 111.202 176.016C110.848 176.108 110.489 176.162 110.125 176.167C109.781 176.176 109.437 176.142 109.097 176.065C108.782 175.997 108.477 175.885 108.186 175.74C107.987 175.633 107.779 175.522 107.555 175.396C107.337 175.27 107.134 175.144 106.94 175.027Z" fill="#FAFAFA"/>
<path d="M115.992 171.914H115.783L113.97 171.628L116.283 172.962C116.283 172.962 116.322 172.986 116.336 173.005C116.351 173.025 116.36 173.044 116.36 173.068C116.36 173.093 116.351 173.117 116.336 173.136C116.322 173.156 116.302 173.17 116.283 173.18L115.366 173.703C115.308 173.733 115.24 173.747 115.177 173.747C115.114 173.747 115.051 173.733 114.993 173.703L110.479 171.1C110.479 171.1 110.44 171.075 110.426 171.056C110.411 171.037 110.401 171.017 110.401 170.993C110.401 170.949 110.426 170.915 110.479 170.882L111.289 170.397C111.376 170.343 111.473 170.319 111.575 170.324H111.778L114.843 170.785L114.043 169.015C114.028 168.976 114.023 168.937 114.018 168.898C114.018 168.84 114.057 168.787 114.149 168.734L114.964 168.249C115.022 168.22 115.085 168.205 115.148 168.205C115.216 168.205 115.279 168.22 115.337 168.249L119.851 170.852C119.9 170.882 119.929 170.915 119.924 170.959C119.919 171.003 119.924 171.037 119.851 171.066L118.935 171.594C118.877 171.623 118.809 171.638 118.746 171.638C118.683 171.638 118.62 171.623 118.562 171.594L116.249 170.261L116.734 171.303C116.739 171.342 116.739 171.386 116.734 171.425C116.734 171.473 116.7 171.512 116.627 171.555L116.186 171.812C116.128 171.861 116.065 171.895 115.992 171.909V171.914Z" fill="#FAFAFA"/>
<path d="M123.41 167.769C123.468 167.74 123.531 167.725 123.594 167.725C123.662 167.725 123.725 167.74 123.783 167.769L124.525 168.195C124.525 168.195 124.564 168.22 124.579 168.239C124.593 168.258 124.603 168.283 124.603 168.302C124.603 168.326 124.593 168.346 124.579 168.365C124.564 168.385 124.545 168.399 124.525 168.409L121.214 170.324C121.155 170.358 121.087 170.372 121.024 170.368C120.961 170.368 120.898 170.353 120.84 170.324L116.326 167.72C116.326 167.72 116.287 167.696 116.273 167.677C116.258 167.657 116.249 167.633 116.249 167.609C116.249 167.584 116.258 167.565 116.273 167.546C116.287 167.526 116.307 167.512 116.326 167.502L119.58 165.621C119.638 165.592 119.706 165.577 119.769 165.577C119.837 165.577 119.9 165.592 119.958 165.621L120.7 166.047C120.7 166.047 120.743 166.072 120.753 166.091C120.767 166.11 120.772 166.135 120.772 166.159C120.772 166.183 120.763 166.207 120.753 166.227C120.738 166.246 120.719 166.261 120.7 166.271L118.542 167.512L119.298 167.943L121.296 166.789C121.354 166.76 121.422 166.746 121.485 166.746C121.548 166.746 121.616 166.76 121.674 166.789L122.416 167.216C122.416 167.216 122.46 167.24 122.469 167.26C122.484 167.279 122.489 167.303 122.489 167.328C122.489 167.352 122.479 167.376 122.469 167.395C122.455 167.415 122.435 167.429 122.416 167.439L120.418 168.593L121.199 169.039L123.415 167.769H123.41Z" fill="#FAFAFA"/>
<path d="M112.394 111.413C111.419 111.655 109.092 112.121 109.092 112.121C109.092 112.121 110.343 110.53 109.834 110.171C109.324 109.818 108.961 110.918 107.492 111.519C106.023 112.125 105.446 112.887 104.539 112.896L93.3385 113.052C93.3385 113.052 85.5467 103.728 84.2618 102.782C83.7867 102.394 83.2291 102.113 82.6375 101.958C82.0412 101.803 81.4205 101.783 80.8145 101.89L82.3854 110.171L88.8341 116.596C90.3323 118.084 90.919 118.598 92.9215 118.497C95.1955 118.38 100.956 117.478 104.282 116.935C106.464 116.756 107.206 116.843 108.728 116.586C110.372 116.315 112.098 116.31 113.247 114.23C114.576 111.815 113.848 111.064 112.399 111.413H112.394Z" fill="#F28F8F"/>
<path d="M90.7444 66.5725V167.332L123.4 148.461V47.7258L90.7444 66.5725Z" fill="#455A64"/>
<path d="M92.0391 113.212C92.0585 112.809 92.1748 112.417 92.3785 112.067C92.5821 111.718 92.8633 111.423 93.1979 111.2C93.8428 110.831 94.3567 111.132 94.3567 111.874C94.3228 112.484 94.0755 113.061 93.6537 113.508V114.482C93.644 114.618 93.6052 114.754 93.5373 114.87C93.4694 114.986 93.3724 115.088 93.2609 115.166L93.1252 115.243C92.9118 115.369 92.7373 115.243 92.7373 115.015V114.041C92.33 114.075 92.0391 113.769 92.0391 113.217V113.212Z" fill="#263238"/>
<path d="M103.672 63.9297L95.3416 68.7444V106.986L103.672 102.176V63.9297Z" fill="#009688"/>
<path opacity="0.3" d="M103.672 63.9297L95.3416 68.7444V106.986L103.672 102.176V63.9297Z" fill="black"/>
<path d="M117.481 55.9443L109.146 60.7542V99.0003L117.481 94.1856V55.9443Z" fill="#009688"/>
<path opacity="0.3" d="M117.481 55.9443L109.146 60.7542V99.0003L117.481 94.1856V55.9443Z" fill="black"/>
<path d="M103.672 102.176L104.995 102.938L95.3416 108.513V106.986L103.672 102.176Z" fill="#263238"/>
<path d="M117.48 94.1855L118.804 94.9516L109.15 100.523L107.826 99.7615L117.48 94.1855Z" fill="#263238"/>
<path d="M117.48 94.1908V55.9301L118.809 55.1641L118.804 94.9472L117.48 94.1908Z" fill="#37474F"/>
<path d="M104.995 102.937L109.151 100.523V60.7542L104.995 63.1688V102.937Z" fill="#455A64"/>
<path d="M104.995 102.937L103.671 102.176V63.9299L104.995 63.1687V102.937Z" fill="#37474F"/>
<path opacity="0.1" d="M104.995 109.284L95.3416 114.856V157.664L104.995 152.088V109.284Z" fill="black"/>
<path d="M104.064 112.358L97.4751 116.164V153.882L104.064 150.081V112.358Z" fill="#455A64"/>
<path d="M95.3416 114.856L97.475 116.165V153.882L95.3416 157.664V114.856Z" fill="#37474F"/>
<path d="M104.995 109.284L104.064 112.358V150.081L104.995 152.088V109.284Z" fill="#37474F"/>
<path d="M104.995 152.088L104.064 150.081L97.475 153.882L95.3416 157.664L104.995 152.088Z" fill="#263238"/>
<path opacity="0.1" d="M118.809 101.289L109.15 106.865V149.673L118.809 144.097V101.289Z" fill="black"/>
<path d="M117.878 104.373L111.289 108.179V145.897L117.878 142.09V104.373Z" fill="#455A64"/>
<path d="M109.15 106.865L111.289 108.179V145.897L109.15 149.674V106.865Z" fill="#37474F"/>
<path d="M118.809 101.289L117.878 104.373V142.09L118.809 144.098V101.289Z" fill="#37474F"/>
<path d="M118.809 144.098L117.878 142.09L111.289 145.897L109.15 149.674L118.809 144.098Z" fill="#263238"/>
<path d="M89.3293 166.542L90.7452 167.332V66.5728L89.3293 67.3728V166.542Z" fill="#263238"/>
<path opacity="0.1" d="M123.4 47.3186V58.6887L67.9028 90.8303V79.4603L123.4 47.3186Z" fill="black"/>
<path opacity="0.1" d="M78.8945 188.729C81.5224 189.098 83.7674 190.484 86.3032 191.018C87.9711 191.362 89.7603 191.469 91.3022 190.736C91.787 190.499 92.5289 189.98 92.6937 189.452C92.9458 188.647 92.3155 187.992 91.8016 187.502C91.1664 186.911 90.4973 186.358 89.7991 185.844C88.3396 184.865 86.7541 184.084 85.0862 183.531C83.6268 182.988 82.1625 182.494 80.6691 182.072C79.2824 181.747 77.8666 181.543 76.4459 181.471C73.2313 181.107 69.973 181.335 66.8407 182.145C63.8103 182.988 60.9981 183.803 58.7678 186.184C57.9677 186.945 57.4392 187.944 57.2598 189.03C57.2307 189.636 57.3374 190.242 57.5604 190.804C57.7883 191.367 58.1326 191.876 58.5738 192.293C59.2526 193.025 60.072 193.612 60.9884 194.014C61.9048 194.417 62.8891 194.62 63.8879 194.62C64.591 194.611 65.2892 194.455 65.9341 194.169C66.5789 193.883 67.1608 193.471 67.6408 192.952C68.5863 191.881 69.3136 190.63 70.5645 189.849C72.9694 188.341 76.1647 188.37 78.8993 188.729H78.8945Z" fill="black"/>
<path d="M73.5904 99.2815C73.508 100.203 73.6438 101.173 72.0389 101.842C72.0389 101.842 72.8486 104.188 70.9722 104.969C70.9722 104.969 71.6122 107.17 70.0509 107.893C70.1964 108.353 70.1915 108.848 70.0412 109.304C69.8861 109.759 69.5952 110.157 69.1976 110.433C69.5079 110.86 69.6727 111.374 69.663 111.903C69.6582 112.431 69.4788 112.94 69.1588 113.357C69.3333 113.493 69.4788 113.663 69.5806 113.861C69.6824 114.06 69.7358 114.274 69.7455 114.497C69.8134 115.316 69.4546 116.295 68.6545 116.48C68.8 116.305 68.8776 116.087 68.8776 115.859C68.8776 115.631 68.8 115.413 68.6545 115.238C68.1406 114.647 67.9078 113.91 68.4606 113.367C68.4606 113.367 66.5502 112.785 67.6557 110.555C67.4327 110.346 67.263 110.084 67.166 109.798C67.0642 109.512 67.0351 109.202 67.0787 108.901C67.1224 108.601 67.2387 108.315 67.4181 108.062C67.5975 107.815 67.8303 107.612 68.1066 107.476C68.1066 107.476 67.0787 105.168 69.0085 104.324C69.0085 104.324 67.8836 102.981 69.3624 101.4C69.3624 101.4 67.9563 99.0197 70.914 96.9688L73.5904 99.2719V99.2815Z" fill="#263238"/>
<path d="M84.4704 180.346C84.5722 180.152 84.6255 179.939 84.6158 179.716C84.6158 179.478 84.6255 179.241 84.6449 179.003C84.7613 177.199 86.1916 160.089 86.5504 156.161C87.1517 149.562 87.1807 131.913 85.8522 126.23L68.0916 127.637C66.8213 130.837 65.8952 134.774 66.1085 140.946C66.2685 145.654 66.1958 158.43 66.1958 158.43C64.5909 160.011 63.34 161.912 62.5254 164.006C61.1775 167.284 60.1641 175.207 59.4174 178.402C59.2768 179.008 59.1168 179.861 59.1168 179.861C58.7337 180.395 58.5204 181.035 58.5059 181.694C58.5107 183.653 58.724 185.602 59.141 187.512C59.2429 187.978 59.4659 188.409 59.7859 188.763C60.1059 189.117 60.5132 189.379 60.969 189.525C61.1872 189.617 61.4199 189.656 61.6575 189.636C61.7787 189.636 61.8999 189.593 61.992 189.51C62.1569 189.345 61.992 188.948 61.992 188.749C61.9387 188.429 61.9096 188.099 61.8999 187.774C61.8999 187.134 61.8999 186.363 61.9387 185.723C62.0163 184.308 62.2393 182.906 62.5981 181.534L62.9375 180.72C62.9375 180.72 70.5353 165.296 72.6784 161.529C74.3949 158.581 76.1355 147.128 77.3428 140.869L79.4472 155.812C78.938 157.368 78.5599 158.964 78.3174 160.578C78.0071 163.352 79.5926 174.033 80.189 177.893C80.2763 178.46 80.3054 179.032 80.2811 179.604C80.252 179.779 80.252 179.953 80.2811 180.123C80.3539 180.303 80.4799 180.453 80.6351 180.56C80.9551 180.72 81.2945 180.841 81.6436 180.923C82.1188 181.049 82.6182 181.083 83.103 181.02C83.2873 180.991 83.4618 180.928 83.6509 180.894C83.8594 180.85 84.0582 180.753 84.2182 180.613C84.32 180.535 84.4073 180.438 84.4704 180.327V180.346Z" fill="#FFA8A7"/>
<path d="M64.4454 193.185H64.3096C63.1169 193.335 61.9095 193.224 60.7653 192.86C59.7471 192.531 58.8355 191.939 58.1179 191.144C57.8367 190.756 57.6233 190.324 57.4876 189.864C57.3421 189.384 57.2306 188.899 57.1579 188.404C56.8573 186.833 57.2791 186.387 56.8088 184.841C56.5954 184.302 56.416 183.75 56.2803 183.182C56.3579 182.891 56.4936 182.62 56.6827 182.387L58.6319 185.117L59.9216 186.93L60.6101 187.905C60.7604 188.118 60.8768 188.39 61.0465 188.598C61.3083 188.841 61.6041 189.04 61.9241 189.2C62.2393 189.398 62.569 189.587 62.8987 189.767C63.5484 190.116 64.2175 190.431 64.9012 190.703C65.1921 190.8 65.4685 190.935 65.7254 191.1C65.8515 191.187 65.963 191.299 66.0406 191.43C66.1182 191.561 66.1715 191.711 66.1861 191.861C66.1861 192.128 66.0794 192.385 65.8951 192.574C65.5024 192.943 64.9933 193.161 64.4551 193.195L64.4454 193.185Z" fill="#37474F"/>
<path d="M62.4628 181.767L62.7876 181.107C63.0543 181.33 62.681 182.693 62.6325 184.118C62.6131 184.754 62.6567 185.389 62.7537 186.019C62.841 186.596 63.0592 187.139 63.3986 187.614C63.8931 188.38 64.5089 189.054 65.2265 189.617C65.5611 189.825 65.8374 190.111 66.0411 190.451C66.1526 190.64 66.2156 190.848 66.2302 191.066C66.2447 191.285 66.2059 191.503 66.1138 191.702C65.9489 191.983 65.6968 192.201 65.3914 192.317C64.9792 192.477 64.5477 192.57 64.1065 192.589C62.6907 192.7 61.2749 192.419 60.0094 191.774C59.3257 191.42 58.7342 190.911 58.2832 190.286C57.9632 189.723 57.7596 189.103 57.6772 188.458C57.4444 187.343 57.522 186.203 57.3862 185.345C57.2505 184.487 56.5523 183.255 56.6735 182.421C56.7414 181.961 57.3523 181.18 57.9147 180.555C58.482 179.929 59.0008 179.323 59.1948 179.502L59.1172 179.89C59.3984 180.574 59.9172 181.136 60.5767 181.466C61.1488 181.781 61.8131 181.883 62.4579 181.757L62.4628 181.767Z" fill="#455A64"/>
<path d="M63.5005 187.881C63.5344 187.881 63.5684 187.861 63.5975 187.837C63.6266 187.813 63.646 187.784 63.6508 187.75C63.6557 187.725 63.6557 187.706 63.6508 187.682C63.6508 187.657 63.6411 187.638 63.6266 187.619C63.6169 187.599 63.5975 187.58 63.5829 187.565C63.5635 187.551 63.5441 187.541 63.5199 187.536C62.5211 187.279 60.6931 187.342 59.8398 187.808C59.8204 187.818 59.801 187.832 59.7864 187.851C59.7719 187.871 59.7622 187.89 59.7573 187.914C59.7525 187.939 59.7476 187.958 59.7525 187.982C59.7525 188.007 59.7622 188.026 59.7719 188.045C59.7816 188.065 59.7961 188.084 59.8155 188.099C59.8349 188.113 59.8543 188.123 59.8786 188.133C59.9028 188.138 59.9222 188.142 59.9464 188.138C59.9707 188.133 59.9901 188.128 60.0095 188.113C60.7804 187.691 62.5114 187.628 63.4181 187.876H63.4957L63.5005 187.881Z" fill="#E0E0E0"/>
<path d="M63.0159 186.518C63.0499 186.518 63.0838 186.504 63.1129 186.48C63.142 186.455 63.1614 186.426 63.1711 186.392C63.1808 186.373 63.1808 186.349 63.1808 186.324C63.1808 186.3 63.1711 186.281 63.1614 186.256C63.1517 186.237 63.1371 186.218 63.1178 186.203C63.0984 186.189 63.079 186.179 63.0596 186.169C61.9395 185.839 60.7419 185.888 59.651 186.3C59.6267 186.31 59.6025 186.319 59.5831 186.339C59.5637 186.353 59.5491 186.378 59.5395 186.402C59.5298 186.426 59.5249 186.45 59.5249 186.475C59.5249 186.499 59.5298 186.523 59.5443 186.547C59.554 186.572 59.5734 186.591 59.5928 186.606C59.6122 186.62 59.6364 186.635 59.6607 186.64C59.6849 186.644 59.7092 186.649 59.7334 186.64C59.7576 186.64 59.7819 186.625 59.8013 186.61C60.8195 186.237 61.925 186.198 62.9674 186.499C62.982 186.504 63.0014 186.509 63.0159 186.509V186.518Z" fill="#E0E0E0"/>
<path d="M62.7347 185.117C62.7637 185.117 62.7977 185.107 62.8219 185.093C62.8462 185.078 62.8704 185.054 62.885 185.025C62.8947 185.006 62.9044 184.981 62.9044 184.962C62.9044 184.943 62.9044 184.914 62.8995 184.894C62.8947 184.875 62.8801 184.851 62.8704 184.831C62.8559 184.812 62.8365 184.797 62.8171 184.787C61.7504 184.371 60.5673 184.38 59.5103 184.821C59.4909 184.831 59.4715 184.846 59.457 184.86C59.4424 184.88 59.4279 184.899 59.423 184.918C59.4133 184.938 59.4133 184.962 59.4133 184.986C59.4133 185.011 59.4182 185.03 59.4279 185.054C59.4473 185.093 59.4861 185.127 59.5297 185.141C59.5733 185.156 59.6218 185.151 59.6606 185.132C60.6158 184.739 61.6825 184.724 62.6474 185.093C62.6765 185.107 62.7056 185.117 62.7347 185.117Z" fill="#E0E0E0"/>
<path d="M92.5346 188.084C92.5637 188.375 92.5152 188.666 92.3988 188.933C92.2824 189.199 92.0982 189.432 91.8655 189.607C90.5515 190.358 89.0145 190.615 87.5259 190.334C85.0095 189.699 84.5149 189.025 83.6276 188.113C82.527 186.954 82.653 186.348 81.4118 185.301C80.9415 184.962 80.4905 184.593 80.0736 184.191C79.9717 183.808 79.9329 183.41 79.9572 183.012L92.5346 188.089V188.084Z" fill="#37474F"/>
<path d="M84.568 179.546L84.6455 179.003C84.9849 179.047 85.2565 180.206 85.9789 181.437C86.6092 182.441 87.4141 183.323 88.3499 184.041C89.8094 185.137 91.613 186.218 92.4373 187.45C93.2616 188.681 90.7015 189.835 88.7669 189.791C87.9038 189.777 87.0456 189.588 86.2553 189.239C85.465 188.89 84.7474 188.39 84.151 187.765C83.351 186.95 82.8031 185.946 82.2018 185.302C81.6006 184.652 80.3739 183.992 80.0248 183.212C79.826 182.475 79.8017 181.699 79.9521 180.952C80.0781 180.186 80.0345 179.134 80.2915 179.178V179.59C81.0381 180.075 81.9206 180.317 82.8079 180.293C83.4673 180.259 84.0879 179.992 84.568 179.537V179.546Z" fill="#455A64"/>
<path d="M89.6439 184.88C89.673 184.86 89.6972 184.836 89.7166 184.802C89.736 184.768 89.736 184.734 89.7311 184.7C89.7311 184.676 89.7214 184.657 89.7069 184.637C89.6924 184.618 89.6778 184.603 89.6584 184.589C89.639 184.574 89.6196 184.564 89.5954 184.56C89.5711 184.555 89.5517 184.555 89.5275 184.56C88.5044 184.715 86.8559 185.5 86.2547 186.276C86.2401 186.295 86.2304 186.315 86.2256 186.339C86.2207 186.363 86.2159 186.383 86.2256 186.407C86.2256 186.431 86.2353 186.451 86.2498 186.47C86.2595 186.489 86.2789 186.509 86.2983 186.518C86.3322 186.547 86.3807 186.557 86.4244 186.552C86.468 186.547 86.5116 186.523 86.5407 186.489C87.0838 185.791 88.6499 185.054 89.5905 184.909L89.6487 184.884L89.6439 184.88Z" fill="#E0E0E0"/>
<path d="M88.263 183.924C88.2921 183.91 88.3212 183.881 88.3357 183.852C88.3503 183.823 88.3551 183.784 88.3503 183.75C88.3454 183.706 88.3163 183.663 88.2824 183.634C88.2436 183.604 88.2 183.595 88.1515 183.6C86.9975 183.813 85.9453 184.395 85.155 185.258C85.1259 185.297 85.1162 185.34 85.1211 185.389C85.1259 185.437 85.1502 185.476 85.1889 185.505C85.2277 185.534 85.2714 185.544 85.3199 185.539C85.3683 185.534 85.4071 185.51 85.4362 185.471C86.1732 184.681 87.143 184.147 88.2097 183.949C88.229 183.949 88.2484 183.934 88.2678 183.924H88.263Z" fill="#E0E0E0"/>
<path d="M87.0939 182.93C87.123 182.916 87.1424 182.891 87.1569 182.862C87.1715 182.833 87.1812 182.804 87.1812 182.775C87.1812 182.727 87.1618 182.683 87.1279 182.649C87.0939 182.615 87.0503 182.596 87.0018 182.596C85.8672 182.741 84.8344 183.318 84.1168 184.215C84.0926 184.254 84.0781 184.302 84.0878 184.346C84.0975 184.39 84.1217 184.433 84.1605 184.458C84.1993 184.487 84.2429 184.496 84.2914 184.487C84.3399 184.477 84.3787 184.453 84.4029 184.419C85.0526 183.619 85.9836 183.095 87.0018 182.959C87.0309 182.959 87.06 182.95 87.0842 182.93H87.0939Z" fill="#E0E0E0"/>
<path d="M70.0316 122.284C68.6498 124.97 67.5637 127.792 66.7879 130.711C65.8133 134.861 65.8472 137.586 65.886 144.835C65.9248 152.084 66.0266 158.363 66.0266 158.363C66.0266 158.363 62.4387 160.734 61.2507 168.957C61.2507 168.957 64.0823 171.881 67.8352 170.906C67.8352 170.906 71.8693 163.74 73.1929 161.495C74.5166 159.25 77.3531 140.893 77.3531 140.893L79.0598 155.861C79.0598 155.861 77.7749 159.439 77.9398 161.97C78.1046 164.496 78.7931 168.453 78.7931 168.453C81.0671 169.146 83.5206 168.972 85.6734 167.968C85.6734 167.968 86.8904 156.22 87.0504 151.958C87.2104 147.696 87.734 132.636 85.6394 123.22L70.0316 122.289V122.284Z" fill="#455A64"/>
<path d="M77.3525 140.917L79.0399 134.303C79.0399 134.303 82.2788 134.677 84.8243 132.795C84.8243 132.795 84.3055 135.229 79.7866 135.932L77.8374 142.405L77.8665 145.499L77.3525 140.922V140.917Z" fill="#263238"/>
<path d="M85.5527 120.465C85.3636 118.647 85.3442 116.814 85.4945 114.991C86.5224 114.031 87.1818 112.742 87.3467 111.345C87.5115 109.949 87.177 108.538 86.3964 107.364C83.9381 103.379 80.8204 101.895 80.8204 101.895L76.7136 101.769C76.1269 101.837 71.0843 102.564 70.4395 102.744C70.4395 102.744 68.6988 104.203 68.2285 105.905C67.9618 106.88 67.8842 107.854 68.7521 110.967L70.8904 116.417C70.8904 116.417 71.5159 118.051 71.1959 119.195C70.8807 120.339 69.14 123.186 68.2236 125.944C68.2236 125.944 72.122 129.435 79.2737 128.631C85.3878 127.932 86.28 125.877 86.28 125.877C86.28 125.877 85.6206 121.585 85.5478 120.47L85.5527 120.465Z" fill="#FAFAFA"/>
<path opacity="0.1" d="M74.0412 113.896C74.4582 114.628 75.0788 115.229 75.8304 115.617C76.5819 116.005 77.4256 116.17 78.2644 116.092C79.079 116.044 79.8596 115.782 80.5384 115.331C81.2172 114.88 81.7651 114.259 82.1239 113.532C82.1239 113.532 82.0948 116.756 78.2838 116.868C74.4728 116.979 74.0364 113.896 74.0364 113.896H74.0412Z" fill="black"/>
<path d="M101.645 113.643C101.66 113.197 101.529 112.756 101.267 112.392C101.228 112.325 101.18 112.266 101.117 112.228C101.054 112.184 100.981 112.155 100.908 112.145C100.724 112.155 100.549 112.242 100.423 112.378C99.8996 112.863 99.4487 113.353 98.9008 113.837C98.382 114.293 97.7274 114.565 97.0389 114.613C97.0437 114.477 97.0971 114.346 97.1843 114.245C97.3977 113.949 97.5577 113.736 97.7904 113.411C97.9359 113.251 98.0474 113.062 98.1104 112.858C98.1735 112.654 98.1929 112.431 98.1638 112.218C98.1492 112.16 98.1201 112.106 98.0813 112.063C98.0425 112.019 97.9892 111.99 97.931 111.971C97.8341 111.961 97.7371 111.99 97.6595 112.043C96.908 112.417 96.2001 112.882 95.5552 113.42C94.8473 114.017 94.4303 114.996 93.2085 115.481C91.9866 115.961 90.6823 116.082 88.4277 116.378C86.6676 116.606 83.7778 116.984 81.8287 117.154C79.0359 114.322 75.6224 109.255 73.7605 106.734C72.7714 105.318 71.6659 103.985 70.4586 102.749C68.8246 103.233 67.884 104.067 67.5009 105.236C66.5264 107.932 67.8985 111.006 71.5496 115.064C72.7375 116.393 76.3352 120.349 78.1728 122.196C78.4443 122.473 78.7692 122.686 79.1328 122.822C79.4965 122.958 79.8795 123.016 80.2674 122.987C81.3681 122.866 82.459 122.686 83.5403 122.444C85.5524 121.959 88.1028 121.227 90.1102 120.737C91.7345 120.344 93.4169 119.864 94.794 119.462C95.7346 119.215 96.6607 118.904 97.5625 118.541C98.3238 118.264 99.0462 117.886 99.7056 117.411C100.137 117.11 100.52 116.737 100.826 116.305C101.092 115.898 101.296 115.452 101.432 114.987C101.582 114.55 101.66 114.094 101.66 113.639L101.645 113.643Z" fill="#FFA8A7"/>
<path d="M69.8323 87.8143C68.7025 89.2738 68.4892 91.1841 68.7656 93.0654C69.2504 96.2267 71.1656 98.685 73.4542 99.7226C74.8215 100.348 76.6058 100.61 77.5222 99.8099C78.9477 98.5735 80.3975 97.3759 81.9345 96.2704C83.0836 95.4558 84.3685 94.6412 84.9309 93.3466C85.4158 92.246 85.4158 90.3599 84.383 89.5453C85.1976 88.9101 85.7649 88.0083 85.9879 86.9998C86.0898 86.7331 86.1092 86.447 86.051 86.1706C85.9928 85.8943 85.8473 85.6421 85.6388 85.4482C85.3479 85.1961 84.4267 85.1524 84.0388 85.1088C82.6763 84.9051 81.3284 84.59 80.0144 84.1682C78.3853 83.819 76.7125 83.756 75.0591 83.9791C73.7742 84.2263 72.3051 84.7354 71.6505 86.5246C70.9087 86.7282 70.2638 87.184 69.8274 87.8143H69.8323Z" fill="#263238"/>
<path d="M81.5231 86.9419C82.4977 87.4268 83.7486 89.662 83.9571 94.5009C84.1171 98.6029 82.8516 99.6987 82.2019 100.033C81.5522 100.368 80.2528 100.266 78.9921 100.14L79.123 102.191C79.123 102.191 82.7595 104.814 79.9134 105.362C78.3375 105.58 76.7375 105.192 75.4332 104.285C74.7301 103.835 74.1192 103.248 73.6489 102.555L73.3628 97.4635C73.3628 97.4635 72.6695 98.2247 71.3555 97.2113C70.2694 96.3725 69.8282 94.8791 70.5749 94.0112C70.7737 93.8027 71.0161 93.6476 71.2828 93.5554C71.5494 93.4633 71.8404 93.4294 72.1216 93.4682C72.4028 93.507 72.6743 93.6088 72.9071 93.7736C73.1398 93.9336 73.3337 94.1518 73.4695 94.404C73.4695 94.404 74.2307 94.787 74.8756 93.3809C76.112 93.1821 77.2902 92.7118 78.3181 92.0039C79.1618 91.4172 79.8843 90.6657 80.4322 89.7977C80.9801 88.9298 81.3534 87.9553 81.5182 86.9419H81.5231Z" fill="#FFA8A7"/>
<path d="M78.555 93.5456C78.5744 93.6862 78.5356 93.8219 78.4484 93.9335C78.3611 94.045 78.2399 94.1177 78.0993 94.1323C77.9587 94.142 77.818 94.0983 77.7114 94.0062C77.6047 93.9141 77.5368 93.7832 77.5223 93.6426C77.5077 93.5068 77.5465 93.371 77.6338 93.2644C77.7211 93.1577 77.8423 93.0898 77.9829 93.0753C78.1187 93.0607 78.2544 93.0995 78.3611 93.1868C78.4678 93.2741 78.5356 93.3953 78.5502 93.5359V93.5456H78.555Z" fill="#263238"/>
<path d="M78.6382 96.6541L80.5873 97.2165C80.5582 97.3474 80.5001 97.4735 80.4176 97.585C80.34 97.6965 80.2382 97.7886 80.1219 97.8565C80.0055 97.9244 79.8746 97.9729 79.7437 97.9923C79.6079 98.0117 79.4721 98.002 79.3412 97.968C79.0794 97.8808 78.8612 97.6965 78.7303 97.4541C78.5994 97.2117 78.5654 96.9256 78.6382 96.6638V96.6541Z" fill="#B16668"/>
<path d="M79.8107 97.9725C79.7865 97.7252 79.6701 97.4925 79.4859 97.3276C79.3016 97.1628 79.0543 97.0755 78.807 97.0852C78.744 97.0852 78.681 97.0997 78.6228 97.1143C78.6567 97.3082 78.7392 97.4925 78.8701 97.6428C79.001 97.7931 79.1707 97.8998 79.3598 97.958C79.5053 97.9967 79.6604 98.0016 79.8059 97.9725H79.8107Z" fill="#F28F8F"/>
<path d="M83.1128 91.6498L82.0073 90.9903C82.0461 90.9176 82.0994 90.8546 82.1625 90.8012C82.2255 90.7479 82.3031 90.714 82.3807 90.6897C82.4583 90.6655 82.5455 90.6606 82.628 90.6752C82.7104 90.6897 82.788 90.714 82.8607 90.7576C83.011 90.8449 83.1177 90.9855 83.1662 91.1503C83.2146 91.3152 83.1952 91.4946 83.1128 91.6449V91.6498Z" fill="#263238"/>
<path d="M77.7172 91.6491L76.5632 92.1728C76.5244 92.1001 76.5001 92.0176 76.4953 91.9352C76.4904 91.8528 76.4953 91.7703 76.5244 91.6928C76.5535 91.6152 76.5923 91.5425 76.6504 91.4794C76.7086 91.4164 76.7717 91.3679 76.8492 91.334C77.0044 91.2661 77.1838 91.2564 77.3438 91.3146C77.5038 91.3728 77.6396 91.4891 77.7172 91.6443V91.6491Z" fill="#263238"/>
<path d="M82.9249 93.1571C82.9346 93.225 82.9249 93.2929 82.9055 93.3559C82.8861 93.419 82.857 93.482 82.8134 93.5353C82.7697 93.5887 82.7164 93.6323 82.6582 93.6662C82.6 93.7002 82.5322 93.7196 82.4643 93.7244C82.3964 93.7341 82.3285 93.7244 82.2655 93.705C82.2024 93.6856 82.1394 93.6565 82.0861 93.6129C82.0327 93.5693 81.9891 93.5159 81.9552 93.4577C81.9212 93.3996 81.9018 93.3317 81.897 93.2638C81.8776 93.1232 81.9164 92.9874 82.0037 92.8759C82.0909 92.7644 82.2121 92.6917 82.3528 92.6771C82.4934 92.6674 82.6291 92.7111 82.7358 92.7983C82.8425 92.8856 82.9103 93.0165 82.9249 93.1523V93.1571Z" fill="#263238"/>
<path d="M80.4316 93.012L80.708 96.1102L82.3129 95.5042L80.4316 93.012Z" fill="#F28F8F"/>
<path d="M78.9673 100.139C77.6387 100.047 74.8798 99.4363 74.3901 98.3938C74.5938 98.9223 74.9574 99.3781 75.4277 99.6981C76.2811 100.343 79.0206 100.954 79.0206 100.954L78.9673 100.134V100.139Z" fill="#F28F8F"/>
<path d="M73.4451 93.3905L73.576 95.5433C73.7699 95.5336 73.959 95.4851 74.1336 95.3978C74.3081 95.3154 74.4633 95.1942 74.5942 95.0487C74.7203 94.9033 74.8221 94.7336 74.8851 94.5493C74.9481 94.3651 74.9724 94.1711 74.9578 93.9772L74.8318 91.9844L73.4499 93.3808L73.4451 93.3905Z" fill="#263238"/>
<path d="M141.772 159.075L144.26 160.501V35.3716L141.772 36.8068V159.075Z" fill="#009688"/>
<path opacity="0.4" d="M141.772 159.075L144.26 160.501V35.3716L141.772 36.8068V159.075Z" fill="white"/>
<path opacity="0.1" d="M141.772 159.075L144.26 160.501V35.3716L141.772 36.8068V159.075Z" fill="black"/>
<path d="M144.259 160.501L151.882 156.098V22.1592L60.2712 75.0579V208.982L67.903 204.589V79.4605L144.255 35.3717L144.259 160.501Z" fill="#009688"/>
<path opacity="0.7" d="M144.259 160.501L151.882 156.098V22.1592L60.2712 75.0579V208.982L67.903 204.589V79.4605L144.255 35.3717L144.259 160.501Z" fill="white"/>
<path d="M151.882 22.159L60.2718 75.0577L57.8232 73.6322L149.438 20.7432L151.882 22.159Z" fill="#009688"/>
<path opacity="0.85" d="M151.882 22.159L60.2718 75.0577L57.8232 73.6322L149.438 20.7432L151.882 22.159Z" fill="white"/>
<path d="M60.2718 208.982V75.0576L57.8232 73.6321V207.566L60.2718 208.982Z" fill="#009688"/>
<path opacity="0.6" d="M57.8232 73.6321V207.566L60.2718 208.982V75.0576" fill="white"/>
<path d="M139.435 171.715L161.909 158.74L190.167 175.051L167.693 188.026L139.435 171.715Z" fill="black"/>
<path d="M161.908 158.74V136.552L138.979 149.789L158.16 160.902L161.908 158.74Z" fill="#37474F"/>
<path d="M161.909 136.552V158.74L171.441 164.238L190.622 153.125L161.909 136.552Z" fill="#263238"/>
<path d="M138.979 149.79V171.454L167.693 188.026V166.401L138.979 149.79Z" fill="#263238"/>
<path d="M167.693 166.402V188.027L190.622 174.79V153.126L167.693 166.402Z" fill="#37474F"/>
<path d="M167.693 166.401L168.144 187.202L184.794 178.154L167.693 188.026V166.401Z" fill="#455A64"/>
<path d="M170.913 179.168H171.262V177.844L170.365 178.372L170.806 178.45L170.908 179.168H170.913ZM170.142 178.576V180.351C170.132 180.433 170.142 180.515 170.171 180.593C170.2 180.671 170.254 180.738 170.317 180.792C170.37 180.816 170.428 180.821 170.486 180.816C170.545 180.811 170.598 180.792 170.646 180.758C170.836 180.622 170.986 180.443 171.092 180.234C171.199 180.031 171.257 179.803 171.262 179.57V179.415H170.705L170.593 178.658L170.142 178.581V178.576ZM170.428 181.059C170.346 181.059 170.263 181.039 170.195 180.995C170.094 180.923 170.016 180.826 169.963 180.709C169.909 180.598 169.89 180.472 169.905 180.346V178.29H170.002L171.5 177.407V179.594C171.5 179.871 171.427 180.142 171.301 180.385C171.17 180.627 170.986 180.835 170.763 180.995C170.661 181.044 170.545 181.068 170.433 181.059H170.428Z" fill="#E0E0E0"/>
<path d="M170.704 182.601C170.67 182.601 170.641 182.586 170.617 182.567C170.592 182.547 170.583 182.513 170.583 182.48V180.87C170.583 180.836 170.597 180.807 170.617 180.782C170.636 180.758 170.67 180.749 170.704 180.749C170.738 180.749 170.767 180.763 170.791 180.782C170.815 180.802 170.825 180.836 170.825 180.87V182.48C170.825 182.513 170.811 182.543 170.791 182.567C170.772 182.591 170.738 182.601 170.704 182.601Z" fill="#E0E0E0"/>
<path d="M170.001 183.007C170.001 183.007 169.957 182.997 169.943 182.988C169.923 182.978 169.909 182.963 169.899 182.944C169.885 182.915 169.88 182.881 169.885 182.852C169.894 182.823 169.914 182.794 169.943 182.779L171.339 181.974C171.368 181.96 171.402 181.955 171.431 181.96C171.46 181.97 171.49 181.989 171.504 182.018C171.514 182.033 171.519 182.047 171.519 182.062C171.519 182.076 171.519 182.091 171.519 182.105C171.519 182.12 171.509 182.134 171.499 182.144C171.49 182.154 171.48 182.168 171.465 182.173L170.069 183.002C170.069 183.002 170.025 183.007 170.006 183.002L170.001 183.007Z" fill="#E0E0E0"/>
<path d="M174.99 180.234C174.947 180.234 174.898 180.22 174.86 180.2C174.811 180.171 174.772 180.128 174.748 180.074C174.724 180.021 174.709 179.968 174.714 179.91V179.604C174.714 179.57 174.729 179.541 174.748 179.517C174.767 179.493 174.801 179.483 174.835 179.483C174.869 179.483 174.898 179.497 174.923 179.517C174.947 179.536 174.956 179.57 174.956 179.604V179.934C174.947 179.963 174.947 179.992 174.956 180.016C174.956 180.016 174.995 180.016 175.034 179.992C175.107 179.924 175.165 179.842 175.204 179.745C175.243 179.653 175.262 179.551 175.257 179.449V177.306C175.257 177.272 175.272 177.243 175.291 177.219C175.31 177.194 175.344 177.185 175.378 177.185C175.412 177.185 175.441 177.199 175.466 177.219C175.49 177.238 175.5 177.272 175.5 177.306V179.449C175.504 179.59 175.475 179.735 175.417 179.866C175.359 179.997 175.267 180.108 175.16 180.2C175.107 180.225 175.049 180.234 174.99 180.234Z" fill="#E0E0E0"/>
<path d="M175.984 175.502C175.771 175.512 175.562 175.575 175.378 175.686C174.995 175.938 174.67 176.268 174.428 176.656C174.185 177.044 174.03 177.48 173.967 177.931L176.677 176.37C176.687 176.22 176.658 176.069 176.595 175.929C176.532 175.788 176.43 175.672 176.309 175.585C176.207 175.531 176.096 175.502 175.984 175.502ZM173.72 178.358V178.14C173.749 177.606 173.904 177.083 174.171 176.622C174.437 176.157 174.811 175.764 175.262 175.473C175.422 175.337 175.62 175.255 175.834 175.24C176.042 175.221 176.256 175.269 176.435 175.376C176.614 175.483 176.76 175.643 176.847 175.837C176.934 176.031 176.959 176.244 176.92 176.448V176.52L173.715 178.363L173.72 178.358Z" fill="#E0E0E0"/>
<path d="M179.315 177.762C179.281 177.762 179.252 177.747 179.228 177.728C179.203 177.708 179.194 177.674 179.194 177.64V173.543C179.194 173.509 179.208 173.48 179.228 173.456C179.247 173.432 179.281 173.422 179.315 173.422C179.349 173.422 179.378 173.437 179.402 173.456C179.426 173.475 179.436 173.509 179.436 173.543V177.65C179.436 177.679 179.421 177.708 179.397 177.728C179.373 177.747 179.344 177.762 179.315 177.762Z" fill="#E0E0E0"/>
<path d="M178.966 174.479H178.918C178.918 174.479 178.889 174.464 178.879 174.45C178.869 174.44 178.86 174.425 178.855 174.411C178.85 174.396 178.845 174.382 178.845 174.362C178.845 174.348 178.845 174.328 178.855 174.314L179.281 173.339L179.766 173.892C179.766 173.892 179.8 173.945 179.8 173.979C179.8 174.013 179.786 174.042 179.766 174.067C179.757 174.076 179.742 174.086 179.727 174.096C179.713 174.101 179.698 174.105 179.679 174.105C179.66 174.105 179.645 174.105 179.63 174.096C179.616 174.091 179.601 174.081 179.592 174.067L179.364 173.81L179.087 174.45C179.087 174.45 179.053 174.479 179.029 174.484C179.005 174.488 178.981 174.488 178.961 174.484L178.966 174.479Z" fill="#E0E0E0"/>
<path d="M180.431 177.131C180.397 177.131 180.368 177.116 180.343 177.097C180.319 177.078 180.309 177.044 180.309 177.01V172.908C180.309 172.879 180.324 172.845 180.348 172.825C180.372 172.806 180.401 172.792 180.431 172.792C180.46 172.792 180.494 172.806 180.513 172.825C180.537 172.845 180.547 172.879 180.552 172.908V177.01C180.552 177.044 180.537 177.073 180.518 177.097C180.498 177.121 180.464 177.131 180.431 177.131Z" fill="#E0E0E0"/>
<path d="M180.077 173.844C180.077 173.844 180.048 173.844 180.033 173.844C180.019 173.839 180.004 173.829 179.994 173.819C179.985 173.81 179.975 173.795 179.97 173.781C179.965 173.766 179.96 173.751 179.96 173.732C179.96 173.718 179.96 173.698 179.97 173.688L180.397 172.714L180.882 173.271C180.882 173.271 180.901 173.296 180.911 173.31C180.916 173.325 180.92 173.339 180.92 173.359C180.92 173.378 180.92 173.393 180.911 173.407C180.906 173.422 180.896 173.436 180.882 173.446C180.857 173.465 180.828 173.48 180.799 173.48C180.77 173.48 180.741 173.47 180.717 173.446L180.489 173.184L180.213 173.824C180.213 173.824 180.174 173.858 180.15 173.863C180.125 173.868 180.101 173.863 180.077 173.853V173.844Z" fill="#E0E0E0"/>
<path d="M143.891 165.17L150.151 168.782C150.233 168.835 150.301 168.908 150.349 168.991C150.398 169.073 150.427 169.17 150.432 169.267V173.621C150.432 173.975 150.18 174.106 149.869 173.946L143.61 170.343C143.527 170.29 143.46 170.217 143.411 170.135C143.363 170.052 143.333 169.955 143.329 169.858V165.475C143.329 165.136 143.581 164.99 143.891 165.17Z" fill="#FAFAFA"/>
<path d="M143.74 165.843L143.949 165.964V169.805L143.735 169.683L143.74 165.843Z" fill="#455A64"/>
<path d="M144.604 166.343L144.972 166.561V170.401L144.604 170.183V166.343Z" fill="#455A64"/>
<path d="M145.467 166.843L145.685 166.964V170.809L145.467 170.683V166.843Z" fill="#455A64"/>
<path d="M146.126 167.216L146.548 167.468V171.308L146.126 171.056V167.216Z" fill="#455A64"/>
<path d="M147.203 167.847L147.416 167.968V171.808L147.203 171.687V167.847Z" fill="#455A64"/>
<path d="M147.828 168.2L148.284 168.467V172.307L147.828 172.035V168.2Z" fill="#455A64"/>
<path d="M148.938 168.845L149.152 168.966V172.811L148.938 172.685V168.845Z" fill="#455A64"/>
<path d="M149.433 169.126L149.54 169.184V173.029L149.433 172.966V169.126Z" fill="#455A64"/>
<path d="M148.54 168.637L148.647 168.7V172.54L148.54 172.477V168.637Z" fill="#455A64"/>
<path d="M146.8 167.614L146.906 167.677V171.517L146.8 171.454V167.614Z" fill="#455A64"/>
<path d="M145.84 167.061L145.947 167.129V170.964L145.84 170.906V167.061Z" fill="#455A64"/>
<path d="M145.152 166.688L145.258 166.746V170.591L145.152 170.528V166.688Z" fill="#455A64"/>
<path d="M144.22 166.12L144.327 166.183V170.018L144.22 169.96V166.12Z" fill="#455A64"/>
<path d="M149.802 169.349L150.02 169.47V173.306L149.802 173.184V169.349Z" fill="#455A64"/>
<path d="M161.908 136.552L138.979 149.789L167.693 166.401L190.622 153.125L161.908 136.552Z" fill="#455A64"/>
<path opacity="0.1" d="M138.979 149.79L167.693 165.582L190.622 153.126L167.693 166.402L138.979 149.79Z" fill="white"/>
<path d="M148.492 144.291L177.225 160.883L180.755 158.842L152.031 142.25L148.492 144.291Z" fill="#009688"/>
<path d="M180.755 158.837V163.327L180.328 163.084L179.887 163.846L179.441 163.589L179 164.364L178.554 164.103L178.113 164.864L177.662 164.612L177.22 165.383V160.883L180.755 158.837Z" fill="#009688"/>
<path opacity="0.25" d="M180.755 158.837V163.327L180.328 163.084L179.887 163.846L179.441 163.589L179 164.364L178.554 164.103L178.113 164.864L177.662 164.612L177.22 165.383V160.883L180.755 158.837Z" fill="black"/>
<path opacity="0.1" d="M165.55 139.419L145.559 150.958L165.55 162.542L185.55 150.958L165.55 139.419Z" fill="black"/>
<path d="M148.841 150.706L165.55 141.058L182.268 150.706L165.55 160.36L148.841 150.706Z" fill="black"/>
<path d="M165.549 141.058V121.964L148.443 131.845L164.958 141.407L165.549 141.058Z" fill="#37474F"/>
<path d="M165.55 121.964V141.058L166.151 141.407L182.656 131.845L165.55 121.964Z" fill="#263238"/>
<path d="M148.443 131.845V150.483L165.549 160.36V141.751L148.443 131.845Z" fill="#263238"/>
<path d="M165.55 141.751V160.36L182.656 150.483V131.845L165.55 141.751Z" fill="#37474F"/>
<path d="M165.55 141.751L165.943 159.652L180.271 151.861L165.55 160.36V141.751Z" fill="#455A64"/>
<path d="M168.328 152.743H168.624V151.603L167.853 152.054L168.231 152.122L168.323 152.743H168.328ZM167.664 152.234V153.785C167.654 153.858 167.664 153.926 167.688 153.994C167.712 154.062 167.756 154.12 167.809 154.163C167.857 154.183 167.906 154.188 167.954 154.183C168.003 154.178 168.051 154.159 168.09 154.129C168.25 154.013 168.381 153.858 168.473 153.679C168.565 153.499 168.614 153.305 168.619 153.106V152.971H168.134L168.042 152.326L167.664 152.229V152.234ZM167.911 154.372C167.838 154.372 167.77 154.357 167.707 154.319C167.62 154.256 167.552 154.173 167.504 154.076C167.46 153.979 167.441 153.872 167.45 153.766V151.986H167.533L168.827 151.225V153.068C168.827 153.305 168.774 153.533 168.667 153.746C168.561 153.955 168.405 154.139 168.216 154.275C168.124 154.338 168.017 154.372 167.911 154.372Z" fill="#E0E0E0"/>
<path d="M168.144 155.686C168.114 155.686 168.09 155.676 168.071 155.657C168.051 155.637 168.042 155.613 168.042 155.584V154.202C168.042 154.202 168.042 154.168 168.042 154.154C168.042 154.139 168.051 154.125 168.061 154.11C168.071 154.096 168.085 154.086 168.1 154.081C168.114 154.076 168.129 154.071 168.148 154.071C168.168 154.071 168.182 154.071 168.197 154.081C168.211 154.086 168.226 154.096 168.236 154.11C168.245 154.125 168.255 154.139 168.255 154.154C168.255 154.168 168.255 154.188 168.255 154.202V155.584C168.255 155.584 168.255 155.613 168.245 155.623C168.241 155.637 168.231 155.647 168.221 155.657C168.211 155.666 168.197 155.676 168.187 155.681C168.173 155.681 168.158 155.686 168.148 155.686H168.144Z" fill="#E0E0E0"/>
<path d="M167.543 156.035C167.543 156.035 167.504 156.03 167.489 156.02C167.475 156.01 167.46 155.996 167.451 155.981C167.436 155.957 167.436 155.928 167.441 155.904C167.446 155.879 167.465 155.855 167.489 155.841L168.692 155.142C168.692 155.142 168.74 155.133 168.765 155.142C168.789 155.152 168.808 155.167 168.818 155.186C168.828 155.206 168.837 155.23 168.832 155.254C168.828 155.278 168.818 155.302 168.799 155.317L167.591 156.015C167.591 156.015 167.562 156.03 167.543 156.03V156.035Z" fill="#E0E0E0"/>
<path d="M171.833 153.649C171.794 153.649 171.751 153.64 171.717 153.62C171.678 153.591 171.644 153.557 171.62 153.514C171.596 153.47 171.591 153.421 171.591 153.373V153.087C171.591 153.058 171.601 153.034 171.62 153.014C171.639 152.995 171.664 152.985 171.693 152.985C171.722 152.985 171.746 152.995 171.765 153.014C171.785 153.034 171.794 153.058 171.794 153.087V153.373C171.794 153.373 171.785 153.421 171.794 153.441H171.862C171.93 153.378 171.984 153.305 172.018 153.218C172.051 153.135 172.066 153.043 172.061 152.951V151.109C172.061 151.08 172.071 151.055 172.09 151.036C172.11 151.017 172.134 151.007 172.163 151.007C172.192 151.007 172.216 151.017 172.236 151.036C172.255 151.055 172.265 151.08 172.265 151.109V152.951C172.27 153.072 172.245 153.198 172.197 153.31C172.148 153.421 172.071 153.523 171.974 153.601C171.93 153.63 171.882 153.644 171.833 153.649Z" fill="#E0E0E0"/>
<path d="M172.687 149.601C172.503 149.61 172.328 149.664 172.173 149.761C171.843 149.979 171.562 150.265 171.354 150.599C171.145 150.934 171.009 151.312 170.961 151.705L173.288 150.362C173.298 150.231 173.274 150.1 173.216 149.984C173.162 149.867 173.075 149.761 172.968 149.688C172.886 149.63 172.789 149.591 172.687 149.581V149.601ZM170.738 152.035V151.836C170.762 151.375 170.898 150.929 171.126 150.532C171.359 150.134 171.679 149.795 172.067 149.542C172.202 149.426 172.372 149.358 172.551 149.339C172.731 149.319 172.91 149.363 173.065 149.45C173.22 149.542 173.347 149.678 173.419 149.838C173.497 150.003 173.521 150.182 173.487 150.362V150.425L170.728 152.035H170.738Z" fill="#E0E0E0"/>
<path d="M175.558 151.525C175.529 151.525 175.504 151.515 175.485 151.496C175.466 151.477 175.456 151.452 175.456 151.423V147.898C175.456 147.869 175.466 147.845 175.485 147.825C175.504 147.806 175.529 147.796 175.558 147.796C175.587 147.796 175.611 147.806 175.63 147.825C175.65 147.845 175.659 147.869 175.659 147.898V151.423C175.659 151.423 175.659 151.452 175.65 151.462C175.645 151.477 175.635 151.486 175.626 151.496C175.616 151.506 175.606 151.515 175.592 151.52C175.577 151.525 175.567 151.53 175.553 151.53L175.558 151.525Z" fill="#E0E0E0"/>
<path d="M175.252 148.699H175.208C175.208 148.699 175.184 148.684 175.174 148.675C175.165 148.665 175.155 148.655 175.15 148.641C175.145 148.626 175.14 148.616 175.145 148.602C175.145 148.587 175.145 148.573 175.155 148.563L175.524 147.71L175.931 148.195C175.931 148.195 175.95 148.214 175.955 148.229C175.96 148.243 175.965 148.253 175.965 148.267C175.965 148.282 175.965 148.296 175.955 148.306C175.95 148.321 175.94 148.33 175.931 148.34C175.911 148.359 175.887 148.369 175.858 148.369C175.829 148.369 175.805 148.359 175.785 148.34L175.591 148.117L175.354 148.67C175.354 148.67 175.325 148.694 175.305 148.699C175.286 148.704 175.267 148.704 175.252 148.699Z" fill="#E0E0E0"/>
<path d="M176.498 150.977C176.469 150.977 176.445 150.968 176.426 150.948C176.406 150.929 176.392 150.905 176.392 150.876V147.346C176.392 147.346 176.411 147.302 176.43 147.283C176.45 147.268 176.474 147.259 176.498 147.259C176.523 147.259 176.547 147.268 176.566 147.283C176.586 147.297 176.6 147.322 176.605 147.346V150.861C176.605 150.861 176.605 150.89 176.605 150.905C176.605 150.919 176.595 150.929 176.586 150.944C176.576 150.953 176.566 150.963 176.552 150.968C176.537 150.973 176.523 150.977 176.508 150.977H176.498Z" fill="#E0E0E0"/>
<path d="M176.207 148.156H176.168C176.168 148.156 176.144 148.141 176.134 148.131C176.124 148.122 176.115 148.112 176.11 148.097C176.105 148.083 176.1 148.073 176.105 148.059C176.105 148.044 176.105 148.03 176.115 148.02L176.483 147.167L176.891 147.651C176.891 147.651 176.92 147.7 176.915 147.724C176.915 147.753 176.9 147.777 176.881 147.797C176.871 147.807 176.857 147.811 176.847 147.816C176.837 147.821 176.823 147.821 176.808 147.821C176.779 147.821 176.755 147.807 176.735 147.787L176.541 147.564L176.304 148.117C176.304 148.117 176.28 148.141 176.26 148.151C176.241 148.16 176.226 148.16 176.207 148.156Z" fill="#E0E0E0"/>
<path d="M152.672 145.077L158.059 148.185C158.132 148.233 158.19 148.296 158.229 148.369C158.273 148.442 158.297 148.524 158.302 148.611V152.35C158.302 152.66 158.083 152.786 157.817 152.631L152.43 149.518C152.362 149.469 152.304 149.411 152.26 149.339C152.217 149.266 152.197 149.183 152.192 149.101V145.358C152.192 145.052 152.411 144.926 152.672 145.081V145.077Z" fill="#FAFAFA"/>
<path d="M152.541 145.654L152.72 145.765V149.067L152.541 148.965V145.654Z" fill="#455A64"/>
<path d="M153.288 146.09L153.603 146.274V149.576L153.288 149.392V146.09Z" fill="#455A64"/>
<path d="M154.029 146.517L154.218 146.624V149.926L154.029 149.819V146.517Z" fill="#455A64"/>
<path d="M154.597 146.837L154.961 147.055V150.357L154.597 150.144V146.837Z" fill="#455A64"/>
<path d="M155.522 147.38L155.707 147.482V150.788L155.522 150.682V147.38Z" fill="#455A64"/>
<path d="M156.061 147.681L156.454 147.918V151.22L156.061 150.983V147.681Z" fill="#455A64"/>
<path d="M157.016 148.243L157.195 148.345V151.652L157.016 151.545V148.243Z" fill="#455A64"/>
<path d="M157.442 148.48L157.535 148.534V151.836L157.442 151.787V148.48Z" fill="#455A64"/>
<path d="M156.677 148.064L156.769 148.112V151.419L156.677 151.366V148.064Z" fill="#455A64"/>
<path d="M155.174 147.181L155.266 147.234V150.536L155.174 150.483V147.181Z" fill="#455A64"/>
<path d="M154.349 146.706L154.441 146.764V150.066L154.349 150.012V146.706Z" fill="#455A64"/>
<path d="M153.758 146.381L153.85 146.435V149.737L153.758 149.683V146.381Z" fill="#455A64"/>
<path d="M152.958 145.896L153.05 145.95V149.252L152.958 149.198V145.896Z" fill="#455A64"/>
<path d="M157.763 148.67L157.942 148.777V152.079L157.763 151.972V148.67Z" fill="#455A64"/>
<path d="M165.549 121.964L148.443 131.845L165.549 141.751L182.655 131.845L165.549 121.964Z" fill="#455A64"/>
<path opacity="0.1" d="M148.443 131.845L165.549 141.043L182.655 131.845L165.549 141.751L148.443 131.845Z" fill="white"/>
<path d="M156.046 127.457L173.167 137.338L176.207 135.578L159.091 125.697L156.046 127.457Z" fill="#009688"/>
<path d="M176.207 135.578V139.443L175.843 139.234L175.456 139.889L175.077 139.666L174.699 140.335L174.311 140.107L173.933 140.766L173.55 140.548L173.167 141.208V137.338L176.207 135.578Z" fill="#009688"/>
<path opacity="0.25" d="M176.207 135.578V139.443L175.843 139.234L175.456 139.889L175.077 139.666L174.699 140.335L174.311 140.107L173.933 140.766L173.55 140.548L173.167 141.208V137.338L176.207 135.578Z" fill="black"/>
<path d="M232.191 189.761C230.925 190.493 229.49 190.479 227.939 189.887L226.906 181.538L232.264 180.302L232.191 189.761Z" fill="#B16668"/>
<path d="M216.718 186.275C215.695 188.661 214.206 187.885 211.942 186.44L211.768 178.212L217.61 177.814L216.718 186.275Z" fill="#B16668"/>
<path d="M223.084 197.48C222.968 197.951 222.992 198.45 223.167 198.901C223.341 199.158 224.268 199.948 226.018 200.021C227.691 200.089 229.17 199.822 230.13 199.173C230.542 198.94 230.896 198.605 231.148 198.203C231.405 197.8 231.555 197.345 231.589 196.87C231.657 195.895 231.521 195.003 231.953 194.261C232.384 193.514 232.888 192.899 233.024 192.525C233.189 191.856 233.213 191.163 233.082 190.484L223.084 197.48Z" fill="#263238"/>
<path d="M227.332 189.538C227.322 189.897 227.264 190.256 227.162 190.6C226.924 191.342 226.599 192.055 226.187 192.719C225.989 193.068 225.766 193.403 225.518 193.723C225.033 194.338 224.422 194.847 223.904 195.439C223.346 195.997 223.002 196.734 222.929 197.519C222.895 198.828 224.325 199.231 225.426 199.395C226.614 199.565 227.826 199.468 228.97 199.109C229.581 198.94 230.129 198.595 230.546 198.125C230.963 197.65 231.235 197.063 231.322 196.438C231.371 196.074 231.322 195.701 231.371 195.332C231.492 194.493 231.817 193.698 232.321 193.015C232.612 192.622 232.859 192.195 233.063 191.749C233.378 190.93 233.063 190.023 232.84 189.228C232.631 188.534 232.471 187.71 232.224 187.768V188.214C232.151 188.365 231.977 188.471 231.928 188.651C231.885 188.835 231.821 189.019 231.749 189.199C231.632 189.47 231.438 189.698 231.186 189.858L231.089 188.399C231.094 188.244 231.051 188.093 230.963 187.967C230.847 187.865 230.697 187.807 230.541 187.802C229.62 187.608 228.675 187.56 227.739 187.652C227.666 187.652 227.598 187.667 227.535 187.701C227.472 187.73 227.414 187.773 227.37 187.827C227.312 187.928 227.293 188.05 227.317 188.161C227.346 188.627 227.351 189.092 227.327 189.553L227.332 189.538Z" fill="#37474F"/>
<path d="M226.028 192.995C226.513 192.617 227.594 192.583 228.195 192.627C228.801 192.661 229.393 192.85 229.911 193.175C229.984 193.223 230.076 193.248 230.164 193.238C230.251 193.228 230.333 193.189 230.396 193.122C230.435 193.083 230.459 193.039 230.479 192.986C230.498 192.937 230.503 192.884 230.498 192.831C230.493 192.777 230.479 192.729 230.45 192.68C230.421 192.637 230.387 192.593 230.343 192.564C229.771 192.166 229.092 191.943 228.394 191.914C226.934 191.851 226.498 192.118 226.498 192.118C226.498 192.118 225.868 192.564 226.028 192.995Z" fill="#F5F5F5"/>
<path d="M224.952 194.372C225.553 193.994 226.755 194.013 227.352 194.057C227.948 194.101 228.525 194.299 229.02 194.639C229.097 194.687 229.185 194.707 229.272 194.697C229.359 194.687 229.441 194.649 229.505 194.586C229.543 194.547 229.568 194.503 229.587 194.45C229.606 194.401 229.611 194.348 229.606 194.295C229.601 194.241 229.587 194.193 229.558 194.144C229.529 194.101 229.495 194.057 229.451 194.028C228.874 193.611 228.191 193.368 227.478 193.32C226.018 193.262 225.63 193.572 225.63 193.572C225.466 193.645 225.315 193.756 225.199 193.892C225.083 194.028 224.995 194.193 224.952 194.367V194.372Z" fill="#F5F5F5"/>
<path d="M228.971 190.493C228.35 190.401 227.715 190.474 227.128 190.702C226.872 190.852 226.716 191.269 226.886 191.366C227.4 191.143 227.958 191.051 228.515 191.094C229.068 191.128 229.611 191.264 230.115 191.482C230.241 191.536 230.392 191.608 230.523 191.676C230.566 191.7 230.61 191.715 230.658 191.72C230.707 191.72 230.755 191.72 230.799 191.705C230.843 191.691 230.886 191.667 230.925 191.633C230.964 191.599 230.988 191.56 231.007 191.516C231.041 191.444 231.046 191.361 231.022 191.284C230.998 191.206 230.944 191.143 230.872 191.104C230.285 190.77 229.64 190.561 228.966 190.498L228.971 190.493Z" fill="#F5F5F5"/>
<path d="M202.958 191.754C202.846 192.142 202.88 192.554 203.059 192.912C203.229 193.247 205.043 194.197 207.443 193.965C209.212 193.785 210.9 193.136 212.335 192.083C213.232 191.448 214.182 191.308 215.365 191.206C216.548 191.104 217.455 190.721 217.698 190.149C217.819 189.645 217.785 189.121 217.61 188.636L202.958 191.754Z" fill="#263238"/>
<path d="M212.447 184.384C212.233 184.331 212.02 184.268 211.811 184.19C211.7 184.137 211.574 184.127 211.457 184.161C211.389 184.205 211.331 184.263 211.288 184.336C211.244 184.408 211.22 184.486 211.215 184.568C211.171 184.922 211.094 185.276 210.987 185.616C210.817 185.897 210.594 186.144 210.332 186.348C209.751 186.842 209.115 187.274 208.446 187.642C207.675 188.084 206.919 188.438 206.119 188.821C205.319 189.204 204.214 189.48 203.583 189.931C202.662 190.595 202.609 192.19 203.68 192.792C204.621 193.306 207.089 193.824 209.61 193.024C210.987 192.588 212.49 191.075 214.308 190.857C215.467 190.736 217.014 190.59 217.717 189.688C217.979 189.291 217.785 188.151 217.61 186.804C217.455 185.596 217.334 183.715 216.946 183.831C216.946 183.831 216.791 184.268 216.762 184.316C216.665 184.466 216.553 184.607 216.432 184.733C216.325 184.84 216.219 184.942 216.102 185.034C215.971 185.179 215.831 185.315 215.685 185.441C215.496 185.596 215.259 185.688 215.011 185.703C214.895 185.708 214.779 185.679 214.677 185.62C214.483 185.504 214.464 185.247 214.308 185.077C214.129 184.893 213.911 184.743 213.673 184.646C213.339 184.515 212.99 184.437 212.631 184.408C212.577 184.403 212.51 184.389 212.451 184.379L212.447 184.384Z" fill="#37474F"/>
<path d="M209.513 186.983C209.59 186.823 209.707 186.682 209.857 186.575C210.002 186.469 210.172 186.406 210.352 186.381C210.875 186.27 211.811 186.629 212.417 187.094C212.475 187.138 212.519 187.191 212.548 187.259C212.577 187.322 212.592 187.395 212.587 187.463C212.587 187.535 212.562 187.603 212.524 187.661C212.485 187.72 212.436 187.773 212.378 187.807C212.301 187.85 212.213 187.87 212.131 187.86C212.044 187.855 211.961 187.821 211.893 187.763C211.234 187.201 210.381 186.915 209.518 186.973L209.513 186.983Z" fill="#F5F5F5"/>
<path d="M207.898 187.958C208.01 187.793 208.155 187.652 208.33 187.555C208.504 187.458 208.698 187.405 208.897 187.4C209.712 187.414 210.502 187.681 211.152 188.171C211.205 188.214 211.249 188.268 211.278 188.326C211.307 188.389 211.317 188.457 211.317 188.525C211.317 188.593 211.292 188.661 211.258 188.719C211.225 188.777 211.176 188.825 211.118 188.864C211.045 188.908 210.958 188.932 210.866 188.922C210.778 188.918 210.696 188.879 210.628 188.825C210.265 188.486 209.833 188.229 209.358 188.079C208.883 187.928 208.383 187.89 207.889 187.958H207.898Z" fill="#F5F5F5"/>
<path d="M206.119 188.815C206.25 188.665 206.41 188.544 206.589 188.457C206.768 188.374 206.962 188.326 207.161 188.326C207.947 188.35 208.703 188.621 209.324 189.106C209.377 189.15 209.421 189.203 209.45 189.266C209.479 189.329 209.488 189.397 209.488 189.465C209.488 189.533 209.464 189.601 209.43 189.659C209.396 189.717 209.348 189.771 209.29 189.805C209.212 189.848 209.125 189.868 209.038 189.863C208.95 189.858 208.868 189.819 208.8 189.761C208.456 189.407 208.034 189.135 207.568 188.971C207.103 188.806 206.603 188.752 206.114 188.815H206.119Z" fill="#F5F5F5"/>
<path d="M193.571 113.86C192.645 113.007 191.67 110.966 190.918 112.086C190.434 112.842 191.466 113.351 191.403 114.306C191.345 115.262 188.436 112.997 187.224 112.149C186.414 111.582 184.552 113.351 185.299 115.267C185.963 116.968 187.025 118.045 188.926 118.845C190.938 119.698 191.99 120.12 194.511 121.255C195.641 119.655 196.431 118.069 196.155 116.532C194.172 115.378 194.366 114.593 193.571 113.86Z" fill="#FFA8A7"/>
<path opacity="0.1" d="M191.21 115.32C191.21 116.178 191.442 117.541 192.669 118.244C192.364 118.2 192.068 118.088 191.816 117.909C191.564 117.73 191.355 117.497 191.21 117.22C191.05 116.93 190.967 116.605 190.967 116.27C190.967 115.936 191.05 115.611 191.21 115.32Z" fill="black"/>
<path d="M217.47 104.289C216.374 105.749 216.825 105.152 216.496 107.383C216.224 109.182 212.447 126.477 209.029 127.189C207.53 127.505 196.708 122.554 194.08 121.104C195.069 119.732 195.777 118.181 196.156 116.532C199.302 117.764 204.723 118.966 206.672 119.582C207.574 117.07 208.675 114.486 209.708 111.95C211.666 107.121 212.782 103.688 217.47 104.289Z" fill="#455A64"/>
<path d="M231.638 133.55C231.638 137.39 231.899 159.704 231.899 159.704C231.996 160.809 233.058 162.773 233.141 166.754C233.262 172.519 233.034 189.475 233.034 189.475C233.034 189.475 229.431 190.793 226.905 189.741C226.905 189.741 224.219 167.879 223.497 162.167C222.866 157.183 221.586 145.808 221.586 145.808L219.807 160.906C220.069 163.316 220.137 165.74 220.011 168.16C219.826 170.802 217.538 185.596 217.538 185.596C217.538 185.596 213.722 186.396 210.978 185.47C210.978 185.47 211.123 161.663 211.079 159.238C211.026 156.475 212.228 132.711 212.228 132.711L231.633 133.55H231.638Z" fill="#009688"/>
<path opacity="0.4" d="M231.638 133.55C231.638 137.39 231.899 159.704 231.899 159.704C231.996 160.809 233.058 162.773 233.141 166.754C233.262 172.519 233.034 189.475 233.034 189.475C233.034 189.475 229.431 190.793 226.905 189.741C226.905 189.741 224.219 167.879 223.497 162.167C222.866 157.183 221.586 145.808 221.586 145.808L219.807 160.906C220.069 163.316 220.137 165.74 220.011 168.16C219.826 170.802 217.538 185.596 217.538 185.596C217.538 185.596 213.722 186.396 210.978 185.47C210.978 185.47 211.123 161.663 211.079 159.238C211.026 156.475 212.228 132.711 212.228 132.711L231.633 133.55H231.638Z" fill="black"/>
<path opacity="0.15" d="M221.586 145.808L221.271 143.456C220.136 143.263 217.29 141.386 215.617 139.771C216.791 141.643 218.405 143.199 220.311 144.31L220.073 159.258L221.586 145.808Z" fill="black"/>
<path d="M224.709 104.221C225.562 104.425 227.633 104.677 229.131 105.113C230.241 105.429 230.707 106.791 230.944 107.814C231.686 111.087 231.817 117.948 231.817 117.948L231.861 133.934C229.087 135.951 217.737 136.974 211.889 132.722C211.889 132.722 212.602 113.681 212.602 110.719C212.602 107.756 214.25 104.197 218.794 103.93L224.714 104.221H224.709Z" fill="#455A64"/>
<path d="M225.281 104.343C225.431 104.377 225.572 104.44 225.698 104.537C225.824 104.634 225.921 104.75 225.994 104.886C226.066 105.021 226.105 105.172 226.11 105.327C226.115 105.482 226.086 105.637 226.028 105.778C225.417 107.174 224.597 108.464 223.594 109.608C221.935 111.499 218.43 113.017 218.43 113.017C218.43 113.017 216.689 111.068 217.009 108.842C217.324 106.617 218.226 104.755 218.9 104.236C219.079 104.12 219.273 104.032 219.482 103.979V103.698C218.488 103.601 217.479 103.722 216.534 104.047C215.351 104.571 213.251 105.453 212.587 109.099C211.923 112.74 211.365 133.245 211.365 133.245C211.365 133.245 218.396 139.617 232.234 134.957V118.079C232.234 118.079 232.132 110.19 230.052 105.046L225.305 104.071L225.286 104.347L225.281 104.343Z" fill="#009688"/>
<path opacity="0.1" d="M232.215 125.89C230.493 127.127 228.185 128.722 226.513 129.788C226.028 130.099 225.586 130.37 225.237 130.574C224.811 130.821 224.146 130.482 223.662 130.385C222.362 130.118 221.533 130.327 220.311 130.385C219.337 130.428 218.823 130.162 218.735 130.385C218.658 130.652 218.687 130.933 218.808 131.18C218.929 131.427 219.143 131.616 219.4 131.713C219.962 131.941 220.554 132.106 221.155 132.198C220.171 132.669 219.114 132.974 218.032 133.105C215.826 133.381 214.9 134.08 216.34 135.772C218.474 136.407 220.694 136.707 222.92 136.659C223.405 136.45 223.952 136.174 224.525 135.898C225.334 135.476 226.997 134.535 228.564 133.687C229.296 133.289 230.023 132.906 230.59 132.62C231.158 132.334 231.662 132.096 232.219 131.83V125.89H232.215Z" fill="black"/>
<path opacity="0.1" d="M230.503 106.354C228.19 111.446 231.715 115.611 231.715 115.611L232.176 116.997C232.079 114.941 231.735 110.199 230.498 106.354H230.503Z" fill="black"/>
<path d="M211.632 124.635C212.766 126.676 218.037 127.898 222.585 127.966C227.133 128.033 230.915 126.734 232.214 125.532V123.548C230.915 124.765 227.133 126.075 222.585 125.982C218.037 125.89 212.844 124.673 211.709 122.632L211.632 124.635Z" fill="#FAFAFA"/>
<path d="M232.215 129.197C230.915 130.414 227.134 131.723 222.585 131.631C218.037 131.538 212.636 130.292 211.501 128.251L211.569 126.258C212.704 128.3 218.037 129.56 222.585 129.628C227.134 129.696 230.915 128.397 232.215 127.194V129.197Z" fill="#FAFAFA"/>
<path opacity="0.15" d="M218.426 113.007L218.11 136.217C217.757 136.145 217.417 136.062 217.087 135.98L218.426 113.012V113.007Z" fill="black"/>
<path d="M200.393 122.496L216.524 123.582L224.733 141.769L209.319 140.339L200.393 122.496Z" fill="#263238"/>
<path opacity="0.15" d="M215.322 135.078C215.554 135.684 215.947 136.213 216.451 136.615C216.956 137.018 217.562 137.28 218.202 137.377C219.647 137.503 221.092 137.231 222.396 136.596L221.707 135.078H215.317H215.322Z" fill="black"/>
<path opacity="0.15" d="M205.421 124.392L205.184 123.825C205.053 123.519 205.95 123.34 207.191 123.408L209.562 123.558C210.803 123.64 211.918 123.951 212.049 124.266L212.287 124.828L205.421 124.397V124.392Z" fill="black"/>
<path d="M203.932 122.384C203.85 122.19 204.204 122.069 204.727 122.108L205.668 122.186C205.668 122.186 205.159 120.969 207.229 121.032C209.305 121.095 210.017 122.443 210.017 122.443L211.026 122.53C211.462 122.53 211.884 122.68 212.219 122.957L212.398 123.301L204.087 122.738L203.932 122.38V122.384Z" fill="#009688"/>
<path opacity="0.3" d="M203.932 122.384C203.85 122.19 204.204 122.069 204.727 122.108L205.668 122.186C205.668 122.186 205.159 120.969 207.229 121.032C209.305 121.095 210.017 122.443 210.017 122.443L211.026 122.53C211.462 122.53 211.884 122.68 212.219 122.957L212.398 123.301L204.087 122.738L203.932 122.38V122.384Z" fill="black"/>
<path d="M211.962 124.338C211.855 124.081 211.065 123.824 210.085 123.694C210.085 123.66 210.061 123.631 210.051 123.601C209.94 123.335 210.027 123.141 210.614 123.184V122.952L204.863 122.612L205.14 122.811C205.896 122.845 206.216 122.884 206.42 123.364L206.463 123.471C205.571 123.471 205.004 123.65 205.091 123.902L205.329 124.469L212.199 124.901L211.962 124.338Z" fill="#009688"/>
<path opacity="0.4" d="M211.962 124.338C211.855 124.081 211.065 123.824 210.085 123.694C210.085 123.66 210.061 123.631 210.051 123.601C209.94 123.335 210.027 123.141 210.614 123.184V122.952L204.863 122.612L205.14 122.811C205.896 122.845 206.216 122.884 206.42 123.364L206.463 123.471C205.571 123.471 205.004 123.65 205.091 123.902L205.329 124.469L212.199 124.901L211.962 124.338Z" fill="black"/>
<path d="M225.635 129.269C225.15 129.584 224.709 129.856 224.36 130.06C223.933 130.302 223.269 129.967 222.784 129.87C221.484 129.604 220.655 129.812 219.433 129.87C218.459 129.919 217.945 129.652 217.857 129.87C217.78 130.137 217.804 130.418 217.93 130.666C218.056 130.913 218.265 131.102 218.527 131.194C219.089 131.427 219.681 131.592 220.282 131.679C219.298 132.149 218.241 132.455 217.159 132.586C214.686 132.896 213.814 133.706 216.097 135.926C217.528 137.313 219.53 137.522 223.656 135.379C224.466 134.957 226.129 134.011 227.695 133.163C227.637 132.406 227.429 131.674 227.075 131C226.721 130.331 226.236 129.74 225.644 129.264L225.635 129.269Z" fill="#FFA8A7"/>
<path d="M236.462 110.82C235.003 105.705 233.024 105.278 230.033 105.041C226.944 110.481 230.842 115.111 230.842 115.111L233.674 123.596C233.238 124.081 228.51 127.436 225.64 129.269C226.469 129.948 227.691 132.023 227.691 133.168C228.423 132.775 229.15 132.392 229.718 132.101C234.077 129.933 239.895 127.63 239.997 125.424C240.094 123.218 237.98 116.207 236.472 110.82H236.462Z" fill="#455A64"/>
<path d="M219.56 94.8535C219.565 94.9748 219.608 95.096 219.681 95.1929C219.754 95.2948 219.856 95.3675 219.967 95.4111C220.083 95.4548 220.21 95.4645 220.326 95.4354C220.447 95.4063 220.554 95.3481 220.641 95.256C220.728 95.1687 220.782 95.0572 220.806 94.936C220.83 94.8148 220.816 94.6887 220.767 94.5772C220.719 94.4656 220.636 94.3687 220.534 94.3008C220.433 94.2329 220.311 94.199 220.19 94.199C220.02 94.2038 219.86 94.2766 219.739 94.3978C219.623 94.519 219.555 94.6838 219.56 94.8535Z" fill="#263238"/>
<path d="M220.19 92.7254L221.49 93.4673C221.582 93.2879 221.606 93.0842 221.548 92.8903C221.49 92.6963 221.364 92.5363 221.184 92.4345C221.102 92.386 221.005 92.3569 220.913 92.3472C220.816 92.3375 220.719 92.3472 220.627 92.3715C220.534 92.4006 220.447 92.4442 220.37 92.5072C220.297 92.5703 220.234 92.643 220.185 92.7303L220.19 92.7254Z" fill="#263238"/>
<path d="M219.72 98.6895L218.26 99.2374C218.289 99.3343 218.343 99.4216 218.406 99.4992C218.474 99.5768 218.551 99.6398 218.643 99.6834C218.735 99.7271 218.832 99.7562 218.934 99.761C219.036 99.7659 219.138 99.7513 219.235 99.7222C219.434 99.6495 219.598 99.4992 219.691 99.3052C219.783 99.1113 219.792 98.8931 219.725 98.6895H219.72Z" fill="#F28F8F"/>
<path d="M214.546 93.2443L215.729 92.3327C215.675 92.2503 215.603 92.1824 215.52 92.1339C215.438 92.0854 215.346 92.0467 215.249 92.0321C215.152 92.0176 215.055 92.0224 214.958 92.0467C214.861 92.0709 214.774 92.1145 214.696 92.1727C214.536 92.2939 214.429 92.4782 214.4 92.677C214.371 92.8758 214.42 93.0794 214.541 93.2443H214.546Z" fill="#263238"/>
<path d="M214.812 94.8534C214.812 94.9746 214.856 95.0861 214.929 95.1831C214.996 95.28 215.093 95.3528 215.205 95.3964C215.316 95.44 215.438 95.4449 215.554 95.4207C215.67 95.3964 215.777 95.3334 215.86 95.2461C215.942 95.1588 215.995 95.0521 216.02 94.9309C216.039 94.8146 216.024 94.6933 215.981 94.5818C215.937 94.4703 215.855 94.3782 215.753 94.3152C215.651 94.2521 215.535 94.2133 215.418 94.2182C215.336 94.2182 215.258 94.2376 215.181 94.2715C215.108 94.3055 215.04 94.3539 214.982 94.4121C214.924 94.4703 214.88 94.5382 214.851 94.6158C214.822 94.6934 214.807 94.7709 214.807 94.8534H214.812Z" fill="#263238"/>
<path d="M218.11 93.8018L217.901 97.6225L215.899 96.9437L218.11 93.8018Z" fill="#F28F8F"/>
<path d="M219.569 93.9519L228.51 93.2876C230.241 94.5967 233.461 97.3556 233.456 98.1217V98.6502C233.456 98.6502 233.461 98.6938 233.456 98.7132C233.141 99.3193 231.996 99.6878 230.222 99.7169C228.117 99.7557 224.864 99.5617 223.982 98.8199C222.692 97.7096 219.598 94.4367 219.598 94.4367L220.044 94.4028L219.569 93.9519Z" fill="#009688"/>
<path opacity="0.2" d="M219.569 93.9519L228.51 93.2876C230.241 94.5967 233.461 97.3556 233.456 98.1217V98.6502C233.456 98.6502 233.461 98.6938 233.456 98.7132C233.141 99.3193 231.996 99.6878 230.222 99.7169C228.117 99.7557 224.864 99.5617 223.982 98.8199C222.692 97.7096 219.598 94.4367 219.598 94.4367L220.044 94.4028L219.569 93.9519Z" fill="black"/>
<path d="M228.515 93.8164C230.324 95.1837 233.761 98.1317 233.441 98.7378C233.121 99.3439 231.982 99.7124 230.207 99.7415C228.103 99.7802 224.85 99.5863 223.967 98.8445C222.677 97.7341 219.584 94.4613 219.584 94.4613L228.515 93.8164Z" fill="#009688"/>
<path opacity="0.4" d="M228.515 93.8164C230.324 95.1837 233.761 98.1317 233.441 98.7378C233.121 99.3439 231.982 99.7124 230.207 99.7415C228.103 99.7802 224.85 99.5863 223.967 98.8445C222.677 97.7341 219.584 94.4613 219.584 94.4613L228.515 93.8164Z" fill="black"/>
<path d="M228.515 93.8161C228.544 94.0731 227.632 94.6161 227.632 94.6161L227.884 93.0452L228.515 93.821V93.8161Z" fill="#009688"/>
<path opacity="0.3" d="M228.515 93.8161C228.544 94.0731 227.632 94.6161 227.632 94.6161L227.884 93.0452L228.515 93.821V93.8161Z" fill="black"/>
<path d="M226.163 88.5945C226.163 88.5945 227.56 88.7884 228.073 89.8406C228.515 90.757 228.355 92.968 227.763 95.3777C227.424 96.9341 226.919 98.4566 226.265 99.9064C226.032 100.319 225.649 100.624 225.198 100.76L225.266 97.899L225.368 95.9062C225.368 95.9062 224.093 94.1559 223.952 92.7255C223.773 90.883 224.156 90.1315 224.156 90.1315L226.168 88.5945H226.163Z" fill="#263238"/>
<path d="M223.904 91.3531C223.894 92.7689 223.327 94.1217 222.323 95.1205C221.32 96.1193 219.962 96.6769 218.546 96.6769C217.203 96.5654 215.952 95.9544 215.041 94.9605C214.129 93.9665 213.625 92.6671 213.63 91.3191C213.63 89.9712 214.144 88.6766 215.065 87.6875C215.981 86.6984 217.237 86.0971 218.58 85.9905C219.996 86.0002 221.349 86.5675 222.348 87.5711C223.346 88.5748 223.904 89.9324 223.904 91.3482V91.3531Z" fill="#263238"/>
<path d="M225.295 95.5861C225.78 95.9983 226.168 94.9219 226.571 94.5C226.973 94.0782 228.292 93.5254 228.942 94.8928C229.596 96.2601 228.365 98.3014 227.356 98.6796C227.051 98.7959 226.716 98.8056 226.406 98.7135C226.095 98.6165 225.824 98.4226 225.635 98.1559V104.488C224.117 107.228 221.431 107.14 220.001 106.985C218.57 106.83 218.25 105.342 219.298 104.139V102.19C218.502 102.316 217.698 102.35 216.893 102.301C215.579 102.098 214.89 101.109 214.502 99.6881C213.867 97.4044 213.615 93.5594 214.502 89.1277C215.962 87.9883 221.067 88.1532 224.151 90.1314C223.933 94.0637 224.815 95.1691 225.295 95.5861Z" fill="#FFA8A7"/>
<path d="M215.055 87.1881C215.657 86.5383 216.389 86.0195 217.203 85.6753C217.863 85.3941 218.571 85.2437 219.288 85.234C220.219 85.234 221.15 85.0983 222.081 85.1274C223.7 85.1759 225.645 85.8353 226.377 87.4062C226.711 88.1287 226.765 88.8657 226.11 89.3554C225.519 89.753 224.845 90.0051 224.137 90.0924C222.944 90.3009 221.756 90.5773 220.549 90.7276C219.259 90.9458 217.935 90.9312 216.651 90.6742C216.049 90.5336 215.477 90.2912 214.958 89.9518C214.697 89.7724 214.454 89.5687 214.226 89.3409C214.144 89.2536 213.916 89.0742 213.887 88.953C213.858 88.8317 214.018 88.599 214.076 88.4681C214.343 88.0026 214.672 87.5759 215.055 87.1978V87.1881Z" fill="#263238"/>
<path d="M219.312 102.19C219.312 102.19 222.236 101.603 223.269 101.065C223.875 100.755 224.37 100.27 224.69 99.6733C224.534 100.27 224.258 100.832 223.88 101.322C223.123 102.296 219.308 102.975 219.308 102.975V102.195L219.312 102.19Z" fill="#F28F8F"/>
<path d="M219.845 94.6115C219.845 94.689 219.855 94.7666 219.884 94.8442C219.913 94.9218 219.957 94.9848 220.01 95.043C220.063 95.1012 220.131 95.1448 220.204 95.1739C220.277 95.203 220.354 95.2224 220.432 95.2224C220.592 95.2224 220.742 95.1545 220.849 95.0381C220.96 94.9266 221.019 94.7715 221.019 94.6115C221.028 94.529 221.019 94.4466 220.989 94.369C220.965 94.2914 220.922 94.2187 220.868 94.1605C220.815 94.1023 220.747 94.0539 220.669 94.0199C220.592 93.986 220.514 93.9714 220.432 93.9714C220.349 93.9714 220.267 93.9908 220.194 94.0199C220.122 94.049 220.054 94.1023 219.996 94.1605C219.942 94.2187 219.899 94.2914 219.874 94.369C219.85 94.4466 219.84 94.529 219.845 94.6115Z" fill="#263238"/>
<path d="M220.428 92.5701L221.732 93.1616C221.81 92.9822 221.81 92.7834 221.742 92.5992C221.674 92.4198 221.538 92.2695 221.364 92.1871C221.276 92.1483 221.184 92.1289 221.087 92.124C220.99 92.124 220.898 92.1386 220.811 92.1774C220.724 92.2113 220.646 92.2646 220.578 92.3325C220.51 92.4004 220.462 92.4828 220.428 92.5701Z" fill="#263238"/>
<path d="M219.783 98.6118L217.906 99.31C217.945 99.4361 218.008 99.5525 218.096 99.6543C218.183 99.7561 218.29 99.8385 218.406 99.8967C218.527 99.9549 218.653 99.9888 218.789 99.9985C218.92 100.003 219.056 99.984 219.177 99.9403C219.429 99.8385 219.633 99.6446 219.744 99.3973C219.856 99.15 219.87 98.8688 219.783 98.6167V98.6118Z" fill="#B16668"/>
<path d="M219.181 99.9355C219.017 99.9937 218.832 100.008 218.663 99.9743C218.672 99.7416 218.769 99.5185 218.939 99.3537C219.109 99.1888 219.332 99.1016 219.569 99.1016C219.657 99.1016 219.739 99.1161 219.821 99.1404C219.792 99.3149 219.72 99.4846 219.608 99.6252C219.497 99.7658 219.351 99.8725 219.181 99.9355Z" fill="#F28F8F"/>
<path d="M214.934 92.9189L216.292 92.4341C216.262 92.342 216.219 92.2595 216.156 92.1868C216.093 92.1141 216.02 92.0559 215.933 92.0171C215.845 91.9735 215.753 91.9541 215.661 91.9492C215.569 91.9492 215.472 91.9589 215.385 91.9929C215.205 92.0607 215.06 92.1965 214.978 92.371C214.895 92.5456 214.876 92.7395 214.934 92.9238V92.9189Z" fill="#263238"/>
<path d="M215.007 94.4369C214.997 94.5193 215.007 94.6017 215.036 94.6793C215.06 94.7569 215.104 94.8296 215.157 94.8878C215.21 94.946 215.278 94.9944 215.356 95.0284C215.433 95.0623 215.511 95.0769 215.593 95.0769C215.676 95.0769 215.758 95.0575 215.831 95.0284C215.904 94.9993 215.971 94.946 216.03 94.8878C216.083 94.8296 216.127 94.7569 216.151 94.6793C216.175 94.6017 216.185 94.5193 216.18 94.4369C216.18 94.3593 216.17 94.2817 216.141 94.2041C216.112 94.1265 216.068 94.0635 216.015 94.0053C215.962 93.9471 215.894 93.9035 215.821 93.8744C215.748 93.8453 215.671 93.8259 215.593 93.8259C215.433 93.8259 215.283 93.8938 215.176 94.0102C215.065 94.1217 215.007 94.2769 215.007 94.4369Z" fill="#263238"/>
<path d="M218.324 92.9194L218.11 97.6226L215.73 96.9971L218.324 92.9194Z" fill="#F28F8F"/>
<path d="M228.893 91.639C228.873 92.3953 228.747 93.142 228.515 93.8596C228.364 93.6269 228.18 93.4136 227.967 93.2342C226.769 92.2402 225.407 91.4596 223.942 90.931C220.568 89.6316 216.635 89.428 213.469 90.5383C213.523 89.8934 213.663 89.2583 213.886 88.6473C215.035 85.646 217.358 84.0799 221.072 84.463C225.421 84.9139 229.009 87.3334 228.888 91.639H228.893Z" fill="#009688"/>
<path d="M220.931 88.9871C219.923 88.6477 217.348 88.4441 216.592 88.6865C216.243 88.4004 215.937 88.061 215.685 87.6877C215.336 87.1252 215.452 86.4222 215.782 86.2816C216.112 86.141 216.136 86.5677 217.421 87.2077C217.251 86.7955 217.212 86.3446 217.314 85.9131C217.523 85.3943 217.969 86.3252 218.914 86.9265C219.865 87.5277 220.81 87.838 220.931 88.992V88.9871Z" fill="#263238"/>
<path d="M45.2162 213.603C41.1191 209.375 38.7093 192.172 42.7094 188.807H63.0544C67.0496 192.162 64.6399 209.37 60.5476 213.603L60.4361 213.719L60.2955 213.855C60.184 213.967 60.0579 214.078 59.927 214.19L59.83 214.267L59.5245 214.5C59.3548 214.626 59.1754 214.737 58.996 214.839C55.6262 216.813 50.157 216.813 46.7872 214.839C46.6029 214.737 46.4235 214.621 46.2538 214.5C46.152 214.427 46.0647 214.354 45.9677 214.277L45.8465 214.185C45.7204 214.078 45.6041 213.971 45.4926 213.865L45.3326 213.705L45.2356 213.603H45.2162Z" fill="#455A64"/>
<path d="M61.2846 187.455C65.9248 190.165 65.9248 194.558 61.2846 197.268C56.6445 199.984 49.1097 199.979 44.4744 197.268C39.8391 194.558 39.8342 190.16 44.4744 187.455C49.1145 184.744 56.6396 184.744 61.2846 187.455Z" fill="#455A64"/>
<path opacity="0.1" d="M61.2846 187.455C65.9248 190.165 65.9248 194.558 61.2846 197.268C56.6445 199.984 49.1097 199.979 44.4744 197.268C39.8391 194.558 39.8342 190.16 44.4744 187.455C49.1145 184.744 56.6396 184.744 61.2846 187.455Z" fill="white"/>
<path d="M59.0539 188.763C62.4625 190.751 62.4625 193.98 59.0539 195.968C55.6453 197.956 50.1178 197.961 46.7044 195.968C43.2958 193.976 43.2958 190.751 46.7044 188.763C50.113 186.775 55.6404 186.77 59.0539 188.763Z" fill="#263238"/>
<path d="M46.7044 192.182C50.113 190.189 55.6404 190.189 59.0539 192.182C59.8781 192.633 60.5812 193.287 61.0951 194.078C60.5812 194.868 59.8781 195.513 59.0539 195.969C55.6453 197.961 50.1178 197.961 46.7044 195.969C45.8801 195.518 45.177 194.868 44.6631 194.078C45.177 193.287 45.8752 192.638 46.7044 192.182Z" fill="#F5F5F5"/>
<path d="M64.1545 155.419L56.0233 160.981L63.7132 158.057C63.6453 160.113 63.1265 162.135 62.1956 163.972C62.1956 163.972 57.1142 166.435 54.3553 169.039L61.1192 166.94C61.3325 168.118 61.2598 169.33 60.9107 170.474C60.8671 170.629 60.8186 170.789 60.7701 170.959C60.4113 172.04 59.8973 174.086 59.0294 176.511C58.2924 178.635 57.3567 180.681 56.2318 182.63C55.6742 183.585 55.0487 184.501 54.3699 185.379L54.2438 185.544C52.988 184.705 51.6886 183.895 50.3455 183.11C49.5406 181.064 48.6776 176.196 48.5224 172.297C47.9309 157.199 59.8392 149.441 69.1292 147.21C69.1292 147.21 65.7303 150.9 64.1448 155.424L64.1545 155.419Z" fill="#009688"/>
<path opacity="0.3" d="M64.1545 155.419L56.0233 160.981L63.7132 158.057C63.6453 160.113 63.1265 162.135 62.1956 163.972C62.1956 163.972 57.1142 166.435 54.3553 169.039L61.1192 166.94C61.3325 168.118 61.2598 169.33 60.9107 170.474C60.8671 170.629 60.8186 170.789 60.7701 170.959C60.4113 172.04 59.8973 174.086 59.0294 176.511C58.2924 178.635 57.3567 180.681 56.2318 182.63C55.6742 183.585 55.0487 184.501 54.3699 185.379L54.2438 185.544C52.988 184.705 51.6886 183.895 50.3455 183.11C49.5406 181.064 48.6776 176.196 48.5224 172.297C47.9309 157.199 59.8392 149.441 69.1292 147.21C69.1292 147.21 65.7303 150.9 64.1448 155.424L64.1545 155.419Z" fill="black"/>
<path d="M57.6574 155.589C56.8283 156.331 56.1156 157.189 55.5434 158.135C54.9761 159.09 54.4767 160.084 54.0549 161.107C53.2161 163.158 52.6051 165.296 52.2318 167.478C51.4366 171.842 51.6888 176.327 52.9639 180.574C52.9785 180.628 52.9736 180.691 52.9494 180.739C52.9203 180.788 52.8767 180.826 52.8233 180.846C52.77 180.86 52.707 180.855 52.6585 180.831C52.61 180.802 52.5712 180.758 52.5518 180.705C51.3348 176.38 51.1554 171.832 52.0379 167.43C52.45 165.238 53.1046 163.1 53.987 161.054C54.4282 160.03 54.9422 159.046 55.524 158.096C56.1107 157.16 56.8283 156.316 57.6623 155.594L57.6574 155.589Z" fill="#FAFAFA"/>
<path d="M28.1199 163.245C28.3041 163.477 31.3588 167.347 35.8341 174.828L43.6258 176.326L37.8366 177.165L40.7894 182.174L48.4454 184.007L42.3943 184.802C42.3943 184.802 43.8877 190.727 48.1205 193.306C50.4576 194.732 51.6116 194.974 52.3486 194.315C52.8334 193.859 53.0662 191.042 53.5559 188.545C54.0456 186.048 54.2104 181.956 51.9898 176.947C51.3837 175.609 50.5933 174.358 49.6333 173.247C44.1301 166.731 33.4485 163.342 28.1199 163.254L28.1199 163.245Z" fill="#009688"/>
<path opacity="0.15" d="M28.1199 163.245C28.3041 163.477 31.3588 167.347 35.8341 174.828L43.6258 176.326L37.8366 177.165L40.7894 182.174L48.4454 184.007L42.3943 184.802C42.3943 184.802 43.8877 190.727 48.1205 193.306C50.4576 194.732 51.6116 194.974 52.3486 194.315C52.8334 193.859 53.0662 191.042 53.5559 188.545C54.0456 186.048 54.2104 181.956 51.9898 176.947C51.3837 175.609 50.5933 174.358 49.6333 173.247C44.1301 166.731 33.4485 163.342 28.1199 163.254L28.1199 163.245Z" fill="black"/>
<path opacity="0.1" d="M50.3509 179.517C51.1897 181.607 51.7279 183.808 51.9461 186.048C52.1061 188.88 52.0916 191.716 51.9073 194.548C52.0722 194.494 52.2225 194.407 52.3486 194.295C52.8334 193.84 53.0662 191.023 53.5559 188.526C54.0456 186.029 54.2104 181.936 51.9898 176.928C51.3837 175.589 50.5933 174.338 49.6333 173.228C44.1301 166.702 33.4485 163.313 28.1199 163.225C36.2607 164.816 44.8865 170.532 49.0321 176.991C49.546 177.796 49.9873 178.644 50.3509 179.522V179.517Z" fill="black"/>
<path d="M36.227 166.062C40.2271 167.967 43.98 170.518 46.894 173.921C48.3729 175.604 49.5753 177.514 50.4529 179.57C51.3063 181.636 51.8154 183.832 51.956 186.062C51.956 186.062 51.9463 186.062 51.9415 186.062C51.9366 186.062 51.9318 186.062 51.9269 186.062C51.5778 183.881 50.9524 181.752 50.065 179.73C49.1874 177.718 48.0383 175.832 46.6565 174.13C45.2455 172.433 43.6406 170.906 41.8708 169.587C40.0962 168.258 38.2053 167.09 36.2222 166.101V166.062H36.227Z" fill="#FAFAFA"/>
<path d="M76.7036 168.802C76.0442 168.763 75.3848 168.763 74.7254 168.802C72.1313 168.957 69.5664 169.427 67.0936 170.213C66.1772 170.499 65.2511 170.828 64.3396 171.187C63.8887 171.376 63.4329 171.575 62.9868 171.788C60.771 172.792 58.7394 174.159 56.9745 175.832C56.1551 176.632 55.4326 177.534 54.8314 178.509C54.7587 178.635 54.6762 178.761 54.6035 178.887C54.4144 179.216 54.2447 179.551 54.0847 179.861C52.5816 182.683 51.8204 185.84 51.8737 189.035C51.8301 191.285 52.4556 193.908 52.8483 194.339C52.9016 194.402 52.9647 194.451 53.0325 194.495C53.6532 194.936 54.6859 194.756 56.6448 193.796C60.577 191.876 62.3662 186.557 62.3662 186.557L57.1151 185.365L63.9953 184.39L67.0015 180.23L61.9831 179.032L68.9555 178.353C71.341 175.018 73.9205 171.832 76.6842 168.806L76.6988 168.797L76.7036 168.802Z" fill="#009688"/>
<path opacity="0.05" d="M74.7254 168.787C72.1314 168.942 69.5664 169.412 67.0936 170.198C66.1772 170.484 65.2511 170.814 64.3396 171.173C63.8887 171.362 63.4329 171.56 62.9868 171.774C60.771 172.777 58.7394 174.145 56.9745 175.818C56.1551 176.618 55.4326 177.519 54.8314 178.494C54.7587 178.62 54.6762 178.746 54.6035 178.872C54.4144 179.202 54.2447 179.536 54.0847 179.847C52.5816 182.669 51.8204 185.825 51.8737 189.02C51.8301 191.27 52.4556 193.893 52.8483 194.325C52.9016 194.388 52.9647 194.436 53.0325 194.48C53.1586 194.567 53.2992 194.625 53.4447 194.659C53.1683 191.154 55.3696 182.421 58.1576 178.93C61.0813 175.304 67.7676 170.164 76.6648 168.777C76.0151 168.743 75.3702 168.743 74.7205 168.787H74.7254Z" fill="black"/>
<path d="M220.854 73.4954L222.391 70.6008L221.155 67.0273V64.8406L224.947 67.0273V69.2141L223.317 72.036C223.293 72.0796 223.254 72.1135 223.206 72.1329L220.854 73.4954Z" fill="#009688"/>
<path opacity="0.2" d="M220.854 73.4954L222.391 70.6008L221.155 67.0273V64.8406L224.947 67.0273V69.2141L223.317 72.036C223.293 72.0796 223.254 72.1135 223.206 72.1329L220.854 73.4954Z" fill="black"/>
<path d="M214.056 48.7817C214.08 48.3889 214.197 48.0107 214.395 47.6713C214.594 47.3319 214.866 47.0458 215.195 46.8325L216.117 46.304C216.471 46.1246 216.859 46.0325 217.256 46.0325C217.654 46.0325 218.042 46.1246 218.396 46.304L229.921 52.9224C230.251 53.1357 230.522 53.4218 230.721 53.7612C230.92 54.1006 231.031 54.4788 231.055 54.8716V70.4599C231.031 70.8527 230.915 71.2309 230.721 71.5703C230.527 71.9097 230.251 72.1958 229.921 72.4091L228.995 72.9473C228.641 73.1267 228.253 73.2188 227.855 73.2188C227.458 73.2188 227.07 73.1267 226.716 72.9473L222.561 70.6151L220.931 73.4322C220.907 73.4758 220.873 73.5097 220.834 73.5291C220.796 73.5485 220.747 73.5582 220.699 73.5582C220.65 73.5582 220.607 73.534 220.573 73.5049C220.534 73.4758 220.51 73.437 220.495 73.3885L218.774 68.4284L215.181 66.3628C214.851 66.1495 214.58 65.8634 214.381 65.524C214.182 65.1846 214.071 64.8064 214.042 64.4137L214.051 48.7865L214.056 48.7817Z" fill="#009688"/>
<path opacity="0.2" d="M231.051 70.4944C231.027 70.8872 230.91 71.2654 230.716 71.6048C230.518 71.9442 230.246 72.2302 229.916 72.4436L228.99 72.9818C228.67 73.1418 228.316 73.2339 227.957 73.2485C227.599 73.263 227.24 73.2 226.91 73.0691C227.444 73.2727 227.856 72.9721 227.856 72.3224V56.734C227.841 56.3364 227.725 55.9533 227.521 55.6139L230.721 53.7666C230.925 54.106 231.041 54.489 231.051 54.8866V70.4944Z" fill="black"/>
<path opacity="0.5" d="M214.095 48.4571C214.226 47.9722 214.667 47.8171 215.191 48.1226L226.721 54.7652C227.055 54.9737 227.332 55.2646 227.521 55.6137L230.716 53.7664C230.527 53.4173 230.251 53.1264 229.916 52.9179L218.391 46.2801C218.037 46.1007 217.649 46.0085 217.256 46.0085C216.864 46.0085 216.476 46.1007 216.122 46.2801L215.191 46.8183C214.905 47.0025 214.662 47.2449 214.473 47.5262C214.284 47.8074 214.158 48.1274 214.095 48.462V48.4571Z" fill="white"/>
<path d="M219.346 65.7521H219.205C219.036 65.7279 218.876 65.6648 218.735 65.563C218.599 65.4612 218.488 65.3254 218.415 65.1703L216.369 60.8259C216.301 60.7047 216.262 60.5689 216.248 60.4283C216.233 60.2877 216.248 60.1471 216.296 60.0162C216.34 59.8853 216.408 59.7592 216.5 59.6574C216.592 59.5555 216.704 59.4683 216.83 59.4101C216.956 59.3519 217.091 59.318 217.232 59.3131C217.373 59.3083 217.508 59.3325 217.639 59.381C217.77 59.4295 217.887 59.5071 217.988 59.604C218.09 59.701 218.168 59.8174 218.221 59.9483L219.593 62.872L224.306 57.3834C224.394 57.2767 224.5 57.1894 224.621 57.1264C224.743 57.0633 224.874 57.0246 225.009 57.0149C225.145 57.0052 225.281 57.0149 225.412 57.0633C225.543 57.107 225.664 57.1749 225.766 57.2621C225.868 57.3494 225.955 57.4609 226.013 57.5821C226.076 57.7034 226.11 57.8391 226.12 57.9749C226.129 58.1106 226.11 58.2464 226.066 58.3773C226.023 58.5082 225.95 58.6246 225.863 58.7264L220.117 65.403C220.02 65.5145 219.904 65.6067 219.768 65.6648C219.632 65.7279 219.487 65.757 219.341 65.757L219.346 65.7521Z" fill="#FAFAFA"/>
</svg>
