<svg width="100" height="100" viewBox="0 0 100 100" fill="none" xmlns="http://www.w3.org/2000/svg">
<g clip-path="url(#clip0_657_1798)">
<mask id="mask0_657_1798" style="mask-type:luminance" maskUnits="userSpaceOnUse" x="0" y="0" width="100" height="100">
<path d="M100 50C100 22.3858 77.6142 0 50 0C22.3858 0 0 22.3858 0 50C0 77.6142 22.3858 100 50 100C77.6142 100 100 77.6142 100 50Z" fill="white"/>
</mask>
<g mask="url(#mask0_657_1798)">
<path fill-rule="evenodd" clip-rule="evenodd" d="M0 66.6665H100V99.9998H0V66.6665Z" fill="#FFD018"/>
<path fill-rule="evenodd" clip-rule="evenodd" d="M0 33.3335H100V66.6668H0V33.3335Z" fill="#E31D1C"/>
<path fill-rule="evenodd" clip-rule="evenodd" d="M0 0H100V33.3333H0V0Z" fill="#272727"/>
</g>
<path d="M99.5 50C99.5 77.3381 77.3381 99.5 50 99.5C22.6619 99.5 0.5 77.3381 0.5 50C0.5 22.6619 22.6619 0.5 50 0.5C77.3381 0.5 99.5 22.6619 99.5 50Z" stroke="black"/>
</g>
<defs>
<clipPath id="clip0_657_1798">
<rect width="100" height="100" fill="white"/>
</clipPath>
</defs>
</svg>
