<svg width="52" height="54" viewBox="0 0 52 54" fill="none" xmlns="http://www.w3.org/2000/svg">
<path d="M10.2387 7.4324V9.82963C9.37397 10.596 7.31052 11.0528 5.77767 11.0528C4.24482 11.0528 0 10.0949 0 5.58535C0 1.0758 4.04339 0.103155 5.66959 0.103155C7.29578 0.103155 9.03989 0.402814 10.0471 1.07581V3.18811C10.0471 3.45338 9.68841 3.42882 9.68841 3.18811C9.66384 2.82951 8.70581 0.672989 6.30827 0.7172C3.71913 0.771236 1.97011 2.80496 1.97011 5.48711C1.97011 8.16926 3.67 10.4781 6.23949 10.4044C7.0747 10.3798 7.9443 10.1195 8.3619 9.76577L8.37173 7.42748C8.37173 6.7594 7.96395 6.51869 7.55617 6.51869C7.29087 6.51869 7.29087 6.13553 7.55617 6.13553H11.0591C11.3244 6.13553 11.3244 6.54325 11.0591 6.51869C10.6563 6.51869 10.2436 6.7594 10.2436 7.42748L10.2387 7.4324ZM33.8406 3.18811C33.8406 3.45338 33.5753 3.42882 33.5753 3.18811C33.5508 2.82951 32.5927 0.599311 30.1952 0.648435C27.6061 0.697558 25.8521 2.80986 25.8521 5.49201C25.8521 8.17416 27.5324 10.5517 30.097 10.483C32.6615 10.4093 33.8849 7.86959 33.9831 7.53555C34.0814 7.20151 34.2484 7.25064 34.2484 7.511V9.47594C33.1921 10.2423 31.2024 11.0577 29.6695 11.0577C28.1367 11.0577 23.8918 10.0998 23.8918 5.59026C23.8918 1.08072 27.9205 0 29.5516 0C31.1827 0 32.8384 0.407727 33.8456 1.07581V3.18811H33.8406ZM51.0164 0.260354C51.3997 0.260354 51.3997 0.618962 51.0164 0.618962C50.6087 0.618962 50.2009 0.859655 50.2009 1.52774V9.51523C50.2009 10.1833 50.6087 10.424 51.0164 10.424C51.3997 10.424 51.3997 10.9054 51.0164 10.9054H47.4889C47.1057 10.9054 47.1057 10.424 47.4889 10.424C47.8967 10.424 48.3045 10.1833 48.3045 9.51523V1.52774C48.3045 0.854743 47.8967 0.618962 47.4889 0.618962C47.1057 0.618962 47.1057 0.260354 47.4889 0.260354H51.0164ZM22.978 0.260354C23.3612 0.260354 23.3612 0.618962 22.978 0.618962C22.5703 0.618962 22.1625 0.859655 22.1625 1.52774L22.1133 6.76923C22.1133 9.27944 20.0794 11.1216 17.5688 11.1216C15.0583 11.1216 13.098 9.27944 13.098 6.76923V1.52774C13.098 0.854743 12.6902 0.618962 12.2825 0.618962C11.8993 0.618962 11.8993 0.260354 12.2825 0.260354H15.8346C16.2178 0.260354 16.2178 0.618962 15.8346 0.618962C15.4268 0.618962 15.019 0.859655 15.019 1.52774V7.37835C15.019 9.1468 16.4634 10.5812 18.2321 10.5812C20.0008 10.5812 21.4354 8.78821 21.4354 7.01976L21.3469 1.52774C21.3469 0.854743 20.9391 0.618962 20.5314 0.618962C20.1482 0.618962 20.1482 0.260354 20.5314 0.260354H22.978ZM26.2599 23.7561C28.3921 22.7 30.7406 22.1547 33.1233 22.1596C41.667 22.1596 48.5894 29.0861 48.5894 37.6287C48.5894 46.1712 41.6621 53.0927 33.1184 53.0927C30.7406 53.0927 28.3971 52.5426 26.2648 51.4913C18.6055 55.2738 9.33467 52.1299 5.55167 44.4716C1.76867 36.8132 4.91298 27.5436 12.5723 23.7611C14.6997 22.7098 17.0382 22.1646 19.4112 22.1646C21.8775 22.1646 24.1965 22.7393 26.2648 23.7611L26.2599 23.7561ZM29.3797 25.785C31.7772 27.7892 33.5017 30.4763 34.3221 33.4875H31.1189C30.2198 30.9429 28.515 28.7618 26.2648 27.2783C24.0196 28.7668 22.3148 30.9479 21.4157 33.4875H18.2124C19.0427 30.4763 20.7721 27.7843 23.1746 25.7751C21.9561 25.3969 20.6837 25.2102 19.4063 25.2151C12.5527 25.22 7.00101 30.7857 7.00592 37.6385C7.01083 44.4912 12.5772 50.0422 19.4309 50.0373C20.6837 50.0373 21.9316 49.8457 23.1254 49.4723C19.9713 46.8098 18.0208 42.988 17.7113 38.8715H25.071V41.9564H21.4894C22.4081 44.4175 24.0835 46.5249 26.2746 47.979C28.4658 46.5299 30.1363 44.4175 31.0501 41.9564H27.4685V38.8715H34.8282C34.499 42.988 32.5289 46.8049 29.36 49.4576C35.8943 51.5355 42.8756 47.9249 44.9538 41.3964C47.032 34.863 43.421 27.8825 36.8916 25.8046C34.4499 25.0285 31.8263 25.0235 29.3846 25.7997L29.3797 25.785ZM45.5729 3.18811C45.5729 3.45338 45.3076 3.42882 45.3076 3.18811C45.283 2.82951 44.325 0.599311 41.9274 0.648435C39.3383 0.697558 37.5843 2.80986 37.5843 5.49201C37.5843 8.17416 39.2646 10.5517 41.8292 10.483C44.3937 10.4142 45.6171 7.86959 45.7153 7.53555C45.8136 7.20151 45.9806 7.25064 45.9806 7.511V9.47594C44.9243 10.2423 42.9346 11.0577 41.3968 11.0577C39.8591 11.0577 35.6191 10.0998 35.6191 5.59026C35.6191 1.08072 39.6478 0 41.2789 0C42.91 0 44.5657 0.407727 45.5729 1.07581V3.18811Z" fill="black"/>
</svg>
