<svg width="87" height="90" viewBox="0 0 87 90" fill="none" xmlns="http://www.w3.org/2000/svg">
<path d="M17.3558 12.5988V16.6624C15.89 17.9614 12.3922 18.7358 9.79386 18.7358C7.19549 18.7358 0 17.1121 0 9.46784C0 1.82362 6.85404 0.174861 9.61064 0.174861C12.3672 0.174861 15.3237 0.68282 17.031 1.82362V5.40424C17.031 5.8539 16.423 5.81227 16.423 5.40424C16.3814 4.79637 14.7574 1.1408 10.6933 1.21574C6.30438 1.30734 3.33957 4.75475 3.33957 9.30132C3.33957 13.8479 6.2211 17.7616 10.5767 17.6367C11.9925 17.595 13.4666 17.1537 14.1744 16.5542L14.1911 12.5905C14.1911 11.458 13.4999 11.05 12.8086 11.05C12.3589 11.05 12.3589 10.4005 12.8086 10.4005H18.7466C19.1963 10.4005 19.1963 11.0916 18.7466 11.05C18.0637 11.05 17.3641 11.458 17.3641 12.5905L17.3558 12.5988ZM57.364 5.40424C57.364 5.8539 56.9143 5.81227 56.9143 5.40424C56.8727 4.79637 55.2487 1.01591 51.1846 1.09918C46.7957 1.18245 43.8225 4.76306 43.8225 9.30963C43.8225 13.8562 46.6707 17.8865 51.018 17.7699C55.3653 17.645 57.439 13.3399 57.6055 12.7737C57.7721 12.2074 58.0553 12.2907 58.0553 12.7321V16.0629C56.2647 17.3619 52.8918 18.7442 50.2935 18.7442C47.6951 18.7442 40.4996 17.1204 40.4996 9.47618C40.4996 1.83195 47.3287 0 50.0936 0C52.8585 0 55.6651 0.691147 57.3723 1.82362V5.40424H57.364ZM86.4791 0.441332C87.1287 0.441332 87.1287 1.04922 86.4791 1.04922C85.7879 1.04922 85.0966 1.45722 85.0966 2.5897V16.1295C85.0966 17.262 85.7879 17.67 86.4791 17.67C87.1287 17.67 87.1287 18.486 86.4791 18.486H80.4995C79.8499 18.486 79.8499 17.67 80.4995 17.67C81.1907 17.67 81.882 17.262 81.882 16.1295V2.5897C81.882 1.44889 81.1907 1.04922 80.4995 1.04922C79.8499 1.04922 79.8499 0.441332 80.4995 0.441332H86.4791ZM38.9506 0.441332C39.6002 0.441332 39.6002 1.04922 38.9506 1.04922C38.2593 1.04922 37.5681 1.45722 37.5681 2.5897L37.4848 11.4747C37.4848 15.7298 34.037 18.8524 29.7813 18.8524C25.5257 18.8524 22.2027 15.7298 22.2027 11.4747V2.5897C22.2027 1.44889 21.5115 1.04922 20.8203 1.04922C20.1707 1.04922 20.1707 0.441332 20.8203 0.441332H26.8415C27.4911 0.441332 27.4911 1.04922 26.8415 1.04922C26.1503 1.04922 25.459 1.45722 25.459 2.5897V12.5072C25.459 15.5049 27.9075 17.9365 30.9056 17.9365C33.9037 17.9365 36.3355 14.8971 36.3355 11.8994L36.1856 2.5897C36.1856 1.44889 35.4944 1.04922 34.8032 1.04922C34.1536 1.04922 34.1536 0.441332 34.8032 0.441332H38.9506ZM44.5137 40.2696C48.1281 38.4793 52.109 37.555 56.1481 37.5633C70.6307 37.5633 82.365 49.3044 82.365 63.7852C82.365 78.2659 70.6224 89.9987 56.1398 89.9987C52.109 89.9987 48.1365 89.0661 44.5221 87.2841C31.5386 93.6959 15.8234 88.3666 9.41076 75.3847C2.99812 62.4029 8.32811 46.6897 21.3116 40.2779C24.9177 38.4959 28.8819 37.5716 32.9044 37.5716C37.0851 37.5716 41.0159 38.5459 44.5221 40.2779L44.5137 40.2696ZM49.8021 43.7086C53.8662 47.1061 56.7894 51.661 58.1802 56.7655H52.7502C51.2262 52.4521 48.3363 48.7548 44.5221 46.2401C40.7161 48.7632 37.8263 52.4604 36.3022 56.7655H30.8723C32.2798 51.661 35.2112 47.0978 39.2837 43.692C37.2183 43.0508 35.0613 42.7344 32.896 42.7427C21.2783 42.751 11.8676 52.1856 11.8759 63.8018C11.8842 75.418 21.32 84.8276 32.9377 84.8193C35.0613 84.8193 37.1767 84.4945 39.2004 83.8616C33.8538 79.3484 30.5475 72.87 30.0228 65.8919H42.4983V71.1213H36.4272C37.9845 75.2931 40.8244 78.8654 44.5387 81.3302C48.2531 78.8738 51.0846 75.2931 52.6337 71.1213H46.5625V65.8919H59.038C58.48 72.87 55.1404 79.3401 49.7688 83.8367C60.8452 87.359 72.6794 81.2386 76.2022 70.172C79.725 59.097 73.6038 47.2643 62.5358 43.742C58.3967 42.4263 53.9495 42.4179 49.8104 43.7336L49.8021 43.7086ZM77.2515 5.40424C77.2515 5.8539 76.8018 5.81227 76.8018 5.40424C76.7602 4.79637 75.1362 1.01591 71.0721 1.09918C66.6832 1.18245 63.71 4.76306 63.71 9.30963C63.71 13.8562 66.5583 17.8865 70.9055 17.7699C75.2528 17.6533 77.3265 13.3399 77.4931 12.7737C77.6596 12.2074 77.9428 12.2907 77.9428 12.7321V16.0629C76.1522 17.3619 72.7794 18.7442 70.1727 18.7442C67.566 18.7442 60.3788 17.1204 60.3788 9.47618C60.3788 1.83195 67.2078 0 69.9728 0C72.7377 0 75.5443 0.691147 77.2515 1.82362V5.40424Z" fill="black"/>
</svg>
