<svg width="107" height="72" viewBox="0 0 107 72" fill="none" xmlns="http://www.w3.org/2000/svg">
<path d="M42.2181 32.4423C43.083 31.7705 44.157 31.5813 45.1169 31.1933C45.9913 30.7108 46.2765 29.7457 45.9913 28.7806C45.8963 28.3927 45.6967 28.1088 45.3166 28.0047C43.8624 27.6168 42.6078 28.3927 41.1537 28.194C40.859 28.0994 40.5739 27.9007 40.5739 27.6168C40.764 26.5571 41.0586 25.4974 41.4482 24.4377C43.6722 19.0445 46.286 13.9352 48.605 8.64605C49.0897 7.30248 50.0592 5.94946 49.5745 4.50181C49.1848 3.14879 47.3505 3.53672 46.286 3.92465C45.0219 4.50181 43.9574 5.26821 42.7979 5.94C42.1231 6.32793 41.2487 6.12923 40.5739 6.51716C38.54 7.96481 37.7701 10.1788 36.8006 12.2037C35.6411 14.4177 34.8618 16.6317 33.8924 18.8458C32.2481 22.7062 30.3188 26.3584 28.57 30.2093L19.1607 32.3193C19.1607 32.3193 25.8517 16.7169 28.6555 8.72174C28.7505 8.33381 28.6554 7.75665 28.3608 7.4728C27.2963 6.60232 25.8422 7.08486 24.6826 7.4728C22.5537 12.3834 20.5008 17.2373 18.2958 22.2142C16.8416 25.4879 15.9957 27.0491 14.7412 30.4269C14.5511 30.9095 13.6482 33.6818 13.6482 33.6818C8.22121 35.6687 5.45544 36.3973 1.1595 37.7219C0.874368 38.9709 0.190086 40.0306 0 41.289C1.06448 41.3836 2.31904 41.289 3.19343 41.6769C3.86824 41.9702 3.48813 43.1246 3.97285 43.7017C5.03733 44.5722 6.39641 44.8561 7.2613 46.0104C7.74602 46.5876 7.84105 47.354 7.84105 48.1298C7.74601 50.2493 6.68159 52.17 6.00678 54.2894C5.13239 57.0333 4.19139 59.7677 3.20294 62.4738C2.90831 63.2497 3.39306 64.1107 3.59265 64.8865C3.88729 65.3691 4.46708 65.6529 5.04684 65.2745C5.53156 64.8865 5.82619 64.3094 6.11132 63.8268C7.08076 61.8966 7.75549 59.9759 8.53484 58.0457C10.1791 53.6176 11.5382 49.1801 13.1825 44.752C16.4709 44.0802 19.6644 43.1151 23.0574 43.1151C23.2475 43.1151 23.1525 43.5977 23.1525 43.891C21.5082 50.6372 19.1892 56.5129 17.64 63.155C17.45 63.7322 17.2503 64.4986 17.5449 64.7919C19.3792 66.618 20.9285 68.4536 22.3827 70.6677C22.4777 70.7623 22.6773 70.8569 22.8674 70.8569C23.5422 70.9515 24.3216 70.9515 24.9013 70.9515C25.6807 70.8569 25.7757 69.6931 26.0608 69.0213C28.6745 62.9563 30.2236 56.7873 32.153 50.5236C32.8278 48.4988 33.5027 46.5781 34.0919 44.4587C34.5766 42.5285 35.0614 40.7024 35.8313 38.8763C36.1259 38.2991 36.6106 37.9112 37.0858 37.5232C38.7205 35.6782 40.1747 33.8521 42.2086 32.4044L42.2181 32.4423ZM106.173 1.32267C105.013 -0.408821 102.494 -0.0208905 101.04 1.02936C97.172 3.92465 96.3926 8.54197 94.5583 12.5916C94.0736 13.5567 93.4938 14.4177 93.1041 15.2882C88.5515 24.731 84.9779 34.1738 80.5204 43.6071C79.5225 45.5941 78.8287 47.704 78.0019 50.06C77.9068 50.1546 77.8117 50.1546 77.7072 50.2492C77.4125 49.6721 76.5477 49.2842 76.6427 48.6124C77.1274 40.428 78.2869 32.5274 79.3514 24.239C79.646 22.3088 79.9312 20.5773 80.3209 18.6566C80.7105 16.3479 81.2903 14.4177 81.775 12.109C82.1647 10.4722 82.2598 8.9299 82.3548 7.29302C82.3548 5.65614 82.4498 3.82057 81.775 2.27831C81.2903 1.12398 80.3209 -0.323666 78.7717 0.064265C78.1919 0.253499 77.7072 0.736047 77.1274 0.934744C75.4832 1.32267 73.2592 0.840126 72.4798 2.57162C66.4826 16.8304 61.854 31.2312 57.577 46.1145C56.9972 48.1393 56.2274 49.9654 55.9328 52.0848C55.6382 54.015 55.1535 55.7465 54.7733 57.6767C54.3836 59.8908 53.5187 61.9156 53.3191 64.1296C53.129 65.2839 53.129 66.3437 53.2146 67.498C53.5757 68.5577 55.6572 67.356 56.313 66.4383C56.6076 64.3188 57.0923 62.294 57.577 60.08C58.4514 55.5478 59.801 51.413 61.1506 47.0796C63.1846 40.6172 65.5132 34.2589 68.1174 28.0047C68.3074 27.4276 68.412 26.6517 69.0868 26.1786C69.0868 30.4175 68.3074 34.5617 68.2124 38.8006C68.1173 45.2535 67.8227 51.6117 67.8227 58.0646C67.8227 58.7364 68.4975 59.1244 68.9822 59.6069C70.9211 61.1492 72.7839 62.5306 73.8864 64.7446C74.0955 65.1704 74.7893 64.4229 75.179 64.0444C76.1484 62.9847 76.9184 61.7358 77.4031 60.4774C78.4676 57.97 79.437 55.5667 80.5015 53.0594C84.0751 44.7804 87.6582 36.5865 91.821 28.5914C91.9161 28.686 92.0112 28.7806 92.0112 28.8847C90.7566 41.412 88.333 53.4568 87.6581 65.88C87.6581 66.5518 88.4375 67.0343 88.7226 67.6115C89.3974 69.2484 90.1768 70.8853 91.726 71.7558C92.8855 72.3329 94.4348 71.8504 94.8244 70.696C95.0145 69.8256 95.0145 68.8699 95.119 67.9048C95.3091 66.9397 95.6038 65.9746 95.6989 65.0095C96.0885 62.5022 96.5732 60.1935 97.0484 57.5915C97.7232 53.5514 98.398 49.8802 99.1774 45.8401C101.696 32.5464 104.215 20.6057 106.629 7.31195C107.009 5.2966 107.399 3.08256 106.144 1.3416L106.173 1.32267ZM50.1447 48.8678C48.8141 48.4231 47.5501 50.0695 46.7612 50.94C46.2765 50.0695 45.8868 48.7259 46.5711 48.0447C47.9302 46.6916 48.4624 45.6414 47.8351 43.6166C47.2553 41.5918 44.6417 41.1092 42.7979 41.7905C41.4768 42.2446 40.954 44.0424 41.0776 45.6698C41.1251 46.3321 41.2772 46.9755 41.5339 47.477C41.7239 47.8649 41.9235 48.5367 42.2086 48.9246C40.9636 49.2652 38.9582 51.659 37.7321 54.1569C37.1049 55.4437 36.6866 56.7495 36.6866 57.8281C36.6866 59.8529 39.5379 61.1965 41.2392 60.6666C42.3797 60.3071 43.1781 59.5123 44.2426 58.9351C45.212 59.7015 45.8868 60.7612 47.0463 61.5371C47.1508 61.5371 47.341 61.5371 47.341 61.4425C47.7307 59.5123 46.8562 57.5915 47.7306 55.9452C48.4054 54.7909 49.4699 54.015 50.2492 52.8607C51.0571 51.6496 51.5133 49.2652 50.1447 48.8678ZM43.5677 55.4627C43.4726 56.2385 42.7883 56.5224 42.0185 56.7116C41.6288 56.8062 41.2391 56.617 40.954 56.2291C40.7259 55.8601 40.6689 55.4154 40.783 54.999C40.878 54.649 41.0396 54.3083 41.2392 54.0056C41.5338 53.523 42.2181 53.2013 42.7884 53.4284C43.7578 53.8163 43.7578 54.6868 43.5677 55.4532V55.4627ZM44.9173 46.5024C44.4421 46.3794 44.138 45.8874 43.9669 45.3765C43.8719 45.0831 43.7959 44.7898 43.7674 44.4871C43.7103 43.995 44.157 43.5787 44.6417 43.6166C45.2024 43.6639 45.9913 44.0045 45.8963 44.7709C45.8013 45.4427 45.7062 46.597 44.9268 46.5024H44.9173Z" fill="#CF4037"/>
</svg>
