<svg width="100" height="100" viewBox="0 0 100 100" fill="none" xmlns="http://www.w3.org/2000/svg">
<g clip-path="url(#clip0_657_2374)">
<mask id="mask0_657_2374" style="mask-type:luminance" maskUnits="userSpaceOnUse" x="0" y="0" width="100" height="100">
<path d="M100 50C100 22.3858 77.6142 0 50 0C22.3858 0 0 22.3858 0 50C0 77.6142 22.3858 100 50 100C77.6142 100 100 77.6142 100 50Z" fill="white"/>
</mask>
<g mask="url(#mask0_657_2374)">
<mask id="mask1_657_2374" style="mask-type:luminance" maskUnits="userSpaceOnUse" x="0" y="0" width="100" height="100">
<path d="M0 0H100V100H0.0240208L0 0Z" fill="white"/>
</mask>
<g mask="url(#mask1_657_2374)">
<path fill-rule="evenodd" clip-rule="evenodd" d="M-25 0H125V100H-25V0Z" fill="#BE0027"/>
<path fill-rule="evenodd" clip-rule="evenodd" d="M21.024 51.4725C23.6873 48.2308 29.2058 51.4005 33.7166 49.0712C28.366 49.3594 25.4628 46.5018 21.2399 46.9101C25.6068 44.2206 29.3257 47.7745 34.2204 46.3337C27.7422 45.8055 28.0301 42.8999 22.1517 42.4917C27.3823 40.2584 29.9496 44.7969 35.0842 43.7643C29.0378 42.3716 28.246 38.8177 23.7593 38.0492C30.3095 37.0647 29.8776 40.9308 36.3078 41.4111C29.7816 38.6256 31.5091 36.1762 26.0386 34.0631C32.157 33.919 31.7491 38.1453 37.9154 39.2499C32.6368 35.8881 33.2847 32.8144 28.9179 30.4131C34.1004 30.5092 34.6043 35.816 39.8829 37.4489C35.1802 33.7269 36.4038 30.5572 32.3489 27.2194C37.4835 28.42 36.7397 33.0065 42.0903 35.9121C38.1314 31.5177 39.6429 28.348 36.1879 24.722C41.1305 26.3309 39.2591 30.6772 44.3937 34.8075C41.4425 29.9569 43.266 26.8592 40.3627 22.7529C44.9695 25.1543 42.7381 29.5726 47.0089 33.991C44.9935 29.0203 47.0089 25.9227 44.9455 21.5043C48.8804 24.4579 46.5531 29.1884 49.7202 33.7269C48.5685 27.4835 51.2558 26.451 50.416 21C53.3912 24.674 50.0561 28.348 52.3355 33.7269C52.0956 27.6036 55.3347 26.1628 54.7588 21.2401C57.734 25.6585 53.1033 29.5006 55.0468 34.2312C55.5266 28.396 59.3656 26.9072 59.4376 22.3687C61.7649 26.523 56.6783 29.5246 57.5181 35.0476C59.1736 28.9483 63.2525 28.2039 63.7564 24.0977C65.148 28.9003 59.5815 31.1575 59.9174 36.4884C61.573 31.0855 66.6596 30.4371 67.7153 26.451C68.3392 31.5417 63.3245 32.4542 61.9329 38.0733C64.5722 33.5108 69.1789 33.1026 71.2424 29.4766C71.0744 34.5193 65.412 35.1677 63.6844 39.8983C66.9475 35.8881 71.0264 36.5845 74.2895 33.0305C73.9536 37.593 68.1952 37.3289 65.124 42.0354C68.6751 38.7696 74.0016 39.7542 76.7129 36.9446C76.5689 40.9548 69.5148 40.6667 66.1558 44.2446C70.2826 42.0114 75.4892 43.3321 78.5124 41.219C77.9366 44.7489 70.4986 43.9564 66.8996 46.6939C71.8182 45.3252 75.6092 47.4143 79.6161 45.9015C77.6726 49.3354 70.9065 47.1742 67.3074 49.4074C71.5783 48.687 76.1131 51.2564 80 50.44C78.7283 53.3936 71.3144 50.2479 67.2834 52.1209C72.0821 52.0488 75.2013 55.1225 79.6161 54.9064C77.2168 57.5959 70.6905 53.8978 66.8996 54.5222C71.5303 55.4827 75.0573 59.3248 78.5844 59.5169C75.7052 61.7261 70.3066 56.6833 65.9158 57.3317C70.4266 58.5324 74.2176 63.6711 76.8089 63.7912C74.0256 65.7123 68.5071 59.3968 64.7401 59.6129C69.2989 61.7021 71.4103 66.9369 74.4335 67.6813C70.7145 68.882 67.0435 61.9902 63.0366 61.7501C67.6673 64.6797 67.9313 69.1461 71.5063 71.1152C67.7633 72.0757 65.076 64.2715 61.1171 63.6231C64.9321 66.4086 65.4839 72.3879 68.0272 74.2849C64.1883 74.477 62.8207 66.3366 58.9097 65.1599C62.2688 67.9695 61.453 74.0448 64.0443 76.6622C60.0854 75.8457 60.5893 68.7379 56.4384 66.3366C59.4136 70.1306 57.878 75.4855 59.8455 78.5112C55.9585 76.9503 57.6621 70.5869 53.9431 66.9849C55.9585 71.0191 53.7991 75.7017 55.3827 79.5918C51.8556 77.8628 54.231 70.3468 51.5197 67.3451C52.7674 72.0037 50.464 75.8457 51.3998 80C47.7767 75.7977 51.9516 71.5954 48.8085 67.2731C49.6242 72.2198 46.1932 75.6296 46.745 79.7599C43.8658 76.398 48.2806 70.9951 46.0492 66.7688C46.5291 71.5954 42.0903 75.8217 42.4022 78.8714C40.0748 74.9813 44.9935 70.3708 43.6739 65.9284C43.3859 70.5389 38.9231 73.0362 38.0834 77.2145C36.5718 72.604 41.8983 69.2662 41.4425 64.7277C39.9069 69.0501 35.588 70.779 34.0525 74.9573C32.8048 70.3468 39.1151 67.8974 39.283 63.0468C37.3396 67.6093 32.157 68.5938 30.4534 72.0757C29.8056 67.5132 37.0516 65.4481 37.3156 61.1017C34.9882 65.28 29.3257 65.4241 27.3583 68.7619C27.0704 64.1994 34.7003 63.6231 35.9 58.8445C33.5726 62.3985 27.3583 61.9662 24.791 64.8478C25.1989 60.5975 33.4286 60.3333 34.7483 56.5393C31.6771 59.4929 25.9906 58.2682 22.7515 60.6215C24.551 56.4432 32.3009 57.3317 34.0285 54.3061C30.6214 56.107 24.551 54.3781 21.5519 56.1551C24.2871 52.2169 30.3095 54.5702 33.7166 51.8327C28.1741 52.6492 24.839 50.44 21 51.4725H21.024Z" fill="#FFFF00"/>
<path fill-rule="evenodd" clip-rule="evenodd" d="M69.9879 49.8137C70.0801 52.4306 69.6442 55.0393 68.7064 57.4841C67.7685 59.929 66.3479 62.1599 64.5291 64.0438C62.7104 65.9277 60.5309 67.4259 58.1206 68.4493C55.7103 69.4726 53.1185 70 50.5 70C47.8815 70 45.2897 69.4726 42.8794 68.4493C40.4691 67.4259 38.2896 65.9277 36.4709 64.0438C34.6521 62.1599 33.2315 59.929 32.2936 57.4841C31.3558 55.0393 30.9199 52.4306 31.0121 49.8137C31.1899 44.7639 33.321 39.9804 36.9562 36.4709C40.5915 32.9614 45.4471 31 50.5 31C55.5529 31 60.4085 32.9614 64.0438 36.4709C67.679 39.9804 69.8101 44.7639 69.9879 49.8137Z" fill="#FFFF00"/>
<path fill-rule="evenodd" clip-rule="evenodd" d="M66.9758 50.0061C66.9758 52.2377 66.5364 54.4476 65.6826 56.5094C64.8289 58.5712 63.5776 60.4446 62.0001 62.0226C60.4227 63.6006 58.5499 64.8524 56.4889 65.7064C54.4278 66.5604 52.2188 67 49.9879 67C47.757 67 45.548 66.5604 43.4869 65.7064C41.4258 64.8524 39.5531 63.6006 37.9756 62.0226C36.3982 60.4446 35.1468 58.5712 34.2931 56.5094C33.4394 54.4476 33 52.2377 33 50.0061C33 45.4958 34.7911 41.1702 37.9792 37.981C41.1673 34.7917 45.4913 33 50 33C54.5087 33 58.8327 34.7917 62.0208 37.981C65.2089 41.1702 67 45.4958 67 50.0061H66.9758Z" fill="#BE0027"/>
<path fill-rule="evenodd" clip-rule="evenodd" d="M65 50.5C65 54.3456 63.4723 58.0338 60.7531 60.753C58.0338 63.4723 54.3456 65 50.5 65C46.6544 65 42.9662 63.4723 40.2469 60.753C37.5277 58.0338 36 54.3456 36 50.5C36 46.6544 37.5277 42.9662 40.2469 40.247C42.9662 37.5277 46.6544 36 50.5 36C54.3456 36 58.0338 37.5277 60.7531 40.247C63.4723 42.9662 65 46.6544 65 50.5Z" fill="#FFFF00"/>
<path fill-rule="evenodd" clip-rule="evenodd" d="M37.7979 41.0082C41.8014 40.9356 46.7637 41.2988 50.0479 43.9627C53.5659 41.7382 57.7098 40.7427 61.8425 41.1293L64 45.1009C60.8836 44.786 57.839 45.2219 54.2431 46.6992C56.4288 48.3281 58.1858 50.4735 59.3601 52.9476C60.5345 55.4216 61.0905 58.1488 60.9795 60.8902C60.4521 61.5683 59.637 62.2948 59.1096 62.9487C59.8767 57.3546 56.9521 51.0824 52.6849 47.7889C56.137 52.8503 58.1986 57.3788 57.6233 63.651L55.6575 64.886C56.5685 59.3646 55.2979 52.8987 51.2466 49.1451C52.7943 51.4566 53.8749 54.0542 54.4261 56.7887C54.9774 59.5233 54.9885 62.3409 54.4589 65.0798C53.8356 65.2735 52.8767 65.8063 52.2295 66C52.9942 63.4143 53.2016 60.6931 52.8377 58.0196C52.4738 55.3461 51.5471 52.7825 50.1199 50.5012C48.7195 52.7671 47.8135 55.3085 47.4621 57.956C47.1107 60.6035 47.3221 63.2962 48.0822 65.8547L46.0205 65.2493C44.9178 59.3162 46.4521 52.6565 49.113 49.1693C46.4041 50.7676 43.839 57.5725 44.5582 64.5228L42.7363 63.6752C41.8493 58.4928 44.1747 51.7363 47.5308 47.8374C43.7431 50.259 40.6507 56.168 41.2021 62.537C40.6267 62.0284 40.0753 61.7621 39.5 61.2535C38.8288 55.6836 42.0171 50.0895 45.7329 46.7234C42.6621 45.4096 39.3258 44.8534 36 45.1009C36.5993 43.8174 37.1986 42.3159 37.7979 41.0324V41.0082Z" fill="#BE0027"/>
</g>
</g>
<path d="M99.5 50C99.5 77.3381 77.3381 99.5 50 99.5C22.6619 99.5 0.5 77.3381 0.5 50C0.5 22.6619 22.6619 0.5 50 0.5C77.3381 0.5 99.5 22.6619 99.5 50Z" stroke="black"/>
</g>
<defs>
<clipPath id="clip0_657_2374">
<rect width="100" height="100" fill="white"/>
</clipPath>
</defs>
</svg>
