<svg width="100" height="100" viewBox="0 0 100 100" fill="none" xmlns="http://www.w3.org/2000/svg">
<g clip-path="url(#clip0_657_6102)">
<mask id="mask0_657_6102" style="mask-type:luminance" maskUnits="userSpaceOnUse" x="0" y="0" width="100" height="100">
<path d="M100 50C100 22.3858 77.6142 0 50 0C22.3858 0 0 22.3858 0 50C0 77.6142 22.3858 100 50 100C77.6142 100 100 77.6142 100 50Z" fill="white"/>
</mask>
<g mask="url(#mask0_657_6102)">
<path fill-rule="evenodd" clip-rule="evenodd" d="M0 0H100V100H0V0Z" fill="#6FDCFF"/>
<path fill-rule="evenodd" clip-rule="evenodd" d="M8.39923 97.2654C9.08281 97.91 8.84844 99.0233 10.743 98.8867C13.6141 98.8867 13.6922 97.1288 13.6922 95.8983C13.6922 94.6679 9.39531 92.9688 9.20002 91.1525C9.00469 89.3358 10.1961 88.8475 11.1922 88.8475C12.1688 88.8475 12.8719 89.4337 12.8719 89.9217C12.8719 90.41 12.3836 90.5663 11.7 90.5663C11.0164 90.5663 11.993 90.215 11.3875 89.9217C10.7821 89.6287 10.4109 90.3517 10.4109 90.8008C10.4109 91.2304 11.8953 91.3671 12.8719 91.0546C13.0672 92.0312 13.1844 92.09 11.7781 93.75C12.7742 93.1054 12.8719 92.9688 13.9656 93.3204C12.8719 92.3829 13.6922 90.4688 13.7313 89.9804C13.7703 89.4921 13.5359 88.9063 13.0867 88.6133C12.2859 87.91 10.5477 87.8712 9.51252 88.34C7.98906 89.0037 7.91094 90.9962 8.32111 91.66L12.5203 95.9571C12.8133 96.465 12.9109 97.8712 11.1336 97.9492C9.23906 98.0858 8.59456 95.5275 8.26252 94.6679C7.81331 95.6054 7.32502 98.1837 5.43048 98.0275C3.65314 97.9687 3.30158 96.5625 3.59454 96.0546L7.91094 91.66C8.30156 90.9962 8.24298 89.0037 6.73906 88.34C5.6844 87.8712 3.94611 87.91 3.14533 88.6329C2.71564 88.9063 2.46173 89.4921 2.50079 89.9804C2.53986 90.4688 3.36017 92.3829 2.26642 93.3008C3.36017 92.9492 3.43829 93.1054 4.4344 93.75C3.0672 92.09 3.14533 92.0117 3.36017 91.035C4.33673 91.3671 5.84065 91.2304 5.84065 90.8008C5.84065 90.3517 5.45002 89.6287 4.84456 89.9217C4.25861 90.215 5.23519 90.5663 4.55156 90.5663C3.84845 90.5663 3.36017 90.4296 3.36017 89.9217C3.36017 89.4142 4.04376 88.8475 5.03986 88.8475C6.03594 88.8475 7.22736 89.3554 7.01252 91.1525C6.81719 92.9492 2.42267 94.9217 2.42267 96.1525C2.42267 97.3829 2.73517 98.8867 5.60627 98.8867C7.50081 99.0233 7.71565 97.91 8.39923 97.2462V97.2654Z" fill="#FFE400"/>
<path fill-rule="evenodd" clip-rule="evenodd" d="M8.16423 71.4847C8.84786 70.8206 9.39473 68.8476 11.2892 69.0039C14.1604 69.0039 15.2541 70.586 15.2541 71.8164C15.2541 73.0472 9.39473 83.086 9.1994 84.9026C9.00411 86.6993 10.1955 87.2072 11.1916 87.2072C12.1681 87.2072 12.8713 86.6214 12.8713 86.1135C12.8713 85.6056 12.383 85.4689 11.6994 85.4689C11.0158 85.4689 11.9729 85.8206 11.3869 86.1135C10.801 86.4064 10.4104 85.6839 10.4104 85.2539C10.4104 84.8047 11.8752 84.6681 12.8713 85.0001C13.0666 84.0235 13.1642 83.9456 11.7775 82.2851C12.7736 82.9297 12.8713 83.0664 13.965 82.7151C12.8713 83.6526 13.6916 85.5664 13.7306 86.0547C13.7697 86.5431 13.5354 87.1289 13.0666 87.4222C12.2854 88.1447 10.5275 88.1643 9.5119 87.6956C7.98848 87.0314 7.91036 85.0393 8.32048 84.3751L13.965 72.1681C14.258 71.6601 13.4767 70.0197 11.6799 69.9414C9.80486 69.7851 9.14081 71.7581 8.82831 72.6172L11.3869 72.4222C11.3869 72.4222 11.4846 72.8126 11.3869 73.086C10.0588 73.1643 8.82831 73.4181 8.82831 73.4181L8.73065 74.7072H10.0002L9.88298 75.2931C9.88298 75.2931 8.82831 75.2151 8.71111 75.2931C8.61348 75.3714 8.51581 76.6018 8.51581 76.6018C8.51581 76.6018 8.32048 76.6601 8.12519 76.6601C7.89081 76.6601 7.69548 76.6018 7.69548 76.6018C7.69548 76.6018 7.59786 75.3714 7.50019 75.2931C7.40252 75.2151 6.32831 75.2931 6.32831 75.2931L6.23065 74.7072H7.50019L7.40252 73.4181C7.40252 73.4181 6.15252 73.1643 4.8244 73.086C4.72673 72.8322 4.8244 72.4414 4.8244 72.4414L7.40252 72.6368C7.07048 71.7581 6.42598 69.7851 4.53144 69.9414C2.75409 70.0001 1.95331 71.6601 2.24628 72.1681L7.91036 84.3751C8.30098 85.0393 8.22286 87.0314 6.71894 87.6956C5.68377 88.1643 3.9455 88.1447 3.14471 87.4222C2.6955 87.1289 2.46112 86.5431 2.50019 86.0547C2.53925 85.5664 3.34003 83.6526 2.24628 82.7347C3.34003 83.086 3.43769 82.9297 4.43377 82.2851C3.06659 83.9456 3.14471 84.0235 3.34003 85.0001C4.33611 84.6681 5.82048 84.8047 5.82048 85.2539C5.82048 85.6839 5.42986 86.4064 4.84394 86.1135C4.23848 85.8206 5.23456 85.4689 4.53144 85.4689C3.84784 85.4689 3.35956 85.6056 3.35956 86.1135C3.35956 86.6214 4.04315 87.2072 5.03923 87.2072C6.03536 87.2072 7.20723 86.6993 7.0119 84.8831C6.81661 83.086 0.957214 73.0472 0.957214 71.7972C0.957214 70.586 2.05096 69.0039 4.92206 69.0039C6.81661 68.8476 7.48065 70.8206 8.16423 71.4847Z" fill="#FFE400"/>
<path fill-rule="evenodd" clip-rule="evenodd" d="M8.16448 66.5038C8.8481 67.1679 9.39498 69.1404 11.2895 68.9842C14.1606 68.9842 15.2543 67.4025 15.2543 66.1717C15.2543 64.9413 9.39498 54.9025 9.19964 53.0858C9.00435 51.2892 10.1957 50.7813 11.1919 50.7813C12.1684 50.7813 12.8715 51.3671 12.8715 51.875C12.8715 52.3829 12.3832 52.5196 11.6996 52.5196C11.0161 52.5196 11.9926 52.1679 11.3871 51.875C10.7817 51.5821 10.4106 52.3046 10.4106 52.7342C10.4106 53.1838 11.8754 53.3204 12.8715 52.9883C13.0669 53.965 13.1645 54.0429 11.7778 55.7029C12.7739 55.0588 12.8715 54.9217 13.9653 55.2733C12.8715 54.3358 13.6919 52.4217 13.7309 51.9338C13.77 51.4454 13.5356 50.8592 13.0669 50.5663C12.2856 49.8438 10.5278 49.8242 9.51215 50.2929C7.98873 50.9571 7.9106 52.9492 8.32073 53.6133L13.9653 65.8204C14.2582 66.3279 13.477 67.9688 11.6801 68.0467C9.8051 68.2029 9.14106 66.2304 8.82856 65.3713L11.3871 65.5663C11.3871 65.5663 11.4848 65.1758 11.3871 64.9025C10.059 64.8046 8.82856 64.5704 8.82856 64.5704L8.73089 63.2813H9.96135L9.86373 62.6954C9.86373 62.6954 8.80902 62.7733 8.69185 62.6954C8.61373 62.6171 8.49652 61.3867 8.49652 61.3867C8.49652 61.3867 8.30123 61.3279 8.10589 61.3279C7.87152 61.3279 7.67623 61.3867 7.67623 61.3867C7.67623 61.3867 7.57856 62.6171 7.48089 62.6954C7.38323 62.7733 6.30902 62.6954 6.30902 62.6954L6.21135 63.2813H7.48089L7.38323 64.5704C7.38323 64.5704 6.13323 64.8046 4.8051 64.9025C4.70748 65.1563 4.8051 65.5467 4.8051 65.5467L7.38323 65.3517C7.05123 66.2304 6.40669 68.2029 4.51214 68.0467C2.7348 67.9883 1.93402 66.3279 2.24652 65.8204L7.89106 53.6133C8.28169 52.9492 8.20356 50.9571 6.69964 50.2929C5.66448 49.8242 3.92621 49.8438 3.12543 50.5663C2.67621 50.8592 2.44183 51.4454 2.48089 51.9338C2.51996 52.4217 3.32074 54.3358 2.22699 55.2538C3.32074 54.9025 3.41839 55.0588 4.41448 55.7029C3.02777 54.0429 3.12543 53.965 3.32074 52.9883C4.31685 53.3204 5.80123 53.1838 5.80123 52.7342C5.80123 52.285 5.4106 51.5821 4.82464 51.875C4.23873 52.1679 5.21527 52.5196 4.51214 52.5196C3.82855 52.5196 3.34027 52.3829 3.34027 51.875C3.34027 51.3671 4.02386 50.8008 5.01998 50.8008C6.01606 50.8008 7.18794 51.2892 6.9926 53.1054C6.79731 54.9025 0.937927 64.9413 0.937927 66.1913C0.937927 67.4025 2.03168 68.9842 4.90277 68.9842C6.79731 69.1404 7.46135 67.1679 8.14498 66.5038H8.16448Z" fill="#FFE400"/>
<path fill-rule="evenodd" clip-rule="evenodd" d="M8.16423 33.4374C8.84786 32.7734 9.39473 30.8007 11.2892 30.9374C14.1604 30.9374 15.2541 32.539 15.2541 33.7695C15.2541 34.9804 9.39473 45.0197 9.1994 46.8359C9.00411 48.6326 10.1955 49.1405 11.1916 49.1405C12.1681 49.1405 12.8713 48.5547 12.8713 48.0663C12.8713 47.578 12.383 47.4022 11.6994 47.4022C11.0158 47.4022 11.9729 47.7734 11.3869 48.0663C10.801 48.3593 10.4104 47.6368 10.4104 47.1876C10.4104 46.7576 11.8752 46.6013 12.8713 46.9334C13.0666 45.9572 13.1642 45.8984 11.7775 44.2384C12.7736 44.8826 12.8713 45.0197 13.965 44.668C12.8713 45.6055 13.6916 47.5197 13.7306 47.9884C13.7697 48.4572 13.5354 49.0626 13.0666 49.3555C12.2854 50.078 10.5275 50.1172 9.5119 49.6484C7.98848 48.9647 7.91036 46.9726 8.32048 46.328L13.965 34.1211C14.258 33.6132 13.4767 31.9531 11.6799 31.8749C9.80486 31.7382 9.14081 33.7109 8.82831 34.5703L11.3869 34.3749C11.3869 34.3749 11.4846 34.7656 11.3869 35.039C10.0588 35.1171 8.82831 35.3515 8.82831 35.3515L8.73065 36.6601H10.0002L9.88298 37.2461C9.88298 37.2461 8.82831 37.1679 8.71111 37.2461C8.61348 37.3046 8.51581 38.5351 8.51581 38.5351C8.51581 38.5351 8.32048 38.6132 8.12519 38.6132C7.89081 38.6132 7.69548 38.5351 7.69548 38.5351C7.69548 38.5351 7.59786 37.3046 7.50019 37.2461C7.40252 37.1679 6.32831 37.2461 6.32831 37.2461L6.23065 36.6601H7.50019L7.40252 35.3515C7.40252 35.3515 6.15252 35.1171 4.8244 35.039C4.72673 34.7851 4.8244 34.3749 4.8244 34.3749L7.40252 34.5703C7.07048 33.7109 6.42598 31.7382 4.53144 31.8749C2.75409 31.9531 1.95331 33.6132 2.24628 34.1211L7.91036 46.328C8.30098 46.9726 8.22286 48.9647 6.71894 49.6484C5.68377 50.1172 3.9455 50.078 3.14471 49.3555C2.6955 49.0822 2.46112 48.4959 2.50019 47.9884C2.53925 47.4805 3.34003 45.6055 2.24628 44.668C3.34003 45.0197 3.43769 44.8826 4.43377 44.2384C3.06659 45.8984 3.14471 45.9763 3.34003 46.9334C4.33611 46.6209 5.82048 46.7576 5.82048 47.1876C5.82048 47.6172 5.42986 48.3593 4.84394 48.0663C4.23848 47.7734 5.23456 47.4022 4.53144 47.4022C3.84784 47.4022 3.35956 47.5584 3.35956 48.0663C3.35956 48.5743 4.04315 49.1405 5.03923 49.1405C6.03536 49.1405 7.20723 48.6326 7.0119 46.8359C6.81661 45.0197 0.957214 34.9804 0.957214 33.7499C0.957214 32.539 2.05096 30.9374 4.92206 30.9374C6.81661 30.8007 7.48065 32.7734 8.16423 33.4374Z" fill="#FFE400"/>
<path fill-rule="evenodd" clip-rule="evenodd" d="M8.16423 28.457C8.84786 29.121 9.39473 31.0741 11.2892 30.9374C14.1604 30.9374 15.2541 29.3554 15.2541 28.1249C15.2541 26.8945 9.39473 16.8554 9.1994 15.039C9.00411 13.2421 10.1955 12.7343 11.1916 12.7343C12.1681 12.7343 12.8713 13.3203 12.8713 13.8085C12.8713 14.2968 12.383 14.4726 11.6994 14.4726C11.0158 14.4726 11.9924 14.1015 11.3869 13.8085C10.7814 13.5156 10.4104 14.2578 10.4104 14.6874C10.4104 15.1171 11.8752 15.2734 12.8713 14.9413C13.0666 15.9179 13.1642 15.9765 11.7775 17.6366C12.7736 16.9921 12.8713 16.8554 13.965 17.207C12.8713 16.2695 13.6916 14.3554 13.7306 13.8866C13.7697 13.4179 13.5354 12.8124 13.0666 12.5195C12.2854 11.7968 10.5275 11.7578 9.5119 12.2265C7.98848 12.9101 7.91036 14.9023 8.32048 15.5468L13.965 27.7539C14.258 28.2616 13.4767 29.9218 11.6799 29.9999C9.80486 30.1366 9.14081 28.164 8.82831 27.3046L11.3869 27.4999C11.3869 27.4999 11.4846 27.1093 11.3869 26.8359C10.5289 26.7799 9.67461 26.6756 8.82831 26.5234L8.73065 25.2148H9.96111L9.86348 24.6289C9.86348 24.6289 8.80877 24.707 8.69161 24.6289C8.61348 24.5703 8.49627 23.3398 8.49627 23.3398C8.49627 23.3398 8.30098 23.2616 8.10565 23.2616C7.87127 23.2616 7.67598 23.3398 7.67598 23.3398C7.67598 23.3398 7.57831 24.5703 7.48065 24.6484C7.38298 24.707 6.30877 24.6484 6.30877 24.6484L6.21111 25.2343H7.48065L7.38298 26.5234C7.38298 26.5234 6.13298 26.7578 4.80486 26.8359C4.75031 27.0539 4.75031 27.2819 4.80486 27.4999L7.38298 27.3046C7.05098 28.164 6.40644 30.1366 4.5119 29.9999C2.73456 29.9218 1.93378 28.2616 2.24628 27.7539L7.89081 15.5468C8.28144 14.9023 8.20331 12.9101 6.6994 12.2265C5.66423 11.7578 3.92596 11.7968 3.12519 12.5195C2.67596 12.8124 2.44159 13.3788 2.48065 13.8866C2.51971 14.3945 3.3205 16.2695 2.22675 17.207C3.3205 16.8554 3.41815 17.0116 4.41423 17.6366C3.02753 15.9765 3.12519 15.9179 3.3205 14.9413C4.31661 15.2538 5.80098 15.1366 5.80098 14.6874C5.80098 14.2382 5.41036 13.5156 4.8244 13.8085C4.23848 14.1015 5.21502 14.4726 4.5119 14.4726C3.82831 14.4726 3.34003 14.3163 3.34003 13.8085C3.34003 13.3007 4.02362 12.7343 5.01973 12.7343C6.01581 12.7343 7.20723 13.2421 7.0119 15.039C6.81661 16.8554 0.957214 26.8945 0.957214 28.1249C0.957214 29.3554 2.05096 30.9374 4.92206 30.9374C6.81661 31.0741 7.48065 29.121 8.16423 28.457Z" fill="#FFE400"/>
<path fill-rule="evenodd" clip-rule="evenodd" d="M8.39923 2.67557C9.08281 2.01151 8.84844 0.91776 10.743 1.03495C13.6141 1.03495 13.6922 2.79276 13.6922 4.02323C13.6922 5.2537 9.39531 6.97245 9.20002 8.76933C9.00469 10.5857 10.1961 11.0935 11.1922 11.0935C12.1688 11.0935 12.8719 10.5076 12.8719 9.99979C12.8719 9.49199 12.3836 9.37479 11.7196 9.37479C11.0555 9.37479 12.0125 9.74587 11.4071 10.0193C10.8016 10.2927 10.4305 9.58962 10.4305 9.15995C10.4305 8.73024 11.9149 8.57399 12.8914 8.90604C13.0867 7.92949 13.2039 7.85137 11.7977 6.1912C12.7742 6.83574 12.8914 6.97245 13.9656 6.64041C12.8719 7.57791 13.6922 9.49199 13.7313 9.96074C13.7703 10.4295 13.5359 11.035 13.0867 11.3279C12.2859 12.0506 10.5477 12.0896 9.51252 11.6209C7.98906 10.9373 7.91094 8.94512 8.32111 8.30058L12.5203 4.0037C12.8133 3.47635 12.9109 2.0701 11.1336 1.99198C9.23906 1.85526 8.59456 4.43337 8.26252 5.27324C7.81331 4.33574 7.32502 1.7576 5.43048 1.89432C3.65314 1.97245 3.30158 3.3787 3.59454 3.88651L7.91094 8.28104C8.30156 8.92558 8.24298 10.9177 6.73906 11.6014C5.6844 12.0701 3.94611 12.031 3.14533 11.3084C2.71564 11.0154 2.46173 10.449 2.50079 9.9412C2.53986 9.43337 3.36017 7.55837 2.26642 6.62087C3.36017 6.97245 3.43829 6.8162 4.4344 6.17166C3.0672 7.83183 3.14533 7.92949 3.36017 8.88649C4.33673 8.55449 5.84065 8.6912 5.84065 9.14041C5.84065 9.57012 5.45002 10.3123 4.84456 9.99979C4.25861 9.72637 5.23519 9.35524 4.55156 9.35524C3.84845 9.35524 3.36017 9.51149 3.36017 9.99979C3.36017 10.4881 4.04376 11.0935 5.03986 11.0935C6.03594 11.0935 7.22736 10.5857 7.01252 8.76933C6.81719 6.97245 2.42267 4.99979 2.42267 3.76932C2.42267 2.53885 2.73517 1.03495 5.60627 1.03495C7.50081 0.898227 7.71565 2.01151 8.39923 2.67557Z" fill="#FFE400"/>
<path d="M73.4571 43.9746C73.4571 35.275 66.0158 28.2227 56.8362 28.2227C47.6567 28.2227 40.215 35.275 40.215 43.9746C40.215 52.6742 47.6567 59.7267 56.8362 59.7267C66.0158 59.7267 73.4571 52.6742 73.4571 43.9746Z" fill="#FFE400"/>
<path fill-rule="evenodd" clip-rule="evenodd" d="M56.0554 18.8281C55.8992 18.8281 55.1567 24.0625 54.8833 25.2344C54.61 27.8711 58.3992 27.7734 57.7742 25.1367L56.0554 18.8086V18.8281ZM57.3833 69.5705C57.52 69.5705 58.6529 64.3947 59.0242 63.2422C59.4733 60.6447 55.6842 60.508 56.0942 63.1643L57.3833 69.5705ZM30.899 43.8672C30.899 44.0038 36.3483 45.0976 37.5592 45.4493C40.2936 45.8984 40.4889 42.3243 37.6764 42.7147L30.899 43.8868V43.8672ZM83.9654 44.4922C83.9654 44.3555 78.4575 43.4572 77.2271 43.1447C74.4733 42.8126 74.4538 46.3868 77.2271 45.8984L83.9654 44.4922ZM36.485 27.2656C36.3873 27.3633 39.9811 31.4258 40.7038 32.4219C42.5788 34.375 45.0592 31.6406 42.5788 30.3125L36.485 27.2851V27.2656ZM77.7154 60.6643C77.8129 60.5663 73.8679 56.8163 73.0475 55.8984C70.9967 54.1018 68.7896 57.0118 71.3679 58.1447L77.7154 60.6834V60.6643ZM44.7075 21.6016C44.5904 21.6601 46.27 26.6992 46.5438 27.8906C47.4813 30.3711 50.8796 28.75 49.1217 26.6211L44.7271 21.6016H44.7075ZM68.7504 66.9922C68.8875 66.9334 67.5788 61.7968 67.4029 60.6055C66.6413 58.0663 63.145 59.4334 64.7271 61.6993L68.77 66.9726L68.7504 66.9922ZM74.6688 25.1172C74.5513 25.0195 70.2154 28.3594 69.1608 29.0234C67.0708 30.7813 69.9029 33.1641 71.3483 30.8398L74.6688 25.1172ZM38.9264 62.9493C39.024 63.0468 43.6138 60.0197 44.7075 59.4143C46.9146 57.8126 44.2779 55.2343 42.6567 57.4609L38.9459 62.9493H38.9264ZM32.0905 34.8047C32.0319 34.9219 36.778 37.6758 37.8131 38.3984C40.2545 39.668 41.6804 36.3476 38.8873 35.8203L32.0905 34.8047ZM81.6413 54.0234C81.7 53.9063 77.1492 50.8397 76.1725 50.0584C73.8288 48.6134 72.1688 51.8359 74.9225 52.5393L81.6413 54.0234ZM65.8992 20.2539C65.7625 20.2148 63.0475 24.8242 62.325 25.8203C62.3263 26.1384 62.4271 26.4481 62.6133 26.7059C62.7996 26.9638 63.0617 27.1569 63.3633 27.2581C63.665 27.3594 63.9908 27.3637 64.2946 27.2704C64.5988 27.1772 64.8663 26.9911 65.0592 26.7383L65.8992 20.2539ZM47.5592 67.9688C47.6958 68.0272 50.7429 63.5938 51.5242 62.6368C52.95 60.3709 49.4929 58.9259 48.8483 61.543L47.5592 67.9688ZM32.4225 54.4334C32.4811 54.5509 37.8913 53.2618 39.1608 53.0663C41.8171 52.3243 40.3326 49.043 37.9889 50.5663L32.4225 54.4334ZM81.6608 34.375C81.6217 34.2578 76.1333 35.1758 74.8638 35.293C72.1296 35.8594 73.3992 39.2383 75.8404 37.8711L81.6608 34.375Z" fill="#FFE400"/>
<path fill-rule="evenodd" clip-rule="evenodd" d="M61.4458 19.1602C61.3092 19.1406 59.4733 24.1211 58.9262 25.2148C58.1254 27.7539 61.8562 28.3789 61.7975 25.6836L61.4654 19.1406L61.4458 19.1602ZM51.9733 69.1408C52.11 69.1796 54.3171 64.3163 54.9421 63.2421C55.9187 60.7813 52.2467 59.9221 52.11 62.5975L51.9537 69.1408H51.9733ZM50.0787 19.6484C49.9421 19.6875 50.45 24.961 50.45 26.1719C50.8208 28.7695 54.4733 27.8711 53.2625 25.4492L50.0787 19.6484ZM63.36 68.8475C63.4967 68.8279 63.36 63.535 63.4575 62.3242C63.2817 59.6875 59.5512 60.3517 60.6062 62.8517L63.3404 68.8475H63.36ZM40.6647 24.0234C40.5475 24.1016 43.145 28.7695 43.6333 29.8828C45.0396 32.168 48.0671 30.0195 45.9379 28.2031L40.6647 24.0234ZM72.8521 64.6288C72.9692 64.5508 70.7037 59.7071 70.3129 58.5742C69.0825 56.2108 65.9187 58.1642 67.8912 60.0975L72.8521 64.6288ZM33.7897 30.5859C33.7115 30.7031 37.9107 34.1797 38.7897 35.0781C40.9576 36.7188 42.9692 33.6719 40.3131 32.7148L33.7897 30.5859ZM79.5317 57.8713C79.61 57.7538 75.6842 54.0038 74.8637 53.0663C72.8325 51.2892 70.6062 54.1992 73.1842 55.3321L79.5317 57.8713ZM30.7819 38.7695C30.7428 38.9063 35.9186 40.8789 37.0514 41.4453C39.6686 42.3242 40.5084 38.8281 37.6569 38.75L30.7819 38.7695ZM83.0083 50.0588C83.0671 49.9413 78.0475 47.6367 76.9537 46.9921C74.4146 45.9375 73.3012 49.375 76.1333 49.6483L83.0083 50.0588ZM30.6061 48.8283C30.6256 48.9454 36.2115 48.8671 37.4811 48.965C40.2545 48.8279 39.5905 45.2929 36.9342 46.25L30.6061 48.8283ZM83.3796 40.0391C83.3796 39.9023 77.7937 39.6094 76.5437 39.4336C73.7504 39.3945 74.1608 42.9688 76.8754 42.1679L83.3796 40.0195V40.0391ZM35.3912 59.2579C35.4694 59.375 40.4694 56.9921 41.6412 56.5429C44.0629 55.2733 41.8367 52.3633 39.903 54.3358L35.3912 59.2579ZM78.8092 29.5117C78.7312 29.3945 73.5942 31.4453 72.3637 31.8164C69.8442 32.9297 71.8562 35.9766 73.9262 34.1406L78.8092 29.5117ZM43.5162 66.1717C43.6333 66.2304 47.2075 62.1679 48.1062 61.3088C49.8054 59.2188 46.5437 57.4025 45.5867 59.9413L43.5162 66.1717ZM70.8012 22.4609C70.7037 22.3828 66.8367 26.1914 65.8796 26.9922C64.0437 28.9648 67.1687 30.9961 68.3012 28.5352L70.7817 22.4609H70.8012Z" fill="#FFE400"/>
<path fill-rule="evenodd" clip-rule="evenodd" d="M31.4226 54.4518C31.721 55.4593 31.7636 61.0998 37.7738 66.5393C43.7413 71.9381 53.9713 73.1468 53.9713 73.1468C53.9713 73.1468 54.0138 73.9127 53.2892 73.9527C52.5646 74.0335 49.0692 73.3485 47.3217 72.8248C45.6167 72.341 44.0821 71.4548 43.9117 71.4952C43.6988 71.5756 43.3575 72.1398 42.8463 72.0589C42.3346 71.9785 39.8624 69.561 38.7541 68.9164C36.5375 67.1052 34.575 65.0335 32.9145 62.7518C31.721 60.9389 31.4226 59.7302 31.039 59.7302C30.6554 59.7302 29.2488 60.6164 29.2488 60.6164C29.2488 60.6164 27.97 58.8035 26.8618 55.9023C25.7109 53.0014 25.8388 51.3093 26.0945 51.1885C26.3929 51.0677 26.3929 53.3239 27.2454 55.3785C28.0979 57.4739 29.2914 58.1185 29.2914 58.1185C29.2914 58.1185 28.5241 57.0306 27.9274 54.331C27.3306 51.6314 27.0749 49.0127 27.5011 48.2068C27.9274 47.401 28.311 47.1593 28.3536 47.1993C28.4389 47.2802 27.629 48.4485 28.1831 51.551C28.7373 54.6535 30.2291 57.2723 30.5701 57.1514C30.9111 57.0306 30.357 56.386 30.1439 54.5727C29.9308 52.7598 30.357 51.6314 30.8259 51.4702C31.039 51.3093 31.38 53.4848 31.4226 54.4518ZM27.2454 59.6093C26.0945 58.6018 24.3043 55.0964 23.9206 55.2577C23.4944 55.4593 26.8191 60.4956 26.9044 60.8985C26.9896 61.3818 27.7143 62.7518 27.1601 62.5506C26.606 62.3489 22.6419 58.4006 23.1108 59.166C23.5796 59.9314 26.5634 63.3964 26.3929 63.5981C26.2224 63.7993 23.9206 61.6639 23.8354 61.946C23.7928 62.1877 26.0945 64.2831 26.0519 64.5248C26.0093 64.7664 24.56 63.1952 24.56 63.5173C24.56 63.8398 26.0519 65.411 26.0519 65.6527C26.0519 65.8948 24.7731 64.5248 25.1994 65.2498C25.583 66.0556 26.6913 66.7406 26.6486 66.9823C26.606 67.2243 25.7109 66.6602 25.7109 66.781C25.7109 66.9018 27.3733 67.466 27.7569 67.9089C28.1831 68.3523 30.9111 71.3339 32.9571 72.8248C35.0031 74.3156 40.8854 76.9343 41.3116 76.9343C41.6954 76.9343 42.2921 76.1285 42.1642 75.806C42.0363 75.4839 36.2819 73.6306 34.7048 72.2606C33.085 70.8906 29.1635 67.5868 28.8225 67.4256C28.5241 67.2243 27.629 67.3048 27.629 67.1031C27.629 66.9018 28.7799 67.2243 28.6946 67.1031C28.652 66.9823 27.1175 66.3377 27.1601 66.2168C27.2454 66.096 28.2258 66.4585 28.2258 66.3377C28.2258 66.2168 26.4355 65.2902 26.5208 65.0889C26.5634 64.8873 27.8421 65.6527 27.8421 65.4918C27.8421 65.411 26.1371 64.2831 26.1798 64.0814C26.2224 63.8802 27.5011 64.9677 27.4585 64.726C27.4159 64.4843 26.4355 63.1143 26.4355 62.9535C26.4355 62.7518 27.97 64.3231 28.1405 64.001C28.2258 63.7189 27.5864 61.0998 27.629 61.0598C27.6716 61.0193 28.7799 61.6235 28.9504 61.261C29.1635 60.8581 28.1831 60.3343 27.2454 59.6093ZM46.8954 79.4323C46.0854 79.5531 45.7021 79.271 46.1709 78.6264C46.8104 78.6264 48.5154 78.1027 49.1121 77.861C49.7088 77.6193 50.3484 77.2968 50.8596 76.8539C51.3713 76.3298 51.7121 77.1356 51.4138 77.5789C51.2009 77.861 50.2204 78.3848 49.4954 78.6668C48.43 78.9893 47.4921 79.4727 46.8954 79.4323ZM52.2238 77.3777C51.6696 76.8135 52.1384 76.4106 52.9484 75.9673C54.1417 75.3631 53.8009 74.5168 55.3354 73.8318C56.0171 73.4289 65.5654 69.8027 68.6771 67.8689C71.7884 65.9348 80.5267 59.6898 82.8709 55.3785C85.1729 51.1077 84.0646 50.7856 84.4054 50.6243C84.7038 50.4227 85.045 51.2285 85.0021 52.1956C84.9171 53.1223 84.1496 55.9427 84.4054 56.2248C84.6613 56.5068 87.9009 54.0085 89.2646 50.9868C90.6288 47.9652 91.6517 44.8223 92.2913 44.8223C92.9729 44.8223 91.1829 49.9798 90.0321 51.9943C88.9238 54.0085 87.6025 55.016 87.9009 55.4593C88.2417 55.8623 91.5667 53.2431 92.7175 51.3093C93.8254 49.3348 94.8913 47.6023 95.1046 47.9652C94.7654 50.3252 93.7809 52.561 92.2484 54.4518C90.4584 56.386 88.3271 57.796 88.6679 58.0781C88.9663 58.4006 91.3959 58.7227 93.9109 57.111C96.4684 55.4593 96.7242 53.0818 97.0225 53.2031C97.3634 53.3239 96.7242 56.5873 94.2946 58.6018C91.865 60.6164 88.6679 60.8181 88.7534 61.261C88.9238 61.6639 95.7013 59.4077 95.5733 59.9314C95.4454 60.4152 86.7925 63.6381 86.7071 63.9606C86.7071 64.2023 88.1992 64.2831 90.5434 63.7593C92.8454 63.2756 95.0617 61.5431 95.36 61.946C95.4454 62.5102 93.6979 63.8802 91.055 64.5248C88.3696 65.1693 87.0483 66.0156 86.9629 66.2168C86.9204 66.4185 91.7371 65.6527 91.7371 65.8948C91.7371 66.1364 85.4283 67.3048 85.3858 67.6273C85.3008 67.9089 91.3534 66.4585 91.2684 66.8214C91.0975 67.1031 83.0417 69.3598 83.1267 69.4806C83.1692 69.6414 89.8617 68.1106 89.7338 68.3523C89.5629 68.6343 78.4804 71.5756 78.3954 71.7768C78.31 71.9381 88.1992 69.6818 88.1138 69.8835C88.0288 70.0848 82.9988 71.2531 82.9988 71.3743C82.9988 71.4952 87.0483 70.7698 86.9629 70.9714C86.9204 71.1323 76.7329 73.5902 76.52 73.9527C76.3067 74.3556 81.8054 72.9456 81.72 73.6706C81.635 74.396 69.9129 78.1027 69.8704 77.4177C69.785 76.7327 76.9888 75.0002 76.9463 74.7989C76.8609 74.5973 72.8117 75.2018 72.7263 74.8393C72.6838 74.4364 75.4117 73.6306 75.1984 73.4693C74.9854 73.2677 72.9392 74.0335 73.11 73.5902C73.3229 73.1468 77.2017 71.4548 77.1167 71.3339C77.0742 71.2131 75.71 71.7368 75.8379 71.3339C76.0083 70.8906 84.235 68.6343 84.1071 68.3523C83.9792 68.1106 80.3133 68.9164 79.9725 68.9968C79.8446 68.7552 85.0875 66.9018 85.0021 66.5793C84.8317 66.2977 82.1892 67.6673 82.0184 67.3048C81.9334 66.9018 86.6646 65.1693 86.3663 64.8873C86.0679 64.6052 83.9367 65.6127 83.6384 65.3306C83.34 65.0485 88.1138 61.946 87.3892 61.8656C86.6646 61.8252 85.7696 62.8323 85.6842 62.1877C85.7696 61.3818 89.3925 60.0523 88.5829 59.4077C87.3042 59.0452 82.9988 59.6898 81.2088 60.6968C79.4184 61.7043 73.4508 67.3048 72.0017 68.191C70.5525 69.0373 65.6079 71.0114 64.67 71.4143C63.2209 71.8981 62.965 72.6231 61.4734 73.3485C58.7879 74.0335 58.8304 74.7989 57.5517 75.2423C57.0829 75.3631 52.2663 77.5385 52.2238 77.3777ZM45.4888 80.1977C44.6792 80.6006 43.9546 81.5677 44.4234 81.9706C44.6792 82.4543 45.4888 80.8827 46.1284 80.9635L49.5384 81.1248C51.3713 81.2456 52.2663 80.7618 53.2892 80.8427C54.3121 80.9231 56.5713 80.3189 57.6371 80.3189C58.7025 80.3189 58.9159 80.4398 59.0009 79.9964C59.1288 79.5935 55.6763 79.8756 54.1417 79.8352C52.6071 79.7548 50.6892 80.1173 49.5384 80.1173C48.4725 80.0768 46.6396 79.7548 45.4888 80.1977Z" fill="#FFE400"/>
<path d="M50.6038 79.714C50.6038 79.3803 50.2796 79.1099 49.8792 79.1099C49.4792 79.1099 49.1546 79.3803 49.1546 79.714C49.1546 80.0478 49.4792 80.3186 49.8792 80.3186C50.2796 80.3186 50.6038 80.0478 50.6038 79.714Z" fill="#FFE400"/>
<path fill-rule="evenodd" clip-rule="evenodd" d="M67.6113 78.5457C68.3359 78.4248 70.2967 79.0694 71.6609 79.3515C74.1329 80.2782 78.7363 79.8348 78.7363 80.2782C78.7363 80.7215 78.4379 81.2453 77.3725 81.3257C76.3067 81.4065 73.6213 80.9228 73.7067 80.9228C73.7921 80.9228 75.8379 81.8494 75.2413 82.0911C74.6446 82.3332 72.8967 81.5673 72.5984 81.769C72.3 81.9703 74.2184 82.3332 73.8771 82.454C73.6213 82.5748 72.3 82.2928 71.8738 82.3332C71.4475 82.4136 72.215 82.8569 71.7034 83.0178C71.1917 83.2194 70.3392 82.7761 69.9984 82.8969C69.6146 83.0178 70.7654 83.7028 70.2542 83.7836C69.7425 83.864 68.5492 83.4611 67.8671 83.3807C67.185 83.3807 68.5063 84.0253 68.08 84.1057C67.6538 84.1461 66.4604 83.5819 66.1621 83.5819C65.8638 83.5819 66.1621 84.3878 65.7359 84.3878C65.3096 84.3878 64.7979 83.7028 64.5425 83.7028C64.2867 83.7028 64.5425 84.5086 64.1163 84.5086C63.69 84.5086 63.5192 83.6628 63.1784 83.7028C62.7521 83.7836 63.1784 84.7907 62.5817 84.7103C62.0275 84.6698 61.9421 83.6628 61.4734 83.7028C61.0471 83.7836 61.5588 84.7103 61.1325 84.7103C60.7063 84.7103 60.6209 83.7836 60.1946 83.7028C59.7684 83.6628 59.9388 84.5894 59.6829 84.5894C59.4275 84.5894 59.1717 83.7028 59.0013 83.7028C58.8734 83.7028 59.0013 84.5894 58.4896 84.5086C57.9779 84.4282 57.9779 83.5419 57.85 83.5819C57.6796 83.6628 57.6796 84.3073 57.3388 84.3073C56.9975 84.3073 56.955 83.6628 56.8271 83.7432C56.6567 83.7836 56.145 84.5894 55.8042 84.4686C55.4204 84.3473 55.8896 83.7028 55.7188 83.7028C55.5484 83.7028 55.1221 84.1461 54.8663 84.1057C54.6109 84.0657 54.8663 83.5419 54.7813 83.5419C54.6959 83.5419 54.0567 83.864 53.7584 83.864C53.46 83.864 52.65 84.2669 52.4367 83.9044C52.2238 83.5015 52.9909 83.5015 53.1613 83.139C53.2892 82.7761 52.735 81.6882 53.3321 81.3257C53.8863 80.9228 55.7188 81.8494 58.4471 81.2048C63.3913 79.9557 67.2275 78.5053 67.6113 78.5457Z" fill="#FFE400"/>
</g>
<path d="M99.5 50C99.5 77.3381 77.3381 99.5 50 99.5C22.6619 99.5 0.5 77.3381 0.5 50C0.5 22.6619 22.6619 0.5 50 0.5C77.3381 0.5 99.5 22.6619 99.5 50Z" stroke="black"/>
</g>
<defs>
<clipPath id="clip0_657_6102">
<rect width="100" height="100" fill="white"/>
</clipPath>
</defs>
</svg>
