<svg width="136" height="24" viewBox="0 0 136 24" fill="none" xmlns="http://www.w3.org/2000/svg">
<g clip-path="url(#clip0_188_1064)">
<path d="M135.403 0H127.766L121.391 7.69415C122.683 9.96809 123.733 11.8218 123.733 11.8218L120.272 16.0718L120.264 16.1383L124.833 24H131.754L124.668 11.8138L135.403 0Z" fill="white"/>
<path d="M61.6676 24L65.4876 0H74.0118C78.0582 0 81.1722 0.930851 83.3539 2.79255C85.5596 4.65426 86.6624 7.22872 86.6624 10.5213C86.6864 13.0851 86.1616 15.3883 85.0934 17.4309C84.0252 19.4734 82.4455 21.0851 80.3544 22.266C78.2873 23.4229 75.7407 24.0027 72.7172 24.0027H61.6703L61.6676 24ZM68.7268 18.9282H72.7838C75.2159 18.9282 77.0459 18.1782 78.274 16.6809C79.5233 15.1835 80.1493 13.1622 80.1493 10.6223C80.1493 8.82979 79.6379 7.45745 78.6149 6.50266C77.592 5.54787 76.0577 5.07181 74.0118 5.07181H70.9431L68.7268 18.9282Z" fill="white"/>
<path d="M52.8379 24L56.6578 0H62.9312L59.1112 24H52.8379Z" fill="white"/>
<path d="M23.9326 24L39.0046 0H43.9833L51.3835 24H45.3819L44.1192 19.133H33.3093L30.4457 24H23.9326ZM40.7441 6.53723L36.141 14.3324H42.8592L40.8134 6.53723H40.7441Z" fill="white"/>
<path d="M1.61194 24L5.43189 0H15.7623C18.514 0 20.6158 0.611702 22.0702 1.83777C23.5487 3.03989 24.2865 4.70745 24.2865 6.84308C24.2865 9.1117 23.6845 10.8936 22.4805 12.1888C21.2977 13.4601 19.742 14.3005 17.8081 14.7074C18.4661 14.9574 19.0255 15.3644 19.4783 15.9335C19.9338 16.4787 20.3201 17.1489 20.6371 17.9415L22.9546 24H16.5454L13.8177 16.7819C13.5912 16.1463 13.2822 15.7048 12.896 15.4548C12.531 15.1835 12.0196 15.0452 11.3616 15.0452H9.31576L7.88262 23.9973H1.61194V24ZM10.0004 10.6223H14.5342C17.0569 10.6223 18.3195 9.55585 18.3195 7.42287C18.3195 6.53723 18.0239 5.88032 17.4325 5.44947C16.8651 5.01862 15.9541 4.80319 14.7047 4.80319H10.9194L9.99771 10.625L10.0004 10.6223Z" fill="white"/>
<path d="M115.693 0H108.874L114.532 9.39628H95.3601L96.0767 4.83511H107.089L107.84 0H90.8609L87.0756 24H104.023L104.774 19.1649H93.7938L94.5769 14.2287H113.541L104.883 24H112.486L122.398 11.8191C122.398 11.8191 117.145 2.56383 115.691 0L115.693 0Z" fill="#CE244B"/>
</g>
<defs>
<clipPath id="clip0_188_1064">
<rect width="135.403" height="24" fill="white"/>
</clipPath>
</defs>
</svg>
