<svg width="268" height="240" viewBox="0 0 268 240" fill="none" xmlns="http://www.w3.org/2000/svg">
<path d="M168.757 29.37C168.591 28.1863 167.638 27.7483 166.49 28.4171L103.468 64.7995C102.801 65.2355 102.247 65.8221 101.849 66.512C101.451 67.2019 101.221 67.9757 101.177 68.7709V207.861C101.177 209.205 102.053 209.82 103.178 209.323C102.495 209.614 101.758 209.752 101.016 209.728C100.275 209.703 99.548 209.516 98.8865 209.181L96.2586 207.672C95.5904 207.237 95.0342 206.651 94.6351 205.961C94.2361 205.271 94.0055 204.496 93.9622 203.7V64.616C94.0041 63.8197 94.2341 63.0447 94.6332 62.3544C95.0324 61.6641 95.5894 61.0781 96.2586 60.6445L159.275 24.2621C159.985 23.9005 160.77 23.7119 161.566 23.7119C162.362 23.7119 163.147 23.9005 163.856 24.2621L166.49 25.7655C167.104 26.1693 167.624 26.7 168.015 27.3218C168.406 27.9436 168.659 28.6421 168.757 29.37Z" fill="#455A64"/>
<path d="M166.49 28.4052L103.467 64.7994C102.801 65.2354 102.246 65.8221 101.848 66.512C101.45 67.2018 101.22 67.9757 101.177 68.7709V207.861C101.177 209.317 102.207 209.915 103.467 209.181L166.49 172.775C167.156 172.338 167.71 171.752 168.108 171.062C168.506 170.372 168.736 169.598 168.78 168.803V29.7132C168.78 28.2809 167.751 27.6831 166.49 28.4052ZM165.478 155.699C165.478 156.948 164.602 157.741 163.513 158.368L106.214 191.448C105.13 192.076 104.249 191.573 104.249 190.318V82.0525C104.287 81.3701 104.484 80.7062 104.825 80.1141C105.167 79.522 105.642 79.0182 106.214 78.6433L163.531 45.5695C164.62 44.9421 165.496 45.4511 165.496 46.7L165.478 155.699Z" fill="#37474F"/>
<path d="M103.16 209.299C102.478 209.59 101.74 209.728 100.999 209.704C100.257 209.679 99.5302 209.493 98.8687 209.157L96.2408 207.648C95.5732 207.213 95.0175 206.626 94.6185 205.936C94.2196 205.246 93.9886 204.472 93.9443 203.676V64.616C93.9739 63.8155 94.206 63.0355 94.6191 62.3491L101.834 66.4922C101.422 67.1769 101.19 67.9547 101.159 68.7532V207.843C101.177 209.181 102.053 209.796 103.16 209.299Z" fill="#263238"/>
<path d="M134.979 49.6712C135.825 49.18 136.518 49.5765 136.518 50.559C136.488 51.0924 136.333 51.6112 136.065 52.0738C135.798 52.5364 135.426 52.9298 134.979 53.2224C134.133 53.7078 133.44 53.3112 133.44 52.3346C133.47 51.8012 133.625 51.2821 133.892 50.8195C134.159 50.3569 134.532 49.9635 134.979 49.6712Z" fill="#263238"/>
<path d="M133.936 187.619C133.554 187.623 133.178 187.525 132.847 187.335C132.066 186.885 131.663 185.962 131.663 184.736C131.736 183.432 132.115 182.163 132.769 181.032C133.423 179.901 134.334 178.94 135.427 178.226C136.487 177.634 137.505 177.521 138.28 177.971C139.056 178.421 139.464 179.344 139.464 180.57C139.392 181.874 139.014 183.144 138.36 184.275C137.706 185.406 136.794 186.367 135.7 187.08C135.169 187.412 134.561 187.598 133.936 187.619ZM137.168 178.273C136.647 178.296 136.141 178.453 135.7 178.729C134.692 179.389 133.852 180.276 133.25 181.32C132.648 182.363 132.299 183.533 132.231 184.736C132.231 185.743 132.551 186.482 133.143 186.826C133.735 187.169 134.534 187.074 135.404 186.571C136.413 185.911 137.252 185.022 137.855 183.978C138.457 182.933 138.806 181.762 138.872 180.558C138.872 179.552 138.552 178.812 137.961 178.474C137.71 178.334 137.425 178.267 137.138 178.279L137.168 178.273Z" fill="#E6E6E6"/>
<path d="M129.048 59.0165L140.885 52.1686C141.595 51.7602 142.17 52.0502 142.17 52.8137C142.138 53.2449 142.006 53.6626 141.783 54.0329C141.559 54.4031 141.252 54.7154 140.885 54.9444L129.048 61.7924C128.338 62.2008 127.763 61.9108 127.763 61.1473C127.795 60.7161 127.927 60.2984 128.15 59.9281C128.374 59.5579 128.681 59.2455 129.048 59.0165Z" fill="#263238"/>
<path d="M165.478 155.711C165.478 156.96 164.602 157.753 163.513 158.38L106.214 191.46C105.131 192.088 104.249 191.584 104.249 190.33V82.0526C104.287 81.3702 104.485 80.7063 104.826 80.1142C105.167 79.5221 105.643 79.0183 106.214 78.6434L163.531 45.5696C164.62 44.9422 165.496 45.4512 165.496 46.7L165.478 155.711Z" fill="#009688"/>
<path opacity="0.75" d="M165.478 155.711C165.478 156.96 164.602 157.753 163.513 158.38L106.214 191.46C105.131 192.088 104.249 191.584 104.249 190.33V82.0526C104.287 81.3702 104.485 80.7063 104.826 80.1142C105.167 79.5221 105.643 79.0183 106.214 78.6434L163.531 45.5696C164.62 44.9422 165.496 45.4512 165.496 46.7L165.478 155.711Z" fill="white"/>
<path d="M163.53 45.5696L106.231 78.6434C105.659 79.0183 105.184 79.5221 104.842 80.1142C104.501 80.7063 104.304 81.3702 104.266 82.0526V89.3681L165.495 54.0097V46.7C165.477 45.4512 164.601 44.9422 163.53 45.5696Z" fill="#009688"/>
<path d="M104.249 182.345V190.33C104.249 191.584 105.131 192.105 106.214 191.46L163.531 158.38C164.62 157.753 165.496 156.96 165.496 155.711V146.999L104.249 182.345Z" fill="#009688"/>
<path opacity="0.15" d="M109.286 182.47L152.102 157.729C153.09 157.138 153.877 157.623 153.877 158.765C153.845 159.386 153.667 159.99 153.359 160.53C153.05 161.07 152.62 161.529 152.102 161.873L109.286 186.613C108.297 187.205 107.51 186.719 107.51 185.577C107.543 184.956 107.72 184.352 108.029 183.812C108.337 183.273 108.767 182.813 109.286 182.47Z" fill="black"/>
<path d="M156.949 154.261V155.522C156.949 155.806 157.097 156.001 157.275 155.96L159.293 155.492C159.471 155.451 159.471 155.551 159.293 155.717L157.275 157.575C157.073 157.798 156.957 158.086 156.949 158.386V159.647C156.949 159.931 157.091 159.996 157.263 159.795L162.051 154.196C162.217 153.995 162.217 153.829 162.051 153.829L157.263 153.752C157.091 153.752 156.949 153.977 156.949 154.261Z" fill="#455A64"/>
<path d="M117.601 109.285L114.559 107.509C114.499 107.485 114.449 107.441 114.417 107.385L113.861 106.408L115.636 105.367L115.583 105.521L117.601 109.285Z" fill="#E0E0E0"/>
<path d="M115.388 105.532L117.495 109.178C117.522 109.238 117.567 109.288 117.623 109.321C117.68 109.355 117.745 109.369 117.811 109.363C117.876 109.358 117.938 109.331 117.987 109.288C118.037 109.246 118.072 109.188 118.087 109.125L120.313 102.697L115.388 105.532Z" fill="#F0F0F0"/>
<path d="M137.399 79.1228C137.371 78.6116 137.223 78.1143 136.967 77.671C136.711 77.2278 136.354 76.8512 135.925 76.5718C135.467 76.3356 134.96 76.2124 134.445 76.2124C133.93 76.2124 133.423 76.3356 132.965 76.5718L109.16 90.3151C108.732 90.5952 108.376 90.9719 108.12 91.415C107.864 91.8581 107.715 92.3551 107.687 92.866V104.928C107.714 105.44 107.862 105.937 108.118 106.38C108.374 106.823 108.731 107.2 109.16 107.479C109.618 107.716 110.125 107.839 110.64 107.839C111.155 107.839 111.662 107.716 112.12 107.479L136.079 93.6414C137.404 92.8897 137.416 92.1321 137.416 91.191L137.399 79.1228Z" fill="#F0F0F0"/>
<path d="M107.687 104.928C107.714 105.439 107.862 105.936 108.118 106.38C108.375 106.823 108.732 107.2 109.16 107.479C109.574 107.689 110.027 107.809 110.491 107.83C110.954 107.852 111.417 107.774 111.848 107.603C111.155 107.87 110.628 107.473 110.628 106.633V94.5643C110.644 94.0516 110.793 93.552 111.06 93.1142L108.101 91.4155C107.836 91.8543 107.687 92.3534 107.669 92.8656L107.687 104.928Z" fill="#E0E0E0"/>
<path d="M137.346 78.7142C137.175 78.1223 136.607 77.8915 135.926 78.2821L112.103 92.0254C111.667 92.2948 111.31 92.6746 111.067 93.1263L108.108 91.4276C108.353 90.9793 108.71 90.6021 109.144 90.3327L132.967 76.5894C133.425 76.356 133.932 76.2344 134.446 76.2344C134.961 76.2344 135.468 76.356 135.926 76.5894C136.295 76.8276 136.612 77.139 136.856 77.5045C137.101 77.87 137.268 78.2817 137.346 78.7142Z" fill="#FAFAFA"/>
<path d="M114.582 97.4411L131.605 87.5923C132.096 87.3082 132.492 87.4384 132.492 87.8824C132.457 88.1562 132.359 88.4181 132.205 88.6473C132.05 88.8764 131.845 89.0664 131.605 89.2022L114.582 99.051C114.091 99.3351 113.695 99.2049 113.695 98.761C113.73 98.4871 113.828 98.2252 113.982 97.9961C114.137 97.7669 114.342 97.5769 114.582 97.4411Z" fill="#455A64"/>
<path d="M114.582 100.933L126.42 94.0557C126.917 93.7716 127.314 93.9018 127.314 94.3457C127.278 94.6202 127.178 94.8824 127.023 95.1116C126.868 95.3408 126.661 95.5305 126.42 95.6656L114.582 102.543C114.091 102.827 113.695 102.697 113.695 102.253C113.73 101.979 113.828 101.717 113.982 101.488C114.137 101.259 114.342 101.069 114.582 100.933Z" fill="#455A64"/>
<path d="M114.582 93.9609L131.605 84.0884C132.096 83.8043 132.492 83.9345 132.492 84.3784C132.457 84.6523 132.359 84.9142 132.205 85.1434C132.05 85.3725 131.845 85.5625 131.605 85.6983L114.582 95.5707C114.091 95.8548 113.695 95.7246 113.695 95.2807C113.73 95.0069 113.828 94.7449 113.982 94.5158C114.137 94.2867 114.342 94.0967 114.582 93.9609Z" fill="#455A64"/>
<path d="M114.371 110.569L112.506 109.504C112.187 109.358 111.834 109.3 111.485 109.335C111.135 109.371 110.801 109.498 110.518 109.705C109.744 110.186 109.096 110.846 108.629 111.628C108.058 112.514 107.733 113.535 107.688 114.588C107.652 114.939 107.71 115.293 107.856 115.614C108.001 115.935 108.229 116.212 108.517 116.417L110.381 117.488C110.705 117.652 111.068 117.724 111.43 117.693C111.791 117.663 112.138 117.532 112.429 117.316C113.252 116.78 113.937 116.058 114.429 115.207C114.92 114.357 115.205 113.402 115.258 112.422C115.296 112.061 115.234 111.697 115.077 111.37C114.92 111.042 114.676 110.765 114.371 110.569Z" fill="#455A64"/>
<path d="M112.506 109.491C112.186 109.346 111.833 109.288 111.484 109.323C111.135 109.358 110.801 109.486 110.517 109.693C109.744 110.175 109.097 110.835 108.629 111.616C108.057 112.501 107.732 113.523 107.688 114.576C107.651 114.927 107.708 115.281 107.853 115.603C107.999 115.924 108.228 116.201 108.516 116.404L110.363 117.464C110.099 117.254 109.891 116.982 109.758 116.672C109.625 116.362 109.57 116.024 109.6 115.688C109.654 114.707 109.939 113.752 110.43 112.901C110.922 112.05 111.606 111.326 112.429 110.788C112.704 110.593 113.023 110.47 113.357 110.427C113.692 110.385 114.031 110.425 114.346 110.545L112.506 109.491Z" fill="#37474F"/>
<path d="M112.31 111.658C112.831 111.356 113.251 111.599 113.251 112.196C113.233 112.523 113.139 112.842 112.976 113.126C112.812 113.409 112.584 113.651 112.31 113.83C111.789 114.126 111.369 113.883 111.369 113.285C111.385 112.959 111.479 112.641 111.643 112.358C111.806 112.075 112.035 111.835 112.31 111.658Z" fill="white"/>
<path d="M112.435 116.807C113.166 116.344 113.762 115.697 114.163 114.931V114.854C114.163 113.865 113.471 113.469 112.618 113.96L112.086 114.268C111.656 114.549 111.296 114.924 111.03 115.363C110.765 115.803 110.602 116.296 110.553 116.807C110.594 116.853 110.639 116.895 110.689 116.931C110.962 117.078 111.271 117.144 111.58 117.122C111.889 117.1 112.185 116.991 112.435 116.807Z" fill="white"/>
<path d="M117.601 153.071L114.559 151.295C114.5 151.269 114.451 151.226 114.417 151.171L113.861 150.195L115.636 149.147L115.583 149.307L117.601 153.071Z" fill="#E0E0E0"/>
<path d="M115.388 149.319L117.495 152.965C117.522 153.025 117.567 153.075 117.623 153.108C117.68 153.142 117.745 153.156 117.811 153.151C117.876 153.145 117.938 153.118 117.987 153.076C118.037 153.033 118.072 152.975 118.087 152.912L120.313 146.484L115.388 149.319Z" fill="#F0F0F0"/>
<path d="M137.399 122.909C137.371 122.398 137.223 121.901 136.967 121.458C136.711 121.014 136.354 120.638 135.925 120.358C135.467 120.125 134.96 120.003 134.445 120.003C133.931 120.003 133.424 120.125 132.966 120.358L109.143 134.102C108.714 134.381 108.357 134.758 108.101 135.201C107.845 135.644 107.697 136.142 107.669 136.653V148.715C107.698 149.226 107.846 149.723 108.102 150.166C108.358 150.609 108.714 150.986 109.143 151.266C109.6 151.502 110.108 151.625 110.622 151.625C111.137 151.625 111.645 151.502 112.102 151.266L136.061 137.428C137.387 136.67 137.399 135.913 137.399 134.978V122.909Z" fill="#F0F0F0"/>
<path d="M107.687 148.715C107.715 149.226 107.864 149.723 108.12 150.166C108.376 150.609 108.732 150.986 109.16 151.266C109.574 151.476 110.027 151.596 110.491 151.618C110.954 151.639 111.417 151.562 111.848 151.39C111.155 151.651 110.628 151.26 110.628 150.42V138.345C110.647 137.833 110.795 137.334 111.06 136.895L108.101 135.203C107.835 135.641 107.686 136.14 107.669 136.653L107.687 148.715Z" fill="#E0E0E0"/>
<path d="M137.346 122.513C137.175 121.885 136.607 121.69 135.926 122.081L112.103 135.824C111.666 136.092 111.308 136.472 111.067 136.925L108.108 135.226C108.353 134.778 108.71 134.401 109.144 134.131L132.967 120.382C133.426 120.151 133.932 120.031 134.446 120.031C134.96 120.031 135.467 120.151 135.926 120.382C136.296 120.621 136.612 120.934 136.857 121.3C137.101 121.667 137.268 122.079 137.346 122.513Z" fill="#FAFAFA"/>
<path d="M114.582 141.228L131.605 131.349C132.096 131.065 132.492 131.196 132.492 131.645C132.456 131.918 132.357 132.179 132.203 132.407C132.049 132.635 131.844 132.824 131.605 132.959L114.582 142.832C114.091 143.122 113.695 142.992 113.695 142.542C113.731 142.269 113.83 142.008 113.984 141.78C114.138 141.552 114.343 141.363 114.582 141.228Z" fill="#455A64"/>
<path d="M114.582 144.714L126.42 137.842C126.917 137.558 127.314 137.688 127.314 138.132C127.278 138.407 127.178 138.669 127.023 138.898C126.868 139.127 126.661 139.317 126.42 139.452L114.582 146.324C114.091 146.608 113.695 146.478 113.695 146.034C113.73 145.76 113.828 145.498 113.982 145.269C114.137 145.04 114.342 144.85 114.582 144.714Z" fill="#455A64"/>
<path d="M114.582 137.748L131.605 127.875C132.096 127.585 132.492 127.715 132.492 128.165C132.457 128.439 132.359 128.701 132.205 128.93C132.05 129.159 131.845 129.349 131.605 129.485L114.582 139.358C114.091 139.642 113.695 139.511 113.695 139.068C113.73 138.794 113.828 138.532 113.982 138.303C114.137 138.073 114.342 137.883 114.582 137.748Z" fill="#455A64"/>
<path d="M114.37 154.356L112.506 153.29C112.186 153.145 111.834 153.087 111.484 153.122C111.135 153.157 110.801 153.285 110.517 153.491C109.743 153.973 109.096 154.632 108.629 155.415C108.058 156.3 107.733 157.322 107.688 158.374C107.652 158.725 107.71 159.079 107.856 159.401C108.001 159.722 108.229 159.999 108.517 160.203L110.381 161.269C110.704 161.435 111.067 161.508 111.429 161.479C111.791 161.45 112.137 161.319 112.429 161.103C113.253 160.566 113.938 159.843 114.43 158.991C114.922 158.14 115.205 157.184 115.258 156.202C115.296 155.842 115.233 155.479 115.076 155.153C114.919 154.827 114.675 154.551 114.37 154.356Z" fill="#455A64"/>
<path d="M112.506 153.29C112.186 153.145 111.833 153.087 111.484 153.122C111.135 153.157 110.801 153.285 110.517 153.491C109.744 153.974 109.097 154.633 108.629 155.415C108.057 156.3 107.732 157.322 107.688 158.374C107.651 158.725 107.708 159.08 107.853 159.401C107.999 159.723 108.228 160 108.516 160.203L110.363 161.257C110.098 161.048 109.889 160.776 109.756 160.466C109.622 160.156 109.569 159.817 109.6 159.481C109.64 158.428 109.966 157.405 110.541 156.522C111.007 155.737 111.655 155.076 112.429 154.592C112.704 154.398 113.023 154.274 113.357 154.232C113.692 154.19 114.031 154.23 114.346 154.35L112.506 153.29Z" fill="#37474F"/>
<path d="M112.31 155.439C112.831 155.143 113.251 155.385 113.251 155.983C113.233 156.309 113.139 156.627 112.976 156.91C112.812 157.193 112.584 157.433 112.31 157.611C111.789 157.913 111.369 157.67 111.369 157.072C111.386 156.745 111.48 156.427 111.644 156.143C111.807 155.859 112.035 155.618 112.31 155.439Z" fill="white"/>
<path d="M112.435 160.594C113.166 160.129 113.762 159.48 114.163 158.712V158.617C114.163 157.629 113.471 157.232 112.618 157.723L112.086 158.031C111.656 158.311 111.296 158.684 111.03 159.123C110.765 159.561 110.602 160.054 110.553 160.564C110.592 160.614 110.638 160.657 110.689 160.695C110.96 160.844 111.267 160.914 111.576 160.896C111.885 160.879 112.183 160.774 112.435 160.594Z" fill="white"/>
<path d="M153.202 111.699L150.16 109.924C150.1 109.899 150.05 109.856 150.018 109.8L149.456 108.823L151.267 107.781L151.208 107.941L153.202 111.699Z" fill="#009688"/>
<g opacity="0.1">
<path d="M153.202 111.699L150.16 109.924C150.1 109.899 150.05 109.856 150.018 109.8L149.456 108.823L151.267 107.781L151.208 107.941L153.202 111.699Z" fill="black"/>
</g>
<path d="M150.989 107.947L153.096 111.593C153.122 111.653 153.167 111.703 153.223 111.736C153.28 111.77 153.345 111.784 153.411 111.778C153.476 111.773 153.538 111.746 153.587 111.703C153.637 111.661 153.672 111.603 153.687 111.539L155.913 105.118L150.989 107.947Z" fill="#009688"/>
<path d="M162.519 87.6218C162.491 87.1113 162.344 86.6144 162.089 86.1713C161.834 85.7282 161.478 85.3512 161.051 85.0708C160.593 84.8375 160.086 84.7158 159.571 84.7158C159.057 84.7158 158.55 84.8375 158.092 85.0708L134.287 98.8378C133.857 99.1155 133.5 99.4909 133.244 99.9333C132.988 100.376 132.84 100.872 132.813 101.383V113.451C132.84 113.962 132.988 114.458 133.244 114.901C133.5 115.343 133.857 115.718 134.287 115.996C134.745 116.23 135.252 116.351 135.766 116.351C136.281 116.351 136.788 116.23 137.246 115.996L161.163 102.135C162.483 101.383 162.495 100.625 162.495 99.6842L162.519 87.6218Z" fill="#009688"/>
<path d="M140.731 105.349L157.748 95.4761C158.239 95.192 158.641 95.3222 158.641 95.7661C158.606 96.0406 158.506 96.3028 158.351 96.532C158.196 96.7612 157.989 96.9509 157.748 97.086L140.731 106.958C140.24 107.243 139.838 107.112 139.838 106.668C139.873 106.394 139.973 106.132 140.128 105.903C140.283 105.673 140.49 105.484 140.731 105.349Z" fill="#455A64"/>
<path d="M145.887 105.804L157.725 98.9268C158.216 98.6427 158.618 98.7729 158.618 99.2168C158.583 99.4913 158.483 99.7535 158.328 99.9827C158.173 100.212 157.966 100.402 157.725 100.537L145.887 107.414C145.396 107.698 144.993 107.568 144.993 107.124C145.029 106.85 145.129 106.588 145.284 106.358C145.439 106.129 145.646 105.94 145.887 105.804Z" fill="#455A64"/>
<path d="M140.731 101.869L157.748 91.9961C158.239 91.712 158.641 91.8423 158.641 92.2862C158.606 92.5606 158.506 92.8229 158.351 93.052C158.196 93.2812 157.989 93.4709 157.748 93.606L140.731 103.478C140.24 103.763 139.838 103.632 139.838 103.188C139.873 102.914 139.973 102.652 140.128 102.423C140.283 102.193 140.49 102.004 140.731 101.869Z" fill="#455A64"/>
<path opacity="0.1" d="M132.812 113.433C132.839 113.944 132.987 114.441 133.243 114.883C133.5 115.325 133.857 115.701 134.286 115.978C134.701 116.186 135.155 116.304 135.619 116.326C136.083 116.347 136.546 116.271 136.979 116.103C136.286 116.363 135.76 115.967 135.76 115.126V103.064C135.777 102.551 135.926 102.052 136.192 101.614L133.232 99.915C132.967 100.354 132.819 100.853 132.8 101.365L132.812 113.433Z" fill="black"/>
<path opacity="0.3" d="M162.471 87.202C162.299 86.5806 161.731 86.3793 161.05 86.77L137.222 100.513C136.787 100.784 136.43 101.164 136.186 101.614L133.227 99.9214C133.471 99.4709 133.828 99.0916 134.262 98.8205L158.079 85.0772C158.538 84.8448 159.045 84.7236 159.559 84.7236C160.073 84.7236 160.58 84.8448 161.039 85.0772C161.409 85.3153 161.728 85.6265 161.974 85.9919C162.22 86.3572 162.389 86.769 162.471 87.202Z" fill="white"/>
<path d="M161.624 107.124L159.766 106.059C159.446 105.913 159.094 105.855 158.744 105.89C158.395 105.926 158.061 106.053 157.777 106.26C157.002 106.74 156.354 107.4 155.889 108.184C155.316 109.068 154.991 110.09 154.948 111.143C154.911 111.493 154.968 111.847 155.112 112.169C155.257 112.49 155.484 112.767 155.771 112.972L157.641 114.043C157.965 114.208 158.328 114.279 158.689 114.248C159.051 114.218 159.397 114.088 159.689 113.871C160.513 113.335 161.198 112.611 161.69 111.76C162.182 110.908 162.465 109.953 162.518 108.971C162.556 108.61 162.492 108.246 162.334 107.92C162.176 107.594 161.931 107.318 161.624 107.124Z" fill="#455A64"/>
<path d="M159.766 106.065C159.446 105.92 159.094 105.861 158.744 105.897C158.395 105.932 158.061 106.06 157.777 106.266C157.002 106.746 156.354 107.406 155.889 108.19C155.316 109.074 154.991 110.096 154.948 111.149C154.911 111.5 154.968 111.854 155.112 112.175C155.257 112.496 155.484 112.774 155.771 112.978L157.617 114.038C157.355 113.826 157.149 113.554 157.017 113.244C156.885 112.935 156.831 112.597 156.86 112.262C156.902 111.209 157.227 110.187 157.801 109.303C158.266 108.517 158.914 107.855 159.689 107.373C159.964 107.179 160.283 107.055 160.618 107.013C160.952 106.971 161.292 107.011 161.607 107.13L159.766 106.065Z" fill="#37474F"/>
<path d="M159.529 108.308C160.044 108.006 160.47 108.255 160.47 108.852C160.452 109.178 160.357 109.496 160.194 109.778C160.03 110.061 159.803 110.301 159.529 110.48C159.008 110.782 158.588 110.539 158.588 109.935C158.606 109.609 158.701 109.292 158.864 109.009C159.028 108.726 159.255 108.486 159.529 108.308Z" fill="#009688"/>
<path d="M159.648 113.469C160.382 113.006 160.981 112.357 161.382 111.587V111.516C161.382 110.528 160.69 110.131 159.837 110.622L159.305 110.93C158.876 111.211 158.515 111.584 158.248 112.022C157.982 112.461 157.817 112.953 157.766 113.463C157.81 113.51 157.858 113.553 157.908 113.593C158.18 113.74 158.488 113.806 158.796 113.784C159.104 113.762 159.4 113.653 159.648 113.469Z" fill="#009688"/>
<path d="M152.331 145.276L150.621 144.288C150.604 144.282 150.588 144.272 150.575 144.26C150.562 144.248 150.551 144.233 150.544 144.217L150.224 143.666L151.242 143.074L151.213 143.169L152.331 145.276Z" fill="#009688"/>
<g opacity="0.1">
<path d="M152.331 145.276L150.621 144.288C150.604 144.282 150.588 144.272 150.575 144.26C150.562 144.248 150.551 144.233 150.544 144.217L150.224 143.666L151.242 143.074L151.213 143.169L152.331 145.276Z" fill="black"/>
</g>
<path d="M151.101 143.169L152.285 145.217C152.302 145.246 152.327 145.27 152.357 145.285C152.387 145.3 152.421 145.307 152.454 145.304C152.488 145.3 152.52 145.288 152.546 145.267C152.573 145.247 152.593 145.219 152.605 145.188L153.854 141.577L151.101 143.169Z" fill="#009688"/>
<path d="M160.364 132.971C160.335 132.461 160.187 131.965 159.931 131.523C159.675 131.081 159.318 130.705 158.89 130.426C158.432 130.193 157.925 130.071 157.41 130.071C156.896 130.071 156.389 130.193 155.931 130.426L147.496 135.291C147.069 135.571 146.713 135.946 146.458 136.389C146.203 136.831 146.056 137.327 146.029 137.837V141.056C146.055 141.567 146.202 142.064 146.457 142.508C146.712 142.951 147.068 143.328 147.496 143.607C147.954 143.843 148.461 143.967 148.976 143.967C149.491 143.967 149.998 143.843 150.456 143.607L159.026 138.647C160.352 137.896 160.364 137.138 160.364 136.203V132.971Z" fill="#009688"/>
<path opacity="0.1" d="M146.046 141.057C146.073 141.567 146.22 142.064 146.475 142.508C146.73 142.951 147.086 143.328 147.514 143.608C147.929 143.818 148.383 143.938 148.847 143.959C149.312 143.981 149.775 143.903 150.207 143.732C149.515 143.998 148.988 143.602 148.988 142.761V139.541C149.006 139.029 149.155 138.53 149.42 138.091L146.461 136.393C146.196 136.831 146.047 137.33 146.029 137.843L146.046 141.057Z" fill="black"/>
<path opacity="0.3" d="M160.311 132.575C160.139 131.947 159.571 131.752 158.891 132.143L150.456 137.008C150.02 137.275 149.663 137.653 149.421 138.103L146.461 136.41C146.709 135.962 147.065 135.584 147.497 135.309L155.931 130.444C156.39 130.213 156.897 130.093 157.411 130.093C157.925 130.093 158.431 130.213 158.891 130.444C159.26 130.683 159.577 130.996 159.821 131.362C160.066 131.729 160.232 132.141 160.311 132.575Z" fill="white"/>
<path d="M152.244 138.63C152.01 138.782 151.814 138.989 151.674 139.231C151.534 139.474 151.454 139.747 151.439 140.027C151.439 140.536 151.795 140.749 152.244 140.488C152.478 140.336 152.673 140.131 152.813 139.889C152.953 139.647 153.034 139.376 153.049 139.097C153.049 138.582 152.688 138.375 152.244 138.63Z" fill="#455A64"/>
<path d="M154.788 137.156C154.553 137.309 154.358 137.515 154.218 137.758C154.078 138.001 153.998 138.273 153.983 138.553C153.983 139.062 154.344 139.275 154.788 139.015C155.022 138.862 155.217 138.657 155.357 138.415C155.497 138.174 155.578 137.902 155.593 137.624C155.593 137.109 155.244 136.902 154.788 137.156Z" fill="#455A64"/>
<path d="M157.339 135.682C157.105 135.834 156.91 136.04 156.77 136.281C156.63 136.523 156.55 136.794 156.534 137.073C156.534 137.588 156.895 137.795 157.339 137.541C157.576 137.386 157.773 137.177 157.913 136.931C158.053 136.685 158.132 136.409 158.144 136.126C158.144 135.635 157.783 135.428 157.339 135.682Z" fill="#455A64"/>
<path d="M161.624 141.293L159.766 140.228C159.446 140.082 159.094 140.024 158.744 140.059C158.395 140.095 158.061 140.222 157.777 140.429C157.002 140.909 156.354 141.568 155.889 142.353C155.316 143.237 154.991 144.259 154.948 145.312C154.911 145.662 154.968 146.016 155.112 146.338C155.257 146.659 155.484 146.936 155.771 147.141L157.641 148.212C157.965 148.377 158.328 148.448 158.689 148.417C159.051 148.387 159.397 148.257 159.689 148.04C160.512 147.504 161.197 146.782 161.689 145.931C162.18 145.081 162.464 144.126 162.518 143.146C162.556 142.784 162.493 142.419 162.335 142.092C162.177 141.765 161.931 141.488 161.624 141.293Z" fill="#455A64"/>
<path d="M159.766 140.228C159.446 140.082 159.094 140.024 158.744 140.059C158.395 140.095 158.061 140.222 157.777 140.429C157.002 140.909 156.354 141.568 155.889 142.353C155.316 143.237 154.991 144.259 154.948 145.312C154.911 145.662 154.968 146.016 155.112 146.338C155.257 146.659 155.484 146.936 155.771 147.141L157.617 148.2C157.355 147.989 157.149 147.717 157.017 147.407C156.885 147.097 156.831 146.76 156.86 146.425C156.902 145.371 157.227 144.349 157.801 143.465C158.267 142.681 158.915 142.019 159.689 141.536C159.964 141.341 160.283 141.218 160.618 141.175C160.952 141.133 161.292 141.174 161.607 141.293L159.766 140.228Z" fill="#37474F"/>
<path d="M159.529 142.477C160.044 142.181 160.47 142.423 160.47 143.021C160.452 143.347 160.357 143.664 160.194 143.947C160.03 144.23 159.803 144.47 159.529 144.649C159.008 144.951 158.588 144.708 158.588 144.104C158.606 143.778 158.701 143.461 158.864 143.178C159.028 142.895 159.255 142.655 159.529 142.477Z" fill="#009688"/>
<path d="M159.648 147.632C160.382 147.169 160.981 146.519 161.382 145.75V145.679C161.382 144.69 160.69 144.294 159.837 144.785L159.305 145.093C158.876 145.373 158.515 145.747 158.248 146.185C157.982 146.623 157.817 147.116 157.766 147.626C157.81 147.672 157.858 147.716 157.908 147.756C158.18 147.903 158.488 147.969 158.796 147.947C159.104 147.925 159.4 147.815 159.648 147.632Z" fill="#009688"/>
<path d="M213.004 119.613L209.961 117.837C209.902 117.809 209.853 117.764 209.819 117.707L209.263 116.731L211.068 115.689L211.009 115.849L213.004 119.613Z" fill="#E0E0E0"/>
<path d="M210.791 115.86L212.898 119.506C212.924 119.566 212.969 119.616 213.025 119.65C213.082 119.683 213.147 119.698 213.213 119.692C213.278 119.686 213.34 119.66 213.389 119.617C213.439 119.574 213.474 119.517 213.489 119.453L215.691 113.043L210.791 115.86Z" fill="#F0F0F0"/>
<path d="M232.779 89.4509C232.75 88.94 232.602 88.443 232.346 87.9999C232.09 87.5568 231.733 87.18 231.305 86.8999C230.847 86.6638 230.34 86.5405 229.825 86.5405C229.31 86.5405 228.803 86.6638 228.345 86.8999L204.523 100.637C204.094 100.917 203.738 101.294 203.482 101.737C203.226 102.18 203.078 102.677 203.049 103.188V115.251C203.077 115.762 203.225 116.259 203.481 116.702C203.737 117.146 204.094 117.522 204.523 117.802C204.981 118.035 205.488 118.157 206.002 118.157C206.517 118.157 207.024 118.035 207.482 117.802L231.441 103.958C232.761 103.206 232.779 102.448 232.779 101.507V89.4509Z" fill="#F0F0F0"/>
<path d="M203.09 115.257C203.118 115.768 203.265 116.266 203.522 116.709C203.778 117.152 204.135 117.529 204.564 117.808C204.978 118.016 205.431 118.134 205.894 118.154C206.358 118.175 206.82 118.097 207.251 117.926C206.558 118.193 206.031 117.796 206.031 116.956V104.893C206.049 104.381 206.198 103.882 206.463 103.443L203.504 101.745C203.239 102.183 203.09 102.682 203.072 103.195L203.09 115.257Z" fill="#E0E0E0"/>
<path d="M232.779 89.0306C232.607 88.4092 232.039 88.2079 231.359 88.5986L207.506 102.342C207.07 102.611 206.713 102.991 206.47 103.443L203.511 101.75C203.755 101.3 204.112 100.92 204.547 100.649L228.364 86.9058C228.822 86.6734 229.329 86.5522 229.843 86.5522C230.358 86.5522 230.864 86.6734 231.323 86.9058C231.698 87.1415 232.021 87.4517 232.271 87.8172C232.522 88.1827 232.695 88.5957 232.779 89.0306Z" fill="#F5F5F5"/>
<path d="M209.985 107.769L227.002 97.897C227.499 97.6129 227.895 97.7431 227.895 98.187C227.859 98.4615 227.76 98.7237 227.605 98.9529C227.45 99.1821 227.243 99.3718 227.002 99.5069L209.985 109.379C209.494 109.663 209.097 109.533 209.097 109.089C209.133 108.815 209.231 108.554 209.385 108.324C209.539 108.095 209.745 107.905 209.985 107.769Z" fill="#455A64"/>
<path d="M209.985 111.267L221.823 104.39C222.314 104.106 222.716 104.236 222.716 104.68C222.681 104.954 222.581 105.216 222.426 105.446C222.271 105.675 222.064 105.864 221.823 106L209.985 112.877C209.494 113.161 209.097 113.031 209.097 112.587C209.133 112.313 209.231 112.051 209.385 111.822C209.539 111.593 209.745 111.403 209.985 111.267Z" fill="#455A64"/>
<path d="M209.985 104.289L227.002 94.4166C227.499 94.1325 227.895 94.2627 227.895 94.7066C227.859 94.981 227.76 95.2433 227.605 95.4724C227.45 95.7016 227.243 95.8913 227.002 96.0264L209.985 105.899C209.494 106.183 209.097 106.053 209.097 105.609C209.133 105.335 209.231 105.073 209.385 104.844C209.539 104.615 209.745 104.425 209.985 104.289Z" fill="#455A64"/>
<path d="M46.1438 73.2981L49.186 71.5225C49.2463 71.4958 49.2962 71.4501 49.3281 71.3923L49.9199 70.4157L48.1088 69.374L48.168 69.5338L46.1438 73.2981Z" fill="#009688"/>
<g opacity="0.1">
<path d="M46.1438 73.2986L49.186 71.523C49.2463 71.4963 49.2962 71.4506 49.3281 71.3928L49.9199 70.4162L48.1088 69.3745L48.168 69.5343L46.1438 73.2986Z" fill="black"/>
</g>
<path d="M48.3575 69.5401L46.2504 73.186C46.2239 73.246 46.1793 73.2962 46.1227 73.3295C46.0662 73.3628 46.0007 73.3775 45.9354 73.3716C45.8701 73.3658 45.8082 73.3396 45.7586 73.2967C45.7089 73.2539 45.6739 73.1965 45.6585 73.1328L43.4331 66.7109L48.3575 69.5401Z" fill="#009688"/>
<path d="M36.8281 49.215C36.8554 48.7046 37.0032 48.2078 37.2593 47.7655C37.5155 47.3231 37.8728 46.9477 38.3019 46.6699C38.7602 46.4366 39.2672 46.3149 39.7816 46.3149C40.2959 46.3149 40.8029 46.4366 41.2612 46.6699L65.09 60.4132C65.5174 60.6923 65.873 61.0682 66.128 61.5104C66.3831 61.9525 66.5303 62.4486 66.5579 62.9583V75.0266C66.5303 75.5362 66.3831 76.0323 66.128 76.4744C65.873 76.9166 65.5174 77.2925 65.09 77.5716C64.6317 77.805 64.1247 77.9266 63.6104 77.9266C63.096 77.9266 62.589 77.805 62.1307 77.5716L38.1598 63.7277C36.84 62.976 36.8281 62.2184 36.8281 61.2833V49.215Z" fill="#009688"/>
<path d="M58.6148 66.9418L41.6044 57.0694C41.1131 56.7853 40.7166 56.9155 40.7166 57.3594C40.7517 57.6333 40.8503 57.8952 41.0044 58.1243C41.1585 58.3534 41.3639 58.5435 41.6044 58.6793L58.6207 68.5517C59.1179 68.8358 59.5144 68.7056 59.5144 68.2617C59.478 67.9867 59.3776 67.7241 59.2214 67.4949C59.0652 67.2657 58.8574 67.0763 58.6148 66.9418Z" fill="#455A64"/>
<path d="M53.4418 67.3971L41.6044 60.5196C41.1131 60.2355 40.7166 60.3657 40.7166 60.8096C40.75 61.0856 40.8477 61.3499 41.0019 61.5812C41.1561 61.8125 41.3625 62.0043 41.6044 62.1413L53.4418 69.0189C53.9331 69.303 54.3355 69.1728 54.3355 68.7289C54.3015 68.4523 54.2029 68.1877 54.0476 67.9563C53.8923 67.725 53.6848 67.5334 53.4418 67.3971Z" fill="#455A64"/>
<path d="M58.6148 63.4613L41.6044 53.5889C41.1131 53.3048 40.7166 53.435 40.7166 53.8789C40.7517 54.1528 40.8503 54.4147 41.0044 54.6438C41.1585 54.873 41.3639 55.063 41.6044 55.1988L58.6148 65.1008C59.1119 65.3849 59.5085 65.2547 59.5085 64.8108C59.4771 64.5312 59.3797 64.2629 59.2243 64.0283C59.069 63.7937 58.86 63.5994 58.6148 63.4613Z" fill="#455A64"/>
<path opacity="0.1" d="M66.5332 75.0266C66.5056 75.5363 66.3583 76.0323 66.1033 76.4745C65.8483 76.9167 65.4927 77.2925 65.0653 77.5717C64.6509 77.7821 64.1965 77.9019 63.7322 77.9234C63.2679 77.9448 62.8044 77.8673 62.3723 77.6959C63.0648 77.9564 63.5916 77.5598 63.5916 76.7253V64.657C63.5733 64.1448 63.4245 63.6457 63.1595 63.2069L66.1189 61.5142C66.3851 61.9502 66.534 62.4477 66.5509 62.9583L66.5332 75.0266Z" fill="black"/>
<path opacity="0.3" d="M36.8691 48.8007C37.0408 48.1733 37.609 47.978 38.2896 48.3686L62.1243 62.1415C62.5602 62.4086 62.9176 62.7864 63.1601 63.2365L66.1195 61.5437C65.8719 61.0958 65.5158 60.7172 65.0837 60.4428L41.2431 46.67C40.7845 46.4375 40.2775 46.3164 39.7634 46.3164C39.2492 46.3164 38.7423 46.4375 38.2837 46.67C37.9156 46.9105 37.6003 47.2234 37.3571 47.5897C37.1139 47.9561 36.9479 48.3681 36.8691 48.8007Z" fill="white"/>
<path d="M187.063 80.0105L183.784 78.1165C183.719 78.0897 183.665 78.0417 183.63 77.9803L183.038 76.9268L184.986 75.8022L184.926 75.9739L187.063 80.0105Z" fill="#263238"/>
<path d="M184.677 75.9618L186.944 79.8918C186.979 79.9408 187.027 79.9797 187.082 80.0045C187.137 80.0293 187.197 80.0392 187.257 80.0332C187.317 80.0272 187.375 80.0055 187.423 79.9703C187.472 79.9351 187.511 79.8876 187.536 79.8326L189.903 72.9077L184.677 75.9618Z" fill="#37474F"/>
<path d="M211.596 29.1858C211.567 28.6355 211.408 28.0998 211.132 27.6226C210.856 27.1453 210.472 26.74 210.01 26.4395L208.719 25.6938C208.228 25.4429 207.685 25.312 207.133 25.312C206.582 25.312 206.038 25.4429 205.547 25.6938L175.06 43.302C174.598 43.6024 174.213 44.0078 173.937 44.485C173.662 44.9623 173.503 45.4979 173.473 46.0483V75.4525C173.503 76.0029 173.662 76.5385 173.937 77.0157C174.213 77.493 174.598 77.8984 175.06 78.1988L176.35 78.9445C176.841 79.1955 177.385 79.3263 177.936 79.3263C178.488 79.3263 179.031 79.1955 179.522 78.9445L210.158 61.2298C211.584 60.4189 211.596 59.6022 211.596 58.5901V29.1858Z" fill="#37474F"/>
<path d="M173.473 75.4526C173.503 76.003 173.662 76.5386 173.937 77.0158C174.213 77.4931 174.598 77.8985 175.06 78.1989L176.35 78.9446C176.796 79.1704 177.286 79.2992 177.785 79.3226C178.285 79.3461 178.784 79.2637 179.25 79.0808C178.504 79.359 177.936 78.9328 177.936 78.0332V48.623C177.955 48.0707 178.116 47.5326 178.404 47.0605L173.941 44.4858C173.653 44.9576 173.492 45.4959 173.473 46.0484V75.4526Z" fill="#263238"/>
<path d="M211.542 28.7365C211.359 28.0617 210.743 27.8487 210.009 28.2689L179.51 45.8771C179.041 46.1678 178.655 46.5758 178.392 47.0608L173.929 44.4862C174.194 44.0024 174.58 43.5949 175.048 43.3025L205.553 25.6943C206.045 25.4483 206.588 25.3203 207.139 25.3203C207.689 25.3203 208.233 25.4483 208.725 25.6943L210.021 26.44C210.417 26.7002 210.756 27.0378 211.017 27.4325C211.278 27.8272 211.457 28.2708 211.542 28.7365Z" fill="#455A64"/>
<path d="M181.079 50.5942C181.089 50.4231 181.139 50.2569 181.226 50.1088C181.312 49.9608 181.432 49.8351 181.576 49.7419L206.736 35.1996C206.89 35.1239 207.059 35.0845 207.23 35.0845C207.402 35.0845 207.571 35.1239 207.725 35.1996L208.281 35.5192C208.423 35.6138 208.541 35.7399 208.627 35.8877C208.712 36.0356 208.762 36.2012 208.772 36.3715V55.6784C208.762 55.8495 208.712 56.0159 208.627 56.1647C208.541 56.3135 208.423 56.4407 208.281 56.5366L183.115 71.0789C182.961 71.1546 182.792 71.194 182.62 71.194C182.449 71.194 182.28 71.1546 182.126 71.0789L181.576 70.7593C181.432 70.6647 181.312 70.5379 181.226 70.389C181.139 70.24 181.089 70.0729 181.079 69.901V50.5942Z" fill="#009688"/>
<path opacity="0.4" d="M181.079 50.5942C181.089 50.4231 181.139 50.2569 181.226 50.1088C181.312 49.9608 181.432 49.8351 181.576 49.7419L206.736 35.1996C206.89 35.1239 207.059 35.0845 207.23 35.0845C207.402 35.0845 207.571 35.1239 207.725 35.1996L208.281 35.5192C208.423 35.6138 208.541 35.7399 208.627 35.8877C208.712 36.0356 208.762 36.2012 208.772 36.3715V55.6784C208.762 55.8495 208.712 56.0159 208.627 56.1647C208.541 56.3135 208.423 56.4407 208.281 56.5366L183.115 71.0789C182.961 71.1546 182.792 71.194 182.62 71.194C182.449 71.194 182.28 71.1546 182.126 71.0789L181.576 70.7593C181.432 70.6647 181.312 70.5379 181.226 70.389C181.139 70.24 181.089 70.0729 181.079 69.901V50.5942Z" fill="white"/>
<path d="M183.387 51.3637L181.227 50.1089C181.137 50.2557 181.086 50.4226 181.079 50.5942V69.9011C181.089 70.073 181.139 70.24 181.226 70.389C181.312 70.538 181.432 70.6648 181.576 70.7593L182.126 71.0789C182.28 71.1546 182.449 71.194 182.62 71.194C182.792 71.194 182.961 71.1546 183.115 71.0789L183.387 70.9191V51.3637Z" fill="#009688"/>
<path opacity="0.3" d="M183.387 51.3637L181.227 50.1089C181.137 50.2557 181.086 50.4226 181.079 50.5942V69.9011C181.089 70.073 181.139 70.24 181.226 70.389C181.312 70.538 181.432 70.6648 181.576 70.7593L182.126 71.0789C182.28 71.1546 182.449 71.194 182.62 71.194C182.792 71.194 182.961 71.1546 183.115 71.0789L183.387 70.9191V51.3637Z" fill="black"/>
<path d="M208.797 36.3717V55.6845C208.787 55.8448 208.742 56.0009 208.665 56.142C208.588 56.2831 208.482 56.4058 208.353 56.5013H208.323L183.115 71.0791C183.066 71.1127 183.01 71.1335 182.951 71.1397C182.892 71.1459 182.833 71.1373 182.778 71.1146C182.725 71.0797 182.683 71.0306 182.657 70.9731C182.631 70.9155 182.622 70.8518 182.63 70.7891V51.4881C182.624 51.4191 182.636 51.3498 182.664 51.2864C182.692 51.2229 182.735 51.1674 182.789 51.1246C182.844 51.0819 182.908 51.0532 182.976 51.0413C183.044 51.0293 183.115 51.0344 183.18 51.0561L193.775 53.5715L195.16 53.903C195.324 53.9331 195.493 53.9182 195.65 53.8598C195.806 53.8015 195.943 53.7018 196.048 53.5715L197.652 51.3342L208.471 36.2711C208.649 36.0107 208.797 36.058 208.797 36.3717Z" fill="#009688"/>
<path d="M208.305 56.5367H208.335C208.453 56.4523 208.552 56.3433 208.625 56.2171C208.717 56.0689 208.769 55.9 208.779 55.7259L197.628 51.3638L205.091 58.413L208.305 56.5367Z" fill="#009688"/>
<path opacity="0.2" d="M208.305 56.5367H208.335C208.453 56.4523 208.552 56.3433 208.625 56.2171C208.717 56.0689 208.769 55.9 208.779 55.7259L197.628 51.3638L205.091 58.413L208.305 56.5367Z" fill="black"/>
<path d="M182.624 70.7889C182.616 70.8516 182.625 70.9153 182.651 70.9729C182.678 71.0305 182.719 71.0795 182.772 71.1144C182.827 71.1371 182.886 71.1458 182.945 71.1396C183.004 71.1334 183.061 71.1125 183.109 71.0789L191.78 66.0717L193.763 53.5654L182.618 70.4693L182.624 70.7889Z" fill="#009688"/>
<path opacity="0.2" d="M182.624 70.7889C182.616 70.8516 182.625 70.9153 182.651 70.9729C182.678 71.0305 182.719 71.0795 182.772 71.1144C182.827 71.1371 182.886 71.1458 182.945 71.1396C183.004 71.1334 183.061 71.1125 183.109 71.0789L191.78 66.0717L193.763 53.5654L182.618 70.4693L182.624 70.7889Z" fill="black"/>
<path d="M208.642 56.1815C208.569 56.3077 208.47 56.4167 208.352 56.5011L183.114 71.079C183.066 71.1126 183.009 71.1334 182.95 71.1396C182.891 71.1458 182.832 71.1372 182.777 71.1145L194.839 51.8609C195.082 51.4764 195.454 51.1916 195.888 51.058C196.323 50.9245 196.79 50.951 197.207 51.1329L208.642 56.1815Z" fill="#009688"/>
<path opacity="0.3" d="M182.824 51.0202L194.307 56.0807C194.722 56.2695 195.191 56.3003 195.627 56.1673C196.063 56.0344 196.435 55.7468 196.674 55.3587L208.666 36.0991L182.824 51.0202Z" fill="black"/>
<path d="M182.824 51.0202L194.366 55.335C194.765 55.4834 195.203 55.4915 195.607 55.3582C196.012 55.2248 196.359 54.9578 196.591 54.6011L208.666 36.0991L182.824 51.0202Z" fill="#009688"/>
<path d="M218.254 21.8944L215.614 20.326C214.703 19.811 213.448 19.888 212.063 20.687C209.275 22.2969 207.014 26.2151 207.014 29.4408C207.014 31.0448 207.577 32.1753 208.488 32.7079L210.968 34.1284L211.412 33.3827C211.923 33.26 212.412 33.0605 212.862 32.7908C215.656 31.175 217.917 27.2568 217.917 24.037C217.916 23.602 217.862 23.1688 217.757 22.7467L218.254 21.8944Z" fill="#F28F8F"/>
<path d="M214.573 22.1548C211.785 23.7647 209.524 27.6829 209.524 30.9026C209.524 34.1224 211.785 35.4364 214.573 33.8206C217.361 32.2048 219.628 28.2925 219.628 25.0727C219.628 21.8529 217.39 20.5449 214.573 22.1548Z" fill="#FFA8A7"/>
<path d="M212.767 28.1267C212.734 28.0783 212.722 28.0188 212.732 27.961C212.743 27.8875 212.77 27.817 212.809 27.7539L214.277 25.3864L214.413 25.1851C214.46 25.1133 214.523 25.0527 214.596 25.0076L215.425 24.5222C215.445 24.509 215.469 24.502 215.493 24.502C215.517 24.502 215.541 24.509 215.561 24.5222C215.58 24.5405 215.594 24.5627 215.604 24.5873C215.613 24.6119 215.617 24.6382 215.614 24.6643V30.583C215.613 30.6534 215.595 30.7223 215.561 30.7843C215.53 30.8451 215.483 30.8963 215.425 30.9322L214.531 31.4531C214.513 31.4675 214.49 31.4753 214.466 31.4753C214.443 31.4753 214.42 31.4675 214.401 31.4531C214.382 31.4348 214.368 31.4126 214.358 31.388C214.349 31.3635 214.346 31.3372 214.348 31.311V27.31L213.531 28.6062C213.501 28.6622 213.453 28.7061 213.395 28.7305C213.377 28.7444 213.355 28.7519 213.333 28.7519C213.31 28.7519 213.288 28.7444 213.271 28.7305L212.767 28.1267Z" fill="white"/>
<path d="M224.706 176.485C223.268 174.816 222.108 172.449 221.593 171.958C220.096 170.531 218.574 150.331 218.574 150.331C222.072 150.212 223.949 151.514 224.552 154.201C225.156 156.889 227.553 169.886 227.553 169.886" fill="#FFA8A7"/>
<path d="M203.393 177.989C201.653 181.505 197.356 192.088 195.651 199.409C194.053 206.263 193.432 211.01 195.651 212.667C197.871 214.324 204.222 213.318 208.246 204.754C209.507 202.073 214.248 193.798 214.248 193.798C214.248 193.798 217.752 192.537 218.983 191.59C218.983 191.59 230.678 191.928 236.36 190.768C242.042 189.608 248.085 182.659 245.759 181.978C241.575 180.747 233.419 179.854 223.978 179.244L203.393 177.989Z" fill="#37474F"/>
<path d="M230.762 189.3C228.205 189.891 224.417 189.098 222.274 188.477C222.405 187.724 222.381 186.953 222.203 186.21C222.084 187.212 221.762 188.178 221.256 189.051C220.907 189.252 220.605 189.418 220.392 189.524C218.971 190.252 215.065 192.247 214.343 191.62C213.252 190.212 211.702 189.23 209.963 188.844C211.188 189.667 214.734 192.206 213.473 195.153L214.248 193.798C214.248 193.798 217.752 192.537 218.983 191.59C218.983 191.59 225.494 191.779 231.2 191.389L237.935 186.725C237.935 186.725 234.686 186.535 230.762 189.3Z" fill="#263238"/>
<path d="M224.21 197.485C222.985 198.592 221.114 199.479 219.801 199.207C218.487 198.935 216.604 198.805 215.87 201.427C215.036 204.386 212.319 206.215 210.828 207.849C209.336 209.482 209.804 211.932 210.585 213.625C211.899 216.478 213.817 214.756 214.882 212.945C215.947 211.133 219.073 207.813 220.582 206.434C222.255 204.771 224.034 203.219 225.909 201.788L224.21 197.485Z" fill="#FFA8A7"/>
<path d="M241.824 181.759C249.145 181.014 249.293 185.482 247.411 188.507C245.381 191.762 237.633 195.781 233.839 197.71C230.045 199.64 224.748 202.67 224.748 202.67C223.616 201.461 222.904 199.919 222.718 198.273C226.861 195.361 230.939 187.879 237.894 186.725L241.824 181.759Z" fill="#37474F"/>
<path d="M220.286 199.255C220.123 199.251 219.961 199.236 219.801 199.208C218.487 198.929 216.604 198.805 215.87 201.427C215.036 204.386 212.319 206.215 210.828 207.849C209.336 209.482 209.804 211.933 210.585 213.626C211.899 216.478 213.817 214.756 214.882 212.945C215.463 212.035 216.114 211.173 216.829 210.364C216.5 210.756 216.034 211.008 215.527 211.068C215.019 211.129 214.507 210.993 214.095 210.69C213.556 210.222 213.953 208.577 214.953 207.47C215.953 206.363 219.593 199.166 220.286 199.255Z" fill="#263238"/>
<path d="M221.197 198.391C222.534 198.053 224.499 197.574 225.31 196.508C226.121 195.443 227.802 194.407 230.081 195.917C232.661 197.615 235.893 197.213 238.095 197.455C240.296 197.698 241.545 199.87 242.066 201.658C242.948 204.676 240.415 203.646 238.426 202.978C236.437 202.309 231.815 201.681 229.856 201.942C227.897 202.202 222.984 203.445 222.984 203.445L221.197 198.391Z" fill="#FFA8A7"/>
<path d="M237.479 202.688C237.828 202.776 238.154 202.865 238.426 202.96C240.415 203.629 242.948 204.659 242.066 201.64C241.545 199.864 240.291 197.686 238.095 197.438C235.899 197.189 232.661 197.598 230.081 195.899C227.802 194.407 226.121 195.437 225.31 196.491C225.215 196.61 225.11 196.721 224.997 196.822C224.997 196.822 227.619 197.633 230.507 198.468C233.395 199.302 238.284 200.746 238.468 201.492C238.604 202.048 238.698 202.723 237.479 202.688Z" fill="#263238"/>
<path d="M194.45 210.702C194.877 213.306 197.795 214.561 204.051 213.306C210.307 212.051 223.784 203.499 223.784 203.499C223.784 203.499 224.612 199.089 221.191 198.125C221.191 198.125 218.078 198.716 213 199.794C210.707 200.299 208.443 200.925 206.217 201.67C202.784 206.275 199.209 204.416 197.931 206.038C195.782 208.755 194.45 210.702 194.45 210.702Z" fill="#37474F"/>
<path d="M210.544 200.391C207.954 200.939 205.477 201.928 203.222 203.315C203.222 203.315 206.424 199.562 211.372 198.888L210.544 200.391Z" fill="#263238"/>
<path d="M223.019 166.761C223.303 169.424 223.96 179.244 223.96 179.244C221.895 186.21 205.855 184.807 202.754 179.344C203.745 177.075 204.55 174.73 205.163 172.33L203.458 164.879C203.458 164.879 207.536 161.162 203.458 153.574L208.85 151.958L218.574 150.331C220.214 150.419 222.996 154.178 224.067 156.924C224.748 158.682 225.298 162.251 223.019 166.761Z" fill="#009688"/>
<path opacity="0.15" d="M214.609 183.967C207.879 183.683 204.778 179.545 204.849 178.456C205.093 176.861 205.425 175.28 205.843 173.721L208.365 174.71L206.287 171.679L204.849 165.222C206.37 162.991 205.618 158.954 205.618 158.954L205.198 158.706C205.689 162.849 203.458 164.879 203.458 164.879L205.163 172.33C204.55 174.726 203.744 177.067 202.754 179.332C204.399 182.244 209.696 184.002 214.609 183.967Z" fill="black"/>
<path d="M214.532 147.744L210.981 147.839C209.809 147.871 208.643 147.672 207.549 147.254C206.454 146.835 205.453 146.205 204.602 145.399C203.751 144.593 203.067 143.628 202.59 142.557C202.112 141.487 201.85 140.333 201.819 139.162C201.78 137.759 202.018 136.361 202.52 135.05C203.021 133.739 203.776 132.539 204.741 131.52C205.706 130.5 206.863 129.681 208.145 129.108C209.427 128.536 210.809 128.221 212.212 128.183C213.615 128.144 215.013 128.382 216.324 128.884C217.635 129.385 218.835 130.14 219.854 131.105C220.874 132.07 221.693 133.227 222.266 134.509C222.839 135.791 223.153 137.173 223.191 138.576C223.257 140.939 222.381 143.232 220.758 144.951C219.135 146.67 216.895 147.674 214.532 147.744Z" fill="#263238"/>
<path d="M203.576 133.966L200.919 133.036C200.97 132.856 201.058 132.689 201.177 132.545C201.295 132.4 201.443 132.282 201.609 132.197C201.776 132.112 201.958 132.062 202.145 132.051C202.332 132.039 202.519 132.067 202.694 132.131C203.048 132.266 203.337 132.531 203.501 132.872C203.665 133.214 203.692 133.605 203.576 133.966Z" fill="#263238"/>
<path d="M203.547 133.279L202.73 130.592C202.904 130.527 203.089 130.498 203.275 130.507C203.461 130.517 203.643 130.564 203.809 130.647C203.976 130.73 204.124 130.846 204.243 130.988C204.363 131.13 204.452 131.296 204.505 131.474C204.612 131.84 204.571 132.234 204.392 132.571C204.213 132.908 203.91 133.162 203.547 133.279Z" fill="#263238"/>
<path d="M218.947 132.788C220.095 133.427 221.569 136.226 221.593 142.187C221.593 147.235 220.012 148.525 219.225 148.904C218.438 149.283 216.822 149.111 215.277 148.904L215.307 150.994C215.307 150.994 218.083 154.03 217.982 155.421C217.881 156.812 214.431 157.534 212.407 156.232C210.939 155.164 209.661 153.857 208.625 152.367L208.471 145.371C208.471 145.371 207.589 146.276 206.014 144.974C204.718 143.897 204.239 142.015 205.204 141.009C205.452 140.759 205.757 140.572 206.092 140.464C206.428 140.356 206.784 140.33 207.132 140.388C207.48 140.446 207.808 140.586 208.091 140.797C208.373 141.008 208.601 141.284 208.755 141.601C208.755 141.601 211.211 141.601 214.431 139.736C215.675 139.013 216.733 138.007 217.517 136.8C218.301 135.593 218.791 134.219 218.947 132.788Z" fill="#FFA8A7"/>
<path d="M215.923 141.068C215.935 141.154 215.929 141.241 215.906 141.324C215.882 141.407 215.842 141.485 215.788 141.552C215.734 141.619 215.666 141.675 215.59 141.715C215.513 141.755 215.429 141.779 215.343 141.785C215.257 141.792 215.17 141.781 215.089 141.752C215.007 141.724 214.932 141.679 214.868 141.621C214.804 141.563 214.753 141.492 214.718 141.413C214.682 141.334 214.664 141.249 214.662 141.163C214.651 141.077 214.657 140.99 214.68 140.907C214.703 140.823 214.743 140.746 214.797 140.679C214.852 140.611 214.919 140.556 214.996 140.516C215.072 140.476 215.156 140.452 215.242 140.445C215.329 140.439 215.415 140.45 215.497 140.478C215.578 140.506 215.654 140.551 215.717 140.609C215.781 140.668 215.832 140.739 215.868 140.817C215.903 140.896 215.922 140.981 215.923 141.068Z" fill="#263238"/>
<path d="M216.208 145.341L217.693 145.773C217.669 145.873 217.626 145.967 217.564 146.049C217.503 146.131 217.426 146.2 217.338 146.251C217.249 146.302 217.151 146.335 217.049 146.348C216.948 146.36 216.845 146.352 216.746 146.324C216.547 146.262 216.379 146.125 216.278 145.942C216.178 145.758 216.152 145.543 216.208 145.341Z" fill="#F28F8F"/>
<path d="M221.072 138.979L219.758 138.126C219.81 138.038 219.88 137.962 219.962 137.901C220.045 137.841 220.138 137.798 220.238 137.775C220.337 137.751 220.441 137.749 220.541 137.766C220.642 137.784 220.738 137.822 220.824 137.878C220.999 137.994 221.122 138.173 221.169 138.378C221.215 138.583 221.18 138.798 221.072 138.979Z" fill="#263238"/>
<path d="M220.817 140.476C220.826 140.561 220.818 140.647 220.793 140.73C220.768 140.812 220.726 140.888 220.671 140.954C220.616 141.019 220.548 141.073 220.471 141.112C220.395 141.151 220.311 141.174 220.225 141.18C220.056 141.191 219.889 141.136 219.761 141.025C219.632 140.914 219.552 140.757 219.539 140.588C219.533 140.505 219.543 140.421 219.569 140.342C219.595 140.263 219.636 140.19 219.691 140.127C219.745 140.063 219.812 140.011 219.886 139.974C219.961 139.936 220.042 139.914 220.125 139.908C220.208 139.901 220.292 139.912 220.371 139.938C220.45 139.964 220.523 140.005 220.587 140.06C220.65 140.114 220.702 140.18 220.739 140.255C220.777 140.329 220.799 140.41 220.805 140.493L220.817 140.476Z" fill="#263238"/>
<path d="M217.947 139.878L218.018 144.01L220.013 143.335L217.947 139.878Z" fill="#F28F8F"/>
<path d="M215.254 148.898C213.627 148.727 210.259 147.857 209.702 146.531C209.933 147.192 210.358 147.768 210.922 148.182C211.94 149.011 215.284 149.881 215.284 149.881L215.254 148.898Z" fill="#F28F8F"/>
<path d="M204.559 196.153V196.633C204.555 196.872 204.616 197.107 204.733 197.315C204.851 197.523 205.021 197.696 205.228 197.816L218.059 205.197C218.264 205.317 218.497 205.381 218.734 205.381C218.971 205.381 219.204 205.317 219.409 205.197L242.948 191.584C243.156 191.465 243.328 191.293 243.447 191.084C243.566 190.876 243.626 190.64 243.622 190.4V190.075L218.734 204.439L204.559 196.153Z" fill="#EBEBEB"/>
<path d="M243.622 190.098L229.666 182.037C229.543 181.967 229.405 181.93 229.264 181.93C229.122 181.93 228.984 181.967 228.861 182.037L204.648 196.023C204.621 196.039 204.598 196.061 204.582 196.088C204.567 196.115 204.559 196.146 204.559 196.177C204.559 196.208 204.567 196.239 204.582 196.266C204.598 196.293 204.621 196.315 204.648 196.331L218.734 204.469L243.622 190.098Z" fill="#FAFAFA"/>
<path d="M227.542 169.863C229.418 172.591 233.674 178.522 235.585 181.919C236.686 183.878 235.301 185.778 232.295 184.973C230.312 184.447 227.465 179.694 224.707 176.474" fill="#FFA8A7"/>
<path d="M218.61 203.28L211.081 198.941L233.093 186.228L240.663 190.549L218.61 203.28Z" fill="#E0E0E0"/>
<path d="M214.906 191.199L215.048 191.282L218.735 193.413L225.299 189.625L225.435 189.548L221.606 187.334L214.906 191.199Z" fill="#E0E0E0"/>
<path d="M215.047 191.282L218.734 193.413L225.298 189.625L221.605 187.494L215.047 191.282Z" fill="#E6E6E6"/>
<path d="M218.735 204.463V205.375C218.972 205.376 219.205 205.312 219.409 205.191L242.948 191.578C243.156 191.459 243.329 191.287 243.448 191.079C243.566 190.87 243.627 190.634 243.623 190.394V190.069L218.735 204.463Z" fill="#EBEBEB"/>
<g opacity="0.5">
<path d="M218.735 204.463V205.375C218.972 205.376 219.205 205.312 219.409 205.191L242.948 191.578C243.156 191.459 243.329 191.287 243.448 191.079C243.566 190.87 243.627 190.634 243.623 190.394V190.069L218.735 204.463Z" fill="#E0E0E0"/>
</g>
<path d="M219.113 204.665C219.336 204.75 219.574 204.785 219.812 204.767C220.05 204.748 220.28 204.677 220.486 204.558L243.925 191.028C244.129 190.911 244.305 190.75 244.439 190.557C244.574 190.363 244.663 190.142 244.7 189.909L247.269 174.597C247.275 174.511 247.275 174.424 247.269 174.337C247.269 174.126 247.228 173.917 247.148 173.722C247.068 173.527 246.95 173.35 246.801 173.201L222.446 187.269C222.292 187.354 222.159 187.472 222.057 187.614C221.955 187.757 221.885 187.92 221.854 188.092L219.113 204.665Z" fill="#009688"/>
<g opacity="0.7">
<path d="M219.113 204.665C219.336 204.75 219.574 204.785 219.812 204.767C220.05 204.748 220.28 204.677 220.486 204.558L243.925 191.028C244.129 190.911 244.305 190.75 244.439 190.557C244.574 190.363 244.663 190.142 244.7 189.909L247.269 174.597C247.275 174.511 247.275 174.424 247.269 174.337C247.269 174.126 247.228 173.917 247.148 173.722C247.068 173.527 246.95 173.35 246.801 173.201L222.446 187.269C222.292 187.354 222.159 187.472 222.057 187.614C221.955 187.757 221.885 187.92 221.854 188.092L219.113 204.665Z" fill="white"/>
</g>
<path d="M218.735 204.47L218.894 204.559C218.965 204.599 219.038 204.634 219.113 204.665L221.889 188.093C221.921 187.92 221.99 187.757 222.093 187.615C222.195 187.472 222.328 187.355 222.481 187.27L246.837 173.201C246.737 173.109 246.628 173.028 246.511 172.958L222.102 187.045C221.948 187.13 221.815 187.249 221.713 187.392C221.61 187.536 221.541 187.7 221.511 187.874L218.735 204.47Z" fill="#FAFAFA"/>
<path d="M232.319 190.537C232.686 189.257 233.534 188.169 234.686 187.501C235.817 186.844 236.598 187.146 236.426 188.169C236.056 189.449 235.208 190.538 234.059 191.212C232.922 191.863 232.147 191.561 232.319 190.537Z" fill="#009688"/>
<path d="M206.56 193.383C205.27 192.495 197.048 186.511 193.764 183.966C190.343 181.315 190.55 180.462 190.964 178.551C191.781 174.775 196.966 162.884 198.392 159.356C199.99 155.42 200.357 154.923 203.458 153.574C205.601 155.266 206.797 159.416 203.914 165.133L198.043 178.947C198.043 178.947 201.955 183.09 204.269 185.28C206.584 187.47 208.625 189.927 210.354 190.116C211.727 190.264 214.16 190.359 214.68 190.838C215.954 192.123 217.14 193.491 218.232 194.934C218.723 195.739 219.889 197.378 218.232 197.893C216.722 198.367 215.491 197.721 214.26 196.881C213.685 196.465 213.137 196.013 212.621 195.526C211.393 195.663 210.152 195.417 209.069 194.821C208.122 194.3 206.56 193.383 206.56 193.383Z" fill="#FFA8A7"/>
<path d="M202.203 158.954H202.374C203.208 158.954 204.033 158.786 204.8 158.462C205.568 158.138 206.263 157.664 206.845 157.067C207.427 156.471 207.884 155.764 208.188 154.988C208.493 154.212 208.639 153.383 208.619 152.55L208.459 145.892C207.637 145.891 206.824 146.052 206.065 146.366C205.306 146.679 204.616 147.14 204.035 147.72C203.454 148.301 202.993 148.99 202.679 149.749C202.364 150.507 202.203 151.32 202.203 152.142V158.954Z" fill="#263238"/>
<path d="M36.0591 136.842C35.4672 138.115 33.5614 139.961 31.3537 137.582C28.128 134.096 22.813 121.72 22.813 121.72L26.305 120.104L33.4075 129.823L37.2014 134.037" fill="#FFA8A7"/>
<path d="M36.9998 113.078C35.3248 118.695 31.957 131.207 31.957 131.207L36.0587 136.842C36.7914 135.399 37.4165 133.903 37.929 132.368C38.6452 130.414 41.0127 122.619 41.0127 122.619C41.0127 122.619 40.5096 111.374 42.2675 109.87C43.2157 109.031 44.3114 108.375 45.4991 107.935C42.6995 108.16 38.5268 107.935 36.9998 113.078Z" fill="#FFA8A7"/>
<path d="M29.1276 113.89C28.1984 112.161 27.9439 112.084 27.4171 111.705C26.8903 111.327 23.4811 110.824 22.0902 110.705C20.433 110.563 19.847 110.871 20.3146 112.291C21.2971 115.334 24.2802 121.791 24.949 122.685C25.387 123.277 25.4758 123.809 27.3165 123.993C29.0507 124.158 31.2288 124.253 31.868 124.295C32.5072 124.336 33.395 124.49 32.8209 122.608C32.0889 120.475 31.2433 118.382 30.2877 116.34C29.5715 114.819 29.1276 113.89 29.1276 113.89Z" fill="#263238"/>
<path d="M22.8127 121.72C22.1202 118.666 20.0901 115.848 21.2383 114.818L21.8302 116.168C21.8302 116.168 25.63 117.079 27.4648 116.937C29.2996 116.795 30.7971 116.345 31.3001 116.712C32.3655 117.464 32.6733 120.66 29.6192 121.826C27.0505 122.809 22.8127 121.72 22.8127 121.72Z" fill="#FFA8A7"/>
<path d="M45.7467 106.935C42.3848 106.97 38.6856 108.195 37.4131 110.829C36.1406 113.463 33.7849 123.105 33.7849 123.105C34.7609 123.997 35.9129 124.675 37.1667 125.095C38.4206 125.515 39.7485 125.667 41.0649 125.543L45.7467 106.935Z" fill="#009688"/>
<path opacity="0.1" d="M45.7467 106.935C42.3848 106.97 38.6856 108.195 37.4131 110.829C36.1406 113.463 33.7849 123.105 33.7849 123.105C34.7609 123.997 35.9129 124.675 37.1667 125.095C38.4206 125.515 39.7485 125.667 41.0649 125.543L45.7467 106.935Z" fill="black"/>
<path d="M60.3548 204.002H55.7026V210.773H60.3548V204.002Z" fill="#FFA8A7"/>
<path d="M44.0014 195.621L39.3521 195.781L39.5848 202.548L44.2342 202.388L44.0014 195.621Z" fill="#FFA8A7"/>
<path d="M60.0478 137.901C60.0478 142.346 60.6397 171.046 60.6397 171.046C60.7462 172.319 61.9418 174.674 61.6873 179.581C61.3322 186.251 60.7581 204.765 60.7581 204.765C60.7581 204.765 58.5741 206.931 55.4963 204.765C55.4963 204.765 51.2881 179.605 50.4536 172.999C49.7256 167.235 48.4945 151.574 48.4945 151.574L46.127 170.371C46.127 170.371 46.8846 174.71 47.0503 177.764C47.216 180.818 44.3218 198.13 44.3218 198.13C43.5688 198.602 42.705 198.868 41.8169 198.902C40.9287 198.935 40.0474 198.734 39.2613 198.32C39.2613 198.32 37.4857 172.869 36.9885 170.111C36.4913 167.353 38.2965 137.901 38.2965 137.901H60.0478Z" fill="#37474F"/>
<path d="M53.0451 107.124C53.5896 107.254 58.0701 108.308 60.047 108.976V137.901C56.7857 141.452 45.4159 143.104 38.2957 137.901V115.233C38.2957 111.61 40.308 107.26 45.8657 106.946L53.0451 107.124Z" fill="#EBEBEB"/>
<path d="M54.6249 88.6099C54.9987 88.567 55.3773 88.6098 55.7321 88.7349C56.0869 88.86 56.4086 89.0642 56.6728 89.332C57.5547 90.2316 57.3712 91.9007 56.6728 95.7301L53.9502 96.0438L54.6249 88.6099Z" fill="#263238"/>
<path d="M38.7456 87.5035C38.16 87.5061 37.58 87.3893 37.041 87.1602C36.2065 86.6808 35.9875 87.6278 36.4491 88.4505C36.7511 89.0415 37.1998 89.545 37.7522 89.9129C38.3045 90.2808 38.9421 90.5007 39.6038 90.5516C39.6038 90.4333 40.3851 88.4209 40.3851 88.4209L38.7456 87.5035Z" fill="#263238"/>
<path d="M53.3357 96.044C53.7382 96.2867 54.3182 95.5114 54.8154 94.9905C55.3126 94.4697 56.9402 93.7535 57.7748 95.464C58.6093 97.1745 57.0586 99.5065 55.7742 99.909C53.5725 100.601 53.241 99.1869 53.241 99.1869L53.0457 107.124C52.561 108.188 51.8212 109.115 50.892 109.825C49.9628 110.534 48.8728 111.003 47.7189 111.19C43.8066 111.723 44.6115 108.491 45.8959 106.911V104.49C44.9176 104.645 43.9256 104.697 42.9365 104.644C41.3089 104.395 40.2909 103.111 39.7996 101.353C39.0065 98.5358 38.7046 96.2571 39.3794 90.6994C40.1133 84.615 47.1862 84.5558 51.0097 86.9588C54.8332 89.3618 53.3357 96.044 53.3357 96.044Z" fill="#FFA8A7"/>
<path d="M53.3349 96.725C53.5362 96.725 54.3115 95.4466 54.8146 94.9908C55.513 94.3516 54.6134 88.6105 54.6134 88.6105C54.6134 88.6105 55.3177 86.4324 53.9386 84.9882C52.5596 83.544 49.8902 83.8045 47.943 83.7216C45.5458 83.7324 43.1716 83.2552 40.9648 82.3189C38.1948 81.1351 38.0054 80.9753 37.6444 82.1886C37.2834 83.402 37.1709 86.1956 38.8281 88.06L40.2072 88.569C40.2072 88.569 40.947 89.226 43.5335 89.5397C45.9196 89.7202 48.3173 89.6766 50.6952 89.4095C51.4469 89.303 51.6067 90.031 52.0091 92.0137C52.3583 93.7598 52.6543 96.7132 53.3349 96.725Z" fill="#263238"/>
<path d="M54.6256 89.0598L57.07 87.7458C56.9899 87.5828 56.8778 87.4377 56.7402 87.3192C56.6027 87.2006 56.4427 87.111 56.2697 87.0557C56.0967 87.0004 55.9144 86.9807 55.7336 86.9975C55.5528 87.0144 55.3772 87.0676 55.2175 87.1539C54.8936 87.3354 54.6517 87.6343 54.5416 87.9888C54.4315 88.3434 54.4615 88.7267 54.6256 89.0598Z" fill="#263238"/>
<path d="M45.8718 104.514C45.8718 104.514 49.4941 103.786 50.7607 103.111C51.5143 102.726 52.1334 102.121 52.5363 101.377C52.3455 102.119 52.0073 102.816 51.542 103.425C50.6186 104.609 45.8955 105.479 45.8955 105.479L45.8718 104.514Z" fill="#F28F8F"/>
<path d="M46.7419 95.1385C46.7477 95.281 46.7953 95.4188 46.8787 95.5345C46.9622 95.6503 47.0778 95.739 47.2112 95.7896C47.3446 95.8402 47.49 95.8504 47.6292 95.8191C47.7684 95.7877 47.8954 95.7162 47.9942 95.6133C48.0931 95.5104 48.1596 95.3807 48.1853 95.2404C48.2111 95.1 48.1951 94.9552 48.1392 94.8239C48.0833 94.6926 47.9901 94.5805 47.8711 94.5018C47.7521 94.423 47.6126 94.381 47.4699 94.3809C47.3723 94.3824 47.2758 94.4033 47.1863 94.4422C47.0967 94.4812 47.0158 94.5376 46.9481 94.608C46.8804 94.6784 46.8273 94.7616 46.7919 94.8526C46.7566 94.9437 46.7396 95.0408 46.7419 95.1385Z" fill="#263238"/>
<path d="M47.5229 92.3979L49.0796 93.2561C49.1895 93.0429 49.2133 92.7957 49.1461 92.5655C49.0789 92.3353 48.9259 92.1396 48.7185 92.0191C48.6158 91.9623 48.5027 91.927 48.3859 91.9154C48.2691 91.9038 48.1512 91.9161 48.0393 91.9515C47.9275 91.9869 47.824 92.0448 47.7352 92.1215C47.6464 92.1983 47.5742 92.2923 47.5229 92.3979Z" fill="#263238"/>
<path d="M46.2032 100.152L44.5637 100.773C44.5989 100.885 44.6565 100.988 44.7328 101.077C44.8092 101.166 44.9028 101.238 45.008 101.29C45.1131 101.341 45.2277 101.371 45.3446 101.377C45.4616 101.382 45.5785 101.364 45.6883 101.324C45.908 101.232 46.0839 101.059 46.1797 100.841C46.2755 100.623 46.2839 100.376 46.2032 100.152Z" fill="#F28F8F"/>
<path d="M40.2675 93.0018L41.688 91.9128C41.6216 91.817 41.5364 91.7357 41.4376 91.6739C41.3388 91.6122 41.2284 91.5712 41.1132 91.5534C40.998 91.5357 40.8804 91.5416 40.7676 91.5709C40.6547 91.6001 40.549 91.652 40.4569 91.7234C40.2681 91.872 40.1433 92.0872 40.1081 92.3249C40.0728 92.5626 40.1299 92.8048 40.2675 93.0018Z" fill="#263238"/>
<path d="M40.7043 94.9314C40.7101 95.074 40.7577 95.2117 40.8411 95.3275C40.9246 95.4433 41.0402 95.532 41.1736 95.5826C41.307 95.6331 41.4524 95.6434 41.5916 95.6121C41.7308 95.5807 41.8578 95.5091 41.9566 95.4063C42.0555 95.3034 42.122 95.1737 42.1477 95.0333C42.1735 94.893 42.1575 94.7481 42.1016 94.6168C42.0458 94.4855 41.9525 94.3735 41.8335 94.2948C41.7145 94.216 41.575 94.1739 41.4323 94.1738C41.3346 94.1754 41.2383 94.1962 41.1487 94.2352C41.0591 94.2742 40.9782 94.3305 40.9105 94.401C40.8428 94.4714 40.7897 94.5545 40.7544 94.6456C40.719 94.7366 40.702 94.8338 40.7043 94.9314Z" fill="#263238"/>
<path d="M44.4039 94.2446L44.1671 98.6067L41.8884 97.8314L44.4039 94.2446Z" fill="#F28F8F"/>
<path d="M55.7028 208.476V207.813C55.2589 208.003 54.2231 211.956 52.3765 213.631C50.9087 214.969 48.9081 216.514 48.3991 218.005C47.8901 219.497 51.1868 220.414 52.5422 220.171C54.1344 219.887 56.8925 218.769 57.585 217.727C58.2775 216.685 58.603 215.158 59.1653 214.395C59.7276 213.631 61.0238 212.785 61.3315 211.903C61.4973 211.418 61.296 210.358 61.0652 209.459C60.8344 208.559 60.6154 207.736 60.3313 207.813V208.334C59.6707 208.854 58.8518 209.132 58.0111 209.121C57.3482 209.127 55.6969 208.997 55.7028 208.476Z" fill="#263238"/>
<path d="M39.5332 201.113C39.2906 201.113 39.0952 201.463 38.5626 202.037C37.7677 202.842 36.8434 203.508 35.8281 204.008C34.088 204.878 30.7025 206.221 29.1695 206.908C28.2107 207.34 28.2581 208.494 29.2465 209.151C30.2349 209.808 32.6261 210.287 35.4907 209.642C37.0533 209.293 39.0893 207.867 40.3737 207.932C41.6581 207.997 44.0729 207.991 45.0199 207.34C45.9669 206.689 45.6118 205.286 45.3217 204.085C45.0317 202.771 44.6115 200.764 44.1794 200.853V201.267C43.6231 202.114 40.7762 202.451 39.5451 201.859L39.5332 201.113Z" fill="#263238"/>
<path d="M68.5948 134.646C68.8848 133.249 65.7538 119.382 64.5286 114.996L59.1012 121.329L62.4393 135.013C61.8174 138.841 60.9072 142.616 59.7167 146.306C59.499 146.879 59.0775 147.351 58.533 147.632C57.0829 148.407 56.4673 149.26 55.3487 150.284C54.4727 151.083 53.7625 151.248 53.8513 151.532C53.9885 151.843 54.2377 152.09 54.5493 152.225C54.8608 152.36 55.2118 152.373 55.5322 152.26C56.25 152.033 56.9392 151.723 57.586 151.337C57.0183 152.559 56.2591 153.682 55.3369 154.663C53.2298 156.912 53.0463 158.374 56.9704 158.67C59.4267 158.86 61.4923 157.487 63.7119 152.16C64.3511 150.639 65.156 148.419 65.7597 146.413C67.1802 141.684 67.926 137.902 68.5948 134.646Z" fill="#FFA8A7"/>
<path d="M57.2527 117.352C55.773 113.954 56.5129 109.977 58.1524 108.432C62.2955 109.148 63.3786 111.119 64.5268 114.996C66.3024 120.974 67.1843 124.857 67.1843 124.857C66.1426 126.242 61.9936 127.851 60.0464 127.26L57.2527 117.352Z" fill="#009688"/>
<path opacity="0.1" d="M57.2527 117.352C55.773 113.954 56.5129 109.977 58.1524 108.432C62.2955 109.148 63.3786 111.119 64.5268 114.996C66.3024 120.974 67.1843 124.857 67.1843 124.857C66.1426 126.242 61.9936 127.851 60.0464 127.26L57.2527 117.352Z" fill="black"/>
<path opacity="0.1" d="M60.0478 127.26L58.1538 120.542L60.0478 133.178V127.26Z" fill="black"/>
<path d="M48.4766 151.591C46.0731 150.842 43.863 149.575 42.0015 147.88C42.0015 147.88 43.2503 150.218 46.9673 152.396L46.766 165.181L48.4766 151.591Z" fill="#263238"/>
</svg>
