<svg width="53" height="40" viewBox="0 0 53 40" fill="none" xmlns="http://www.w3.org/2000/svg">
<g clip-path="url(#clip0_366_4257)">
<path d="M21.2002 0H53.0002V40H21.2002V0Z" fill="#FF0000"/>
<path d="M0 0H21.2V40H0V0Z" fill="#006600"/>
<path fill-rule="evenodd" clip-rule="evenodd" d="M28.115 25.5166C25.4402 25.4333 13.2088 17.7499 13.126 16.5166L13.7968 15.3916C15.0141 17.1666 27.5188 24.6416 28.7527 24.3749L28.115 25.5166Z" fill="#FFFF00" stroke="black" stroke-width="0.1" stroke-linecap="round" stroke-linejoin="round"/>
<path fill-rule="evenodd" clip-rule="evenodd" d="M13.6558 15.2334C13.4156 15.8834 16.8524 18.0167 20.9764 20.55C25.1088 23.075 28.6697 24.6334 28.9264 24.4167L29.0506 24.1834C29.0009 24.2667 28.885 24.2917 28.6945 24.2334C27.5766 23.9084 24.6699 22.5667 21.0675 20.3667C17.4569 18.1667 14.3266 16.1417 13.838 15.2834C13.7999 15.2029 13.7828 15.114 13.7883 15.025H13.7717L13.6724 15.2084L13.6558 15.2334ZM28.1728 25.55C28.1314 25.6334 28.0403 25.6334 27.883 25.6167C26.8892 25.5084 23.8583 24.025 20.2725 21.8667C16.0988 19.35 12.6538 17.0667 13.0347 16.4667L13.1341 16.2834L13.1506 16.2917C12.8194 17.3084 19.9495 21.4084 20.3719 21.675C24.4959 24.2417 27.9741 25.75 28.2805 25.3584L28.1728 25.55Z" fill="#FFFF00" stroke="black" stroke-width="0.1" stroke-linecap="round" stroke-linejoin="round"/>
<path fill-rule="evenodd" clip-rule="evenodd" d="M21.2159 17.2667C23.8825 17.2417 27.1784 16.9 29.0831 16.1334L28.6691 15.4667C27.5511 16.0917 24.2386 16.5084 21.1911 16.5667C17.597 16.5334 15.0547 16.1917 13.7794 15.3334L13.3984 16.05C15.7338 17.05 18.1353 17.2584 21.2159 17.2667Z" fill="#FFFF00" stroke="black" stroke-width="0.1" stroke-linecap="round" stroke-linejoin="round"/>
<path fill-rule="evenodd" clip-rule="evenodd" d="M29.1914 16.15C29.1252 16.2583 27.883 16.6833 26.0611 17C24.4551 17.2449 22.8327 17.3647 21.2083 17.3583C19.652 17.3642 18.0971 17.2639 16.5543 17.0583C14.6413 16.7583 13.6558 16.3416 13.2832 16.1916L13.3743 16.0083C14.426 16.425 15.4197 16.675 16.5791 16.8583C18.1107 17.0664 19.6546 17.1694 21.2 17.1666C22.816 17.1683 24.4298 17.0486 26.028 16.8083C27.8913 16.5 28.9099 16.1083 29.0589 15.9333L29.1914 16.1583V16.15ZM28.8271 15.475C28.6283 15.6416 27.618 16 25.8458 16.2833C24.3155 16.5061 22.7712 16.6175 21.2249 16.6166C19.403 16.6166 17.9041 16.4833 16.7696 16.3166C14.9643 16.0833 14.0036 15.65 13.6558 15.5333L13.7635 15.35C14.0368 15.4916 14.956 15.8666 16.7861 16.125C18.2574 16.3233 19.7405 16.4179 21.2249 16.4083C22.7601 16.4088 24.2934 16.2974 25.8127 16.075C27.5932 15.825 28.5538 15.375 28.7029 15.2583L28.8271 15.475ZM12.4468 20.5C14.0864 21.3916 17.7385 21.8333 21.1918 21.8666C24.3386 21.875 28.4296 21.3833 29.9616 20.5666L29.9202 19.675C29.4399 20.425 25.0508 21.15 21.1586 21.125C17.2664 21.0916 13.6475 20.4916 12.4385 19.7083V20.5" fill="#FFFF00"/>
<path d="M12.4468 20.5C14.0864 21.3916 17.7385 21.8333 21.1918 21.8666C24.3386 21.875 28.4296 21.3833 29.9616 20.5666L29.9202 19.675C29.4399 20.425 25.0508 21.15 21.1586 21.125C17.2664 21.0916 13.6475 20.4916 12.4385 19.7083V20.5M29.1914 16.15C29.1252 16.2583 27.883 16.6833 26.0611 17C24.4551 17.2449 22.8327 17.3647 21.2083 17.3583C19.652 17.3642 18.0971 17.2639 16.5543 17.0583C14.6413 16.7583 13.6558 16.3416 13.2832 16.1916L13.3743 16.0083C14.426 16.425 15.4197 16.675 16.5791 16.8583C18.1107 17.0664 19.6546 17.1694 21.2 17.1666C22.816 17.1683 24.4298 17.0486 26.028 16.8083C27.8913 16.5 28.9099 16.1083 29.0589 15.9333L29.1914 16.1583V16.15ZM28.8271 15.475C28.6283 15.6416 27.618 16 25.8458 16.2833C24.3155 16.5061 22.7712 16.6175 21.2249 16.6166C19.403 16.6166 17.9041 16.4833 16.7696 16.3166C14.9643 16.0833 14.0036 15.65 13.6558 15.5333L13.7635 15.35C14.0368 15.4916 14.956 15.8666 16.7861 16.125C18.2574 16.3233 19.7405 16.4179 21.2249 16.4083C22.7601 16.4088 24.2934 16.2974 25.8127 16.075C27.5932 15.825 28.5538 15.375 28.7029 15.2583L28.8271 15.475Z" stroke="black" stroke-width="0.1" stroke-linecap="round" stroke-linejoin="round"/>
<path fill-rule="evenodd" clip-rule="evenodd" d="M30.0442 20.375V20.5833C29.8123 20.8667 28.3714 21.2833 26.5661 21.5833C24.7725 21.8428 22.962 21.9653 21.1501 21.95C19.432 21.9647 17.7154 21.8449 16.0157 21.5917C14.7475 21.4442 13.5083 21.1072 12.3389 20.5917V20.35C13.1421 20.8833 15.3118 21.2833 16.0406 21.4C17.349 21.6 19.0301 21.75 21.1501 21.75C23.3778 21.75 25.1582 21.5917 26.5329 21.3833C27.8331 21.1917 29.6798 20.7 30.0442 20.375ZM30.0442 19.625V19.8333C29.8123 20.1083 28.3714 20.525 26.5661 20.825C24.7727 21.0872 22.9622 21.2126 21.1501 21.2C19.4322 21.2102 17.7159 21.0904 16.0157 20.8417C14.7475 20.6942 13.5083 20.3572 12.3389 19.8417V19.5917C13.1421 20.1333 15.3201 20.525 16.0406 20.6417C17.7323 20.891 19.4404 21.0108 21.1501 21C23.3778 21 25.1665 20.8333 26.5329 20.625C27.8331 20.4417 29.6798 19.95 30.0442 19.625ZM21.1832 25.3583C17.407 25.3417 14.169 24.325 13.4817 24.1583L13.9786 24.9417C16.3014 25.7695 18.7525 26.1731 21.2164 26.1333C24.09 26.05 26.5992 25.825 28.3631 24.9583L28.8765 24.1417C27.6757 24.7167 23.5765 25.3583 21.175 25.3583" fill="#FFFF00"/>
<path d="M21.1832 25.3583C17.407 25.3417 14.169 24.325 13.4817 24.1583L13.9786 24.9417C16.3014 25.7695 18.7525 26.1731 21.2164 26.1333C24.09 26.05 26.5992 25.825 28.3631 24.9583L28.8765 24.1417C27.6757 24.7167 23.5765 25.3583 21.175 25.3583M30.0442 20.375V20.5833C29.8123 20.8667 28.3714 21.2833 26.5661 21.5833C24.7725 21.8428 22.962 21.9653 21.1501 21.95C19.432 21.9647 17.7154 21.8449 16.0157 21.5917C14.7475 21.4442 13.5083 21.1072 12.3389 20.5917V20.35C13.1421 20.8833 15.3118 21.2833 16.0406 21.4C17.349 21.6 19.0301 21.75 21.1501 21.75C23.3778 21.75 25.1582 21.5917 26.5329 21.3833C27.8331 21.1917 29.6798 20.7 30.0442 20.375ZM30.0442 19.625V19.8333C29.8123 20.1083 28.3714 20.525 26.5661 20.825C24.7727 21.0872 22.9622 21.2126 21.1501 21.2C19.4322 21.2102 17.7159 21.0904 16.0157 20.8417C14.7475 20.6942 13.5083 20.3572 12.3389 19.8417V19.5917C13.1421 20.1333 15.3201 20.525 16.0406 20.6417C17.7323 20.891 19.4404 21.0108 21.1501 21C23.3778 21 25.1665 20.8333 26.5329 20.625C27.8331 20.4417 29.6798 19.95 30.0442 19.625Z" stroke="black" stroke-width="0.1" stroke-linecap="round" stroke-linejoin="round"/>
<path fill-rule="evenodd" clip-rule="evenodd" d="M28.5622 24.775C28.4868 24.8874 28.4095 24.9985 28.3304 25.1083C27.5022 25.4083 26.1772 25.725 25.6307 25.8083C24.164 26.0833 22.6755 26.2228 21.1836 26.225C17.838 26.175 15.0969 25.5167 13.8133 24.95L13.7057 24.775L13.7222 24.7417L13.8961 24.8167C16.253 25.6015 18.7177 26.0092 21.2002 26.025C22.7571 26.025 24.3057 25.85 25.5561 25.625C27.4774 25.2333 28.2558 24.9417 28.496 24.8083L28.5539 24.775H28.5622ZM29.0011 24.0417C28.9466 24.1393 28.8914 24.2365 28.8355 24.3333C28.3883 24.5 27.1793 24.85 25.4153 25.1C24.256 25.2583 23.5355 25.4167 21.225 25.4583C18.5838 25.4316 15.9589 25.0391 13.4241 24.2917L13.333 24.0833C15.9083 24.7996 18.5621 25.1914 21.2333 25.25C23.345 25.2083 24.2477 25.05 25.3988 24.8917C27.4525 24.575 28.4877 24.225 28.7941 24.1333C28.7943 24.1278 28.7943 24.1222 28.7941 24.1167L29.0094 24.0333L29.0011 24.0417Z" fill="#FFFF00" stroke="black" stroke-width="0.1" stroke-linecap="round" stroke-linejoin="round"/>
<path fill-rule="evenodd" clip-rule="evenodd" d="M29.0507 19.8C29.059 22.3 27.7836 24.55 26.7651 25.5333C25.2606 27.0098 23.2516 27.8507 21.1504 27.8833C18.6411 27.925 16.281 26.2833 15.6433 25.5583C14.2168 24.036 13.4049 22.0337 13.366 19.9417C13.5151 17.2083 14.5833 15.3083 16.1236 14C17.6199 12.7605 19.5022 12.0908 21.4402 12.1083C22.5715 12.1635 23.6789 12.4559 24.6914 12.9668C25.7039 13.4777 26.5992 14.1957 27.3199 15.075C28.3551 16.3417 28.8105 17.7167 29.0507 19.8ZM21.1669 11.25C23.4836 11.2499 25.7064 12.1714 27.3507 13.8136C28.995 15.4558 29.9276 17.6855 29.9451 20.0167C29.9451 21.1734 29.7186 22.3188 29.2787 23.3875C28.8389 24.4561 28.1941 25.4272 27.3813 26.2451C26.5685 27.063 25.6035 27.7118 24.5415 28.1545C23.4795 28.5972 22.3413 28.825 21.1918 28.825C20.0423 28.825 18.904 28.5972 17.842 28.1545C16.78 27.7118 15.8151 27.063 15.0023 26.2451C14.1894 25.4272 13.5447 24.4561 13.1048 23.3875C12.6649 22.3188 12.4385 21.1734 12.4385 20.0167C12.4302 15.1833 16.3555 11.25 21.1669 11.25Z" fill="#FFFF00" stroke="black" stroke-width="0.1" stroke-linecap="round" stroke-linejoin="round"/>
<path fill-rule="evenodd" clip-rule="evenodd" d="M21.1918 11.2084C26.0115 11.2084 29.9368 15.1584 29.9368 20.0084C29.9368 24.8584 26.0115 28.8084 21.2001 28.8084C16.3887 28.8084 12.4551 24.8584 12.4551 20.0084C12.4551 15.1584 16.3804 11.2084 21.2001 11.2084H21.1918ZM12.6373 20C12.6373 24.7334 16.5046 28.6084 21.1918 28.6084C25.879 28.6084 29.7463 24.7334 29.7463 20C29.7463 15.2667 25.879 11.3917 21.1918 11.3917C16.5046 11.3917 12.6373 15.2667 12.6373 20Z" fill="#FFFF00" stroke="black" stroke-width="0.1" stroke-linecap="round" stroke-linejoin="round"/>
<path fill-rule="evenodd" clip-rule="evenodd" d="M21.1994 11.9417C23.3212 11.9482 25.3543 12.7994 26.8546 14.3092C28.355 15.819 29.2008 17.8648 29.2073 20C29.2008 22.1359 28.3553 24.1826 26.8551 25.6938C25.355 27.2049 23.322 28.0579 21.1994 28.0666C16.8103 28.0666 13.1914 24.4333 13.1914 20C13.2001 17.8655 14.0466 15.8209 15.5465 14.3116C17.0464 12.8022 19.0782 11.9504 21.1994 11.9417ZM13.3819 20C13.3819 24.3333 16.9097 27.8666 21.1994 27.8666C25.4891 27.8666 29.0169 24.325 29.0169 20C29.0169 15.6666 25.4891 12.1333 21.1994 12.1333C19.1287 12.1421 17.1454 12.9737 15.6812 14.4471C14.217 15.9205 13.3906 17.9163 13.3819 20Z" fill="#FFFF00" stroke="black" stroke-width="0.1" stroke-linecap="round" stroke-linejoin="round"/>
<path fill-rule="evenodd" clip-rule="evenodd" d="M21.5563 11.1666H20.8027V28.8583H21.548L21.5563 11.1666Z" fill="#FFFF00" stroke="black" stroke-width="0.1" stroke-linecap="round" stroke-linejoin="round"/>
<path fill-rule="evenodd" clip-rule="evenodd" d="M21.4729 11.0667H21.6633V28.9583H21.4811V11.0667H21.4729ZM20.7275 11.0667H20.9263V28.9583H20.7358V11.0667H20.7275Z" fill="#FFFF00" stroke="black" stroke-width="0.1" stroke-linecap="round" stroke-linejoin="round"/>
<path fill-rule="evenodd" clip-rule="evenodd" d="M29.9445 20.35V19.7L29.4145 19.2L26.4084 18.4L22.0856 17.9584L16.8684 18.225L13.1584 19.1084L12.4131 19.6667V20.325L14.3095 19.4667L18.8145 18.7584H23.1456L26.3256 19.1084L28.5284 19.6417L29.9445 20.35Z" fill="#FFFF00" stroke="black" stroke-width="0.1" stroke-linecap="round" stroke-linejoin="round"/>
<path fill-rule="evenodd" clip-rule="evenodd" d="M21.1998 18.65C23.2618 18.65 25.2576 18.8417 26.8559 19.15C28.4956 19.4834 29.6467 19.9 30.0442 20.3584V20.5917C29.5639 20.0084 28.0153 19.5917 26.8145 19.3417C25.2411 19.0417 23.2536 18.8417 21.1915 18.8417C19.0301 18.8417 17.0095 19.0584 15.4526 19.3584C14.2104 19.6084 12.5459 20.1084 12.3389 20.5917V20.35C12.4465 20.0167 13.6887 19.5167 15.4278 19.1584C16.9929 18.85 19.0136 18.65 21.1915 18.65H21.1998ZM21.1998 17.8917C23.0962 17.8879 24.9892 18.0552 26.8559 18.3917C28.4956 18.725 29.6467 19.1417 30.0442 19.6084V19.8334C29.5639 19.2584 28.0153 18.8334 26.8145 18.5917C25.2411 18.2834 23.2536 18.0917 21.1915 18.0917C19.2696 18.0856 17.3512 18.2585 15.4609 18.6084C14.2601 18.8334 12.5293 19.35 12.3389 19.8334V19.6C12.4548 19.2667 13.7136 18.7417 15.4278 18.4084C17.0012 18.1 19.0136 17.8917 21.1998 17.8917ZM21.1501 14.0417C24.4046 14.025 27.2451 14.5 28.5453 15.1667L29.0173 16C27.8911 15.3834 24.827 14.75 21.1584 14.8334C18.1689 14.8584 14.9723 15.1667 13.374 16.0334L13.9371 15.0834C15.2539 14.3917 18.3511 14.0417 21.1501 14.0417Z" fill="#FFFF00" stroke="black" stroke-width="0.1" stroke-linecap="round" stroke-linejoin="round"/>
<path fill-rule="evenodd" clip-rule="evenodd" d="M21.2002 14.7249C22.8994 14.6961 24.5979 14.816 26.2766 15.0833C27.6016 15.3333 28.8686 15.6999 29.0508 15.8999L29.1916 16.1499C28.7527 15.8666 27.6512 15.5416 26.2434 15.2749C24.8356 15.0083 23.0386 14.9166 21.1919 14.9249C19.0967 14.9166 17.4653 15.0249 16.0741 15.2749C15.115 15.4102 14.1839 15.7 13.3164 16.1333L13.4572 15.8749C13.9541 15.6249 14.7242 15.3166 16.0327 15.0749C17.4819 14.8083 19.1298 14.7333 21.2002 14.7249ZM21.2002 13.9749C22.9723 13.9583 24.728 14.0583 26.0944 14.3083C26.9797 14.4405 27.8364 14.7223 28.6284 15.1416L28.8355 15.4749C28.4877 15.0833 27.1792 14.7083 26.0116 14.5083C24.6534 14.2666 22.9723 14.1749 21.2002 14.1583C19.5505 14.1435 17.9024 14.2661 16.2728 14.5249C15.4207 14.6444 14.5932 14.9004 13.8216 15.2833L14.0038 15.0083C14.4841 14.7583 15.2625 14.5249 16.2397 14.3333C17.88 14.0711 19.5394 13.9484 21.2002 13.9666V13.9749ZM25.5395 23.6666C24.1042 23.4165 22.6483 23.3049 21.1919 23.3333C15.7677 23.3999 14.0203 24.4583 13.805 24.7749L13.3909 24.1083C14.7822 23.1083 17.7303 22.5416 21.225 22.5916C23.0386 22.6249 24.6037 22.7499 25.9122 23.0083L25.5395 23.6749" fill="#FFFF00"/>
<path d="M25.5395 23.6666C24.1042 23.4165 22.6483 23.3049 21.1919 23.3333C15.7677 23.3999 14.0203 24.4583 13.805 24.7749L13.3909 24.1083C14.7822 23.1083 17.7303 22.5416 21.225 22.5916C23.0386 22.6249 24.6037 22.7499 25.9122 23.0083L25.5395 23.6749M21.2002 14.7249C22.8994 14.6961 24.5979 14.816 26.2766 15.0833C27.6016 15.3333 28.8686 15.6999 29.0508 15.8999L29.1916 16.1499C28.7527 15.8666 27.6512 15.5416 26.2434 15.2749C24.8356 15.0083 23.0386 14.9166 21.1919 14.9249C19.0967 14.9166 17.4653 15.0249 16.0741 15.2749C15.115 15.4102 14.1839 15.7 13.3164 16.1333L13.4572 15.8749C13.9541 15.6249 14.7242 15.3166 16.0327 15.0749C17.4819 14.8083 19.1298 14.7333 21.2002 14.7249ZM21.2002 13.9749C22.9723 13.9583 24.728 14.0583 26.0944 14.3083C26.9797 14.4405 27.8364 14.7223 28.6284 15.1416L28.8355 15.4749C28.4877 15.0833 27.1792 14.7083 26.0116 14.5083C24.6534 14.2666 22.9723 14.1749 21.2002 14.1583C19.5505 14.1435 17.9024 14.2661 16.2728 14.5249C15.4207 14.6444 14.5932 14.9004 13.8216 15.2833L14.0038 15.0083C14.4841 14.7583 15.2625 14.5249 16.2397 14.3333C17.88 14.0711 19.5394 13.9484 21.2002 13.9666V13.9749Z" stroke="black" stroke-width="0.1" stroke-linecap="round" stroke-linejoin="round"/>
<path fill-rule="evenodd" clip-rule="evenodd" d="M21.1666 23.2417C22.6738 23.2667 24.1478 23.325 25.5805 23.5917L25.4811 23.775C24.1561 23.525 22.7317 23.4417 21.1748 23.4417C19.1625 23.425 17.1419 23.6167 15.378 24.125C14.8231 24.2833 13.9039 24.6417 13.8045 24.9417L13.7052 24.775C13.7383 24.5917 14.2848 24.225 15.3283 23.9417C17.3489 23.3583 19.237 23.25 21.1666 23.2417ZM21.2328 22.475C22.8236 22.4734 24.4115 22.6128 25.978 22.8917L25.8703 23.0833C24.3407 22.801 22.788 22.6642 21.2328 22.675C19.2287 22.675 17.1005 22.825 15.1627 23.3917C14.5416 23.575 13.4567 23.975 13.4236 24.2833L13.3242 24.1C13.3408 23.8167 14.2766 23.4417 15.1213 23.2C17.0673 22.625 19.2039 22.4833 21.2328 22.475Z" fill="#FFFF00" stroke="black" stroke-width="0.1" stroke-linecap="round" stroke-linejoin="round"/>
<path fill-rule="evenodd" clip-rule="evenodd" d="M28.9346 24.2084L28.2887 25.2334L26.4089 23.5584L21.5561 20.2667L16.0739 17.2417L13.2334 16.2667L13.8379 15.1334L14.045 15.025L15.8089 15.4667L21.6389 18.4917L25.0011 20.625L27.825 22.6667L28.9761 24L28.9346 24.2084Z" fill="#FFFF00" stroke="black" stroke-width="0.1" stroke-linecap="round" stroke-linejoin="round"/>
<path fill-rule="evenodd" clip-rule="evenodd" d="M13.134 16.2916C13.6309 15.9583 17.2912 17.5916 21.1337 19.925C24.9514 22.2583 28.6117 24.8916 28.2804 25.3833L28.1728 25.5583L28.1231 25.6C28.1314 25.5916 28.1893 25.5166 28.1231 25.3416C27.9575 24.8 25.3571 22.7166 21.0592 20.1C16.8606 17.5916 13.3659 16.075 13.0264 16.5083L13.134 16.2916ZM29.0671 24.2C29.3818 23.5666 25.9865 20.9916 21.7714 18.4833C17.4651 16.025 14.3514 14.575 13.78 15.0083L13.664 15.25C13.664 15.2583 13.664 15.2333 13.6971 15.2083C13.7965 15.125 13.9704 15.125 14.045 15.125C15.0221 15.1416 17.8129 16.4333 21.73 18.6916C23.4525 19.6916 28.9843 23.275 28.9595 24.275C28.9595 24.3583 28.9678 24.375 28.9346 24.425L29.0754 24.2083L29.0671 24.2Z" fill="#FFFF00" stroke="black" stroke-width="0.1" stroke-linecap="round" stroke-linejoin="round"/>
<path d="M15.9531 20.9807C15.9544 21.6707 16.0917 22.3536 16.3571 22.9898C16.6224 23.6261 17.0105 24.2031 17.499 24.6874C17.9814 25.1803 18.5561 25.5724 19.1898 25.8409C19.8235 26.1094 20.5037 26.249 21.1913 26.2518C22.5829 26.2517 23.9174 25.6953 24.9013 24.7051C25.388 24.2182 25.7743 23.6392 26.0381 23.0016C26.3019 22.364 26.4379 21.6802 26.4383 20.9896V13.9495L15.9531 13.9318V20.9807Z" fill="white" stroke="black" stroke-width="0.1"/>
<path d="M16.1475 20.9895C16.1493 21.6514 16.2814 22.3064 16.5361 22.9166C16.7908 23.5269 17.1631 24.0804 17.6315 24.5451C18.5719 25.4964 19.849 26.0335 21.1825 26.0384C22.5136 26.0392 23.7907 25.5085 24.7335 24.5629C25.2003 24.0974 25.5709 23.5436 25.8241 22.9334C26.0772 22.3232 26.208 21.6686 26.2087 21.0073V14.1628H16.1651V20.9895M24.2035 16.2162V20.5629L24.1947 21.0162C24.1976 21.4133 24.1209 21.8069 23.9691 22.1735C23.8174 22.5401 23.5936 22.872 23.3113 23.1495C22.7496 23.7168 21.9871 24.0365 21.1913 24.0384C20.361 24.0384 19.6278 23.6829 19.0801 23.1318C18.5165 22.5665 18.1988 21.7992 18.1968 20.9984V16.1984L24.2035 16.2162Z" fill="#FF0000"/>
<path d="M16.1475 20.9895C16.1493 21.6514 16.2814 22.3064 16.5361 22.9166C16.7908 23.5269 17.1631 24.0804 17.6315 24.5451C18.5719 25.4964 19.849 26.0335 21.1825 26.0384C22.5136 26.0392 23.7907 25.5085 24.7335 24.5629C25.2003 24.0974 25.5709 23.5436 25.8241 22.9334C26.0772 22.3232 26.208 21.6686 26.2087 21.0073V14.1628H16.1651V20.9895M24.2035 16.2162V20.5629L24.1947 21.0162C24.1976 21.4133 24.1209 21.8069 23.9691 22.1735C23.8174 22.5401 23.5936 22.872 23.3113 23.1495C22.7496 23.7168 21.9871 24.0365 21.1913 24.0384C20.361 24.0384 19.6278 23.6829 19.0801 23.1318C18.5165 22.5665 18.1987 21.7992 18.1968 20.9984V16.1984L24.2035 16.2162Z" stroke="black" stroke-width="0.1"/>
<path d="M16.8008 15.9497C16.8096 15.4608 17.1541 15.3452 17.1541 15.3452C17.1629 15.3452 17.534 15.4697 17.534 15.9585H16.8008" fill="#FFFF00"/>
<path d="M16.5007 15.3541L16.4389 15.9141H16.8099C16.8099 15.4519 17.1632 15.3808 17.1632 15.3808C17.172 15.3808 17.5165 15.4785 17.5254 15.9141H17.8964L17.8257 15.3452H16.5007V15.3541ZM16.4124 15.923H17.914C17.9405 15.923 17.967 15.9497 17.967 15.9852C17.967 16.0297 17.9405 16.0563 17.914 16.0563H16.4124C16.3859 16.0563 16.3594 16.0297 16.3594 15.9852C16.3594 15.9497 16.3859 15.923 16.4212 15.923H16.4124Z" fill="#FFFF00" stroke="black" stroke-width="0.1"/>
<path d="M16.9599 15.914C16.9599 15.6207 17.163 15.5407 17.163 15.5407C17.163 15.5407 17.3662 15.6296 17.3662 15.914H16.9599ZM16.4475 15.114H17.8874C17.9139 15.114 17.9404 15.1496 17.9404 15.1852C17.9404 15.2118 17.9139 15.2385 17.8874 15.2385H16.4475C16.421 15.2385 16.3945 15.2118 16.3945 15.1763C16.3945 15.1496 16.421 15.1229 16.4475 15.1229V15.114ZM16.4829 15.2474H17.8432C17.8697 15.2474 17.8962 15.274 17.8962 15.3096C17.8962 15.3452 17.8697 15.3718 17.8432 15.3718H16.474C16.4387 15.3718 16.421 15.3452 16.421 15.3096C16.421 15.274 16.4387 15.2474 16.474 15.2474H16.4829ZM16.9245 14.3052H17.0305V14.3763H17.11V14.3052H17.2249V14.3852H17.3044V14.2963H17.4104V14.474C17.4104 14.5096 17.3927 14.5274 17.3662 14.5274H16.9775C16.951 14.5274 16.9245 14.5096 16.9245 14.4829V14.3052ZM17.3309 14.5452L17.3574 15.114H16.9775L17.004 14.5363H17.3309" fill="#FFFF00"/>
<path d="M17.3309 14.5452L17.3574 15.114H16.9775L17.004 14.5363H17.3309M16.9599 15.914C16.9599 15.6207 17.163 15.5407 17.163 15.5407C17.163 15.5407 17.3662 15.6296 17.3662 15.914H16.9599ZM16.4475 15.114H17.8874C17.9139 15.114 17.9404 15.1496 17.9404 15.1852C17.9404 15.2118 17.9139 15.2385 17.8874 15.2385H16.4475C16.421 15.2385 16.3945 15.2118 16.3945 15.1763C16.3945 15.1496 16.421 15.1229 16.4475 15.1229V15.114ZM16.4829 15.2474H17.8432C17.8697 15.2474 17.8962 15.274 17.8962 15.3096C17.8962 15.3452 17.8697 15.3718 17.8432 15.3718H16.474C16.4387 15.3718 16.421 15.3452 16.421 15.3096C16.421 15.274 16.4387 15.2474 16.474 15.2474H16.4829ZM16.9245 14.3052H17.0305V14.3763H17.11V14.3052H17.2249V14.3852H17.3044V14.2963H17.4104V14.474C17.4104 14.5096 17.3927 14.5274 17.3662 14.5274H16.9775C16.951 14.5274 16.9245 14.5096 16.9245 14.4829V14.3052Z" stroke="black" stroke-width="0.1"/>
<path d="M16.8719 14.8118V15.114H16.5186V14.8118H16.8719Z" fill="#FFFF00" stroke="black" stroke-width="0.1"/>
<path d="M17.8084 14.8118V15.114H17.4551V14.8118H17.8084Z" fill="#FFFF00" stroke="black" stroke-width="0.1"/>
<path d="M16.4561 14.5807H16.5621V14.6696H16.6416V14.5807H16.7476V14.6696H16.8271V14.5807H16.9331V14.7585C16.9331 14.794 16.9154 14.8118 16.8889 14.8118H16.5091C16.495 14.8118 16.4815 14.8062 16.4716 14.7962C16.4616 14.7862 16.4561 14.7726 16.4561 14.7585V14.5807Z" fill="#FFFF00" stroke="black" stroke-width="0.1"/>
<path d="M17.3926 14.5807H17.4986V14.6696H17.5781V14.5807H17.6841V14.6696H17.7636V14.5807H17.8696V14.7585C17.8696 14.794 17.8519 14.8118 17.8254 14.8118H17.4456C17.4315 14.8118 17.418 14.8062 17.4081 14.7962C17.3982 14.7862 17.3926 14.7726 17.3926 14.7585V14.5807Z" fill="#FFFF00" stroke="black" stroke-width="0.1"/>
<path d="M17.1279 14.723C17.1279 14.6697 17.2074 14.6697 17.2074 14.723V14.8652H17.1279V14.723Z" fill="black"/>
<path d="M16.6602 14.9185C16.6602 14.8652 16.7308 14.8652 16.7308 14.9185V15.0252H16.6602V14.9185Z" fill="black"/>
<path d="M17.5957 14.9185C17.5957 14.8652 17.6664 14.8652 17.6664 14.9185V15.0252H17.5957V14.9185Z" fill="black"/>
<path d="M16.8008 20.0653C16.8096 19.5764 17.1541 19.4608 17.1541 19.4608C17.1629 19.4608 17.534 19.5853 17.534 20.0742H16.8008" fill="#FFFF00"/>
<path d="M16.5007 19.4697L16.4389 20.0297H16.8099C16.8099 19.5675 17.1632 19.4964 17.1632 19.4964C17.172 19.4964 17.5165 19.5941 17.5254 20.0297H17.8964L17.8257 19.4608H16.5007V19.4697ZM16.4124 20.0386H17.914C17.9405 20.0386 17.967 20.0653 17.967 20.1008C17.967 20.1453 17.9405 20.1719 17.914 20.1719H16.4124C16.3859 20.1719 16.3594 20.1453 16.3594 20.1008C16.3594 20.0653 16.3859 20.0386 16.4212 20.0386H16.4124Z" fill="#FFFF00" stroke="black" stroke-width="0.1"/>
<path d="M16.9599 20.0296C16.9599 19.7363 17.163 19.6563 17.163 19.6563C17.163 19.6563 17.3662 19.7452 17.3662 20.0296H16.9599ZM16.4475 19.2296H17.8874C17.9139 19.2296 17.9404 19.2652 17.9404 19.3008C17.9404 19.3274 17.9139 19.3541 17.8874 19.3541H16.4475C16.421 19.3541 16.3945 19.3274 16.3945 19.2919C16.3945 19.2652 16.421 19.2385 16.4475 19.2385V19.2296ZM16.4829 19.363H17.8432C17.8697 19.363 17.8962 19.3896 17.8962 19.4252C17.8962 19.4608 17.8697 19.4874 17.8432 19.4874H16.474C16.4387 19.4874 16.421 19.4608 16.421 19.4252C16.421 19.3896 16.4387 19.363 16.474 19.363H16.4829ZM16.9245 18.4208H17.0305V18.4919H17.11V18.4208H17.2249V18.5008H17.3044V18.4119H17.4104V18.5896C17.4104 18.6252 17.3927 18.643 17.3662 18.643H16.9775C16.951 18.643 16.9245 18.6252 16.9245 18.5985V18.4208ZM17.3309 18.6608L17.3574 19.2296H16.9775L17.004 18.6519H17.3309" fill="#FFFF00"/>
<path d="M17.3309 18.6608L17.3574 19.2296H16.9775L17.004 18.6519H17.3309M16.9599 20.0296C16.9599 19.7363 17.163 19.6563 17.163 19.6563C17.163 19.6563 17.3662 19.7452 17.3662 20.0296H16.9599ZM16.4475 19.2296H17.8874C17.9139 19.2296 17.9404 19.2652 17.9404 19.3008C17.9404 19.3274 17.9139 19.3541 17.8874 19.3541H16.4475C16.421 19.3541 16.3945 19.3274 16.3945 19.2919C16.3945 19.2652 16.421 19.2385 16.4475 19.2385V19.2296ZM16.4829 19.363H17.8432C17.8697 19.363 17.8962 19.3896 17.8962 19.4252C17.8962 19.4608 17.8697 19.4874 17.8432 19.4874H16.474C16.4387 19.4874 16.421 19.4608 16.421 19.4252C16.421 19.3896 16.4387 19.363 16.474 19.363H16.4829ZM16.9245 18.4208H17.0305V18.4919H17.11V18.4208H17.2249V18.5008H17.3044V18.4119H17.4104V18.5896C17.4104 18.6252 17.3927 18.643 17.3662 18.643H16.9775C16.951 18.643 16.9245 18.6252 16.9245 18.5985V18.4208Z" stroke="black" stroke-width="0.1"/>
<path d="M16.8719 18.9274V19.2296H16.5186V18.9274H16.8719Z" fill="#FFFF00" stroke="black" stroke-width="0.1"/>
<path d="M17.8084 18.9274V19.2296H17.4551V18.9274H17.8084Z" fill="#FFFF00" stroke="black" stroke-width="0.1"/>
<path d="M16.4561 18.6963H16.5621V18.7852H16.6416V18.6963H16.7476V18.7852H16.8271V18.6963H16.9331V18.8741C16.9331 18.9096 16.9154 18.9274 16.8889 18.9274H16.5091C16.495 18.9274 16.4815 18.9218 16.4716 18.9118C16.4616 18.9018 16.4561 18.8882 16.4561 18.8741V18.6963Z" fill="#FFFF00" stroke="black" stroke-width="0.1"/>
<path d="M17.3926 18.6963H17.4986V18.7852H17.5781V18.6963H17.6841V18.7852H17.7636V18.6963H17.8696V18.8741C17.8696 18.9096 17.8519 18.9274 17.8254 18.9274H17.4456C17.4315 18.9274 17.418 18.9218 17.4081 18.9118C17.3982 18.9018 17.3926 18.8882 17.3926 18.8741V18.6963Z" fill="#FFFF00" stroke="black" stroke-width="0.1"/>
<path d="M17.1279 18.8386C17.1279 18.7853 17.2074 18.7853 17.2074 18.8386V18.9808H17.1279V18.8386Z" fill="black"/>
<path d="M16.6602 19.0341C16.6602 18.9808 16.7308 18.9808 16.7308 19.0341V19.1408H16.6602V19.0341Z" fill="black"/>
<path d="M17.5957 19.0341C17.5957 18.9808 17.6664 18.9808 17.6664 19.0341V19.1408H17.5957V19.0341Z" fill="black"/>
<path d="M18.395 24.3545C18.0565 24.0037 18.2177 23.6763 18.2177 23.6763C18.2239 23.67 18.5731 23.4928 18.9179 23.8373L18.4012 24.3608" fill="#FFFF00"/>
<path d="M17.7631 24.1494L18.1144 24.5881L18.3758 24.3232C18.0499 23.9975 18.2487 23.6951 18.2487 23.6951C18.2549 23.6888 18.5666 23.5117 18.88 23.8123L19.1414 23.5474L18.6904 23.197L17.7568 24.1431L17.7631 24.1494ZM18.102 24.6133L19.1601 23.5411C19.1788 23.5222 19.2163 23.522 19.2413 23.5471C19.2727 23.5784 19.2728 23.6161 19.2541 23.635L18.196 24.7073C18.1773 24.7262 18.1399 24.7263 18.1085 24.695C18.0835 24.6699 18.0833 24.6322 18.1082 24.607L18.102 24.6133Z" fill="#FFFF00" stroke="black" stroke-width="0.1"/>
<path d="M18.4815 24.2159C18.2747 24.0092 18.3614 23.8078 18.3614 23.8078C18.3614 23.8078 18.5672 23.7254 18.7678 23.9258L18.4815 24.2159ZM17.5564 24.018L18.5709 22.99C18.5896 22.971 18.6333 22.9772 18.6584 23.0022C18.6772 23.021 18.6773 23.0587 18.6587 23.0776L17.6441 24.1057C17.6255 24.1246 17.588 24.1248 17.5629 24.0997C17.5441 24.0809 17.544 24.0432 17.5627 24.0243L17.5564 24.018ZM17.6753 24.0867L18.6338 23.1154C18.6525 23.0965 18.69 23.0964 18.715 23.1214C18.7401 23.1465 18.7402 23.1842 18.7216 23.2031L17.7568 24.1807C17.7319 24.206 17.7007 24.1998 17.6756 24.1747C17.6505 24.1497 17.6442 24.1183 17.6691 24.0931L17.6753 24.0867ZM17.3221 23.1074L17.3968 23.0318L17.4469 23.0819L17.503 23.0251L17.4528 22.975L17.5337 22.893L17.5901 22.9494L17.6461 22.8926L17.5835 22.83L17.6582 22.7543L17.7835 22.8796C17.8086 22.9046 17.8087 22.9298 17.79 22.9487L17.5161 23.2262C17.4975 23.2451 17.4663 23.2515 17.4475 23.2327L17.3221 23.1074ZM17.7776 22.9864L18.1975 23.3684L17.9298 23.6396L17.5411 23.2135L17.7714 22.9802" fill="#FFFF00"/>
<path d="M17.7776 22.9864L18.1975 23.3684L17.9298 23.6396L17.5411 23.2135L17.7714 22.9802M18.4815 24.2159C18.2747 24.0092 18.3614 23.8078 18.3614 23.8078C18.3614 23.8078 18.5672 23.7254 18.7678 23.9258L18.4815 24.2159ZM17.5564 24.018L18.5709 22.99C18.5896 22.971 18.6333 22.9772 18.6584 23.0022C18.6772 23.021 18.6773 23.0587 18.6587 23.0776L17.6441 24.1057C17.6255 24.1246 17.588 24.1248 17.5629 24.0997C17.5441 24.0809 17.544 24.0432 17.5627 24.0243L17.5564 24.018ZM17.6753 24.0867L18.6338 23.1154C18.6525 23.0965 18.69 23.0964 18.715 23.1214C18.7401 23.1465 18.7402 23.1842 18.7216 23.2031L17.7568 24.1807C17.7319 24.206 17.7007 24.1998 17.6756 24.1747C17.6505 24.1497 17.6442 24.1183 17.6691 24.0931L17.6753 24.0867ZM17.3221 23.1074L17.3968 23.0318L17.4469 23.0819L17.503 23.0251L17.4528 22.975L17.5337 22.893L17.5901 22.9494L17.6461 22.8926L17.5835 22.83L17.6582 22.7543L17.7835 22.8796C17.8086 22.9046 17.8087 22.9298 17.79 22.9487L17.5161 23.2262C17.4975 23.2451 17.4663 23.2515 17.4475 23.2327L17.3221 23.1074Z" stroke="black" stroke-width="0.1"/>
<path d="M17.6425 23.5024L17.8556 23.7153L17.6067 23.9676L17.3936 23.7546L17.6425 23.5024Z" fill="#FFFF00" stroke="black" stroke-width="0.1"/>
<path d="M18.3027 22.8338L18.5158 23.0467L18.2668 23.299L18.0537 23.0861L18.3027 22.8338Z" fill="#FFFF00" stroke="black" stroke-width="0.1"/>
<path d="M17.1875 23.636L17.2622 23.5603L17.3249 23.6229L17.3809 23.5662L17.3182 23.5035L17.3929 23.4278L17.4556 23.4905L17.5116 23.4337L17.4489 23.3711L17.5236 23.2954L17.649 23.4207C17.674 23.4457 17.6741 23.4709 17.6555 23.4898L17.3878 23.761C17.3779 23.771 17.3644 23.7767 17.3504 23.7767C17.3363 23.7768 17.3228 23.7712 17.3129 23.7613L17.1875 23.636Z" fill="#FFFF00" stroke="black" stroke-width="0.1"/>
<path d="M17.8467 22.9674L17.9214 22.8917L17.9841 22.9544L18.0401 22.8976L17.9774 22.835L18.0521 22.7593L18.1148 22.8219L18.1708 22.7651L18.1081 22.7025L18.1828 22.6268L18.3081 22.7521C18.3332 22.7771 18.3333 22.8023 18.3146 22.8212L18.047 23.0924C18.0371 23.1025 18.0236 23.1081 18.0096 23.1082C17.9955 23.1082 17.982 23.1026 17.972 23.0927L17.8467 22.9674Z" fill="#FFFF00" stroke="black" stroke-width="0.1"/>
<path d="M17.7606 23.2568C17.723 23.2192 17.779 23.1625 17.8166 23.2001L17.9169 23.3003L17.8609 23.357L17.7606 23.2568Z" fill="black"/>
<path d="M17.5682 23.7289C17.5306 23.6913 17.5804 23.6408 17.618 23.6784L17.6933 23.7536L17.6435 23.804L17.5682 23.7289Z" fill="black"/>
<path d="M18.2284 23.0603C18.1908 23.0227 18.2406 22.9723 18.2782 23.0098L18.3534 23.085L18.3036 23.1355L18.2284 23.0603Z" fill="black"/>
<path d="M20.8379 15.9497C20.8467 15.4608 21.1912 15.3452 21.1912 15.3452C21.2001 15.3452 21.5711 15.4697 21.5711 15.9585H20.8379" fill="#FFFF00"/>
<path d="M20.5378 15.3541L20.476 15.9141H20.847C20.847 15.4519 21.2003 15.3808 21.2003 15.3808C21.2092 15.3808 21.5537 15.4785 21.5625 15.9141H21.9335L21.8628 15.3452H20.5378V15.3541ZM20.4495 15.923H21.9512C21.9777 15.923 22.0042 15.9497 22.0042 15.9852C22.0042 16.0297 21.9777 16.0563 21.9512 16.0563H20.4495C20.423 16.0563 20.3965 16.0297 20.3965 15.9852C20.3965 15.9497 20.423 15.923 20.4583 15.923H20.4495Z" fill="#FFFF00" stroke="black" stroke-width="0.1"/>
<path d="M20.997 15.914C20.997 15.6207 21.2001 15.5407 21.2001 15.5407C21.2001 15.5407 21.4033 15.6296 21.4033 15.914H20.997ZM20.4846 15.114H21.9245C21.951 15.114 21.9775 15.1496 21.9775 15.1852C21.9775 15.2118 21.951 15.2385 21.9245 15.2385H20.4846C20.4581 15.2385 20.4316 15.2118 20.4316 15.1763C20.4316 15.1496 20.4581 15.1229 20.4846 15.1229V15.114ZM20.52 15.2474H21.8803C21.9068 15.2474 21.9333 15.274 21.9333 15.3096C21.9333 15.3452 21.9068 15.3718 21.8803 15.3718H20.5111C20.4758 15.3718 20.4581 15.3452 20.4581 15.3096C20.4581 15.274 20.4758 15.2474 20.5111 15.2474H20.52ZM20.9616 14.3052H21.0676V14.3763H21.1471V14.3052H21.262V14.3852H21.3415V14.2963H21.4475V14.474C21.4475 14.5096 21.4298 14.5274 21.4033 14.5274H21.0146C20.9881 14.5274 20.9616 14.5096 20.9616 14.4829V14.3052ZM21.368 14.5452L21.3945 15.114H21.0146L21.0411 14.5363H21.368" fill="#FFFF00"/>
<path d="M21.368 14.5452L21.3945 15.114H21.0146L21.0411 14.5363H21.368M20.997 15.914C20.997 15.6207 21.2001 15.5407 21.2001 15.5407C21.2001 15.5407 21.4033 15.6296 21.4033 15.914H20.997ZM20.4846 15.114H21.9245C21.951 15.114 21.9775 15.1496 21.9775 15.1852C21.9775 15.2118 21.951 15.2385 21.9245 15.2385H20.4846C20.4581 15.2385 20.4316 15.2118 20.4316 15.1763C20.4316 15.1496 20.4581 15.1229 20.4846 15.1229V15.114ZM20.52 15.2474H21.8803C21.9068 15.2474 21.9333 15.274 21.9333 15.3096C21.9333 15.3452 21.9068 15.3718 21.8803 15.3718H20.5111C20.4758 15.3718 20.4581 15.3452 20.4581 15.3096C20.4581 15.274 20.4758 15.2474 20.5111 15.2474H20.52ZM20.9616 14.3052H21.0676V14.3763H21.1471V14.3052H21.262V14.3852H21.3415V14.2963H21.4475V14.474C21.4475 14.5096 21.4298 14.5274 21.4033 14.5274H21.0146C20.9881 14.5274 20.9616 14.5096 20.9616 14.4829V14.3052Z" stroke="black" stroke-width="0.1"/>
<path d="M20.909 14.8118V15.114H20.5557V14.8118H20.909Z" fill="#FFFF00" stroke="black" stroke-width="0.1"/>
<path d="M21.8455 14.8118V15.114H21.4922V14.8118H21.8455Z" fill="#FFFF00" stroke="black" stroke-width="0.1"/>
<path d="M20.4941 14.5807H20.6001V14.6696H20.6796V14.5807H20.7856V14.6696H20.8651V14.5807H20.9711V14.7585C20.9711 14.794 20.9535 14.8118 20.927 14.8118H20.5471C20.5331 14.8118 20.5196 14.8062 20.5097 14.7962C20.4997 14.7862 20.4941 14.7726 20.4941 14.7585V14.5807Z" fill="#FFFF00" stroke="black" stroke-width="0.1"/>
<path d="M21.4297 14.5807H21.5357V14.6696H21.6152V14.5807H21.7212V14.6696H21.8007V14.5807H21.9067V14.7585C21.9067 14.794 21.889 14.8118 21.8625 14.8118H21.4827C21.4686 14.8118 21.4552 14.8062 21.4452 14.7962C21.4353 14.7862 21.4297 14.7726 21.4297 14.7585V14.5807Z" fill="#FFFF00" stroke="black" stroke-width="0.1"/>
<path d="M21.165 14.723C21.165 14.6697 21.2445 14.6697 21.2445 14.723V14.8652H21.165V14.723Z" fill="black"/>
<path d="M20.6973 14.9185C20.6973 14.8652 20.7679 14.8652 20.7679 14.9185V15.0252H20.6973V14.9185Z" fill="black"/>
<path d="M21.6328 14.9185C21.6328 14.8652 21.7035 14.8652 21.7035 14.9185V15.0252H21.6328V14.9185Z" fill="black"/>
<path d="M25.582 15.9497C25.5732 15.4608 25.2287 15.3452 25.2287 15.3452C25.2199 15.3452 24.8489 15.4697 24.8489 15.9585H25.582" fill="#FFFF00"/>
<path d="M25.8821 15.3541L25.9439 15.9141H25.5729C25.5729 15.4519 25.2196 15.3808 25.2196 15.3808C25.2108 15.3808 24.8663 15.4785 24.8574 15.9141H24.4864L24.5571 15.3452H25.8821V15.3541ZM25.9704 15.923H24.4688C24.4423 15.923 24.4158 15.9497 24.4158 15.9852C24.4158 16.0297 24.4423 16.0563 24.4688 16.0563H25.9704C25.9969 16.0563 26.0234 16.0297 26.0234 15.9852C26.0234 15.9497 25.9969 15.923 25.9616 15.923H25.9704Z" fill="#FFFF00" stroke="black" stroke-width="0.1"/>
<path d="M25.4229 15.914C25.4229 15.6207 25.2198 15.5407 25.2198 15.5407C25.2198 15.5407 25.0166 15.6296 25.0166 15.914H25.4229ZM25.9353 15.114H24.4954C24.4689 15.114 24.4424 15.1496 24.4424 15.1852C24.4424 15.2118 24.4689 15.2385 24.4954 15.2385H25.9353C25.9618 15.2385 25.9883 15.2118 25.9883 15.1763C25.9883 15.1496 25.9618 15.1229 25.9353 15.1229V15.114ZM25.8999 15.2474H24.5396C24.5131 15.2474 24.4866 15.274 24.4866 15.3096C24.4866 15.3452 24.5131 15.3718 24.5396 15.3718H25.9088C25.9441 15.3718 25.9618 15.3452 25.9618 15.3096C25.9618 15.274 25.9441 15.2474 25.9088 15.2474H25.8999ZM25.4583 14.3052H25.3523V14.3763H25.2728V14.3052H25.1579V14.3852H25.0784V14.2963H24.9724V14.474C24.9724 14.5096 24.9901 14.5274 25.0166 14.5274H25.4053C25.4318 14.5274 25.4583 14.5096 25.4583 14.4829V14.3052ZM25.0519 14.5452L25.0254 15.114H25.4053L25.3788 14.5363H25.0519" fill="#FFFF00"/>
<path d="M25.0519 14.5452L25.0254 15.114H25.4053L25.3788 14.5363H25.0519M25.4229 15.914C25.4229 15.6207 25.2198 15.5407 25.2198 15.5407C25.2198 15.5407 25.0166 15.6296 25.0166 15.914H25.4229ZM25.9353 15.114H24.4954C24.4689 15.114 24.4424 15.1496 24.4424 15.1852C24.4424 15.2118 24.4689 15.2385 24.4954 15.2385H25.9353C25.9618 15.2385 25.9883 15.2118 25.9883 15.1763C25.9883 15.1496 25.9618 15.1229 25.9353 15.1229V15.114ZM25.8999 15.2474H24.5396C24.5131 15.2474 24.4866 15.274 24.4866 15.3096C24.4866 15.3452 24.5131 15.3718 24.5396 15.3718H25.9088C25.9441 15.3718 25.9618 15.3452 25.9618 15.3096C25.9618 15.274 25.9441 15.2474 25.9088 15.2474H25.8999ZM25.4583 14.3052H25.3523V14.3763H25.2728V14.3052H25.1579V14.3852H25.0784V14.2963H24.9724V14.474C24.9724 14.5096 24.9901 14.5274 25.0166 14.5274H25.4053C25.4318 14.5274 25.4583 14.5096 25.4583 14.4829V14.3052Z" stroke="black" stroke-width="0.1"/>
<path d="M25.5109 14.8118V15.114H25.8643V14.8118H25.5109Z" fill="#FFFF00" stroke="black" stroke-width="0.1"/>
<path d="M24.5744 14.8118V15.114H24.9277V14.8118H24.5744Z" fill="#FFFF00" stroke="black" stroke-width="0.1"/>
<path d="M25.9268 14.5807H25.8208V14.6696H25.7413V14.5807H25.6353V14.6696H25.5558V14.5807H25.4498V14.7585C25.4498 14.794 25.4674 14.8118 25.4939 14.8118H25.8738C25.8878 14.8118 25.9013 14.8062 25.9112 14.7962C25.9212 14.7862 25.9268 14.7726 25.9268 14.7585V14.5807Z" fill="#FFFF00" stroke="black" stroke-width="0.1"/>
<path d="M24.9902 14.5807H24.8842V14.6696H24.8047V14.5807H24.6987V14.6696H24.6192V14.5807H24.5132V14.7585C24.5132 14.794 24.5309 14.8118 24.5574 14.8118H24.9372C24.9513 14.8118 24.9648 14.8062 24.9747 14.7962C24.9847 14.7862 24.9902 14.7726 24.9902 14.7585V14.5807Z" fill="#FFFF00" stroke="black" stroke-width="0.1"/>
<path d="M25.2549 14.723C25.2549 14.6697 25.1754 14.6697 25.1754 14.723V14.8652H25.2549V14.723Z" fill="black"/>
<path d="M25.7227 14.9185C25.7227 14.8652 25.652 14.8652 25.652 14.9185V15.0252H25.7227V14.9185Z" fill="black"/>
<path d="M24.7871 14.9185C24.7871 14.8652 24.7164 14.8652 24.7164 14.9185V15.0252H24.7871V14.9185Z" fill="black"/>
<path d="M25.582 20.0653C25.5732 19.5764 25.2287 19.4608 25.2287 19.4608C25.2199 19.4608 24.8489 19.5853 24.8489 20.0742H25.582" fill="#FFFF00"/>
<path d="M25.8821 19.4697L25.9439 20.0297H25.5729C25.5729 19.5675 25.2196 19.4964 25.2196 19.4964C25.2108 19.4964 24.8663 19.5941 24.8574 20.0297H24.4864L24.5571 19.4608H25.8821V19.4697ZM25.9704 20.0386H24.4688C24.4423 20.0386 24.4158 20.0653 24.4158 20.1008C24.4158 20.1453 24.4423 20.1719 24.4688 20.1719H25.9704C25.9969 20.1719 26.0234 20.1453 26.0234 20.1008C26.0234 20.0653 25.9969 20.0386 25.9616 20.0386H25.9704Z" fill="#FFFF00" stroke="black" stroke-width="0.1"/>
<path d="M25.4229 20.0296C25.4229 19.7363 25.2198 19.6563 25.2198 19.6563C25.2198 19.6563 25.0166 19.7452 25.0166 20.0296H25.4229ZM25.9353 19.2296H24.4954C24.4689 19.2296 24.4424 19.2652 24.4424 19.3008C24.4424 19.3274 24.4689 19.3541 24.4954 19.3541H25.9353C25.9618 19.3541 25.9883 19.3274 25.9883 19.2919C25.9883 19.2652 25.9618 19.2385 25.9353 19.2385V19.2296ZM25.8999 19.363H24.5396C24.5131 19.363 24.4866 19.3896 24.4866 19.4252C24.4866 19.4608 24.5131 19.4874 24.5396 19.4874H25.9088C25.9441 19.4874 25.9618 19.4608 25.9618 19.4252C25.9618 19.3896 25.9441 19.363 25.9088 19.363H25.8999ZM25.4583 18.4208H25.3523V18.4919H25.2728V18.4208H25.1579V18.5008H25.0784V18.4119H24.9724V18.5896C24.9724 18.6252 24.9901 18.643 25.0166 18.643H25.4053C25.4318 18.643 25.4583 18.6252 25.4583 18.5985V18.4208ZM25.0519 18.6608L25.0254 19.2296H25.4053L25.3788 18.6519H25.0519" fill="#FFFF00"/>
<path d="M25.0519 18.6608L25.0254 19.2296H25.4053L25.3788 18.6519H25.0519M25.4229 20.0296C25.4229 19.7363 25.2198 19.6563 25.2198 19.6563C25.2198 19.6563 25.0166 19.7452 25.0166 20.0296H25.4229ZM25.9353 19.2296H24.4954C24.4689 19.2296 24.4424 19.2652 24.4424 19.3008C24.4424 19.3274 24.4689 19.3541 24.4954 19.3541H25.9353C25.9618 19.3541 25.9883 19.3274 25.9883 19.2919C25.9883 19.2652 25.9618 19.2385 25.9353 19.2385V19.2296ZM25.8999 19.363H24.5396C24.5131 19.363 24.4866 19.3896 24.4866 19.4252C24.4866 19.4608 24.5131 19.4874 24.5396 19.4874H25.9088C25.9441 19.4874 25.9618 19.4608 25.9618 19.4252C25.9618 19.3896 25.9441 19.363 25.9088 19.363H25.8999ZM25.4583 18.4208H25.3523V18.4919H25.2728V18.4208H25.1579V18.5008H25.0784V18.4119H24.9724V18.5896C24.9724 18.6252 24.9901 18.643 25.0166 18.643H25.4053C25.4318 18.643 25.4583 18.6252 25.4583 18.5985V18.4208Z" stroke="black" stroke-width="0.1"/>
<path d="M25.5109 18.9274V19.2296H25.8643V18.9274H25.5109Z" fill="#FFFF00" stroke="black" stroke-width="0.1"/>
<path d="M24.5744 18.9274V19.2296H24.9277V18.9274H24.5744Z" fill="#FFFF00" stroke="black" stroke-width="0.1"/>
<path d="M25.9268 18.6963H25.8208V18.7852H25.7413V18.6963H25.6353V18.7852H25.5558V18.6963H25.4498V18.8741C25.4498 18.9096 25.4674 18.9274 25.4939 18.9274H25.8738C25.8878 18.9274 25.9013 18.9218 25.9112 18.9118C25.9212 18.9018 25.9268 18.8882 25.9268 18.8741V18.6963Z" fill="#FFFF00" stroke="black" stroke-width="0.1"/>
<path d="M24.9902 18.6963H24.8842V18.7852H24.8047V18.6963H24.6987V18.7852H24.6192V18.6963H24.5132V18.8741C24.5132 18.9096 24.5309 18.9274 24.5574 18.9274H24.9372C24.9513 18.9274 24.9648 18.9218 24.9747 18.9118C24.9847 18.9018 24.9902 18.8882 24.9902 18.8741V18.6963Z" fill="#FFFF00" stroke="black" stroke-width="0.1"/>
<path d="M25.2549 18.8386C25.2549 18.7853 25.1754 18.7853 25.1754 18.8386V18.9808H25.2549V18.8386Z" fill="black"/>
<path d="M25.7227 19.0341C25.7227 18.9808 25.652 18.9808 25.652 19.0341V19.1408H25.7227V19.0341Z" fill="black"/>
<path d="M24.7871 19.0341C24.7871 18.9808 24.7164 18.9808 24.7164 19.0341V19.1408H24.7871V19.0341Z" fill="black"/>
<path d="M23.9878 24.3545C24.3264 24.0037 24.1651 23.6763 24.1651 23.6763C24.1589 23.67 23.8097 23.4928 23.465 23.8373L23.9816 24.3608" fill="#FFFF00"/>
<path d="M24.6197 24.1494L24.2684 24.5881L24.007 24.3232C24.3329 23.9975 24.1341 23.6951 24.1341 23.6951C24.1279 23.6888 23.8162 23.5117 23.5028 23.8123L23.2414 23.5474L23.6924 23.197L24.626 24.1431L24.6197 24.1494ZM24.2808 24.6133L23.2227 23.5411C23.204 23.5222 23.1666 23.522 23.1415 23.5471C23.1101 23.5784 23.11 23.6161 23.1287 23.635L24.1868 24.7073C24.2055 24.7262 24.2429 24.7263 24.2743 24.695C24.2994 24.6699 24.2995 24.6322 24.2746 24.607L24.2808 24.6133Z" fill="#FFFF00" stroke="black" stroke-width="0.1"/>
<path d="M23.9003 24.2159C24.1072 24.0092 24.0204 23.8078 24.0204 23.8078C24.0204 23.8078 23.8146 23.7254 23.614 23.9258L23.9003 24.2159ZM24.8255 24.018L23.8109 22.99C23.7922 22.971 23.7485 22.9772 23.7234 23.0022C23.7046 23.021 23.7045 23.0587 23.7232 23.0776L24.7377 24.1057C24.7564 24.1246 24.7938 24.1248 24.8189 24.0997C24.8377 24.0809 24.8379 24.0432 24.8192 24.0243L24.8255 24.018ZM24.7065 24.0867L23.748 23.1154C23.7293 23.0965 23.6919 23.0964 23.6668 23.1214C23.6417 23.1465 23.6416 23.1842 23.6603 23.2031L24.625 24.1807C24.6499 24.206 24.6812 24.1998 24.7062 24.1747C24.7313 24.1497 24.7377 24.1183 24.7128 24.0931L24.7065 24.0867ZM25.0597 23.1074L24.985 23.0318L24.9349 23.0819L24.8789 23.0251L24.929 22.975L24.8481 22.893L24.7917 22.9494L24.7357 22.8926L24.7984 22.83L24.7237 22.7543L24.5983 22.8796C24.5732 22.9046 24.5732 22.9298 24.5918 22.9487L24.8657 23.2262C24.8844 23.2451 24.9156 23.2515 24.9344 23.2327L25.0597 23.1074ZM24.6042 22.9864L24.1844 23.3684L24.452 23.6396L24.8408 23.2135L24.6105 22.9802" fill="#FFFF00"/>
<path d="M24.6042 22.9864L24.1844 23.3684L24.452 23.6396L24.8408 23.2135L24.6105 22.9802M23.9003 24.2159C24.1072 24.0092 24.0204 23.8078 24.0204 23.8078C24.0204 23.8078 23.8146 23.7254 23.614 23.9258L23.9003 24.2159ZM24.8255 24.018L23.8109 22.99C23.7922 22.971 23.7485 22.9772 23.7234 23.0022C23.7046 23.021 23.7045 23.0587 23.7232 23.0776L24.7377 24.1057C24.7564 24.1246 24.7938 24.1248 24.8189 24.0997C24.8377 24.0809 24.8379 24.0432 24.8192 24.0243L24.8255 24.018ZM24.7065 24.0867L23.748 23.1154C23.7293 23.0965 23.6919 23.0964 23.6668 23.1214C23.6417 23.1465 23.6416 23.1842 23.6603 23.2031L24.625 24.1807C24.6499 24.206 24.6812 24.1998 24.7062 24.1747C24.7313 24.1497 24.7377 24.1183 24.7128 24.0931L24.7065 24.0867ZM25.0597 23.1074L24.985 23.0318L24.9349 23.0819L24.8789 23.0251L24.929 22.975L24.8481 22.893L24.7917 22.9494L24.7357 22.8926L24.7984 22.83L24.7237 22.7543L24.5983 22.8796C24.5732 22.9046 24.5732 22.9298 24.5918 22.9487L24.8657 23.2262C24.8844 23.2451 24.9156 23.2515 24.9344 23.2327L25.0597 23.1074Z" stroke="black" stroke-width="0.1"/>
<path d="M24.7403 23.5024L24.5272 23.7153L24.7761 23.9676L24.9893 23.7546L24.7403 23.5024Z" fill="#FFFF00" stroke="black" stroke-width="0.1"/>
<path d="M24.0801 22.8338L23.867 23.0467L24.116 23.299L24.3291 23.0861L24.0801 22.8338Z" fill="#FFFF00" stroke="black" stroke-width="0.1"/>
<path d="M25.1953 23.636L25.1206 23.5603L25.0579 23.6229L25.0019 23.5662L25.0646 23.5035L24.9899 23.4278L24.9272 23.4905L24.8712 23.4337L24.9339 23.3711L24.8592 23.2954L24.7338 23.4207C24.7088 23.4457 24.7087 23.4709 24.7274 23.4898L24.995 23.761C25.0049 23.771 25.0184 23.7767 25.0324 23.7767C25.0465 23.7768 25.06 23.7712 25.07 23.7613L25.1953 23.636Z" fill="#FFFF00" stroke="black" stroke-width="0.1"/>
<path d="M24.5361 22.9674L24.4614 22.8917L24.3988 22.9544L24.3427 22.8976L24.4054 22.835L24.3307 22.7593L24.2681 22.8219L24.212 22.7651L24.2747 22.7025L24.2 22.6268L24.0747 22.7521C24.0496 22.7771 24.0495 22.8023 24.0682 22.8212L24.3358 23.0924C24.3457 23.1025 24.3592 23.1081 24.3732 23.1082C24.3873 23.1082 24.4008 23.1026 24.4108 23.0927L24.5361 22.9674Z" fill="#FFFF00" stroke="black" stroke-width="0.1"/>
<path d="M24.6222 23.2568C24.6598 23.2192 24.6038 23.1625 24.5662 23.2001L24.4659 23.3003L24.5219 23.357L24.6222 23.2568Z" fill="black"/>
<path d="M24.8146 23.7289C24.8522 23.6913 24.8024 23.6408 24.7648 23.6784L24.6896 23.7536L24.7394 23.804L24.8146 23.7289Z" fill="black"/>
<path d="M24.1544 23.0603C24.192 23.0227 24.1422 22.9723 24.1046 23.0098L24.0294 23.085L24.0792 23.1355L24.1544 23.0603Z" fill="black"/>
<path d="M20.5469 20.2162C20.5453 20.4038 20.6148 20.585 20.7412 20.7229C20.8002 20.7893 20.8723 20.8425 20.953 20.8793C21.0336 20.916 21.1209 20.9354 21.2094 20.9362C21.3949 20.9362 21.5627 20.8473 21.6776 20.7229C21.804 20.585 21.8735 20.4038 21.8719 20.2162V19.2562H20.5469V20.2162Z" fill="#003399"/>
<path d="M20.8561 19.754C20.9293 19.754 20.9886 19.6943 20.9886 19.6206C20.9886 19.547 20.9293 19.4873 20.8561 19.4873C20.783 19.4873 20.7236 19.547 20.7236 19.6206C20.7236 19.6943 20.783 19.754 20.8561 19.754Z" fill="white"/>
<path d="M21.5895 19.754C21.6627 19.754 21.722 19.6943 21.722 19.6206C21.722 19.547 21.6627 19.4873 21.5895 19.4873C21.5164 19.4873 21.457 19.547 21.457 19.6206C21.457 19.6943 21.5164 19.754 21.5895 19.754Z" fill="white"/>
<path d="M21.2184 20.1096C21.2916 20.1096 21.3509 20.0499 21.3509 19.9762C21.3509 19.9026 21.2916 19.8429 21.2184 19.8429C21.1453 19.8429 21.0859 19.9026 21.0859 19.9762C21.0859 20.0499 21.1453 20.1096 21.2184 20.1096Z" fill="white"/>
<path d="M20.8561 20.4829C20.9293 20.4829 20.9886 20.4232 20.9886 20.3495C20.9886 20.2759 20.9293 20.2162 20.8561 20.2162C20.783 20.2162 20.7236 20.2759 20.7236 20.3495C20.7236 20.4232 20.783 20.4829 20.8561 20.4829Z" fill="white"/>
<path d="M21.5895 20.4829C21.6627 20.4829 21.722 20.4232 21.722 20.3495C21.722 20.2759 21.6627 20.2162 21.5895 20.2162C21.5164 20.2162 21.457 20.2759 21.457 20.3495C21.457 20.4232 21.5164 20.4829 21.5895 20.4829Z" fill="white"/>
<path d="M20.5469 17.9051C20.5453 18.0927 20.6148 18.2739 20.7412 18.4117C20.8002 18.4781 20.8723 18.5314 20.953 18.5681C21.0336 18.6048 21.1209 18.6242 21.2094 18.6251C21.3949 18.6251 21.5627 18.5362 21.6776 18.4117C21.804 18.2739 21.8735 18.0927 21.8719 17.9051V16.9451H20.5469V17.9051Z" fill="#003399"/>
<path d="M20.8561 17.4428C20.9293 17.4428 20.9886 17.3831 20.9886 17.3095C20.9886 17.2358 20.9293 17.1761 20.8561 17.1761C20.783 17.1761 20.7236 17.2358 20.7236 17.3095C20.7236 17.3831 20.783 17.4428 20.8561 17.4428Z" fill="white"/>
<path d="M21.5895 17.4428C21.6627 17.4428 21.722 17.3831 21.722 17.3095C21.722 17.2358 21.6627 17.1761 21.5895 17.1761C21.5164 17.1761 21.457 17.2358 21.457 17.3095C21.457 17.3831 21.5164 17.4428 21.5895 17.4428Z" fill="white"/>
<path d="M21.2184 17.7984C21.2916 17.7984 21.3509 17.7387 21.3509 17.6651C21.3509 17.5914 21.2916 17.5317 21.2184 17.5317C21.1453 17.5317 21.0859 17.5914 21.0859 17.6651C21.0859 17.7387 21.1453 17.7984 21.2184 17.7984Z" fill="white"/>
<path d="M20.8561 18.1717C20.9293 18.1717 20.9886 18.112 20.9886 18.0384C20.9886 17.9647 20.9293 17.905 20.8561 17.905C20.783 17.905 20.7236 17.9647 20.7236 18.0384C20.7236 18.112 20.783 18.1717 20.8561 18.1717Z" fill="white"/>
<path d="M21.5895 18.1717C21.6627 18.1717 21.722 18.112 21.722 18.0384C21.722 17.9647 21.6627 17.905 21.5895 17.905C21.5164 17.905 21.457 17.9647 21.457 18.0384C21.457 18.112 21.5164 18.1717 21.5895 18.1717Z" fill="white"/>
<path d="M18.709 20.2162C18.7074 20.4038 18.7769 20.585 18.9033 20.7229C18.9623 20.7893 19.0344 20.8425 19.1151 20.8793C19.1957 20.916 19.283 20.9354 19.3715 20.9362C19.557 20.9362 19.7248 20.8473 19.8397 20.7229C19.9661 20.585 20.0356 20.4038 20.034 20.2162V19.2562H18.709V20.2162Z" fill="#003399"/>
<path d="M19.0182 19.754C19.0914 19.754 19.1507 19.6943 19.1507 19.6206C19.1507 19.547 19.0914 19.4873 19.0182 19.4873C18.9451 19.4873 18.8857 19.547 18.8857 19.6206C18.8857 19.6943 18.9451 19.754 19.0182 19.754Z" fill="white"/>
<path d="M19.7516 19.754C19.8248 19.754 19.8841 19.6943 19.8841 19.6206C19.8841 19.547 19.8248 19.4873 19.7516 19.4873C19.6785 19.4873 19.6191 19.547 19.6191 19.6206C19.6191 19.6943 19.6785 19.754 19.7516 19.754Z" fill="white"/>
<path d="M19.3805 20.1096C19.4537 20.1096 19.513 20.0499 19.513 19.9762C19.513 19.9026 19.4537 19.8429 19.3805 19.8429C19.3074 19.8429 19.248 19.9026 19.248 19.9762C19.248 20.0499 19.3074 20.1096 19.3805 20.1096Z" fill="white"/>
<path d="M19.0182 20.4829C19.0914 20.4829 19.1507 20.4232 19.1507 20.3495C19.1507 20.2759 19.0914 20.2162 19.0182 20.2162C18.9451 20.2162 18.8857 20.2759 18.8857 20.3495C18.8857 20.4232 18.9451 20.4829 19.0182 20.4829Z" fill="white"/>
<path d="M19.7516 20.4829C19.8248 20.4829 19.8841 20.4232 19.8841 20.3495C19.8841 20.2759 19.8248 20.2162 19.7516 20.2162C19.6785 20.2162 19.6191 20.2759 19.6191 20.3495C19.6191 20.4232 19.6785 20.4829 19.7516 20.4829Z" fill="white"/>
<path d="M22.3838 20.2162C22.3822 20.4038 22.4517 20.585 22.5781 20.7229C22.6371 20.7893 22.7093 20.8425 22.7899 20.8793C22.8705 20.916 22.9578 20.9354 23.0463 20.9362C23.2318 20.9362 23.3997 20.8473 23.5145 20.7229C23.6409 20.585 23.7104 20.4038 23.7088 20.2162V19.2562H22.3838V20.2162Z" fill="#003399"/>
<path d="M22.693 19.754C22.7662 19.754 22.8255 19.6943 22.8255 19.6206C22.8255 19.547 22.7662 19.4873 22.693 19.4873C22.6199 19.4873 22.5605 19.547 22.5605 19.6206C22.5605 19.6943 22.6199 19.754 22.693 19.754Z" fill="white"/>
<path d="M23.4264 19.754C23.4996 19.754 23.5589 19.6943 23.5589 19.6206C23.5589 19.547 23.4996 19.4873 23.4264 19.4873C23.3533 19.4873 23.2939 19.547 23.2939 19.6206C23.2939 19.6943 23.3533 19.754 23.4264 19.754Z" fill="white"/>
<path d="M23.0554 20.1096C23.1285 20.1096 23.1879 20.0499 23.1879 19.9762C23.1879 19.9026 23.1285 19.8429 23.0554 19.8429C22.9822 19.8429 22.9229 19.9026 22.9229 19.9762C22.9229 20.0499 22.9822 20.1096 23.0554 20.1096Z" fill="white"/>
<path d="M22.693 20.4829C22.7662 20.4829 22.8255 20.4232 22.8255 20.3495C22.8255 20.2759 22.7662 20.2162 22.693 20.2162C22.6199 20.2162 22.5605 20.2759 22.5605 20.3495C22.5605 20.4232 22.6199 20.4829 22.693 20.4829Z" fill="white"/>
<path d="M23.4264 20.4829C23.4996 20.4829 23.5589 20.4232 23.5589 20.3495C23.5589 20.2759 23.4996 20.2162 23.4264 20.2162C23.3533 20.2162 23.2939 20.2759 23.2939 20.3495C23.2939 20.4232 23.3533 20.4829 23.4264 20.4829Z" fill="white"/>
<path d="M20.5469 22.5096C20.5453 22.6972 20.6148 22.8784 20.7412 23.0162C20.8002 23.0826 20.8723 23.1359 20.953 23.1726C21.0336 23.2093 21.1209 23.2287 21.2094 23.2296C21.3949 23.2296 21.5627 23.1407 21.6776 23.0162C21.804 22.8784 21.8735 22.6972 21.8719 22.5096V21.5496H20.5469V22.5096Z" fill="#003399"/>
<path d="M20.8561 22.0473C20.9293 22.0473 20.9886 21.9876 20.9886 21.914C20.9886 21.8403 20.9293 21.7806 20.8561 21.7806C20.783 21.7806 20.7236 21.8403 20.7236 21.914C20.7236 21.9876 20.783 22.0473 20.8561 22.0473Z" fill="white"/>
<path d="M21.5895 22.0473C21.6627 22.0473 21.722 21.9876 21.722 21.914C21.722 21.8403 21.6627 21.7806 21.5895 21.7806C21.5164 21.7806 21.457 21.8403 21.457 21.914C21.457 21.9876 21.5164 22.0473 21.5895 22.0473Z" fill="white"/>
<path d="M21.2184 22.4029C21.2916 22.4029 21.3509 22.3432 21.3509 22.2696C21.3509 22.1959 21.2916 22.1362 21.2184 22.1362C21.1453 22.1362 21.0859 22.1959 21.0859 22.2696C21.0859 22.3432 21.1453 22.4029 21.2184 22.4029Z" fill="white"/>
<path d="M20.8561 22.7762C20.9293 22.7762 20.9886 22.7165 20.9886 22.6429C20.9886 22.5692 20.9293 22.5095 20.8561 22.5095C20.783 22.5095 20.7236 22.5692 20.7236 22.6429C20.7236 22.7165 20.783 22.7762 20.8561 22.7762Z" fill="white"/>
<path d="M21.5895 22.7762C21.6627 22.7762 21.722 22.7165 21.722 22.6429C21.722 22.5692 21.6627 22.5095 21.5895 22.5095C21.5164 22.5095 21.457 22.5692 21.457 22.6429C21.457 22.7165 21.5164 22.7762 21.5895 22.7762Z" fill="white"/>
</g>
<defs>
<clipPath id="clip0_366_4257">
<rect width="53" height="40" rx="8" fill="white"/>
</clipPath>
</defs>
</svg>
