<svg width="44" height="32" viewBox="0 0 44 32" fill="none" xmlns="http://www.w3.org/2000/svg">
<g id="Clip path group">
<mask id="mask0_1104_11610" style="mask-type:luminance" maskUnits="userSpaceOnUse" x="0" y="0" width="44" height="32">
<g id="clippath">
<path id="Vector" d="M35.3399 0H8.66992C4.25164 0 0.669922 3.58172 0.669922 8V24C0.669922 28.4183 4.25164 32 8.66991 32H35.3399C39.7582 32 43.3399 28.4183 43.3399 24V8C43.3399 3.58172 39.7582 0 35.3399 0Z" fill="white"/>
</g>
</mask>
<g mask="url(#mask0_1104_11610)">
<g id="Group">
<g id="Group_2">
<path id="Vector_2" fill-rule="evenodd" clip-rule="evenodd" d="M0.669922 8C0.669922 3.58172 4.25164 0 8.66992 0H56.6799C61.0982 0 64.6799 3.58172 64.6799 8V13.26C64.6799 17.6783 61.0982 21.26 56.6799 21.26H8.66992C4.25165 21.26 0.669922 17.6783 0.669922 13.26V8Z" fill="#B20000"/>
<path id="Vector_3" fill-rule="evenodd" clip-rule="evenodd" d="M0.669922 26.63C0.669922 23.6642 3.07415 21.26 6.03992 21.26H59.3099C62.2757 21.26 64.6799 23.6642 64.6799 26.63V26.63C64.6799 29.5958 62.2757 32 59.3099 32H6.03992C3.07416 32 0.669922 29.5958 0.669922 26.63V26.63Z" fill="#429F00"/>
<path id="Vector_4" fill-rule="evenodd" clip-rule="evenodd" d="M0.669922 3.545C0.669922 1.58715 2.25707 0 4.21492 0V0C6.17277 0 7.75992 1.58715 7.75992 3.545V28.455C7.75992 30.4129 6.17277 32 4.21492 32V32C2.25707 32 0.669922 30.4128 0.669922 28.455V3.545Z" fill="white"/>
<g id="Group_3">
<path id="Vector_5" fill-rule="evenodd" clip-rule="evenodd" d="M1.00977 0.71C1.00977 0.616112 1.08588 0.54 1.17977 0.54V0.54C1.27365 0.54 1.34977 0.616112 1.34977 0.71V0.91C1.34977 1.00389 1.27365 1.08 1.17977 1.08V1.08C1.08588 1.08 1.00977 1.00389 1.00977 0.91V0.71ZM2.01977 0.81C2.01977 0.660883 2.14065 0.54 2.28977 0.54H2.75977C2.90888 0.54 3.02977 0.660883 3.02977 0.81V0.81C3.02977 0.959117 2.90888 1.08 2.75977 1.08H2.28977C2.14065 1.08 2.01977 0.959117 2.01977 0.81V0.81ZM2.35977 0.17C2.35977 0.0761115 2.43588 0 2.52977 0V0C2.62365 0 2.69977 0.0761116 2.69977 0.17V0.37C2.69977 0.463889 2.62365 0.54 2.52977 0.54V0.54C2.43588 0.54 2.35977 0.463888 2.35977 0.37V0.17ZM4.04977 0.17C4.04977 0.0761115 4.12588 0 4.21977 0V0C4.31365 0 4.38977 0.0761116 4.38977 0.17V0.37C4.38977 0.463889 4.31365 0.54 4.21977 0.54V0.54C4.12588 0.54 4.04977 0.463888 4.04977 0.37V0.17ZM5.39977 0.81C5.39977 0.660883 5.52065 0.54 5.66977 0.54H6.13977C6.28888 0.54 6.40977 0.660883 6.40977 0.81V0.81C6.40977 0.959117 6.28888 1.08 6.13977 1.08H5.66977C5.52065 1.08 5.39977 0.959117 5.39977 0.81V0.81ZM5.73977 0.17C5.73977 0.0761115 5.81588 0 5.90977 0V0C6.00365 0 6.07977 0.0761116 6.07977 0.17V0.37C6.07977 0.463889 6.00365 0.54 5.90977 0.54V0.54C5.81588 0.54 5.73977 0.463888 5.73977 0.37V0.17ZM1.67977 1.36C1.67977 1.21088 1.80065 1.09 1.94977 1.09H2.08977C2.23888 1.09 2.35977 1.21088 2.35977 1.36V1.36C2.35977 1.50912 2.23888 1.63 2.08977 1.63H1.94977C1.80065 1.63 1.67977 1.50912 1.67977 1.36V1.36ZM2.68977 1.36C2.68977 1.21088 2.81065 1.09 2.95977 1.09H3.09977C3.24888 1.09 3.36977 1.21088 3.36977 1.36V1.36C3.36977 1.50912 3.24888 1.63 3.09977 1.63H2.95977C2.81065 1.63 2.68977 1.50912 2.68977 1.36V1.36ZM5.04977 1.36C5.04977 1.21088 5.17065 1.09 5.31977 1.09H5.45977C5.60888 1.09 5.72977 1.21088 5.72977 1.36V1.36C5.72977 1.50912 5.60888 1.63 5.45977 1.63H5.31977C5.17065 1.63 5.04977 1.50912 5.04977 1.36V1.36ZM6.05977 1.36C6.05977 1.21088 6.18065 1.09 6.32977 1.09H6.46977C6.61888 1.09 6.73977 1.21088 6.73977 1.36V1.36C6.73977 1.50912 6.61888 1.63 6.46977 1.63H6.32977C6.18065 1.63 6.05977 1.50912 6.05977 1.36V1.36ZM1.34977 1.89C1.34977 1.74088 1.47065 1.62 1.61977 1.62H1.75977C1.90888 1.62 2.02977 1.74088 2.02977 1.89V1.89C2.02977 2.03912 1.90888 2.16 1.75977 2.16H1.61977C1.47065 2.16 1.34977 2.03912 1.34977 1.89V1.89ZM3.03977 1.89C3.03977 1.74088 3.16065 1.62 3.30977 1.62H3.44977C3.59888 1.62 3.71977 1.74088 3.71977 1.89V1.89C3.71977 2.03912 3.59888 2.16 3.44977 2.16H3.30977C3.16065 2.16 3.03977 2.03912 3.03977 1.89V1.89ZM4.72977 1.89C4.72977 1.74088 4.85065 1.62 4.99977 1.62H5.13977C5.28888 1.62 5.40977 1.74088 5.40977 1.89V1.89C5.40977 2.03912 5.28888 2.16 5.13977 2.16H4.99977C4.85065 2.16 4.72977 2.03912 4.72977 1.89V1.89ZM6.41977 1.89C6.41977 1.74088 6.54065 1.62 6.68977 1.62H6.82977C6.97888 1.62 7.09977 1.74088 7.09977 1.89V1.89C7.09977 2.03912 6.97888 2.16 6.82977 2.16H6.68977C6.54065 2.16 6.41977 2.03912 6.41977 1.89V1.89ZM7.09977 0.71C7.09977 0.616112 7.17588 0.54 7.26977 0.54V0.54C7.36365 0.54 7.43977 0.616112 7.43977 0.71V0.91C7.43977 1.00389 7.36365 1.08 7.26977 1.08V1.08C7.17588 1.08 7.09977 1.00389 7.09977 0.91V0.71ZM1.00977 2.44C1.00977 2.29088 1.13065 2.17 1.27977 2.17H1.41977C1.56888 2.17 1.68977 2.29088 1.68977 2.44V2.44C1.68977 2.58912 1.56888 2.71 1.41977 2.71H1.27977C1.13065 2.71 1.00977 2.58912 1.00977 2.44V2.44ZM3.36977 2.44C3.36977 2.29088 3.49065 2.17 3.63977 2.17H3.77977C3.92888 2.17 4.04977 2.29088 4.04977 2.44V2.44C4.04977 2.58912 3.92888 2.71 3.77977 2.71H3.63977C3.49065 2.71 3.36977 2.58912 3.36977 2.44V2.44ZM6.74977 2.44C6.74977 2.29088 6.87065 2.17 7.01977 2.17H7.15977C7.30888 2.17 7.42977 2.29088 7.42977 2.44V2.44C7.42977 2.58912 7.30888 2.71 7.15977 2.71H7.01977C6.87065 2.71 6.74977 2.58912 6.74977 2.44V2.44ZM1.34977 4.06C1.34977 3.91088 1.47065 3.79 1.61977 3.79H1.75977C1.90888 3.79 2.02977 3.91088 2.02977 4.06V4.06C2.02977 4.20912 1.90888 4.33 1.75977 4.33H1.61977C1.47065 4.33 1.34977 4.20912 1.34977 4.06V4.06ZM1.68977 4.6C1.68977 4.45088 1.81065 4.33 1.95977 4.33H2.09977C2.24888 4.33 2.36977 4.45088 2.36977 4.6V4.6C2.36977 4.74912 2.24888 4.87 2.09977 4.87H1.95977C1.81065 4.87 1.68977 4.74912 1.68977 4.6V4.6ZM3.03977 4.06C3.03977 3.91088 3.16065 3.79 3.30977 3.79H3.44977C3.59888 3.79 3.71977 3.91088 3.71977 4.06V4.06C3.71977 4.20912 3.59888 4.33 3.44977 4.33H3.30977C3.16065 4.33 3.03977 4.20912 3.03977 4.06V4.06ZM2.69977 4.6C2.69977 4.45088 2.82065 4.33 2.96977 4.33H3.10977C3.25888 4.33 3.37977 4.45088 3.37977 4.6V4.6C3.37977 4.74912 3.25888 4.87 3.10977 4.87H2.96977C2.82065 4.87 2.69977 4.74912 2.69977 4.6V4.6ZM2.01977 5.14C2.01977 4.99088 2.14065 4.87 2.28977 4.87H2.75977C2.90888 4.87 3.02977 4.99088 3.02977 5.14V5.14C3.02977 5.28912 2.90888 5.41 2.75977 5.41H2.28977C2.14065 5.41 2.01977 5.28912 2.01977 5.14V5.14Z" fill="#B20000"/>
<path id="Vector_6" fill-rule="evenodd" clip-rule="evenodd" d="M2.35992 5.60006C2.35992 5.50617 2.43603 5.43006 2.52992 5.43006V5.43006C2.62381 5.43006 2.69992 5.50617 2.69992 5.60006V5.80006C2.69992 5.89395 2.62381 5.97006 2.52992 5.97006V5.97006C2.43603 5.97006 2.35992 5.89395 2.35992 5.80006V5.60006ZM4.71992 4.08006C4.71992 3.93094 4.84081 3.81006 4.98992 3.81006H5.12992C5.27904 3.81006 5.39992 3.93094 5.39992 4.08006V4.08006C5.39992 4.22918 5.27904 4.35006 5.12992 4.35006H4.98992C4.8408 4.35006 4.71992 4.22918 4.71992 4.08006V4.08006ZM5.05992 4.62006C5.05992 4.47094 5.1808 4.35006 5.32992 4.35006H5.46992C5.61904 4.35006 5.73992 4.47094 5.73992 4.62006V4.62006C5.73992 4.76918 5.61904 4.89006 5.46992 4.89006H5.32992C5.1808 4.89006 5.05992 4.76918 5.05992 4.62006V4.62006ZM6.40992 4.08006C6.40992 3.93094 6.5308 3.81006 6.67992 3.81006H6.81992C6.96904 3.81006 7.08992 3.93094 7.08992 4.08006V4.08006C7.08992 4.22918 6.96904 4.35006 6.81992 4.35006H6.67992C6.5308 4.35006 6.40992 4.22918 6.40992 4.08006V4.08006ZM6.06992 4.62006C6.06992 4.47094 6.19081 4.35006 6.33992 4.35006H6.47992C6.62904 4.35006 6.74992 4.47094 6.74992 4.62006V4.62006C6.74992 4.76918 6.62904 4.89006 6.47992 4.89006H6.33992C6.1908 4.89006 6.06992 4.76918 6.06992 4.62006V4.62006ZM5.38992 5.16006C5.38992 5.01094 5.5108 4.89006 5.65992 4.89006H6.12992C6.27904 4.89006 6.39992 5.01094 6.39992 5.16006V5.16006C6.39992 5.30918 6.27904 5.43006 6.12992 5.43006H5.65992C5.5108 5.43006 5.38992 5.30918 5.38992 5.16006V5.16006ZM5.72992 5.60006C5.72992 5.50617 5.80603 5.43006 5.89992 5.43006V5.43006C5.99381 5.43006 6.06992 5.50617 6.06992 5.60006V5.80006C6.06992 5.89395 5.99381 5.97006 5.89992 5.97006V5.97006C5.80603 5.97006 5.72992 5.89395 5.72992 5.80006V5.60006ZM4.03992 5.05006C4.03992 4.95617 4.11603 4.88006 4.20992 4.88006V4.88006C4.30381 4.88006 4.37992 4.95617 4.37992 5.05006V5.25006C4.37992 5.34395 4.30381 5.42006 4.20992 5.42006V5.42006C4.11603 5.42006 4.03992 5.34395 4.03992 5.25006V5.05006ZM0.669922 5.05006C0.669922 4.95617 0.746033 4.88006 0.839922 4.88006V4.88006C0.93381 4.88006 1.00992 4.95617 1.00992 5.05006V5.25006C1.00992 5.34395 0.93381 5.42006 0.839922 5.42006V5.42006C0.746033 5.42006 0.669922 5.34395 0.669922 5.25006V5.05006ZM7.41992 5.05006C7.41992 4.95617 7.49603 4.88006 7.58992 4.88006V4.88006C7.68381 4.88006 7.75992 4.95617 7.75992 5.05006V5.25006C7.75992 5.34395 7.68381 5.42006 7.58992 5.42006V5.42006C7.49603 5.42006 7.41992 5.34395 7.41992 5.25006V5.05006ZM2.35992 7.76006C2.35992 7.66617 2.43603 7.59006 2.52992 7.59006V7.59006C2.62381 7.59006 2.69992 7.66617 2.69992 7.76006V7.96006C2.69992 8.05395 2.62381 8.13006 2.52992 8.13006V8.13006C2.43603 8.13006 2.35992 8.05395 2.35992 7.96006V7.76006ZM2.01992 8.41006C2.01992 8.26094 2.14081 8.14006 2.28992 8.14006H2.75992C2.90904 8.14006 3.02992 8.26094 3.02992 8.41006V8.41006C3.02992 8.55918 2.90904 8.68006 2.75992 8.68006H2.28992C2.1408 8.68006 2.01992 8.55918 2.01992 8.41006V8.41006ZM1.67992 8.95006C1.67992 8.80094 1.8008 8.68006 1.94992 8.68006H3.09992C3.24904 8.68006 3.36992 8.80094 3.36992 8.95006V8.95006C3.36992 9.09918 3.24904 9.22006 3.09992 9.22006H1.94992C1.80081 9.22006 1.67992 9.09918 1.67992 8.95006V8.95006ZM5.72992 7.77006C5.72992 7.67617 5.80603 7.60006 5.89992 7.60006V7.60006C5.99381 7.60006 6.06992 7.67617 6.06992 7.77006V7.97006C6.06992 8.06395 5.99381 8.14006 5.89992 8.14006V8.14006C5.80603 8.14006 5.72992 8.06395 5.72992 7.97006V7.77006ZM5.38992 8.41006C5.38992 8.26094 5.5108 8.14006 5.65992 8.14006H6.12992C6.27904 8.14006 6.39992 8.26094 6.39992 8.41006V8.41006C6.39992 8.55918 6.27904 8.68006 6.12992 8.68006H5.65992C5.5108 8.68006 5.38992 8.55918 5.38992 8.41006V8.41006ZM5.04992 8.95006C5.04992 8.80094 5.17081 8.68006 5.31992 8.68006H6.46992C6.61904 8.68006 6.73992 8.80094 6.73992 8.95006V8.95006C6.73992 9.09918 6.61904 9.22006 6.46992 9.22006H5.31992C5.17081 9.22006 5.04992 9.09918 5.04992 8.95006V8.95006ZM5.38992 11.6601C5.38992 11.5109 5.5108 11.3901 5.65992 11.3901H6.80992C6.95904 11.3901 7.07992 11.5109 7.07992 11.6601V11.6601C7.07992 11.8092 6.95904 11.9301 6.80992 11.9301H5.65992C5.51081 11.9301 5.38992 11.8092 5.38992 11.6601V11.6601ZM4.70992 9.49006C4.70992 9.34094 4.8308 9.22006 4.97992 9.22006H6.79992C6.94904 9.22006 7.06992 9.34094 7.06992 9.49006V9.49006C7.06992 9.63918 6.94904 9.76006 6.79992 9.76006H4.97992C4.8308 9.76006 4.70992 9.63918 4.70992 9.49006V9.49006ZM1.32992 9.22006H3.41992C3.56904 9.22006 3.68992 9.34094 3.68992 9.49006V9.49006C3.68992 9.63918 3.56904 9.76006 3.41992 9.76006H1.61992C1.47081 9.76006 1.34992 9.63918 1.34992 9.49006V9.24006C1.34992 9.22901 1.34097 9.22006 1.32992 9.22006V9.22006ZM1.66992 12.2001C1.66992 12.0509 1.7908 11.9301 1.93992 11.9301H2.40992C2.55904 11.9301 2.67992 12.0509 2.67992 12.2001V12.2001C2.67992 12.3492 2.55904 12.4701 2.40992 12.4701H1.93992C1.7908 12.4701 1.66992 12.3492 1.66992 12.2001V12.2001ZM1.32992 11.3901H2.74992C2.89904 11.3901 3.01992 11.5109 3.01992 11.6601V11.6601C3.01992 11.8092 2.89904 11.9301 2.74992 11.9301H1.61992C1.47081 11.9301 1.34992 11.8092 1.34992 11.6601V11.4101C1.34992 11.399 1.34097 11.3901 1.32992 11.3901V11.3901ZM6.05992 10.5801C6.05992 10.4309 6.1808 10.3101 6.32992 10.3101H7.47992C7.62904 10.3101 7.74992 10.4309 7.74992 10.5801V10.5801C7.74992 10.7292 7.62904 10.8501 7.47992 10.8501H6.32992C6.18081 10.8501 6.05992 10.7292 6.05992 10.5801V10.5801ZM5.71992 12.2001C5.71992 12.0509 5.8408 11.9301 5.98992 11.9301H6.45992C6.60904 11.9301 6.72992 12.0509 6.72992 12.2001V12.2001C6.72992 12.3492 6.60904 12.4701 6.45992 12.4701H5.98992C5.8408 12.4701 5.71992 12.3492 5.71992 12.2001V12.2001Z" fill="#B20000"/>
<path id="Vector_7" fill-rule="evenodd" clip-rule="evenodd" d="M2.01992 12.6499C2.01992 12.556 2.09603 12.4799 2.18992 12.4799V12.4799C2.28381 12.4799 2.35992 12.556 2.35992 12.6499V12.8499C2.35992 12.9438 2.28381 13.0199 2.18992 13.0199V13.0199C2.09603 13.0199 2.01992 12.9438 2.01992 12.8499V12.6499ZM6.06992 12.6499C6.06992 12.556 6.14603 12.4799 6.23992 12.4799V12.4799C6.33381 12.4799 6.40992 12.556 6.40992 12.6499V12.8499C6.40992 12.9438 6.33381 13.0199 6.23992 13.0199V13.0199C6.14603 13.0199 6.06992 12.9438 6.06992 12.8499V12.6499ZM0.669922 10.5799C0.669922 10.4308 0.790805 10.3099 0.939922 10.3099H2.08992C2.23904 10.3099 2.35992 10.4308 2.35992 10.5799V10.5799C2.35992 10.729 2.23904 10.8499 2.08992 10.8499H0.939922C0.790805 10.8499 0.669922 10.729 0.669922 10.5799V10.5799ZM3.70992 11.6599C3.70992 11.5108 3.8308 11.3899 3.97992 11.3899H4.44992C4.59904 11.3899 4.71992 11.5108 4.71992 11.6599V11.6599C4.71992 11.809 4.59904 11.9299 4.44992 11.9299H3.97992C3.8308 11.9299 3.70992 11.809 3.70992 11.6599V11.6599ZM4.04992 12.1099C4.04992 12.016 4.12603 11.9399 4.21992 11.9399V11.9399C4.31381 11.9399 4.38992 12.016 4.38992 12.1099V12.3099C4.38992 12.4038 4.31381 12.4799 4.21992 12.4799V12.4799C4.12603 12.4799 4.04992 12.4038 4.04992 12.3099V12.1099ZM3.03992 10.5899C3.03992 10.4408 3.1608 10.3199 3.30992 10.3199H5.12992C5.27904 10.3199 5.39992 10.4408 5.39992 10.5899V10.5899C5.39992 10.739 5.27904 10.8599 5.12992 10.8599H3.30992C3.1608 10.8599 3.03992 10.739 3.03992 10.5899V10.5899ZM4.37992 2.43992C4.37992 2.2908 4.50081 2.16992 4.64992 2.16992H4.78992C4.93904 2.16992 5.05992 2.2908 5.05992 2.43992V2.43992C5.05992 2.58904 4.93904 2.70992 4.78992 2.70992H4.64992C4.5008 2.70992 4.37992 2.58904 4.37992 2.43992V2.43992ZM3.69992 2.97992C3.69992 2.8308 3.8208 2.70992 3.96992 2.70992H4.43992C4.58904 2.70992 4.70992 2.8308 4.70992 2.97992V2.97992C4.70992 3.12904 4.58904 3.24992 4.43992 3.24992H3.96992C3.8208 3.24992 3.69992 3.12904 3.69992 2.97992V2.97992ZM3.35992 3.51992C3.35992 3.3708 3.48081 3.24992 3.62992 3.24992H3.76992C3.91904 3.24992 4.03992 3.3708 4.03992 3.51992V3.51992C4.03992 3.66904 3.91904 3.78992 3.76992 3.78992H3.62992C3.4808 3.78992 3.35992 3.66904 3.35992 3.51992V3.51992ZM4.36992 3.51992C4.36992 3.3708 4.4908 3.24992 4.63992 3.24992H4.77992C4.92904 3.24992 5.04992 3.3708 5.04992 3.51992V3.51992C5.04992 3.66904 4.92904 3.78992 4.77992 3.78992H4.63992C4.4908 3.78992 4.36992 3.66904 4.36992 3.51992V3.51992ZM0.669922 2.97992C0.669922 2.8308 0.790805 2.70992 0.939922 2.70992H1.07992C1.22904 2.70992 1.34992 2.8308 1.34992 2.97992V2.97992C1.34992 3.12904 1.22904 3.24992 1.07992 3.24992H0.939922C0.790805 3.24992 0.669922 3.12904 0.669922 2.97992V2.97992ZM1.00992 3.51992C1.00992 3.3708 1.13081 3.24992 1.27992 3.24992H1.41992C1.56904 3.24992 1.68992 3.3708 1.68992 3.51992V3.51992C1.68992 3.66904 1.56904 3.78992 1.41992 3.78992H1.27992C1.1308 3.78992 1.00992 3.66904 1.00992 3.51992V3.51992ZM7.08992 2.97992C7.08992 2.8308 7.21081 2.70992 7.35992 2.70992H7.49992C7.64904 2.70992 7.76992 2.8308 7.76992 2.97992V2.97992C7.76992 3.12904 7.64904 3.24992 7.49992 3.24992H7.35992C7.2108 3.24992 7.08992 3.12904 7.08992 2.97992V2.97992ZM6.74992 3.51992C6.74992 3.3708 6.8708 3.24992 7.01992 3.24992H7.15992C7.30904 3.24992 7.42992 3.3708 7.42992 3.51992V3.51992C7.42992 3.66904 7.30904 3.78992 7.15992 3.78992H7.01992C6.8708 3.78992 6.74992 3.66904 6.74992 3.51992V3.51992ZM0.669922 8.28992C0.669922 8.19603 0.746033 8.11992 0.839922 8.11992V8.11992C0.93381 8.11992 1.00992 8.19603 1.00992 8.28992V8.48992C1.00992 8.58381 0.93381 8.65992 0.839922 8.65992V8.65992C0.746033 8.65992 0.669922 8.58381 0.669922 8.48992V8.28992ZM7.41992 8.28992C7.41992 8.19603 7.49603 8.11992 7.58992 8.11992V8.11992C7.68381 8.11992 7.75992 8.19603 7.75992 8.28992V8.48992C7.75992 8.58381 7.68381 8.65992 7.58992 8.65992V8.65992C7.49603 8.65992 7.41992 8.58381 7.41992 8.48992V8.28992ZM3.70992 12.7299C3.70992 12.5808 3.8308 12.4599 3.97992 12.4599H4.44992C4.59904 12.4599 4.71992 12.5808 4.71992 12.7299V12.7299C4.71992 12.879 4.59904 12.9999 4.44992 12.9999H3.97992C3.8308 12.9999 3.70992 12.879 3.70992 12.7299V12.7299ZM3.36992 13.2699C3.36992 13.1208 3.4908 12.9999 3.63992 12.9999H3.77992C3.92904 12.9999 4.04992 13.1208 4.04992 13.2699V13.2699C4.04992 13.419 3.92904 13.5399 3.77992 13.5399H3.63992C3.4908 13.5399 3.36992 13.419 3.36992 13.2699V13.2699ZM4.37992 13.2699C4.37992 13.1208 4.50081 12.9999 4.64992 12.9999H4.78992C4.93904 12.9999 5.05992 13.1208 5.05992 13.2699V13.2699C5.05992 13.419 4.93904 13.5399 4.78992 13.5399H4.64992C4.5008 13.5399 4.37992 13.419 4.37992 13.2699V13.2699ZM3.02992 13.8099C3.02992 13.6608 3.1508 13.5399 3.29992 13.5399H3.43992C3.58904 13.5399 3.70992 13.6608 3.70992 13.8099V13.8099C3.70992 13.959 3.58904 14.0799 3.43992 14.0799H3.29992C3.1508 14.0799 3.02992 13.959 3.02992 13.8099V13.8099ZM4.71992 13.8099C4.71992 13.6608 4.84081 13.5399 4.98992 13.5399H5.12992C5.27904 13.5399 5.39992 13.6608 5.39992 13.8099V13.8099C5.39992 13.959 5.27904 14.0799 5.12992 14.0799H4.98992C4.8408 14.0799 4.71992 13.959 4.71992 13.8099V13.8099ZM2.68992 14.3499C2.68992 14.2008 2.8108 14.0799 2.95992 14.0799H3.09992C3.24904 14.0799 3.36992 14.2008 3.36992 14.3499V14.3499C3.36992 14.499 3.24904 14.6199 3.09992 14.6199H2.95992C2.8108 14.6199 2.68992 14.499 2.68992 14.3499V14.3499ZM5.04992 14.3499C5.04992 14.2008 5.17081 14.0799 5.31992 14.0799H5.45992C5.60904 14.0799 5.72992 14.2008 5.72992 14.3499V14.3499C5.72992 14.499 5.60904 14.6199 5.45992 14.6199H5.31992C5.1708 14.6199 5.04992 14.499 5.04992 14.3499V14.3499ZM2.34992 14.8999C2.34992 14.7508 2.4708 14.6299 2.61992 14.6299H2.75992C2.90904 14.6299 3.02992 14.7508 3.02992 14.8999V14.8999C3.02992 15.049 2.90904 15.1699 2.75992 15.1699H2.61992C2.4708 15.1699 2.34992 15.049 2.34992 14.8999V14.8999ZM5.38992 14.8999C5.38992 14.7508 5.5108 14.6299 5.65992 14.6299H5.79992C5.94904 14.6299 6.06992 14.7508 6.06992 14.8999V14.8999C6.06992 15.049 5.94904 15.1699 5.79992 15.1699H5.65992C5.5108 15.1699 5.38992 15.049 5.38992 14.8999V14.8999ZM1.67992 15.4399C1.67992 15.2908 1.8008 15.1699 1.94992 15.1699H2.41992C2.56904 15.1699 2.68992 15.2908 2.68992 15.4399V15.4399C2.68992 15.589 2.56904 15.7099 2.41992 15.7099H1.94992C1.8008 15.7099 1.67992 15.589 1.67992 15.4399V15.4399ZM5.72992 15.4399C5.72992 15.2908 5.8508 15.1699 5.99992 15.1699H6.46992C6.61904 15.1699 6.73992 15.2908 6.73992 15.4399V15.4399C6.73992 15.589 6.61904 15.7099 6.46992 15.7099H5.99992C5.8508 15.7099 5.72992 15.589 5.72992 15.4399V15.4399ZM6.40992 14.8999C6.40992 14.7508 6.5308 14.6299 6.67992 14.6299H6.81992C6.96904 14.6299 7.08992 14.7508 7.08992 14.8999V14.8999C7.08992 15.049 6.96904 15.1699 6.81992 15.1699H6.67992C6.5308 15.1699 6.40992 15.049 6.40992 14.8999V14.8999ZM6.74992 14.3599C6.74992 14.2108 6.8708 14.0899 7.01992 14.0899H7.15992C7.30904 14.0899 7.42992 14.2108 7.42992 14.3599V14.3599C7.42992 14.509 7.30904 14.6299 7.15992 14.6299H7.01992C6.8708 14.6299 6.74992 14.509 6.74992 14.3599V14.3599ZM7.08992 13.8199C7.08992 13.6708 7.21081 13.5499 7.35992 13.5499H7.49992C7.64904 13.5499 7.76992 13.6708 7.76992 13.8199V13.8199C7.76992 13.969 7.64904 14.0899 7.49992 14.0899H7.35992C7.2108 14.0899 7.08992 13.969 7.08992 13.8199V13.8199ZM1.34992 14.9099C1.34992 14.7608 1.47081 14.6399 1.61992 14.6399H1.75992C1.90904 14.6399 2.02992 14.7608 2.02992 14.9099V14.9099C2.02992 15.059 1.90904 15.1799 1.75992 15.1799H1.61992C1.4708 15.1799 1.34992 15.059 1.34992 14.9099V14.9099ZM1.00992 14.3699C1.00992 14.2208 1.13081 14.0999 1.27992 14.0999H1.41992C1.56904 14.0999 1.68992 14.2208 1.68992 14.3699V14.3699C1.68992 14.519 1.56904 14.6399 1.41992 14.6399H1.27992C1.1308 14.6399 1.00992 14.519 1.00992 14.3699V14.3699ZM0.669922 13.8299C0.669922 13.6808 0.790805 13.5599 0.939922 13.5599H1.07992C1.22904 13.5599 1.34992 13.6808 1.34992 13.8299V13.8299C1.34992 13.979 1.22904 14.0999 1.07992 14.0999H0.939922C0.790805 14.0999 0.669922 13.979 0.669922 13.8299V13.8299ZM2.01992 15.9099C2.01992 15.816 2.09603 15.7399 2.18992 15.7399V15.7399C2.28381 15.7399 2.35992 15.816 2.35992 15.9099V16.1099C2.35992 16.2038 2.28381 16.2799 2.18992 16.2799V16.2799C2.09603 16.2799 2.01992 16.2038 2.01992 16.1099V15.9099ZM6.06992 15.9099C6.06992 15.816 6.14603 15.7399 6.23992 15.7399V15.7399C6.33381 15.7399 6.40992 15.816 6.40992 15.9099V16.1099C6.40992 16.2038 6.33381 16.2799 6.23992 16.2799V16.2799C6.14603 16.2799 6.06992 16.2038 6.06992 16.1099V15.9099ZM4.03992 14.2899C4.03992 14.196 4.11603 14.1199 4.20992 14.1199V14.1199C4.30381 14.1199 4.37992 14.196 4.37992 14.2899V14.4899C4.37992 14.5838 4.30381 14.6599 4.20992 14.6599V14.6599C4.11603 14.6599 4.03992 14.5838 4.03992 14.4899V14.2899ZM3.02992 15.9099C3.02992 15.816 3.10603 15.7399 3.19992 15.7399V15.7399C3.29381 15.7399 3.36992 15.816 3.36992 15.9099V16.1099C3.36992 16.2038 3.29381 16.2799 3.19992 16.2799V16.2799C3.10603 16.2799 3.02992 16.2038 3.02992 16.1099V15.9099ZM5.05992 15.9099C5.05992 15.816 5.13603 15.7399 5.22992 15.7399V15.7399C5.32381 15.7399 5.39992 15.816 5.39992 15.9099V16.1099C5.39992 16.2038 5.32381 16.2799 5.22992 16.2799V16.2799C5.13603 16.2799 5.05992 16.2038 5.05992 16.1099V15.9099ZM4.04992 15.9099C4.04992 15.816 4.12603 15.7399 4.21992 15.7399V15.7399C4.31381 15.7399 4.38992 15.816 4.38992 15.9099V16.1099C4.38992 16.2038 4.31381 16.2799 4.21992 16.2799V16.2799C4.12603 16.2799 4.04992 16.2038 4.04992 16.1099V15.9099ZM0.669922 15.9099C0.669922 15.816 0.746033 15.7399 0.839922 15.7399V15.7399C0.93381 15.7399 1.00992 15.816 1.00992 15.9099V16.1099C1.00992 16.2038 0.93381 16.2799 0.839922 16.2799V16.2799C0.746033 16.2799 0.669922 16.2038 0.669922 16.1099L0.669922 15.9099ZM7.41992 15.9099C7.41992 15.816 7.49603 15.7399 7.58992 15.7399V15.7399C7.68381 15.7399 7.75992 15.816 7.75992 15.9099V16.1099C7.75992 16.2038 7.68381 16.2799 7.58992 16.2799V16.2799C7.49603 16.2799 7.41992 16.2038 7.41992 16.1099V15.9099ZM4.03992 8.30992C4.03992 8.21603 4.11603 8.13992 4.20992 8.13992V8.13992C4.30381 8.13992 4.37992 8.21603 4.37992 8.30992V8.50992C4.37992 8.60381 4.30381 8.67992 4.20992 8.67992V8.67992C4.11603 8.67992 4.03992 8.60381 4.03992 8.50992V8.30992ZM2.35992 2.87992C2.35992 2.78603 2.43603 2.70992 2.52992 2.70992V2.70992C2.62381 2.70992 2.69992 2.78603 2.69992 2.87992V3.07992C2.69992 3.17381 2.62381 3.24992 2.52992 3.24992V3.24992C2.43603 3.24992 2.35992 3.17381 2.35992 3.07992V2.87992ZM5.73992 2.87992C5.73992 2.78603 5.81603 2.70992 5.90992 2.70992V2.70992C6.00381 2.70992 6.07992 2.78603 6.07992 2.87992V3.07992C6.07992 3.17381 6.00381 3.24992 5.90992 3.24992V3.24992C5.81603 3.24992 5.73992 3.17381 5.73992 3.07992V2.87992ZM3.70992 6.76992C3.70992 6.6208 3.8308 6.49992 3.97992 6.49992H4.44992C4.59904 6.49992 4.71992 6.6208 4.71992 6.76992V6.76992C4.71992 6.91904 4.59904 7.03992 4.44992 7.03992H3.97992C3.8308 7.03992 3.70992 6.91904 3.70992 6.76992V6.76992ZM3.02992 7.30992C3.02992 7.1608 3.1508 7.03992 3.29992 7.03992H3.76992C3.91904 7.03992 4.03992 7.1608 4.03992 7.30992V7.30992C4.03992 7.45904 3.91904 7.57992 3.76992 7.57992H3.29992C3.1508 7.57992 3.02992 7.45904 3.02992 7.30992V7.30992ZM3.36992 7.74992C3.36992 7.65603 3.44603 7.57992 3.53992 7.57992V7.57992C3.63381 7.57992 3.70992 7.65603 3.70992 7.74992V7.94992C3.70992 8.04381 3.63381 8.11992 3.53992 8.11992V8.11992C3.44603 8.11992 3.36992 8.04381 3.36992 7.94992V7.74992ZM2.68992 6.75992C2.68992 6.6108 2.81081 6.48992 2.95992 6.48992H3.09992C3.24904 6.48992 3.36992 6.6108 3.36992 6.75992V6.75992C3.36992 6.90904 3.24904 7.02992 3.09992 7.02992H2.95992C2.81081 7.02992 2.68992 6.90904 2.68992 6.75992V6.75992ZM3.02992 6.21992C3.02992 6.0708 3.1508 5.94992 3.29992 5.94992H3.76992C3.91904 5.94992 4.03992 6.0708 4.03992 6.21992V6.21992C4.03992 6.36904 3.91904 6.48992 3.76992 6.48992H3.29992C3.1508 6.48992 3.02992 6.36904 3.02992 6.21992V6.21992ZM3.36992 5.57992C3.36992 5.48603 3.44603 5.40992 3.53992 5.40992V5.40992C3.63381 5.40992 3.70992 5.48603 3.70992 5.57992V5.77992C3.70992 5.87381 3.63381 5.94992 3.53992 5.94992V5.94992C3.44603 5.94992 3.36992 5.87381 3.36992 5.77992V5.57992ZM4.37992 6.21992C4.37992 6.0708 4.50081 5.94992 4.64992 5.94992H5.11992C5.26904 5.94992 5.38992 6.0708 5.38992 6.21992V6.21992C5.38992 6.36904 5.26904 6.48992 5.11992 6.48992H4.64992C4.5008 6.48992 4.37992 6.36904 4.37992 6.21992V6.21992ZM4.71992 5.57992C4.71992 5.48603 4.79603 5.40992 4.88992 5.40992V5.40992C4.98381 5.40992 5.05992 5.48603 5.05992 5.57992V5.77992C5.05992 5.87381 4.98381 5.94992 4.88992 5.94992V5.94992C4.79603 5.94992 4.71992 5.87381 4.71992 5.77992V5.57992ZM5.05992 6.75992C5.05992 6.6108 5.18081 6.48992 5.32992 6.48992H5.46992C5.61904 6.48992 5.73992 6.6108 5.73992 6.75992V6.75992C5.73992 6.90904 5.61904 7.02992 5.46992 7.02992H5.32992C5.18081 7.02992 5.05992 6.90904 5.05992 6.75992V6.75992ZM4.37992 7.29992C4.37992 7.15081 4.50081 7.02992 4.64992 7.02992H5.11992C5.26904 7.02992 5.38992 7.15081 5.38992 7.29992V7.29992C5.38992 7.44904 5.26904 7.56992 5.11992 7.56992H4.64992C4.5008 7.56992 4.37992 7.44904 4.37992 7.29992V7.29992ZM4.71992 7.73992C4.71992 7.64603 4.79603 7.56992 4.88992 7.56992V7.56992C4.98381 7.56992 5.05992 7.64603 5.05992 7.73992V7.93992C5.05992 8.03381 4.98381 8.10992 4.88992 8.10992V8.10992C4.79603 8.10992 4.71992 8.03381 4.71992 7.93992V7.73992ZM6.06992 6.74992C6.06992 6.6008 6.19081 6.47992 6.33992 6.47992H6.47992C6.62904 6.47992 6.74992 6.6008 6.74992 6.74992V6.74992C6.74992 6.89904 6.62904 7.01992 6.47992 7.01992H6.33992C6.1908 7.01992 6.06992 6.89904 6.06992 6.74992V6.74992ZM6.40992 6.20992C6.40992 6.0608 6.5308 5.93992 6.67992 5.93992H7.14992C7.29904 5.93992 7.41992 6.0608 7.41992 6.20992V6.20992C7.41992 6.35904 7.29904 6.47992 7.14992 6.47992H6.67992C6.5308 6.47992 6.40992 6.35904 6.40992 6.20992V6.20992ZM7.08992 6.74992C7.08992 6.6008 7.21081 6.47992 7.35992 6.47992H7.49992C7.64904 6.47992 7.76992 6.6008 7.76992 6.74992V6.74992C7.76992 6.89904 7.64904 7.01992 7.49992 7.01992H7.35992C7.2108 7.01992 7.08992 6.89904 7.08992 6.74992V6.74992ZM6.40992 7.28992C6.40992 7.1408 6.5308 7.01992 6.67992 7.01992H7.14992C7.29904 7.01992 7.41992 7.1408 7.41992 7.28992V7.28992C7.41992 7.43904 7.29904 7.55992 7.14992 7.55992H6.67992C6.5308 7.55992 6.40992 7.43904 6.40992 7.28992V7.28992ZM6.74992 7.72992C6.74992 7.63603 6.82603 7.55992 6.91992 7.55992V7.55992C7.01381 7.55992 7.08992 7.63603 7.08992 7.72992V7.92992C7.08992 8.02381 7.01381 8.09992 6.91992 8.09992V8.09992C6.82603 8.09992 6.74992 8.02381 6.74992 7.92992V7.72992ZM6.74992 5.55992C6.74992 5.46603 6.82603 5.38992 6.91992 5.38992V5.38992C7.01381 5.38992 7.08992 5.46603 7.08992 5.55992V5.75992C7.08992 5.85381 7.01381 5.92992 6.91992 5.92992V5.92992C6.82603 5.92992 6.74992 5.85381 6.74992 5.75992V5.55992ZM0.669922 6.76992C0.669922 6.6208 0.790805 6.49992 0.939922 6.49992H1.07992C1.22904 6.49992 1.34992 6.6208 1.34992 6.76992V6.76992C1.34992 6.91904 1.22904 7.03992 1.07992 7.03992H0.939922C0.790805 7.03992 0.669922 6.91904 0.669922 6.76992V6.76992ZM1.00992 6.22992C1.00992 6.0808 1.1308 5.95992 1.27992 5.95992H1.74992C1.89904 5.95992 2.01992 6.0808 2.01992 6.22992V6.22992C2.01992 6.37904 1.89904 6.49992 1.74992 6.49992H1.27992C1.1308 6.49992 1.00992 6.37904 1.00992 6.22992V6.22992ZM1.68992 6.76992C1.68992 6.6208 1.8108 6.49992 1.95992 6.49992H2.09992C2.24904 6.49992 2.36992 6.6208 2.36992 6.76992V6.76992C2.36992 6.91904 2.24904 7.03992 2.09992 7.03992H1.95992C1.8108 7.03992 1.68992 6.91904 1.68992 6.76992V6.76992ZM1.00992 7.30992C1.00992 7.1608 1.1308 7.03992 1.27992 7.03992H1.74992C1.89904 7.03992 2.01992 7.1608 2.01992 7.30992V7.30992C2.01992 7.45904 1.89904 7.57992 1.74992 7.57992H1.27992C1.1308 7.57992 1.00992 7.45904 1.00992 7.30992V7.30992Z" fill="#B20000"/>
<path id="Vector_8" fill-rule="evenodd" clip-rule="evenodd" d="M1.34992 7.75992C1.34992 7.66603 1.42603 7.58992 1.51992 7.58992V7.58992C1.61381 7.58992 1.68992 7.66603 1.68992 7.75992V7.95992C1.68992 8.05381 1.61381 8.12992 1.51992 8.12992V8.12992C1.42603 8.12992 1.34992 8.05381 1.34992 7.95992V7.75992ZM1.34992 5.58992C1.34992 5.49603 1.42603 5.41992 1.51992 5.41992V5.41992C1.61381 5.41992 1.68992 5.49603 1.68992 5.58992V5.78992C1.68992 5.88381 1.61381 5.95992 1.51992 5.95992V5.95992C1.42603 5.95992 1.34992 5.88381 1.34992 5.78992V5.58992ZM1.00992 10.0299C1.00992 9.88081 1.1308 9.75992 1.27992 9.75992H2.08992C2.23904 9.75992 2.35992 9.88081 2.35992 10.0299V10.0299C2.35992 10.179 2.23904 10.2999 2.08992 10.2999H1.27992C1.13081 10.2999 1.00992 10.179 1.00992 10.0299V10.0299ZM2.69992 10.0299C2.69992 9.88081 2.8208 9.75992 2.96992 9.75992H3.77992C3.92904 9.75992 4.04992 9.88081 4.04992 10.0299V10.0299C4.04992 10.179 3.92904 10.2999 3.77992 10.2999H2.96992C2.82081 10.2999 2.69992 10.179 2.69992 10.0299V10.0299ZM4.38992 10.0299C4.38992 9.88081 4.51081 9.75992 4.65992 9.75992H5.46992C5.61904 9.75992 5.73992 9.88081 5.73992 10.0299V10.0299C5.73992 10.179 5.61904 10.2999 5.46992 10.2999H4.65992C4.51081 10.2999 4.38992 10.179 4.38992 10.0299V10.0299ZM6.07992 10.0299C6.07992 9.88081 6.2008 9.75992 6.34992 9.75992H7.15992C7.30904 9.75992 7.42992 9.88081 7.42992 10.0299V10.0299C7.42992 10.179 7.30904 10.2999 7.15992 10.2999H6.34992C6.20081 10.2999 6.07992 10.179 6.07992 10.0299V10.0299ZM3.37992 11.1199C3.37992 10.9708 3.50081 10.8499 3.64992 10.8499H4.79992C4.94904 10.8499 5.06992 10.9708 5.06992 11.1199V11.1199C5.06992 11.269 4.94904 11.3899 4.79992 11.3899H3.64992C3.50081 11.3899 3.37992 11.269 3.37992 11.1199V11.1199ZM1.01992 10.8499H2.43992C2.58904 10.8499 2.70992 10.9708 2.70992 11.1199V11.1199C2.70992 11.269 2.58904 11.3899 2.43992 11.3899H1.27992C1.1308 11.3899 1.00992 11.269 1.00992 11.1199V10.8599C1.00992 10.8544 1.0144 10.8499 1.01992 10.8499V10.8499ZM5.74992 11.1199C5.74992 10.9708 5.8708 10.8499 6.01992 10.8499H7.16992C7.31904 10.8499 7.43992 10.9708 7.43992 11.1199V11.1199C7.43992 11.269 7.31904 11.3899 7.16992 11.3899H6.01992C5.87081 11.3899 5.74992 11.269 5.74992 11.1199V11.1199ZM7.43992 13.1899C7.43992 13.096 7.51603 13.0199 7.60992 13.0199V13.0199C7.70381 13.0199 7.77992 13.096 7.77992 13.1899V13.3899C7.77992 13.4838 7.70381 13.5599 7.60992 13.5599V13.5599C7.51603 13.5599 7.43992 13.4838 7.43992 13.3899V13.1899ZM0.669922 13.1899C0.669922 13.096 0.746033 13.0199 0.839922 13.0199V13.0199C0.93381 13.0199 1.00992 13.096 1.00992 13.1899V13.3899C1.00992 13.4838 0.93381 13.5599 0.839922 13.5599V13.5599C0.746033 13.5599 0.669922 13.4838 0.669922 13.3899V13.1899ZM1.00992 31.2899C1.00992 31.3838 1.08603 31.4599 1.17992 31.4599V31.4599C1.27381 31.4599 1.34992 31.3838 1.34992 31.2899V31.0899C1.34992 30.996 1.27381 30.9199 1.17992 30.9199V30.9199C1.08603 30.9199 1.00992 30.996 1.00992 31.0899V31.2899ZM2.01992 31.1899C2.01992 31.339 2.1408 31.4599 2.28992 31.4599H2.75992C2.90904 31.4599 3.02992 31.339 3.02992 31.1899V31.1899C3.02992 31.0408 2.90904 30.9199 2.75992 30.9199H2.28992C2.1408 30.9199 2.01992 31.0408 2.01992 31.1899V31.1899ZM2.35992 31.8299C2.35992 31.9238 2.43603 31.9999 2.52992 31.9999V31.9999C2.62381 31.9999 2.69992 31.9238 2.69992 31.8299V31.6299C2.69992 31.536 2.62381 31.4599 2.52992 31.4599V31.4599C2.43603 31.4599 2.35992 31.536 2.35992 31.6299V31.8299ZM4.04992 31.8299C4.04992 31.9238 4.12603 31.9999 4.21992 31.9999V31.9999C4.31381 31.9999 4.38992 31.9238 4.38992 31.8299V31.6299C4.38992 31.536 4.31381 31.4599 4.21992 31.4599V31.4599C4.12603 31.4599 4.04992 31.536 4.04992 31.6299V31.8299ZM5.39992 31.1899C5.39992 31.339 5.5208 31.4599 5.66992 31.4599H6.13992C6.28904 31.4599 6.40992 31.339 6.40992 31.1899V31.1899C6.40992 31.0408 6.28904 30.9199 6.13992 30.9199H5.66992C5.5208 30.9199 5.39992 31.0408 5.39992 31.1899V31.1899ZM5.73992 31.8299C5.73992 31.9238 5.81603 31.9999 5.90992 31.9999V31.9999C6.00381 31.9999 6.07992 31.9238 6.07992 31.8299V31.6299C6.07992 31.536 6.00381 31.4599 5.90992 31.4599V31.4599C5.81603 31.4599 5.73992 31.536 5.73992 31.6299V31.8299ZM1.68992 30.6399C1.68992 30.789 1.8108 30.9099 1.95992 30.9099H2.09992C2.24904 30.9099 2.36992 30.789 2.36992 30.6399V30.6399C2.36992 30.4908 2.24904 30.3699 2.09992 30.3699H1.95992C1.8108 30.3699 1.68992 30.4908 1.68992 30.6399V30.6399ZM2.69992 30.6399C2.69992 30.789 2.8208 30.9099 2.96992 30.9099H3.10992C3.25904 30.9099 3.37992 30.789 3.37992 30.6399V30.6399C3.37992 30.4908 3.25904 30.3699 3.10992 30.3699H2.96992C2.8208 30.3699 2.69992 30.4908 2.69992 30.6399V30.6399ZM5.05992 30.6399C5.05992 30.789 5.1808 30.9099 5.32992 30.9099H5.46992C5.61904 30.9099 5.73992 30.789 5.73992 30.6399V30.6399C5.73992 30.4908 5.61904 30.3699 5.46992 30.3699H5.32992C5.1808 30.3699 5.05992 30.4908 5.05992 30.6399V30.6399ZM6.06992 30.6399C6.06992 30.789 6.1908 30.9099 6.33992 30.9099H6.47992C6.62904 30.9099 6.74992 30.789 6.74992 30.6399V30.6399C6.74992 30.4908 6.62904 30.3699 6.47992 30.3699H6.33992C6.1908 30.3699 6.06992 30.4908 6.06992 30.6399V30.6399ZM3.02992 30.0999C3.02992 30.249 3.15081 30.3699 3.29992 30.3699H3.43992C3.58904 30.3699 3.70992 30.249 3.70992 30.0999V30.0999C3.70992 29.9508 3.58904 29.8299 3.43992 29.8299H3.29992C3.15081 29.8299 3.02992 29.9508 3.02992 30.0999V30.0999ZM4.71992 30.0999C4.71992 30.249 4.84081 30.3699 4.98992 30.3699H5.12992C5.27904 30.3699 5.39992 30.249 5.39992 30.0999V30.0999C5.39992 29.9508 5.27904 29.8299 5.12992 29.8299H4.98992C4.84081 29.8299 4.71992 29.9508 4.71992 30.0999V30.0999ZM6.40992 30.0999C6.40992 30.249 6.5308 30.3699 6.67992 30.3699H6.81992C6.96904 30.3699 7.08992 30.249 7.08992 30.0999V30.0999C7.08992 29.9508 6.96904 29.8299 6.81992 29.8299H6.67992C6.5308 29.8299 6.40992 29.9508 6.40992 30.0999V30.0999ZM7.08992 31.2799C7.08992 31.3738 7.16603 31.4499 7.25992 31.4499V31.4499C7.35381 31.4499 7.42992 31.3738 7.42992 31.2799V31.0799C7.42992 30.986 7.35381 30.9099 7.25992 30.9099V30.9099C7.16603 30.9099 7.08992 30.986 7.08992 31.0799V31.2799ZM1.00992 29.5599C1.00992 29.709 1.1308 29.8299 1.27992 29.8299H1.41992C1.56904 29.8299 1.68992 29.709 1.68992 29.5599V29.5599C1.68992 29.4108 1.56904 29.2899 1.41992 29.2899H1.27992C1.1308 29.2899 1.00992 29.4108 1.00992 29.5599V29.5599ZM3.36992 29.5599C3.36992 29.709 3.4908 29.8299 3.63992 29.8299H3.77992C3.92904 29.8299 4.04992 29.709 4.04992 29.5599V29.5599C4.04992 29.4108 3.92904 29.2899 3.77992 29.2899H3.63992C3.4908 29.2899 3.36992 29.4108 3.36992 29.5599V29.5599ZM6.74992 29.5599C6.74992 29.709 6.8708 29.8299 7.01992 29.8299H7.15992C7.30904 29.8299 7.42992 29.709 7.42992 29.5599V29.5599C7.42992 29.4108 7.30904 29.2899 7.15992 29.2899H7.01992C6.8708 29.2899 6.74992 29.4108 6.74992 29.5599V29.5599ZM1.34992 27.9399C1.34992 28.089 1.4708 28.2099 1.61992 28.2099H1.75992C1.90904 28.2099 2.02992 28.089 2.02992 27.9399V27.9399C2.02992 27.7908 1.90904 27.6699 1.75992 27.6699H1.61992C1.4708 27.6699 1.34992 27.7908 1.34992 27.9399V27.9399ZM1.68992 27.3999C1.68992 27.549 1.81081 27.6699 1.95992 27.6699H2.09992C2.24904 27.6699 2.36992 27.549 2.36992 27.3999V27.3999C2.36992 27.2508 2.24904 27.1299 2.09992 27.1299H1.95992C1.81081 27.1299 1.68992 27.2508 1.68992 27.3999V27.3999ZM3.03992 27.9399C3.03992 28.089 3.1608 28.2099 3.30992 28.2099H3.44992C3.59904 28.2099 3.71992 28.089 3.71992 27.9399V27.9399C3.71992 27.7908 3.59904 27.6699 3.44992 27.6699H3.30992C3.1608 27.6699 3.03992 27.7908 3.03992 27.9399V27.9399ZM2.69992 27.3999C2.69992 27.549 2.82081 27.6699 2.96992 27.6699H3.10992C3.25904 27.6699 3.37992 27.549 3.37992 27.3999V27.3999C3.37992 27.2508 3.25904 27.1299 3.10992 27.1299H2.96992C2.82081 27.1299 2.69992 27.2508 2.69992 27.3999V27.3999ZM2.01992 26.8599C2.01992 27.009 2.1408 27.1299 2.28992 27.1299H2.75992C2.90904 27.1299 3.02992 27.009 3.02992 26.8599V26.8599C3.02992 26.7108 2.90904 26.5899 2.75992 26.5899H2.28992C2.1408 26.5899 2.01992 26.7108 2.01992 26.8599V26.8599ZM2.35992 26.4199C2.35992 26.5138 2.43603 26.5899 2.52992 26.5899V26.5899C2.62381 26.5899 2.69992 26.5138 2.69992 26.4199V26.2199C2.69992 26.126 2.62381 26.0499 2.52992 26.0499V26.0499C2.43603 26.0499 2.35992 26.126 2.35992 26.2199V26.4199ZM4.71992 27.9399C4.71992 28.089 4.8408 28.2099 4.98992 28.2099H5.12992C5.27904 28.2099 5.39992 28.089 5.39992 27.9399V27.9399C5.39992 27.7908 5.27904 27.6699 5.12992 27.6699H4.98992C4.8408 27.6699 4.71992 27.7908 4.71992 27.9399V27.9399ZM5.05992 27.3999C5.05992 27.549 5.18081 27.6699 5.32992 27.6699H5.46992C5.61904 27.6699 5.73992 27.549 5.73992 27.3999V27.3999C5.73992 27.2508 5.61904 27.1299 5.46992 27.1299H5.32992C5.18081 27.1299 5.05992 27.2508 5.05992 27.3999V27.3999ZM6.40992 27.9399C6.40992 28.089 6.5308 28.2099 6.67992 28.2099H6.81992C6.96904 28.2099 7.08992 28.089 7.08992 27.9399V27.9399C7.08992 27.7908 6.96904 27.6699 6.81992 27.6699H6.67992C6.5308 27.6699 6.40992 27.7908 6.40992 27.9399V27.9399ZM6.06992 27.3999C6.06992 27.549 6.19081 27.6699 6.33992 27.6699H6.47992C6.62904 27.6699 6.74992 27.549 6.74992 27.3999V27.3999C6.74992 27.2508 6.62904 27.1299 6.47992 27.1299H6.33992C6.19081 27.1299 6.06992 27.2508 6.06992 27.3999V27.3999ZM5.38992 26.8599C5.38992 27.009 5.5108 27.1299 5.65992 27.1299H6.12992C6.27904 27.1299 6.39992 27.009 6.39992 26.8599V26.8599C6.39992 26.7108 6.27904 26.5899 6.12992 26.5899H5.65992C5.5108 26.5899 5.38992 26.7108 5.38992 26.8599V26.8599ZM5.72992 26.4199C5.72992 26.5138 5.80603 26.5899 5.89992 26.5899V26.5899C5.99381 26.5899 6.06992 26.5138 6.06992 26.4199V26.2199C6.06992 26.126 5.99381 26.0499 5.89992 26.0499V26.0499C5.80603 26.0499 5.72992 26.126 5.72992 26.2199V26.4199ZM4.03992 26.9699C4.03992 27.0638 4.11603 27.1399 4.20992 27.1399V27.1399C4.30381 27.1399 4.37992 27.0638 4.37992 26.9699V26.7699C4.37992 26.676 4.30381 26.5999 4.20992 26.5999V26.5999C4.11603 26.5999 4.03992 26.676 4.03992 26.7699V26.9699ZM0.669922 26.9499C0.669922 27.0438 0.746033 27.1199 0.839922 27.1199V27.1199C0.93381 27.1199 1.00992 27.0438 1.00992 26.9499V26.7499C1.00992 26.656 0.93381 26.5799 0.839922 26.5799V26.5799C0.746033 26.5799 0.669922 26.656 0.669922 26.7499V26.9499ZM7.41992 26.9499C7.41992 27.0438 7.49603 27.1199 7.58992 27.1199V27.1199C7.68381 27.1199 7.75992 27.0438 7.75992 26.9499V26.7499C7.75992 26.656 7.68381 26.5799 7.58992 26.5799V26.5799C7.49603 26.5799 7.41992 26.656 7.41992 26.7499V26.9499ZM2.35992 24.2399C2.35992 24.3338 2.43603 24.4099 2.52992 24.4099V24.4099C2.62381 24.4099 2.69992 24.3338 2.69992 24.2399V24.0399C2.69992 23.946 2.62381 23.8699 2.52992 23.8699V23.8699C2.43603 23.8699 2.35992 23.946 2.35992 24.0399V24.2399ZM2.01992 23.5899C2.01992 23.739 2.14081 23.8599 2.28992 23.8599H2.75992C2.90904 23.8599 3.02992 23.739 3.02992 23.5899V23.5899C3.02992 23.4408 2.90904 23.3199 2.75992 23.3199H2.28992C2.14081 23.3199 2.01992 23.4408 2.01992 23.5899V23.5899ZM1.67992 23.0499C1.67992 23.199 1.8008 23.3199 1.94992 23.3199H3.09992C3.24904 23.3199 3.36992 23.199 3.36992 23.0499V23.0499C3.36992 22.9008 3.24904 22.7799 3.09992 22.7799H1.94992C1.80081 22.7799 1.67992 22.9008 1.67992 23.0499V23.0499ZM5.72992 24.2299C5.72992 24.3238 5.80603 24.3999 5.89992 24.3999V24.3999C5.99381 24.3999 6.06992 24.3238 6.06992 24.2299V24.0299C6.06992 23.936 5.99381 23.8599 5.89992 23.8599V23.8599C5.80603 23.8599 5.72992 23.936 5.72992 24.0299V24.2299Z" fill="#B20000"/>
<path id="Vector_9" fill-rule="evenodd" clip-rule="evenodd" d="M5.39992 23.59C5.39992 23.7391 5.52081 23.86 5.66992 23.86H6.13992C6.28904 23.86 6.40992 23.7391 6.40992 23.59V23.59C6.40992 23.4409 6.28904 23.32 6.13992 23.32H5.66992C5.52081 23.32 5.39992 23.4409 5.39992 23.59V23.59ZM5.05992 23.05C5.05992 23.1991 5.1808 23.32 5.32992 23.32H6.47992C6.62904 23.32 6.74992 23.1991 6.74992 23.05V23.05C6.74992 22.9009 6.62904 22.78 6.47992 22.78H5.32992C5.1808 22.78 5.05992 22.9009 5.05992 23.05V23.05ZM5.39992 20.335C5.39992 20.4869 5.52304 20.61 5.67492 20.61H6.81492C6.9668 20.61 7.08992 20.4869 7.08992 20.335V20.335C7.08992 20.1831 6.9668 20.06 6.81492 20.06H5.67492C5.52304 20.06 5.39992 20.1831 5.39992 20.335V20.335ZM4.71992 22.51C4.71992 22.6591 4.84081 22.78 4.98992 22.78H6.80992C6.95904 22.78 7.07992 22.6591 7.07992 22.51V22.51C7.07992 22.3609 6.95904 22.24 6.80992 22.24H4.98992C4.84081 22.24 4.71992 22.3609 4.71992 22.51V22.51ZM1.33992 22.78H3.42992C3.57904 22.78 3.69992 22.6591 3.69992 22.51V22.51C3.69992 22.3609 3.57904 22.24 3.42992 22.24H1.61992C1.47081 22.24 1.34992 22.3609 1.34992 22.51V22.77C1.34992 22.7755 1.34544 22.78 1.33992 22.78V22.78ZM1.67992 19.8C1.67992 19.9491 1.8008 20.07 1.94992 20.07H2.41992C2.56904 20.07 2.68992 19.9491 2.68992 19.8V19.8C2.68992 19.6509 2.56904 19.53 2.41992 19.53H1.94992C1.8008 19.53 1.67992 19.6509 1.67992 19.8V19.8ZM1.33992 20.61H2.75492C2.9068 20.61 3.02992 20.4869 3.02992 20.335V20.335C3.02992 20.1831 2.9068 20.06 2.75492 20.06H1.62492C1.47304 20.06 1.34992 20.1831 1.34992 20.335V20.6C1.34992 20.6055 1.34544 20.61 1.33992 20.61V20.61ZM6.06992 21.41C6.06992 21.5591 6.19081 21.68 6.33992 21.68H7.48992C7.63904 21.68 7.75992 21.5591 7.75992 21.41V21.41C7.75992 21.2609 7.63904 21.14 7.48992 21.14H6.33992C6.19081 21.14 6.06992 21.2609 6.06992 21.41V21.41ZM5.72992 19.79C5.72992 19.9391 5.8508 20.06 5.99992 20.06H6.46992C6.61904 20.06 6.73992 19.9391 6.73992 19.79V19.79C6.73992 19.6409 6.61904 19.52 6.46992 19.52H5.99992C5.8508 19.52 5.72992 19.6409 5.72992 19.79V19.79ZM0.669922 21.42C0.669922 21.5691 0.790805 21.69 0.939922 21.69H2.08992C2.23904 21.69 2.35992 21.5691 2.35992 21.42V21.42C2.35992 21.2709 2.23904 21.15 2.08992 21.15H0.939923C0.790805 21.15 0.669922 21.2709 0.669922 21.42V21.42ZM3.70992 20.34C3.70992 20.4891 3.83081 20.61 3.97992 20.61H4.44992C4.59904 20.61 4.71992 20.4891 4.71992 20.34V20.34C4.71992 20.1909 4.59904 20.07 4.44992 20.07H3.97992C3.83081 20.07 3.70992 20.1909 3.70992 20.34V20.34ZM4.04992 19.9C4.04992 19.9939 4.12603 20.07 4.21992 20.07V20.07C4.31381 20.07 4.38992 19.9939 4.38992 19.9V19.7C4.38992 19.6061 4.31381 19.53 4.21992 19.53V19.53C4.12603 19.53 4.04992 19.6061 4.04992 19.7V19.9ZM3.03992 21.42C3.03992 21.5691 3.16081 21.69 3.30992 21.69H5.12992C5.27904 21.69 5.39992 21.5691 5.39992 21.42V21.42C5.39992 21.2709 5.27904 21.15 5.12992 21.15H3.30992C3.16081 21.15 3.03992 21.2709 3.03992 21.42V21.42ZM4.38992 29.56C4.38992 29.7091 4.5108 29.83 4.65992 29.83H4.79992C4.94904 29.83 5.06992 29.7091 5.06992 29.56V29.56C5.06992 29.4109 4.94904 29.29 4.79992 29.29H4.65992C4.5108 29.29 4.38992 29.4109 4.38992 29.56V29.56ZM3.70992 29.025C3.70992 29.1713 3.82857 29.29 3.97492 29.29H4.45492C4.60128 29.29 4.71992 29.1713 4.71992 29.025V29.025C4.71992 28.8786 4.60128 28.76 4.45492 28.76H3.97492C3.82857 28.76 3.70992 28.8786 3.70992 29.025V29.025ZM3.36992 28.48C3.36992 28.6291 3.49081 28.75 3.63992 28.75H3.77992C3.92904 28.75 4.04992 28.6291 4.04992 28.48V28.48C4.04992 28.3309 3.92904 28.21 3.77992 28.21H3.63992C3.49081 28.21 3.36992 28.3309 3.36992 28.48V28.48ZM4.37992 28.48C4.37992 28.6291 4.50081 28.75 4.64992 28.75H4.78992C4.93904 28.75 5.05992 28.6291 5.05992 28.48V28.48C5.05992 28.3309 4.93904 28.21 4.78992 28.21H4.64992C4.50081 28.21 4.37992 28.3309 4.37992 28.48V28.48ZM0.669922 29.02C0.669922 29.1691 0.790805 29.29 0.939922 29.29H1.07992C1.22904 29.29 1.34992 29.1691 1.34992 29.02V29.02C1.34992 28.8709 1.22904 28.75 1.07992 28.75H0.939922C0.790805 28.75 0.669922 28.8709 0.669922 29.02V29.02ZM1.00992 28.48C1.00992 28.6291 1.13081 28.75 1.27992 28.75H1.41992C1.56904 28.75 1.68992 28.6291 1.68992 28.48V28.48C1.68992 28.3309 1.56904 28.21 1.41992 28.21H1.27992C1.13081 28.21 1.00992 28.3309 1.00992 28.48V28.48ZM7.08992 29.02C7.08992 29.1691 7.21081 29.29 7.35992 29.29H7.49992C7.64904 29.29 7.76992 29.1691 7.76992 29.02V29.02C7.76992 28.8709 7.64904 28.75 7.49992 28.75H7.35992C7.21081 28.75 7.08992 28.8709 7.08992 29.02V29.02ZM6.74992 28.48C6.74992 28.6291 6.87081 28.75 7.01992 28.75H7.15992C7.30904 28.75 7.42992 28.6291 7.42992 28.48V28.48C7.42992 28.3309 7.30904 28.21 7.15992 28.21H7.01992C6.87081 28.21 6.74992 28.3309 6.74992 28.48V28.48ZM0.669922 23.71C0.669922 23.8039 0.746033 23.88 0.839922 23.88V23.88C0.93381 23.88 1.00992 23.8039 1.00992 23.71V23.51C1.00992 23.4161 0.93381 23.34 0.839922 23.34V23.34C0.746033 23.34 0.669922 23.4161 0.669922 23.51V23.71ZM7.41992 23.71C7.41992 23.8039 7.49603 23.88 7.58992 23.88V23.88C7.68381 23.88 7.75992 23.8039 7.75992 23.71V23.51C7.75992 23.4161 7.68381 23.34 7.58992 23.34V23.34C7.49603 23.34 7.41992 23.4161 7.41992 23.51V23.71ZM3.36992 18.72C3.36992 18.8691 3.4908 18.99 3.63992 18.99H3.77992C3.92904 18.99 4.04992 18.8691 4.04992 18.72V18.72C4.04992 18.5709 3.92904 18.45 3.77992 18.45H3.63992C3.4908 18.45 3.36992 18.5709 3.36992 18.72V18.72ZM4.37992 18.72C4.37992 18.8691 4.5008 18.99 4.64992 18.99H4.78992C4.93904 18.99 5.05992 18.8691 5.05992 18.72V18.72C5.05992 18.5709 4.93904 18.45 4.78992 18.45H4.64992C4.5008 18.45 4.37992 18.5709 4.37992 18.72V18.72ZM3.02992 18.18C3.02992 18.3291 3.15081 18.45 3.29992 18.45H3.43992C3.58904 18.45 3.70992 18.3291 3.70992 18.18V18.18C3.70992 18.0309 3.58904 17.91 3.43992 17.91H3.29992C3.15081 17.91 3.02992 18.0309 3.02992 18.18V18.18ZM4.71992 18.18C4.71992 18.3291 4.84081 18.45 4.98992 18.45H5.12992C5.27904 18.45 5.39992 18.3291 5.39992 18.18V18.18C5.39992 18.0309 5.27904 17.91 5.12992 17.91H4.98992C4.84081 17.91 4.71992 18.0309 4.71992 18.18V18.18ZM2.68992 17.64C2.68992 17.7891 2.8108 17.91 2.95992 17.91H3.09992C3.24904 17.91 3.36992 17.7891 3.36992 17.64V17.64C3.36992 17.4909 3.24904 17.37 3.09992 17.37H2.95992C2.8108 17.37 2.68992 17.4909 2.68992 17.64V17.64ZM5.04992 17.64C5.04992 17.7891 5.1708 17.91 5.31992 17.91H5.45992C5.60904 17.91 5.72992 17.7891 5.72992 17.64V17.64C5.72992 17.4909 5.60904 17.37 5.45992 17.37H5.31992C5.1708 17.37 5.04992 17.4909 5.04992 17.64V17.64ZM2.34992 17.09C2.34992 17.2391 2.47081 17.36 2.61992 17.36H2.75992C2.90904 17.36 3.02992 17.2391 3.02992 17.09V17.09C3.02992 16.9409 2.90904 16.82 2.75992 16.82H2.61992C2.47081 16.82 2.34992 16.9409 2.34992 17.09V17.09ZM5.38992 17.09C5.38992 17.2391 5.5108 17.36 5.65992 17.36H5.79992C5.94904 17.36 6.06992 17.2391 6.06992 17.09V17.09C6.06992 16.9409 5.94904 16.82 5.79992 16.82H5.65992C5.5108 16.82 5.38992 16.9409 5.38992 17.09V17.09ZM1.67992 16.55C1.67992 16.6991 1.8008 16.82 1.94992 16.82H2.41992C2.56904 16.82 2.68992 16.6991 2.68992 16.55V16.55C2.68992 16.4009 2.56904 16.28 2.41992 16.28H1.94992C1.8008 16.28 1.67992 16.4009 1.67992 16.55V16.55ZM5.72992 16.55C5.72992 16.6991 5.8508 16.82 5.99992 16.82H6.46992C6.61904 16.82 6.73992 16.6991 6.73992 16.55V16.55C6.73992 16.4009 6.61904 16.28 6.46992 16.28H5.99992C5.8508 16.28 5.72992 16.4009 5.72992 16.55V16.55ZM6.40992 17.09C6.40992 17.2391 6.5308 17.36 6.67992 17.36H6.81992C6.96904 17.36 7.08992 17.2391 7.08992 17.09V17.09C7.08992 16.9409 6.96904 16.82 6.81992 16.82H6.67992C6.5308 16.82 6.40992 16.9409 6.40992 17.09V17.09ZM6.74992 17.63C6.74992 17.7791 6.8708 17.9 7.01992 17.9H7.15992C7.30904 17.9 7.42992 17.7791 7.42992 17.63V17.63C7.42992 17.4809 7.30904 17.36 7.15992 17.36H7.01992C6.8708 17.36 6.74992 17.4809 6.74992 17.63V17.63ZM7.08992 18.17C7.08992 18.3191 7.21081 18.44 7.35992 18.44H7.49992C7.64904 18.44 7.76992 18.3191 7.76992 18.17V18.17C7.76992 18.0209 7.64904 17.9 7.49992 17.9H7.35992C7.21081 17.9 7.08992 18.0209 7.08992 18.17V18.17ZM1.34992 17.08C1.34992 17.2291 1.47081 17.35 1.61992 17.35H1.75992C1.90904 17.35 2.02992 17.2291 2.02992 17.08V17.08C2.02992 16.9309 1.90904 16.81 1.75992 16.81H1.61992C1.47081 16.81 1.34992 16.9309 1.34992 17.08V17.08ZM1.00992 17.62C1.00992 17.7691 1.1308 17.89 1.27992 17.89H1.41992C1.56904 17.89 1.68992 17.7691 1.68992 17.62V17.62C1.68992 17.4709 1.56904 17.35 1.41992 17.35H1.27992C1.1308 17.35 1.00992 17.4709 1.00992 17.62V17.62ZM0.669922 18.17C0.669922 18.3191 0.790805 18.44 0.939922 18.44H1.07992C1.22904 18.44 1.34992 18.3191 1.34992 18.17V18.17C1.34992 18.0209 1.22904 17.9 1.07992 17.9H0.939922C0.790805 17.9 0.669922 18.0209 0.669922 18.17V18.17ZM2.01992 16.1C2.01992 16.1939 2.09603 16.27 2.18992 16.27V16.27C2.28381 16.27 2.35992 16.1939 2.35992 16.1V15.9C2.35992 15.8061 2.28381 15.73 2.18992 15.73V15.73C2.09603 15.73 2.01992 15.8061 2.01992 15.9V16.1ZM4.04992 17.72C4.04992 17.8139 4.12603 17.89 4.21992 17.89V17.89C4.31381 17.89 4.38992 17.8139 4.38992 17.72V17.52C4.38992 17.4261 4.31381 17.35 4.21992 17.35V17.35C4.12603 17.35 4.04992 17.4261 4.04992 17.52V17.72ZM4.04992 23.69C4.04992 23.7839 4.12603 23.86 4.21992 23.86V23.86C4.31381 23.86 4.38992 23.7839 4.38992 23.69V23.49C4.38992 23.3961 4.31381 23.32 4.21992 23.32V23.32C4.12603 23.32 4.04992 23.3961 4.04992 23.49V23.69ZM2.35992 29.11C2.35992 29.2039 2.43603 29.28 2.52992 29.28V29.28C2.62381 29.28 2.69992 29.2039 2.69992 29.11V28.92C2.69992 28.8261 2.62381 28.75 2.52992 28.75V28.75C2.43603 28.75 2.35992 28.8261 2.35992 28.92V29.11ZM5.73992 29.11C5.73992 29.2039 5.81603 29.28 5.90992 29.28V29.28C6.00381 29.28 6.07992 29.2039 6.07992 29.11V28.92C6.07992 28.8261 6.00381 28.75 5.90992 28.75V28.75C5.81603 28.75 5.73992 28.8261 5.73992 28.92V29.11ZM3.70992 25.23C3.70992 25.3791 3.83081 25.5 3.97992 25.5H4.44992C4.59904 25.5 4.71992 25.3791 4.71992 25.23V25.23C4.71992 25.0809 4.59904 24.96 4.44992 24.96H3.97992C3.83081 24.96 3.70992 25.0809 3.70992 25.23V25.23ZM3.02992 24.69C3.02992 24.8391 3.1508 24.96 3.29992 24.96H3.76992C3.91904 24.96 4.03992 24.8391 4.03992 24.69V24.69C4.03992 24.5409 3.91904 24.42 3.76992 24.42H3.29992C3.1508 24.42 3.02992 24.5409 3.02992 24.69V24.69ZM3.36992 24.25C3.36992 24.3439 3.44603 24.42 3.53992 24.42V24.42C3.63381 24.42 3.70992 24.3439 3.70992 24.25V24.05C3.70992 23.9561 3.63381 23.88 3.53992 23.88V23.88C3.44603 23.88 3.36992 23.9561 3.36992 24.05V24.25ZM2.68992 25.24C2.68992 25.3891 2.81081 25.51 2.95992 25.51H3.09992C3.24904 25.51 3.36992 25.3891 3.36992 25.24V25.24C3.36992 25.0909 3.24904 24.97 3.09992 24.97H2.95992C2.81081 24.97 2.68992 25.0909 2.68992 25.24V25.24ZM3.02992 25.775C3.02992 25.9213 3.14857 26.04 3.29492 26.04H3.77492C3.92128 26.04 4.03992 25.9213 4.03992 25.775V25.775C4.03992 25.6286 3.92128 25.51 3.77492 25.51H3.29492C3.14857 25.51 3.02992 25.6286 3.02992 25.775V25.775ZM3.36992 26.41C3.36992 26.5039 3.44603 26.58 3.53992 26.58V26.58C3.63381 26.58 3.70992 26.5039 3.70992 26.41V26.21C3.70992 26.1161 3.63381 26.04 3.53992 26.04V26.04C3.44603 26.04 3.36992 26.1161 3.36992 26.21V26.41ZM4.37992 25.775C4.37992 25.9213 4.49857 26.04 4.64492 26.04H5.12492C5.27128 26.04 5.38992 25.9213 5.38992 25.775V25.775C5.38992 25.6286 5.27128 25.51 5.12492 25.51H4.64492C4.49857 25.51 4.37992 25.6286 4.37992 25.775V25.775ZM4.71992 26.41C4.71992 26.5039 4.79603 26.58 4.88992 26.58V26.58C4.98381 26.58 5.05992 26.5039 5.05992 26.41V26.21C5.05992 26.1161 4.98381 26.04 4.88992 26.04V26.04C4.79603 26.04 4.71992 26.1161 4.71992 26.21V26.41ZM5.05992 25.23C5.05992 25.3791 5.18081 25.5 5.32992 25.5H5.46992C5.61904 25.5 5.73992 25.3791 5.73992 25.23V25.23C5.73992 25.0809 5.61904 24.96 5.46992 24.96H5.32992C5.18081 24.96 5.05992 25.0809 5.05992 25.23V25.23ZM4.37992 24.69C4.37992 24.8391 4.5008 24.96 4.64992 24.96H5.11992C5.26904 24.96 5.38992 24.8391 5.38992 24.69V24.69C5.38992 24.5409 5.26904 24.42 5.11992 24.42H4.64992C4.5008 24.42 4.37992 24.5409 4.37992 24.69V24.69ZM4.71992 24.25C4.71992 24.3439 4.79603 24.42 4.88992 24.42V24.42C4.98381 24.42 5.05992 24.3439 5.05992 24.25V24.05C5.05992 23.9561 4.98381 23.88 4.88992 23.88V23.88C4.79603 23.88 4.71992 23.9561 4.71992 24.05V24.25ZM6.06992 25.24C6.06992 25.3891 6.19081 25.51 6.33992 25.51H6.47992C6.62904 25.51 6.74992 25.3891 6.74992 25.24V25.24C6.74992 25.0909 6.62904 24.97 6.47992 24.97H6.33992C6.19081 24.97 6.06992 25.0909 6.06992 25.24V25.24ZM6.40992 25.775C6.40992 25.9213 6.52857 26.04 6.67492 26.04H7.15492C7.30128 26.04 7.41992 25.9213 7.41992 25.775V25.775C7.41992 25.6286 7.30128 25.51 7.15492 25.51H6.67492C6.52857 25.51 6.40992 25.6286 6.40992 25.775V25.775ZM7.08992 25.23C7.08992 25.3791 7.21081 25.5 7.35992 25.5H7.49992C7.64904 25.5 7.76992 25.3791 7.76992 25.23V25.23C7.76992 25.0809 7.64904 24.96 7.49992 24.96H7.35992C7.21081 24.96 7.08992 25.0809 7.08992 25.23V25.23ZM6.40992 24.69C6.40992 24.8391 6.5308 24.96 6.67992 24.96H7.14992C7.29904 24.96 7.41992 24.8391 7.41992 24.69V24.69C7.41992 24.5409 7.29904 24.42 7.14992 24.42H6.67992C6.5308 24.42 6.40992 24.5409 6.40992 24.69V24.69ZM6.74992 24.25C6.74992 24.3439 6.82603 24.42 6.91992 24.42V24.42C7.01381 24.42 7.08992 24.3439 7.08992 24.25V24.05C7.08992 23.9561 7.01381 23.88 6.91992 23.88V23.88C6.82603 23.88 6.74992 23.9561 6.74992 24.05V24.25ZM6.74992 26.42C6.74992 26.5139 6.82603 26.59 6.91992 26.59V26.59C7.01381 26.59 7.08992 26.5139 7.08992 26.42V26.22C7.08992 26.1261 7.01381 26.05 6.91992 26.05V26.05C6.82603 26.05 6.74992 26.1261 6.74992 26.22V26.42ZM0.669922 25.23C0.669922 25.3791 0.790805 25.5 0.939922 25.5H1.07992C1.22904 25.5 1.34992 25.3791 1.34992 25.23V25.23C1.34992 25.0809 1.22904 24.96 1.07992 24.96H0.939922C0.790805 24.96 0.669922 25.0809 0.669922 25.23V25.23ZM1.00992 25.765C1.00992 25.9113 1.12857 26.03 1.27492 26.03H1.75492C1.90128 26.03 2.01992 25.9113 2.01992 25.765V25.765C2.01992 25.6186 1.90128 25.5 1.75492 25.5H1.27492C1.12857 25.5 1.00992 25.6186 1.00992 25.765V25.765Z" fill="#B20000"/>
<path id="Vector_10" fill-rule="evenodd" clip-rule="evenodd" d="M1.67992 25.2199C1.67992 25.3691 1.8008 25.4899 1.94992 25.4899H2.08992C2.23904 25.4899 2.35992 25.3691 2.35992 25.2199V25.2199C2.35992 25.0708 2.23904 24.9499 2.08992 24.9499H1.94992C1.8008 24.9499 1.67992 25.0708 1.67992 25.2199V25.2199ZM0.999922 24.9499H1.73992C1.88904 24.9499 2.00992 24.8291 2.00992 24.6799V24.6799C2.00992 24.5308 1.88904 24.4099 1.73992 24.4099H1.27992C1.13081 24.4099 1.00992 24.5308 1.00992 24.6799V24.9399C1.00992 24.9455 1.00544 24.9499 0.999922 24.9499V24.9499ZM1.33992 24.2399C1.33992 24.3338 1.41603 24.4099 1.50992 24.4099V24.4099C1.60381 24.4099 1.67992 24.3338 1.67992 24.2399V24.0399C1.67992 23.9461 1.60381 23.8699 1.50992 23.8699V23.8699C1.41603 23.8699 1.33992 23.9461 1.33992 24.0399V24.2399ZM1.33992 26.4099C1.33992 26.5038 1.41603 26.5799 1.50992 26.5799V26.5799C1.60381 26.5799 1.67992 26.5038 1.67992 26.4099V26.2099C1.67992 26.1161 1.60381 26.0399 1.50992 26.0399V26.0399C1.41603 26.0399 1.33992 26.1161 1.33992 26.2099V26.4099ZM0.999922 22.2399H2.07992C2.22904 22.2399 2.34992 22.1191 2.34992 21.9699V21.9699C2.34992 21.8208 2.22904 21.6999 2.07992 21.6999H1.27992C1.1308 21.6999 1.00992 21.8208 1.00992 21.9699V22.2299C1.00992 22.2355 1.00544 22.2399 0.999922 22.2399V22.2399ZM2.68992 21.9699C2.68992 22.1191 2.8108 22.2399 2.95992 22.2399H3.76992C3.91904 22.2399 4.03992 22.1191 4.03992 21.9699V21.9699C4.03992 21.8208 3.91904 21.6999 3.76992 21.6999H2.95992C2.81081 21.6999 2.68992 21.8208 2.68992 21.9699V21.9699ZM4.37992 21.9699C4.37992 22.1191 4.5008 22.2399 4.64992 22.2399H5.45992C5.60904 22.2399 5.72992 22.1191 5.72992 21.9699V21.9699C5.72992 21.8208 5.60904 21.6999 5.45992 21.6999H4.64992C4.50081 21.6999 4.37992 21.8208 4.37992 21.9699V21.9699ZM6.06992 21.9699C6.06992 22.1191 6.1908 22.2399 6.33992 22.2399H7.14992C7.29904 22.2399 7.41992 22.1191 7.41992 21.9699V21.9699C7.41992 21.8208 7.29904 21.6999 7.14992 21.6999H6.33992C6.19081 21.6999 6.06992 21.8208 6.06992 21.9699V21.9699ZM3.36992 20.8799C3.36992 21.0291 3.4908 21.1499 3.63992 21.1499H4.78992C4.93904 21.1499 5.05992 21.0291 5.05992 20.8799V20.8799C5.05992 20.7308 4.93904 20.6099 4.78992 20.6099H3.63992C3.49081 20.6099 3.36992 20.7308 3.36992 20.8799V20.8799ZM1.00992 20.8799C1.00992 21.0291 1.1308 21.1499 1.27992 21.1499H2.42992C2.57904 21.1499 2.69992 21.0291 2.69992 20.8799V20.8799C2.69992 20.7308 2.57904 20.6099 2.42992 20.6099H1.27992C1.13081 20.6099 1.00992 20.7308 1.00992 20.8799V20.8799ZM5.73992 20.8799C5.73992 21.0291 5.8608 21.1499 6.00992 21.1499H7.15992C7.30904 21.1499 7.42992 21.0291 7.42992 20.8799V20.8799C7.42992 20.7308 7.30904 20.6099 7.15992 20.6099H6.00992C5.86081 20.6099 5.73992 20.7308 5.73992 20.8799V20.8799ZM7.42992 18.8199C7.42992 18.9138 7.50603 18.9899 7.59992 18.9899V18.9899C7.69381 18.9899 7.76992 18.9138 7.76992 18.8199V18.6099C7.76992 18.5161 7.69381 18.4399 7.59992 18.4399V18.4399C7.50603 18.4399 7.42992 18.5161 7.42992 18.6099V18.8199ZM0.669922 18.8199C0.669922 18.9138 0.746033 18.9899 0.839922 18.9899V18.9899C0.93381 18.9899 1.00992 18.9138 1.00992 18.8199V18.6099C1.00992 18.5161 0.93381 18.4399 0.839922 18.4399V18.4399C0.746033 18.4399 0.669922 18.5161 0.669922 18.6099V18.8199ZM3.70992 16.4399C3.70992 16.3461 3.78603 16.2699 3.87992 16.2699V16.2699C3.97381 16.2699 4.04992 16.3461 4.04992 16.4399V16.6399C4.04992 16.7338 3.97381 16.8099 3.87992 16.8099V16.8099C3.78603 16.8099 3.70992 16.7338 3.70992 16.6399V16.4399ZM4.38992 16.4399C4.38992 16.3461 4.46603 16.2699 4.55992 16.2699V16.2699C4.65381 16.2699 4.72992 16.3461 4.72992 16.4399V16.6399C4.72992 16.7338 4.65381 16.8099 4.55992 16.8099V16.8099C4.46603 16.8099 4.38992 16.7338 4.38992 16.6399V16.4399ZM4.38992 15.3599C4.38992 15.2661 4.46603 15.1899 4.55992 15.1899V15.1899C4.65381 15.1899 4.72992 15.2661 4.72992 15.3599V15.5599C4.72992 15.6538 4.65381 15.7299 4.55992 15.7299V15.7299C4.46603 15.7299 4.38992 15.6538 4.38992 15.5599V15.3599ZM3.70992 15.3599C3.70992 15.2661 3.78603 15.1899 3.87992 15.1899V15.1899C3.97381 15.1899 4.04992 15.2661 4.04992 15.3599V15.5599C4.04992 15.6538 3.97381 15.7299 3.87992 15.7299V15.7299C3.78603 15.7299 3.70992 15.6538 3.70992 15.5599V15.3599ZM1.34992 30.0999C1.34992 29.9508 1.47081 29.8299 1.61992 29.8299H1.75992C1.90904 29.8299 2.02992 29.9508 2.02992 30.0999V30.0999C2.02992 30.2491 1.90904 30.3699 1.75992 30.3699H1.61992C1.47081 30.3699 1.34992 30.2491 1.34992 30.0999V30.0999ZM6.07992 19.3499C6.07992 19.4438 6.15603 19.5199 6.24992 19.5199V19.5199C6.34381 19.5199 6.41992 19.4438 6.41992 19.3499V19.1499C6.41992 19.0561 6.34381 18.9799 6.24992 18.9799V18.9799C6.15603 18.9799 6.07992 19.0561 6.07992 19.1499V19.3499ZM2.02992 19.3499C2.02992 19.4438 2.10603 19.5199 2.19992 19.5199V19.5199C2.29381 19.5199 2.36992 19.4438 2.36992 19.3499V19.1499C2.36992 19.0561 2.29381 18.9799 2.19992 18.9799V18.9799C2.10603 18.9799 2.02992 19.0561 2.02992 19.1499V19.3499ZM3.71992 19.2499C3.71992 19.1008 3.84081 18.9799 3.98992 18.9799H4.45992C4.60904 18.9799 4.72992 19.1008 4.72992 19.2499V19.2499C4.72992 19.3991 4.60904 19.5199 4.45992 19.5199H3.98992C3.84081 19.5199 3.71992 19.3991 3.71992 19.2499V19.2499Z" fill="#B20000"/>
</g>
</g>
</g>
</g>
</g>
</svg>
