<svg width="43" height="32" viewBox="0 0 43 32" fill="none" xmlns="http://www.w3.org/2000/svg">
<g clip-path="url(#clip0_301_887)">
<path d="M0.985352 0H42.9853V32H0.985352V0Z" fill="#012169"/>
<path d="M5.90723 0L21.9197 12.0667L37.8666 0H42.9853V4.13333L27.2354 16.0667L42.9853 27.9333V32H37.7353L21.9854 20.0667L6.30098 32H0.985352V28L16.6697 16.1333L0.985352 4.26667V0H5.90723Z" fill="white"/>
<path d="M28.8104 18.7333L42.9853 29.3333V32L25.201 18.7333H28.8104ZM16.7354 20.0667L17.1291 22.4L4.5291 32H0.985352L16.7354 20.0667ZM42.9853 0V0.2L26.6447 12.7333L26.776 9.8L39.7041 0H42.9853ZM0.985352 0L16.6697 11.7333H12.7322L0.985352 2.8V0Z" fill="#C8102E"/>
<path d="M16.801 0V32H27.301V0H16.801ZM0.985352 10.6667V21.3333H42.9853V10.6667H0.985352Z" fill="white"/>
<path d="M0.985352 12.8667V19.2667H42.9853V12.8667H0.985352ZM18.901 0V32H25.201V0H18.901Z" fill="#C8102E"/>
</g>
<defs>
<clipPath id="clip0_301_887">
<rect x="0.985352" width="42" height="32" rx="8" fill="white"/>
</clipPath>
</defs>
</svg>
