<svg width="53" height="40" viewBox="0 0 53 40" fill="none" xmlns="http://www.w3.org/2000/svg">
<rect width="53" height="40" rx="8" fill="#FF0000"/>
<path d="M26.285 27.64C30.3467 27.64 33.6393 24.3474 33.6393 20.2857C33.6393 16.224 30.3467 12.9314 26.285 12.9314C22.2233 12.9314 18.9307 16.224 18.9307 20.2857C18.9307 24.3474 22.2233 27.64 26.285 27.64Z" fill="#FFF212"/>
<path fill-rule="evenodd" clip-rule="evenodd" d="M26.286 13.7527C29.8941 13.7527 32.819 16.6776 32.819 20.2857C32.819 23.8938 29.8941 26.8188 26.286 26.8188C22.6779 26.8188 19.7529 23.8938 19.7529 20.2857C19.7529 16.6776 22.6779 13.7527 26.286 13.7527ZM20.831 22.2465C21.499 20.8495 22.4221 19.615 23.4895 18.5766C23.6564 18.6861 23.8216 18.7998 23.9851 18.9175C22.8642 19.989 21.8872 21.3149 21.1503 22.9395C21.0293 22.717 20.9228 22.4854 20.8311 22.2465H20.831ZM26.7469 18.8745C26.8983 19.0015 27.0477 19.1327 27.1947 19.268C27.3515 19.1395 27.5104 19.0152 27.6712 18.8953C27.5246 18.7625 27.3755 18.6334 27.2243 18.508C27.0632 18.6262 26.9039 18.7484 26.7469 18.8745ZM25.7976 18.15C25.9623 18.2644 26.1252 18.3828 26.286 18.5057C26.4468 18.3828 26.6097 18.2643 26.7744 18.15C26.6135 18.0272 26.4506 17.9084 26.286 17.7937C26.1214 17.9084 25.9585 18.0272 25.7976 18.15ZM25.8414 19.6675C25.9921 19.8035 26.1403 19.9439 26.286 20.0888C26.4316 19.9439 26.5799 19.8035 26.7306 19.6675C26.5849 19.5283 26.4366 19.3926 26.286 19.2608C26.1353 19.3926 25.9871 19.5283 25.8414 19.6675ZM24.9007 18.8953C25.0616 19.0153 25.2206 19.1395 25.3773 19.2681C25.5243 19.1327 25.6737 19.0015 25.8252 18.8745C25.668 18.7485 25.5087 18.6262 25.3476 18.508C25.1965 18.6335 25.0474 18.7625 24.9007 18.8953H24.9007ZM27.8232 17.4904C27.6615 17.3669 27.4977 17.2474 27.3322 17.1322C27.144 17.2396 26.957 17.3524 26.7717 17.4703C26.9409 17.5824 27.1082 17.6987 27.2737 17.8196C27.4551 17.7051 27.6383 17.5954 27.8232 17.4905L27.8232 17.4904ZM28.688 18.2074C28.5427 18.0767 28.3953 17.9494 28.2457 17.8258C28.0691 17.9328 27.8938 18.0444 27.7202 18.1604C27.8732 18.2824 28.0241 18.4086 28.1729 18.5388C28.3428 18.4239 28.5146 18.3136 28.688 18.2074H28.688ZM25.6974 16.8266C25.8919 16.7023 26.0882 16.5834 26.286 16.4705C26.4839 16.5834 26.6802 16.7023 26.8747 16.8266C26.6767 16.9335 26.4804 17.0456 26.286 17.163C26.0917 17.0456 25.8953 16.9335 25.6974 16.8266ZM24.7489 17.4904C24.9106 17.3669 25.0743 17.2474 25.2398 17.1322C25.4281 17.2396 25.615 17.3524 25.8003 17.4703C25.6311 17.5824 25.4638 17.6987 25.2984 17.8196C25.1169 17.7051 24.9337 17.5954 24.7489 17.4905L24.7489 17.4904ZM23.884 18.2074C24.0293 18.0767 24.1767 17.9494 24.3263 17.8258C24.5029 17.9328 24.6783 18.0444 24.8519 18.1604C24.6989 18.2824 24.5479 18.4086 24.3992 18.5388C24.2292 18.4239 24.0574 18.3136 23.884 18.2074ZM21.1585 17.3537C21.7628 17.5959 22.3654 17.8932 22.9536 18.2419C22.048 19.105 21.2359 20.1338 20.5677 21.3515C20.487 20.965 20.4446 20.5645 20.4446 20.1541C20.4446 19.1394 20.7034 18.185 21.1585 17.3537H21.1585ZM21.6551 16.5938C22.3673 16.824 23.0841 17.1332 23.7855 17.5151C23.6345 17.6361 23.4855 17.761 23.3386 17.89C22.6982 17.5363 22.0402 17.2373 21.3766 16.9878C21.464 16.8524 21.557 16.7211 21.6551 16.5938V16.5938ZM22.2779 15.905C23.0831 16.1161 23.9016 16.4317 24.7036 16.8422C24.5346 16.9555 24.3671 17.0728 24.2018 17.1948C23.4597 16.8147 22.6975 16.5055 21.9335 16.2586C22.0434 16.136 22.1582 16.018 22.2779 15.905L22.2779 15.905ZM23.1863 15.2024C23.2034 15.2087 23.2214 15.215 23.2405 15.2214C23.262 15.2269 23.2833 15.2324 23.3047 15.2379C24.1247 15.4513 24.9587 15.7731 25.7753 16.1934C25.5679 16.3065 25.3623 16.4256 25.1589 16.5503C24.3687 16.1654 23.5586 15.8584 22.7497 15.62C22.7427 15.618 22.6977 15.6024 22.6469 15.5848C22.8191 15.4476 22.9991 15.3198 23.1863 15.2024ZM28.8878 14.923C28.8564 14.933 28.8334 14.9406 28.8266 14.9433C27.9734 15.192 27.1182 15.5164 26.286 15.9281C25.4697 15.5242 24.6311 15.2043 23.794 14.9576C23.7778 14.9528 23.7616 14.9481 23.7454 14.9434C23.7226 14.9376 23.7017 14.931 23.6824 14.9239C24.4664 14.5329 25.3504 14.3126 26.286 14.3126C27.221 14.3126 28.1044 14.5324 28.8878 14.9231L28.8878 14.923ZM29.9307 15.5892C29.909 15.5958 29.8888 15.6015 29.8719 15.6056C29.0466 15.846 28.2195 16.1576 27.4131 16.5503C27.2097 16.4256 27.0041 16.3065 26.7967 16.1934C27.6346 15.7621 28.4909 15.4345 29.3315 15.2214C29.3522 15.2182 29.373 15.2132 29.3934 15.2071C29.5799 15.3245 29.7592 15.4521 29.9307 15.5892ZM30.6385 16.2587C29.8745 16.5055 29.1125 16.8147 28.3703 17.1948C28.205 17.0728 28.0376 16.9555 27.8684 16.8423C28.6705 16.4317 29.489 16.1162 30.2942 15.9051C30.4139 16.018 30.5288 16.136 30.6386 16.2587L30.6385 16.2587ZM31.1955 16.9878C30.5318 17.2373 29.8739 17.5363 29.2335 17.8901C29.0866 17.761 28.9375 17.6361 28.7866 17.5151C29.4879 17.1333 30.2048 16.8241 30.917 16.5938C31.015 16.7212 31.1081 16.8525 31.1955 16.9879V16.9878ZM32.0043 21.3515C31.3362 20.1338 30.524 19.105 29.6184 18.2419C30.2066 17.8932 30.8092 17.5959 31.4134 17.3537C31.8685 18.1852 32.1273 19.1393 32.1273 20.1541C32.1273 20.5645 32.0849 20.9651 32.0043 21.3515H32.0043ZM31.4217 22.9395C30.6848 21.3149 29.7078 19.989 28.587 18.9175C28.7505 18.7998 28.9157 18.6861 29.0825 18.5766C30.15 19.615 31.0732 20.8494 31.7411 22.2465C31.6494 22.4854 31.5428 22.717 31.4218 22.9395H31.4217ZM30.5119 24.187C29.8003 22.3528 28.7976 20.8683 27.6214 19.6796C27.7758 19.5463 27.9325 19.417 28.0913 19.2916C29.3086 20.4887 30.3339 21.9426 31.0006 23.6028C30.8503 23.8081 30.6872 24.0033 30.5119 24.187V24.187ZM29.4092 25.091L29.3315 24.8823C28.6863 23.1399 27.7817 21.7063 26.7148 20.5364C26.8602 20.3859 27.0087 20.2391 27.16 20.0963C28.3817 21.3714 29.3855 22.915 29.9894 24.6716C29.8051 24.8228 29.6113 24.9629 29.4092 25.091V25.091ZM23.7574 25.4213L23.8321 25.1879C24.3703 23.6072 25.2323 22.1983 26.286 21.0012C27.3398 22.1983 28.2019 23.6072 28.74 25.1879L28.8165 25.4205C28.0509 25.789 27.1926 25.9955 26.2861 25.9955C25.3802 25.9955 24.5224 25.7893 23.7574 25.4213V25.4213ZM22.5827 24.6715C23.1866 22.915 24.1903 21.3714 25.412 20.0963C25.5633 20.2391 25.7118 20.3859 25.8573 20.5364C24.7904 21.7063 23.8857 23.1399 23.2405 24.8823L23.1631 25.0912C22.9609 24.9629 22.7671 24.8228 22.5828 24.6715L22.5827 24.6715ZM21.5713 23.6028C22.2382 21.9426 23.2634 20.4887 24.4807 19.2916C24.6395 19.417 24.7963 19.5463 24.9506 19.6796C23.7745 20.8684 22.7718 22.3528 22.0601 24.187C21.8849 24.0033 21.7217 23.808 21.5713 23.6028L21.5713 23.6028Z" fill="#FF0000"/>
<path fill-rule="evenodd" clip-rule="evenodd" d="M26.7741 12.3445L26.3241 8.03461C26.3223 8.01524 26.3059 8 26.2858 8C26.2653 8 26.2487 8.0159 26.2474 8.03596L25.7986 12.3286C25.7975 12.343 25.7969 12.3567 25.7969 12.3705C25.7969 12.6405 26.0158 12.8594 26.2858 12.8594C26.5558 12.8594 26.7747 12.6405 26.7747 12.3705C26.7747 12.3616 26.7745 12.3529 26.7741 12.3445Z" fill="#FFF212"/>
<path fill-rule="evenodd" clip-rule="evenodd" d="M25.5262 12.3653L24.4126 8.17755C24.4078 8.15868 24.3892 8.14622 24.3694 8.1493C24.3492 8.15247 24.3353 8.17076 24.3371 8.19078L24.5602 12.5011C24.5612 12.5155 24.5628 12.5291 24.5649 12.5426C24.6068 12.8094 24.8571 12.9917 25.1238 12.9497C25.3906 12.9078 25.5728 12.6576 25.5309 12.3908C25.5295 12.3821 25.5279 12.3735 25.5262 12.3653Z" fill="#FFF212"/>
<path fill-rule="evenodd" clip-rule="evenodd" d="M24.2955 12.5804L22.5366 8.62015C22.5289 8.60228 22.5085 8.59287 22.4895 8.59908C22.47 8.60541 22.4591 8.62567 22.4641 8.64515L23.363 12.8666C23.3663 12.8806 23.3699 12.8938 23.3742 12.9069C23.4576 13.1637 23.7333 13.3043 23.9902 13.2209C24.247 13.1375 24.3876 12.8617 24.3042 12.6049C24.3015 12.5965 24.2986 12.5882 24.2955 12.5804Z" fill="#FFF212"/>
<path fill-rule="evenodd" clip-rule="evenodd" d="M23.1139 12.9867L20.7535 9.35274C20.743 9.33634 20.7214 9.33024 20.7036 9.33935C20.6854 9.34865 20.6778 9.37037 20.6858 9.38885L22.238 13.4162C22.2435 13.4295 22.2491 13.4419 22.2554 13.4542C22.3782 13.6946 22.6727 13.7901 22.9132 13.6673C23.1536 13.5445 23.2491 13.25 23.1263 13.0095C23.1223 13.0017 23.1181 12.994 23.1139 12.9867L23.1139 12.9867Z" fill="#FFF212"/>
<path fill-rule="evenodd" clip-rule="evenodd" d="M22.012 13.5736L19.1121 10.3536C19.0992 10.339 19.077 10.3364 19.0608 10.3482C19.0442 10.3602 19.0401 10.3828 19.0509 10.3998L21.214 14.1347C21.2215 14.147 21.229 14.1584 21.2372 14.1695C21.3961 14.3878 21.7018 14.436 21.9202 14.2772C22.1384 14.1183 22.1867 13.8125 22.0278 13.5942C22.0226 13.587 22.0172 13.5801 22.012 13.5736H22.012Z" fill="#FFF212"/>
<path fill-rule="evenodd" clip-rule="evenodd" d="M21.0155 14.3252L17.6497 11.5958C17.6347 11.5834 17.6124 11.5843 17.5982 11.5984C17.5838 11.6129 17.5832 11.6359 17.5965 11.651L20.3145 15.0037C20.3238 15.0147 20.3331 15.0248 20.3428 15.0345C20.5337 15.2255 20.8433 15.2255 21.0342 15.0345C21.2252 14.8436 21.2252 14.534 21.0342 14.3431C21.028 14.3368 21.0216 14.3308 21.0154 14.3252L21.0155 14.3252Z" fill="#FFF212"/>
<path fill-rule="evenodd" clip-rule="evenodd" d="M20.1482 15.2227L16.3987 13.0504C16.382 13.0405 16.36 13.0448 16.3482 13.061C16.3362 13.0775 16.3392 13.1003 16.3547 13.1132L19.5615 16.002C19.5724 16.0114 19.5831 16.0199 19.5942 16.028C19.8125 16.1869 20.1183 16.1387 20.2772 15.9204C20.4361 15.7021 20.3879 15.3963 20.1696 15.2374C20.1624 15.2322 20.1552 15.2273 20.1482 15.2227Z" fill="#FFF212"/>
<path fill-rule="evenodd" clip-rule="evenodd" d="M19.4306 16.2447L15.3874 14.6857C15.3694 14.6785 15.3483 14.6863 15.3392 14.7041C15.3299 14.7223 15.3365 14.7444 15.3538 14.7547L18.973 17.1062C18.9853 17.1138 18.9972 17.1205 19.0094 17.1268C19.2499 17.2496 19.5444 17.1541 19.6672 16.9137C19.79 16.6732 19.6945 16.3786 19.4541 16.2559C19.4462 16.2519 19.4383 16.2481 19.4306 16.2447L19.4306 16.2447Z" fill="#FFF212"/>
<path fill-rule="evenodd" clip-rule="evenodd" d="M18.8815 17.3668L14.6433 16.4638C14.6244 16.4595 14.6048 16.4705 14.5986 16.4895C14.5923 16.509 14.6022 16.5297 14.6209 16.5371L18.5652 18.2896C18.5785 18.2952 18.5914 18.3 18.6044 18.3042C18.8612 18.3876 19.137 18.247 19.2204 17.9902C19.3038 17.7334 19.1632 17.4576 18.9064 17.3742C18.898 17.3715 18.8896 17.369 18.8815 17.3668Z" fill="#FFF212"/>
<path fill-rule="evenodd" clip-rule="evenodd" d="M18.5165 18.5615L14.189 18.3369C14.1696 18.3357 14.152 18.3496 14.1489 18.3694C14.1457 18.3896 14.1589 18.4085 14.1785 18.4129L18.3494 19.5226C18.3635 19.526 18.3769 19.5287 18.3904 19.5309C18.6572 19.5728 18.9074 19.3905 18.9493 19.1238C18.9913 18.857 18.809 18.6068 18.5422 18.5649C18.5335 18.5635 18.5248 18.5624 18.5165 18.5615V18.5615Z" fill="#FFF212"/>
<path fill-rule="evenodd" clip-rule="evenodd" d="M18.3445 19.7974L14.0346 20.2474C14.0152 20.2492 14 20.2656 14 20.2857C14 20.3061 14.0159 20.3228 14.036 20.3241L18.3286 20.7728C18.343 20.774 18.3567 20.7746 18.3705 20.7746C18.6405 20.7746 18.8594 20.5557 18.8594 20.2857C18.8594 20.0157 18.6405 19.7968 18.3705 19.7968C18.3616 19.7968 18.3529 19.797 18.3445 19.7974Z" fill="#FFF212"/>
<path fill-rule="evenodd" clip-rule="evenodd" d="M18.3649 21.0453L14.1772 22.1589C14.1583 22.1637 14.1458 22.1823 14.1489 22.2021C14.1521 22.2222 14.1704 22.2363 14.1904 22.2344L18.5007 22.0114C18.5151 22.0103 18.5287 22.0087 18.5422 22.0066C18.809 21.9647 18.9913 21.7145 18.9493 21.4477C18.9074 21.181 18.6572 20.9987 18.3904 21.0406C18.3817 21.042 18.3731 21.0436 18.3649 21.0453Z" fill="#FFF212"/>
<path fill-rule="evenodd" clip-rule="evenodd" d="M18.5799 22.2758L14.6197 24.0348C14.6018 24.0424 14.5924 24.0628 14.5986 24.0818C14.6049 24.1013 14.6251 24.1122 14.6447 24.1073L18.8661 23.2084C18.8801 23.2051 18.8933 23.2015 18.9064 23.1972C19.1632 23.1138 19.3038 22.838 19.2204 22.5812C19.137 22.3244 18.8612 22.1838 18.6044 22.2672C18.596 22.2699 18.5877 22.2728 18.5799 22.2758Z" fill="#FFF212"/>
<path fill-rule="evenodd" clip-rule="evenodd" d="M18.9865 23.457L15.3526 25.8175C15.3362 25.8279 15.3301 25.8495 15.3392 25.8673C15.3485 25.8855 15.3702 25.8931 15.3887 25.8852L19.416 24.333C19.4294 24.3275 19.4417 24.3218 19.454 24.3155C19.6945 24.1927 19.7899 23.8983 19.6671 23.6578C19.5443 23.4173 19.2499 23.3218 19.0094 23.4446C19.0016 23.4486 18.9938 23.4528 18.9866 23.457L18.9865 23.457Z" fill="#FFF212"/>
<path fill-rule="evenodd" clip-rule="evenodd" d="M19.5736 24.5592L16.3537 27.4591C16.3391 27.472 16.3364 27.4942 16.3482 27.5105C16.3603 27.527 16.3829 27.5311 16.3999 27.5203L20.1348 25.3572C20.1471 25.3497 20.1585 25.3421 20.1696 25.334C20.3879 25.1751 20.4361 24.8693 20.2772 24.651C20.1183 24.4327 19.8125 24.3845 19.5942 24.5434C19.5871 24.5486 19.5801 24.5539 19.5736 24.5592Z" fill="#FFF212"/>
<path fill-rule="evenodd" clip-rule="evenodd" d="M20.325 25.5558L17.5956 28.9215C17.5832 28.9365 17.5841 28.9589 17.5982 28.973C17.6127 28.9875 17.6357 28.9881 17.6508 28.9748L21.0035 26.2567C21.0145 26.2474 21.0246 26.2381 21.0343 26.2285C21.2252 26.0375 21.2252 25.7279 21.0343 25.537C20.8434 25.3461 20.5338 25.3461 20.3429 25.537C20.3366 25.5433 20.3306 25.5496 20.325 25.5558L20.325 25.5558Z" fill="#FFF212"/>
<path fill-rule="evenodd" clip-rule="evenodd" d="M21.2225 26.4232L19.0502 30.1727C19.0403 30.1894 19.0446 30.2114 19.0608 30.2232C19.0773 30.2352 19.1002 30.2322 19.1131 30.2167L22.0018 27.0099C22.0113 26.999 22.0197 26.9883 22.0278 26.9772C22.1867 26.7589 22.1386 26.4531 21.9202 26.2942C21.7019 26.1353 21.3961 26.1835 21.2372 26.4018C21.232 26.409 21.2271 26.4162 21.2225 26.4232Z" fill="#FFF212"/>
<path fill-rule="evenodd" clip-rule="evenodd" d="M22.2442 27.1407L20.6853 31.1839C20.6781 31.2019 20.6858 31.223 20.7037 31.2321C20.7219 31.2414 20.7439 31.2348 20.7543 31.2175L23.1058 27.5982C23.1134 27.5859 23.1201 27.5741 23.1264 27.5618C23.2492 27.3213 23.1537 27.0268 22.9132 26.9041C22.6727 26.7813 22.3782 26.8767 22.2554 27.1172C22.2514 27.1251 22.2477 27.133 22.2443 27.1406L22.2442 27.1407Z" fill="#FFF212"/>
<path fill-rule="evenodd" clip-rule="evenodd" d="M23.3668 27.6894L22.4638 31.9276C22.4595 31.9465 22.4705 31.9661 22.4896 31.9723C22.509 31.9786 22.5298 31.9687 22.5372 31.95L24.2897 28.0057C24.2953 27.9924 24.3 27.9795 24.3043 27.9665C24.3877 27.7097 24.2471 27.4339 23.9902 27.3505C23.7335 27.2671 23.4576 27.4077 23.3743 27.6645C23.3715 27.6729 23.369 27.6813 23.3668 27.6894Z" fill="#FFF212"/>
<path fill-rule="evenodd" clip-rule="evenodd" d="M24.5615 28.0545L24.337 32.382C24.3358 32.4014 24.3496 32.419 24.3695 32.4221C24.3896 32.4253 24.4086 32.4122 24.413 32.3926L25.5227 28.2216C25.5261 28.2075 25.5288 28.1942 25.5309 28.1806C25.5728 27.9138 25.3906 27.6636 25.1238 27.6217C24.8571 27.5798 24.6069 27.762 24.565 28.0288C24.5636 28.0375 24.5624 28.0462 24.5616 28.0545H24.5615Z" fill="#FFF212"/>
<path fill-rule="evenodd" clip-rule="evenodd" d="M25.7975 28.2269L26.2475 32.5368C26.2493 32.5562 26.2657 32.5714 26.2858 32.5714C26.3063 32.5714 26.3229 32.5555 26.3242 32.5355L26.7729 28.2428C26.7741 28.2284 26.7747 28.2147 26.7747 28.201C26.7747 27.9309 26.5558 27.712 26.2858 27.712C26.0158 27.712 25.7969 27.9309 25.7969 28.201C25.7969 28.2098 25.7971 28.2186 25.7975 28.2269Z" fill="#FFF212"/>
<path fill-rule="evenodd" clip-rule="evenodd" d="M27.0449 28.2061L28.1584 32.3939C28.1632 32.4127 28.1818 32.4252 28.2016 32.4221C28.2218 32.419 28.2358 32.4007 28.234 32.3806L28.0109 28.0703C28.0098 28.0559 28.0083 28.0423 28.0061 28.0288C27.9642 27.762 27.714 27.5798 27.4473 27.6217C27.1805 27.6636 26.9982 27.9138 27.0402 28.1806C27.0415 28.1893 27.0431 28.1979 27.0449 28.2061Z" fill="#FFF212"/>
<path fill-rule="evenodd" clip-rule="evenodd" d="M28.2759 27.991L30.0348 31.9512C30.0425 31.9691 30.0629 31.9785 30.0819 31.9723C30.1013 31.966 30.1122 31.9458 30.1073 31.9262L29.2084 27.7048C29.2051 27.6908 29.2015 27.6776 29.1972 27.6645C29.1138 27.4077 28.8381 27.2671 28.5812 27.3505C28.3244 27.4339 28.1838 27.7097 28.2672 27.9665C28.2699 27.9749 28.2728 27.9832 28.2759 27.991Z" fill="#FFF212"/>
<path fill-rule="evenodd" clip-rule="evenodd" d="M29.4566 27.5847L31.817 31.2187C31.8275 31.2351 31.849 31.2412 31.8669 31.232C31.885 31.2227 31.8927 31.201 31.8847 31.1825L30.3325 27.1552C30.327 27.1419 30.3214 27.1295 30.3151 27.1173C30.1923 26.8768 29.8979 26.7813 29.6573 26.9041C29.4168 27.0269 29.3214 27.3213 29.4442 27.5619C29.4482 27.5697 29.4524 27.5774 29.4566 27.5847L29.4566 27.5847Z" fill="#FFF212"/>
<path fill-rule="evenodd" clip-rule="evenodd" d="M30.5596 26.9978L33.4595 30.2178C33.4724 30.2324 33.4946 30.235 33.5109 30.2233C33.5274 30.2112 33.5315 30.1886 33.5207 30.1716L31.3576 26.4367C31.3501 26.4244 31.3425 26.413 31.3344 26.4019C31.1756 26.1836 30.8697 26.1354 30.6515 26.2943C30.4331 26.4532 30.3849 26.7589 30.5438 26.9773C30.549 26.9844 30.5543 26.9913 30.5596 26.9978Z" fill="#FFF212"/>
<path fill-rule="evenodd" clip-rule="evenodd" d="M31.5555 26.2462L34.9213 28.9756C34.9363 28.988 34.9586 28.9871 34.9728 28.973C34.9872 28.9585 34.9878 28.9355 34.9745 28.9204L32.2565 25.5677C32.2472 25.5567 32.2379 25.5466 32.2282 25.5369C32.0373 25.3459 31.7277 25.3459 31.5367 25.5369C31.3458 25.7278 31.3458 26.0374 31.5367 26.2283C31.543 26.2346 31.5494 26.2406 31.5556 26.2462L31.5555 26.2462Z" fill="#FFF212"/>
<path fill-rule="evenodd" clip-rule="evenodd" d="M32.4229 25.3488L36.1723 27.521C36.1891 27.531 36.2111 27.5266 36.2229 27.5105C36.2349 27.4939 36.2319 27.4711 36.2163 27.4582L33.0096 24.5694C32.9986 24.56 32.988 24.5515 32.9768 24.5434C32.7585 24.3845 32.4527 24.4327 32.2938 24.651C32.1349 24.8693 32.1831 25.1752 32.4015 25.334C32.4086 25.3393 32.4158 25.3442 32.4229 25.3488Z" fill="#FFF212"/>
<path fill-rule="evenodd" clip-rule="evenodd" d="M33.1407 24.3268L37.184 25.8857C37.202 25.8929 37.2231 25.8851 37.2321 25.8673C37.2414 25.8491 37.2349 25.827 37.2176 25.8167L33.5983 23.4652C33.586 23.4576 33.5741 23.4509 33.5619 23.4446C33.3214 23.3218 33.0269 23.4173 32.9042 23.6578C32.7814 23.8983 32.8768 24.1928 33.1173 24.3155C33.1252 24.3195 33.1331 24.3233 33.1407 24.3267L33.1407 24.3268Z" fill="#FFF212"/>
<path fill-rule="evenodd" clip-rule="evenodd" d="M33.6891 23.2046L37.9273 24.1076C37.9463 24.1118 37.9658 24.1009 37.972 24.0819C37.9784 24.0624 37.9684 24.0417 37.9497 24.0342L34.0054 22.2818C33.9921 22.2762 33.9793 22.2714 33.9662 22.2671C33.7094 22.1837 33.4336 22.3244 33.3502 22.5812C33.2668 22.838 33.4074 23.1138 33.6642 23.1972C33.6726 23.1999 33.681 23.2024 33.6891 23.2046Z" fill="#FFF212"/>
<path fill-rule="evenodd" clip-rule="evenodd" d="M34.0541 22.01L38.3815 22.2345C38.4009 22.2357 38.4185 22.2218 38.4217 22.2021C38.4248 22.1818 38.4117 22.1629 38.3921 22.1585L34.2211 21.0488C34.2071 21.0454 34.1937 21.0428 34.1801 21.0406C33.9134 20.9987 33.6632 21.1809 33.6212 21.4477C33.5793 21.7144 33.7616 21.9646 34.0283 22.0066C34.037 22.0079 34.0457 22.0091 34.0541 22.01V22.01Z" fill="#FFF212"/>
<path fill-rule="evenodd" clip-rule="evenodd" d="M34.2268 20.7739L38.5367 20.324C38.5561 20.3221 38.5713 20.3057 38.5713 20.2857C38.5713 20.2652 38.5554 20.2486 38.5353 20.2473L34.2427 19.7985C34.2283 19.7973 34.2146 19.7968 34.2008 19.7968C33.9308 19.7968 33.7119 20.0157 33.7119 20.2857C33.7119 20.5557 33.9308 20.7746 34.2008 20.7746C34.2097 20.7746 34.2184 20.7744 34.2268 20.7739Z" fill="#FFF212"/>
<path fill-rule="evenodd" clip-rule="evenodd" d="M34.2057 19.5261L38.3934 18.4125C38.4123 18.4077 38.4247 18.3891 38.4217 18.3694C38.4185 18.3491 38.4002 18.3352 38.3802 18.337L34.0698 18.5601C34.0554 18.5611 34.0419 18.5627 34.0283 18.5648C33.7616 18.6067 33.5793 18.857 33.6212 19.1237C33.6632 19.3905 33.9134 19.5727 34.1801 19.5308C34.1888 19.5294 34.1974 19.5278 34.2057 19.5261Z" fill="#FFF212"/>
<path fill-rule="evenodd" clip-rule="evenodd" d="M33.9907 18.2956L37.9509 16.5366C37.9688 16.529 37.9782 16.5086 37.972 16.4896C37.9657 16.4701 37.9455 16.4592 37.9259 16.4641L33.7045 17.363C33.6905 17.3663 33.6773 17.3699 33.6642 17.3742C33.4074 17.4576 33.2668 17.7334 33.3502 17.9902C33.4336 18.247 33.7094 18.3877 33.9662 18.3042C33.9746 18.3015 33.9829 18.2986 33.9907 18.2956Z" fill="#FFF212"/>
<path fill-rule="evenodd" clip-rule="evenodd" d="M33.5848 17.1144L37.2187 14.7539C37.2351 14.7435 37.2412 14.7219 37.2321 14.7041C37.2228 14.6859 37.2011 14.6783 37.1826 14.6863L33.1553 16.2385C33.1419 16.2439 33.1296 16.2496 33.1173 16.2559C32.8768 16.3787 32.7814 16.6731 32.9042 16.9136C33.027 17.1541 33.3214 17.2496 33.5619 17.1268C33.5697 17.1228 33.5775 17.1186 33.5847 17.1144L33.5848 17.1144Z" fill="#FFF212"/>
<path fill-rule="evenodd" clip-rule="evenodd" d="M32.9974 16.0122L36.2174 13.1123C36.232 13.0994 36.2346 13.0772 36.2228 13.061C36.2108 13.0444 36.1882 13.0403 36.1712 13.0511L32.4363 15.2142C32.424 15.2217 32.4126 15.2293 32.4015 15.2374C32.1831 15.3963 32.1349 15.7021 32.2938 15.9204C32.4527 16.1387 32.7585 16.1869 32.9768 16.028C32.984 16.0228 32.9909 16.0175 32.9974 16.0122Z" fill="#FFF212"/>
<path fill-rule="evenodd" clip-rule="evenodd" d="M32.2461 15.0156L34.9755 11.6499C34.9879 11.635 34.987 11.6125 34.9728 11.5984C34.9584 11.5839 34.9354 11.5834 34.9202 11.5966L31.5675 14.3147C31.5565 14.324 31.5465 14.3333 31.5367 14.343C31.3458 14.5339 31.3458 14.8435 31.5367 15.0344C31.7277 15.2254 32.0373 15.2254 32.2282 15.0344C32.2345 15.0281 32.2404 15.0218 32.2461 15.0156L32.2461 15.0156Z" fill="#FFF212"/>
<path fill-rule="evenodd" clip-rule="evenodd" d="M31.3492 14.1482L33.5215 10.3987C33.5314 10.382 33.5271 10.36 33.5109 10.3482C33.4943 10.3362 33.4715 10.3392 33.4587 10.3547L30.5699 13.5615C30.5604 13.5724 30.5519 13.5831 30.5438 13.5942C30.385 13.8125 30.4331 14.1183 30.6515 14.2772C30.8698 14.4361 31.1756 14.3879 31.3344 14.1696C31.3397 14.1624 31.3446 14.1552 31.3492 14.1482Z" fill="#FFF212"/>
<path fill-rule="evenodd" clip-rule="evenodd" d="M30.3264 13.4308L31.8853 9.38757C31.8924 9.36955 31.8847 9.34844 31.8669 9.33937C31.8487 9.33007 31.8266 9.33663 31.8163 9.35396L29.4648 12.9732C29.4572 12.9855 29.4504 12.9974 29.4442 13.0096C29.3214 13.2501 29.4168 13.5446 29.6573 13.6673C29.8979 13.7902 30.1923 13.6947 30.3151 13.4542C30.3191 13.4464 30.3229 13.4385 30.3263 13.4308L30.3264 13.4308Z" fill="#FFF212"/>
<path fill-rule="evenodd" clip-rule="evenodd" d="M29.2046 12.8819L30.1077 8.6438C30.1119 8.62481 30.101 8.60525 30.0819 8.59904C30.0625 8.59271 30.0417 8.6027 30.0343 8.62138L28.2818 12.5657C28.2762 12.579 28.2715 12.5918 28.2672 12.6049C28.1838 12.8617 28.3244 13.1375 28.5812 13.2209C28.838 13.3043 29.1138 13.1637 29.1972 12.9069C29.2 12.8985 29.2025 12.8901 29.2046 12.8819Z" fill="#FFF212"/>
<path fill-rule="evenodd" clip-rule="evenodd" d="M28.0096 12.5169L28.2341 8.18943C28.2353 8.17003 28.2214 8.15243 28.2016 8.1493C28.1815 8.14614 28.1625 8.15926 28.1581 8.17886L27.0484 12.3498C27.045 12.3639 27.0423 12.3773 27.0402 12.3908C26.9983 12.6576 27.1805 12.9078 27.4473 12.9497C27.714 12.9917 27.9642 12.8094 28.0061 12.5426C28.0075 12.5339 28.0087 12.5252 28.0095 12.5169H28.0096Z" fill="#FFF212"/>
</svg>
