<svg width="100" height="100" viewBox="0 0 100 100" fill="none" xmlns="http://www.w3.org/2000/svg">
<g clip-path="url(#clip0_657_6121)">
<mask id="mask0_657_6121" style="mask-type:luminance" maskUnits="userSpaceOnUse" x="0" y="0" width="100" height="100">
<path d="M100 50C100 22.3858 77.6142 0 50 0C22.3858 0 0 22.3858 0 50C0 77.6142 22.3858 100 50 100C77.6142 100 100 77.6142 100 50Z" fill="white"/>
</mask>
<g mask="url(#mask0_657_6121)">
<path d="M100 0H0V100H100V0Z" fill="#F0F0F0"/>
<path d="M0 59.3748H40.6248V100H59.3748V59.3748H100V40.6248H59.3748V0H40.6248V40.6248H0V59.3748Z" fill="url(#paint0_linear_657_6121)"/>
<path d="M79.477 65.2173L100 85.7406V65.2173H79.477Z" fill="url(#paint1_linear_657_6121)"/>
<path d="M65.2176 65.2173L100 100V90.164L75.0537 65.2173H65.2176Z" fill="#0052B4"/>
<path d="M90.7352 99.9993L65.2176 74.479V99.9993H90.7352Z" fill="url(#paint2_linear_657_6121)"/>
<path d="M65.2176 65.2173L100 100V90.164L75.0537 65.2173H65.2176Z" fill="#F0F0F0"/>
<path d="M65.2176 65.2173L100 100V90.164L75.0537 65.2173H65.2176Z" fill="url(#paint3_linear_657_6121)"/>
<path d="M15.684 65.2173L0 80.9012V65.2173H15.684Z" fill="url(#paint4_linear_657_6121)"/>
<path d="M34.7818 69.6406V99.9994H4.42523L34.7818 69.6406Z" fill="url(#paint5_linear_657_6121)"/>
<path d="M24.9461 65.2197L0 90.1658V100.002L34.7821 65.2197H24.9461Z" fill="url(#paint6_linear_657_6121)"/>
<path d="M20.5234 34.7812L0 14.2578V34.7812H20.5234Z" fill="url(#paint7_linear_657_6121)"/>
<path d="M34.7824 34.7824L0 0V9.83594L24.9467 34.7824H34.7824Z" fill="#0052B4"/>
<path d="M9.26477 0L34.7824 25.52V0H9.26477Z" fill="url(#paint8_linear_657_6121)"/>
<path d="M34.7824 34.7824L0 0V9.83594L24.9467 34.7824H34.7824Z" fill="#F0F0F0"/>
<path d="M34.7824 34.7824L0 0V9.83594L24.9467 34.7824H34.7824Z" fill="url(#paint9_linear_657_6121)"/>
<path d="M84.3158 34.7833L99.9997 19.0991V34.7833H84.3158Z" fill="url(#paint10_linear_657_6121)"/>
<path d="M65.2179 30.3591V0H95.5746L65.2179 30.3591Z" fill="url(#paint11_linear_657_6121)"/>
<path d="M75.0537 34.7821L100 9.83576V0L65.2179 34.7821H75.0537Z" fill="url(#paint12_linear_657_6121)"/>
</g>
<path d="M99.5 50C99.5 77.3381 77.3381 99.5 50 99.5C22.6619 99.5 0.5 77.3381 0.5 50C0.5 22.6619 22.6619 0.5 50 0.5C77.3381 0.5 99.5 22.6619 99.5 50Z" stroke="black"/>
</g>
<defs>
<linearGradient id="paint0_linear_657_6121" x1="0.5699" y1="0.926844" x2="99.4294" y2="0.926844" gradientUnits="userSpaceOnUse">
<stop stop-color="#D80027"/>
<stop offset="1" stop-color="#FF3E61"/>
</linearGradient>
<linearGradient id="paint1_linear_657_6121" x1="100" y1="85.7406" x2="79.4767" y2="85.7406" gradientUnits="userSpaceOnUse">
<stop stop-color="#2981EB"/>
<stop offset="1" stop-color="#0052B4"/>
</linearGradient>
<linearGradient id="paint2_linear_657_6121" x1="90.7352" y1="99.9993" x2="65.2176" y2="99.9993" gradientUnits="userSpaceOnUse">
<stop stop-color="#2981EB"/>
<stop offset="1" stop-color="#0052B4"/>
</linearGradient>
<linearGradient id="paint3_linear_657_6121" x1="65.4158" y1="65.5397" x2="99.8018" y2="65.5397" gradientUnits="userSpaceOnUse">
<stop stop-color="#D80027"/>
<stop offset="1" stop-color="#FF3E61"/>
</linearGradient>
<linearGradient id="paint4_linear_657_6121" x1="15.6839" y1="80.9012" x2="-5.98296e-05" y2="80.9012" gradientUnits="userSpaceOnUse">
<stop stop-color="#2981EB"/>
<stop offset="1" stop-color="#0052B4"/>
</linearGradient>
<linearGradient id="paint5_linear_657_6121" x1="34.7818" y1="99.9994" x2="4.42511" y2="99.9994" gradientUnits="userSpaceOnUse">
<stop stop-color="#2981EB"/>
<stop offset="1" stop-color="#0052B4"/>
</linearGradient>
<linearGradient id="paint6_linear_657_6121" x1="0.198223" y1="65.5422" x2="34.5836" y2="65.5422" gradientUnits="userSpaceOnUse">
<stop stop-color="#D80027"/>
<stop offset="1" stop-color="#FF3E61"/>
</linearGradient>
<linearGradient id="paint7_linear_657_6121" x1="20.5233" y1="34.7812" x2="-7.82906e-05" y2="34.7812" gradientUnits="userSpaceOnUse">
<stop stop-color="#2981EB"/>
<stop offset="1" stop-color="#0052B4"/>
</linearGradient>
<linearGradient id="paint8_linear_657_6121" x1="34.7824" y1="25.52" x2="9.26468" y2="25.52" gradientUnits="userSpaceOnUse">
<stop stop-color="#2981EB"/>
<stop offset="1" stop-color="#0052B4"/>
</linearGradient>
<linearGradient id="paint9_linear_657_6121" x1="0.198226" y1="0.322381" x2="34.5842" y2="0.322381" gradientUnits="userSpaceOnUse">
<stop stop-color="#D80027"/>
<stop offset="1" stop-color="#FF3E61"/>
</linearGradient>
<linearGradient id="paint10_linear_657_6121" x1="99.9997" y1="34.7833" x2="84.3158" y2="34.7833" gradientUnits="userSpaceOnUse">
<stop stop-color="#2981EB"/>
<stop offset="1" stop-color="#0052B4"/>
</linearGradient>
<linearGradient id="paint11_linear_657_6121" x1="95.5746" y1="30.3591" x2="65.2176" y2="30.3591" gradientUnits="userSpaceOnUse">
<stop stop-color="#2981EB"/>
<stop offset="1" stop-color="#0052B4"/>
</linearGradient>
<linearGradient id="paint12_linear_657_6121" x1="65.4161" y1="0.322376" x2="99.8015" y2="0.322376" gradientUnits="userSpaceOnUse">
<stop stop-color="#D80027"/>
<stop offset="1" stop-color="#FF3E61"/>
</linearGradient>
<clipPath id="clip0_657_6121">
<rect width="100" height="100" fill="white"/>
</clipPath>
</defs>
</svg>
