<svg width="100" height="100" viewBox="0 0 100 100" fill="none" xmlns="http://www.w3.org/2000/svg">
<circle cx="50" cy="50" r="50" fill="white"/>
<g clip-path="url(#clip0_657_6125)">
<path d="M47.826 50.0002H99.9997C99.9997 45.4875 99.3982 41.1153 98.2773 36.9565H47.826V50.0002Z" fill="#D80027"/>
<path d="M47.826 23.9127H92.6609C89.6003 18.9182 85.6867 14.5035 81.1239 10.8691H47.826V23.9127Z" fill="#D80027"/>
<path d="M50 99.9996C61.7673 99.9996 72.5833 95.9323 81.1242 89.1299H18.8757C27.4168 95.9323 38.2324 99.9996 50 99.9996Z" fill="#D80027"/>
<path d="M7.33859 76.0868H92.6612C95.1185 72.0774 97.0242 67.6947 98.2776 63.0435H1.72238C2.97569 67.6947 4.88138 72.0774 7.33859 76.0868Z" fill="#D80027"/>
<path d="M23.1609 7.80821H27.7175L23.4791 10.8873L25.098 15.8695L20.8599 12.7904L16.6219 15.8695L18.0203 11.5654C14.2887 14.6738 11.018 18.3156 8.32264 22.3735H9.78264L7.08479 24.3334C6.66445 25.0345 6.26133 25.7468 5.875 26.4698L7.16327 30.4348L4.75979 28.6885C4.1623 29.9542 3.61582 31.2488 3.12461 32.57L4.54394 36.9388H9.78264L5.54433 40.0179L7.16327 45L2.9252 41.9209L0.386521 43.7655C0.132422 45.8079 0 47.8885 0 50H50C50 22.3859 50 19.1305 50 0C40.1227 0 30.9148 2.86522 23.1609 7.80821ZM25.098 45L20.8599 41.9209L16.6219 45L18.2408 40.0179L14.0025 36.9388H19.2412L20.8599 31.9564L22.4787 36.9388H27.7175L23.4791 40.0179L25.098 45ZM23.4791 25.4525L25.098 30.4348L20.8599 27.3558L16.6219 30.4348L18.2408 25.4525L14.0025 22.3735H19.2412L20.8599 17.3912L22.4787 22.3735H27.7175L23.4791 25.4525ZM43.0327 45L38.7948 41.9209L34.5567 45L36.1755 40.0179L31.9373 36.9388H37.1761L38.7948 31.9564L40.4136 36.9388H45.6521L41.4136 40.0179L43.0327 45ZM41.4136 25.4525L43.0327 30.4348L38.7948 27.3558L34.5567 30.4348L36.1755 25.4525L31.9373 22.3735H37.1761L38.7948 17.3912L40.4136 22.3735H45.6521L41.4136 25.4525ZM41.4136 10.8873L43.0327 15.8695L38.7948 12.7904L34.5567 15.8695L36.1755 10.8873L31.9373 7.80821H37.1761L38.7948 2.82598L40.4136 7.80821H45.6521L41.4136 10.8873Z" fill="#0052B4"/>
<path d="M99.5 50C99.5 77.3381 77.3381 99.5 50 99.5C22.6619 99.5 0.5 77.3381 0.5 50C0.5 22.6619 22.6619 0.5 50 0.5C77.3381 0.5 99.5 22.6619 99.5 50Z" stroke="black"/>
</g>
<defs>
<clipPath id="clip0_657_6125">
<rect width="100" height="100" fill="white"/>
</clipPath>
</defs>
</svg>
