<svg width="210" height="44" viewBox="0 0 210 44" fill="none" xmlns="http://www.w3.org/2000/svg">
<g clip-path="url(#clip0_43_2208)">
<path fill-rule="evenodd" clip-rule="evenodd" d="M92.1766 10.9263C90.6506 10.0773 88.3841 9.66132 85.2447 9.66132C80.9507 9.66558 76.9639 10.5701 75.4572 11.1396C75.1157 11.2505 74.7529 11.5492 74.7444 12.0569V12.1721L75.1712 14.3394L75.1797 14.382C75.3121 14.8194 75.6749 15.022 76.0014 15.022H76.0078C76.1145 15.0135 76.1956 14.9921 76.2725 14.9729L76.9874 14.8023C78.8591 14.333 81.687 13.612 84.8413 13.612C86.7578 13.612 88.0426 13.7826 88.907 14.1495C90.307 14.6892 90.3156 15.6086 90.3305 17.1296V19.4057C90.1704 19.4014 89.8994 19.3993 89.4832 19.3993C87.9359 19.3993 84.8947 19.474 81.9068 19.9582C77.3438 20.6707 73.5684 21.7778 73.594 28.1603C73.594 36.2621 80.9997 36.2749 84.5553 36.2834C86.967 36.2791 89.1973 35.9165 90.6549 35.6136C93.9736 34.8307 94.823 33.762 94.7782 30.415V16.9397C94.7782 14.8833 94.7867 12.3278 92.1745 10.9242L92.1766 10.9263ZM90.3519 31.7312C88.5847 32.3136 86.6511 32.6058 84.6023 32.6058C81.3284 32.5802 78.1356 32.2005 78.1292 27.9661C78.1506 24.5957 79.922 24.1968 82.1629 23.6891L82.3187 23.6529C84.312 23.2198 89.3232 23.1409 90.354 23.1281L90.3519 31.7312ZM131.777 16.9376V30.4065C131.82 33.7556 130.972 34.8222 127.651 35.6051C126.2 35.9101 123.97 36.2728 121.554 36.2749C117.998 36.2663 110.595 36.2536 110.593 28.1539C110.565 21.7757 114.34 20.6664 118.903 19.9539C121.891 19.4676 124.935 19.3929 126.48 19.3929C126.898 19.3929 127.167 19.3972 127.333 19.3993V17.1253C127.316 15.6044 127.306 14.6871 125.908 14.1474C125.046 13.7762 123.757 13.6098 121.84 13.6098C118.681 13.6098 115.856 14.3266 113.986 14.8002L113.273 14.9708C113.196 14.9921 113.113 15.0135 113.007 15.0135C112.678 15.0135 112.317 14.8172 112.183 14.3735L112.172 14.3351L111.745 12.1678V12.0547C111.754 11.5471 112.117 11.2441 112.456 11.1375C113.967 10.5679 117.949 9.66132 122.246 9.65919C125.383 9.65919 127.651 10.0752 129.175 10.9263C131.785 12.3278 131.781 14.8833 131.777 16.9376ZM127.359 23.1281C126.322 23.1388 121.319 23.2198 119.322 23.6529L119.162 23.6891C116.921 24.1968 115.149 24.5957 115.128 27.9661C115.132 32.2005 118.329 32.5823 121.603 32.6058C123.652 32.6058 125.586 32.3136 127.353 31.7312V23.1281H127.359ZM198.806 9.65919C188.498 9.67625 187.623 16.5494 187.612 22.9916C187.623 29.4124 188.496 36.26 198.806 36.2749C209.108 36.2578 209.985 29.4274 210 22.9894C209.989 16.2486 209.116 9.67625 198.806 9.65919ZM198.806 32.5162C192.553 32.4864 192.239 29.2311 192.196 22.9937C192.239 16.7264 192.553 13.452 198.804 13.4242C205.057 13.452 205.373 16.7264 205.416 22.9916C205.373 29.229 205.057 32.4842 198.806 32.5162ZM180.302 35.3278L180.036 35.396C178.595 35.7672 176.621 36.2749 173.159 36.2749H173.151C163.607 36.2578 161.737 31.375 161.726 22.9425C161.735 13.2749 164.757 9.67412 172.867 9.66132C175.731 9.66132 177.705 10.0389 179.12 10.3866L179.112 2.59622C179.101 2.25491 179.25 1.80695 180.046 1.65336L182.582 0.996338H182.721C183.303 1.01127 183.51 1.53603 183.51 1.984V31.2512C183.549 33.1028 183.333 34.6857 180.302 35.332V35.3278ZM179.114 14.1325C178.269 13.9149 175.906 13.3731 173.245 13.3731C168.362 13.4221 166.308 14.7682 166.261 22.9937C166.319 32.0277 168.968 32.5184 173.289 32.561C175.979 32.561 178.288 31.9915 179.112 31.7653L179.114 14.1325ZM156.344 35.6627H154.082C153.469 35.6627 153.014 35.1976 153.014 34.5811V17.217C152.972 14.2818 152.103 13.4626 148.987 13.42C145.461 13.42 141.891 14.3202 140.715 14.6444V34.5833C140.715 35.2083 140.288 35.6648 139.697 35.6648H137.381C136.773 35.6648 136.314 35.1998 136.314 34.5854V15.1095C136.282 13.3091 136.447 12.0633 138.976 11.2313C141.394 10.3845 146.018 9.66559 149.081 9.66345C154.907 9.67198 157.394 11.8073 157.405 16.8011V34.5875C157.405 35.2019 156.946 35.6669 156.337 35.6669L156.344 35.6627ZM105.01 36.132C106.316 36.1042 107.276 35.8461 107.656 35.4152C107.788 35.2659 107.848 35.0867 107.833 34.9139C107.825 34.7689 107.825 34.7689 107.47 33.0708L107.46 33.0282C107.383 32.5866 107.076 32.384 106.815 32.384H106.777C106.777 32.384 106.45 32.3776 106.126 32.3776C105.195 32.3477 104.425 32.2069 104.41 30.8331V1.97973C104.41 1.5019 104.124 1.00914 103.578 0.998471H103.413L100.874 1.65976C100.442 1.70242 99.99 2.016 100.011 2.59409V30.9227C100.018 34.2761 101.793 36.1256 105.01 36.132ZM69.1591 35.6627H50.9714C50.3631 35.6627 49.9043 35.1976 49.9043 34.5811V32.3285C49.8936 31.7739 50.0665 31.5328 50.4037 31.1083L64.88 14.0322H50.6939C50.0857 14.0322 49.6268 13.5629 49.6268 12.9486V11.3529C49.6268 10.7343 50.0878 10.2714 50.6939 10.2714H69.0695C69.6735 10.2714 70.1302 10.7364 70.1323 11.3529V13.6525C70.143 14.0685 70.0043 14.4204 69.6735 14.7916L55.1608 31.904H69.1613C69.7674 31.904 70.2241 32.369 70.2284 32.9855V34.5854C70.2241 35.1976 69.7652 35.6627 69.1591 35.6627Z" fill="#1D1D1B"/>
<path fill-rule="evenodd" clip-rule="evenodd" d="M8.42587 42.8194C6.88283 42.8194 6.02488 42.4525 5.56602 42.1858C4.93216 41.8146 3.76475 40.8696 2.71685 38.0752C1.03723 33.5934 0.0426842 28.1196 0 21.6902V21.6689C0.0426842 15.2267 1.03723 9.75506 2.71685 5.27111C3.76261 2.47878 4.93003 1.53165 5.57029 1.16261C6.02274 0.891694 6.87856 0.529053 8.41946 0.529053C9.00851 0.529053 9.69999 0.582382 10.5025 0.712506C15.1678 1.48045 20.3348 3.34272 25.8474 6.52116L25.8645 6.52969C31.3324 9.78492 35.5069 13.3921 38.4926 17.1103C40.3558 19.4312 40.5778 20.9287 40.5778 21.671C40.5778 22.4134 40.3558 23.9151 38.4926 26.2318C35.5047 29.9499 31.3324 33.5592 25.8645 36.8123L25.8432 36.8251C20.3369 40.0036 15.1678 41.8658 10.5025 42.6316C9.69786 42.766 9.00851 42.8172 8.42373 42.8172" fill="#FF6900"/>
</g>
<defs>
<clipPath id="clip0_43_2208">
<rect width="210" height="43.3486" fill="white"/>
</clipPath>
</defs>
</svg>
