<svg width="79" height="34" viewBox="0 0 79 34" fill="none" xmlns="http://www.w3.org/2000/svg">
<path id="Vector" d="M74.5443 32.0744L62.9026 0.0284429V0.00568685H62.6637L60.2682 6.58899L55.904 18.5778L55.8926 18.5664C54.3791 17.2292 52.2453 16.3985 49.5597 16.0855L48.7403 16.0002L49.554 15.8978C53.9865 15.1012 56.9623 12.3017 56.9623 8.93326C56.9623 4.30731 52.6152 1.08109 46.3846 1.08109H33.4229V1.31438H37.1896V25.2066L28.0402 0.0227561V0H27.8012L25.4057 6.58329L16.1595 31.9833H16.1026C15.9433 32.0118 15.7897 32.0232 15.636 32.0345C15.4027 32.0516 15.1695 32.063 14.9419 32.063H5.59893L23.3573 1.30869L23.4882 1.0754H1.76957V10.589H1.99719C2.03702 5.9574 4.73405 1.30869 10.6971 1.30869H17.8893L0 32.2963H24.1027V23.1809H23.8751C23.841 27.2208 21.5536 31.0559 16.5749 31.9207L16.4156 31.9492L20.2051 21.5252H30.8283L34.6576 32.063H30.8795V32.2906H45.7019V32.063H41.9123V16.1652H46.2879C50.7432 16.1652 53.2923 18.1567 53.2923 21.6219V24.4441C53.2923 24.7571 53.315 25.2066 53.3378 25.5878V25.5992L50.9878 32.0573H47.9152V32.2849H54.2766V32.0573H51.2382L53.3776 26.1739C53.3776 26.2308 53.3833 26.2649 53.3833 26.2649L53.4402 26.7941L53.4971 27.1469C53.8556 29.3147 54.6863 30.9136 55.9609 31.8866L56.1429 32.0175C57.1159 32.6946 58.3222 33.036 59.7333 33.036C61.5996 33.036 62.8457 32.5694 63.8756 31.4712L63.7391 31.346C62.7888 32.2223 61.9979 32.5751 60.9965 32.5751C59.3009 32.5751 58.4076 30.5153 58.4076 28.484V24.5352C58.4189 23.5565 58.2653 22.5778 57.9524 21.6503L57.9125 21.5252H65.6793L69.5087 32.063H65.7306V32.2906H78.5558V32.063H74.5272L74.5443 32.0744ZM20.3018 21.3032L25.5366 6.9247L30.76 21.3032H20.3075H20.3018ZM41.9237 15.9433V1.31438H45.2637C49.7247 1.31438 52.0803 3.96591 52.0803 8.97878C52.0803 14.3103 50.7261 15.9376 46.2993 15.9376H41.9237V15.9433ZM57.8386 21.3032L57.8158 21.2464C57.4687 20.4042 56.968 19.6361 56.3364 18.9874L56.1202 18.7712L56.0974 18.7485L60.3934 6.93038L65.6168 21.3089H57.8443L57.8386 21.3032Z" fill="black"/>
</svg>
