<svg width="81" height="54" viewBox="0 0 81 54" fill="none" xmlns="http://www.w3.org/2000/svg">
<path fill-rule="evenodd" clip-rule="evenodd" d="M76.8852 37.2951C77.2274 37.4897 77.5636 37.5723 77.9294 37.5723H77.9412C78.3069 37.5723 78.6432 37.4897 78.9853 37.2951C79.3157 37.1181 79.5871 36.8526 79.7641 36.5164C79.9469 36.1978 80.0413 35.8379 80.0413 35.4722C80.0413 35.0946 79.9587 34.7466 79.7641 34.4044C79.5812 34.0623 79.3157 33.8086 78.9736 33.6257C78.6314 33.4428 78.2951 33.3484 77.9412 33.3484H77.9294C77.5695 33.3602 77.2156 33.4546 76.897 33.6257C76.5548 33.8086 76.3012 34.0623 76.1065 34.4044C75.9177 34.7289 75.8233 35.1005 75.8292 35.4722C75.8292 35.8262 75.9118 36.1742 76.1065 36.5164C76.2835 36.8467 76.5489 37.1181 76.8852 37.2951ZM76.4133 34.5873C76.5666 34.31 76.7908 34.0859 77.0681 33.9325C77.3453 33.785 77.6403 33.7024 77.9294 33.7024H77.9412C78.2303 33.7024 78.5252 33.785 78.8025 33.9325C79.0797 34.0859 79.3039 34.3159 79.4573 34.5873C79.6166 34.8646 79.6874 35.1595 79.6874 35.4722C79.6874 35.779 79.6107 36.0798 79.4573 36.3453C79.3098 36.6167 79.0856 36.8408 78.8143 36.9883C78.5488 37.1417 78.248 37.2184 77.9412 37.2184H77.9294C77.6226 37.2184 77.3218 37.1417 77.0563 36.9883C76.7849 36.8408 76.5607 36.6167 76.4133 36.3453C76.254 36.068 76.1714 35.7731 76.1714 35.4722C76.1714 35.1595 76.254 34.8646 76.4133 34.5873Z" fill="#1E71B8"/>
<path fill-rule="evenodd" clip-rule="evenodd" d="M77.3749 35.6671H77.5932C77.7289 35.6671 77.8233 35.6907 77.8823 35.7496C77.9059 35.7614 77.9177 35.7732 77.9295 35.785C78.0239 35.8676 78.136 36.0387 78.2716 36.2688L78.4781 36.6345H78.9146L78.6492 36.1862C78.5135 35.9797 78.3955 35.8204 78.307 35.7379C78.248 35.6848 78.1831 35.6435 78.1124 35.614C78.307 35.6022 78.4663 35.5314 78.5843 35.4075C78.7023 35.2836 78.7672 35.142 78.7672 34.9709C78.7672 34.847 78.7318 34.7409 78.6551 34.6406C78.5843 34.5344 78.484 34.4577 78.366 34.4223C78.2716 34.3869 78.1242 34.3633 77.9295 34.3633C77.8941 34.3633 77.8469 34.3515 77.7938 34.3515H77.0033V36.6345H77.369V35.6612L77.3749 35.6671ZM77.3749 34.6701H77.9354C78.0475 34.6819 78.1183 34.6937 78.1655 34.7055C78.2304 34.7232 78.2893 34.7704 78.3247 34.8294C78.3601 34.8765 78.3719 34.9414 78.3719 35.0122C78.3719 35.1066 78.3365 35.1951 78.2598 35.2541C78.2008 35.3131 78.0888 35.3367 77.9295 35.3544H77.369V34.676L77.3749 34.6701ZM22.8715 34.9237H26.1456L22.8715 29.461L20.1047 24.8596L8.34746 31.921L10.1409 34.9178H22.8715V34.9237ZM53.359 34.9237H69.3696L59.4058 18.3232L48.3859 0L43.8493 2.73137L36.6404 7.06144L43.8493 19.0665L53.3649 34.9297L53.359 34.9237ZM47.7665 40.3983C46.6397 39.6727 45.3123 39.2479 43.8847 39.2479H43.8493C39.8909 39.2715 36.6758 42.4984 36.6758 46.4568C36.6758 50.4152 39.8909 53.6422 43.8493 53.6658H43.8847C45.3182 53.6658 46.6397 53.241 47.7665 52.5154V53.2705H51.0818V34.9355H47.7665V40.4101V40.3983ZM47.7665 47.2061C47.4125 49.0289 45.802 50.4212 43.8847 50.4212H43.8493C41.6784 50.3976 39.9204 48.6278 39.9204 46.4509C39.9204 44.2741 41.6784 42.5043 43.8493 42.4925H43.8847C45.802 42.4925 47.4184 43.8789 47.7665 45.6958V47.2001V47.2061ZM63.3229 40.3983C62.1666 39.6432 60.8157 39.242 59.4412 39.2479H59.4058C55.4473 39.2715 52.2322 42.4984 52.2322 46.4568C52.2322 50.4152 55.4473 53.6422 59.4058 53.6658H59.4412C60.8747 53.6658 62.2079 53.241 63.3229 52.5154V53.2705H66.6382V39.6196H63.3229V40.4101V40.3983ZM63.3229 47.2061C62.9689 49.0289 61.3584 50.4212 59.4412 50.4212H59.4058C57.2348 50.3976 55.4768 48.6278 55.4768 46.4509C55.4768 44.2741 57.2348 42.5043 59.4058 42.4925H59.4412C61.3584 42.4925 62.9748 43.8789 63.3229 45.6958V47.2001V47.2061ZM78.4191 45.5542C78.2952 45.4953 78.1301 45.4304 77.9354 45.3596C77.198 45.1059 75.9945 44.7873 74.3191 44.4275C72.8502 44.0971 72.1128 43.6724 72.1128 43.1414C72.1128 42.7639 72.2485 42.463 72.5021 42.2448C72.8443 41.9557 73.446 41.8082 74.325 41.8082C75.204 41.8082 75.8529 42.0029 76.2305 42.3804C76.4606 42.6105 76.6316 43.0235 76.7378 43.6075H80.2597C80.2597 41.8849 79.5577 40.646 78.1714 39.8968C78.1006 39.8496 78.0239 39.8083 77.9413 39.773C76.9797 39.3246 75.7054 39.0945 74.1185 39.0945C72.1895 39.0945 70.7324 39.6019 69.7649 40.6342C68.9862 41.4601 68.6145 42.4689 68.6145 43.6547C68.6145 45.1354 69.3401 46.2032 70.8209 46.8934C71.3813 47.1589 72.7381 47.5364 74.8972 47.9966C76.3426 48.3092 77.0682 48.7635 77.0682 49.3298C77.0682 49.672 76.9207 49.961 76.608 50.2265C76.2069 50.5686 75.5993 50.7338 74.7851 50.7338C73.7056 50.7338 72.9387 50.5509 72.4904 50.2029C72.042 49.8607 71.8119 49.3652 71.8119 48.734H68.1249C68.1249 50.4094 68.8269 51.66 70.2486 52.4859C71.3754 53.1289 72.8561 53.4593 74.6908 53.4593C75.9178 53.4593 77.0092 53.2528 77.9413 52.8517C78.136 52.7691 78.307 52.6806 78.4899 52.5862C79.9352 51.7839 80.6609 50.5096 80.6609 48.7635C80.6609 47.3299 79.9175 46.2622 78.425 45.5602L78.4191 45.5542ZM11.0906 40.3983C9.92848 39.6432 8.57756 39.2479 7.19713 39.2479H7.1617C3.21508 39.2715 0 42.4984 0 46.4568C0 50.4152 3.21508 53.6422 7.1617 53.6658H7.19713C8.63065 53.6658 9.96388 53.241 11.0906 52.5154V53.2705H14.406V39.6196H11.0906V40.4101V40.3983ZM11.0906 47.2061C10.7367 49.0289 9.12619 50.4212 7.19713 50.4212H7.1617C5.00256 50.3976 3.2446 48.6278 3.2446 46.4509C3.2446 44.2741 5.00256 42.5043 7.1617 42.4925H7.19713C9.12619 42.4925 10.7426 43.8789 11.0906 45.6958V47.2001V47.2061ZM31.7676 38.1624H35.3721V34.9945H31.7676V38.1624ZM31.7676 53.2587H35.3721V39.242H31.7676V53.2587ZM26.8063 40.3924C25.6442 39.6373 24.2932 39.242 22.9128 39.242H22.8774C18.919 39.2656 15.7039 42.4925 15.7039 46.4509C15.7039 50.4094 18.919 53.6363 22.8774 53.6599H22.9128C24.2932 53.6599 25.6501 53.2587 26.8063 52.5095V53.2646H30.1217V34.9297H26.8063V40.4042V40.3924ZM26.8063 47.2001C26.4524 49.023 24.8418 50.4153 22.9128 50.4153H22.8774C20.7065 50.3917 18.9426 48.6219 18.9426 46.445C18.9426 44.2682 20.7006 42.4984 22.8774 42.4866H22.9128C24.8418 42.4866 26.4583 43.873 26.8063 45.6899V47.1942V47.2001ZM47.7547 34.9178L43.8493 28.3874L34.2512 12.418L22.8774 19.2612L22.4881 19.4912L22.8774 20.1342L31.7617 34.9178H47.7547Z" fill="black"/>
</svg>
