<svg width="97" height="34" viewBox="0 0 97 34" fill="none" xmlns="http://www.w3.org/2000/svg">
<path d="M22.4681 17.552C22.4268 13.3701 25.885 11.3639 26.0362 11.2677C24.0895 8.42787 21.071 8.03396 19.9946 7.99274C17.425 7.73166 14.9791 9.50885 13.6691 9.50885C12.3591 9.50885 10.3483 8.02938 8.21842 8.07518C5.41523 8.11641 2.82734 9.70581 1.37993 12.2159C-1.52862 17.2589 0.637889 24.7524 3.47773 28.8518C4.87017 30.8581 6.51912 33.1162 8.6948 33.0337C10.7926 32.9513 11.5805 31.6779 14.1043 31.6779C16.6281 31.6779 17.3426 33.0337 19.5549 32.9925C21.8084 32.9467 23.233 30.9451 24.6117 28.9343C26.1965 26.6029 26.856 24.3539 26.8927 24.2302C26.8423 24.2119 22.5047 22.5492 22.4589 17.5566" fill="black"/>
<path d="M18.309 5.2766C19.4633 3.87959 20.242 1.93751 20.0313 0C18.3686 0.0687059 16.3578 1.10845 15.1669 2.50547C14.0997 3.74218 13.1607 5.71632 13.4172 7.61261C15.2631 7.7546 17.1594 6.66904 18.309 5.27202M37.0383 21.6561L35.1236 27.4549H32.664L38.9254 9.02795H41.7927L48.077 27.4549H45.5349L43.5653 21.6561H37.0337H37.0383ZM43.0798 19.7964L41.2797 14.4923C40.8675 13.2877 40.5972 12.1976 40.3224 11.1303H40.272C39.9972 12.2205 39.6995 13.3427 39.3422 14.4649L37.5421 19.7919H43.0798V19.7964ZM49.9458 18.5414C49.9458 16.8467 49.8955 15.4771 49.8359 14.2221H51.9978L52.1078 16.494H52.1581C53.1429 14.8817 54.7003 13.9244 56.8622 13.9244C60.0639 13.9244 62.464 16.6314 62.464 20.6484C62.464 25.4074 59.5692 27.7526 56.45 27.7526C54.7003 27.7526 53.1704 26.9877 52.378 25.6777H52.3276V32.8643H49.9504V18.5414H49.9458ZM52.3184 22.0683C52.3184 22.4256 52.3688 22.7508 52.4284 23.0531C52.8681 24.7204 54.3109 25.87 56.0377 25.87C58.5798 25.87 60.0593 23.7951 60.0593 20.7583C60.0593 18.1063 58.6669 15.839 56.1202 15.839C54.4804 15.839 52.9505 17.0161 52.4833 18.8208C52.4009 19.1185 52.3184 19.4804 52.3184 19.8056V22.0683ZM64.9466 18.5414C64.9466 16.8467 64.8962 15.4771 64.8367 14.2221H66.9986L67.1085 16.494H67.1589C68.1437 14.8817 69.701 13.9244 71.863 13.9244C75.0647 13.9244 77.4648 16.6314 77.4648 20.6484C77.4648 25.4074 74.57 27.7526 71.4507 27.7526C69.701 27.7526 68.1712 26.9877 67.3788 25.6777H67.3284V32.8643H64.9512V18.5414H64.9466ZM67.3238 22.0683C67.3238 22.4256 67.3742 22.7508 67.4337 23.0531C67.8735 24.7204 69.3163 25.87 71.0431 25.87C73.5852 25.87 75.0647 23.7951 75.0647 20.7583C75.0647 18.1063 73.6723 15.839 71.1256 15.839C69.4858 15.839 67.9559 17.0161 67.4887 18.8208C67.4062 19.1185 67.3238 19.4804 67.3238 19.8056V22.0683ZM79.952 8.04774H82.3567V27.4549H79.952V8.04774ZM87.1981 21.2759C87.2485 24.528 89.328 25.87 91.7327 25.87C93.455 25.87 94.4947 25.5723 95.3925 25.1876L95.8047 26.9098C94.9619 27.2945 93.5099 27.7297 91.4075 27.7297C87.3355 27.7297 84.8988 25.0501 84.8988 21.0606C84.8988 17.0711 87.2485 13.9244 91.1052 13.9244C95.4245 13.9244 96.5742 17.7215 96.5742 20.1583C96.5742 20.653 96.5238 21.0331 96.4918 21.2759H87.2027H87.1981ZM94.2519 19.5537C94.2794 18.0238 93.6244 15.6466 90.9174 15.6466C88.4806 15.6466 87.418 17.891 87.2256 19.5537H94.2519Z" fill="black"/>
</svg>
