<svg width="134" height="56" viewBox="0 0 134 56" fill="none" xmlns="http://www.w3.org/2000/svg">
<path d="M126.362 54.37L106.628 0.0482142V0.0096399H106.223L102.162 11.1691L94.7641 31.4916L94.7448 31.4723C92.1791 29.2056 88.5622 27.7974 84.0097 27.267L82.6208 27.1223L84 26.9487C91.5136 25.5983 96.5581 20.8529 96.5581 15.143C96.5581 7.30141 89.1891 1.83258 78.6276 1.83258H56.6559V2.22804H63.041V42.7282L47.5315 0.0385743V0H47.1264L43.0658 11.1595L27.3924 54.2157H27.2959C27.0258 54.2639 26.7654 54.2832 26.505 54.3025C26.1095 54.3314 25.7141 54.3507 25.3283 54.3507H9.49087L39.5935 2.21838L39.8154 1.82294H2.99964V17.9497H3.38547C3.45299 10.0985 8.02479 2.21838 18.133 2.21838H30.3245L0 54.7461H40.857V39.2945H40.4712C40.4134 46.1426 36.536 52.6435 28.0965 54.1095L27.8264 54.1578L34.2501 36.4878H52.2577L58.7489 54.3507H52.3445V54.7365H77.4702V54.3507H71.0465V27.402H78.4637C86.0159 27.402 90.3369 30.7778 90.3369 36.6517V41.4358C90.3369 41.9662 90.3755 42.7282 90.4141 43.3745V43.3937L86.4306 54.341H81.2222V54.7269H92.0055V54.341H86.855L90.4816 44.3679C90.4816 44.4644 90.4912 44.5222 90.4912 44.5222L90.5877 45.4192L90.6841 46.0172C91.2918 49.6921 92.7 52.4024 94.8605 54.0517L95.1691 54.2735C96.8185 55.4213 98.8633 56 101.255 56C104.419 56 106.531 55.2091 108.277 53.3476L108.045 53.1354C106.435 54.6207 105.094 55.2187 103.396 55.2187C100.522 55.2187 99.0079 51.7272 99.0079 48.2838V41.5901C99.0272 39.9311 98.7668 38.2721 98.2363 36.7L98.1688 36.4878H111.335L117.826 54.3507H111.421V54.7365H133.162V54.3507H126.333L126.362 54.37ZM34.4141 36.1116L43.2877 11.7382L52.1419 36.1116H34.4237H34.4141ZM71.0658 27.0258V2.22804H76.7275C84.2894 2.22804 88.2825 6.7227 88.2825 15.2201C88.2825 24.2577 85.9869 27.0162 78.483 27.0162H71.0658V27.0258ZM98.0434 36.1116L98.0048 36.0152C97.4165 34.5877 96.5677 33.2856 95.4971 32.186L95.1306 31.8195L95.092 31.7809L102.374 11.7478L111.228 36.1213H98.0531L98.0434 36.1116Z" fill="black"/>
</svg>
