<svg width="100" viewBox="0 0 420 323" fill="none" xmlns="http://www.w3.org/2000/svg">
<path d="M291.785 136.705L313.543 0H349.277L327.518 136.705H291.785Z" fill="url(#paint0_linear_179_983)"/>
<path d="M127.139 136.705L212.989 0H241.348L283.5 136.705H249.314L242.122 108.982H180.549L164.237 136.705H127.139ZM222.898 37.2363L196.678 81.6381H234.945L223.292 37.2363H222.898Z" fill="url(#paint1_linear_179_983)"/>
<path d="M0 136.705L21.7586 0H80.6007C96.2748 0 108.247 3.48428 116.531 10.468C124.952 17.3153 129.155 26.8138 129.155 38.9785C129.155 51.9006 125.726 62.0504 118.868 69.428C112.131 76.6692 103.27 81.4563 92.2538 83.7741C96.0016 85.1981 99.188 87.5159 101.768 90.7578C104.362 93.8634 106.562 97.6809 108.368 102.195L121.569 136.705H85.0617L69.5242 95.5904C68.2345 91.9698 66.4743 89.455 64.2742 88.031C62.1955 86.4858 59.2822 85.6981 55.5344 85.6981H43.8813L35.718 136.69H0V136.705ZM47.7808 60.5052H73.6058C87.9749 60.5052 95.1671 54.4305 95.1671 42.2809C95.1671 37.2363 93.4829 33.4945 90.1144 31.0404C86.8825 28.5862 81.6932 27.3591 74.5769 27.3591H53.0156L47.7656 60.5204L47.7808 60.5052Z" fill="url(#paint2_linear_179_983)"/>
<path d="M420 185.674H376.498L340.188 229.5C347.547 242.452 353.526 253.011 353.526 253.011L333.816 277.219L333.77 277.598L359.792 322.379H399.213L358.852 252.966L420 185.674Z" fill="url(#paint3_linear_179_983)"/>
<path d="M0 322.379L21.7586 185.674H70.3132C93.3615 185.674 111.099 190.976 123.526 201.58C136.09 212.185 142.371 226.849 142.371 245.603C142.508 260.207 139.519 273.326 133.434 284.96C127.35 296.595 118.352 305.775 106.441 312.501C94.6664 319.091 80.1607 322.394 62.939 322.394H0.0151881L0 322.379ZM40.2093 293.489H63.3183C77.1715 293.489 87.5956 289.217 94.5905 280.688C101.707 272.16 105.273 260.646 105.273 246.179C105.273 235.968 102.359 228.152 96.5327 222.713C90.7061 217.275 81.9663 214.563 70.3132 214.563H52.8335L40.2093 293.489Z" fill="url(#paint4_linear_179_983)"/>
<path d="M307.732 185.674H268.888L301.116 239.195H191.914L195.996 213.215H258.722L263.001 185.674H166.286L144.725 322.379H241.258L245.536 294.838H182.992L187.453 266.721H295.472L246.159 322.379H289.463L345.923 252.996C345.923 252.996 316.001 200.277 307.717 185.674L307.732 185.674Z" fill="url(#paint5_linear_179_983)"/>
<defs>
<linearGradient id="paint0_linear_179_983" x1="320.531" y1="136.705" x2="320.531" y2="0" gradientUnits="userSpaceOnUse">
<stop/>
<stop offset="1" stop-color="#292929"/>
</linearGradient>
<linearGradient id="paint1_linear_179_983" x1="205.319" y1="136.705" x2="205.319" y2="0" gradientUnits="userSpaceOnUse">
<stop/>
<stop offset="1" stop-color="#292929"/>
</linearGradient>
<linearGradient id="paint2_linear_179_983" x1="64.5777" y1="136.705" x2="64.5777" y2="0" gradientUnits="userSpaceOnUse">
<stop/>
<stop offset="1" stop-color="#292929"/>
</linearGradient>
<linearGradient id="paint3_linear_179_983" x1="376.885" y1="322.379" x2="376.885" y2="185.674" gradientUnits="userSpaceOnUse">
<stop/>
<stop offset="1" stop-color="#292929"/>
</linearGradient>
<linearGradient id="paint4_linear_179_983" x1="71.1879" y1="322.394" x2="71.1879" y2="185.674" gradientUnits="userSpaceOnUse">
<stop/>
<stop offset="1" stop-color="#292929"/>
</linearGradient>
<linearGradient id="paint5_linear_179_983" x1="245.324" y1="185.674" x2="245.324" y2="322.379" gradientUnits="userSpaceOnUse">
<stop stop-color="#CE244B"/>
<stop offset="1" stop-color="#450305"/>
</linearGradient>
</defs>
</svg>
