<svg width="181" height="32" viewBox="0 0 181 32" fill="none" xmlns="http://www.w3.org/2000/svg">
<g clip-path="url(#clip0_188_1017)">
<path d="M180.537 0H170.354L161.855 10.2589C163.578 13.2908 164.977 15.7624 164.977 15.7624L160.363 21.4291L160.353 21.5177L166.444 32H175.671L166.224 15.7518L180.537 0Z" fill="#111111"/>
<path d="M82.2235 32L87.3168 0H98.6825C104.078 0 108.23 1.24113 111.139 3.7234C114.079 6.20567 115.55 9.6383 115.55 14.0284C115.582 17.4468 114.882 20.5177 113.458 23.2411C112.034 25.9645 109.927 28.1135 107.139 29.6879C104.383 31.2305 100.988 32.0035 96.9563 32.0035H82.2271L82.2235 32ZM91.6357 25.2376H97.0451C100.288 25.2376 102.728 24.2376 104.365 22.2411C106.031 20.2447 106.866 17.5496 106.866 14.1631C106.866 11.773 106.184 9.94326 104.82 8.67021C103.456 7.39716 101.41 6.76241 98.6825 6.76241H94.5908L91.6357 25.2376Z" fill="#111111"/>
<path d="M70.4506 32L75.5438 0H83.9083L78.815 32H70.4506Z" fill="#111111"/>
<path d="M31.9102 32L52.0062 0H58.6445L68.5113 32H60.5091L58.8256 25.5106H44.4125L40.5943 32H31.9102ZM54.3255 8.71631L48.188 19.1099H57.1456L54.4178 8.71631H54.3255Z" fill="#111111"/>
<path d="M2.14929 32L7.24255 0H21.0164C24.6854 0 27.4877 0.815603 29.427 2.45035C31.3983 4.05319 32.3821 6.2766 32.3821 9.12411C32.3821 12.1489 31.5794 14.5248 29.974 16.2518C28.397 17.9468 26.3228 19.0674 23.7442 19.6099C24.6214 19.9433 25.3673 20.4858 25.9711 21.2447C26.5785 21.9716 27.0935 22.8652 27.5162 23.922L30.6062 32H22.0606L18.4236 22.3759C18.1217 21.5284 17.7097 20.9397 17.1947 20.6064C16.7081 20.2447 16.0261 20.0603 15.1488 20.0603H12.4211L10.5102 31.9965H2.14929V32ZM13.3339 14.1631H19.379C22.7426 14.1631 24.4261 12.7411 24.4261 9.89716C24.4261 8.71631 24.0319 7.84043 23.2434 7.26596C22.4868 6.69149 21.2721 6.40426 19.6063 6.40426H14.5592L13.3303 14.1667L13.3339 14.1631Z" fill="#111111"/>
<path d="M154.258 0H145.165L152.709 12.5284H127.147L128.102 6.44681H142.785L143.787 0H121.148L116.101 32H138.697L139.699 25.5532H125.058L126.103 18.9716H151.388L139.845 32H149.981L163.198 15.7589C163.198 15.7589 156.193 3.41844 154.254 0L154.258 0Z" fill="url(#paint0_linear_188_1017)"/>
</g>
<defs>
<linearGradient id="paint0_linear_188_1017" x1="139.649" y1="0" x2="139.649" y2="32" gradientUnits="userSpaceOnUse">
<stop stop-color="#CE244B"/>
<stop offset="1" stop-color="#450305"/>
</linearGradient>
<clipPath id="clip0_188_1017">
<rect width="180.537" height="32" fill="white"/>
</clipPath>
</defs>
</svg>
