<svg width="268" height="240" viewBox="0 0 268 240" fill="none" xmlns="http://www.w3.org/2000/svg">
<g clip-path="url(#clip0_163_14235)">
<path d="M173.195 142.14C192.815 114.375 190.205 75.7199 165.365 50.8799C137.6 23.1149 92.6 23.1149 64.835 50.8799C37.07 78.6449 37.07 123.645 64.835 151.41C89.72 176.295 128.375 178.86 156.14 159.195C173.195 188.175 202.625 222.33 218.6 205.59L219.545 204.645C236.285 188.67 202.13 159.24 173.15 142.14H173.195Z" fill="#009688"/>
<path opacity="0.26" d="M58.8499 133.59C60.2899 137.19 55.2049 139.665 53.2699 136.29C38.3299 109.83 40.9849 74.7301 64.8349 50.8801C79.1899 36.4801 98.1799 29.5501 117.035 30.0901C120.905 30.1801 121.13 35.8501 117.305 36.3001C70.7299 41.1601 41.0749 89.4451 58.8499 133.59Z" fill="white"/>
<path d="M173.195 142.14C202.175 159.195 236.33 188.67 219.59 204.645L218.645 205.59C202.67 222.33 173.24 188.175 156.185 159.195C156.05 159.06 164.96 153.84 173.24 142.14H173.195Z" fill="#585966"/>
<path d="M215.9 199.515C218.915 199.515 220.715 202.98 218.6 205.59C202.625 222.33 173.195 188.175 156.14 159.195C156.14 159.15 158.435 157.71 162.08 154.515C163.745 153.03 166.355 153.435 167.525 155.28C181.43 177.06 201.05 199.38 215.9 199.515Z" fill="#6E6F80"/>
<path opacity="0.79" d="M154.205 62.0401C175.805 83.6401 175.805 118.65 154.205 140.25C132.605 161.85 97.5949 161.85 75.9949 140.25C54.3949 118.65 54.3949 83.6401 75.9949 62.0401C97.5949 40.4401 132.605 40.4401 154.205 62.0401Z" fill="white"/>
<path opacity="0.48" d="M74.3751 128.775C75.8151 132.24 70.9551 134.805 68.9301 131.655C55.2501 110.82 56.3751 81.66 75.9951 62.04C88.7301 49.305 106.1 44.085 122.615 46.335C126.305 46.83 126.125 52.275 122.39 52.5C84.8601 54.66 59.8401 93.27 74.3751 128.775Z" fill="#EEF7FF"/>
<path d="M145.52 85.125C149.48 87.195 151.055 92.055 149.075 96.06L146.645 101.055L149.075 106.05C151.055 110.055 149.48 114.87 145.52 116.985L140.615 119.595L139.67 125.04C138.905 129.45 134.765 132.42 130.355 131.79L124.865 131.025L120.86 134.895C117.665 138 112.58 138 109.385 134.895L105.38 131.025L99.8899 131.79C95.4799 132.42 91.3399 129.45 90.5749 125.04L89.6299 119.595L84.7249 116.985C80.7649 114.915 79.2349 110.055 81.1699 106.05L83.5999 101.055L81.1699 96.06C79.1899 92.055 80.7649 87.24 84.7249 85.125L89.6299 82.515L90.5749 77.07C91.3399 72.66 95.4799 69.69 99.8899 70.32L105.38 71.085L109.385 67.215C112.58 64.11 117.665 64.11 120.86 67.215L124.865 71.085L130.355 70.32C134.765 69.69 138.905 72.66 139.67 77.07L140.615 82.515L145.52 85.125Z" fill="#FCEE21"/>
<path d="M125.225 85.2151C123.785 84.2701 121.85 84.6751 120.95 86.1151L103.895 112.395C102.545 114.465 104.075 117.21 106.505 117.21C107.54 117.21 108.53 116.67 109.115 115.815L126.17 89.5351C127.115 88.0951 126.71 86.1601 125.27 85.2601L125.225 85.2151Z" fill="#585966"/>
<path d="M126.305 115.23C128.865 115.23 130.94 113.155 130.94 110.595C130.94 108.035 128.865 105.96 126.305 105.96C123.745 105.96 121.67 108.035 121.67 110.595C121.67 113.155 123.745 115.23 126.305 115.23Z" fill="#585966"/>
<path d="M103.67 95.9702C106.23 95.9702 108.305 93.895 108.305 91.3352C108.305 88.7754 106.23 86.7002 103.67 86.7002C101.11 86.7002 99.0349 88.7754 99.0349 91.3352C99.0349 93.895 101.11 95.9702 103.67 95.9702Z" fill="#585966"/>
<path d="M95.8851 171.3C99.4851 173.775 99.4401 179.13 95.8851 181.605C91.1601 184.89 87.0201 188.985 83.7351 193.755C81.2601 197.355 75.9051 197.31 73.4301 193.755C70.1451 189.03 66.0501 184.89 61.2801 181.605C57.6801 179.13 57.7251 173.775 61.2801 171.3C66.0051 168.015 70.1451 163.92 73.4301 159.15C75.9051 155.55 81.2601 155.595 83.7351 159.15C87.0201 163.875 91.1151 168.015 95.8851 171.3Z" fill="#FF7BAC"/>
<path d="M188.45 42.15C191.375 44.175 191.375 48.585 188.45 50.61C184.58 53.31 181.205 56.685 178.505 60.555C176.48 63.48 172.07 63.48 170.045 60.555C167.345 56.685 164.015 53.31 160.1 50.61C157.175 48.585 157.175 44.175 160.1 42.15C163.97 39.45 167.345 36.12 170.045 32.205C172.07 29.28 176.435 29.28 178.505 32.205C181.205 36.075 184.535 39.45 188.45 42.15Z" fill="#D9E021"/>
</g>
<defs>
<clipPath id="clip0_163_14235">
<rect width="180" height="180" fill="white" transform="translate(44 30)"/>
</clipPath>
</defs>
</svg>
