<svg width="94" height="93" viewBox="0 0 94 93" fill="none" xmlns="http://www.w3.org/2000/svg">
<g clip-path="url(#clip0_43_6383)">
<path d="M45.0709 0.536406L27.8261 8.59761C26.36 9.28258 25.4598 10.8448 25.5661 12.5152C25.8658 17.2072 27.0026 26.8255 31.307 34.0005C36.7365 43.0511 43.4784 45.4197 45.8384 45.9929C46.4062 46.1303 46.9986 46.1303 47.5664 45.9929C49.926 45.4197 56.6683 43.0511 62.0978 34.0005C66.4026 26.8259 67.539 17.2068 67.8387 12.5152C67.9449 10.8448 67.044 9.28258 65.5787 8.59761L48.3339 0.536406C47.8234 0.296502 47.2664 0.172119 46.7024 0.172119C46.1384 0.172119 45.5813 0.296502 45.0709 0.536406Z" fill="#FFA91A"/>
<path d="M37.8038 39.3543C37.6069 39.3543 37.41 39.2803 37.2586 39.1317C35.5504 37.4551 33.9972 35.4589 32.6417 33.1997C29.6107 28.1481 28.2384 21.8008 27.6208 17.3653C27.5924 17.1609 27.6463 16.9536 27.7708 16.7889C27.8952 16.6243 28.0799 16.5158 28.2843 16.4873C28.3857 16.4728 28.4888 16.4784 28.5879 16.504C28.687 16.5295 28.7801 16.5744 28.8618 16.6361C28.9434 16.6978 29.0121 16.775 29.0637 16.8634C29.1154 16.9517 29.149 17.0494 29.1627 17.1509C29.7605 21.4424 31.0806 27.5713 33.9766 32.3984C35.2644 34.5451 36.7355 36.4366 38.3491 38.0202C38.4595 38.1284 38.5351 38.2671 38.5664 38.4185C38.5977 38.57 38.5831 38.7273 38.5246 38.8704C38.4661 39.0135 38.3663 39.136 38.238 39.2222C38.1096 39.3083 37.9585 39.3543 37.8038 39.3543ZM28.0349 14.9426C27.8409 14.9424 27.6541 14.8697 27.5109 14.7389C27.3677 14.6081 27.2785 14.4286 27.2608 14.2355L27.2382 13.9844C27.2205 13.7788 27.2853 13.5745 27.4182 13.4166C27.5511 13.2586 27.7413 13.16 27.9469 13.1422C28.3723 13.0994 28.7521 13.4225 28.7891 13.8506L28.8109 14.093C28.8208 14.2009 28.8081 14.3096 28.7736 14.4122C28.7391 14.5149 28.6836 14.6092 28.6105 14.6892C28.5375 14.7692 28.4486 14.833 28.3494 14.8766C28.2503 14.9203 28.1432 14.9427 28.0349 14.9426Z" fill="#FFC91D"/>
<path d="M65.5787 8.59758L58.8707 5.46191C59.6798 6.26597 60.1316 7.41524 60.055 8.62327C59.7549 13.3149 58.6189 22.934 54.3141 30.1087C48.8846 39.1592 42.1427 41.5278 39.7827 42.101C39.3031 42.2151 38.8053 42.2313 38.3193 42.1485C41.5663 44.7016 44.4552 45.657 45.8384 45.9929C46.4062 46.1303 46.9986 46.1303 47.5664 45.9929C49.926 45.4196 56.6683 43.0506 62.0978 34.0005C66.4026 26.8255 67.539 17.2068 67.8387 12.5151C67.9449 10.8447 67.044 9.28255 65.5787 8.59758Z" fill="#F79219"/>
<path d="M65.5787 8.59751L62.4742 7.14624C63.4643 7.94952 64.0329 9.2241 63.9473 10.5691C63.6472 15.2608 62.5112 24.8799 58.2064 32.0545C52.7769 41.105 46.035 43.4736 43.675 44.0469C43.1072 44.1843 42.5148 44.1843 41.947 44.0469C41.376 43.9058 40.8135 43.7324 40.2622 43.5273C42.6884 45.0681 44.7394 45.7258 45.8388 45.9928C46.4067 46.1302 46.999 46.1302 47.5668 45.9928C49.9265 45.4196 56.6687 43.0506 62.0983 34.0005C66.403 26.8254 67.5395 17.2067 67.8391 12.5151C67.945 10.8447 67.044 9.28248 65.5787 8.59751Z" fill="#EF7816"/>
<path d="M45.5542 7.22841L33.4162 12.9023C32.3841 13.3845 31.7509 14.484 31.8252 15.6597C32.0362 18.9624 32.8363 25.7322 35.8662 30.7823C39.688 37.1525 44.4329 38.8198 46.094 39.2234C46.4936 39.3203 46.9106 39.3203 47.3102 39.2234C48.9712 38.8198 53.7165 37.1525 57.538 30.7823C60.5678 25.7322 61.3676 18.962 61.5789 15.6597C61.6536 14.484 61.0196 13.3845 59.9879 12.9023L47.8504 7.22841C47.4911 7.05981 47.0991 6.97241 46.7023 6.97241C46.3054 6.97241 45.9134 7.05981 45.5542 7.22841Z" fill="#F1F2F2"/>
<path d="M59.9885 12.9023L53.0758 9.6709C53.3283 9.95559 53.5219 10.2875 53.6454 10.6474C53.7689 11.0073 53.8199 11.3881 53.7954 11.7678C53.5845 15.0701 52.7847 21.8404 49.7545 26.8904C45.9327 33.2606 41.1877 34.9279 39.5267 35.3311C39.5029 35.3369 39.4788 35.3389 39.4551 35.3439C42.2627 38.0383 44.9325 38.9408 46.0938 39.2229C46.4934 39.3199 46.9104 39.3199 47.31 39.2229C48.9711 38.8194 53.7164 37.1521 57.5378 30.7823C60.5676 25.7322 61.3674 18.9619 61.5787 15.6597C61.6538 14.4843 61.0199 13.3845 59.9885 12.9023Z" fill="#E6E7E8"/>
<path d="M45.9007 30.9204C45.4158 30.9204 44.9483 30.7393 44.59 30.4125L39.0067 25.3236C38.8178 25.1514 38.6647 24.9438 38.5561 24.7125C38.4475 24.4812 38.3855 24.2308 38.3737 23.9755C38.3618 23.7202 38.4004 23.4652 38.4872 23.2248C38.574 22.9845 38.7073 22.7636 38.8794 22.5747C39.0515 22.3858 39.2591 22.2327 39.4905 22.124C39.7218 22.0154 39.9722 21.9534 40.2275 21.9415C40.4827 21.9297 40.7379 21.9683 40.9782 22.0551C41.2186 22.1419 41.4394 22.2753 41.6283 22.4475L45.6376 26.1019L52.3149 17.3005C52.6301 16.8984 53.0907 16.6364 53.5974 16.571C54.1041 16.5055 54.6161 16.6419 55.0231 16.9507C55.4301 17.2595 55.6994 17.716 55.7728 18.2216C55.8462 18.7271 55.7179 19.2413 55.4155 19.6531L47.4509 30.1514C47.2692 30.3904 47.0348 30.5842 46.7659 30.7176C46.497 30.851 46.2009 30.9204 45.9007 30.9204Z" fill="#414042"/>
<path d="M55.7137 63.1228C56.4 62.8733 56.9762 62.3894 57.3405 61.7564L59.4977 58.0198C59.5494 57.9305 59.5633 57.8242 59.5366 57.7245C59.5099 57.6248 59.4447 57.5398 59.3553 57.4882L43.4777 48.3213C41.6162 47.2468 39.2359 47.8843 38.1614 49.7458L36.7568 52.1782L55.7137 63.1228Z" fill="#FCC4AE"/>
<path d="M66.7654 46.3367L36.6992 63.6955L50.1004 86.9073L62.9755 79.4739C65.4636 78.0373 67.5204 75.9591 68.9312 73.4563L79.0496 67.6146L66.7654 46.3367Z" fill="#F2AD97"/>
<path d="M67.8125 71.5199L77.9306 65.6782L79.0475 67.6125L68.9295 73.4542L67.8125 71.5199Z" fill="#E59076"/>
<path d="M83.4913 69.0793L93.4046 63.3559L77.6302 36.0339L67.7168 41.7573C67.0017 42.1702 66.4799 42.8502 66.2662 43.6478C66.0525 44.4454 66.1644 45.2952 66.5773 46.0103L79.2383 67.9398C79.6512 68.6549 80.3312 69.1766 81.1288 69.3903C81.9264 69.604 82.7762 69.4922 83.4913 69.0793Z" fill="#377DE2"/>
<path d="M67.7168 41.7575L67.9219 41.6392L78.8907 60.638C79.187 61.151 79.6748 61.5254 80.247 61.6787C80.8192 61.832 81.4289 61.7518 81.9419 61.4557L89.7159 56.9672L93.4046 63.3561L83.4913 69.0795C82.7762 69.4923 81.9264 69.6042 81.1288 69.3905C80.3312 69.1768 79.6512 68.655 79.2383 67.9399L66.5773 46.0105C66.1644 45.2954 66.0525 44.4456 66.2662 43.648C66.4799 42.8504 67.0017 42.1704 67.7168 41.7575Z" fill="#2266D3"/>
<path d="M67.8146 71.5215L68.9316 73.4557C67.5208 75.9586 65.464 78.0368 62.9759 79.4733L50.1008 86.9068L48.9839 84.9725L61.8589 77.5391C64.347 76.1025 66.4039 74.0243 67.8146 71.5215Z" fill="#E59076"/>
<path d="M71.817 72.4199L26.6391 46.3367L14.3545 67.6138L24.4729 73.4555C25.8837 75.9584 27.9405 78.0366 30.4286 79.4731L40.765 85.4409L51.6455 91.7227C52.4138 92.1472 53.318 92.2533 54.1637 92.0182C55.0094 91.7831 55.729 91.2255 56.1679 90.4653C56.6068 89.7052 56.73 88.8031 56.5108 87.9532C56.2917 87.1032 55.7477 86.3731 54.996 85.92L60.7988 89.2701C61.1798 89.4901 61.6004 89.6329 62.0366 89.6903C62.4728 89.7477 62.916 89.7187 63.341 89.6048C63.7659 89.4909 64.1643 89.2944 64.5133 89.0266C64.8624 88.7588 65.1552 88.4248 65.3752 88.0438C65.5952 87.6628 65.738 87.2421 65.7954 86.806C65.8528 86.3698 65.8237 85.9265 65.7099 85.5016C65.596 85.0766 65.3995 84.6782 65.1317 84.3292C64.8639 83.9802 64.5299 83.6873 64.1489 83.4673L67.0503 85.1424C67.8187 85.568 68.7235 85.6749 69.57 85.44C70.4164 85.2052 71.1368 84.6473 71.576 83.8865C72.0152 83.1257 72.1381 82.2229 71.9182 81.3724C71.6983 80.5219 71.1532 79.7918 70.4004 79.3392L68.4661 78.2227C69.2356 78.6668 70.1501 78.7872 71.0083 78.5572C71.8665 78.3272 72.5982 77.7658 73.0425 76.9963C73.2627 76.6154 73.4056 76.1948 73.4631 75.7586C73.5206 75.3225 73.4917 74.8792 73.3779 74.4542C73.2641 74.0292 73.0676 73.6308 72.7998 73.2818C72.532 72.9327 72.198 72.6399 71.817 72.4199Z" fill="#FCC4AE"/>
<path d="M9.91334 69.0793L0 63.3559L15.7745 36.0339L25.6878 41.7573C26.4029 42.1702 26.9247 42.8502 27.1384 43.6478C27.3521 44.4454 27.2402 45.2952 26.8274 46.0103L14.1664 67.9398C13.7535 68.6549 13.0734 69.1766 12.2759 69.3903C11.4783 69.604 10.6284 69.4922 9.91334 69.0793Z" fill="#377DE2"/>
<path d="M25.6878 41.7575L25.4827 41.6392L14.5139 60.638C14.2177 61.151 13.7298 61.5254 13.1576 61.6787C12.5854 61.832 11.9758 61.7518 11.4627 61.4557L3.6887 56.9672L0 63.3561L9.91334 69.0795C10.6284 69.4923 11.4783 69.6042 12.2759 69.3905C13.0734 69.1768 13.7535 68.655 14.1664 67.9399L26.8274 46.0105C27.2402 45.2954 27.3521 44.4456 27.1384 43.648C26.9247 42.8504 26.4029 42.1704 25.6878 41.7575Z" fill="#2266D3"/>
<path d="M65.768 86.9223C64.7203 87.7867 63.2118 87.9669 61.9664 87.2481L49.1517 79.8497L47.9841 81.8719L60.7988 89.2703C61.5684 89.7145 62.4829 89.8348 63.3412 89.6048C64.1995 89.3749 64.9313 88.8134 65.3757 88.044C65.5727 87.6966 65.7056 87.3167 65.768 86.9223ZM72.0199 82.7946C70.9722 83.659 69.4637 83.8392 68.2183 83.1204L52.5022 74.0465L51.3346 76.0687L67.0507 85.1426C67.4317 85.3626 67.8524 85.5053 68.2885 85.5628C68.7247 85.6202 69.168 85.5911 69.5929 85.4773C70.0179 85.3634 70.4163 85.1669 70.7653 84.8991C71.1143 84.6312 71.4072 84.2973 71.6272 83.9163C71.8334 83.559 71.9552 83.1787 72.0199 82.7946ZM73.4357 75.8749C72.388 76.7393 70.8795 76.9195 69.6341 76.2006L55.8523 68.2437L54.6847 70.266L68.4666 78.2229C69.2361 78.667 70.1505 78.7874 71.0088 78.5574C71.867 78.3274 72.5987 77.766 73.043 76.9965C73.2403 76.6493 73.3733 76.2694 73.4357 75.8749ZM14.353 67.6144L15.4696 65.6802L25.5877 71.5219L24.4707 73.4561L14.353 67.6144ZM52.8131 89.7007L31.5457 77.5391C29.0576 76.1025 27.0008 74.0243 25.59 71.5215L24.473 73.4557C25.8838 75.9586 27.9406 78.0367 30.4287 79.4733L51.6456 91.7229C52.4152 92.1671 53.3297 92.2875 54.1879 92.0575C55.0462 91.8275 55.778 91.2661 56.2224 90.4966C56.4287 90.1397 56.5505 89.7591 56.6147 89.375C55.567 90.2394 54.0582 90.4195 52.8131 89.7007Z" fill="#F2AD97"/>
<path d="M41.759 91.7229L46.8367 88.7916C47.5935 88.341 48.1424 87.6105 48.3646 86.7582C48.5869 85.9059 48.4646 85.0003 48.0242 84.2376C47.5838 83.4748 46.8607 82.9161 46.0115 82.6824C45.1623 82.4487 44.2552 82.5587 43.4865 82.9888L38.4088 85.9202C37.652 86.3708 37.1031 87.1013 36.8809 87.9536C36.6586 88.8059 36.7809 89.7114 37.2213 90.4742C37.6617 91.237 38.3848 91.7957 39.234 92.0294C40.0832 92.2631 40.9903 92.153 41.759 91.7229Z" fill="#F2AD97"/>
<path d="M45.7195 86.8575L40.6418 89.7888C39.3804 90.517 37.8501 90.3205 36.8013 89.4273C36.8686 89.7931 36.985 90.1562 37.1819 90.4972C37.6262 91.2666 38.3579 91.828 39.2162 92.058C40.0744 92.288 40.9888 92.1677 41.7583 91.7235L46.836 88.7921C47.6055 88.3478 48.1669 87.6161 48.3969 86.7579C48.6269 85.8996 48.5065 84.9852 48.0624 84.2157C47.8654 83.8748 47.6097 83.5922 47.3264 83.3513C47.5759 84.7053 46.9812 86.1289 45.7195 86.8575Z" fill="#E59076"/>
<path d="M32.6056 89.2703L42.519 83.547C43.2758 83.0963 43.8247 82.3658 44.0469 81.5135C44.2692 80.6612 44.1469 79.7557 43.7065 78.9929C43.2661 78.2301 42.5431 77.6714 41.6938 77.4377C40.8446 77.204 39.9375 77.3141 39.1689 77.7442L29.2555 83.4676C28.4987 83.9182 27.9498 84.6487 27.7276 85.501C27.5053 86.3533 27.6276 87.2588 28.068 88.0216C28.5084 88.7844 29.2314 89.3431 30.0807 89.5768C30.9299 89.8105 31.837 89.7004 32.6056 89.2703Z" fill="#F2AD97"/>
<path d="M41.4023 81.6129L31.4889 87.3362C30.2276 88.0644 28.6973 87.8679 27.6484 86.9747C27.7158 87.3405 27.8321 87.7036 28.0291 88.0445C28.4734 88.814 29.2051 89.3754 30.0633 89.6054C30.9216 89.8354 31.836 89.715 32.6055 89.2709L42.5188 83.5475C43.2883 83.1032 43.8497 82.3715 44.0797 81.5132C44.3097 80.655 44.1893 79.7406 43.7452 78.9711C43.5482 78.6301 43.2925 78.3476 43.0092 78.1067C43.2587 79.4607 42.6636 80.8843 41.4023 81.6129Z" fill="#E59076"/>
<path d="M26.3537 85.1427L38.2013 78.3023C38.9581 77.8517 39.507 77.1212 39.7292 76.2689C39.9515 75.4166 39.8292 74.5111 39.3888 73.7483C38.9484 72.9855 38.2254 72.4268 37.3761 72.1931C36.5269 71.9594 35.6198 72.0695 34.8512 72.4996L23.0036 79.3399C22.2468 79.7905 21.6979 80.521 21.4756 81.3733C21.2534 82.2256 21.3757 83.1311 21.8161 83.8939C22.2564 84.6567 22.9795 85.2154 23.8287 85.4491C24.6779 85.6828 25.585 85.5727 26.3537 85.1427Z" fill="#F2AD97"/>
<path d="M37.0846 76.3681L25.237 83.2085C23.9756 83.9366 22.4453 83.7401 21.3965 82.8465C21.4638 83.2124 21.5802 83.5755 21.7771 83.9164C22.2214 84.6858 22.9532 85.2473 23.8114 85.4772C24.6696 85.7072 25.584 85.5869 26.3535 85.1427L38.2011 78.3024C38.9706 77.8581 39.532 77.1263 39.762 76.2681C39.992 75.4099 39.8716 74.4955 39.4275 73.726C39.2305 73.385 38.9748 73.1025 38.6915 72.8616C38.941 74.2163 38.3459 75.64 37.0846 76.3681Z" fill="#E59076"/>
<path d="M24.9377 78.223L33.8839 73.0577C34.6407 72.6071 35.1896 71.8766 35.4118 71.0243C35.6341 70.172 35.5118 69.2665 35.0714 68.5037C34.631 67.7409 33.908 67.1822 33.0587 66.9485C32.2095 66.7148 31.3024 66.8249 30.5338 67.2549L21.5876 72.4202C20.8308 72.8708 20.2818 73.6013 20.0596 74.4536C19.8373 75.3059 19.9597 76.2114 20.4 76.9742C20.8404 77.737 21.5635 78.2957 22.4127 78.5294C23.2619 78.7631 24.169 78.653 24.9377 78.223Z" fill="#F2AD97"/>
<path d="M32.7677 71.1235L23.8214 76.2884C22.5601 77.0166 21.0298 76.82 19.981 75.9268C20.0483 76.2927 20.1647 76.6558 20.3616 76.9967C20.8059 77.7661 21.5376 78.3276 22.3959 78.5576C23.2541 78.7875 24.1685 78.6672 24.938 78.223L33.8842 73.0582C34.6537 72.6138 35.2151 71.882 35.4451 71.0237C35.6751 70.1654 35.5547 69.2509 35.1106 68.4813C34.9136 68.1404 34.6579 67.8578 34.3746 67.6169C34.6237 68.9717 34.029 70.3953 32.7677 71.1235Z" fill="#E59076"/>
<path d="M32.7907 72.3995L33.5745 71.9468C34.0214 71.6888 34.3475 71.2638 34.4811 70.7653C34.6147 70.2668 34.5447 69.7356 34.2867 69.2887L33.9991 68.7905C33.741 68.3436 33.316 68.0175 32.8175 67.8839C32.319 67.7504 31.7879 67.8203 31.341 68.0783L30.5571 68.5309C30.3784 68.6342 30.2479 68.8042 30.1945 69.0036C30.1411 69.203 30.169 69.4154 30.2722 69.5942L31.7274 72.1146C31.8306 72.2933 32.0006 72.4238 32.2 72.4772C32.3994 72.5306 32.6119 72.5027 32.7907 72.3995ZM37.1083 77.6437L37.8921 77.1911C38.339 76.9331 38.6652 76.508 38.7987 76.0095C38.9323 75.511 38.8624 74.9799 38.6043 74.533L38.3167 74.0348C38.0587 73.5879 37.6336 73.2618 37.1351 73.1282C36.6367 72.9946 36.1055 73.0646 35.6586 73.3226L34.5276 73.9757C34.4409 74.0257 34.3776 74.1082 34.3517 74.2049C34.3258 74.3016 34.3394 74.4046 34.3894 74.4913L36.045 77.3588C36.0961 77.4474 36.1641 77.525 36.2452 77.5873C36.3263 77.6495 36.4189 77.6952 36.5176 77.7217C36.6164 77.7481 36.7194 77.7548 36.8207 77.7415C36.9221 77.7281 37.0198 77.6949 37.1083 77.6437ZM41.4255 82.8884L42.2094 82.4358C42.6563 82.1777 42.9824 81.7527 43.116 81.2542C43.2495 80.7557 43.1796 80.2246 42.9216 79.7776L42.634 79.2795C42.3759 78.8326 41.9509 78.5064 41.4524 78.3729C40.9539 78.2393 40.4228 78.3092 39.9758 78.5673L39.192 79.0199C39.0132 79.1231 38.8828 79.2931 38.8294 79.4925C38.7759 79.6919 38.8039 79.9044 38.9071 80.0831L40.3623 82.6035C40.4655 82.7823 40.6355 82.9127 40.8349 82.9662C41.0343 83.0196 41.2468 82.9916 41.4255 82.8884ZM45.7432 88.1331L46.527 87.6805C46.9739 87.4224 47.3 86.9974 47.4336 86.4989C47.5672 86.0004 47.4972 85.4692 47.2392 85.0223L46.9516 84.5242C46.6935 84.0772 46.2685 83.7511 45.77 83.6175C45.2715 83.484 44.7404 83.5539 44.2934 83.8119L43.5096 84.2646C43.3309 84.3678 43.2004 84.5378 43.147 84.7372C43.0936 84.9366 43.1215 85.149 43.2247 85.3278L44.6799 87.8482C44.7831 88.027 44.9531 88.1574 45.1525 88.2108C45.3519 88.2643 45.5644 88.2363 45.7432 88.1331Z" fill="#FFD2C0"/>
<path d="M43.3501 61.1448L57.2051 53.1455L55.2425 49.7459C54.1679 47.8845 51.7877 47.2466 49.9262 48.3215L34.0486 57.4884C33.9592 57.54 33.894 57.625 33.8673 57.7247C33.8406 57.8244 33.8545 57.9306 33.9061 58.02L34.3121 58.7233C36.1393 61.8877 40.1857 62.972 43.3501 61.1448Z" fill="#F2AD97"/>
<path d="M39.5639 58.0383L41.3406 57.0124C41.597 56.8642 41.7841 56.6203 41.8608 56.3342C41.9374 56.0481 41.8973 55.7433 41.7492 55.4868L40.6906 53.6533L35.646 56.566L35.9344 57.0657C36.2868 57.6759 36.8671 58.1212 37.5478 58.3036C38.2284 58.4859 38.9536 58.3905 39.5639 58.0383Z" fill="#FFD2C0"/>
</g>
<defs>
<clipPath id="clip0_43_6383">
<rect width="93.4046" height="92" fill="white" transform="translate(0 0.172119)"/>
</clipPath>
</defs>
</svg>
